<svg xmlns="http://www.w3.org/2000/svg" viewBox="0 0 48 48" width="48px" height="48px" fill="currentColor">
    <path
        d="M21.984 5.296l1.889 4.089c1.375 2.977 3.765 5.367 6.741 6.741l4.089 1.889c1.692.782 1.692 3.187 0 3.968l-4.089 1.889c-2.977 1.375-5.367 3.765-6.741 6.741l-1.889 4.089c-.782 1.692-3.187 1.692-3.968 0l-1.889-4.089c-1.375-2.977-3.765-5.367-6.741-6.741l-4.089-1.889c-1.692-.782-1.692-3.187 0-3.968l4.089-1.889c2.977-1.375 5.367-3.765 6.741-6.741l1.889-4.089C18.797 3.604 21.203 3.604 21.984 5.296zM35.696 43.072l-.448-1.242c-.517-1.433-1.645-2.561-3.078-3.078l-1.242-.448c-1.222-.441-1.222-2.168 0-2.609l1.242-.448c1.433-.517 2.561-1.645 3.078-3.078l.448-1.242c.441-1.222 2.168-1.222 2.609 0l.448 1.242c.517 1.433 1.645 2.561 3.078 3.078l1.242.448c1.222.441 1.222 2.168 0 2.609l-1.242.448c-1.433.517-2.561 1.645-3.078 3.078l-.448 1.242C37.864 44.293 36.136 44.293 35.696 43.072z" />
</svg>