<svg xmlns="http://www.w3.org/2000/svg" width="100%" height="100%" viewBox="0 0 32 32">
    <path fill="currentColor" transform="scale(0.7)" transform-origin="12 12"
        d="M20.298 2.688c-9.79.447 1.132 8.785-4.389 13.179l-.001.001-.002-.003-.078.034c-3.867 1.565-8.173-4.717-8.298 1.884 2.042-3.063 2.973-.073 6.33-.26-1.63 2.154-.831 5.768-3.549 6.356-4.966 1.074-8.599-4.963-8.296-8.751.672-8.414 7.266-12.239 13.813-11.845C7.162 1.548-.185 8.69.03 16.1c.247 8.496 4.754 12.654 11.673 13.213 9.79-.447-1.132-8.785 4.389-13.179l.001-.001.002.003.078-.034c3.867-1.565 8.173 4.717 8.298-1.884-2.042 3.064-2.973.073-6.33.26 1.63-2.154.831-5.768 3.549-6.356 4.966-1.074 8.599 4.962 8.296 8.751-.672 8.415-7.266 12.239-13.813 11.845 8.666 1.735 16.013-5.407 15.798-12.817-.247-8.495-4.755-12.653-11.673-13.212z" />
    <rect x="0.5" y="0.5" width="28" height="28" rx="7" ry="7"
        fill="none" stroke="currentColor" stroke-width="2" />
</svg>