<svg class="svg-icon" style="width:1em;height:1em;vertical-align:middle;fill:currentColor;overflow:hidden" viewBox="0 0 1024 1024" xmlns="http://www.w3.org/2000/svg"><path d="M512 864a32 32 0 0 1 0 64 416 416 0 1 1 311.68-693.44 32 32 0 1 1-47.36 42.88A352 352 0 1 0 512 864z"/><path d="M864 512a32 32 0 0 1 64 0 424.64 424.64 0 0 1-12.8 103.04 32 32 0 1 1-62.08-15.68A360.96 360.96 0 0 0 864 512zm-43.84 170.56a32 32 0 0 1 56 32 408.64 408.64 0 0 1-61.44 84.16A32 32 0 1 1 768 753.6a364.16 364.16 0 0 0 52.16-71.04zm-120.96 128a32 32 0 0 1 43.84 10.24 32 32 0 0 1-9.92 43.2A423.36 423.36 0 0 1 640 908.48a32 32 0 0 1-19.52-61.12 349.76 349.76 0 0 0 78.72-37.12zM533.76 864a32 32 0 0 1 4.16 64H512a32 32 0 0 1 0-64zM768 224V64a32 32 0 0 1 64 0v192a32 32 0 0 1-32 32H608a32 32 0 0 1 0-64z"/></svg>