<svg
  xmlns="http://www.w3.org/2000/svg"
  viewBox="0 0 436.028 436.028"
  xml:space="preserve"
  fill="currentColor"
>
  <path
    d="M416.242 385.134c-4.974-2.112-10.893-4.122-17.701-6.02 5.432-17.537 33.617-26.237 33.919-26.329a5 5 0 0 0 .5-9.401c-24.541-10.283-48.866-7.254-59.377-5.133-.322-5.05.156-12.962 1.022-19.423a5.003 5.003 0 0 0-5.497-5.635c-5.784.63-11.288 2.605-16.462 5.85v-215.96a5 5 0 0 0-5-5h-30.842c-3.337-39.962-46.371-71.685-98.79-71.685s-95.453 31.723-98.79 71.685H88.382a5 5 0 0 0-5 5v215.949c-5.173-3.245-10.678-5.209-16.462-5.838a5.002 5.002 0 0 0-5.497 5.635c.865 6.461 1.343 14.373 1.021 19.423-10.511-2.121-34.838-5.149-59.376 5.133a4.999 4.999 0 0 0 .52 9.407c.307.091 28.666 8.685 33.949 26.309-6.83 1.903-12.766 3.917-17.751 6.034C6.472 390.788 0 397.165 0 404.63a4.998 4.998 0 0 0 5 5h426.027a5 5 0 0 0 5-5c0-7.465-6.471-13.842-19.785-19.496zm-63.596-53.604c3.577-3.22 7.351-5.543 11.282-6.949-.583 6.89-.931 16.656 1.089 21.625a5 5 0 0 0 6.057 2.91c.247-.073 21.458-6.21 45.456-.567-10.343 5.183-23.664 14.299-27.693 28.081-5.916-1.397-12.352-2.725-19.315-3.976a518.456 518.456 0 0 0-16.876-2.729V331.53zM93.382 108.082h30.634a5 5 0 0 0 5-5c0-36.77 39.924-66.685 88.998-66.685 49.073 0 88.998 29.915 88.998 66.685a5 5 0 0 0 5 5h30.634v260.47c-3.538-.457-7.14-.894-10.809-1.309V124.394a5 5 0 0 0-5-5h-28.378v-6.418c0-16.842-8.72-33.665-23.924-46.153-15.382-12.635-35.455-19.593-56.521-19.593-21.066 0-41.139 6.958-56.522 19.593-15.204 12.489-23.924 29.311-23.924 46.153v6.418H109.19a5 5 0 0 0-5 5v242.848c-3.669.415-7.271.853-10.809 1.309V108.082zm200.077 21.312h28.378V366.18c-31.427-3.14-66.918-4.811-103.823-4.811-36.906 0-72.397 1.671-103.823 4.811V129.394h28.378a5 5 0 0 0 5-5v-11.418c0-29.697 32.918-55.747 70.445-55.747 37.527 0 70.445 26.05 70.445 55.747v11.418a5 5 0 0 0 5 5zM19.604 348.531c23.887-5.56 45.107.513 45.35.585a5 5 0 0 0 6.057-2.91c2.02-4.968 1.672-14.734 1.089-21.625 3.932 1.406 7.705 3.73 11.282 6.951v38.393c-5.843.852-11.48 1.76-16.875 2.729-6.943 1.247-13.362 2.571-19.265 3.964-3.945-13.831-17.258-22.925-27.638-28.087zm-5.723 51.099c6.489-4.793 22.138-11.341 54.393-17.134 39.95-7.176 93.128-11.128 149.74-11.128s109.79 3.952 149.739 11.128c32.256 5.793 47.905 12.342 54.393 17.134H13.881z"
  />
  <path
    d="M296.211 220.087H139.816a5 5 0 0 1-5-5v-48.659a5 5 0 0 1 5-5h156.395a5 5 0 0 1 5 5v48.659a5 5 0 0 1-5 5zm-151.395-10h146.395v-38.659H144.816v38.659z"
  />
</svg>
