<svg
  xmlns="http://www.w3.org/2000/svg"
  viewBox="0 0 490.667 490.667"
  xml:space="preserve"
  fill="currentColor"
>
  <path
    d="M488.095 153.614 247.762 20.088a5.003 5.003 0 0 0-4.854-.002L2.575 153.398a5 5 0 0 0 2.426 9.373h21.703v21.699a5 5 0 0 0 5 5h21.704v22.126a5 5 0 0 0 5 5H71.21v164.505H58.408a5 5 0 0 0-5 5v21.709H40.605a5 5 0 0 0-5 5v21.699h-3.901a5 5 0 0 0-5 5v26.699a5 5 0 0 0 5 5h427.26a5 5 0 0 0 5-5V439.51a5 5 0 0 0-5-5h-3.901v-21.7a5 5 0 0 0-5-5H437.26v-21.709a5 5 0 0 0-5-5h-12.803V216.596h12.803a5 5 0 0 0 5-5V189.47h21.704a5 5 0 0 0 5-5v-21.658l21.663.173h.04a5 5 0 0 0 2.428-9.371zM151.321 189.47v22.126a5 5 0 0 0 5 5h12.803v164.505h-12.803a5 5 0 0 0-5 5v21.709h-7.802v-21.709a5 5 0 0 0-5-5h-12.803V216.596h12.803a5 5 0 0 0 5-5V189.47h7.802zm178.025 218.34h-70.111v-16.709h70.112v16.709zm-52.308-26.709V216.596h34.506v164.505h-34.506zm39.607-174.505c-.035-.001-.067-.01-.102-.01h-44.506c-.035 0-.067.01-.102.01h-12.701v-16.709h70.111v16.709h-12.7zm-62.41 10h12.803v164.505h-12.803a5 5 0 0 0-5 5v21.709h-7.803v-21.709a5 5 0 0 0-5-5h-12.803V216.596h12.803a5 5 0 0 0 5-5V189.47h7.803v22.126a5 5 0 0 0 5 5zm-92.914-26.709h70.111v16.709h-12.701c-.035-.001-.067-.01-.102-.01h-44.506c-.035 0-.067.01-.102.01H161.32v-16.709zm17.803 26.709h34.506v164.505h-34.506V216.596zm-5 174.505h57.309v16.709h-70.111v-16.709h12.802zM63.408 189.887h70.111v16.709h-12.701c-.035-.001-.067-.01-.102-.01H76.21c-.035 0-.067.01-.102.01h-12.7v-16.709zm17.802 26.709h34.506v164.505H81.21V216.596zM63.408 391.101h70.111v16.709H63.408v-16.709zm381.654 43.409h-3.461a5 5 0 1 0 0 10h12.362v16.699H36.704V444.51h374.879a5 5 0 1 0 0-10H45.605v-16.7h399.457v16.7zm-17.803-26.7h-70.111v-16.709h70.112v16.709zm-17.802-26.709h-34.506V216.596h34.506v164.505zm17.802-174.505h-12.701c-.035-.001-.067-.01-.102-.01H369.95c-.035 0-.067.01-.102.01h-12.701v-16.709h70.111v16.709zm-75.111 10h12.803v164.505h-12.803a5 5 0 0 0-5 5v21.709h-7.802v-21.709a5 5 0 0 0-5-5h-12.803V216.596h12.803a5 5 0 0 0 5-5V189.47h7.802v22.126a5 5 0 0 0 5 5zm106.855-63.825h-14.401a5 5 0 1 0 0 10h9.361v16.699H36.704v-16.699h374.878a5 5 0 1 0 0-10H24.323L245.332 30.177l220.759 122.65-7.088-.056zM197.949 67.923a5 5 0 0 0-1.784 3.829v56.218a5 5 0 0 0 4.137 4.925l44.169 7.743a4.996 4.996 0 0 0 1.726 0l44.169-7.743a5 5 0 0 0 4.137-4.925V71.752a5.002 5.002 0 0 0-5.863-4.925l-43.306 7.591-43.306-7.591a5.008 5.008 0 0 0-4.079 1.096zm8.216 9.781 34.169 5.99v33.31a5 5 0 1 0 10 0v-33.31l34.169-5.99v46.066l-34.169 5.99v-.203a5 5 0 1 0-10 0v.203l-34.169-5.99V77.704zM103.463 229.833v141.5a5 5 0 1 1-10 0v-141.5a5 5 0 1 1 10 0zm97.913 0v141.5a5 5 0 1 1-10 0v-141.5a5 5 0 1 1 10 0zm97.914 0v141.5a5 5 0 1 1-10 0v-141.5a5 5 0 1 1 10 0zm87.914 141.5v-141.5a5 5 0 1 1 10 0v141.5a5 5 0 1 1-10 0z"
  />
</svg>
