<?xml version="1.0" encoding="UTF-8"?>
<svg xmlns="http://www.w3.org/2000/svg" xmlns:xlink="http://www.w3.org/1999/xlink" width="32px"
	height="32px" viewBox="0 0 32 32" version="1.1">
	<g id="surface1">
		<path
			style=" stroke:none;fill-rule:nonzero;fill:currentColor;fill-opacity:1;"
			d="M 31 1 C 30.449219 1 30 1.449219 30 2 L 30 3 L 2 3 L 2 2 C 2 1.449219 1.550781 1 1 1 C 0.449219 1 0 1.449219 0 2 L 0 30 C 0 30.550781 0.449219 31 1 31 C 1.550781 31 2 30.550781 2 30 L 2 17 L 30 17 L 30 30 C 30 30.550781 30.449219 31 31 31 C 31.550781 31 32 30.550781 32 30 L 32 2 C 32 1.449219 31.550781 1 31 1 Z M 26 15 L 26 10 L 21 10 L 21 15 L 16 15 L 16 10 L 11 10 L 11 15 L 6 15 L 6 10 L 2 10 L 2 5 L 6 5 L 6 10 L 11 10 L 11 5 L 16 5 L 16 10 L 21 10 L 21 5 L 26 5 L 26 10 L 30 10 L 30 15 Z M 26 15 " />
		<path style=" stroke:none;fill-rule:nonzero;fill:rgb(0%,23.137255%,32.941176%);fill-opacity:1;"
			d="M 16 10 L 21 10 L 21 15 L 16 15 Z M 2 5 L 6 5 L 6 10 L 2 10 Z M 6 10 L 11 10 L 11 15 L 6 15 Z M 26 10 L 30 10 L 30 15 L 26 15 Z M 21 5 L 26 5 L 26 10 L 21 10 Z M 11 5 L 16 5 L 16 10 L 11 10 Z M 11 5 " />
	</g>
</svg>