<?xml version="1.0" encoding="UTF-8"?>
<svg xmlns="http://www.w3.org/2000/svg" xmlns:xlink="http://www.w3.org/1999/xlink" width="32px"
    height="32px" viewBox="0 0 32 32" version="1.1">
    <g id="surface1">
        <path
            style="fill:none;stroke-width:2;stroke-linecap:round;stroke-linejoin:round;stroke:currentColor;stroke-opacity:1;stroke-miterlimit:4;"
            d="M 11.235352 2.373047 C 10.866211 2.525391 10.538086 2.856445 9.878906 3.512695 C 9.219727 4.174805 8.888672 4.50293 8.739258 4.869141 C 8.537109 5.361328 8.537109 5.912109 8.739258 6.401367 C 8.888672 6.767578 9.219727 7.098633 9.878906 7.757812 C 10.538086 8.416992 10.866211 8.745117 11.235352 8.897461 C 11.724609 9.099609 12.275391 9.099609 12.764648 8.897461 C 13.133789 8.745117 13.461914 8.416992 14.121094 7.757812 C 14.780273 7.098633 15.108398 6.767578 15.260742 6.401367 C 15.462891 5.912109 15.462891 5.361328 15.260742 4.87207 C 15.108398 4.50293 14.780273 4.174805 14.121094 3.515625 C 13.461914 2.856445 13.133789 2.525391 12.764648 2.373047 C 12.275391 2.170898 11.724609 2.170898 11.235352 2.373047 Z M 4.869141 8.739258 C 4.50293 8.888672 4.171875 9.219727 3.515625 9.878906 C 2.856445 10.538086 2.525391 10.866211 2.373047 11.235352 C 2.170898 11.724609 2.170898 12.275391 2.373047 12.764648 C 2.525391 13.133789 2.856445 13.461914 3.512695 14.121094 C 4.174805 14.780273 4.50293 15.108398 4.869141 15.260742 C 5.361328 15.462891 5.912109 15.462891 6.401367 15.260742 C 6.767578 15.108398 7.098633 14.780273 7.757812 14.121094 C 8.416992 13.461914 8.745117 13.133789 8.897461 12.764648 C 9.099609 12.275391 9.099609 11.724609 8.897461 11.235352 C 8.745117 10.866211 8.416992 10.538086 7.757812 9.878906 C 7.098633 9.219727 6.767578 8.888672 6.401367 8.739258 C 5.912109 8.53418 5.361328 8.53418 4.87207 8.739258 Z M 16.242187 9.878906 C 15.583008 10.538086 15.254883 10.866211 15.102539 11.235352 C 14.900391 11.724609 14.900391 12.275391 15.102539 12.764648 C 15.254883 13.133789 15.583008 13.461914 16.242187 14.121094 C 16.901367 14.780273 17.232422 15.108398 17.598633 15.260742 C 18.087891 15.462891 18.638672 15.462891 19.12793 15.260742 C 19.49707 15.108398 19.828125 14.780273 20.487305 14.121094 C 21.143555 13.461914 21.47168 13.133789 21.626953 12.764648 C 21.829102 12.275391 21.829102 11.724609 21.626953 11.235352 C 21.47168 10.866211 21.143555 10.538086 20.487305 9.878906 C 19.825195 9.219727 19.49707 8.888672 19.130859 8.739258 C 18.638672 8.53418 18.087891 8.53418 17.598633 8.739258 C 17.232422 8.888672 16.901367 9.219727 16.242187 9.878906 Z M 11.235352 15.102539 C 10.866211 15.254883 10.538086 15.583008 9.878906 16.242187 C 9.219727 16.901367 8.888672 17.232422 8.739258 17.598633 C 8.537109 18.087891 8.537109 18.638672 8.739258 19.12793 C 8.888672 19.49707 9.219727 19.825195 9.878906 20.484375 C 10.538086 21.143555 10.866211 21.474609 11.235352 21.624023 C 11.724609 21.829102 12.275391 21.829102 12.764648 21.624023 C 13.133789 21.474609 13.461914 21.143555 14.121094 20.484375 C 14.780273 19.825195 15.108398 19.49707 15.260742 19.12793 C 15.462891 18.638672 15.462891 18.087891 15.260742 17.598633 C 15.108398 17.232422 14.780273 16.901367 14.121094 16.242187 C 13.461914 15.583008 13.133789 15.254883 12.764648 15.102539 C 12.275391 14.900391 11.724609 14.900391 11.235352 15.102539 Z M 11.235352 15.102539 "
            transform="matrix(1.333333,0,0,1.333333,0,0)" />
    </g>
</svg>