<?xml version="1.0" encoding="UTF-8"?>
<svg xmlns="http://www.w3.org/2000/svg" xmlns:xlink="http://www.w3.org/1999/xlink" width="32px"
	height="32px" viewBox="0 0 32 32" version="1.1">
	<g id="surface1">
		<path style=" stroke:none;fill-rule:nonzero;fill:currentColor;fill-opacity:1;"
			d="M 9.769531 28.320312 L 6.328125 23.183594 C 6.46875 22.8125 6.453125 22.378906 6.25 22 C 5.875 21.300781 5.003906 21.039062 4.308594 21.414062 C 3.609375 21.789062 3.347656 22.65625 3.71875 23.355469 C 3.972656 23.824219 4.449219 24.097656 4.945312 24.113281 L 8.386719 29.25 C 8.246094 29.621094 8.257812 30.054688 8.464844 30.433594 C 8.835938 31.132812 9.707031 31.394531 10.40625 31.019531 C 11.105469 30.644531 11.367188 29.773438 10.992188 29.078125 C 10.742188 28.605469 10.265625 28.335938 9.769531 28.320312 Z M 0.429688 27.941406 C -0.03125 28.273438 -0.136719 28.914062 0.191406 29.375 L 1.542969 31.257812 C 1.871094 31.71875 2.511719 31.824219 2.972656 31.496094 L 6.628906 29.078125 L 4.277344 25.488281 Z M 29.394531 10.785156 C 33.066406 5.058594 28.964844 0.3125 28.964844 0.3125 C 28.964844 0.3125 28.859375 0.683594 28.570312 1.503906 C 26.0625 7.410156 21.15625 12.679688 16.753906 16.550781 C 17.910156 17.535156 19.09375 18.484375 20.304688 19.398438 C 24.023438 16.578125 27.730469 13.386719 29.394531 10.785156 Z M 7.921875 23.222656 L 10.164062 26.371094 C 10.164062 26.371094 12.277344 25.066406 15.132812 23.109375 C 14.039062 22.347656 12.871094 21.507812 11.691406 20.628906 C 9.445312 22.289062 7.921875 23.222656 7.921875 23.222656 Z M 27.054688 24.113281 C 27.550781 24.097656 28.027344 23.824219 28.28125 23.355469 C 28.652344 22.65625 28.390625 21.789062 27.691406 21.414062 C 26.996094 21.039062 26.125 21.300781 25.75 22 C 25.546875 22.378906 25.53125 22.8125 25.671875 23.183594 L 22.230469 28.320312 C 21.734375 28.335938 21.257812 28.605469 21.007812 29.078125 C 20.632812 29.773438 20.894531 30.644531 21.59375 31.019531 C 22.292969 31.394531 23.164062 31.132812 23.535156 30.433594 C 23.742188 30.054688 23.753906 29.621094 23.613281 29.25 Z M 31.570312 27.941406 L 27.722656 25.488281 L 25.371094 29.078125 L 29.027344 31.496094 C 29.488281 31.824219 30.128906 31.71875 30.457031 31.257812 L 31.808594 29.375 C 32.136719 28.914062 32.03125 28.273438 31.570312 27.941406 Z M 31.570312 27.941406 " />
		<path style=" stroke:none;fill-rule:nonzero;fill:currentColor;fill-opacity:1;"
			d="M 21.835938 26.371094 L 22.722656 25.128906 C 12.636719 18.308594 8 14.234375 5.746094 11.503906 C 4.980469 10.574219 4.488281 9.796875 4.15625 9.121094 C 3.71875 8.222656 3.566406 7.507812 3.421875 6.902344 C 3.402344 6.816406 3.417969 6.722656 3.464844 6.644531 C 3.511719 6.566406 3.585938 6.511719 3.675781 6.492188 C 3.859375 6.445312 4.046875 6.558594 4.089844 6.746094 C 4.238281 7.363281 4.371094 7.996094 4.773438 8.820312 C 5.175781 9.648438 5.859375 10.671875 7.117188 12.023438 C 9.5625 14.664062 14.191406 18.535156 23.117188 24.570312 L 24.074219 23.222656 C 24.074219 23.222656 8.625 13.722656 3.429688 1.503906 C 3.140625 0.683594 3.035156 0.3125 3.035156 0.3125 C 3.035156 0.3125 -1.066406 5.058594 2.605469 10.785156 C 6.539062 16.925781 21.835938 26.371094 21.835938 26.371094 Z M 21.835938 26.371094 " />
	</g>
</svg>