<?xml version="1.0" encoding="UTF-8"?>
<svg xmlns="http://www.w3.org/2000/svg" xmlns:xlink="http://www.w3.org/1999/xlink" width="32px"
   height="32px" viewBox="0 0 32 32" version="1.1">
   <g id="surface1">
      <path
         style=" stroke:none;fill-rule:nonzero;fill:currentColor;fill-opacity:1;"
         d="M 32 16 C 32 24.835938 24.835938 32 16 32 C 7.164062 32 0 24.835938 0 16 C 0 7.164062 7.164062 0 16 0 C 24.835938 0 32 7.164062 32 16 Z M 32 16 " />
      <path style=" stroke:none;fill-rule:nonzero;fill:rgb(5.098039%,5.882353%,5.882353%);fill-opacity:1;"
         d="M 25.261719 7.769531 L 21.214844 10.144531 C 23.1875 13.203125 24.171875 16.03125 24.171875 18.625 C 24.171875 20.753906 23.542969 22.460938 22.285156 23.742188 C 21.023438 25.027344 19.335938 25.671875 17.207031 25.671875 C 13.648438 25.671875 9.617188 23.816406 5.101562 20.105469 L 8.332031 16.914062 C 11.421875 19.714844 14.324219 21.117188 17.050781 21.117188 C 18.035156 21.117188 18.71875 20.933594 19.09375 20.570312 C 19.46875 20.207031 19.65625 19.535156 19.65625 18.550781 C 19.65625 16.578125 19.058594 14.839844 17.867188 13.335938 L 14.988281 17.378906 L 14.988281 6.332031 Z M 25.261719 7.769531 " />
   </g>
</svg>