<svg xmlns="http://www.w3.org/2000/svg" viewBox="0 0 53.389 53.389"
	xml:space="preserve"><path d="M44.707 29.598c-.391-.391-1.023-.391-1.414 0s-.391 1.023 0 1.414l6.682 6.682H38.414l-11-11 11-11h11.561l-6.682 6.682c-.391.391-.391 1.023 0 1.414.195.195.451.293.707.293s.512-.098.707-.293l8.389-8.389c.391-.391.391-1.023 0-1.414l-8.389-8.389c-.391-.391-1.023-.391-1.414 0s-.391 1.023 0 1.414l6.682 6.682H38c-.265 0-.52.106-.707.293L26 25.28 14.707 13.987c-.188-.187-.442-.293-.707-.293H1c-.552 0-1 .448-1 1s.448 1 1 1h12.586l11 11-11 11H1c-.552 0-1 .448-1 1s.448 1 1 1h13c.265 0 .519-.105.707-.293L26 28.109l11.293 11.293c.188.188.442.293.707.293h11.975l-6.682 6.682c-.391.391-.391 1.023 0 1.414.195.195.451.293.707.293s.512-.098.707-.293l8.389-8.389c.391-.391.391-1.023 0-1.414l-8.389-8.39z"/></svg>