<svg xmlns="http://www.w3.org/2000/svg" width="600" height="600">
  <circle cx="-895" cy="-55.002" r="50" style="fill:#cac5c0" transform="matrix(6 0 0 6 5670 630.012)"/>
  <path d="M508.1273-54.9762v302.634c0 35.988 15.4024 53.988 46.1579 53.988h7.8302v20.52h-161.196v-20.52h10.362c29.5857 0 44.3997-18 44.3997-53.988v-198.48c0-36.48-12.9296-54.738-38.8018-54.738h-15.96v-20.544h6.0961c31.4278 0 59.8141-9.624 85.1459-28.878l15.966.0067zm58.56 199.968c0-47.142 9.8764-90.492 29.6397-130.008 24.8524-49.158 58.8305-73.758 101.8922-73.758 41.586 0 74.5322 21.048 98.856 63.096 19.7759 34.488 29.6703 74.286 29.6703 119.388 0 47.154-9.888 90.234-29.6702 129.27-24.846 48.174-58.542 72.246-101.118 72.246-41.0517 0-73.7584-20.79-98.1119-62.37-20.7842-34.968-31.158-74.256-31.158-117.864zm54.732-22.056c0 40.08 4.3082 76.056 12.9362 107.976 13.1818 49.17 34.7098 73.77 64.6256 73.77 48.6663 0 72.9903-50.682 72.9903-152.076 0-125.214-26.364-187.806-79.092-187.806-47.6462 0-71.4723 48.63-71.4723 145.968v12.168z" style="fill:#0d0f0f" transform="translate(-296.2912 166.7862)"/>
</svg>
