<svg xmlns="http://www.w3.org/2000/svg" width="600" height="600">
  <circle cx="-790" cy="-55.002" r="50" style="fill:#cac5c0" transform="matrix(6 0 0 6 5040 630.012)"/>
  <path d="M369.5635-196.8542v305.04c0 36.294 15.0955 54.42 45.2159 54.42h7.6739v20.694H259.9669v-20.694h10.7282c30.6541 0 46.0022-18.126 46.0022-54.42v-200.04c0-36.798-13.0383-55.17-39.1084-55.17h-16.0978v-20.694h6.1443c31.6798 0 60.2818-9.702 85.8239-29.13l16.1042-.007zm194.6938 0v305.04c0 36.294 15.0663 54.42 45.2216 54.42h7.6681v20.694H454.6312v-20.694h10.7281c30.6897 0 46.002-18.126 46.002-54.42v-200.04c0-36.798-13.038-55.17-39.078-55.17h-16.092v-20.694h6.1141c31.6794 0 60.2818-9.702 85.8598-29.13l16.0921-.007z" style="fill:#0d0f0f" transform="translate(-130.5769 306.7862)"/>
</svg>
