<svg xmlns="http://www.w3.org/2000/svg" width="600" height="600">
  <circle cx="-685" cy="-55.002" r="50" style="fill:#cac5c0" transform="matrix(6 0 0 6 4410 630.012)"/>
  <path d="M427.2141 159.9443v295.08c0 35.25 14.5684 52.896 43.662 52.896h7.668v20.67H321.434v-20.67h9.198c29.6282 0 44.4362-17.646 44.4362-52.896v-193.92c0-35.73-12.258-53.634-36.7677-53.634H322.208v-19.932h6.1145c30.6538 0 58.2541-9.186 82.7696-27.588l16.122-.007zm305.79 278.202-26.826 91.218H481.6045v-19.92c10.7576-12.258 34.4937-36.798 71.2916-73.596 21.9541-21.96 43.9438-45.468 65.928-70.488 10.7281-12.294 19.1463-22.488 25.2901-30.69 12.7559-19.392 19.1462-38.79 19.1462-58.218 0-19.428-5.8862-36.552-17.6281-51.366-11.754-14.826-27.354-22.23-46.746-22.23-40.3862 0-72.072 27.588-95.058 82.794l-19.9258-7.674c27.6057-76.65 70.5117-114.984 128.7658-114.984 28.602 0 53.142 9.726 73.572 29.13 20.4239 19.428 30.6541 43.686 30.6541 72.822 0 37.29-21.2043 73.572-63.588 108.846l-43.692 35.238c-28.128 23.52-51.366 45.7501-69.7682 66.666-1.5238 1.572-4.0859 4.374-7.638 8.46h117.264c17.8742 0 31.1521-3.342 39.8578-9.984 8.6702-6.612 16.5965-18.642 23.7363-36.024h19.9378z" style="fill:#0d0f0f" transform="translate(-213.4341 -44.6424)"/>
</svg>
