<svg xmlns="http://www.w3.org/2000/svg" width="600" height="600">
  <circle cx="-475" cy="-55.002" r="50" style="fill:#cac5c0" transform="matrix(6 0 0 6 3150 630.012)"/>
  <path d="M422.7108 90.0518v294.318c0 34.734 14.562 52.104 43.656 52.104h6.924v19.932h-156.372v-19.932h9.978c29.628 0 44.442-17.37 44.442-52.104v-193.146c0-35.274-12.54-52.896-37.554-52.896h-15.342v-19.92h6.138c30.126 0 57.474-9.444 81.99-28.35l16.14-.0067zm258.282 262.122v30.654c0 34.242 11.976 51.366 36.018 51.366h9.948v19.896h-146.388v-19.896h11.508c24.018 0 36.024-16.878 36.024-50.58v-31.44h-147.168v-30.654l155.592-226.884h44.472v231.468h3.834c14.82 0 25.794-11.718 32.934-35.238h18.396l-9.198 61.314-45.972-.007zm-40.638-30.654v-193.134l-130.296 193.134h130.296z" style="fill:#0d0f0f" transform="translate(-204.8627 26.7862)"/>
</svg>
