<svg xmlns="http://www.w3.org/2000/svg" width="600" height="600">
  <circle cx="-160" cy="-55.002" r="50" style="fill:#cac5c0" transform="matrix(6 0 0 6 1260 630.012)"/>
  <path d="M544.2717 113.852v295.842c0 35.274 14.58 52.8841 43.71 52.8841h6.888v19.932h-157.128v-19.932h10.734c29.628 0 44.46-17.616 44.46-52.884V215.786c0-35.742-12.774-53.646-38.322-53.646h-15.354v-19.92h6.138c30.654 0 58.266-9.456 82.782-28.362l16.092-.007zm196.242 370.95h-53.67v-6.12c0-34.2419 10.734-77.412 32.178-129.5159 32.718-77.694 62.88-137.472 90.444-179.358l3.096-5.37h-125.718c-18.396 0-32.322 3.834-41.766 11.472-9.444 7.674-16.758 20.46-21.87 38.334h-20.67l22.992-101.166h13.806c7.638 3.588 21.468 5.37 41.388 5.37h165.54v29.13c-6.12 8.694-13.782 22.476-22.992 41.376-17.904 34.77-34.242 75.126-49.056 121.092-21.984 68.49-33.21 126.756-33.702 174.756z" style="fill:#0d0f0f" transform="translate(-342.0055 1.072)"/>
</svg>
