<svg xmlns="http://www.w3.org/2000/svg" width="600" height="600">
  <circle cx="-895" cy="49.998" r="50" style="fill:#cac5c0" transform="matrix(6 0 0 6 5670 .012)"/>
  <path d="m658.6125 209.9646-26.826 89.67H411.0404v-18.408c10.7341-12.246 34.4998-36.516 71.298-72.786 21.456-21.96 42.9121-44.976 64.3744-68.988 11.2256-12.252 19.4279-22.734 24.5396-31.44 13.2543-18.396 19.8963-37.548 19.8963-57.468 0-18.396-5.9881-34.878-17.988-49.428-12.012-14.568-27.234-21.834-45.6-21.834-39.8579 0-71.0401 27.072-93.528 81.246l-20.6822-7.674c27.0722-76.134 69.4922-114.198 127.2182-114.198 28.6262 0 53.0159 9.69 73.1936 29.124 20.2022 19.428 30.2825 43.44 30.2825 72.036 0 36.306-21.2103 71.79-63.6246 106.536l-42.9118 36.024c-27.5996 23.52-50.334 45.222-68.2018 65.142-1.5359 1.032-4.0923 4.092-7.6739 9.21h114.9838c17.874 0 31.404-3.852 40.608-11.508 7.6739-6.126 15.342-17.88 22.9803-35.25h18.4077v-.007zm-3.06-80.484c0-44.448 9.198-85.584 27.6-123.378 24.0122-47.004 56.4478-70.524 97.3383-70.524 39.3301 0 70.7576 20.178 94.2777 60.54 18.366 32.718 27.564 70.512 27.564 113.424 0 44.97-9.198 85.866-27.564 122.664-24.0482 45.954-56.2378 68.946-96.5882 68.946-38.8256 0-70.0199-19.644-93.5037-59.016-19.4283-33.204-29.124-70.752-29.124-112.656zm52.1161-20.688c0 38.334 4.0802 72.576 12.258 102.696 12.2461 47.04 32.7063 70.524 61.314 70.524 46.488 0 69.7619-48.282 69.7619-144.876 0-119.568-25.3019-179.346-75.876-179.346-44.976 0-67.4518 46.488-67.4518 139.488v11.514z" style="fill:#0d0f0f" transform="translate(-339.1483 169.6433)"/>
</svg>
