<svg xmlns="http://www.w3.org/2000/svg" width="600" height="600">
   <circle cx="300" cy="300" r="300" style="fill:#ccc" />
   <path style="fill:#000" d="M147.4223 272.8996h60.2185c23.9853 0 31.1299-1.531 39.2951-28.068l20.413-.5103-18.3717 63.2804h-145.443l-.5103-17.351C212.2337 183.5925 214.275 167.7723 215.2957 151.9522c2.5516-34.7022-22.4544-45.9293-35.7228-45.9293-13.2685 0-35.2126 8.6755-56.6463 52.5636l-18.882-8.1652c28.5782-80.1213 76.549-76.549 91.8587-76.0387 37.7641 1.0207 62.2598 36.7435 61.2391 66.8528-1.0206 40.8261-18.882 46.95-109.72 131.6642z" />
   <path d="M996.9567-67.5417c54.312 54.3066 87.906 129.3073 87.906 212.1621 0 165.6977-134.316 300.021-300.006 300.021-82.836 0-157.83-33.5763-212.124-87.8768" style="fill:#a59793" transform="translate(-484.8627 155.3585)" />
   <path d="M1022.5827 240.5794c0 16.2062-5.892 27.2643-17.682 33.1504-3.444 1.722-14.244 4.068-32.424 6.996-11.7778 1.98-17.6759 6.516-17.6759 13.6261v29.8384c0 1.254.3798 5.052 1.1038 11.43l1.11 11.7962c0 3.678-.8639 9.702-2.586 18.0482-4.6617.978-10.0679 2.088-16.206 3.33-1.9679-7.3801-2.946-12.4142-2.946-15.1202 0-1.218.302-3.072.9181-5.526.6123-2.448.9238-4.296.9238-5.532 0-1.7041-1.5177-6.4982-4.5718-14.3642h-5.7177c-.7564 1.23-1.0022 2.826-.7621 4.782.9841 4.182 1.3499 7.734 1.1099 10.6861-4.182 2.946-9.9421 6.876-17.3097 11.7902-1.7344-.492-2.3345-.738-1.8483-.738v-26.1543c-.4862-1.218-1.71-1.71-3.6839-1.476h-4.422l-4.422 34.6263c-3.438.2462-7.6081.2462-12.5163 0-1.722-8.106-4.794-20.1242-9.21-36.1024h-2.958c-2.7 8.5982-4.1697 13.2662-4.4216 14.0042 0 .978.312 2.874.93 5.706.6055 2.832.9178 4.722.9178 5.7061 0 .732-.2516 2.58-.7498 5.526l-1.104 8.8501c-.4983.474-1.0981.72-1.8362.72-7.3682 0-12.2881-1.842-14.73-5.514-2.472-3.69-3.4563-8.8501-2.9577-15.4802l2.9576-44.1904c0-.738.2349-1.722.726-2.952.4922-1.218.738-2.088.738-2.568 0-1.968-2.088-5.9041-6.2577-11.8082-.7384-.2398-4.5421-1.11-11.4243-2.586-4.1697-.972-12.4018-2.694-24.6718-5.142-16.9503-3.1861-25.428-16.8182-25.428-40.8844 0-35.8684 14.7418-65.6947 44.2017-89.521 1.2242 6.636 3.3243 15.4682 6.2699 26.5203 2.2081.504 7.0022 1.614 14.364 3.324 1.4822.486 8.9642 3.192 22.4704 8.1061-6.87-4.17-15.8399-10.9081-26.88-20.2502-4.1824-4.908-6.2762-13.1461-6.2762-24.6782 0-2.718 4.668-5.892 14.0098-9.6001 8.3462-3.432 14.6043-5.376 18.7864-5.88 13.254-1.7101 23.4477-2.58 30.576-2.58 30.6897 0 55.5 7.866 74.4057 23.5921-6.132 7.1281-16.6981 14.7182-31.6741 22.8363 5.8923.2459 14.4906-2.082 25.7883-7.0081 11.292-4.89 16.0798-7.368 14.3638-7.368 1.9621 0 5.898 3.936 11.79 11.79 4.4101 5.8921 7.9741 11.1782 10.6804 15.8402 7.8596 13.9981 13.14 29.1183 15.8456 45.3124 0 5.6521.1221 9.7021.3683 12.1502v2.94zm-141.0956 6.648c0-10.566-4.6022-20.5741-13.8065-30.0363-9.216-9.456-19.1098-14.1781-29.6642-14.1781-9.3298 0-17.5498 3.96-24.6778 11.8681-7.1217 7.9141-10.6798 16.6922-10.6798 26.3403 0 8.4 4.05 13.8541 12.1559 16.3142 5.16 1.488 12.3958 2.352 21.7263 2.604h20.2618c16.4579.21 24.6843-4.092 24.6843-12.9122zM921.6449 292.9v-11.406c-1.7161-3.1981-3.4383-6.5282-5.1482-9.9602-1.476-4.902-4.182-11.7781-8.106-20.6342l-4.0558 43.1044c0 3.456-.732 5.166-2.2142 5.166-.9776 0-1.7217-.2398-2.2078-.738-1.722-26.0282-2.5742-37.3324-2.5742-33.8763v-12.8881c-.4982-.756-1.1101-1.128-1.8478-1.128-8.3462 8.622-12.5163 22.4882-12.5163 41.6284 0 10.5661.978 17.0702 2.9402 19.5422 1.974-.498 4.17-1.362 6.642-2.586.9779-.498 3.798-.738 8.4659-.738 4.6501 0 10.32 1.47 16.9382 4.41 2.4598-.0168 3.684-6.63 3.684-19.8962zm83.2558-51.3365c0-9.876-3.684-18.7142-11.052-26.5082-7.368-7.7821-15.8397-11.6702-25.4038-11.6702-10.3205 0-19.9683 4.722-28.9258 14.1661-8.9705 9.4562-13.4522 19.3443-13.4522 29.6704 0 8.592 4.1816 12.882 12.5277 12.882h42.3543c15.972-.2398 23.9518-6.408 23.9518-18.54z" style="fill:#000" transform="translate(-484.8627 155.3585)" />
</svg>