<svg xmlns="http://www.w3.org/2000/svg" width="600" height="600">
  <circle cx="300" cy="300" r="300" style="fill:#cbc2bf"/>
  <path style="fill:#130c0e" d="M147.4223 272.8996h60.2185c23.9853 0 31.1299-1.531 39.2951-28.068l20.413-.5103-18.3717 63.2804h-145.443l-.5103-17.351C212.2337 183.5925 214.275 167.7723 215.2957 151.9522c2.5516-34.7022-22.4544-45.9293-35.7228-45.9293-13.2685 0-35.2126 8.6755-56.6463 52.5636l-18.882-8.1652c28.5782-80.1213 76.549-76.549 91.8587-76.0387 37.7641 1.0207 62.2598 36.7435 61.2391 66.8528-1.0206 40.8261-18.882 46.95-109.72 131.6642z"/>
  <path d="M1219.8138-33.256c54.312 54.3066 87.906 129.3074 87.906 212.1622 0 165.6977-134.322 300.021-300 300.021-82.842 0-157.83-33.5763-212.124-87.8769" style="fill:#a3c095" transform="translate(-707.7198 121.0728)"/>
  <path d="M1244.8281 284.6332c0 4.548-1.758 8.6221-5.274 12.2582-3.516 3.624-7.542 5.43-12.09 5.43-7.248 0-12.588-3.396-15.978-10.2061l-16.002-.672c-3.408 0-10.104 1.476-20.076 4.422-10.662 2.94-16.788 5.328-18.378 7.1341-2.49 2.73-4.53 9.0841-6.126 19.0682-1.368 8.1661-2.034 14.1781-2.034 18.0362 0 6.12.96 10.608 2.886 13.4401 1.926 2.838 5.904 5.214 11.904 7.134 6 1.908 9.696 3.0121 11.064 3.2341.906 0 2.376-.108 4.422-.3417h4.086c2.946 0 6.012.456 9.198 1.362 4.53 1.362 6.468 3.162 5.79 5.4421-3.186-.444-8.736.2278-16.674 2.04l9.516 4.77c0 2.724-3.852 4.0741-11.568 4.0741-2.0521 0-4.8301-.432-8.334-1.35-3.522-.924-5.85-1.374-6.978-1.374h-4.422c-.2342 2.274-.906 5.658-2.04 10.206-3.87-.222-8.4-2.496-13.62-6.798-5.22-4.32-8.508-6.474-9.858-6.474-1.368 0-3.3 2.154-5.79 6.474-2.502 4.302-3.75 7.242-3.75 8.85-2.946-1.608-5.43-4.548-7.494-8.85-.906-2.97-1.926-5.916-3.054-8.874-2.268.2338-6.462 5.016-12.588 14.31h-1.704c-.462-.678-2.166-5.436-5.118-14.31-7.032-2.2501-13.602-3.3781-19.728-3.3781-2.946 0-7.494.672-13.626 2.046l-9.516-.678c1.35-1.368 5.328-3.972 11.904-7.83 7.71-4.5481 13.614-6.8222 17.694-6.8222.672 0 1.578.1262 2.724.354 1.128.2338 2.04.3482 2.724.3482 1.572 0 4.14-.852 7.656-2.562 3.516-1.6981 5.556-3.2341 6.108-4.5961.588-1.374.87-4.878.87-10.5541 0-12.9182-3.408-22.5783-10.2181-28.9143-5.9039-5.67-15.6479-9.7502-29.2559-12.2582-3.63 12.9242-13.842 19.4042-30.624 19.4042-5.4541 0-10.8901-3.294-16.3381-9.876-5.4299-6.5881-8.1659-12.5942-8.1659-18.0362 0-8.4001 3.5159-15.3122 10.548-20.7603-5.6641-5.886-8.502-11.8981-8.502-18.0361 0-5.6641 1.752-10.6562 5.274-14.9762 3.5159-4.296 8.118-6.798 13.776-7.488-.444-7.2481 1.926-12.2522 7.1459-14.9702-2.4959-2.484-3.7379-6.9001-3.7379-13.2661 0-7.4761 2.4899-13.7222 7.488-18.7142 4.98-4.98 11.232-7.4881 18.702-7.4881 8.178 0 14.874 2.85 20.082 8.508 6.5879-22.4521 20.754-33.6782 42.534-33.6782 11.34 0 21.324 4.536 29.946 13.62 3.18 3.3901 4.758 5.2081 4.758 5.4301-2.718 0-1.35-.516 4.086-1.524 5.448-1.026 9.408-1.542 11.91-1.542 8.844 0 16.674 3.3 23.49 9.8761 5.898 5.904 9.984 13.3742 12.252 22.4522 1.584.2342 4.074.906 7.476 2.046 4.992 2.502 7.494 6.8101 7.494 12.9302 0 1.128-.912 3.294-2.724 6.474 14.514 8.1661 21.774 19.5062 21.774 34.0204 0 4.092-1.59 9.7621-4.758 17.0162 5.916 3.414 8.862 8.406 8.862 14.9881zm-140.196 14.9702v-4.416c0-5.2141-2.55-9.9842-7.65-14.2922-5.106-4.32-10.26-6.4621-15.486-6.4621-6.36 0-12.252 1.476-17.694 4.404 12.018-.66 25.632 6.2461 40.83 20.7663zm-6.126-42.1805c-3.402-3.876-6.348-7.836-8.844-11.91-9.534 2.484-14.292 5.334-14.292 8.496 2.718-.2221 6.696.2821 11.904 1.536 5.208 1.254 8.964 1.878 11.232 1.878zm20.7719-10.566v-14.9702c-5.4599-.894-8.7539-1.356-9.8759-1.356v5.106l9.8759 11.2201zm44.2321-9.5161c-2.73-1.134-7.83-3.408-15.324-6.8101v29.2623c10.668-6.1321 15.7679-13.6082 15.324-22.4522zm18.696 40.1523-7.476-9.174c-4.524 3.174-9.126 6.396-13.788 9.69-4.65 3.282-8.676 6.9721-12.066 11.0642 10.194-5.4661 21.33-9.306 33.33-11.5802z" style="fill:#00160b" transform="translate(-707.7198 121.0728)"/>
</svg>
