<svg xmlns="http://www.w3.org/2000/svg" width="600" height="600">
  <circle cx="300" cy="300" r="300" style="fill:#cbc2bf"/>
  <path style="fill:#130c0e" d="M147.4223 272.8996h60.2185c23.9853 0 31.1299-1.531 39.2951-28.068l20.413-.5103-18.3717 63.2804h-145.443l-.5103-17.351C212.2337 183.5925 214.275 167.7723 215.2957 151.9522c2.5516-34.7022-22.4544-45.9293-35.7228-45.9293-13.2685 0-35.2126 8.6755-56.6463 52.5636l-18.882-8.1652c28.5782-80.1213 76.549-76.549 91.8587-76.0387 37.7641 1.0207 62.2598 36.7435 61.2391 66.8528-1.0206 40.8261-18.882 46.95-109.72 131.6642z"/>
  <path d="M1231.2424-93.256c54.312 54.3066 87.906 129.3073 87.906 212.1622 0 165.6976-134.322 300.021-300 300.021-82.842 0-157.83-33.5764-212.124-87.877" style="fill:#e49977" transform="translate(-719.1484 181.0728)"/>
  <path d="M1248.9484 265.5596c-10.308 24.5942-30.78 36.8704-61.44 36.8704-5.622 0-11.712.702-18.264 2.124-9.834 2.094-14.748 5.028-14.748 8.7781 0 1.158.816 2.508 2.46 4.044 1.632 1.524 3.048 2.28 4.218 2.28-5.862 0-1.884.1682 11.922.522 13.818.354 22.4821.534 25.998.534-20.3639 11.9222-54.42 17.4183-102.174 16.5002-15.684-.2338-29.142-7.14-40.374-20.7242-11.01-12.8761-16.506-27.2462-16.506-43.1824 0-16.8482 5.676-31.1763 17.034-43.0084 11.34-11.8201 25.452-17.7302 42.306-17.7302 3.738 0 8.7181.822 14.916 2.46 6.204 1.638 10.362 2.46 12.462 2.46 8.664 0 19.434-3.576 32.31-10.7221 12.876-7.128 18.96-10.698 18.2581-10.698-2.3461 24.5882-10.5361 41.0823-24.5821 49.5124-10.068 5.856-15.096 11.5801-15.096 17.2022 0 3.492 2.1 6.318 6.312 8.418 3.276 1.6441 6.906 2.4601 10.89 2.4601 6.084 0 12.048-3.744 17.904-11.2381 5.844-7.4941 8.418-14.2742 7.716-20.3762-.696-7.0201-.2221-15.4382 1.41-25.2783.462-2.814 2.166-6.258 5.088-10.362 2.928-4.1041 5.568-6.6122 7.902-7.5482 0 2.1-.762 5.616-2.28 10.5302-1.524 4.914-2.28 8.562-2.28 10.878 0 5.1481 1.404 9.1261 4.218 11.9402 4.206-1.638 7.944-6.912 11.232-15.8042 2.808-6.786 4.44-13.3441 4.92-19.6562-9.84-.468-19.266-4.908-28.266-13.3441-9.006-8.43-13.512-17.5622-13.512-27.3783 0-1.638.2221-3.282.702-4.92 1.392 2.112 3.498 5.388 6.318 9.834 3.972 5.862 7.0201 8.7721 9.126 8.7721 2.808 0 4.212-2.91 4.212-8.772 0-7.4881-1.9919-14.2802-5.97-20.3702-4.458-7.2541-10.194-10.8781-17.202-10.8781-3.288 0-8.196 1.746-14.748 5.262-6.558 3.498-12.528 5.262-17.898 5.262-1.6379 0-8.904-2.112-21.774-6.324 22.698-3.732 34.056-7.128 34.056-10.1761 0-7.944-15.564-13.3442-46.698-16.1461-3.048-.2221-8.6579-.696-16.854-1.404.93-1.1581 7.608-2.4481 20.016-3.8701 10.53-1.152 17.898-1.746 22.11-1.746 55.71 0 91.05 27.0482 106.038 81.1268 2.586-2.136 3.8701-5.7121 3.8701-10.6801 0-6.4201-1.872-14.4842-5.6221-24.2103-1.41-3.798-3.642-9.492-6.678-17.0822 19.188 24.4503 28.8 47.6285 28.8 69.5048 0 11.526-2.706 21.9841-8.088 31.3863-3.498 6.342-10.068 14.448-19.656 24.3482-9.6 9.876-16.146 17.5202-19.662 22.9202 12.876-3.498 21.306-6.204 25.284-8.082 8.886-3.9721 16.968-9.9482 24.222-17.8923 0 3.03-1.29 7.6081-3.858 13.6742zm-153.084-137.9774c0 4.206-2.346 6.888-7.02 8.0761l-9.1259 1.392c-3.2821 1.632-8.0821 8.088-14.3881 19.3202-.714-3.51-1.758-8.412-3.168-14.7481-2.106.2341-5.61 2.106-10.53 5.628-2.1059 1.626-5.502 4.104-10.194 7.3741 1.41-8.424 6.102-16.9562 14.052-25.6263 8.424-9.606 16.62-14.3881 24.576-14.3881 10.53-.0235 15.798 4.314 15.798 12.9721zm61.092 32.3043c0 3.978-2.166 7.3141-6.498 10.0022-4.332 2.694-8.604 4.044-12.81 4.044-5.628 0-10.662-3.162-15.102-9.4801-5.388-7.722-10.884-12.7501-16.5-15.1081 1.164-1.158 2.574-1.758 4.224-1.758 2.094 0 5.664 1.638 10.698 4.908 5.022 3.294 8.25 4.914 9.66 4.914 1.1701 0 3.096-1.626 5.784-4.914 2.688-3.27 5.676-4.908 8.958-4.908 7.728 0 11.586 4.116 11.586 12.3z" style="fill:#200000" transform="translate(-719.1484 181.0728)"/>
</svg>
