<svg xmlns="http://www.w3.org/2000/svg" width="600" height="600">
  <circle cx="300" cy="300" r="300" style="fill:#cbc2bf"/>
  <path style="fill:#130c0e" d="M147.4223 272.8996h60.2185c23.9853 0 31.1299-1.531 39.2951-28.068l20.413-.5103-18.3717 63.2804h-145.443l-.5103-17.351C212.2337 183.5925 214.275 167.7723 215.2957 151.9522c2.5516-34.7022-22.4544-45.9293-35.7228-45.9293-13.2685 0-35.2126 8.6755-56.6463 52.5636l-18.882-8.1652c28.5782-80.1213 76.549-76.549 91.8587-76.0387 37.7641 1.0207 62.2598 36.7435 61.2391 66.8528-1.0206 40.8261-18.882 46.95-109.72 131.6642z"/>
  <path d="M902.671 78.1726c54.312 54.3066 87.906 129.3073 87.906 212.1621 0 165.6977-134.316 300.021-300.006 300.021-82.836 0-157.83-33.5763-212.124-87.8768" style="fill:#c1d7e9" transform="translate(-390.577 9.6442)"/>
  <path d="M850.9087 492.4047c-16.1515 16.4342-36.0474 24.6483-59.682 24.6483-26.5317 0-47.5739-9.084-63.1437-27.2403-14.7123-17.3041-22.056-39.3484-22.056-66.1686 0-28.8244 12.54-61.6867 37.6258-98.605 20.4602-30.2824 44.5382-56.8026 72.2223-79.5848-4.0382 18.4562-6.0601 31.5723-6.0601 39.3664 0 17.8801 5.622 35.3163 16.866 52.3265 13.8421 20.1902 24.3663 35.1843 31.5721 44.9765 11.2438 17.0101 16.8662 33.6003 16.8662 49.7344 0 23.9403-8.064 44.1245-24.2106 60.5467zm-.4317-92.3289c-4.3261-9.654-9.3718-16.0801-15.1378-19.2482.8696 1.728 1.29 4.188 1.29 7.356 0 6.0602-1.722 14.7183-5.1782 25.9443l-5.628 17.3103c0 10.08 5.0339 15.132 15.1323 15.132 10.6616 0 16.008-7.062 16.008-21.1921 0-7.2061-2.1606-15.6482-6.4863-25.3023z" style="fill:#061922" transform="translate(-390.577 9.6442)"/>
</svg>
