<svg xmlns="http://www.w3.org/2000/svg" width="600" height="600">
  <circle cx="300" cy="300" r="300" style="fill:#cbc2bf"/>
  <path style="fill:#130c0e" d="M147.4223 272.8996h60.2185c23.9853 0 31.1299-1.531 39.2951-28.068l20.413-.5103-18.3717 63.2804h-145.443l-.5103-17.351C212.2337 183.5925 214.275 167.7723 215.2957 151.9522c2.5516-34.7022-22.4544-45.9293-35.7228-45.9293-13.2685 0-35.2126 8.6755-56.6463 52.5636l-18.882-8.1652c28.5782-80.1213 76.549-76.549 91.8587-76.0387 37.7641 1.0207 62.2598 36.7435 61.2391 66.8528-1.0206 40.8261-18.882 46.95-109.72 131.6642z"/>
  <path d="M1199.8138-236.113c54.312 54.3064 87.906 129.3072 87.906 212.162 0 165.6977-134.316 300.021-300.006 300.021-82.836 0-157.83-33.5763-212.124-87.8768" style="fill:#f8f6d8" transform="translate(-687.7198 323.93)"/>
  <path d="M1215.72 114.7344c-14.616-13.5841-24.3242-20.9462-29.0821-22.0922-3.4618-.828-6.8096 1.188-10.0323 6.036-3.222 4.848-7.7517 6.5521-13.6139 5.148-2.3756-.57-7.0496-2.61-13.9978-6.102-5.6281 5.31-8.6457 8.8261-9.0601 10.5481-.5699 2.388.5281 5.628 3.3002 9.7321 2.76 4.104 5.3637 6.426 7.8 7.0201 1.5479.372 3.7319.546 6.546.534 2.8019-.007 4.6619.096 5.5559.3056 2.6638.624 2.8141 5.826.468 15.5882-2.2202 9.312-7.8121 23.1122-16.7577 41.3524-.3486-23.4542-3.6545-35.9344-9.9364-37.4344-.8703-.21-2.8137.0235-5.8321.666-3.0237.642-5.1839.822-6.4798.51-6.282-1.506-10.548-8.598-12.7796-21.2762-10.3386-.87-16.5424 3.036-18.6184 11.6941-1.0376 4.356.1443 8.2981 3.534 11.8561 3.384 3.552 4.944 5.8741 4.6981 6.96-1.3979 5.8682-12.126 12.7982-32.1303 20.8383-10.6617 4.332-18.0356 7.368-22.1278 9.1321 3.9479-3.168 8.214-7.536 12.7561-13.0921 5.1775-6.3421 8.2321-11.4361 9.1738-15.3542.516-2.154-1.2541-5.802-5.298-10.8841-4.0557-5.094-5.5559-9.8041-4.5179-14.1301.8759-3.684 3.2582-7.9141 7.1582-12.7202-2.0401-3.918-5.0041-6.36-8.9158-7.29-8.6643-2.0821-13.6687-.3-15.0187 5.346.9303-3.906.2349-.978-2.0934 8.772-1.5006 7.2002-7.7762 9.4802-18.8284 6.8462-8.4541-2.028-22.1761-7.3741-41.184-16.0442 23.8919-.2341 36.7084-4.044 38.4663-11.4061-.1912.876 0-1.848.5757-8.1181.7384-6.924 6.9603-11.8621 18.6542-14.7902.4318-10.428-3.5578-16.6621-12.0183-18.6782-1.2957-.318-4.2359 1.386-8.778 5.1181-4.5659 3.714-8.3639 5.22-11.3877 4.488-5.2023-1.23-10.572-8.478-16.1042-21.7202-2.5557-6.576-6.5218-16.3381-11.898-29.3103 4.362 3.792 8.718 7.5961 13.0863 11.3761 5.7774 4.5961 10.6201 7.3501 14.5137 8.2981 3.0358.714 6.648-1.23 10.8482-5.844 4.1879-4.614 8.6699-6.348 13.4402-5.196.6656.156 4.68 2.484 12.0717 7.008 5.622-5.298 8.7957-9.4561 9.522-12.4921.6123-2.61-.2382-5.964-2.5802-10.0741-2.3336-4.122-4.8118-6.474-7.4158-7.11-1.08-.258-2.8319-.342-5.2621-.234-2.4299.1198-4.1882.0353-5.2738-.222-3.8943-.93-4.6861-6.27-2.3518-16.0322.6116-2.604 6.6658-16.8541 18.138-42.7324-.9964 3.18-1.0383 9.6001-.1241 19.2122 1.0795 11.7181 4.122 18.1622 9.1077 19.3682.8642.1983 2.7479-.0302 5.6703-.708 2.904-.678 5.1178-.84 6.6238-.468 4.9799 1.182 8.424 4.992 10.3319 11.4l2.7782 9.9242c4.5421 1.104 8.7236.3842 12.5343-2.136 3.8158-2.526 6.2756-6.066 7.3619-10.6142 1.1339-4.77 0-8.874-3.4082-12.33-3.4203-3.456-4.9742-5.8321-4.6498-7.1282 1.086-4.554 10.0739-10.53 26.9699-17.9401 13.5535-5.91 22.254-9.2161 26.0939-9.906-12.324 10.35-19.194 18.42-20.5859 24.2821-.7317 3.042.3321 6.726 3.1861 11.0881 3.5702 5.202 5.4657 8.7542 5.6995 10.6262.9662 5.52-.876 12.282-5.5496 20.3402 4.8659 5.52 8.8142 8.628 11.8617 9.372 6.2642 1.5 10.1883-1.008 11.7483-7.5.1577-.654.3758-2.778.672-6.378.2751-3.6001.5938-5.5921.9058-5.9701 1.6023-2.832 7.9198-2.922 18.9723-.2698 6.9358 1.656 20.8742 7.0501 41.8318 16.1882-5.0822.162-12.6963.39-22.8538.726-9.2942.516-14.3282 2.406-15.1203 5.652-.3519 1.518-.4438 4.248-.2382 8.1841.2047 3.936.1074 6.7921-.3153 8.5261-.7196 3.036-3.3481 5.376-7.8658 7.05l-12.9362 5.1541c1.4761 5.388 2.5201 8.6281 3.1861 9.6901 1.5539 3.126 4.1522 5.124 7.8419 6.0121 2.604.624 5.5321-1.08 8.7897-5.124 3.2522-4.0321 7.2726-5.4781 12.0361-4.3321 5.8562 1.392 11.1663 8.388 15.9422 20.9882 2.6702 7.062 6.858 17.8082 12.5763 32.2263zM1148.07 78.62c3.3119-13.878 1.1037-27.1202-6.6479-39.7384-7.7521-12.618-18.5644-20.5982-32.4242-23.9162-14.088-3.366-27.444-1.23-40.0323 6.42-12.5877 7.6261-20.6816 18.4622-24.2696 32.4964-3.5401 13.8181-1.2601 27.0243 6.8459 39.6244 8.0938 12.5881 19.0799 20.5501 32.9519 23.8682 14.7304 3.522 28.1883 1.644 40.35-5.64 12.168-7.2901 19.9083-18.3362 23.2262-33.1144zm-4.8783-1.176c-3.1616 13.2181-10.2178 23.1063-21.1858 29.6343-10.9559 6.54-23.0521 8.2381-36.2638 5.076-12.786-3.06-22.668-10.122-29.6464-21.1862-6.978-11.064-8.9279-22.9802-5.874-35.7663 3.018-12.5762 10.1944-22.2542 21.5582-29.0523 11.376-6.78 23.334-8.6701 35.8918-5.658 12.5642 3 22.3744 10.158 29.3941 21.4562 7.0381 11.322 9.0779 23.1482 6.1259 35.4963z" style="fill:#211d15" transform="translate(-687.7198 323.93)"/>
</svg>
