<svg xmlns="http://www.w3.org/2000/svg" width="600" height="849.8857">
  <path d="M277.3023 767.0193c-14.9838-4.605-20.6419-12.0044-17.7207-23.1745 2.5428-9.7239 25.1748-17.2428 60.0918-19.9643 17.6367-1.3744 37.9146-4.626 45.0618-7.2254 37.2535-13.5485 73.6648-41.3374 82.7945-63.1874 2.4078-5.762 6.9997-43.7987 10.8607-89.9594 6.1682-73.7419 6.311-80.3944 1.8347-85.3407-2.67-2.9506-24.655-15.2711-48.8556-27.3792-38.7092-19.3672-46.7852-24.7582-67.1569-44.8288-21.0154-20.7046-24.4784-25.867-37.4534-55.8326-15.8312-36.5618-43.0361-116.8203-51.3071-151.3635-4.9614-20.7214-6.6558-23.5747-24.0632-40.5228-14.0579-13.6868-19.2459-21.038-20.8116-29.4884-3.7542-20.2628.635-32.4233 17.273-47.8547l15.187-14.0858-2.149-61.0241c-2.0874-59.2803-1.967-61.2551 4.2098-69.1077 3.4972-4.446 11.3624-9.4733 17.4783-11.172 15.2564-4.2372 478.2487-4.2372 493.5047 0 6.116 1.6987 14.012 6.7564 17.5465 11.2396 6.2453 7.9212 6.3624 9.7191 4.1508 63.6825-1.2519 30.5422-2.1258 58.087-1.9421 61.2107.1827 3.1236 7.0445 11.9034 15.246 19.511 16.3485 15.1638 20.733 27.442 16.998 47.6005-1.5675 8.4603-6.7636 15.8112-20.9183 29.5922-17.4843 17.0227-19.216 19.9243-24.1823 40.5226-8.568 35.5358-35.543 115.4325-51.0693 151.26-12.9815 29.955-16.4574 35.1352-37.4653 55.8325-20.372 20.0706-28.448 25.4616-67.1571 44.8288-24.2005 12.108-46.1854 24.4286-48.8554 27.3792-4.4765 4.9463-4.3328 11.6305 1.8414 85.7446 3.7606 45.1406 8.4837 84.6911 10.7732 90.213 8.7222 21.0365 45.9972 49.152 82.875 62.5112 7.1473 2.589 27.636 5.9337 45.53 7.4323 35.2599 2.9534 57.121 10.204 59.6241 19.776 3.0122 11.5194-2.6713 18.5035-19.0053 23.3541-22.8944 6.7992-440.5894 6.637-462.7687-.179z" style="fill:#000" transform="translate(-209.3256 77.6699)"/>
</svg>
