<svg xmlns="http://www.w3.org/2000/svg" width="600.0001" height="533.4812"><path d="M713.86 852.9732c-13.2425-13.2423-14.847-23.5458-7.0902-45.5309 6.9916-19.8163 16.5728-30.2198 46.9989-51.0326 15.3783-10.5195 42.3629-30.0184 59.9655-43.3307 30.7166-23.2301 46.2463-32.8872 138.5786-86.1738 67.2171-38.7923 157.9976-74.9799 157.9976-62.9824 0 5.7272-21.6024 21.1733-51.8605 37.081-38.8505 20.4253-148 94.3415-180.4652 122.2115-25.574 21.9543-59.5231 58.9509-95.232 103.7807-32.3115 40.5649-48.283 46.5872-68.8928 25.9772zm-131.4135-36.7674c-8.453-9.0733-10.2594-20.8763-6.1929-40.465 5.2375-25.2282 4.443-50.054-2.0252-63.2943-4.6278-9.4731-9.7564-13.4239-30.8275-23.7469-13.9018-6.8107-27.0676-14.8332-29.2572-17.8278-8.8835-12.1488-1.8544-42.3506 16.1992-69.6024 15.0343-22.6943 70.089-84.7188 103.2153-116.2821 34.2759-32.6589 56.1265-47.6048 82.962-56.7472 20.3179-6.9218 32.0552-12.3976 98.2175-45.8198 78.1288-39.4671 156.0383-62.4486 156.0383-46.0273 0 2.7909-15.3704 11.0645-42.0103 22.6135-58.0157 25.151-67.5164 30.7885-109.8868 65.2054-20.4323 16.5968-52.7236 41.955-71.7585 56.3516-36.3752 27.511-64.1883 55.3697-93.0447 93.1969-37.0937 48.6251-41.041 58.8167-29.8738 77.1325 3.2947 5.4038 5.941 13.8436 5.9903 18.7546.119 11.894 5.9224 8.1202 11.5416 3.7088 8.326-6.5363 22.8854-19.7544 46.9728-42.4296 63.7086-59.9738 148.655-122.4869 207.5427-152.7334 37.9675-19.5011 139.9658-61.4306 168.9898-69.4682 26.6216-7.3724 42.0707-8.092 42.0707-1.9594 0 5.342-7.4131 9.8459-70.7112 42.9617-87.2066 45.624-123.0957 71.603-191.8536 138.8772-37.2474 36.4438-103.393 96.203-150.3045 135.793-5.4164 4.571-24.868 25.803-43.2257 47.1822-18.3576 21.3792-36.8564 41.6076-41.1081 44.952-9.9767 7.8478-20.1569 7.7278-27.6602-.326z" style="fill:#000" transform="translate(-510.3104 -331.0314)"/></svg>