<svg xmlns="http://www.w3.org/2000/svg" width="600" height="470.3788"><path d="M227.474 561.7584c-20.2282-3.3536-147.5659-32.5042-150.854-34.5364-4.4587-2.7557.6344-6.3739 11.9428-8.4841 9.9729-1.8612 82.1727-20.2692 112.5364-28.6923 13.2282-3.6695 19.0325-12.073 14.364-20.7963-2.7025-5.0496-66.2607-60.9792-123.8658-108.9986-17.4482-14.545-20.996-20.1703-12.7205-20.1703 2.4956 0 41.6153 14.9652 86.9325 33.2562 45.3173 18.2908 84.8072 32.799 87.7553 32.2404 12.293-2.3296 8.1347-17.724-30.4836-112.857-36.6942-90.393-42.613-108.7638-33.376-103.5946 2.3728 1.328 33.4487 41.2386 69.0576 88.6903 65.0187 86.6428 70.7542 92.5517 79.5496 81.954 2.1024-2.5334 9.0578-56.1153 16.808-129.486 13.496-127.7617 14.72-136.3175 19.5034-136.3175 4.3497 0 5.2736 6.6362 19.1692 137.69 13.7105 129.308 14.976 135.293 27.7473 131.2395 3.1414-.997 35.2217-40.9793 71.2898-88.8496 36.0679-47.8702 66.7387-87.0367 68.1572-87.0367 5.885 0 .8567 15.018-33.7053 100.669-19.9565 49.4556-37.4698 93.806-38.9186 98.5566-3.1526 10.3376 1.0368 19.876 8.73 19.876 2.942 0 40.3744-14.356 83.183-31.9022 77.0726-31.5901 94.3415-37.4472 94.3415-31.9976 0 1.5467-20.5133 20.271-45.585 41.6099-99.3217 84.533-101.2685 86.5097-95.609 97.0844 3.6353 6.7927 6.016 7.574 78.1649 25.6479 66.485 16.6553 64.7614 16.108 61.28 19.4563-4.078 3.922-104.2437 26.8494-163.4688 37.4174-14.6126 2.6073-16.3599-1.2618-16.4407-36.4048-.0616-26.6907-1.2907-35.4164-7.0075-49.732-9.6978-24.2845-34.1256-51.3982-59.9101-62.8724-34.7769-15.4757-73.5711-14.5162-103.075-.0244-47.3387 23.251-71.4033 66.1652-67.3728 119.9173 1.6775 22.3706 1.2042 24.7486-3.966 27.763-8.0519 4.6932-17.1644.843-24.1538-.3158z" style="fill:#000" transform="translate(-74.6178 -93.9662)"/></svg>