<svg xmlns="http://www.w3.org/2000/svg" width="600" height="798.2945"><path d="M371.577 908.6148c-.9868-.9867-.946-4.0257.09-6.7534 1.0367-2.7275 39.2113-63.714 84.8322-135.5256 45.6207-71.8114 84.6055-133.6678 86.6326-137.4585 5.863-10.9625 3.0453-25.2559-5.9708-30.2919-7.1071-3.9695-24.2215-1.7812-193.5985 24.7552-102.191 16.0103-189.3342 29.0708-193.6513 29.0234-12.6303-.1393-23.6667-10.7845-23.6667-22.8293 0-12.775 13.709-39.2564 96.3339-186.0868 76.149-135.3222 74.8346-130.0178 34.293-138.3828-13.287-2.7416-18.9462-12.094-15.5372-25.6764 2.9269-11.6621 79.523-137.501 91.1277-149.7129 5.6667-5.9632 15.4325-12.379 21.7018-14.2573 14.405-4.3159 326.2501-4.831 337.4905-.5573 11.073 4.21 14.825 12.9869 10.1836 23.8228-2.0915 4.8824-78.0673 85.9979-168.8353 180.2565C442.2347 413.1994 366.312 493.4841 364.286 497.351c-2.9655 5.6598-2.8868 8.1208.4022 12.619 3.9334 5.3792 8.1025 4.7774 111.6874-16.1218 59.181-11.9403 112.6667-21.6988 118.8574-21.6857 14.9269.0323 20.9983 6.6442 29.3116 31.9236 15.4876 47.0952 20.4614 50.8276 63.564 47.7008 32.041-2.3242 40.7414.8712 37.5031 13.7744-1.003 3.9957-25.1768 30.1217-53.7198 58.0577-28.5429 27.9363-89.0402 87.3578-134.4383 132.048C375.301 915.292 376.8374 913.8753 371.577 908.6148z" style="fill:#000" transform="translate(-126.2445 -111.9063)"/></svg>