<svg xmlns="http://www.w3.org/2000/svg" width="600" height="470.4099"><path d="M328.6394 541.6793c-82.1006-7.9017-162.7955-28.9827-196.5664-51.3516-35.4314-23.4689-29.9676-47.962 23.2638-104.2844 47.7968-50.5725 69.786-92.9501 100.818-194.298 20.3802-66.56 39.1872-108.4012 51.9014-115.4688 19.6344-10.9141 33.1973 4.8825 59.186 68.9339 27.6237 68.0807 51.2836 109.3688 80.4911 140.4628 8.817 9.3863 17.3903 15.7739 21.1716 15.7739 7.4723 0 18.422-13.086 38.0626-45.4886 15.9005-26.2324 28.052-34.4777 46.5602-31.5933 17.1391 2.6709 30.08 19.6942 45.289 59.5756 7.1379 18.7172 17.3774 42.8196 22.7545 53.5608 10.0876 20.1508 35.7237 57.038 39.7181 57.1498 4.6043.1287 39.1318 34.8207 43.896 44.1045 14.4449 28.1498-6.889 53.0083-61.484 71.6418-65.618 22.3957-124.916 31.3603-217.512 32.8828-38.0074.6251-81.905-.0957-97.55-1.6012z" style="fill:#000" transform="translate(-109.58 -73.096)"/></svg>