<svg xmlns="http://www.w3.org/2000/svg" width="600" height="599.9998"><path d="M490.1904 610.4574c-49.3768-49.3768-59.3334-60.7692-59.3334-67.8907 0-6.9151 7.1968-15.8919 37.5-46.7759 35.2397-35.9148 37.5002-38.9339 37.5002-50.0863 0-15.645-9.4252-24.9137-25.3342-24.9137-10.6143 0-14.2286 2.7289-49.666 37.5-30.8838 30.3034-39.8606 37.5-46.7757 37.5-7.1215 0-18.514-9.9566-67.8908-59.3334-44.7474-44.7474-59.3334-61.136-59.3334-66.6666s14.586-21.9192 59.3334-66.6666c49.3767-49.3769 60.7693-59.3333 67.8908-59.3333 6.9151 0 15.8919 7.1966 46.7757 37.5 35.915 35.2396 38.934 37.5 50.0865 37.5 15.6448 0 24.9137-9.4252 24.9137-25.334 0-10.6144-2.729-14.2288-37.5002-49.666-30.3032-30.884-37.5-39.8608-37.5-46.776 0-7.1214 9.9567-18.5139 59.3334-67.8906 44.7474-44.7476 61.1361-59.3334 66.6668-59.3334 5.5305 0 21.9192 14.5858 66.6666 59.3334 49.3767 49.3767 59.3333 60.7692 59.3333 67.8906 0 6.9152-7.1967 15.892-37.5 46.776-35.2396 35.9148-37.5 38.9338-37.5 50.0862 0 15.645 9.425 24.9137 25.334 24.9137 10.6144 0 14.2288-2.729 49.666-37.5 30.8839-30.3033 39.8607-37.5 46.7758-37.5 7.1215 0 18.514 9.9565 67.8908 59.3334 44.7474 44.7474 59.3334 61.136 59.3334 66.6666 0 5.5305-14.586 21.9192-59.3334 66.6666-49.3767 49.3768-60.7693 59.3334-67.8908 59.3334-6.9151 0-15.8919-7.1966-46.7758-37.5-35.915-35.2397-38.934-37.5-50.0864-37.5-15.6448 0-24.9135 9.425-24.9135 25.334 0 10.6144 2.7288 14.2287 37.5 49.666 30.3032 30.884 37.5 39.8608 37.5 46.776 0 7.1214-9.9567 18.5138-59.3334 67.8906-44.7474 44.7475-61.1362 59.3333-66.6666 59.3333-5.5307 0-21.9194-14.5858-66.6668-59.3333zm66.6668-213.6666H660.267l34.5851 34.495 34.5852 34.495 47.9246-47.995 47.9249-47.995-47.9248-47.995-47.9247-47.9951-34.5852 34.4952-34.5851 34.495H453.4472l-34.5851-34.495-34.5852-34.4952-47.9247 47.9951-47.9248 47.995 47.9248 47.995 47.9247 47.995 34.5851-34.495 34.5852-34.495h103.41z" style="fill:#000" transform="translate(-256.857 -69.791)"/></svg>