<svg xmlns="http://www.w3.org/2000/svg" width="600" height="758.4521"><path d="M549.3588 651.158c-7.2611-3.3054-9.759-6.3835-9.759-12.0253 0-9.6373 8.086-14.8213 32.8128-21.0358 10.615-2.668 21.0873-6.3341 23.2716-8.147 6.8108-5.6525 4.4989-16.5977-5.2363-24.7893-23.0978-19.4354-67.6307-21.565-115.4088-5.519-36.947 12.4081-52.507 14.0637-79.6267 8.4717-34.649-7.1443-67.84-25.0372-93.9526-50.6483-26.2119-25.7086-39.0708-47.213-47.1718-78.8874-13.7791-53.8765-1.3118-108.9863 31.8425-140.7537 22.1843-21.2562 63.3297-33.24 73.2182-21.3251 3.0384 3.6611 1.3796 5.7808-9.816 12.5432-38.9789 23.544-42.4468 77.0965-7.3928 114.1608 29.4188 31.106 66.3649 43.0426 133.3326 43.0767 77.9714.0397 108.5335 6.4694 138.1736 29.0685 15.9175 12.1362 33.351 35.3326 37.5195 49.9214 5.0202 17.5695 7.8235 20.6785 15.123 16.772 9.1305-4.8865 17.3057-26.031 17.3802-44.9526.1706-43.5319-29.4129-86.808-73.8636-108.0474-17.368-8.2989-26.8776-10.321-98.1771-20.8784-23.0485-3.413-33.23-7.907-48.713-21.501-11.7893-10.3512-19.4056-22.99-19.4056-32.2028 0-8.9134 3.1352-9.4754 23.0674-4.1348 14.8575 3.981 19.7824 4.2014 27.0077 1.2085 13.2946-5.5067 20.3655-19.6826 20.4218-40.9409.1122-42.386-35.1854-71.2098-114.0376-93.1233-43.4464-12.074-82.2433-41.4293-98.4216-74.4695-17.2066-35.1403-22.2497-83.4626-12.584-120.5727 17.9215-68.805 82.0632-110.9282 161.1139-105.8066 35.583 2.3054 62.6873 13.968 58.7437 25.277-.413 1.184-14.2634 2.3393-30.7788 2.5673-19.8892.2748-34.5907 2.1222-43.541 5.4712-43.6351 16.3278-61.944 50.8446-49.6772 93.655 7.3361 25.6031 28.6682 44.9913 77.063 70.04 48.4334 25.0687 50.0324 26.214 89.5919 64.1707 37.9948 36.4551 51.658 44.9007 72.6394 44.9007 48.4759 0 64.7247-58.8694 28.1939-102.1459-10.2989-12.2004-18.442-16.547-60.163-32.1123-27.1332-10.1229-33.2022-13.5062-33.9899-18.9487-1.8764-12.9645 19.9962-15.8873 58.8897-7.8698 45.3143 9.3413 94.9011 38.5112 137.3543 80.8004 40.5318 40.3747 65.3557 84.303 80.8353 143.0445 35.4811 134.6442-.2748 268.7124-90.8518 340.6507-22.2902 17.7037-59.431 35.4532-87.6772 41.9014-31.3697 7.161-94.4592 9.004-107.3506 3.1358z" style="fill:#000" transform="translate(-248.7576 103.7998)"/></svg>