<svg xmlns="http://www.w3.org/2000/svg" width="100%" height="100%" viewBox="0 0 32 32"><path fill="currentColor" d="M8.258 2.216v22.166q0 3.954 3.381 3.954h.573v1.503H.406v-1.503h.759q3.251 0 3.252-3.954V9.845q0-4.009-2.842-4.009H.406V4.331h.446q3.453 0 6.236-2.115zm4.289 14.646q0-5.18 2.171-9.522 2.731-5.401 7.463-5.402 4.569.001 7.24 4.621 2.173 3.79 2.173 8.744 0 5.18-2.173 9.468-2.73 5.291-7.406 5.291-4.51 0-7.186-4.568-2.282-3.842-2.282-8.633zm4.009-1.616q0 4.403.947 7.908 1.447 5.402 4.733 5.403 5.346 0 5.346-11.138 0-13.756-5.793-13.755-5.235-.001-5.235 10.691z"/></svg>