<svg xmlns="http://www.w3.org/2000/svg" width="58" height="32"><path fill="currentColor" d="M9.096 0v25.643q-.001 4.602 3.875 4.602h.674V32H.001v-1.755h.856q3.748 0 3.748-4.602V8.822q-.001-4.656-3.232-4.657H.001V2.466h.495q3.997 0 7.232-2.466zM13.188 16.971q-.001-5.873 2.476-10.829Q18.734 0 24.069 0q5.278.002 8.242 5.226 2.476 4.311 2.476 10.021 0 5.928-2.476 10.721-3.019 6.033-8.404 6.032-5.117 0-8.134-5.17-2.584-4.416-2.584-9.859zm4.524-1.778q0 7.756 2.318 12.067 1.614 3.015 4.147 3.016 6.087 0 6.088-12.607 0-5.548-.969-9.374-1.67-6.303-5.658-6.304-5.927 0-5.926 12.177v1.024zM35.928 16.971q-.001-5.873 2.476-10.829Q41.474 0 46.809 0q5.279.002 8.242 5.226 2.476 4.311 2.476 10.021 0 5.928-2.476 10.721-3.018 6.033-8.404 6.032-5.117 0-8.134-5.17-2.584-4.416-2.584-9.859zm4.524-1.778q0 7.756 2.318 12.067 1.614 3.015 4.147 3.016 6.088 0 6.089-12.607 0-5.548-.969-9.374-1.67-6.303-5.658-6.304-5.927 0-5.926 12.177v1.024z"/></svg>