<svg xmlns="http://www.w3.org/2000/svg" width="160" height="32"><path fill="currentColor" d="M9.096 0v25.643q-.001 4.602 3.875 4.602h.674V32H.001v-1.755h.856q3.748 0 3.748-4.602V8.822q-.001-4.656-3.232-4.657H.001V2.466h.495q3.997 0 7.232-2.466zM19.695 16.971q-.001-5.873 2.476-10.829Q25.241 0 30.576 0q5.279.002 8.242 5.226 2.476 4.312 2.476 10.02 0 5.928-2.476 10.721-3.019 6.033-8.404 6.032-5.117 0-8.134-5.17-2.584-4.416-2.584-9.859zm4.524-1.778q0 7.756 2.318 12.067 1.614 3.016 4.147 3.017 6.088 0 6.089-12.607 0-5.548-.969-9.374-1.67-6.303-5.658-6.304-5.927 0-5.927 12.177zM42.435 16.971q-.001-5.873 2.476-10.829Q47.981 0 53.316 0q5.278.002 8.242 5.226 2.476 4.312 2.476 10.02 0 5.928-2.476 10.721Q58.54 32 53.154 31.999q-5.117 0-8.135-5.17-2.584-4.416-2.584-9.859zm4.524-1.778q0 7.756 2.318 12.067 1.614 3.016 4.147 3.017 6.087 0 6.088-12.607 0-5.548-.969-9.374-1.67-6.303-5.658-6.304-5.927 0-5.926 12.177zM65.227 16.971q-.001-5.873 2.476-10.829Q70.773 0 76.108 0q5.278.002 8.242 5.226 2.476 4.312 2.476 10.02 0 5.928-2.476 10.721-3.019 6.033-8.404 6.032-5.117 0-8.135-5.17-2.584-4.416-2.584-9.859zm4.523-1.778q0 7.756 2.318 12.067 1.614 3.016 4.147 3.017 6.087 0 6.088-12.607 0-5.548-.969-9.374-1.67-6.303-5.658-6.304-5.927 0-5.927 12.177v1.024zM15.041 32v-.861q1.629-.163 2.455-.756t.826-1.617q0-.652-.209-.966t-.721-.337l-.302-.023q-.605-.023-.966-.372t-.361-.931q0-.675.43-1.07t1.082-.396q1.024 0 1.722.977t.698 2.42q0 1.838-1.222 2.874t-3.432 1.059zM92.762 16.971q-.001-5.873 2.476-10.829Q98.308 0 103.643 0q5.279.002 8.242 5.226 2.476 4.312 2.476 10.02 0 5.928-2.476 10.721-3.019 6.033-8.404 6.032-5.117 0-8.135-5.17-2.584-4.416-2.584-9.859zm4.523-1.778q0 7.756 2.318 12.067 1.614 3.016 4.147 3.017 6.088 0 6.089-12.607 0-5.548-.969-9.374-1.67-6.303-5.658-6.304-5.927 0-5.927 12.177zM115.502 16.971q-.001-5.873 2.476-10.829Q121.048 0 126.383 0q5.278.002 8.242 5.226 2.476 4.312 2.476 10.02 0 5.928-2.476 10.721-3.019 6.033-8.404 6.032-5.117 0-8.135-5.17-2.584-4.416-2.584-9.859zm4.523-1.778q0 7.756 2.318 12.067 1.614 3.016 4.147 3.017 6.088 0 6.088-12.607 0-5.548-.969-9.374-1.67-6.303-5.658-6.304-5.928 0-5.927 12.177v1.024zM138.293 16.971q-.001-5.873 2.476-10.829Q143.839 0 149.174 0q5.278.002 8.242 5.226 2.476 4.312 2.476 10.02 0 5.928-2.476 10.721-3.018 6.033-8.405 6.032-5.117 0-8.135-5.17-2.584-4.416-2.584-9.859zm4.524-1.778q0 7.756 2.318 12.067 1.614 3.016 4.147 3.017 6.087 0 6.088-12.607 0-5.548-.969-9.374-1.67-6.303-5.658-6.304-5.927 0-5.926 12.177zM88.108 32v-.861q1.629-.163 2.455-.756t.826-1.617q0-.652-.209-.966t-.721-.337l-.302-.023q-.605-.023-.966-.372t-.361-.931q0-.675.43-1.07t1.082-.396q1.024 0 1.722.977t.698 2.42q0 1.838-1.222 2.874t-3.432 1.059z"/></svg>