<svg xmlns="http://www.w3.org/2000/svg" width="100%" height="100%" viewBox="0 0 32 32"><path fill="currentColor" d="M8.386 1.938v22.465q0 4.026 3.324 4.027h.584v1.574H.333V28.43h.7q3.383 0 3.383-4.027V9.639q0-4.081-2.799-4.083H.392V4.038h.465q3.501 0 6.302-2.1zm23.281 21.18-2.042 6.945H12.527v-1.517q1.227-1.4 5.428-5.603a115 115 0 0 0 5.019-5.366c.817-.936 1.458-1.712 1.925-2.337q1.457-2.214 1.458-4.432c.001-2.218-.448-2.783-1.342-3.911q-1.344-1.693-3.559-1.692-4.612 0-7.237 6.303l-1.517-.584q3.152-8.754 9.803-8.754 3.268 0 5.601 2.218t2.334 5.544q0 4.258-4.841 8.287l-3.326 2.683q-3.211 2.687-5.312 5.075-.175.179-.581.644h8.928q2.041 0 3.035-.76.991-.756 1.807-2.743z"/></svg>