<svg xmlns="http://www.w3.org/2000/svg" width="100%" height="100%" viewBox="0 0 24 24"><path fill="currentColor" d="M8.547 1.956v22.567q0 3.978 3.385 3.977h.534v1.544H.471V28.5h.773q3.444.001 3.443-3.977V9.734q-.001-4.096-2.909-4.098H.589V4.094h.476q3.502 0 6.295-2.139zm10.096 14.965-.713-1.308.536-.298a73 73 0 0 0 4.959-3.354q2.285-1.69 2.286-3.83 0-1.485-1.128-2.464-1.13-.982-2.494-.981-3.446 0-7.247 4.158l-1.187-.892q3.919-5.94 9.619-5.94 2.495 0 4.217 1.248 2.02 1.368 2.02 3.743 0 1.664-1.426 3.264-.833.892-2.851 2.436l-.534.476a6 6 0 0 1 .892-.06q2.612.002 4.275 1.988 1.663 1.99 1.662 4.542 0 4.515-3.801 7.483-3.444 2.85-8.015 2.852-4.219 0-6.592-1.783l.831-1.187q2.791 1.307 5.105 1.308 3.327 0 5.939-2.199 2.613-2.196 2.612-5.463 0-2.195-1.305-3.74-1.308-1.544-3.446-1.544-1.899 0-4.216 1.545z"/></svg>