<svg xmlns="http://www.w3.org/2000/svg" width="100%" height="100%" viewBox="0 0 24 24"><path fill="currentColor" d="M8.282 2.279v22.045q0 3.903 3.245 3.903h.515v1.493H.419v-1.493h.742q3.303 0 3.303-3.903V9.857q-.001-3.963-2.791-3.962H.533V4.403h.456q3.36 0 6.094-2.123h1.2zM27.48 21.913v2.296q-.002 3.847 2.677 3.847h.739v1.49H20.015v-1.49h.855q2.678 0 2.678-3.789v-2.355H12.609v-2.296L24.174 2.622h3.306V19.96h.285q1.652.001 2.448-2.639h1.367l-.684 4.593h-3.417zm-3.02-2.296V5.151l-9.685 14.466z"/></svg>