<svg xmlns="http://www.w3.org/2000/svg" width="100%" height="100%" viewBox="0 0 24 24"><path fill="currentColor" d="M9.223 2.258v21.921q.001 3.91 3.25 3.911h.551v1.485H1.349V28.09h.771q3.305 0 3.305-3.911V9.802q0-3.965-2.81-3.965H1.459V4.35H1.9q3.415 0 6.168-2.092h1.157zm7.712.549h9.969q1.93.001 2.315-.44h1.432l-.827 3.746H17.652l-1.156 5.397q2.587-1.046 4.626-1.047 3.965.001 6.692 2.645c2.727 2.644 2.725 3.964 2.725 6.609q0 4.625-3.523 7.436-3.308 2.588-7.988 2.589-2.754 0-5.397-.827l.549-1.376q2.203.605 3.911.605 3.416.001 5.976-2.257c2.56-2.258 2.559-3.38 2.559-5.619q0-2.919-1.898-4.792-1.901-1.872-4.765-1.873-2.698 0-5.012 1.873l-.935-.165 2.917-12.505z"/></svg>