<svg xmlns="http://www.w3.org/2000/svg" width="100%" height="100%" viewBox="0 0 24 24"><path fill="currentColor" d="M9.528 2.3v21.921q.001 3.91 3.25 3.911h.551v1.485H1.654v-1.485h.771q3.305 0 3.305-3.911V9.844q0-3.965-2.81-3.965H1.764V4.392h.441q3.415 0 6.168-2.092H9.53zM16.943 14.223q3.038-2.856 6.125-2.856 3.362 0 5.391 2.671 1.887 2.441 1.888 5.897 0 3.778-2.211 6.633-2.442 3.133-6.08 3.133-4.377 0-7.001-3.778-2.35-3.317-2.35-7.878 0-4.835 2.671-8.912 2.67-4.076 7.138-5.78a14.9 14.9 0 0 1 5.344-.969v1.429q-5.988.322-8.937 4.791-1.516 2.304-1.978 5.621zm-.278 2.763a32 32 0 0 0-.045 1.658q0 3.177 1.105 5.897 1.427 3.545 4.193 3.546 2.394 0 3.592-2.442.921-1.887.921-4.56-.001-2.854-.875-4.882-1.198-2.763-3.685-2.763-3.04 0-5.205 3.546z"/></svg>