<svg xmlns="http://www.w3.org/2000/svg" width="100%" height="100%" viewBox="0 0 24 24"><path fill="currentColor" d="M9.619 2.341v21.921q.001 3.91 3.25 3.911h.551v1.485H1.745v-1.485h.771q3.305 0 3.305-3.911V9.885q0-3.965-2.81-3.965H1.855V4.433h.441q3.415 0 6.168-2.092h1.157zM22.494 29.659h-3.976v-.423q0-3.787 2.383-9.495 3.604-8.604 6.643-13.189l.281-.421h-9.307q-2.012 0-3.065.841-1.053.843-1.566 2.807h-1.543l1.682-7.438h.984q.886.468 3.087.468h12.159v2.105q-.653.937-1.682 2.994-1.965 3.834-3.604 8.934-2.43 7.53-2.477 12.816z"/></svg>