<svg xmlns="http://www.w3.org/2000/svg" width="100%" height="100%" viewBox="0 0 24 24"><path fill="currentColor" d="M9.465 2.341v21.921q.001 3.91 3.25 3.911h.551v1.485H1.591v-1.485h.771q3.305 0 3.305-3.911V9.885q0-3.965-2.81-3.965H1.701V4.433h.441q3.415 0 6.168-2.092h1.157z"/><path fill="currentColor" d="m18.256 15.817-.608-.414q-2.677-1.793-3.521-2.899-1.08-1.378-1.079-3.219 0-3.127 2.675-5.104 2.487-1.84 5.773-1.84 3.096 0 5.49 1.609 2.72 1.794 2.722 4.738-.002 3.588-5.115 5.794 5.817 2.76 5.818 7.68.001 3.54-2.77 5.612-2.485 1.885-6.24 1.884-3.519.001-6.055-1.748-2.91-1.976-2.909-5.241c.001-3.265 1.032-3.971 3.097-5.382q.845-.55 2.722-1.471zm1.593.653q-4.221 1.884-4.22 5.928 0 2.62 1.713 4.205 1.712 1.586 4.388 1.585 2.392 0 4.058-1.262c1.666-1.262 1.666-2.012 1.666-3.51q0-3.394-4.564-5.505zm3.146-2.723q3.706-1.608 3.707-4.828-.001-2.208-1.571-3.543-1.574-1.334-3.872-1.334-1.925 0-3.332 1.012-1.549 1.105-1.548 2.943 0 2.254 2.158 3.634.42.275 3.754 1.793l.703.322z"/></svg>