<svg xmlns="http://www.w3.org/2000/svg" width="100%" height="100%" viewBox="0 0 32 32"><path fill="currentColor" d="M9.613 2.341v21.921q.001 3.91 3.25 3.911h.551v1.485H1.739v-1.485h.771q3.305 0 3.305-3.911V9.885q0-3.965-2.81-3.965H1.849V4.433h.441q3.415 0 6.168-2.092h1.157zM26.032 17.886q-3.035 2.852-6.116 2.852-3.357 0-5.381-2.668-1.886-2.438-1.886-5.887 0-3.724 2.206-6.667 2.393-3.175 6.026-3.174 4.416 0 7.036 3.818 2.346 3.356 2.345 7.957-.001 6.529-4.321 11.014-4.323 4.483-10.808 4.528v-1.426q1.975-.09 3.175-.459 6.62-2.023 7.724-9.888m.277-2.76q.044-.873.044-1.655 0-3.22-1.103-5.887-1.472-3.543-4.229-3.542c-1.597 0-2.774.814-3.543 2.438q-.92 1.886-.919 4.553 0 2.851.874 4.874 1.194 2.76 3.68 2.76 3.032 0 5.196-3.542z"/></svg>