<svg xmlns="http://www.w3.org/2000/svg" width="100%" height="100%" viewBox="0 0 32 32"><path fill="currentColor" d="M26.95 24.041 24.592 32H4.996v-1.702q1.428-1.59 6.258-6.421a134 134 0 0 0 5.763-6.148q1.428-1.591 2.195-2.745 1.701-2.468 1.702-5.05 0-2.524-1.563-4.445-1.564-1.923-4.036-1.923-5.322.001-8.342 7.192l-1.758-.659Q8.782 0 16.467-.001q3.787 0 6.45 2.579c2.663 2.579 2.662 3.842 2.662 6.368q0 4.831-5.543 9.44l-3.842 3.182q-3.68 3.076-6.092 5.765-.167.164-.659.768h10.208q2.36.001 3.567-.934 1.043-.824 2.032-3.128h1.7z"/></svg>