<svg xmlns="http://www.w3.org/2000/svg" width="100%" height="100%" viewBox="0 0 32 32"><path fill="currentColor" d="m17.013 22.597-1.828 6.53H0v-1.396q1.107-1.305 4.85-5.268a108 108 0 0 0 4.466-5.044q1.106-1.306 1.701-2.252 1.319-2.024 1.319-4.143 0-2.071-1.211-3.647Q9.912 5.8 7.998 5.799q-4.125 0-6.464 5.901l-1.362-.54q2.764-8.285 8.72-8.286 2.936 0 4.998 2.116c2.062 2.116 2.063 3.152 2.063 5.225q0 3.964-4.296 7.745L8.68 20.571q-2.851 2.524-4.721 4.73-.13.136-.51.63h7.911q1.829 0 2.764-.766.808-.675 1.575-2.567h1.317z"/><path fill="currentColor" d="M16.341 16.797q0-4.818 1.795-8.885 2.227-5.039 6.093-5.039 3.827.002 5.975 4.287 1.795 3.538 1.795 8.221 0 4.864-1.795 8.796-2.189 4.95-6.093 4.949-3.71 0-5.897-4.242-1.874-3.624-1.874-8.088zm3.279-1.459q0 6.364 1.68 9.901 1.17 2.474 3.006 2.475 4.413 0 4.414-10.344 0-4.551-.702-7.691-1.211-5.171-4.102-5.172-4.297 0-4.297 9.991v.84z"/></svg>