<svg xmlns="http://www.w3.org/2000/svg" width="100%" height="100%" viewBox="0 0 24 24"><path fill="currentColor" d="m11.824 17.025-.807-1.508.535-.323q3.104-1.886 5.676-3.825C19.8 9.43 19.799 8.603 19.799 6.95q0-1.667-1.234-2.799-1.235-1.135-2.898-1.134-3.863.001-8.157 4.796L6.168 6.789q4.471-6.79 10.936-6.79 2.853 0 4.849 1.401 2.262 1.564 2.262 4.257-.001 1.939-1.616 3.77-.918 1.079-3.233 2.802l-.646.485a8 8 0 0 1 1.024-.054q2.962 0 4.875 2.263c1.913 2.263 1.913 3.268 1.913 5.278q-.001 5.119-4.31 8.566-3.988 3.232-9.213 3.231-4.794 0-7.543-2.1l.972-1.348q3.232 1.564 5.872 1.563 3.824 0 6.813-2.532 2.991-2.532 2.99-6.302 0-2.479-1.508-4.23-1.509-1.75-3.933-1.75-2.21.001-4.849 1.724z"/></svg>