<svg xmlns="http://www.w3.org/2000/svg" width="100%" height="100%" viewBox="0 0 32 32"><path fill="currentColor" d="M10.632 13.87q3.56-3.346 7.175-3.345 3.938 0 6.315 3.128c1.473 1.908 2.212 4.208 2.212 6.908q0 4.424-2.59 7.77-2.86 3.668-7.123 3.669-5.128 0-8.201-4.425-2.753-3.887-2.753-9.228 0-5.664 3.13-10.44 3.128-4.775 8.362-6.771A17.4 17.4 0 0 1 23.419 0v1.674q-7.014.378-10.469 5.612c-1.183 1.8-1.958 3.993-2.317 6.584zm-.325 3.237a37 37 0 0 0-.053 1.943q0 3.722 1.294 6.907 1.673 4.154 4.911 4.154 2.804.001 4.208-2.86 1.079-2.21 1.079-5.342-.001-3.344-1.025-5.719-1.403-3.237-4.317-3.237-3.56.001-6.097 4.154"/></svg>