<svg xmlns="http://www.w3.org/2000/svg" width="100%" height="100%" viewBox="0 0 24 24"><path fill="currentColor" d="m12.289 15.785-.713-.484q-3.135-2.1-4.125-3.396-1.264-1.614-1.264-3.77 0-3.663 3.134-5.98Q12.234.001 16.083 0q3.627 0 6.431 1.885 3.187 2.101 3.189 5.55-.001 4.203-5.992 6.787 6.815 3.233 6.816 8.997.001 4.148-3.244 6.574C21.343 31.266 18.904 32 15.974 32q-4.122.001-7.092-2.048-3.408-2.314-3.407-6.14c.001-3.826 1.209-4.652 3.628-6.304q.991-.645 3.188-1.723zm1.866.765c-3.298 1.471-4.943 3.786-4.943 6.944q-.002 3.068 2.007 4.926 2.007 1.858 5.14 1.857 2.802 0 4.753-1.478c1.951-1.478 1.951-2.356 1.951-4.112q0-3.975-5.346-6.449zm3.686-3.189q4.341-1.885 4.343-5.656-.001-2.586-1.841-4.15-1.844-1.562-4.536-1.562-2.255 0-3.903 1.186-1.814 1.293-1.813 3.448 0 2.64 2.529 4.257.493.322 4.398 2.1l.824.377z"/></svg>