<svg xmlns="http://www.w3.org/2000/svg" width="100%" height="100%" viewBox="0 0 24 24"><path fill="currentColor" d="M21.36 18.209q-3.555 3.34-7.164 3.341-3.934 0-6.303-3.126-2.21-2.855-2.209-6.896 0-4.362 2.584-7.81Q11.071-.001 15.327 0q5.172 0 8.242 4.472 2.748 3.932 2.747 9.321c0 5.098-1.69 9.399-5.062 12.903Q16.189 31.948 8.593 32v-1.67q2.314-.105 3.719-.538c5.169-1.58 8.188-5.44 9.048-11.583m.325-3.232a39 39 0 0 0 .052-1.938q0-3.772-1.292-6.896-1.724-4.15-4.954-4.15c-1.87 0-3.25.954-4.15 2.856q-1.077 2.209-1.076 5.334 0 3.34 1.024 5.71 1.4 3.233 4.311 3.233 3.551 0 6.087-4.149z"/></svg>