<svg xmlns="http://www.w3.org/2000/svg" width="29" height="32" viewBox="0 0 29 32"><path fill="currentColor" d="M11.27 0h.298c.263.02.525.053.777.133.481.144.915.421 1.272.771.3.288.541.627.787.96.587-.667 1.326-1.228 2.187-1.48a4.3 4.3 0 0 1 1.862-.116c.488.077.973.261 1.338.602.387.356.608.874.628 1.397.015.474-.086.961-.34 1.366a2.2 2.2 0 0 1-1.224.928 1.7 1.7 0 0 1-.945.018c-.369-.099-.718-.33-.898-.674-.15-.278-.118-.626.023-.901.199-.372.587-.583.957-.753a1.38 1.38 0 0 0-.659 1.078.56.56 0 0 0 .172.433.96.96 0 0 0 .604.262c.317.013.644-.085.883-.299.214-.192.367-.456.412-.741a1.22 1.22 0 0 0-.306-.933 1.46 1.46 0 0 0-.738-.397 2.16 2.16 0 0 0-1.457.187c-.461.229-.836.603-1.132 1.02-.512.732-.825 1.593-.968 2.472-.067.468-.105.958.033 1.417 1.026-.397 2.056-.787 3.106-1.119.255-.076.51-.161.775-.2.823-.093 1.649-.187 2.478-.2.666-.003 1.334-.004 1.997-.074.387-.042.78-.099 1.14-.253.207-.09.418-.237.479-.466.066-.262-.053-.533-.232-.722-.266-.283-.623-.462-.984-.593-.367-.127-.766-.228-1.154-.134-.184.045-.388.115-.491.286-.062.11.012.233.089.313.205.211.48.332.75.436-.27.089-.571.129-.843.028-.329-.117-.564-.415-.671-.739a.83.83 0 0 1 .028-.665c.091-.175.264-.293.446-.361.258-.095.535-.116.808-.117.585 0 1.176.094 1.713.331.737.321 1.347.96 1.562 1.742.102.35-.013.745-.265 1.004-.251.259-.592.408-.933.509-.554.16-1.133.204-1.708.212.275.311.502.666.648 1.054a5.6 5.6 0 0 1 1.537-.315c.587-.017 1.189.048 1.733.282.418.179.791.474 1.029.864.298.48.392 1.058.377 1.615a3 3 0 0 1-.478 1.519 2.25 2.25 0 0 1-.67.649c.699.48 1.153 1.241 1.411 2.035.143.458.256.941.187 1.423-.111.941-.732 1.785-1.557 2.234-.291.153-.624.277-.957.212-.408-.081-.757-.35-1.012-.67-.196-.254-.354-.56-.348-.888.004-.295.062-.604.242-.845.145-.197.369-.324.605-.377.317-.072.651-.045.964.036-.425.107-.84.338-1.087.709-.116.162-.078.375-.019.551.14.392.605.619 1.003.515.342-.085.636-.312.849-.587a1.94 1.94 0 0 0 .375-1.422 1.74 1.74 0 0 0-.475-.955c-.323-.344-.744-.582-1.184-.744-.326-.116-.669-.2-1.017-.187-.425.009-.856.047-1.26.187-.23.078-.446.201-.62.37.057 1.071-.171 2.171-.729 3.094-.724 1.215-2.017 2.102-3.434 2.245-.558.063-1.142-.027-1.63-.314-.807-.465-1.318-1.357-1.411-2.272-.048-.478.011-.991.285-1.398.242-.366.637-.605 1.052-.726a3.5 3.5 0 0 1 1.173-.127c.2.012.402.034.591.102-.54.11-1.097.25-1.542.59-.288.216-.48.553-.516.912-.047.478.016.99.284 1.4.312.482.907.749 1.475.7.409-.04.793-.214 1.139-.428a4.04 4.04 0 0 0 1.55-1.783c.222-.522.323-1.108.214-1.67-.179-.966-.751-1.865-1.585-2.393-.787-.505-1.747-.67-2.669-.639-1.037.039-2.046.374-2.951.87a10.4 10.4 0 0 0-2.316 1.76 12.8 12.8 0 0 0-2.885 4.401 9.4 9.4 0 0 0-.528 1.959c-.081.55-.115 1.111-.037 1.664.129.964.433 1.901.862 2.772a8.7 8.7 0 0 0 1.523 2.18 8.4 8.4 0 0 0 2.277 1.68c1.223.621 2.58.948 3.943 1.062 1.264.102 2.555.067 3.785-.263 1.012-.268 1.977-.736 2.781-1.411.628-.53 1.169-1.178 1.517-1.927.099-.232.21-.48.17-.738-.039-.311-.18-.629-.447-.807-.164-.113-.377-.08-.556-.029-.211.062-.378.215-.516.38.158-.258.374-.506.672-.598.247-.079.521-.003.72.157.304.242.476.628.493 1.013.012.439-.062.884-.248 1.283-.188.409-.467.768-.76 1.106-.652.733-1.335 1.444-2.102 2.058a11.6 11.6 0 0 1-2.297 1.441c-1.049.499-2.167.841-3.305 1.066-1.318.265-2.664.355-4.006.393h-.146c-.844-.534-1.624-1.163-2.362-1.834a15 15 0 0 1-1.645-1.743c-.383-.484-.727-1.002-.976-1.568-.064.233-.036.478.003.713.088.483.245.951.422 1.408.277.704.609 1.388 1.009 2.031q.22.356.485.679a13.7 13.7 0 0 1-4.185-1.628c-.063-.04-.139-.069-.175-.138a24 24 0 0 1-1.149-2.292c-.454-1.037-.859-2.101-1.135-3.201-.172-.707-.302-1.436-.244-2.165-.317.405-.428.925-.51 1.421-.169 1.182-.108 2.382-.037 3.57a9.8 9.8 0 0 1-1.479-2.538 8 8 0 0 1-.557-3.017c.011-1.156.218-2.318.679-3.382.396-.926.978-1.765 1.66-2.503.971-1.064 2.141-1.914 3.209-2.873.492-.448.965-.932 1.302-1.511.317-.544.485-1.187.408-1.816-.1-.644-.475-1.21-.914-1.678a5.2 5.2 0 0 0-1.393-1.044c-.451-.225-.952-.393-1.463-.348-.811.064-1.564.49-2.115 1.077-.34.37-.635.821-.684 1.333-.021.589.093 1.199.41 1.703.453.73 1.336 1.152 2.188 1.084.447-.027.898-.164 1.249-.449.414-.33.672-.857.648-1.389-.009-.354-.12-.719-.369-.978-.295-.312-.734-.448-1.154-.456-.369-.011-.75.128-.998.409-.222.243-.34.585-.29.913.031.22.144.426.312.571.177.157.407.24.636.284-.324.112-.699.175-1.019.015s-.49-.503-.567-.837c-.113-.507-.084-1.067.175-1.527.229-.406.642-.681 1.083-.811.44-.139.915-.126 1.362-.027.422.097.819.317 1.103.648.358.417.544.965.568 1.51.007.65-.095 1.32-.417 1.893a2.33 2.33 0 0 1-1.04.971c-.54.255-1.149.322-1.74.302-.563-.02-1.131-.131-1.636-.388a2.9 2.9 0 0 1-1.081-.954C.247 10.815.055 10.06.027 9.315v-.227c.023-.612.125-1.229.381-1.789a3.4 3.4 0 0 1 1.054-1.321c.732-.552 1.647-.823 2.555-.877a9 9 0 0 1 1.73.127c.01-.36.067-.722.202-1.057.184-.471.525-.874.947-1.149a3.5 3.5 0 0 1 2.114-.534c-.215-.709.088-1.514.665-1.962.448-.359 1.03-.497 1.593-.525zm-1.006 1.11c-.228.131-.388.36-.46.61-.09.307-.082.641.014.945.491.187.921.515 1.258.915a.92.92 0 0 0 .462-.425c.079-.169.01-.365-.096-.506-.185-.247-.48-.379-.769-.459.221-.012.444-.035.663.001.223.031.45.142.559.348.137.265.119.587.03.865-.089.261-.25.526-.515.637.294.483.515 1.02.587 1.583.061.688-.139 1.424-.636 1.92-.353.354-.844.587-1.35.577.126.257.234.525.286.807.231-.214.507-.369.781-.519.476-.255.966-.484 1.46-.701-.037-.857-.085-1.713-.094-2.571.005-.072-.012-.15.024-.216.266-.456.507-.926.769-1.384.126-.631-.104-1.304-.544-1.767a2.63 2.63 0 0 0-1.486-.803c-.318-.045-.661-.022-.944.143zM7.968 3.921c-.55.445-.714 1.306-.339 1.911.159.09.324.172.478.271.046-.409.312-.769.647-.994.21-.14.465-.216.718-.195.275.012.574.071.77.28.181.192.202.486.117.727-.037-.173-.147-.346-.328-.389-.255-.061-.514.049-.722.191-.243.173-.459.429-.483.738-.019.224.112.432.286.563.257.194.548.375.877.399a.73.73 0 0 0 .61-.266c.223-.263.324-.606.371-.942.074-.521-.108-1.042-.375-1.482-.279-.446-.671-.844-1.168-1.039a1.48 1.48 0 0 0-1.461.229zm12.771 2.643a.63.63 0 0 0-.289.525.81.81 0 0 0 .29.631c-.29-.039-.598-.148-.765-.403-.159-.24-.094-.546-.034-.808-.88.379-1.757.764-2.625 1.169-.476.225-.953.449-1.41.711-.11.071-.238.13-.311.243.148.036.298.004.445-.019.306-.053.611-.113.92-.143a5.5 5.5 0 0 1 1.63.076c.516.092 1.015.255 1.524.373.464.114.951-.061 1.323-.339a2.6 2.6 0 0 0 .827-1.035c.112-.245.039-.546-.144-.736-.181-.187-.433-.287-.684-.335-.233-.045-.491-.036-.697.091zm2.893 1.797c-.046.031-.097.06-.123.111a3.7 3.7 0 0 1-.488.627 8 8 0 0 1-1.05.907c-.049.077-.062.196.005.268.316.418.602.86.818 1.339.364-.114.735-.201 1.109-.275-.325-.366-.454-.874-.415-1.355.055-.431.346-.797.69-1.044.228-.162.508-.303.795-.235.428.086.874.268 1.139.631-.288-.17-.643-.245-.968-.143-.461.13-.831.596-.773 1.085.055.347.248.657.475.919.436-.042.881-.063 1.311.037.354-.243.671-.556.868-.941.227-.436.254-.953.15-1.427-.076-.351-.275-.682-.581-.879-.384-.25-.862-.302-1.309-.271-.596.063-1.158.314-1.652.644z"/></svg>