<svg xmlns="http://www.w3.org/2000/svg" width="29" height="32" viewBox="0 0 29 32"><path fill="currentColor" d="m16.745 3.962 1.416-.585 1.338 1.97a8 8 0 0 1 1.528.002l1.338-1.968 2.83 1.178q-.226 1.167-.449 2.335.594.487 1.079 1.082l2.339-.446q.586 1.415 1.17 2.831l-1.971 1.335a8 8 0 0 1 0 1.529q.983.668 1.966 1.336l-1.175 2.832q-1.168-.226-2.338-.449a8 8 0 0 1-1.08 1.08l.445 2.339q-1.415.586-2.831 1.17l-1.338-1.97a8 8 0 0 1-1.527-.002q-.671.984-1.339 1.969l-2.829-1.178.449-2.336a7.6 7.6 0 0 1-1.079-1.081l-2.339.446q-.587-1.415-1.17-2.831l1.97-1.335a7.6 7.6 0 0 1 .001-1.528l-1.966-1.337q.586-1.417 1.175-2.833 1.168.225 2.337.449a8 8 0 0 1 1.081-1.079l-.445-2.339zm1.877 4.541a4.277 4.277 0 1 0 3.267 7.905 4.277 4.277 0 0 0-3.267-7.905M4.423 4.518a2.54 2.54 0 1 1 1.94 4.695 2.54 2.54 0 0 1-1.94-4.695M3.308 1.82l-.841.348.264 1.389a5 5 0 0 0-.642.641q-.695-.133-1.388-.267L.003 5.614l1.168.794q-.046.454-.001.908l-1.171.793.695 1.682 1.389-.265q.287.353.641.642l-.267 1.388 1.681.7.796-1.17q.453.043.907.001l.795 1.17 1.682-.695-.264-1.389q.351-.291.642-.641l1.389.267.698-1.683-1.168-.794a4.7 4.7 0 0 0 0-.908l1.171-.793-.695-1.682-1.389.265a4.6 4.6 0 0 0-.641-.643q.133-.694.267-1.387l-1.681-.7q-.397.585-.795 1.169a5 5 0 0 0-.908-.001l-.795-1.17-.841.347zm3.888 18.163a3.347 3.347 0 1 1 0 6.697 3.348 3.348 0 0 1 0-6.697m0-3.847H5.997l-.378 1.825a6.4 6.4 0 0 0-1.105.458l-1.556-1.024q-.85.848-1.697 1.699.512.777 1.023 1.555a6 6 0 0 0-.458 1.105l-1.825.377v2.399l1.826.377q.173.576.457 1.105l-1.023 1.556q.848.849 1.695 1.699.778-.513 1.558-1.024c.352.187.723.34 1.104.458l.379 1.825h2.399l.377-1.825a6.5 6.5 0 0 0 1.105-.458l1.558 1.024 1.697-1.698q-.512-.778-1.023-1.555c.186-.354.343-.723.458-1.106l1.825-.377v-2.399l-1.826-.377a6 6 0 0 0-.458-1.105l1.024-1.555-1.696-1.699q-.778.513-1.557 1.024a6.4 6.4 0 0 0-1.105-.458l-.379-1.826H7.197z"/></svg>