<svg xmlns="http://www.w3.org/2000/svg" width="30" height="32" viewBox="0 0 30 32"><path fill="currentColor" d="M15.013 18.932a2.93 2.93 0 1 1 0-5.86 2.93 2.93 0 0 1 0 5.86m-12.73-.153c1.375 5.169 4.622 8.797 9.956 9.985l-.228-4.301c-2.587-.871-4.504-2.91-5.432-5.456zM12.241 3.24c-5.004 1.144-8.796 5.003-9.983 9.986l4.334-.23c.813-2.542 2.905-4.617 5.421-5.456zm15.528 15.539-4.334.23c-.812 2.541-2.905 4.615-5.419 5.454l-.228 4.301c5.002-1.144 8.794-5.002 9.982-9.984zM17.786 3.24l.228 4.301c2.587.871 4.503 2.909 5.433 5.455l4.296.228c-1.375-5.169-4.623-8.795-9.957-9.983zm-1.283 16.454c-.1.042-.196.099-.301.127-.655.173-.649.152-1.189.18-.508-.026-1.031-.066-1.49-.307l1.49 11.287zm-1.49-18.675-1.49 11.291c.1-.042.196-.099.301-.127.654-.173.649-.152 1.189-.18.508.026 1.032.066 1.491.307zm-4.969 10.013 1.34 3.317.01-.01a3.72 3.72 0 0 1 1.956-1.956l.01-.01-3.317-1.34zm8.661 3.479c.043.101.099.196.128.302.173.654.152.649.18 1.189-.026.508-.066 1.032-.307 1.491l11.295-1.491zm-7.401-.001L0 16.002l11.304 1.492v-.044c-.037-.086-.086-.169-.11-.259-.174-.674-.152-.638-.18-1.189.025-.492.059-1.002.289-1.448zm8.672-3.478-3.317 1.34.005.005a3.72 3.72 0 0 1 1.973 1.971zm-1.34 6.637-.009.009a3.7 3.7 0 0 1-1.938 1.938l-.03.03 3.317 1.34zm-7.252-.023-1.34 3.317 3.314-1.339a3.72 3.72 0 0 1-1.97-1.974z"/></svg>