<svg xmlns="http://www.w3.org/2000/svg" width="25" height="32"><path fill="currentColor" d="M9.648 29.891C5.8 29.884 2.249 27.623.706 23.993c-.794-1.869-.884-3.228-.441-5.295 1.078-5.031 3.703-9.006 7.546-12.567 2.138-1.984 6.123-4.404 9.19-3.97 5.166.73 9.339 6.348 7.877 11.563-.943 3.37-2.413 6.062-4.48 8.812-2.344 3.123-6.522 7.363-10.75 7.355m-.744-1.913c2.557.713 5.998-2.187 7.779-3.98a24.3 24.3 0 0 0 5.606-8.778c.798-2.148 1.866-7.642-2.06-7.225q-.132.015-.132.147.008 3.29-1.11 5.614c-2.476 5.158-6.023 9.515-11.583 11.445a.19.19 0 0 0-.132.167c-.142 1.232.414 2.273 1.631 2.611zM16.607 9.42c-4.475 3.204-8.112 8.122-9.371 13.544q-.044.191.149.157.646-.117 1.401-.527c4.129-2.239 6.814-5.773 8.8-10.135q.764-1.678.61-3.596a.12.12 0 0 0-.145-.107 4 4 0 0 0-1.445.664z"/></svg>