<svg xmlns="http://www.w3.org/2000/svg" width="26" height="32" viewBox="0 0 26 32">
    <path fill="currentColor"
        d="M8.84 0c1.075 1.081 2.092 2.374 2.204 3.961.415 4.398-1.741 8.433-3.498 12.314 2.848-2.524 4.759-5.862 6.841-8.997.309 1.235 1.587 2.88.378 3.988-2.369 2.598-5.031 4.919-7.682 7.224-1.837 1.549-3.737 3.093-5.989 4.014C4.863 15.471 7.371 7.826 8.84 0M5.859 21.029c-1.768 1.432-3.998 2.364-5.356 4.248-1.006 1.416-.309 3.445 1.113 4.291 4.451 3.28 10.456 2.779 15.455 1.198-2.374-.846-4.871-1.384-7.123-2.566 2.348.037 4.738.516 7.049-.128 2.534-.618 4.376-2.651 5.814-4.706-3.391.378-6.761 1.171-10.19 1.102 2.406-1.086 4.988-1.789 7.246-3.194 2.987-1.602 5.542-4.509 5.606-8.05-4.099 2.321-8.082 4.935-12.538 6.548 3.652-3.253 7.81-6.154 10.35-10.451 1.374-2.076 1.336-4.658.82-7.006-5.462 6.793-11.303 13.39-18.245 18.713z" />
</svg>