<svg xmlns="http://www.w3.org/2000/svg" width="27" height="32"><path fill="currentColor" d="M13.34 13.05c.26.489.576 1.211 1.066 1.583.27-.08.556-.408.734-.518-.027.623-.196 1.381-.159 2.015.006.085.478.512.478.512l-.569.376s-.072.636-.194.922c.031-.009.184-.02.216-.023.686-.048 1.278-.141 1.798-.708.115.113.256.539.329.658.751.037 1.386.099 2.018.479-.201.366-.593 1.234-.8 1.6.637.815 1.255 1.644 1.878 2.468.691.151 1.374.311 2.061.476.064-.316.192-.948.261-1.259.211-.192.637-.577.852-.769q.817.556 1.639 1.099c-.6.801-1.017 1.846-1.937 2.336-1.401.44-2.876.559-4.332.692-.49-1.227-1.337-2.253-2.148-3.279-.192.779-.327.959-.441 1.758-.044.306-.077.881.026 1.173.02.058.792.473.782.534-.169 1.042-.066 1.477-.038 1.559.263.774.837 1.476 1.366 2.137-1.277.321-2.527.749-3.808 1.055 0 0-.578.166-1.079.166s-.725-.071-1.079-.155c-1.281-.306-2.531-.733-3.808-1.055.529-.66 1.103-1.362 1.366-2.137.028-.082.131-.517-.038-1.559-.01-.061.762-.476.782-.534.103-.292.07-.867.026-1.173-.114-.799-.249-.979-.441-1.758-.811 1.026-1.658 2.052-2.148 3.279-1.456-.133-2.931-.252-4.332-.692-.92-.49-1.337-1.534-1.937-2.336q.824-.543 1.64-1.099c.215.192.641.577.852.769.069.311.197.943.261 1.259.687-.165 1.369-.325 2.061-.476.623-.824 1.241-1.653 1.878-2.468-.206-.366-.598-1.234-.799-1.6.632-.38 1.267-.443 2.018-.479.073-.119.214-.545.329-.658.52.567 1.112.66 1.798.708.032.002.185.014.216.023-.121-.286-.194-.922-.194-.922l-.569-.376s.472-.427.478-.512c.036-.634-.132-1.392-.159-2.015.179.11.464.438.734.518.49-.372.806-1.095 1.066-1.583v-.01zM2.842 7.012a10.3 10.3 0 0 0-1.233 1.826A13.6 13.6 0 0 0 0 15.193c.097 1.919.331 3.849 1.275 5.564.832-.553.369-.243 1.388-.932l.814-.554 1.548 1.152.292 1.138.501-.27 1.123-1.482-.421-.852-.584-1.062 1.038-.624c.661-.339 1.336-.723 2.083-.819-.207-1.015-.162-.572-.2-1.321.032-.641-.007-.306.135-1.004zm20.939-.059-6.179 7.149c.149.73.109.384.142 1.036-.037.734.007.306-.191 1.278.771.138 1.474.468 2.155.852l1.038.625-.584 1.062c-.067.122-.144.278-.422.852.638.836.309.435.993 1.36l.511.395.07-.59.55-.557c.214-.195.363-.284 1.34-1.146l.814.554c1.017.687.556.379 1.38.927.223-.528.511-1.033.669-1.583.568-1.981.514-2.266.599-3.965-.153-3.026-.938-5.856-2.886-8.246zM7.935 3.071c-1.349.528-2.767 1.357-3.774 2.531l5.161 7.588c.279-.66.794-1.244 1.387-1.639zm10.733-.027-2.782 8.504c.586.396 1.094.96 1.379 1.612l5.181-7.617c-1.076-1.076-2.321-2.009-3.778-2.498zM12.475 1.91c-1.277.065-2.276.33-2.777.489l1.772 8.712c.762-.322.329-.178 1.315-.38l-.309-8.821zm1.728 0-.327 8.833c.924.188.512.053 1.249.365l1.774-8.724c-1.205-.303-1.591-.417-2.696-.474"/></svg>