<svg xmlns="http://www.w3.org/2000/svg" width="26" height="32"><path fill="currentColor" d="M14.102 9.956c.573-3.026 2.054-4.979 4.182-6.754 1.223 2.16 1.855 3.603 2.347 6.021.733 3.599-2.287 5.722-4.746 4.486-1.293-.65-2.05-2.348-1.784-3.753zM.045 11.95c-.139 2.362-.021 4.962 1.349 7.02.701 1.052 2.108 1.697 3.631 1.052 1.73-.733 1.516-3.293.541-4.492-1.538-1.891-3.406-2.854-5.522-3.58zm8.197 6.637c-1.08 1.712-2.675 2.835-3.581 4.853-.836 1.863.605 3.845 2.062 4.997 1.721-.793 3.526-2.079 6.01-2.079 2.596 0 4.166 1.189 5.917 2.055q.019.008.039.015c1.73-.704 2.594-3.253 1.949-5-.762-2.075-2.162-2.995-3.319-4.841-1.022-1.452-2.197-3.902-4.586-3.894-2.357.008-3.379 2.177-4.491 3.894m3.19-8.875c.266 1.405-.49 3.103-1.784 3.753-2.458 1.236-5.478-.887-4.746-4.486.492-2.418 1.123-3.861 2.347-6.021 2.129 1.775 3.609 3.728 4.182 6.754zm14.148 2.25c.139 2.362.021 4.962-1.349 7.02-.701 1.052-2.108 1.697-3.631 1.052-1.73-.733-1.517-3.293-.541-4.492 1.538-1.891 3.406-2.854 5.522-3.58z"/></svg>