<svg xmlns="http://www.w3.org/2000/svg" width="24" height="32"><path fill="currentColor" d="M14.901 3.543c2.867 2.281 2.131 1.57 5.867 4.885s4.371 8.493 1.183 12.398c-2.648 3.243-5.853 5.762-8.528 8.995-.96.032-1.912.023-2.872.014-2.698-3.466-6.178-5.99-9.078-9.667-1.617-2.05-1.783-4.831-1.074-7.346C1.711 8.812 8.542 3.93 8.542 3.93c2.311-1.516 2.567-1.738 3.461-1.772 1.129-.043 2.898 1.385 2.898 1.385m-3.879 13.239c-.038.008-.205-.002-.244 0-2.063.132-4.228.163-6.847 2.154-.051.039-.132.15-.132.15 7.191 7.549 7.261 7.657 7.291 7.711.027-3.283.147-6.731-.068-10.014zm2.332 0c-.039-.002-.206.008-.244 0-.215 3.283-.095 6.732-.068 10.014.03-.054.1-.162 7.291-7.711 0 0-.081-.111-.132-.15-2.619-1.991-4.784-2.022-6.847-2.154zm4.552-8.042c-.544 2.305-1.817 4.73-3.751 6.216 2.442-.027 5.156 1.111 7.305 2.203.643-3.086-.223-6.505-3.482-8.374q-.037-.022-.071-.046zm-11.68-.001q-.035.024-.071.046c-3.259 1.869-4.126 5.288-3.482 8.374 2.149-1.093 4.863-2.231 7.305-2.203-1.934-1.486-3.207-3.912-3.751-6.216zm5.823-4.246c-2.066.037-4.004 2.224-4.004 2.771 0 1.748 1.269 4.984 2.864 6.047.362.241.325.183 1.136.183.897 0 .74.027 1.1-.176 1.76-.992 2.804-4.205 2.804-5.986 0-.616-2.012-2.873-3.9-2.84zm-.052 5.791a1.572 1.572 0 1 0 0-3.144 1.572 1.572 0 0 0 0 3.144"/></svg>