<svg xmlns="http://www.w3.org/2000/svg" width="100%" height="100%" viewBox="0 0 24 24"><path fill="currentColor" d="M20.949 4.302 18.69 8.121l2.526 2.094c.014.012-1.58 2.054-2.382 3.142.705.797 2.115 2.505 2.115 2.505l-1.766 2.156 1.786 2.094-2.279 2.854 2.398 3.255 1.362-1.62 6.566.007-.018-17.898-7.946-.068.575-.945c4.872.024 6.968.035 7.812.05.358.006.518.213.518.495 0 .601.001 1.544.007 1.55s.895.009 1.492.017c.461.006.529.179.529.497.001 2.751.012 16.157.016 18.89 0 .358-.154.501-.471.501-2.561 0-14.267-.014-14.267-.014s-.636-.87-1.072-1.456c-.71.657-1.061 1.381-2.357 1.465-.17.011-10.864.006-13.334.001-.305-.001-.5-.162-.5-.455V8.323c0-.381.187-.518.449-.517l1.593.01s0-1.377.054-2.029c3.698.005 7.458-1.273 11.15-.627.938.101 1.644.731 2.265 1.388l.81-.381.002-.005c1.11-.538 4.626-1.859 4.626-1.859zm-19.75 4.45c-.077.001-.165 0-.245.004-.024.001-.019-.001-.029.004v18.119c0 .038 8.231-.046 12.236-.012.984.008 1.614-.386 2.212-.967-1.545-1.534-2.092-1.861-3.339-2.119-.834-.173-1.741-.172-2.6-.064-2.693.337-4.599 2.109-7.134 1.997l-.148-.009-.046-16.944a55 55 0 0 0-.908-.008zm16.796 16.701c-.256.004-.51.031-.763.062-.071.009-.143 0-.213 0 .554 1.42 1.333 1.351 3.414 1.343.109 0 .038.004.14.008-.706-1.049-1.338-1.404-2.578-1.413m12.974-16.79c-.319-.002-.638.01-.957.003.015 5.445.007 10.889.004 16.334-.008.141.009.326-.107.432-.119.109-.308.102-.457.105-1.709.004-6.742-.019-6.728-.004.018.018-1.049 1.333-1.049 1.333h9.367c-.018 0 .019-12.247.036-18.2zm-.953 16.247v.285-.196l.001-.089zM16.862 6.946a7 7 0 0 0-.825.452c-.009 5.711.001 11.382-.027 17.093-.002.356.897.347.902.014s-.029-11.705-.05-17.558z"/></svg>