<svg xmlns="http://www.w3.org/2000/svg" width="28" height="32" viewBox="0 0 28 32"><path fill="currentColor" d="M9.99 8.024c1.698-2.197 4.324-4.575 6.703-5.995.052 1.706.417 3.932 2.205 4.141 1.711.2 3.343-.754 4.32-1.817-.219 1.392-.996 3.15 0 4.379 1.022 1.262 2.583 1.476 4.203 1.41-1.144.81-2.133 1.922-2.237 3.536-.124 1.914 1.503 3.3 3.19 3.738-1.13.043-2.669.208-3.488 1.088-1.192 1.281-.624 2.997-.119 4.498-1.058-.062-2.268-.188-3.426.506-1.192.715-1.363 2.203-1.668 3.485a42 42 0 0 0-4.506-1.981c3.151-.486 6.025-2.479 7.412-5.367 1.287-2.712.982-6.077-.725-8.532-2.24-3.389-6.836-4.995-10.642-3.544-1.035.395-1.338.606-1.221.454zm-.75 1.784c-2.126 4.838-.424 10.782 3.704 13.99 1.034.276 2.287.194 3.29-.032 3.065-.69 5.424-3.271 6.091-6.369.157-1.73-.033-3.503-.81-5.076-2.293-4.271-8.499-5.682-12.274-2.512zm4.374-7.065C6.095 2.743 0 8.838 0 16.357s6.095 13.614 13.614 13.614c2.355-.119 4.792-.502 6.798-1.852l-1.217.064c-7.223 0-13.853-6.073-13.853-13.197.301-5.879 3.261-10.178 8.793-12.232z"/></svg>