<svg xmlns="http://www.w3.org/2000/svg" width="30" height="32" viewBox="0 0 30 32"><path fill="currentColor" d="M15 1c8.284 0 15 6.716 15 15s-6.716 15-15 15S0 24.284 0 16 6.716 1 15 1M6.83 24.078l-1.323 1.323c2.258 2.407 5.424 3.815 8.718 3.981l-1.195-2.07c-2.424-.307-4.436-1.624-6.2-3.235zm16.186.154c-1.581 1.73-3.7 2.591-5.948 3.03l-1.222 2.117c3.217-.132 6.239-1.57 8.493-3.824zM15 6.098c-5.469 0-9.902 4.433-9.902 9.902S9.531 25.902 15 25.902s9.902-4.433 9.902-9.902S20.469 6.098 15 6.098m10.184 15.319c-1.03 1.699-.488.992-1.539 2.185l1.323 1.323a8.2 8.2 0 0 0 1.946-2.796l-1.731-.712zM3.327 9.412C2.052 11.368 1.694 13.725 1.579 16c.108 3.117 1.025 6.498 3.299 8.772l1.323-1.323c-1.904-1.994-2.608-4.784-2.742-7.448.093-1.444.052-1.639.533-3.335.12-.424.339-.814.509-1.221L3.328 9.413zm23.371.038-1.2 2.078c.707 1.388.903 2.943 1.043 4.472-.081 1.241-.072 1.663-.432 3.081-.133.525-.364 1.02-.546 1.531l1.697.699c.883-1.634 1.069-3.49 1.16-5.31-.095-2.221-.445-4.658-1.723-6.55zM14.555 2.601c-4.127.134-8.105 2.186-10.428 5.626H6.61c2.037-2.365 4.909-3.447 7.945-3.746zm1.817.047-.927-.047v1.88c3.207.147 5.798 1.399 7.969 3.722h2.443C24.27 5.8 21.736 4.028 18.991 3.182c-.851-.263-1.746-.356-2.619-.534m2.904 13.933a8.8 8.8 0 0 0-2.532.879q.386-.465.917-.84l1.047-.737zm-1.42-3.05q.05 1.007-1.163 1.706v-2.222q.852.387 1.163.517zm-3.36.724-.75-.853v-.387q.128 0 .75.103zm-1.577.801q-.259 0-.853-.142c-.594-.142-.697-.133-.904-.117q0-.361 1.085-.646.285.465.672.905m.465 3.205q-1.731-1.653-3.101-1.577a2.8 2.8 0 0 1 1.344-.335q.594 0 1.176.491c.582.491.581.689.581 1.085zm10.648-1.137q0-.75-.672-1.137.362-.827.362-1.292 0-1.654-1.654-2.585.206-.361.207-.491 0-.698-.569-.982a4 4 0 0 0-.569-.155q-.26-1.033-.931-1.706-.776-.75-1.783-.75-.285 0-.905.117c-.62.117-.517.116-.31.116q0-.026-.362-.413-.982-1.034-2.275-1.034-2.48 0-3.23 2.559-.594-.646-1.525-.646-.854 0-1.421.569c-.567.569-.569.853-.569 1.422q0 .723.284 1.007-.594.31-.543 1.137a1.54 1.54 0 0 0-1.047.569 1.75 1.75 0 0 0-.401 1.138q0 .698.646 1.369-.8.62-.8 1.577 0 .62.62 1.37c.62.75.827.75 1.24.75q1.912 0 2.325-1.474 1.55.285 2.223.931.776.723.776 2.197 0 .645-.065.802-.065.155-.465.348c-.4.193-.462.194-.581.194a1 1 0 0 1-.207-.026 1 1 0 0 0-.207-.026q-.465 0-1.344.517-.75.44-.904.594l.723.051q.698-.155 1.034-.155a4.9 4.9 0 0 1 1.499.258q.335 1.008.387 1.086h.13q.698-1.059.956-1.086.129.336.232.672.234.49.569.672 0-.182.284-.672c.284-.49.336-.491.44-.491q.154 0 .749.491c.595.491.74.499 1.034.517q.13-.517.155-.775h.336q.129 0 .529.103c.4.103.478.103.634.103q.878 0 .878-.31l-.723-.362q.904-.206 1.266-.155.078-.258-.44-.414a2.6 2.6 0 0 0-.698-.103h-.31a4 4 0 0 1-.336.026q-.156-.026-.84-.246c-.684-.22-.758-.327-.904-.543q-.22-.323-.22-1.021 0-.44.155-1.37.181-1.137.465-1.447.18-.207 1.396-.543 1.137-.336 1.525-.336l1.215.052q.387.775 1.214.775.517 0 .918-.413c.401-.413.401-.585.401-.931z"/></svg>