<svg xmlns="http://www.w3.org/2000/svg" width="17" height="32"><path fill="currentColor" d="m8.372 21.557 5.114 5.547-.649 2.657H4.426c-.486-2.025-1-4.044-1.514-6.062zm7.091-2.781-6.014 2.359 4.334 4.7c1.133-4.709.573-2.356 1.679-7.059zM.846 15.137c.602 2.501 1.203 5.003 1.821 7.5l13.183-5.171.103-1.675zm14.932-8.36L0 10.161c.177 1.299.351 2.598.595 3.886l15.701.68c.609-2.516.291-1.208.954-3.925-1.011-2.744-.521-1.402-1.472-4.024zM6.681 2.249c-1.339 0-2.678.015-4.018.024C.995 6.785 1.802 4.54.241 9.006l15.223-3.265c-.883-2.285-.436-1.125-1.34-3.478l-2.831-.013q-2.306 0-4.611-.002z"/></svg>