<svg xmlns="http://www.w3.org/2000/svg" width="23" height="32"><path fill="currentColor" d="M12.574 2.593c.531.41.729 1.077.885 1.7 1.133 4.792 1.588 9.673 4.149 13.962.269.45.681.766 1.102 1.062 1.835.975 3.316 2.458 4.416 4.208-2.361 4.271-7.13 5.811-11.567 5.883-3.61-.01-7.23-1.259-9.903-3.864A10.7 10.7 0 0 1 0 23.526c.453-.757 1.041-1.406 1.656-2.018.835-.786 1.751-1.507 2.766-2.048a4.2 4.2 0 0 0 1.16-1.11c2.745-4.173 3.017-9.264 4.15-14.056.156-.623.354-1.29.885-1.7v17.782c-.11.015-.221.026-.33.045a6.5 6.5 0 0 0-2.892 1.146c-.259.198-.506.408-.697.652q.298.36.697.652c1.125.842 2.648 1.245 4.167 1.249 1.867-.023 3.874-.521 4.867-1.901-.621-.797-1.548-1.344-2.526-1.584l.001-.003c-.402-.113-.215-.072-.557-.134-.038-.009-.014-.004-.074-.013-.438-.079-.24-.051-.592-.092-.069-.011-.034-.007-.106-.012V2.593z"/></svg>