<svg xmlns="http://www.w3.org/2000/svg" width="100%" height="100%" viewBox="0 0 24 24"><path fill="currentColor" d="M3.25 12.16c1.247.038 5.279 0 5.946.05 4.069.305 7.016.872 8.404 3.112l.035-.002.001.063c.034.14.038.075.004.195.107.843-.402 1.597-.839 2.269-1.43 2.209-2.861 4.419-4.28 6.634-1.921.395-3.88.181-5.817.048-2.129-1.804-4.52-3.25-6.703-4.985.224-2.204.525-3.482.982-5.65.067-.317.29-1.166.859-1.484.492-.275 1.409-.25 1.409-.25zm-.834 2.134c-.208.025-.309.067-.309.067-.448 1.575-.505 3.142-.692 4.77.576.71 1.502 1.119 2.201 1.701.053-1.74-.023-3.745.367-5.437-.566-.491-.74-.604-1.301-1.101 0 0-.058-.025-.267 0zm6.837-1.011c-4.902.036-2.757-.446-6.303-.315.149.151.319.673.475.809 2.244 1.956 5.126 2.023 7.989 2.038 4.917.026 2.217-.162 5.504.136a3 3 0 0 0-.951-1.132c-1.379-.844-2.911-1.53-4.562-1.514zm.059-5.049.21.184c1.003.982 3.088 1.465 2.8 3.141-1.269-.025-1.903-.236-3.102-.534-.067-.017-.499-.15-.567-.167.036-.102.001-.415.088-.801.17-.749.465-.824.57-1.824zm-.468-1.468c-.301.004-.153-.011-.444.043-1.022.487-1.285 3.377-1.566 4.321 1.441.731 3.037.971 4.671 1.129l1.518.075c.03-.002.702-.046.7-.075-.017-.275-.012-.636-.2-.967-.572-.982-.942-1.669-2.21-2.819-.777-.705-1.318-1.026-2.218-1.593l-.252-.115zm6.239-3.22c.35.017.35.053.525.117.274.1.683.535 1.016.716-.139 2.012.01 3.56.143 5.572-1.254-1.542-2.532-2.806-3.302-4.636.395-.582.433-1.364 1.184-1.693a1.1 1.1 0 0 1 .434-.075zm1.252-2.068c-1.266-.128-1.707-.099-2.212.032-1.758.456-3.33 1.813-5 2.528q-.055 1.198-.085 2.396c.018.018.046.039.066.055 1.326 1.051 2.053 1.426 3.327 2.393 1.976 1.501 2.64 4.295 5.24 4.536-.215-1.665-.02-4.42 0-4.886s.241-.639.247-.667c-.179-2.114-.146-3.615-.974-5.602zm4.026 13.884c2.039.854 4.334.644 6.404 1.301.144 2.391.085 4.881 0 7.271-1.815.005-1.968-.367-3.602-3.202-1.08-1.873-1.9-3.401-2.802-5.37m.2-2.735c.966-.566 1.513-1.353 2.73-1.198 2.562-.101 4.534 1.001 7.01 1.465-.126.066.019.559-.1.634-1.501.934-2.43.961-3.802 1.334-2.017.149-4.167-.339-6.104-.867-.064-.309.031-.796-.033-1.101zm-1.545-.798c-.117 1.436-.502 2.829-.619 4.259 1.27 3.138 3.41 5.838 4.931 8.859 1.222.256 2.466.331 3.709.336 1.494-1.516 3.965-2.583 4.045-5.006.342-2.642 1.528-5.436.519-8.051-1.836-2.236-5.037-1.601-6.938-2.435-1.924-.844-4.233.847-5.648 2.037zm-6.539 14.899c.806.117 1.617.24 2.418.374-.027 1.083-.174 1.753-.238 2.836-.144-.443-.423-1.158-.567-1.601-.683-.347-1.261-.456-1.939-.798.08-.203.245-.608.326-.811m-1.622 1.342c.619 1.676 2.474 2.407 4.203 2.535.939-1.195.463-3.111.634-4.536-1.062-.278-2.257-.588-3.336-.786-.704.576-2.12 1.019-1.634 2.22z"/></svg>