<svg xmlns="http://www.w3.org/2000/svg" width="29" height="32" viewBox="0 0 29 32"><path fill="currentColor" d="M14.465 22.978a8.76 8.76 0 0 1 1.059 4.179c-.024 1.094-.205 2.183-.6 3.204-.301.015-.118.008-.548.014l-.356-.005c-.431-1.025-.579-2.11-.613-3.213.037-1.454.329-2.905 1.059-4.179zm-5.082-4.217c-1.905 2.326-4.708 3.798-7.733 3.927 2.149 3.957 6.018 6.868 10.52 7.515a12 12 0 0 1-.458-3.045c.019-2.017.564-4.042 1.699-5.723-1.038-1.293-2.466-2.16-4.029-2.673zm10.159-.006c-1.58.476-2.961 1.429-4.024 2.679 1.157 1.683 1.648 3.705 1.699 5.723-.026 1.019-.137 2.041-.446 3.016 4.393-.671 8.263-3.597 10.331-7.489-2.954-.179-5.69-1.649-7.56-3.929m-12.868-.447c-2.238.056-4.24.803-5.921 2.296.044.142.001.004.149.408l.267.006c2.383 0 4.624-.972 6.3-2.649-.472-.056-.207-.032-.796-.061zm15.582 0c-.589.02-.322-.002-.803.053 1.682 1.747 3.909 2.596 6.308 2.657l.086-.002c.165-.449.106-.268.19-.54-1.695-1.428-3.566-2.105-5.781-2.168m-4.964-4.993c-.94.311-1.934.395-2.917.42-.919-.019-1.86-.091-2.743-.366-.114 1.398-.6 2.708-1.264 3.931 1.268.436 2.388 1.181 3.395 2.053.245.222.468.468.702.702 1.14-1.178 2.517-2.245 4.098-2.752a9.9 9.9 0 0 1-1.271-3.988M4.177 5.875C1.509 8.543.003 12.231 0 16c.012.934.077 1.87.274 2.785 1.81-1.434 4.12-2.092 6.4-2.171.626.017.701.008 1.459.106.188.024.372.07.559.105.639-.995 1.043-2.144 1.226-3.31.038-.245.05-.494.075-.741a10.56 10.56 0 0 1-5.815-6.9zm20.374-.022c-.624 2.297-1.945 4.361-3.868 5.787-.703.525-.981.644-1.753 1.062.116 1.446.496 2.922 1.318 4.139.656-.165 1.335-.195 2.007-.227 2.248.043 4.434.711 6.241 2.072.181-.883.247-1.787.253-2.686-.048-3.777-1.483-7.481-4.199-10.147zM14.375 1.625c-2.508.032-4.972.641-7.151 1.902C9.287 4.92 10.739 7.15 11.38 9.533c.234.913.222 1.148.317 2.085.859.308 1.771.4 2.677.423a9 9 0 0 0 2.212-.279c.22-.055.434-.135.651-.202.215-3.099 1.714-5.971 4.215-7.841.144-.106.084-.063.177-.13-2.17-1.318-4.73-1.945-7.254-1.965zM5.678 4.558l-.04.03c.52 2.57 1.935 4.965 4.28 6.244-.519-2.563-1.896-4.987-4.24-6.274m17.422.09c-2.284 1.473-3.525 3.422-4.066 6.064 2.284-1.473 3.525-3.422 4.066-6.064"/></svg>