<svg xmlns="http://www.w3.org/2000/svg" width="30" height="32" viewBox="0 0 30 32"><path fill="currentColor" d="m16.487 5.064.214.055c.499.13.285.076.642.165-.472.902-.957 1.797-1.434 2.697-.05.1-.116.194-.152.301-.014.097.001.196.003.294q.087 2.03.173 4.06l2.206-3.626a.23.23 0 0 0 .035-.131c.008-1.136.013-2.272.024-3.408q.435.147.871.296l.179 2.712q1.172-.67 2.346-1.34.351.3.704.6l-2.715 1.844c-.076.054-.162.096-.225.166-.073.113-.12.241-.183.36l-1.703 3.46c1.235-.726 2.469-1.457 3.705-2.183a.3.3 0 0 0 .107-.104l1.741-2.951q.29.332.578.668l-1.249 2.457q1.391-.002 2.782-.01c.123.285.229.578.352.864-1.144.092-2.289.167-3.434.255a.26.26 0 0 0-.127.052q-1.723 1.216-3.453 2.421c1.385-.017 2.769-.08 4.154-.117.079-.004.165 0 .233-.047q1.462-.911 2.926-1.819.091.467.185.934-.986.71-1.974 1.418c-.089.066-.188.122-.264.204.781.412 1.572.803 2.354 1.213-.004.315 0 .63-.002.945-.595-.24-1.177-.511-1.784-.721-1.05-.367-2.166-.648-3.286-.522-1.069.119-2.137.514-2.933 1.256-.623.574-1.032 1.356-1.207 2.181-.261 1.211-.108 2.485.3 3.646.326.912.861 1.762 1.609 2.386.685.579 1.533.945 2.409 1.116.801.16 1.624.168 2.436.097a9 9 0 0 1-.71.721c-.139.045-.294.02-.439.028-.827-.002-1.644-.179-2.425-.441-.194-.06-.383-.143-.587-.161.006.11.035.22.108.306.19.244.444.426.696.602.422.282.863.538 1.33.741-.165.11-.331.221-.501.324a2.4 2.4 0 0 1-.654-.252c-.569-.31-1.046-.754-1.559-1.144-.122-.082-.258-.213-.418-.151.062.205.202.372.325.542.408.538.849 1.048 1.285 1.563q-.284.134-.573.255c-.219-.237-.372-.53-.61-.75-.086-.077-.197-.157-.319-.13-.171.042-.273.21-.312.372-.074.307-.034.626.01.935q-.565.156-1.141.259c-.339-.202-.502-.583-.793-.836-.094-.079-.281-.167-.354-.019-.186.313-.281.671-.389 1.017q-.226.008-.452.013h-.041q-.228-.005-.455-.013c-.099-.326-.195-.657-.354-.96-.038-.058-.078-.149-.161-.137-.153.013-.271.126-.367.236-.207.242-.375.53-.654.7a12 12 0 0 1-1.141-.259c.044-.308.083-.626.01-.933-.038-.155-.129-.313-.288-.367-.121-.044-.24.03-.328.107-.248.222-.403.523-.627.765a15 15 0 0 1-.573-.255c.472-.561.956-1.113 1.389-1.706.08-.122.183-.239.209-.387-.077-.078-.185-.004-.261.039-.333.221-.627.495-.946.736-.426.323-.879.642-1.409.76a10 10 0 0 1-.502-.325 8 8 0 0 0 1.152-.623c.303-.199.611-.406.847-.686a.52.52 0 0 0 .133-.338 1.5 1.5 0 0 0-.364.086c-.972.341-2.001.573-3.036.504-.048-.002-.08-.041-.115-.069q-.336-.322-.646-.669c1.151.103 2.341.038 3.428-.382a4.95 4.95 0 0 0 2.192-1.649c.721-.96 1.104-2.142 1.229-3.328.103-1.05-.027-2.154-.541-3.089-.415-.761-1.095-1.361-1.876-1.727a5.63 5.63 0 0 0-3.315-.458c-.736.117-1.45.342-2.145.606-.483.181-.95.399-1.429.59-.002-.315.002-.631-.002-.946.788-.409 1.58-.81 2.369-1.216l-2.253-1.618.185-.935q1.465.909 2.929 1.821c.068.046.152.041.23.045 1.385.038 2.77.1 4.155.118-1.162-.804-2.316-1.62-3.472-2.432-.086-.06-.197-.045-.297-.057q-1.623-.116-3.245-.236c.113-.289.231-.575.343-.864.929-.002 1.858.007 2.787.007L6.643 9.001l.577-.67 1.744 2.958c.049.083.142.12.221.168 1.197.702 2.39 1.411 3.587 2.112-.614-1.254-1.234-2.505-1.849-3.759a.27.27 0 0 0-.098-.114q-1.44-.975-2.878-1.954c.236-.196.462-.405.704-.593.084.032.159.085.238.128l2.107 1.204.179-2.712.872-.296q.013 1.629.021 3.258c.005.094-.016.198.037.282q1.103 1.812 2.205 3.624.092-2.134.182-4.267c.011-.116-.067-.211-.115-.309l-1.479-2.772q.429-.113.858-.222.68 1.117 1.362 2.233l1.362-2.233zm-.079 23.423c.099.252.223.493.35.733.147.265.295.534.499.76.062.058.141.147.235.11.041-.069.041-.152.045-.229a2.8 2.8 0 0 0-.047-.544c-.033-.183-.177-.315-.308-.434-.223-.185-.474-.378-.774-.395zm-2.571-.004c-.282.027-.523.196-.736.371-.132.117-.275.242-.33.415a2.6 2.6 0 0 0-.059.562c.003.087 0 .182.045.261.156.031.256-.141.346-.244.213-.288.381-.606.541-.925.068-.144.145-.285.191-.439zm1.291-.668c-.054.027-.08.086-.112.135a4.5 4.5 0 0 0-.313.71c-.023.075-.058.155-.038.235.042.17.116.33.185.49.081.176.158.355.276.511.103-.137.175-.294.248-.449.083-.198.188-.394.219-.608-.045-.242-.155-.467-.255-.69-.062-.116-.108-.247-.21-.334m1.797-.203c.014.1.011.211.062.3.35.212.709.41 1.055.628.027-.164-.089-.298-.194-.408a2.3 2.3 0 0 0-.674-.471.56.56 0 0 0-.248-.049zm-3.601 0c-.169-.009-.32.078-.461.16-.201.124-.391.27-.543.451-.071.087-.141.198-.105.316.343-.223.704-.417 1.052-.629.042-.093.046-.198.057-.298M4.368 10.729q-1.791.387-3.584.768c.806.924 1.624 1.837 2.434 2.757-1.071.635-2.148 1.26-3.215 1.9 1.046.609 2.09 1.223 3.135 1.833-.276-2.415.132-4.913 1.209-7.095.021-.048.11-.134.022-.163zm21.51-.003-.048.043c.079.103.122.226.18.342a12.87 12.87 0 0 1 1.103 6.876q1.566-.918 3.135-1.833c-1.068-.641-2.144-1.265-3.215-1.9q1.219-1.377 2.436-2.756c-1.197-.258-2.395-.508-3.59-.773zm-1.854-6.798L20.61 5.392a12.3 12.3 0 0 1 4.706 4.43c.171.286.348.57.483.875l.056.029q.022-.068.051-.134l1.495-3.323-3.777.337.399-3.679zm-17.799 0 .399 3.679-3.777-.337 1.506 3.348c.018.031.035.083.079.083.024-.027.038-.062.056-.093a12.33 12.33 0 0 1 5.151-5.216zm13.621-2.18c-.558.471-1.111.947-1.667 1.419-.391.339-.794.666-1.177 1.013 1.243.205 2.453.606 3.569 1.192q-.361-1.812-.725-3.624m-9.441.002c-.246 1.207-.484 2.415-.726 3.622a11.8 11.8 0 0 1 3.57-1.192c-.116-.114-.245-.213-.367-.32-.826-.703-1.649-1.41-2.477-2.111zm4.72-.75c-.611 1.056-1.215 2.115-1.823 3.173a11.9 11.9 0 0 1 3.645 0Q16.037 2.586 15.125 1"/></svg>