<svg xmlns="http://www.w3.org/2000/svg" width="25" height="32"><path fill="currentColor" d="m13.725 21.472 1.854 6.815-3.27 2.142-2.952-1.922 1.314-7.035zM8.662 3.509 0 8.156v14.259l8.023 5.224 1.152-6.166H6.371l.314-1.885c1.432-.333 3.452.029 4.291-1.447.078-.804.26-1.932-.701-2.27-2.8-1.407-6.722-1.454-8.522-4.411h7.648v-.283zm7.4.207-.638 6.947h7.442c-2.328 1.475-6.258 2.973-6.248 5.647.008 2.179 2.328 3.436 3.49 5.162-.131.002-.038.001-.333.001l-2.267-.001h-2.259l1.623 5.968 7.66-5.017V8.515l-8.471-4.798zm-3.788-2.145-2.207 1.184.761 7.909h3.119l.711-7.743z"/></svg>