<svg xmlns="http://www.w3.org/2000/svg" width="25" height="32"><path fill="currentColor" d="M1.224 1.087c.383.233.621.825.786 1.215.172.404.351.85.367 1.296-.011.438-.251.888-.669 1.065v.124h5.994l1.649 4.026-.437.776H1.707v20.81a.52.52 0 0 1-1.04 0V4.663C.241 4.482.02 4.039-.002 3.598c.066-.723.355-1.444.725-2.065.095-.159.252-.424.463-.451l.035.005zM9.06 6.412l1.164 2.547L9.06 11.19h11.06l-4.851-1.601 6.403-.922-6.5-.873 3.105-1.382H9.061zm-4.544 5.999c-.423 0-1.188 1.86-1.188 2.516.022.44.243.884.669 1.065v14.407a.52.52 0 0 0 1.039 0v-9.481h7.207l.437-.776-1.649-4.026H5.037v-.124c.418-.177.658-.627.669-1.065 0-.656-.828-2.516-1.188-2.516zm7.872 5.329 1.164 2.547-1.164 2.231h11.06l-4.851-1.601L25 19.995l-6.5-.873 3.105-1.383h-9.216z"/></svg>