<svg xmlns="http://www.w3.org/2000/svg" width="28" height="32" viewBox="0 0 28 32"><path fill="currentColor" d="M24.819 1.054c.393 0 1.711-.01 2.105-.016.367.492.756.983 1.076 1.522-.285.569-.668 1.076-1.025 1.594-.404.005-1.748.01-2.151.016-.01-1.04-.01-2.075-.005-3.115zM3.716 16.223c2.308-3.638 6.277-6.717 10.785-6.391 4.104.166 7.442 3.074 9.662 6.309-1.858 3.193-4.958 5.651-8.627 6.345a151 151 0 0 1-.052 3.426c-.999-.021-1.998-.047-2.986-.083-.036-1.118-.047-2.236-.062-3.348-3.711-.605-6.759-3.146-8.72-6.257zM1.527 5.215c.569 5.584 1.242 11.199.668 16.814.621.274 1.258.549 1.889.828-.662.228-1.314.461-1.967.693.756.88 1.563 1.744 2.613 2.272q4.851 2.595 9.678 5.242c3.276-1.951 6.707-3.648 9.921-5.708 1.713-.994 1.408-3.146 1.366-4.818-.88-.057-1.749-.109-2.619-.166a99 99 0 0 1 2.536-.507c-.217-2.51-.031-5.025.047-7.54a38 38 0 0 0-1.625-.869c.574-.145 1.159-.29 1.744-.43.254-1.91.587-3.9.696-5.82-1.19.16-2.167.348-3.666.396-6.542.209-11.8.317-17.834.043-.917-.042-2.406-.25-3.447-.431zm4.166-4.174v3.126h16.545V1.041zm-2.512.013c.005 1.04.005 2.075-.005 3.115-.404-.005-1.748-.01-2.151-.016C.668 3.635.285 3.128 0 2.559c.321-.538.709-1.03 1.076-1.522.393.005 1.711.016 2.105.016zm10.653 10.421c-.295 1.424-.661 2.967.284 4.223 1.035 1.062 2.31-.08 2.989-.935.605 1.604.887 3.6-.542 4.874-1.869 1.981-5.559.988-6.186-1.662-.519-2.679 1.315-5.106 3.454-6.501zm.166-.256a5.286 5.286 0 1 0 0 10.573 5.286 5.286 0 0 0 0-10.573"/></svg>