<svg xmlns="http://www.w3.org/2000/svg" width="26" height="32"><path fill="currentColor" d="M16.806 17.537s2.224.698 3.549 1.142c-.544.672-1.376 1.94-1.389 1.953s-2.737-.014-2.737-.014l.619-.592zm-6.493-8.77c-.196.026-.223.031-.537.159.464.764 1.084.995 1.907.708l.032-.01c-.413-.39-.783-.94-1.402-.856zm-.676-.705c1.915-.212 2.125.898 3.472 2.121l-.078.026c-2.038.711-3.573.14-4.723-1.753-.013-.021.686-.323 1.329-.394m-6.314-6.73-.483.026c-.439 1.618-.809 3.259-1.362 4.844.019-.017.037-.017.06-.031.493-.308 1.145-.691 1.542-1.071.731 2.066 1.62 4.303 1.15 6.57-1.138-1.143-2.917-2.453-2.656-4.313-.475.224-1.051.45-1.526.67-.087 1.143-.169 2.486.832 3.286 1.632 1.325 3.295 2.678 4.301 4.575q-.193.706-.393 1.412c.315.462.89.978 1.219 1.43-.407.763-1.482 2.246-1.482 2.246l2.895-.07s-2.12 2.005-2.787 3.216c.052.048.152.074.22.108.834.418 1.636.862 1.595 1.747-.128 1.705-1.439 3.253-2.266 4.693 0 0 2.107-.878 3.763-2.078 1.152-.834 2.496-.604 3.799-.943-.462-.43-1.11-.927-1.572-1.361 1.718-.032 3.637-.021 5.085-1.095-.59-.069-1.877-.207-2.467-.276 1.91-1.106 4.353-1.38 5.98-2.952-1.636-.018-3.38-.074-5.016-.165.704-.535 2.045-1.663 2.045-1.663s-2.498-1.799-2.513-1.794-1.618 2.515-1.618 2.515l-2.456-3.28s-1.672 2.033-1.721 1.985-.63-1.872-.657-2.85c.265.516.777 1.563.777 1.563l1.616-2.11 2.397 3.206 1.353-2.529 3 2.471.031-3.041s4.264 1.486 4.347 1.458c1.981-.674 3.225-.88 5.245-.821-1.069-.873-2.189-1.741-3.537-2.134-1.38-.494-2.863-.376-4.184-1.034-1.81-1.549-2.849-3.971-4.718-5.461-1.641-1.028-3.904-1.064-5.284-2.54-1.252-1.307-2.852-2.564-3.396-4.383-.551-.045-.166-.02-1.158-.026"/></svg>