<svg xmlns="http://www.w3.org/2000/svg" width="100%" height="100%" viewBox="0 0 24 24"><path fill="currentColor" d="M12.771 4.963h.003a7 7 0 0 1 1.567 1.176c.312.317.593.674.775 1.082.159.355.236.757.158 1.143-.067.34-.246.644-.449.92-.383.513-.847.966-1.166 1.526-.23.396-.372.848-.383 1.307-.018.318.1.621.234.903q.125.255.268.502.847-.052 1.696-.059c.065.001.131-.007.195.006.053.03.075.093.095.148.046.149.059.306.072.461.027.398.02.796.009 1.194-.02.643-.061 1.285-.103 1.926-.02.337-.051.674-.058 1.012.064 1.39.123 2.781.165 4.172.004.405.004.815-.09 1.212-.081.345-.263.654-.451.95a.9.9 0 0 1-.288-.01c.103-.156.184-.351.127-.539-.029-.109-.127-.202-.245-.191a.58.58 0 0 1-.072.364 1.3 1.3 0 0 1-.28.394c-.06-.129-.085-.269-.127-.404-.108-.369-.248-.74-.5-1.037a1.17 1.17 0 0 0-.608-.39c-.096.213-.189.427-.309.628.092.205.154.429.133.655-.021.276-.141.535-.293.763-.049-.161-.111-.34-.263-.432-.128-.075-.287-.035-.408.035-.238.136-.42.349-.582.565a2.6 2.6 0 0 0-.371.686c-.05.147-.012.307.051.444.11.234.287.43.482.597.178.148.374.283.599.35a4.9 4.9 0 0 1-2.297-.396c-.387-.173-.776-.374-1.075-.682a6.7 6.7 0 0 1-1.434.257c-.415.022-.85.023-1.236-.148.584-.229 1.095-.614 1.528-1.063a8 8 0 0 0 1.22-1.695 7.6 7.6 0 0 0 .492-1.076c.04-.112.065-.241.014-.354-.047-.108-.157-.174-.268-.201a.9.9 0 0 0-.607.09c-.105-.455-.238-.907-.452-1.323a2.6 2.6 0 0 0-.633-.824 1.64 1.64 0 0 0-1.006-.381c-.439-.006-.884.036-1.302.175a3.2 3.2 0 0 0-.768.381c-.305.196-.602.416-.949.532-.455.161-.948.137-1.421.094-.754-.078-1.517-.305-2.117-.784a4 4 0 0 0 1.219-.171 2.5 2.5 0 0 0 .932-.552c.316-.295.558-.657.792-1.018.352-.552.704-1.108 1.156-1.584a6.2 6.2 0 0 1 1.802-1.316 4.2 4.2 0 0 1-.235-1 12 12 0 0 1-.085-1.623c.008-.428.03-.857.106-1.278a.3.3 0 0 0-.208.068c-.18.133-.316.315-.438.5a.6.6 0 0 0-.27.05c-.282.125-.498.368-.633.642.081-.499.21-.993.414-1.456a4.3 4.3 0 0 1 1.214-1.613c.507-.425 1.101-.722 1.673-1.046.299-.175.602-.361.821-.636a1.3 1.3 0 0 0 .233-.466c-.017.614-.106 1.241-.386 1.795-.125.259-.28.507-.363.784-.098.319-.103.658-.066.987.067.566.277 1.107.558 1.6.202.352.443.683.717.982.229.247.479.478.766.657.315-.041.63-.074.946-.11a17 17 0 0 1-.301-1.167c-.086-.384-.169-.77-.234-1.158-.073-.37.016-.758.198-1.084.206-.368.522-.658.848-.918.515-.411 1.084-.762 1.537-1.246.273-.29.493-.639.586-1.03a2.03 2.03 0 0 0-.025-1.071c-.119-.421-.351-.796-.543-1.185zm-2.684 12.304c.08.166.184.32.248.493a.7.7 0 0 1 .015.452c.36.208.604.558.81.91.106.17.189.362.346.494.21.183.466.305.728.398.155.051.314.099.478.101.139-.002.245-.11.312-.222.106-.163.149-.367.3-.499.072-.068.168-.097.254-.142.043-.02.043-.073.057-.112.04-.164.106-.32.155-.482-.417-.284-.841-.562-1.296-.781-.746-.369-1.569-.618-2.407-.608zm8.974.843c.865-.495 1.84-.854 2.848-.843-.093.195-.225.375-.276.588a.7.7 0 0 0 .013.357c-.292.167-.51.433-.69.712-.111.171-.205.352-.316.522-.15.215-.385.352-.617.462a2.2 2.2 0 0 1-.709.205c-.143.012-.261-.091-.331-.205-.115-.168-.157-.386-.317-.522-.073-.068-.172-.094-.256-.142-.032-.017-.033-.057-.043-.087-.041-.171-.109-.333-.16-.501.282-.187.559-.381.855-.546zm.159-13.147a7.2 7.2 0 0 0-1.581 1.193c-.311.319-.589.677-.768 1.087-.151.348-.223.74-.149 1.115.067.343.247.651.453.929.387.517.856.974 1.174 1.541.228.398.364.85.372 1.309.012.28-.084.549-.197.801-.091.2-.197.393-.306.584a31 31 0 0 0-1.843-.06c-.102-.004-.131.118-.155.196-.079.348-.074.708-.078 1.063.006 1.098.1 2.193.165 3.289.017.22-.007.441-.015.661a242 242 0 0 0-.144 3.712c-.004.402-.003.81.088 1.204.08.348.264.66.455.957a1 1 0 0 0 .287-.011c-.103-.155-.184-.349-.128-.537.029-.111.127-.204.247-.195-.032.145.029.287.095.414.068.127.148.25.257.346.071-.162.101-.338.157-.505.083-.268.188-.532.342-.767.17-.263.425-.485.735-.557.095.213.189.427.308.628-.099.218-.16.46-.129.701.03.261.146.502.288.719.047-.155.105-.323.243-.42.111-.078.26-.061.376-.005.206.098.368.265.513.437.201.246.379.517.485.818.069.179.01.375-.077.536a2 2 0 0 1-.542.605 1.6 1.6 0 0 1-.501.274c.845.068 1.701-.113 2.465-.473.325-.159.65-.34.903-.604a6.6 6.6 0 0 0 1.553.263c.376.012.768.002 1.117-.155-.69-.27-1.274-.756-1.756-1.311a8.6 8.6 0 0 1-1.337-2.15c-.069-.17-.15-.338-.185-.519a.34.34 0 0 1 .182-.369c.228-.108.499-.059.717.05.101-.436.227-.87.426-1.272.15-.302.34-.59.592-.817.217-.199.485-.344.774-.404.217-.049.441-.039.661-.029.445.024.892.114 1.294.312.364.173.677.432 1.031.623.348.19.746.276 1.141.271.79-.003 1.599-.142 2.297-.527q.228-.128.434-.288c-.44-.001-.886-.048-1.302-.198a2.5 2.5 0 0 1-.802-.479c-.311-.276-.551-.618-.777-.964-.35-.541-.688-1.095-1.121-1.575a6.2 6.2 0 0 0-1.902-1.426c.148-.373.209-.772.256-1.168.056-.511.072-1.026.063-1.539a8 8 0 0 0-.105-1.194c.135-.012.24.087.332.172.121.118.223.254.314.396.157-.013.305.054.432.139.204.136.362.333.47.551-.134-.845-.422-1.684-.949-2.367-.422-.557-.992-.98-1.594-1.322-.28-.162-.568-.311-.846-.476-.279-.167-.559-.351-.756-.615a1.3 1.3 0 0 1-.208-.434c.015.469.065.944.218 1.39.099.303.261.579.401.864.151.3.223.635.217.97-.006.733-.274 1.44-.649 2.061-.321.522-.719 1.005-1.207 1.378a3 3 0 0 1-.211.143c-.313-.043-.628-.075-.942-.11.223-.754.39-1.525.531-2.299a1.6 1.6 0 0 0-.117-.958c-.146-.331-.39-.606-.657-.846-.505-.45-1.091-.799-1.59-1.257a2.9 2.9 0 0 1-.636-.8 2.06 2.06 0 0 1-.219-1.107c.037-.401.199-.776.382-1.129.08-.154.167-.305.239-.464h-.004z"/></svg>