<svg xmlns="http://www.w3.org/2000/svg" width="29" height="32" viewBox="0 0 29 32"><path fill="currentColor" d="M18.088 0h.003c-.125.347-.245.698-.305 1.063-.123.692-.089 1.405.036 2.095a4.8 4.8 0 0 0-1.955-.852c.115-.206.227-.414.355-.613.453-.722 1.118-1.295 1.867-1.694zm-7.051.015c.069.216.153.427.21.647.223.817.209 1.683.056 2.511a4.8 4.8 0 0 1 1.956-.852c-.126-.223-.246-.449-.388-.663-.45-.7-1.103-1.255-1.835-1.643zM4.049 1.137A24 24 0 0 0 2.193 3.68 18.4 18.4 0 0 0 .88 6.123C.45 7.109.117 8.148.007 9.222c.132-.251.258-.506.394-.755.51-.931 1.125-1.826 1.942-2.515.641-.544 1.436-.935 2.283-.994.852-.074 1.702.225 2.39.716.671.481 1.234 1.143 1.509 1.929.346-1.254.901-2.471 1.748-3.468a3.4 3.4 0 0 1-1.867-.054c-.862-.268-1.606-.826-2.217-1.48A8.2 8.2 0 0 1 4.732.391c-.247.23-.464.489-.683.744zm18.703 1.642c-.609.606-1.346 1.111-2.185 1.333a3.4 3.4 0 0 1-1.714.011c.846.998 1.402 2.213 1.747 3.468.288-.819.886-1.505 1.597-1.99a3.9 3.9 0 0 1 1.502-.62 3.5 3.5 0 0 1 1.879.219c.853.345 1.553.981 2.122 1.691.572.707 1.008 1.509 1.418 2.317V9.16a10.4 10.4 0 0 0-.675-2.575 17.6 17.6 0 0 0-1.407-2.753 24 24 0 0 0-1.944-2.69c-.225-.262-.447-.527-.699-.764a8.2 8.2 0 0 1-1.641 2.401m-8.526 6.678c.558-.06 1.122.044 1.648.227a5.4 5.4 0 0 1 1.482.796c.293.228.57.488.759.811.113.193.18.429.112.649-.1.342-.343.619-.596.861a5 5 0 0 1-1.364.879 4.4 4.4 0 0 1-1.679.396c-.51.005-1.014-.118-1.486-.305a5.6 5.6 0 0 1-1.449-.849c-.318-.267-.636-.566-.798-.956-.088-.197-.034-.422.074-.599.228-.381.571-.678.925-.939.7-.498 1.51-.872 2.37-.972zM14.02 4.07c-.82.124-1.57.552-2.163 1.122-.752.722-1.279 1.653-1.616 2.633-.517 1.517-.602 3.172-.289 4.742.229 1.122.674 2.213 1.382 3.12.531.677 1.224 1.25 2.042 1.539a3.5 3.5 0 0 0 2.176.054c.825-.247 1.537-.787 2.085-1.442.666-.796 1.116-1.756 1.383-2.754.335-1.26.39-2.592.179-3.878-.189-1.133-.593-2.242-1.255-3.185-.487-.692-1.127-1.295-1.9-1.654a3.53 3.53 0 0 0-2.026-.296zm6.987 5.89c.049.665.068 1.335-.017 1.997a1.2 1.2 0 0 1 .586-.086c.376.028.737.162 1.068.337.496.267.927.644 1.285 1.077.498.6.857 1.307 1.103 2.045.302.913.438 1.875.465 2.835.026.932-.049 1.865-.186 2.787.242-.58.417-1.186.587-1.79.25-.91.463-1.831.649-2.756a31 31 0 0 0 .422-2.663c.058-.572.104-1.149.065-1.724a10 10 0 0 1-2.268-.537c-.965-.346-1.897-.8-2.731-1.4-.429-.315-.839-.67-1.141-1.112q.076.493.115.99zM7.762 9.539c-.647.619-1.425 1.083-2.227 1.472-1.086.512-2.245.89-3.442 1.023-.028.396-.012.793.016 1.188.056.743.163 1.481.287 2.215q.33 1.907.841 3.773c.167.593.341 1.187.577 1.757-.224-1.523-.288-3.087.013-4.604.222-1.113.654-2.207 1.388-3.084.489-.581 1.115-1.072 1.847-1.299.345-.101.733-.154 1.073-.007a8 8 0 0 1-.059-1.052 14 14 0 0 1 .156-1.935q-.207.3-.471.554zm6.545 1.016a1.1 1.1 0 0 0-.763.631 1.098 1.098 0 1 0 2.06.139 1.094 1.094 0 0 0-1.296-.77zm-5.769 3.466a3.9 3.9 0 0 1-.44 1.53c-.263.499-.649.924-1.081 1.282-.359.307-.771.55-1.112.879.105.547.286 1.076.458 1.606.602 1.78 1.297 3.527 2.021 5.26.713 1.685 1.455 3.359 2.296 4.985.317.603.643 1.204 1.026 1.769.167.239.339.48.565.669a30 30 0 0 1-1.216-3.098 35 35 0 0 1-1.518-6.805c-.082-.764-.166-1.529-.235-2.294-.043-.534-.085-1.072-.034-1.607.03-.257.077-.531.245-.738a.6.6 0 0 1 .498-.203c-.692-.971-1.153-2.09-1.472-3.234zm12.05-.015c-.319 1.145-.782 2.261-1.471 3.235.18-.006.369.05.488.192.179.213.226.5.256.768.049.552.003 1.106-.043 1.657-.055.622-.126 1.243-.19 1.864a33 33 0 0 1-.519 3.298c-.505 2.391-1.231 4.743-2.254 6.965.191-.156.34-.355.484-.553.322-.456.598-.941.865-1.431.49-.906.936-1.835 1.367-2.771a96 96 0 0 0 1.641-3.807c.582-1.44 1.144-2.889 1.63-4.363.143-.448.287-.897.379-1.359-.374-.365-.835-.625-1.221-.976a4.2 4.2 0 0 1-.959-1.164 3.9 3.9 0 0 1-.452-1.556z"/></svg>