<svg xmlns="http://www.w3.org/2000/svg" width="23" height="32"><path fill="currentColor" d="M13.408 8.87c1.767-3.284 4.35-6.04 7.454-8.09-2.704 3.79-4.765 7.589-7.213 11.668-.695 1.158-.724 2.447-1.757 3.577-.687.751-.599 2.312-1.192 3.138-1.443 2.008-3.924 3.704-4.104 6.493-1.388 1.427-1.92 3.234-2.358 5.237-.289 1.323-.691-1.613-.173-4.068.487-2.306 2.211-4.272 2.494-6.596.347-2.849 2.34-5.128 3.977-7.474.925-1.325 1.915-2.609 2.873-3.885zM7.509 7.74c-1.851 2.692-4.604 4.726-5.334 7.999-.511 2.293-3.03 4.8-1.876 7.287.361.779 1.539-3.381 2.432-4.994.422-.763 1.367-1.205 1.803-1.978 2.715-4.813 4.98-9.189 8.392-13.161-1.998 1.285-4.068 2.855-5.417 4.847m12.918 4.958c-3.072 2.468-5.965 4.571-8.015 8.021-1.639 2.853-3.493 5.475-4.849 8.483.145-.127.276-.277.437-.4 2.513-1.922 4.232-5.042 4.583-5.68.377-.683 1.761-1.522 1.883-1.639 1.548-1.492 1.917-2.186 3.126-3.926 1.632-2.371 4.068-4.016 5.783-6.317-.9.264-2.228.821-2.948 1.457z"/></svg>