<svg xmlns="http://www.w3.org/2000/svg" width="26" height="32"><path fill="currentColor" d="M12.144 1.116c-.353 1.78-.734 3.569-.539 5.395-2.756 1.929-5.298 4.996-4.717 8.593.548 2.681 1.789 6.278 5.061 6.367q.02 1.214.06 2.435c.437.284.869.567 1.306.85l.502 1.436c-.056-2.347-.665-4.666-1.854-6.692.195-.046.59-.135.785-.177-.288-.711-.391-1.12-.787-1.781-.17-.283-.699-.954-.699-.954s.515-.645.651-.991c.584-1.486.959-3.105 1.02-4.681.139-3.067.651-5.701.807-8.859 0 0 .057-.984.184-.984s.242.701.269.864c.382 2.309.757 4.007 1.157 6.107a84 84 0 0 0 2.3 8.825c-.404 1.515-1.51 2.821-1.534 4.443 0 1.032.181 2.054.26 3.081a144 144 0 0 0 1.482-4.354c.084.762.186 1.52.297 2.272 1.357-1.915 1.942-4.22 2.523-6.455.655-3.044-.809-6.357-3.067-8.416-1.961-1.496-1.264-4.252-2.04-6.325l.546.297c1.227 1.51 1.048 3.272 2.256 4.791.957 1.273 2.101 2.449 2.649 3.983.73 1.413.725 3.141 1.757 4.392-1.25 3.369-2.812 6.641-3.555 10.177 3.155-2.119 4.749-5.855 6.013-9.304.195-.051.59-.153.785-.209-.045.626.108 2.018.108 2.018s-.341.296-.425.425a28 28 0 0 0-2.606 6.154c-2.928 1.687-5.791 4.055-7.376 7.085l-.048-.068c-1.757-2.946-5.387-3.706-8.589-3.534-1.482-1.947-3.297-3.593-5.212-5.117C.629 19.747-.392 16.808.142 13.987c.957 2.654 1.399 5.549 3.165 7.84.465.019.935.228 1.4.246-.483-1.273-.963-2.751-1.047-4.122.943 1.315 1.566 2.821 2.514 4.131.381.573.666 1.117 1.233 1.466.148.091.696.058.85.142.638.346 1.055.722 1.671 1.076.274-.437.638-.969.907-1.41-1.571-1.733-3.732-3.021-4.731-5.205-1.994-3.69-.437-8.528 2.593-11.158 1.775-1.515 1.706-3.657 2.831-5.581zm2.198 10.819a8.5 8.5 0 0 0 .178 3.231c.191 1.097.427 2.085.561 3.191.102-1.227.435-2.414.118-3.645-.255-.991-.555-1.89-.857-2.778z"/></svg>