<svg xmlns="http://www.w3.org/2000/svg" width="28" height="32" viewBox="0 0 28 32"><path fill="currentColor" d="M5.775 1.229c4.255-1.7 9.222-1.628 13.344.43 4.034 1.915 7.174 5.596 8.416 9.884 1.391 5.099.337 10.943-3.289 14.9-4.409 5.226-12.306 6.981-18.548 4.249 3.51.138 7.18-.193 10.171-2.23 5.292-3.273 8.057-10 6.512-16.048q.597-.705 1.203-1.402c-.011-1.6-.055-3.195-.215-4.785-1.6-.298-3.228-.342-4.851-.37-.248.199-.739.585-.982.784-2.665-1.291-5.756-1.926-8.653-1.06-4.029 1.087-7.494 4.542-8.052 8.758-.243 1.462-.143 2.953-.226 4.426-.789-2.77-.922-5.778.315-8.449C2.598 6.067 6.969 3.07 11.513 2.984c2.718-.052 4.023.553 4.41.608l.058.008C13.023 1.47 9.287 1.26 5.777 1.227zm5.756 15.143c-1.164-1.004-2.45-2.263-4.117-1.595.745.949 1.518 1.876 2.296 2.798l-1.738 2.003c-.662.16-1.319.315-1.981.469.039 1.159.061 2.323.066 3.482 1.148-.017 2.296.061 3.444-.028.193-.624.359-1.258.497-1.893.662-.579 1.324-1.153 1.998-1.722.944.728 1.882 1.457 2.825 2.191.083-.442.243-1.335.326-1.777a196 196 0 0 0-1.915-2.18c3.493-1.871 5.828-5.232 8.791-7.781.044-.955.072-1.915.105-2.864l-2.859.099c-2.511 2.986-5.916 5.287-7.737 8.797z"/></svg>