<svg xmlns="http://www.w3.org/2000/svg" width="28" height="32" viewBox="0 0 28 32"><path fill="currentColor" d="m17.657 27.934.687 1.08c-1.48.534-3.035.709-4.595.729-1.433.002-2.835-.281-4.193-.721l.714-1.062c1.124.391 2.315.507 3.494.552 1.326.039 2.627-.201 3.893-.577zM4.927 5.465C1.795 8.011.033 11.943 0 15.953c.099 3.854 1.379 7.075 4.306 9.923.121.118.608.234.941.085s.448-.471.448-.471l-.601-.568c-2.402-2.394-3.852-5.542-3.843-8.969.092-3.574 1.528-7.136 4.35-9.439l-.673-1.049zm8.828-3.307c-1.847.046-3.7.317-5.399 1.081l.676 1.055c1.492-.621 3.112-.891 4.722-.903 1.77.044 3.533.327 5.149 1.081l.676-1.055c-1.886-.786-3.761-1.289-5.826-1.259zm8.637 21.648c3.847-4.336 3.675-11.411-.5-15.467-1.587 2.443-3.127 4.878-4.746 7.299.683 1.071 1.436 2.052 2.146 3.107.274.054.951.069 1.225.128-.254 1.844.496 3.018 1.826 4.854q.026.039.05.079zm-9.881.31c.457.823.977 1.341 1.418 2.175.549-.796 1.444-2.161 1.444-2.161s.049 3.434.049 3.173c0 .422-2.927.471-2.937 0a67 67 0 0 1 .025-3.186zm-2.383-4.568c.543-.818 1.153-1.579 1.702-2.391q.017.027.037.053c.827.982 1.803 2.989 1.803 2.989s-.053.818-.083 1.242c-.436.102-1.204.305-1.646.407.038.393.162 1.253.199 1.646-3.425 5.45-3.298 4.98-3.442 5.341-.24.6.105 1.099.551 1.768-.034 0-2.946 1.26-4.503.468-1.624-.827-1.945-2.88-2.139-4.537.829.258 2.385.829 3.146.108.283-.268 3.408-5.299 3.439-5.329s1.331-.518 1.331-.518-.336-.961-.395-1.246zm-4.529 4.258c-3.847-4.336-3.675-11.411.5-15.467 1.587 2.443 3.127 4.878 4.746 7.299-.683 1.071-1.436 2.052-2.146 3.107-.274.054-.951.069-1.225.128.254 1.844-.496 3.018-1.826 4.854q-.026.039-.05.079zm4.638-19.211.046-.017c2.217-.8 2.342 1.491 3.672 1.469 1.567-.026 1.53-2.426 3.782-1.49l.054.027c-.51.71-1.045 1.58-1.476 2.335-.159.278-.776.485-.761.508s.136.641.016.86c-.507.931-1.031 1.714-1.599 2.61-.565-.932-1.061-1.745-1.58-2.702-.114-.21.034-.768.034-.768s-.578-.224-.679-.405a28 28 0 0 0-1.509-2.427m10.232-.711c1.108-1.743 3.034-2.679 4.686-3.814-3.061 4.697-6.09 9.42-9.194 14.095-.344-.597-.694-1.194-1.033-1.786 1.861-2.819 3.685-5.67 5.541-8.495M2.823 0c4.143 6.451 8.355 12.863 12.535 19.298q-.496.471-1.029.901s.053.818.083 1.242c.436.102 1.204.305 1.645.407-.038.393-.162 1.253-.199 1.646 3.425 5.45 3.298 4.98 3.442 5.341.24.6-.105 1.099-.551 1.768.034 0 2.946 1.26 4.503.468 1.624-.827 1.945-2.88 2.139-4.537-.828.258-2.385.829-3.146.108-.283-.268-3.408-5.299-3.439-5.329s-1.331-.518-1.331-.518c.061-.174.135-.346.395-1.246-.541-.782-.274-.406-10.024-15.233C6.7 2.347 4.623 1.266 2.821.001zm20.25 5.438c3.132 2.546 4.894 6.478 4.927 10.488-.099 3.853-1.379 7.075-4.306 9.923-.121.118-.608.234-.941.085s-.441-.517-.441-.517c.02-.019.575-.503.594-.523 2.402-2.394 3.852-5.542 3.843-8.969-.092-3.574-1.528-7.136-4.35-9.439l.673-1.049z"/></svg>