<svg xmlns="http://www.w3.org/2000/svg" width="26" height="32"><path fill="currentColor" d="M20.149 20.541v4.542c2.137 1.346 1.771 3.082 1.144 3.755l-1.791 1.918c-.577.491-1.494.821-2.05.737L2.446 28.247c-.4-.112-.623-.488-.665-.89-.013-.122-.023-.402.147-.566.575-.552 1.492.266 2.112.406s13.411 2.346 13.411 2.346c.556.084 1.292-.078 1.868-.569l1.011-1.055c.25-.434-.043-.772-.388-1.029-.119.166-.311.213-.503.233a.717.717 0 0 1-.709-.726v-4.672c1.123-.882.662-.474 1.418-1.184z"/><path fill="currentColor" d="M17.398 22.673c-.015 1.985-.002.497-.055 4.463 0 .075-6.309-.596-6.559-.596l-.701-.349c2.593-.814 5.04-2.045 7.316-3.517zM21.363 14.068c.252.064.405.299.539.505 1.255 2-1.013 3.589-2.403 4.99-2.557 2.579-9.436 6.283-14.352 6.437-2.591.081-6.636.066-4.588-3.818.492-.932 2.558-2.528 2.03-.922-1.014 3.086.549 3.15 3.131 2.91 4.791-.278 11.565-3.96 13.691-5.952 2.182-2.046 1.536-2.6 1.527-3.191 0-.235.028-.893.349-.957.025-.005.051-.002.077-.002z"/><path fill="currentColor" d="M8.964 2.724h.776c4.062.186 7.342 3.541 7.566 6.969l.022.891c-1.024.62-2.196 1.152-3.299 1.608-.61.252-1.123.559-1.302 1.148-.355 1.165.594 1.761 1.709 1.701 1.022-.078 2.023-.274 2.979-.638l.01 3.901c-3.477 2.35-7.55 4.288-11.773 4.706l-.04.003c-.725.067-1.191.092-1.565.077l-.113-.008c-.067-.036-.137-.069-.195-.119-.224-11.218-.783-13.792-.783-13.752l.267-.215c1.585 1.413 3.479 2.657 5.564 3.153 1.496.356 2.806.123 3.187-.953.423-1.194-.289-2.315-1.88-2.496l-.267-.052c-2.155-.518-4.675-1.323-5.45-3.639.051-.261-.001-.148.143-.345.846-.814 1.858-1.432 3.003-1.726.469-.121.959-.142 1.438-.212zM20.121 12.711l.037 3.048c-.248.863-.793 1.244-1.423 1.533l.002-3.692c.432-.363.943-.484 1.384-.889"/><path fill="currentColor" d="M21.805.959c2.71-.02 4.225 2.314 3.661 4.868-1.164 4.491-7.637 7.855-11.091 8.11-.932.05-.471-.664 0-.8 2.836-.818 7.546-3.582 8.564-6.182.968-2.472.673-5.364-4.246-4.018l-.409.127c-.574.09-.955-.232-.091-.8 1.152-.744 2.238-1.21 3.612-1.304zM5.059 1.151c.049-.007.023.011.005.022-2.073 1.091-3.673 6.509 4.582 8.328l.259.05c1.352.301.838 2.074-.935 1.726-2.096-.461-10.095-4.503-5.606-9.331.41-.377 1.138-.698 1.695-.794z"/><path fill="currentColor" d="M11.291.571a7 7 0 0 1 2.314.377c3.064 1.054 5.222 4.1 6.21 7.108 0 0 .107.302.196.8.011.062.063.251.007.299-.373.32-.423.38-1.159.711-.058.026-.181.064-.166-.124.024-.302-.062-.603-.122-.9-2.603-7.595-8.142-7.705-12.326-6.671q.226-.137.449-.261C7.918 1.239 9.253.734 10.652.603c.212-.02.426-.021.639-.032"/></svg>