<svg xmlns="http://www.w3.org/2000/svg" width="23" height="32"><path fill="currentColor" d="M11.762 1c.703 0 1.272.57 1.272 1.272v11.97c.856.505 1.298 1.35 1.347 2.327-.015.294.004.185-.025.329l7.92 7.92a1.273 1.273 0 0 1-1.8 1.8l-7.628-7.628c-.359.199-.76.253-1.162.274a2.695 2.695 0 0 1-2.695-2.695c.026-.978.558-2.009 1.497-2.406V2.272c0-.703.57-1.272 1.272-1.272zm6.314 25.331-1.709-1.709c-1.436.734-2.971 1.266-4.606 1.231-1.2-.058-2.413-.201-3.517-.708v-3.876l-5.24 4.94L8.244 31v-3.267c.346.087.687.197 1.037.26 1.226.221 1.384.205 2.406.254 2.258-.057 4.512-.613 6.389-1.916M8.993 7.718V5.215C3.768 6.417.082 11.237.011 16.57c.054 2.136.545 4.304 1.73 6.114l1.806-1.806c-.716-1.319-1.061-2.811-1.069-4.308.103-4.056 2.566-7.651 6.515-8.852m5.389-2.504v2.457c3.907 1.214 6.651 4.769 6.663 8.898-.036 1.424-.296 2.864-.975 4.134l1.716 1.715c1.048-1.929 1.567-3.633 1.579-5.849-.135-5.335-3.617-10.21-8.982-11.355z"/></svg>