<svg xmlns="http://www.w3.org/2000/svg" width="25" height="32"><path fill="currentColor" d="M24.505 1.026c.064 2.659.454 5.496-.787 7.964-1.837 4.078-5.432 6.929-8.908 9.567 1.454 1.533 2.987 2.989 4.55 4.409q.192-.161.388-.319c.07-.404-.353-1.801.14-1.938.738-.205 1.397.3 1.6 1.131.004.017-.003.037.01.047-.404.574-.801 1.149-1.206 1.723 1.248 1.695 2.352 3.545 3.922 4.964.299.27.59 1.218.275 1.395-1.066.595-2.36.903-3.615 1.002-1.83.078-3.444-1.111-4.312-2.681-.788-1.424-.383-3.624 1.269-4.298l.03-.019-.03-.005c-2.107-.509-3.821-1.846-5.52-3.115-1.673 1.328-3.438 2.537-5.517 3.115l-.03.005.03.019c1.653.674 2.057 2.874 1.269 4.298-.868 1.57-2.482 2.759-4.312 2.681-1.255-.099-2.549-.407-3.615-1.002-.316-.176-.024-1.125.275-1.395 1.57-1.419 2.674-3.269 3.922-4.964-.404-.575-.801-1.149-1.206-1.723.013-.01.006-.03.01-.047.203-.831.862-1.336 1.6-1.131.493.137.07 1.535.14 1.938q.196.158.388.319a85 85 0 0 0 4.55-4.409C6.34 15.919 2.744 13.068.907 8.99-.308 6.525.026 3.678.12 1.026c1.646 2.259 3.974 3.857 6.22 5.461a50.7 50.7 0 0 0 5.972 9.063c2.344-2.773 4.277-5.86 5.973-9.063 2.248-1.61 4.567-3.184 6.22-5.461M5.756 24.6c-1.333 1.773-3.773 2.877-4.036 5.26q.026-.001.052.001c1.435.228 2.804.336 4.25-.775 1.369-1.052 1.528-3.862-.266-4.486m13.113 0c-1.794.624-1.635 3.433-.266 4.486 1.446 1.111 2.815 1.004 4.25.775q.026-.003.052-.001c-.262-2.383-2.703-3.487-4.036-5.26"/></svg>