<svg xmlns="http://www.w3.org/2000/svg" width="26" height="32" viewBox="0 0 28 32"><path fill="currentColor" d="m12.987.543.238-.412c.377.963.655 1.961 1.058 2.92.576 1.306 1.892 2.264 1.991 3.769.417 1.857-.228 3.699-.432 5.536.854 1.028 2.279.973 3.486 1.142.551-1.296.919-2.661 1.49-3.947.536-.69 1.455-1.023 1.902-1.773.437-1.857.313-3.769.407-5.655 1.514 2.845 3.307 5.874 3.108 9.216-.07 1.708-1.45 2.86-2.537 3.997-.149 1.321.442 3.034-.77 3.992-1.678 1.599-4.002 2.13-5.953 3.287-.045 1.887.809 4.305-.909 5.695-1.241.983-2.145 2.264-3.019 3.56-.74-1.366-1.634-2.637-2.885-3.585-1.604-1.281-.874-3.535-.953-5.288-1.827-1.425-4.131-2.1-5.859-3.664-1.236-.938-.65-2.661-.78-3.982C1.438 14.224.087 13.022.013 11.304c-.184-3.337 1.604-6.346 3.113-9.191.094 1.991-.045 4.027.497 5.968.566.477 1.217.839 1.842 1.246.402 1.425.874 2.825 1.47 4.181 1.256-.124 2.488-.422 3.625-.993-.655-2.607-1.41-5.79.511-8.049.948-1.147 1.271-2.617 1.917-3.923z"/></svg>