<svg xmlns="http://www.w3.org/2000/svg" width="26" height="32"><path fill="currentColor" d="M12.241 11.963v5.495l-3.43-.951zm.837.034v5.454l3.207-.944zm.083-10.595C5.895 1.494.028 7.25 0 14.563c.034 1.378.232 2.749.672 4.059.579-5.054 5.845-8.965 10.928-8.967l-.09-.069c-.808-.584-2.301-.992-3.365-1.068-.032-.002-.062-.01-.092-.014-.129-.018-.061.002.099-.039.512-.131 1.431-.196 2.041-.164 4.839.258 8.471 3.94 8.471 8.621-.019 1.478-.391 2.928-1.153 4.202l-.211 3.973c1.83-1.904 2.998-4.798 3.38-7.372.101.519.11 1.05.121 1.577-.056 2.775-1.025 5.656-3.29 7.397v.027c4.343-2.082 7.072-6.111 7.101-10.975-.066-4.09-2.022-7.851-5.482-10.091l-.003-.03c3.308 1.483 5.892 4.151 7.123 7.581-.751-6.613-6.134-11.556-12.775-11.806l-.314-.005zm-4.35 16.173.952 11.879 2.478 1.145V18.722l-3.43-1.146zm7.473 0-3.207 1.138v11.883l2.438-1.142zm-6.922-6.209c-2.915.906-4.701 3.174-4.775 6.248.061 2.406 1.272 4.568 3.427 5.708l-.215-4.026c-.496-.914-.729-1.952-.736-2.988.048-1.905.801-3.72 2.3-4.942zm-5.02 10.701c.463 1.903 1.936 3.543 3.898 4.214l-.137-2.064c-1.598-.348-2.721-.934-3.761-2.15"/></svg>