<svg xmlns="http://www.w3.org/2000/svg" width="19" height="32"><path fill="currentColor" d="m5.881 23.645 3.957 5.429c-2.841.059-4.985-1.896-6.516-3.889l2.56-1.54zm3.39-2.04-2.652 1.596 4.127 5.662c1.143-.293 2.189-.867 2.988-1.748zm-2.406-2.97-5.541 2.802c.785 1.952.304.928 1.502 3.044l5.899-3.549-1.86-2.296zm4.246-2.146-3.462 1.75 6.671 8.236c1.079-1.177 1.898-2.561 2.518-4.031zm7.316-3.699-2.037 1.03c.367.703.34 1.211-.299 1.716-1.009.692-2.166 1.297-3.417 1.34l4.537 4.718c.787-1.796 1.19-3.769 1.28-5.723.004-2.279.039-1.252-.064-3.081m-.681-4.359L.119 16.621c.172 1.359.403 2.72.924 3.995l17.33-8.762c-.066-1.162-.254-2.318-.628-3.424zM.243 10.901c-.048.297-.122.591-.143.891-.141 2.039-.105 2.221-.056 3.918l3.235-1.503zm3.305-6.247C1.767 5.855.732 7.705.416 9.821l3.679 4.006 4.312-2.003zm11.264-.402L7.35 8.733l1.847 2.725 8.306-3.859c-.308-.574-.558-1.183-.924-1.722-.488-.651-1.023-1.252-1.766-1.624zM9.46 2.925c-1.798.12-3.583.395-5.192 1.261L6.867 8.02l7.054-4.236c-.492-.177-.967-.409-1.475-.53-1.281-.304-1.835-.288-2.986-.33z"/></svg>