<svg xmlns="http://www.w3.org/2000/svg" width="25" height="32"><path fill="currentColor" d="M3.289 4.026c.67-1.047 1.627-1.935 2.812-2.358.729-.091 1.466-.011 2.199-.011a56 56 0 0 0-.001.917c-.701-.009-1.473-.056-2.079.366-.571.356-.865.981-1.21 1.533-.3.517-.663.993-.96 1.513-.386.67-.933 1.25-1.214 1.98-.084.538-.013 1.087-.028 1.63-.031.567.252 1.076.374 1.616.061.387.012.782.064 1.169.383.501.993.738 1.483 1.111.606.458 1.282.825 1.834 1.353.447.426 1.004.701 1.529 1.015.212.117.531.155.709-.043.813-.749 1.499-1.645 2.425-2.266.322-.236.684-.439.915-.773.049-.569.035-1.144-.009-1.713-.179-.611-.443-1.228-.903-1.684-.396-.406-.734-.861-1.055-1.328.348.004.702-.031 1.047.037.602.288.963.891 1.499 1.27.478.347 1.059.636 1.298 1.214.451.802.235 1.745.29 2.619-.015.479.212.975.02 1.439-.481 1.194-1.252 2.235-1.852 3.368-.338.724-.939 1.286-1.647 1.639-.465.072-.939-.005-1.405.055-.591.122-1.114.519-1.736.502-.546 0-1.182.103-1.598-.34a981 981 0 0 1-4.682-4.666c-.415-.433-1.025-.661-1.362-1.167-.081-1.832-.011-3.671-.039-5.507-.06-.458.263-.81.527-1.139.327-.39.577-.837.926-1.208.64-.686 1.324-1.343 1.828-2.143zm10.945-1.079c-.426.216-.911.138-1.366.206-.1.174-.16.365-.266.534.677.302 1.418.206 2.135.238.598.111.918.698 1.22 1.168.394.689 1.029 1.191 1.461 1.853.242.369.505.725.805 1.049.479.522.808 1.156 1.226 1.725.215.318.479.652.451 1.059.011.985-.004 1.971.004 2.956-.008.688.421 1.294.406 1.981.003.494.027.991-.021 1.483-.268.481-.738.806-1.081 1.231-.734.87-1.445 1.764-2.235 2.585-.358.369-.587.83-.861 1.259-.304.486-.752.853-1.137 1.271-.386.417-.732.866-1.079 1.315-.244.304-.515.619-.903.738-1.167.419-2.286.957-3.454 1.374-.447.212-.762-.288-1.107-.487-1.254-.79-2.545-1.533-3.749-2.401-.307-.219-.793-.234-1.095-.001.361 1.028.869 1.999 1.35 2.976.417.64 1.115 1.015 1.75 1.404.765.473 1.234 1.3 2.02 1.746.33.21.744.125 1.111.095.574-.102 1.159-.103 1.74-.079 1.729.223 3.478.073 5.216.122.593.092 1.036-.398 1.335-.844.543-.875 1.076-1.76 1.712-2.573.369-.451.541-1.033.944-1.458.338-.37.733-.685 1.037-1.085.348-.458.634-.964 1.035-1.381.426-.458.92-.892 1.152-1.489.122-.673-.028-1.366.079-2.04.095-.331.264-.637.354-.971.088-.609-.029-1.231.069-1.84.068-.403.357-.717.477-1.099.032-.431.087-.9-.115-1.3-1.248-2.446-1.753-5.174-2.69-7.736-.355-.585-.912-1.033-1.518-1.342-.617-.351-1.19-.777-1.822-1.099-.945-.454-1.706-1.286-2.765-1.493-.633-.1-1.258.072-1.824.347zM6.607 8.596c-.127.6-.51 1.126-.586 1.732.27.688.903 1.139 1.397 1.661.214.271.579.203.883.234.367-.601.72-1.211 1.068-1.822A16 16 0 0 1 8.308 8.58c-.567-.004-1.133-.009-1.7.017z"/></svg>