<svg xmlns="http://www.w3.org/2000/svg" width="24" height="32"><path fill="currentColor" d="M9.209 2.381c1.1 1.806.343 4.003-1.171 5.298-1.267.871-2.634 1.613-3.769 2.669.338.74.921.882 1.379 1.028a.1.1 0 0 1 .038.018l.057-.015c1.546-1.88 3.676-3.203 6.132-3.367 2.385.098 4.482 1.464 6.012 3.223l.176.159c.017-.012.018-.012.038-.018.458-.147 1.041-.289 1.379-1.028-1.135-1.056-2.502-1.798-3.769-2.669-1.475-1.012-2.318-3.791-1.171-5.298.947 1.507 1.048 2.811 3.776 4.436 1.723 1.027 3.533 1.343 4.962 2.637.663.49.586 1.437.026 2.094-1.249 1.465-2.961 1.201-4.401 1.978q.003.024.002.047c-.185 1.144.037 2.586.402 3.747.358 1.126.548 2.588-.147 3.629-.751 1.07-2.26 1.152-3.058 2.139-1.176 1.454-.06 3.214-1.268 4.9-.362.506-1.023.99-1.558 1.32v-5.995c.154-.053.343-.087.377-.277.016-.251-.037-.496-.063-.699-.233-1.034-.562-2.461-1.715-2.83v.003c-1.042.282-1.537 1.91-1.715 2.828-.025.204-.078.449-.063.699.034.19.223.223.377.277v5.995c-.535-.33-1.195-.814-1.558-1.32-1.207-1.686-.092-3.446-1.268-4.9-.798-.987-2.307-1.068-3.058-2.139-.695-1.041-.504-2.503-.147-3.629.365-1.161.587-2.603.402-3.747v-.026l-.008-.026c-1.563-.706-3.152-.653-4.391-1.974-.56-.657-.636-1.604.026-2.094C1.9 8.161 3.711 7.844 5.434 6.817c1.849-.911 2.8-2.722 3.776-4.436zm6.825 14.128-.211.022c-.55.11-1.345.622-2.236 1.32-.843.66.009 2.142 1.026 2.603 1.079.422 1.928.027 2.639-.66 1.063-1.026.693-2.374-.202-3.043a2.6 2.6 0 0 0-1.017-.242zm-8.318 0a2.6 2.6 0 0 0-1.017.242c-.894.669-1.265 2.016-.202 3.043.711.687 1.56 1.082 2.639.66 1.018-.46 1.87-1.943 1.026-2.603-.892-.698-1.686-1.21-2.236-1.32l-.211-.022zm4.735 5.117s-.267-.116-.587-.121-.587.121-.587.121v7.899s.284.094.587.094.587-.094.587-.094z"/></svg>