<svg xmlns="http://www.w3.org/2000/svg" width="24" height="32"><path fill="currentColor" d="M10.467.445C9.126 1.804 7.815 3.201 6.862 4.831 9.732 2.51 13.431.978 17.313 1.342c-.865.342-1.741.663-2.605 1 1.547-.027 3.129-.337 4.658.065 1.782.38 3.17 1.554 4.634 2.5-2.417-1.136-5.144-2.027-7.928-1.391-4.233.967-6.396 4.329-6.86 6.563-.576 2.771.449 6.516 1.915 9.562a2 2 0 0 0-.113.139c-.977 1.348-1.405 2.016-2.848 2.389-.314.081-2.175.433-2.175.433.536 1.205.686 1.617.694 1.644.195.63.065 1.129-.062 1.735C3.024 23.417 1.442 19.29.345 15.374c-.571-1.967-.318-4.005-.071-5.989.288 2.821.67 5.707 2.041 8.283.229-4.12-.418-8.696 2.123-12.343C6.355 3.613 8.437 2.048 10.466.444zm7.249 13.373c-2.376 3.207-4.415 6.164-7.557 8.771-.85.705-1.633.858-2.181.858-.268 0-.634-.09-.597-.056 1.414 1.306.536 3.172.202 4.808 1.07-.543 2.017-1.647 3.358-1.408 1.453.766 1.464 2.506.182 3.435.153.223.459.674.612.902 1.729-.625 3.588-1.288 4.687-2.766 1.359-1.603 1.359-3.761.823-5.647-1.323 1.027-2.416 2.12-4.099 2.564-.238.063-.745.054-.918-.063-.295-.199-.374-.88-.113-1.236 1.569-2.143 2.629-4.42 4.277-6.483 1.899-2.377 3.588-5 6.369-6.609-.435-1.326-1.723-1.788-3.123-1.81-.553 1.603-.888 3.326-1.923 4.739z"/></svg>