<svg xmlns="http://www.w3.org/2000/svg" width="100%" height="100%" viewBox="0 0 24 24"><path fill="currentColor" d="M15.968 0c.951 3.936 1.927 7.87 2.735 11.838.102.072.2.151.299.227a246 246 0 0 1 5.379-4.448 213 213 0 0 1-4.436 5.369c.364.459.617.987.801 1.54 3.763.397 7.515.91 11.252 1.505a179 179 0 0 1-11.27 1.498c-.392 1.218-.975 1.873-2.01 2.607-.816 3.977-1.752 7.928-2.752 11.862-1.005-3.956-1.954-7.927-2.787-11.924l-.202-.154a224 224 0 0 1-5.362 4.459 324 324 0 0 1 4.458-5.335c-.372-.465-.632-.999-.82-1.561A199 199 0 0 1-.003 16.029a296 296 0 0 1 11.229-1.432 4.8 4.8 0 0 1 1.835-2.588c.844-4.032 1.841-8.032 2.904-12.012z"/></svg>