<svg xmlns="http://www.w3.org/2000/svg" width="18" height="32"><path fill="currentColor" d="M9.321 2.061c.901.022 1.222.49 1.459 1.028.255.49.179 1.283.167 1.807-.026 8.606-.035 8.82.11 8.943.219.152.473.045.615-.201.056-7.234-.123-8.187.154-9.203.066-.242.637-.967 1.538-.791.681.133 1.158.965 1.121 1.626-.112 8.501-.145 9.394-.044 10.283.112.481.725.418.769-.242.01-.157-.001-3.59-.022-5.339-.01-.84.139-1.983 1.165-2.087.616-.063 1.184.521 1.286 1.16.095 10.108.094 11.509-.02 12.835-.085.986-.12 1.113-.263 1.917-1.242 4.884-7.591 7.819-11.987 5.111-2.816-1.432-3.864-4.523-5.367-7.046-.008-4.274.035-4.742.039-4.985.411-.583.971-1.245.738-2.019-.087-.389-.012-.862.375-1.052.205-.08.371-.081.586-.086.456.034.825.257 1.051.655.496.993.318 2.114.294 3.179h.004c-.031.964.05 2.927.05 2.927s.232.46.69 1.209c.309.506.801.127.591-.267s-.594-1.072-.591-1.069C3.815 7.721 3.8 6.581 3.913 5.446c.139-.848 1.128-1.404 1.936-1.16.623.283.926.786.935 1.633.052 4.709-.028 6.222.02 7.729.295.289.883.183.878-.257-.072-7.484-.011-8.51-.05-9.549.045-.906.666-1.805 1.692-1.78zm-.046 13.966a3.12 3.12 0 0 0-3.121 3.121c.025 1.005.482 1.988 1.335 2.556l-1.293 6.137c.512.214 1.055.351 1.598.461l1.483-8.609 1.498 8.618c.55-.085 1.088-.264 1.603-.472l-1.339-6.119a3.13 3.13 0 0 0 1.358-2.572 3.12 3.12 0 0 0-3.121-3.121z"/></svg>