<svg xmlns="http://www.w3.org/2000/svg" width="21" height="32"><path fill="currentColor" d="M11.2 2.645c.407.013.67-.026 1.222.158.619.206.787 1.207.83 1.901l.034.658v7.202c-.016 1.42-.015 1.852 0 2.073s.044.304.044.304c.049.135.061.187.192.2a.36.36 0 0 0 .361-.361V9.336c.011-.413.016-.602.089-1.008.22-1.21 2.978-1.607 3.19.427.084.811.064 1.555.099 2.365.022.516-.005 1.206.024 1.721v2.175c0 .2.074.361.242.361s.305-.162.305-.361c.008-3.923.033-4.421.06-4.654.203-1.747 3.255-1.755 3.302.7.063 3.274-.024 6.554.052 9.824.02 1.11-.111 2.216-.388 3.291-.044.172-.11.338-.165.507l.018.041c-.146.729-.587 1.357-.991 1.964-.256.426-.606.777-.981 1.097l-.02.019v-.002c-.345.328-.765.561-1.18.787.043-2.148.238-4.287.295-6.43-1.516-1.288-3.118-2.467-4.748-3.602.128-.893.266-1.792.475-2.671a153 153 0 0 0-4.553 4.078c1.065 1.255 2.348 2.286 3.683 3.236a329 329 0 0 0-2.571 6.155c-1.009-.072-1.912-.539-2.763-1.053l-.048-.02c-.376-.227-.205-.115-.518-.332l-.172-.112v-.008c-1.269-.879-2.21-2.13-3.1-3.37C2.298 22.636.862 20.906.078 18.829c-.466-1.497 1.198-2.932 2.647-2.623 1.136.803 1.613 1.677 2.63 2.613.276-4.781-.225-9.276-.007-14.053-.062-1.915 3.465-2.146 3.58-.337.057.929.081 1.86.104 2.791v7.881c0 .2.037.361.236.361s.361-.162.361-.361v-3.673c.055-1.804.029-.557.007-3.541l-.007-1.163V5.648c.029-1.38.007-.763.057-1.852.053-.946 1.104-1.163 1.511-1.15z"/></svg>