<svg xmlns="http://www.w3.org/2000/svg" width="18" height="32"><path fill="currentColor" d="M4.947 2.152C6.15 1.531 7.372.9 8.684.555c.36.237.956.649 1.316.885-.951 1.563-3.116 2.363-3.195 4.37 1.484-1.464 2.854-3.057 4.373-4.496 1.597.138 3.224.473 4.782.887.592.789 1.302 1.583 1.533 2.564-1.4-1.686-3.826-1.454-5.655-.71-1.799 1.41-2.578 3.663-3.909 5.452-1.07 1.513-1.208 3.392-1.075 5.186 1.435 2.071 4.319 2.1 6.409 1.193.493-.725.399-2.268 1.484-2.307.468 1.553-.182 3.525-1.839 4.003-.651.242-.981 1.006-1.696 1.104-1.223-.153-2.519-.695-3.717-.148-1.366.527-2.061 1.873-3.066 2.844.552 3.619 2.136 7.053 2.974 10.617l-.347-.227c-1.38-1.134-1.02-2.971-2.346-4.134-.705-.582-.843-1.548-1.464-2.184-.015.375-.193.942-.208 1.317-.69.266-1.35.621-1.636 1.4-.577.532-.187 1.79-1.228 1.844C.209 25.001.03 19.962.03 14.948l.274-.649V9.847S.031 9.178.03 9.148c-.038-.67-.069-2.295.093-2.919.006-.021.05-.074.056-.095.951-1.099 1.637-2.406 2.618-3.48l.739.108c-.153 1.395-1.321 2.406-1.632 3.761C3.57 5.729 3.62 3.343 4.946 2.15zm5.829 3.901c.616 1.223 2.31 2.35 1.773 4.08 1.504-1.351 1.048-4.143-.381-5.514-.554.382-.826.97-1.324 1.392a.4.4 0 0 1-.067.042zm-1.259 6.624c.074-.015.217-.054.291-.074-.082-1.152.33-2.613-.701-3.459-.019-.016-.046-.068-.058-.046-.288.531-.575.894-.727 1.147-.016.026.012.061.02.091.19.753 1.077 1.577 1.176 2.341z"/></svg>