<svg xmlns="http://www.w3.org/2000/svg" width="17" height="32"><path fill="currentColor" d="M7.771 15.075c-.031-2.836.394-3.903.816-5.826.633 1.893.837 3.864.837 5.85 2.334.608 4.379 2.623 4.276 5.168.059 2.506-1.981 4.464-4.266 5.116-.07 1.377-.226 2.851-.686 4.103-.055.149-.124.274-.161.429-.549-1.446-.754-2.993-.793-4.543-2.358-.588-4.333-2.581-4.323-5.116-.034-2.52 1.956-4.565 4.3-5.183zm-2.648 4.702c-.265 1.79.952 3.579 2.703 3.946-.025-6.968-.031-6.994-.032-7.017-1.26.579-2.543 1.581-2.671 3.071m4.305-3.045c-.05 6.895-.049 6.973-.049 7.013 1.427-.588 2.77-1.859 2.711-3.512.039-1.643-1.241-2.903-2.662-3.501M8.587.418c-2.09 4.672-4.21 9.332-6.5 13.91C.436 17.533-.785 21.36.605 24.917c1.375 3.518 3.535 5.392 7.213 5.984.059.009.119.011.179.016-.628-1.177-.574-3.164-2.035-3.659-2.888-1.054-4.329-3.985-4.172-6.986-.088-2.408 1.054-4.585 2.158-6.639.059-.108.175-.375 4.639-10.053v-.002c1.546 3.352 3.087 6.707 4.639 10.055 1.103 2.055 2.246 4.232 2.158 6.639.157 3.001-1.284 5.932-4.172 6.986-1.461.495-1.407 2.482-2.035 3.659.06-.005.12-.006.179-.016 3.678-.591 5.838-2.466 7.213-5.984 1.39-3.557.169-7.384-1.482-10.589-2.143-4.16-6.5-13.91-6.5-13.91"/></svg>