<svg xmlns="http://www.w3.org/2000/svg" width="100%" height="100%" viewBox="0 0 24 24"><path fill="currentColor" d="M15.845.695c1.065 1.442 1.508 3.235 2.532 4.697 1.819.937 3.831 1.488 5.599 2.553C26.62 6.554 29.234 5.087 32 3.935l-.229.255c-2.069 2.282-4.137 4.85-4.708 7.963-.219 2.603-.143 5.268-.993 7.78a436 436 0 0 0 3.215 6.277c-1.778-1.111-3.633-2.084-5.604-2.797-1.635 1.895-3.531 3.546-5.665 4.85-1.172.591-1.523 1.895-1.916 3.042-.606-1.1-1.06-2.405-2.226-3.036-2.17-1.309-4.111-2.955-5.716-4.911-2.099.596-4.025 1.62-5.859 2.771 1.07-2.262 2.262-4.463 3.276-6.745-.657-2.527-.469-5.146-.825-7.703-.769-2.986-2.828-5.4-4.748-7.724C2.718 5.129 5.3 6.576 7.919 7.946c1.768-1.08 3.79-1.635 5.625-2.573 1.014-1.421 1.447-3.164 2.303-4.677zm2.297 17.435c.983.774 2.028 1.472 3.047 2.216 1.824-1.233 2.787-3.266 3.143-5.39-1.956 1.263-4.152 2.063-6.19 3.174M7.535 15.083c.428 2.002 1.284 4.055 3.087 5.192 1.146-.581 2.135-1.432 3.169-2.191a182 182 0 0 1-6.256-3.001"/></svg>