<svg xmlns="http://www.w3.org/2000/svg" width="30" height="32" viewBox="0 0 30 32"><path fill="currentColor" d="M4.654 18.61 15.238 8.514c.514-.509.811-.123.927.312l3.409 14.3c0 .404-.171.576-.576.576L4.964 19.717c-.531-.088-.841-.664-.31-1.107M4.61 5.992c-.404 0-.724.271-.724.676l.303 9.926c0 .404.191.953.997.422l9.474-9.209c.354-.487.044-.841-.599-.865zm15.76 16.115c.117.636.727.647 1.043.255l7.236-9.066c.185-.329.125-.547-.204-.733L17.618 7.966c-.329-.185-.864-.064-.679.615l3.432 13.524zm-10.253 6.609c.165.369.543.551.912.386l6.508-3.807c.369-.165.664-.708-.004-.974L5.672 20.824c-.589-.125-.892.132-.509.856l4.954 7.037zm5.074-22.375c.781.089.656-.063.974-.664l1.466-3.095c.324-.643.301-.95-.274-.801L5.891 3.729c-1.471.31-1.964 1.195-1.383 1.372zm1.992.581c-.603-.343-.369-.633-.084-1.312l1.376-3.168c.279-.607.531-.839 1.099-.39l7.98 7.352c1.166 1.417.907 2.16-.129 1.818L17.183 6.921zm4.258 16.946c-.341.541-.097.807.479.94l2.789.797c.708.065 1.184-.43 1.594-1.372l3.028-7.904c.441-1.598-.042-2.364-.726-1.526zm1.215 3.212c1.299-.587.849-.874.105-1.122l-2.335-.734c-.657-.2-1.107-.033-1.694.32l-6.552 3.795c-1.042.709-1.579 1.093.153.837zM3.016 7.143c-.191-1.392-1.14.397-1.24 1.245l-1.55 9.69c0 .404.001.788.708.93l1.823.216c.404 0 .591-.574.568-1.146l-.31-10.935zm-1.682 12.75c-.305.011-1.921-.103-1.107.908l7.792 8.362c.708.603 1.151.404 1.151 0l-4.9-7.587c-.353-.552-.895-1.301-1.229-1.412s-1.402-.28-1.708-.27z"/></svg>