<svg xmlns="http://www.w3.org/2000/svg" width="100%" height="100%" viewBox="0 0 24 24"><path fill="currentColor" d="M28.123 2.155c1.068.018 2.138-.02 3.205.018.412.02.916.507.539.896-.666.827-1.112 1.795-1.678 2.686-.425.342-1.029.301-1.542.422.115.552.349 1.255-.123 1.704-.491.526-1.029 1.1-1.764 1.251-.595.086-1.198-.018-1.793.06-.386.171-.661.519-.972.794.513.108 1.127-.099 1.562.246.034.266.397.597.226.804-.153.186-.802.311-1.165.311-.067 0 .136.328.078.362-.423.246-.991.059-1.501.207-.222.065.37.447.144.518-.656.031-2.084.043-2.699.283.549.339 1.041.76 1.515 1.194-.433.44-.741.941-1.368 1.085-.408.051-1.066.059-1.475.052-.131.605.776 1.372-.259 1.812-.6.255-1.307.179-1.804-.064-.396-.218-.854-.184-1.289-.187-.035.441.004.976-.39 1.277-1.161.741-2.437.684-3.585 1.497l-1.42.297c.223-.353.647-.902.87-1.255a79 79 0 0 1 2.113-3.207c1.459-2.085 2.853-3.748 4.318-5.065 1.735-1.559 3.366-2.597 5.225-2.998.21-.045.489-.222.444-.431-.06-.186.002-.305-.196-.319h-.455c-2.005.432-3.761 1.462-5.59 3.106-1.515 1.362-2.806 3.332-4.296 5.461-.669.956-1.428 2.369-2.437 3.637-.106.133-.652.965-.834 1.251-.335.528-.551.472-.792.831-.119.178.007.501.185.62s.419.072.539-.106q.351-.526.69-1.06l1.643-.138c.391.33.808.62 1.283.816a10.5 10.5 0 0 1 1.489.656c-.516.523-1.195.892-1.85 1.23-.634.31-1.031.917-1.642 1.266-.333.191-.662.39-.979.608-.718.488-1.561.836-2.099 1.546-.222.259-.152.627-.177.941.019.408-.064.872.218 1.213.191.352.596.647.547 1.086-.13.218-.444.099-.653.117-.666-.108-1.232-.504-1.822-.805-.824-.438-1.475-1.122-2.126-1.777-.523-.535-1.109-1.016-1.536-1.635-.9-1.337-1.402-2.879-2.059-4.336.227-.463.793-.889.716-1.562-.063-.542-1.001-.519-1.249-1.009-.095-.697-.028-1.407-.048-2.109-.045-.967.523-1.798.908-2.642.246.183.571.298.685.609.246.457.436 1.267.979 1.444.345.025.744.08 1.036-.149.549-.403 1.03-.954 1.519-1.423l2.213-1.65.272-.311c.5-.463.874-1.052 1.456-1.417.243-.01.324.015.562.056.007 1.343-.029 2.689.013 4.031.164.773.405 1.744.59 2.513 1.348-2.315 2.402-5.114 4.295-7.064.655-.842 1.386-1.622 2.224-2.283.88-.672 1.577-1.546 2.449-2.229 1.895-1.466 4.061-2.677 6.435-3.132.832-.129 1.631-.472 2.483-.449zm-3.814 3.86c-.191.009-.093.252-.285.259 0 .133.257.178.259.311.18-.003.312-.102.492-.104.012-.137-.191-.303-.181-.44zM12.733 3.477l-.505.004c-.14.014-.282.019-.421.044-.352.063-.684.209-1.034.278-1.514.533-2.889 1.399-4.19 2.327C5.176 7.292 3.936 8.636 2.63 9.906c-.276.311-.697.684-.547 1.149.241.466.709.804 1.292.986.381.119.33.65.354 1.043.019.316.44.823.919.593l2.249-2.115c.511-.523 1.009-.998 1.617-1.416 1.214-.799 2.394-1.611 3.706-2.251.782-.428 1.612-.776 2.353-1.277.785-.497.835-2.145-.06-2.356-.488-.115-.702.004-1.024.364-.664.742-.973.862-1.065.778-.066-.061-.032-.159.09-.312.049-.061.108-.083.199-.179.005-.005.231-.218.287-.277.211-.225.313-.423.408-.592.066-.134.093-.086.067-.145-.131-.305-.476-.318-.743-.42zm5.243 17.083c-1.331.872-2.742 1.616-4.047 2.528-.507.345-.962.767-1.499 1.068-.804.433-1.475 1.073-2.314 1.448.446.561.846 1.229 1.511 1.552.494.038.747-.508 1.191-.645.291.029 1.208.006 1.061.259-.466.802-1.377.654-1.832 1.188-.377.549-.171 1.264-.226 1.887.326-.051.678-.044.966-.227 1.309-.738 2.574-1.551 3.882-2.289 1.529-.818 2.901-1.884 4.336-2.848.824-.688 1.711-1.483 2.321-2.37.129-.721-.607-1.325-.673-2.019-.104-1.087-.852-1.169-1.533-1.277-1.191.269-2.068 1.217-3.144 1.744z"/></svg>