<svg xmlns="http://www.w3.org/2000/svg" width="19" height="32"><path fill="currentColor" d="M2.022 4.614a.3.3 0 0 0 .009-.051c.137-1.427.199-2.736 1.637-3.037 1.226-.256 2.195.758 2.589 1.463.822 1.475-2.617 1.578-4.235 1.624zM7.69 3.201c-.68 2.2-1.159 4.462-1.559 6.724-.13.738 2.61 1.097 2.835.16.637-2.654 1.093-4.159 2.12-6.627.222-.532-.445-1.617-1.498-1.706-.867-.073-1.72.431-1.899 1.448zm3.559 8.693c1.099-.267 2.018-3.708 2.936-5.827.801-1.848-1.217-2.905-1.853-2.105-1.074 1.35-3.292 6.642-2.15 7.71.028.026.678.317 1.067.222M.146 6.089c-.146.239-.074.446-.074.446.506 2.668-.139 4.502.266 6.865 1.341 3.157 5.098 4.911 6.175 8.22.297 2.503-.415 5.142-.976 7.553 2.748 2.939 7.491 2.847 10.688.694-.178-1.367-.383-2.728-.39-4.109-.264-5.324 4.062-9.783 2.814-15.206-1.13.991-2.252 1.982-3.408 2.946.009.048.006.101.028.145.317.636.43 1.246.43 1.943 0 .049-.043.124-.035.172-.051-.036-.092-.076-.143-.113-1.744-1.249-3.442-2.67-5.615-3.054l-.14-.023c.447.854.729 1.565.877 2.47.01.059.005.339.021.397-.046-.031.01.011-.017-.038-.79-1.48-1.587-2.31-2.604-3.167-1.36-1.146-2.646-1.497-4.072-2.026C5.345 8.79 6.067 6.92 6.364 4.991c-.049.009-.344-.003-.394.001-2.104.162-1.598.574-2.781.743-1.488.213-2.604-.358-3.041.355zm13.401 5.657c-.039.202.081.624.667.697.949.119 3.143-2.713 3.38-4.982.1-.958-1.288-1.954-1.913-1.097-1.221 1.675-1.72 3.217-2.135 5.382z"/></svg>