<svg xmlns="http://www.w3.org/2000/svg" width="30" height="32" viewBox="0 0 30 32"><path fill="currentColor" d="M14.938.938c8.284 0 15 6.716 15 15s-6.716 15-15 15-15-6.716-15-15 6.716-15 15-15m-8.17 23.077-1.323 1.323c2.258 2.407 5.424 3.815 8.718 3.981l-1.195-2.07c-2.424-.307-4.436-1.624-6.2-3.235zm16.185.154c-1.581 1.73-3.7 2.591-5.948 3.03l-1.222 2.117c3.217-.132 6.239-1.57 8.493-3.824zM14.938 6.036c-5.469 0-9.902 4.433-9.902 9.902s4.433 9.902 9.902 9.902 9.902-4.433 9.902-9.902-4.433-9.902-9.902-9.902m10.183 15.319c-1.03 1.699-.488.992-1.539 2.185l1.323 1.323a8.2 8.2 0 0 0 1.946-2.796l-1.731-.712zM3.264 9.35c-1.275 1.956-1.633 4.313-1.748 6.588.108 3.117 1.025 6.498 3.299 8.772l1.323-1.323c-1.904-1.994-2.608-4.784-2.743-7.448.093-1.444.052-1.639.533-3.335.12-.424.339-.814.509-1.221zm23.372.037-1.2 2.078c.707 1.388.903 2.943 1.043 4.472-.082 1.241-.072 1.663-.432 3.081-.133.525-.364 1.02-.546 1.531l1.697.699c.883-1.634 1.069-3.49 1.16-5.31-.095-2.221-.445-4.658-1.723-6.55zM14.492 2.538c-4.127.134-8.105 2.186-10.428 5.626h2.483c2.037-2.365 4.909-3.447 7.945-3.746zm1.818.047-.927-.047v1.88c3.207.147 5.798 1.399 7.969 3.722h2.443c-1.587-2.403-4.121-4.175-6.866-5.021-.851-.263-1.746-.356-2.619-.534m.139 9.114q0-.882-.832-.883-.354 0-.643.353c-.289.353-.332.353-.416.353q-.151 0-.694-.353c-.543-.353-.617-.353-.769-.353a.41.41 0 0 0-.303.126q.604.253 1.185 1.085.479.681 1.084.681.453 0 .92-.29c.467-.29.466-.433.466-.719zM12.062 9.38q0-.933-1.134-.933-.857 0-1.765 1.033-.858.933-1.009 1.841.504-.353.731-.529.53-.378.756-.403.151.681.227 1.059.68-1.21 1.034-1.386l.656-.101q.504-.126.504-.579zm10.992 9.907q.277-.655.277-.984-.782.857-1.739 1.286-.429.202-1.816.58.378-.582 1.412-1.646c1.034-1.064 1.16-1.292 1.412-1.748q.58-1.013.58-2.254 0-2.356-2.067-4.991.327.818.479 1.226.403 1.048.403 1.738 0 .537-.278.767-1.614-5.824-7.614-5.824-.453 0-1.588.126-1.337.151-1.437.277.882.076 1.21.101 3.353.302 3.353 1.16 0 .329-2.445.731 1.386.454 1.564.454.58 0 1.286-.378.705-.378 1.058-.378.756 0 1.235.782.428.656.429 1.462 0 .63-.302.63-.228 0-.656-.63a52 52 0 0 0-.453-.706 1.2 1.2 0 0 0-.051.353q0 1.059.97 1.966c.97.907 1.323.925 2.03.958a4.6 4.6 0 0 1-.353 1.412q-.354.958-.807 1.135-.303-.302-.302-.857 0-.252.164-.782c.164-.53.164-.605.164-.756q-.252.1-.567.542c-.315.442-.332.541-.365.744q-.176 1.058-.101 1.815.075.656-.555 1.463c-.63.807-.849.806-1.286.806q-.429 0-.781-.177-.453-.227-.454-.605 0-.605 1.084-1.235 1.513-.907 1.765-3.555.075 0-1.311.769c-1.386.769-1.698.769-2.32.769q-.227 0-.895-.176c-.668-.176-.803-.177-1.071-.177q-1.815 0-3.038 1.273-1.224 1.274-1.223 3.089 0 1.714 1.185 3.101c.807.975 2.521 1.626 3.722 1.699 3.42.207 5.051-.539 6.513-1.396q-.378 0-1.866-.038c-1.488-.038-1.277-.038-.857-.038q-.126 0-.302-.164c-.176-.164-.177-.206-.177-.29q0-.404 1.059-.631a6.3 6.3 0 0 1 1.311-.151q3.302 0 4.412-2.647"/></svg>