<svg xmlns="http://www.w3.org/2000/svg" width="26" height="32"><path fill="currentColor" d="M18.783 15.417c1.912 3.233 4.716 6.327 6.193 9.814.786 1.855-2.294 2.681-2.957 2.758-5.357.663-10.719 1.316-16.076 1.984A442 442 0 0 0 .051 17.179c-.076-.159-.101-.608.166-.786.363-.242 1.739-.272 1.739-.272l16.826-.704zm-.819 1.036c-.003.035-.612 5.196-.673 5.96.004.349.09.681.267.977l1.956-.463 2.193 3.07-14.306 1.875-.923-1.86 9.731-2.303c.473-2.386.744-4.81.961-7.232l-15.161.789s5.064 11.179 5.158 11.226 17.143-2.248 17.143-2.248-6.343-9.826-6.346-9.79zm-4.384 4.452 2.11 2.376-9.438 2.149-1.074-2.337zm-5.265-1.094 1.979 1.406-5.304 1.42-.659-1.39 3.983-1.437zm-3.325-.302.795.59-1.695.593-.344-.744zM7.175 2.026l-.796.029c-.479.953-.726 1.994-1.031 3.005-.106-.939.474-2.439-1.007-2.371-.46 1.873-.498 3.823-1.137 5.657-.686 2.457-1.891 4.748-2.357 7.266l3.824-.163c2.915-8.951 1.442-4.496 4.418-13.365l-1.915-.059zm2.555.079c-.468 1.163-.75 2.377-1.169 3.556a25 25 0 0 0-1.476 5.251c-.663 1.476-1.336 2.947-1.786 4.505l1.184-.044 3.457-.147c1.412-4.328 2.431-8.798 4.246-12.985l-4.457-.136zm5.85.179c-.923.684-.458.338-1.398 1.038a241 241 0 0 0-.774 3.784c-1.347 2.56-1.971 5.366-2.883 8.096l3.869-.165c1.64-4.191 3.386-8.348 4.734-12.644zm4.136.126-.221.173c-.469 2.386-1.895 4.574-2.122 7.008-.029.052-.012.237-.041.289-.954 1.696-1.975 3.272-2.553 5.14l2.864-.122c1.825-1.852 2.378-4.487 4.15-6.375 1.67-1.822 3.249-3.74 4.447-5.914l-.973-.03c-.894.875-.548.418-1.094 1.327-.077-.454-.123-.911-.187-1.366l-4.271-.131z"/></svg>