<svg xmlns="http://www.w3.org/2000/svg" width="27" height="32"><path fill="currentColor" d="M3.052 1.07c1.326 1.046 2.612 2.363 3.889 3.464-.189.392-.536.793-.724 1.18.422 1.513.87 2.99 1.158 4.527l-3.14-.073s2.748 7.646 3.92 11.371c.447 1.587 1.963 2.457 3.438 2.943.382-.59 1.166-1.713 1.166-1.713l.075 6.214s-1.168 1.366-1.889 1.947c-.8-3.61-1.765-7.737-5.261-9.701C3.946 16.408.27 6.818.27 6.818S-.31 5.187.232 4.572C1.156 3.466 2.264 2.28 3.053 1.07zM5.94 11.648c.052.039 1.967 6.646 3.06 9.845.268 1.086 1.39 1.51 2.249 2.05.238-.58.516-1.165.754-1.746-.72-.764-1.665-1.583-1.745-2.741-.153-2.208 1.614-3.305 1.535-3.322-.006-.001.015-.126 0-4.087 0-.006-5.778 0-5.853 0zm7.393 9.37c.958 0 1.735-.776 1.735-1.732s-.777-1.732-1.735-1.732-1.735.775-1.735 1.732.777 1.732 1.735 1.732M23.614 1.07c.79 1.21 1.898 2.396 2.821 3.502.541.615-.038 2.246-.038 2.246s-3.676 9.59-5.414 14.411c-3.497 1.964-4.462 6.09-5.261 9.701-.72-.58-1.889-1.947-1.889-1.947l.075-6.214s.783 1.123 1.166 1.713c1.475-.486 2.991-1.356 3.438-2.943 1.172-3.725 3.92-11.371 3.92-11.371l-3.14.073c.288-1.537.735-3.015 1.158-4.527-.189-.387-.536-.788-.724-1.18 1.276-1.101 2.563-2.418 3.889-3.464zm-2.887 10.578c-.052.039-1.967 6.646-3.06 9.845-.268 1.086-1.39 1.51-2.249 2.05-.238-.58-.516-1.165-.754-1.746.72-.764 1.665-1.583 1.745-2.741.153-2.208-1.614-3.305-1.535-3.322.006-.001-.015-.126 0-4.087 0-.006 5.778 0 5.853 0z"/></svg>