<svg xmlns="http://www.w3.org/2000/svg" viewBox="0 0 24 32">
    <path fill="currentColor"
        d="M18.486 28.106a2.863 2.863 0 0 1-2.863 2.863H2.861a2.863 2.863 0 0 1-2.863-2.863V7.949a2.863 2.863 0 0 1 2.863-2.863h2.028V3.893A2.863 2.863 0 0 1 7.752 1.03h12.762a2.863 2.863 0 0 1 2.863 2.863V24.05a2.863 2.863 0 0 1-2.863 2.863h-2.028zM15.623 6.995H2.861a.954.954 0 0 0-.954.954v20.157c0 .527.427.954.954.954h12.762a.954.954 0 0 0 .954-.954V7.949a.954.954 0 0 0-.954-.954m2.863 18.01h2.028a.954.954 0 0 0 .954-.954V3.894a.954.954 0 0 0-.954-.954H7.752a.954.954 0 0 0-.954.954v1.193h8.826a2.863 2.863 0 0 1 2.863 2.863v17.056z" />
</svg>