<svg xmlns="http://www.w3.org/2000/svg" width="26" height="32"><path fill="currentColor" d="M14.992 1.575c1.31.157.757.04 1.673.278 1.139.676 2.408 1.155 3.401 2.052.138.036.407.103.546.138q.524.518 1.06 1.024c.265.664.577 1.329.613 2.056-.265.111-.791.336-1.056.447.024.229.067.684.091.91.075.129.43.161.494.295.14.29-.03.691.059 1.002l1.732-.012q.117.344.219.692c.029.098.335.097.362.196.133.491-.041 1.09.02 1.6.15.273.469.15.623.427-.008 1.72-.044 3.816 0 5.536-.219.29-.487.59-.692.692-.545.272-.931-.072-.939.198l-.036 1.084.283.047c.261-.012.654.036.916.02l.732.728c.005.584-.107 1.454-.016 2.027.026.165.515.071.544.235.173 1.002.089 1.967.046 2.998.084.145.446.174.498.326.245.716-.114 1.621-.071 2.375q-1.18-.011-2.353-.028c-.55.02-1.095.044-1.645.071-.089.042-.134.359-.231.399-.343.143-.773.003-1.088.148-.051-.305.101-1.03.049-1.335-.05-.109-.487.019-.494-.099-.049-.84-.009-1.726.012-2.543-.007-5.078-.005-2.539-.008-7.616.004-1.973-.028-4.134-.103-6.104-.526-1.546-1.119-2.881-2.456-3.901A22.5 22.5 0 0 1 14.724 6.4c-2.559-.281-5.665.223-7.393 2.276-.727.751-1.421 1.973-1.73 2.966s-.445 3.757-.378 4.897c.01.166-.239.228-.264.392-.149.982-.106 2.305-.049 3.306.053 1.061-.194 2.183.049 3.219.065.277.409.083.544.346.111 2.131-.107 4.486-.087 6.622-1.004-.008-2.013-.008-3.017-.02a53 53 0 0 0-1.681-.941c-.866-1.807-.514-3.844-.554-5.774.293.004.886.008 1.182.012q.439-.444.878-.882c-.641-.221-1.89.044-2.013-.878-.154-2.721 0-5.449-.059-8.178.166-.162.494-.486.66-.652l1.281-.036c0-.194-.004-.577-.004-.767-.696-.281-1.392-.566-2.088-.846.308-1.78 1.052-3.083 2.09-4.566l.643-.593c.478-.53.506-.389.973-.931 1.304-1.109.633-.579 2.013-1.59.633-.411 1.266-.823 1.914-1.21.439.459.87.921 1.305 1.384.463-.225.933-.443 1.412-.645.589-.119 1.171-.289 1.772-.356q.019-.683.032-1.364c1.702-.016.756-.01 2.839-.017zm1.136 18.247c.331.007.975.668.992.983.016.294-.592 1.062-.978 1.07-.352.007-1.013-.698-1.024-.995-.014-.358.593-1.066 1.01-1.057zM12.775 7.267c-1.359.1-2.055.115-3.288.814-.656.479-1.38.943-1.861 1.435S6.39 11.642 6.39 11.642c-.067 1.455-.059 2.659-.043 4.115l-.474.522c.02 1.376-.18 3.486-.026 4.854.077.319.5-.015.494.297-.049 2.669-.098 5.471-.01 8.231.127.127.376.372.502.494 1.61-.253 3.243-.237 4.864-.186.297-.186.589-.376.882-.561 1.345.028 2.847.154 4.192.079.265-.089.129-.364.395-.445.327-.099.956-.003 1.285-.099.009-3.713-.052-1.986-.04-5.697q-.01-1.501-.02-3.009c-.008-1.795.024-3.587.02-5.378.059-1.803-.878-3.417-1.586-5.014-.7-.66-1.317-1.424-2.112-1.977-1.02-.517-.392-.264-1.94-.601z"/></svg>