<svg xmlns="http://www.w3.org/2000/svg" width="28" height="32" viewBox="0 0 28 32"><path fill="currentColor" d="m8.18 7.501 5.041-5.027a.766.766 0 0 1 1.08 0l5.041 5.027a.76.76 0 0 1 0 1.077l-5.041 5.027a.766.766 0 0 1-1.08 0L8.18 8.578a.76.76 0 0 1 0-1.077m7.935 7.944a.76.76 0 0 0 0 1.077l5.041 5.027a.766.766 0 0 0 1.08 0l5.041-5.027a.76.76 0 0 0 0-1.077l-5.041-5.027a.766.766 0 0 0-1.08 0zm-15.891 0a.76.76 0 0 0 0 1.077l5.041 5.027a.766.766 0 0 0 1.08 0l5.041-5.027a.76.76 0 0 0 0-1.077l-5.041-5.027a.766.766 0 0 0-1.08 0zm7.956 7.977a.76.76 0 0 0 0 1.077l5.041 5.027a.766.766 0 0 0 1.08 0l5.041-5.027a.76.76 0 0 0 0-1.077l-5.041-5.027a.766.766 0 0 0-1.08 0z"/></svg>