<svg xmlns="http://www.w3.org/2000/svg" width="24" height="32"><path fill="currentColor" d="M21.853.722c-2.102 2.939-3.917 6.068-5.743 9.182 1.292 1.314 2.485 2.755 3.199 4.47.696-.57 1.404-1.126 2.106-1.688.722-.639 2.056-1.198 2.959-1.463-1.308 1.738-3.007 3.119-4.477 4.71 1.025 2.663 2.851 5.468 2.499 8.439-.148.992-2.133-4.392-3.137-6.462-.112-.246-.299-.441-.491-.626-.098.13-.03.038-.2.279-.56.782-1.058 1.611-1.67 2.355.706 2.112 2.038 3.933 2.8 6.023.808 2.381 1.081 5.099.636 3.817-.674-1.942-1.064-3.005-2.581-4.256-.308-1.569-1.147-2.955-2.105-4.21-.122.121-.05.05-.217.212-.122.118-1.512.96-1.89 1.645q-.184.336-.379.664c.52.92 1.031 1.848 1.454 2.817-.094-.087-1.025-1.296-1.129-1.38-.278-.217-.518-.475-.759-.731-1.033 1.625-2.27 3.136-3.788 4.331-.161.123-.293.274-.438.401.92-2.051 2.111-3.962 3.28-5.876a26 26 0 0 1-1.725-2.6c-1.239 1.41-2.358 2.999-2.525 4.915-1.393 1.432-1.928 3.246-2.367 5.257-.29 1.328-.694-1.619-.174-4.083.488-2.315 2.219-4.288 2.504-6.621a8 8 0 0 1 .512-1.97c-.4-.528-.746-1.095-1.108-1.65-.303-.461-.671-.876-1.032-1.292l-.405.722c-.438.776-1.275 1.342-1.698 2.108-.413.747-.376 1.694-1.004 2.509-.839 1.091-1.353 2.803-1.549 2.382-1.158-2.497 1.37-5.013 1.884-7.315.176-.838.529-1.618.946-2.361-1.123-1.255-2.428-2.373-3.414-3.748.691.352 1.302.878 1.904 1.363a78 78 0 0 1 1.976 1.645c.733-1.076 1.61-2.042 2.453-3.032C4.712 6.976 2.321 4.475.001 1.912c2.987 1.607 6.037 3.494 8.133 6.234.2-.269.094-.123.316-.438a13.4 13.4 0 0 1 1.595-1.923c-1.254-1.476-2.6-2.871-3.958-4.25 1.76.95 3.543 1.897 5.074 3.2.862-.768 1.804-1.439 2.768-2.071-.746.854-1.423 1.764-2.092 2.679.319.304.607.637.885.977.586.733 1.24 1.407 1.898 2.074 1.75-3.106 4.283-5.695 7.233-7.675zm-9.18 15.55c-.202.306-.297.666-.389 1.017-.171.675.263 1.505.263 1.505s-1.272.547-1.443.753l-.25.297c.498.863 1.009 1.72 1.51 2.582.595-.974.257-.413 1.006-1.688.307-.533.666-1.032 1.024-1.531-.593-.967-1.13-1.966-1.721-2.934zm2.159-4.205-.219.366c-.37.632-.588 1.339-.837 2.024.801.915 1.586 1.863 2.167 2.937.821-.838.364-.389 1.383-1.337-.176-.208-.097-.101-.238-.321a60 60 0 0 0-2.256-3.669m-6.61-.941c-.608 1.055-1.195 2.123-1.787 3.188.851.72 1.62 1.525 2.352 2.363.543-.95 1.189-1.835 1.829-2.721-.515-.475-.967-1.012-1.395-1.565-.691-.891-.357-.471-1-1.264zm2.646-4.363c-1.186 1.849-.631.953-1.669 2.682q1.332 1.396 2.619 2.834c.782-1.095.247-.354 1.629-2.207a54 54 0 0 0-2.578-3.308z"/></svg>