<svg xmlns="http://www.w3.org/2000/svg" width="31" height="32" viewBox="0 0 31 32"><path fill="currentColor" d="m11.137 1.015-2.81 4.422c2.414-1.76 5.238-2.544 8.205-2.638 7.783 0 14.092 6.309 14.092 14.092s-6.309 14.092-14.092 14.092S2.44 24.674 2.44 16.891c-.022-2.839.91-5.567 2.449-7.93L0 11.916l3.812-5.953L2.2 3.061l2.852 1.661 6.086-3.707zm-3.183 5.01-.68 1.07 1.142 2.3L6.132 8.21l-1.124.679 2.926 1.306c.185 2.397.216 4.804.46 7.197.076.742.128 1.045.229 1.695.808 3.829 4.098 6.717 7.71 7.91 2.519-.465 4.679-2.218 6.268-4.166 2.709-3.749 1.78-8.66 2.519-12.975-3.036.296-5.994-.639-8.761-1.795-2.152 1.047-4.505 1.794-6.905 1.922zm2.602 5.928c2.012.143 3.918-.475 5.767-1.193 2.054.459 4.04 1.362 6.205 1.236-.312 2.582-.201 5.244-.887 7.768-.782 2.397-2.978 3.913-5.191 4.874-2.091-1.051-4.23-2.461-5.069-4.758-.908-2.529-.618-5.286-.824-7.926zm-1.278-.776c.523 3.813-.407 8.349 2.498 11.401 1.373 1.373 3.052 2.83 5.017 3.1 2.656-1.172 5.196-3.19 6.062-6.073.591-2.762.502-5.613.776-8.412-2.524-.042-4.937-.803-7.245-1.753-2.207 1.114-4.626 1.769-7.108 1.737"/></svg>