<svg xmlns="http://www.w3.org/2000/svg" width="28" height="32" viewBox="0 0 28 32"><path fill="currentColor" d="M1.507 13.987a12.46 12.46 0 0 1 2.199-5.301L2.638 7.618l2.847-2.847 1.068 1.068a12.5 12.5 0 0 1 5.301-2.199V2.133h4.026V3.64a12.46 12.46 0 0 1 5.301 2.199l1.068-1.068 2.847 2.847-1.068 1.068a12.5 12.5 0 0 1 2.199 5.301h1.507v4.026h-1.507a12.46 12.46 0 0 1-2.199 5.301l1.068 1.068-2.847 2.847-1.068-1.068a12.5 12.5 0 0 1-5.301 2.199v1.507h-4.026V28.36a12.46 12.46 0 0 1-5.301-2.199l-1.068 1.068-2.847-2.847 1.068-1.068a12.5 12.5 0 0 1-2.199-5.301H0v-4.026zm21.017 6.063a9.5 9.5 0 0 0 .899-4.05c0-5.274-4.282-9.556-9.556-9.556S4.311 10.726 4.311 16s4.282 9.556 9.556 9.556c1.45 0 2.826-.324 4.058-.903l-4.616-4.64a.75.75 0 0 0-.422-.209c-1.337-.2-2.071-.503-2.737-1.008-.096-.073-1.145-1.059-1.728-1.637-1.012-.998-1.066-2.233-1.243-3.544q-.04-.29.231-.399l.431-.172a.37.37 0 0 1 .431.086l2.578 2.587a.67.67 0 0 0 .504.209c.779-.016 1.266-.15 1.811-.642l.091-.107c.379-.418.662-1.048.546-1.689-.035-.193-.069-.365-.209-.504l-2.587-2.578a.37.37 0 0 1-.086-.431l.172-.431q.109-.272.399-.231c1.312.177 2.546.231 3.544 1.244.579.584 1.565 1.633 1.637 1.728.505.666.809 1.4 1.008 2.737a.75.75 0 0 0 .209.422l4.633 4.608z"/></svg>