<svg xmlns="http://www.w3.org/2000/svg" width="30" height="32" viewBox="0 0 30 32"><path fill="currentColor" d="M28.808 29.808c-.412.404-.834.798-1.255 1.192-1.378-1.188-2.387-3.481-4.474-3.302-5.457.047-10.915-.084-16.362.058-.899 1.304-1.936 3.034-3.731 3.02-2.666-.021-3.95-3.077-2.147-4.97.001.005.005.01.004.015-.167 1.958.387 2.458.763 2.524 1.069.189 1.535-.757 1.814-1.567.689-1.866-.478-3.864.147-5.741.757-2.45 2.871-4.548 5.426-5.005 1.257-.342 1.835 1.299 2.997 1.33a9.6 9.6 0 0 0 1.546-.92c-2.298-2.387-4.706-4.664-7.103-6.951-1.078 1.735-1.746 3.738-3.139 5.279C2.015 10.237 1.047 5.624.028 1.028 4.624 2.054 9.237 3.011 13.77 4.294c-1.54 1.393-3.544 2.061-5.279 3.139 2.287 2.398 4.564 4.806 6.951 7.103a9.5 9.5 0 0 0 .92-1.546c-.032-1.162-1.672-1.74-1.33-2.997.457-2.555 2.555-4.669 5.005-5.426 1.877-.626 3.875.542 5.741-.147.81-.279 1.756-.745 1.567-1.814-.066-.376-.566-.93-2.524-.763q-.008-.001-.015-.004c1.893-1.803 4.949-.52 4.97 2.147.014 1.796-1.716 2.832-3.02 3.731-.142 5.447-.011 10.904-.058 16.362-.179 2.087 2.114 3.097 3.302 4.474-.368.399-.745.791-1.122 1.181l-.07.073zm-20.58-8.064c-.233.241-.284.274-.473.552-.82 1.213-.842 2.759-1.16 4.14 5.662.042 11.33.032 16.993.005-2.776-2.766-5.547-5.536-8.333-8.291-1.141 1.425-2.208 2.918-3.465 4.248-.815-.552-1.656-1.987-2.755-1.172-.291.137-.572.294-.807.518M20.744 9.228c-.224.236-.381.516-.518.807-.815 1.099.62 1.94 1.172 2.755-1.33 1.257-2.823 2.324-4.248 3.465 2.755 2.787 5.526 5.557 8.291 8.333.026-5.663.037-11.33-.005-16.993-1.381.318-2.927.34-4.14 1.16-.278.188-.311.24-.552.473"/></svg>