<svg xmlns="http://www.w3.org/2000/svg" width="100%" height="100%" viewBox="0 0 24 24"><path fill="currentColor" d="m27.005 8.88 2.741 6.546s1.328 2.502 1.276 3.925c.093 1.774-.759 3.507-2.467 4.13-.864.293-.832 1.467-1.203 2.163-.118.176-.216.219-.348.218a.42.42 0 0 1-.348-.218c-.365-.699-.339-1.87-1.203-2.163-1.352-.497-2.094-1.63-2.394-2.989h-3.087c-.251 1.357-1.099 2.482-2.394 2.989-.864.293-.832 1.467-1.203 2.163-.118.176-.216.219-.348.218a.42.42 0 0 1-.348-.218c-.365-.699-.339-1.87-1.203-2.163-1.352-.497-2.094-1.63-2.394-2.989H8.995c-.251 1.357-1.099 2.482-2.394 2.989-.864.293-.832 1.467-1.203 2.163-.118.176-.216.219-.348.218a.42.42 0 0 1-.348-.218c-.365-.699-.339-1.87-1.203-2.163-1.707-.623-2.559-2.356-2.467-4.13-.052-1.423 1.276-3.925 1.276-3.925L5.082 8.85l2.711 6.576s.852 1.659 1.114 2.558h3.265c.231-.908 1.114-2.558 1.114-2.558s2.698-6.546 2.728-6.546 2.757 6.546 2.757 6.546.852 1.659 1.113 2.558h3.265c.231-.908 1.113-2.558 1.113-2.558l2.744-6.546zm-10.979 3.955c-.249 1.136-.5 1.767-.482 3.444-1.386.365-2.563 1.574-2.542 3.064-.006 1.499 1.161 2.677 2.556 3.024.023.916.144 1.83.469 2.686.022-.091.063-.165.095-.253.271-.74.364-1.612.405-2.426 1.351-.386 2.557-1.544 2.522-3.025.061-1.505-1.148-2.696-2.528-3.055 0-1.174-.121-2.34-.495-3.459m.498 4.424.156.071c.782.397 1.417 1.081 1.418 1.999.035.977-.759 1.728-1.603 2.076zm-.966-.016v.004q.013 2.072.019 4.145c-1.035-.217-1.754-1.275-1.598-2.333.083-.886.832-1.457 1.579-1.816m11.445-4.408c-.249 1.136-.5 1.767-.482 3.444-1.386.365-2.563 1.574-2.542 3.064-.006 1.499 1.161 2.677 2.556 3.024.023.916.144 1.83.469 2.686.022-.091.063-.165.095-.253.272-.74.364-1.612.405-2.426 1.351-.386 2.557-1.544 2.522-3.025.061-1.505-1.148-2.696-2.528-3.055 0-1.174-.121-2.34-.495-3.459m.498 4.424.156.071c.782.397 1.417 1.081 1.418 1.999.035.977-.759 1.728-1.603 2.076zm-.967-.016v.004q.013 2.072.019 4.145c-1.035-.217-1.754-1.275-1.598-2.333.083-.886.832-1.457 1.579-1.816M5.049 12.835c-.249 1.136-.5 1.767-.482 3.444-1.386.365-2.563 1.574-2.542 3.064-.006 1.499 1.162 2.677 2.556 3.024.023.916.144 1.83.469 2.686.022-.091.063-.165.095-.253.272-.74.364-1.612.405-2.426 1.351-.386 2.557-1.544 2.522-3.025.061-1.505-1.148-2.696-2.528-3.055 0-1.174-.121-2.34-.495-3.459m.498 4.424.156.071c.782.397 1.417 1.081 1.418 1.999.035.977-.759 1.728-1.603 2.076zm-.966-.016v.004q.013 2.072.019 4.145c-1.035-.217-1.754-1.275-1.598-2.333.083-.886.832-1.457 1.579-1.816"/><path fill="currentColor" d="M5.177 5.547c1.634 3.699 3.205 7.429 4.417 11.29h1.81c.161-.549.365-1.084.56-1.622a86 86 0 0 1 1.248-3.213c.881-2.179 1.851-4.319 2.831-6.455 1.653 3.69 3.183 7.437 4.417 11.29h1.818c.162-.549.365-1.084.56-1.622a86 86 0 0 1 1.248-3.213c.881-2.179 1.851-4.319 2.831-6.455 1.635 3.631 3.248 7.348 4.483 11.134.321.889.573 2.282.596 2.731s-.041 1.144-.204 1.852l-.074.303c-.56 2.581-2.045 4.776-4.918 4.886-2.658-.071-4.194-2.562-4.774-4.886h-1.278c-.56 2.581-1.949 4.776-4.822 4.886-2.662-.071-4.193-2.562-4.776-4.886H9.883c-.56 2.581-1.949 4.776-4.822 4.886-3.451-.013-5.06-4.29-5.06-7.078.107-1.431.61-2.82 1.098-4.16a86 86 0 0 1 1.248-3.213 149 149 0 0 1 2.831-6.455zm21.734.661q-.28.608-.555 1.219a158 158 0 0 0-1.776 4.093 126 126 0 0 0-.556 1.359 97 97 0 0 0-1.456 3.999c-.041.145-.152.228-.372.23l-1.663-.001c-.284 0-.356-.259-.356-.259-.402-1.345-.891-2.661-1.385-3.974a138 138 0 0 0-2.229-5.457q-.26-.606-.526-1.21-.28.608-.554 1.219a158 158 0 0 0-1.776 4.093 126 126 0 0 0-.556 1.359 66 66 0 0 0-1.472 4.051c-.031.094-.134.174-.361.175-1.162.009-.534.003-1.65.002-.284 0-.356-.259-.356-.259-.402-1.345-.891-2.661-1.385-3.974a138 138 0 0 0-2.229-5.457q-.26-.606-.526-1.21-.28.608-.554 1.219a158 158 0 0 0-1.776 4.093 126 126 0 0 0-.556 1.359C1.015 16.046.275 18.358.275 19.373c0 1.451.438 3.147 1.198 4.442.881 1.5 2.104 2.358 3.59 2.364 1.592.006 2.813-.779 3.648-2.202.451-.745.694-1.579.897-2.418h.007s.106-.253.324-.265c.381-.009.763-.006 1.144-.004a.33.33 0 0 1 .342.245c.214.822.499 1.543.914 2.282.881 1.5 2.104 2.358 3.59 2.364 1.592.006 2.813-.779 3.648-2.202.451-.745.694-1.579.898-2.418h.007s.106-.253.324-.265l.099-.003c.75-.004.371-.008 1.034-.003a.39.39 0 0 1 .377.269c.228.867.46 1.48.898 2.26.881 1.5 2.104 2.358 3.59 2.364 1.592.006 2.834-.809 3.708-2.209.464-.743.73-1.572.933-2.412.187-.701.347-1.56.272-2.249-.187-1.72-.54-2.47-.544-2.482-.402-1.345-.948-2.631-1.442-3.944-.171-.446-.37-.927-.556-1.397-.539-1.355-1.158-2.727-1.735-4.07q-.26-.606-.526-1.21z"/></svg>