<svg xmlns="http://www.w3.org/2000/svg" width="29" height="32" viewBox="0 0 29 32"><path fill="currentColor" d="M27.603 13.279c.245.001.132-.001.34.005.595.022 1.081 1.011.749 1.512l-9.747 14.748c-.39.626-1.223.755-1.597.347-.198-.216-.354-.622-.354-.622s-2.814-7.804-2.876-7.969c-.2-.538.297-.645.447-.65.112-.004 3.734-.234 3.734-.234a1.12 1.12 0 0 0 1.02-1.382s-1.179-4.884-1.245-5.139.044-.499.331-.506c.237-.006 9.045-.101 9.045-.101.047-.009.109-.008.152-.01zm-16.829-11.4c-.356.072-.648.194-.859.508L.168 17.135c-.331.501-.197 1.501.635 1.517.403.011.806.029 1.21.036 2.801.05 7.88.017 7.999.024.146.009.669-.059.486-.69-.04-.139-1.23-4.918-1.23-4.918a1.12 1.12 0 0 1 1.037-1.388l3.845-.154s.598-.025.362-.682c-.117-.325-2.694-8.271-2.694-8.271s-.164-.358-.307-.494a.96.96 0 0 0-.735-.236zm9.193 4.763-5.131 6.002-4.481.204 1.392 5.636-3.056 6.96 5.127-5.873 4.414-.272-1.392-5.738 3.128-6.919z"/></svg>