<svg xmlns="http://www.w3.org/2000/svg" width="15" height="32"><path fill="currentColor" d="M13.016.043c-.025 1.258-.11 2.643-.8 3.889-.608 1.099-2.592 1.324-2.427 3.047.007.073.009.254.083.262.441.046.786-.167 1.405.199.063.037.187.139.254.173.062.877-.033 1.905-.082 2.785.061.029.165.066.229.088 1.178.404 2.87 1.47 3.682 3.776-.165 9.403-.234 13.526-.234 13.553s-.626.733-.932 1.057c-1.147.999-2.211 2.084-3.352 3.086C7.456 31.192 4.097 30.3.719 29.5c-.849-.068-.711-1.04-.71-1.663.004-2.42.112-4.678.197-7.232.068-1.848-.16-4.256.678-5.973 1.084-1.837 2.508-3.321 4.579-4.25q.062-.03.121-.064c.003-.857-.093-1.782-.014-2.634.073-.033.181-.118.249-.149.495-.224.575-.51 1.833-.334.029.004.011-.179.014-.207.138-1.613-1.529-1.703-2.096-2.22-.678-.618-1.409-1.529-1.409-2.813 0-.469-.449-.723-.494-.882-.164-.576-.083-.965-.083-.965l9.432-.069zM3.407 15.798c-.921.011-1.473.139-2.233.611-.216 7.715-.154 11.723-.154 11.723s.4.207 1.204.393c2.489.577 4.999.971 7.534 1.204.06-12.008.058-12.231.06-12.228.028.028-3.428-1.664-5.585-1.696zm10.491-.159c-.621.179-1.227.441-1.779.869-.376.291-.833.622-.979 1.048.028 11.528.013 11.657.014 11.735 1.15-.627 2.965-2.482 2.951-2.468-.174-10.967-.118-11.209-.207-11.183zm-3.804-5.174.068.011c-1.435.095-2.564.102-3.58.023-.09-.007-.169.056-.176.141s.066.134.149.166c.993.386 2.183.42 3.596.034.087-.024.158-.168.152-.253s-.119-.127-.209-.121zM8.486 1.604l-2.834.038c.006.724-.256 1.59.267 2.192.596.732 1.457 1.287 2.436 1.324 1.232.128 2.279-.654 2.903-1.628.156-.616.084-1.292.061-1.916l-2.834-.011zm.4 21.317c-1.481.976-2.634 1.26-3.326-.621-.654-.13-.913.221-1.44.514 0 .639-.243 1.236-.243 1.919 2.112.399.356 2.042.565 3.155.054.015.21.093.262.116 1.227.563 2.581.609 3.907.309.057-.013.102-.027.16-.035.416-.093.257-.585.231-.732-.08-.643-.284-1.152-.045-2.015.262-.947.497-1.62.187-2.62zm-1.604-3.714c-.019.048-.041.102-.055.148-.12.4-.466.554-.594.917-.225.635.296.656.159.929-.115.23-.319.194-.467.49-.163.325-.103.718.148 1.026.494.647 1.728.123 1.892-.547.301-1.232-.667-1.143-.523-1.75.118-.497-.303-.904-.559-1.214z"/></svg>