<svg xmlns="http://www.w3.org/2000/svg" width="100%" height="100%" viewBox="0 0 24 24"><path fill="currentColor" d="M27.931 2.684c.711-1.338 1.715-1.359 2.805-2.275.083-.07.321-.328.415-.38.653 1.209 1.206 3.001.565 4.349-.762 2.062-1.941 3.994-2.321 6.163-.125.717.711.424 1.192.863l-.314 1.192c-.24.111-.926-.014-1.216-.035a.56.56 0 0 0-.472.17c-.163.181-.033.909-.368 1.276-1.002 1.096-1.393 2.96-2.69 2.583-.578-.168-.585-.753-.376-1.485.223-.78-1.213-.23-.719-2.272.108-.448 1.032-.258 1.242-.781.103-.258-.401-.406-.627-.669-.09-.105-.089-.956.021-.962.416-.022.983.132 1.071-.213.832-3.269.826-4.679 1.044-5.159 1.304.22 1.611.458 1.611.458-.08-.454-1.153-1.427-1.148-1.417s.087-1.029.287-1.405zm-13.681.153c-1.07.305-.832 1.739-1.247 2.495-.965 1.755 1.03 1.91 1.55 2.91.036.738-.366 1.594-.496 2.308 1.962-.523 4.185-.985 6.241-.834-.218-.665-.925-1.064-.907-1.984.008-.417.567-.567.548-1.039-.023-.567.584-.535.643-.794.246-1.077-.319-1.121-.416-1.625-.17-.888-.227-1.89-.964-2.457-.729-.561-2.154.378-2.759.605-.664.249-1.522.192-2.192.416zM0 14.346c1.134 2.249 2.721 5.159 3.742 6.558.776 1.063 3.846 1.998 5.827 2.793.838-1.47 1.789-3.419 2.186-5.061.471-1.947-.843-3.726-3.118-8.92zm11.643-1.625c.148 1.548.717 3.009 1.125 4.499.49 1.817 1.203 3.577 2.183 5.186.568.971 2.143 1.522 2.209 2.486.042.612-.482 1.039-.907 1.493a1.38 1.38 0 0 0-.151 1.71c.542.796.151 2.542 1.153 3.506.612.589 1.98.398 2.721-.019.841-.472.227-2.088.51-2.703.064-.14.168-.436.387-.614.302-.246.359-1.236.151-1.578-.425-.699-1.215-1.234-1.209-1.691.019-1.512 2.116-1.069 2.391-2.523 1.007-3.381 1.307-7.646 1.304-11.15-1.751-.496-3.647-.505-5.443-.435-2.419.095-4.425.977-6.424 1.833"/></svg>