<svg xmlns="http://www.w3.org/2000/svg" width="17" height="32"><path fill="currentColor" d="M15.985 20.433c-.777 2.429-2.013 4.897-4.122 6.431.12.909 1.094 1.166 1.867 1.237.042-.002.011.006 0 .006v.972H3.191v-.964c-.018-.001-.05-.002-.06-.006-.007-.003.014-.005.022-.006l.039-.003c.896-.052 1.939-.396 1.939-1.457-1.971-1.584-3.292-3.822-4.054-6.211h14.909zM14.854 7.086c.162 0 .368.131.572.437.271.406.438.998.438 1.646s-.167 1.239-.438 1.646c-.204.306-.411.437-.572.437s-.368-.131-.572-.437c-.271-.406-.438-.998-.438-1.646s.167-1.239.438-1.646c.204-.306.411-.437.572-.437m-12.708 0c.162 0 .368.131.572.437.271.406.438.998.438 1.646s-.167 1.239-.438 1.646c-.204.306-.41.437-.572.437s-.368-.131-.572-.437c-.271-.406-.438-.998-.438-1.646s.167-1.239.438-1.646c.204-.306.411-.437.572-.437m12.648-4.165H2.133v.9l1.495 1.8c.022.035.05.067.066.105.031.075.059.151.074.231.047.255-.052.578-.33.643-.325-.335-.71-.585-1.182-.646l-.11-.004C.961 5.95 0 7.391 0 9.169c.012.694.135 1.4.475 2.014v.014c.19.326.239.716.247 1.087-.01.236-.019.476-.087.704a5 5 0 0 0-.188.694H16.55c-.05-.229-.099-.459-.186-.678a3 3 0 0 1-.091-.72c.007-.371.057-.76.247-1.087v-.005c.339-.616.474-1.325.48-2.023 0-1.778-.961-3.219-2.146-3.219-.507.019-.941.256-1.276.632-.053-.014-.054-.013-.128-.095-.191-.209-.166-.52-.057-.76.029-.065.075-.12.113-.18l.089-.12.06-.068-.014.006 1.152-1.543v-.9zm-6.98 12.715H4.733v2.729c1.582.002.628.003 2.862-.014l.22-.003v-2.712zm4.481.002H9.214v2.707c2.251.023 1.224.018 3.081.02zm-9.042.023H.406s-.915.6 0 2.493c.09.071.479.086.576.093.755.058 1.514.07 2.27.093zm10.344.002h2.847s.915.6 0 2.493c-.09.071-.479.086-.576.093-.755.058-1.514.07-2.271.093z"/></svg>