<svg xmlns="http://www.w3.org/2000/svg" width="27" height="32"><path fill="currentColor" d="m15.756 19.759 6.53 6.135.046 2.961h-3.007q-1.698-1.83-3.399-3.658l-.121-3.87-.003-.097zm1.288-6.03-.027.017c-.438.481-.941.899-1.4 1.359q.072 2.245.142 4.489 1.722-1.83 3.438-3.667c.054-.116-.1-.305-.16-.386-.35-.48-1.387-1.697-1.994-1.812zm1.133-3.071c-.149 0-.23-.005-.346.106l-1.108 1.108a.384.384 0 0 0 0 .545l.525.525c.133-.071.299-.007.426.044q.163.074.372.234c.24.182.535.449.829.746.289.293.555.594.74.839q.158.208.235.366c.053.132.132.29.059.433l.52.52a.384.384 0 0 0 .545 0l1.108-1.108a.384.384 0 0 0 0-.545l-3.706-3.706c-.099-.081-.036-.04-.199-.106zm2.597-.382c-.149 0-.23-.005-.346.106l-.454.454a.384.384 0 0 0 0 .545l1.49 1.49c.151.15.395.15.545 0l.454-.454a.384.384 0 0 0 0-.545l-1.49-1.49c-.099-.081-.036-.04-.199-.106m1.099-1.426c-.248 0-.359-.012-.554.169a.616.616 0 0 0 0 .872l1.635 1.635a.616.616 0 1 0 .872-.872l-1.635-1.635c-.159-.129-.058-.063-.318-.169m3.289-1.903.11.008c.331.135.203.051.405.215a.785.785 0 1 1-1.109 0c.187-.144.35-.234.595-.223zm.52-.764c-.549.056-1.071.088-1.541.407-.025.009-.002 0-.058.047l-.001.001c-.516.569-.899 1.242-1.273 1.909 0 0 .363.509.665.812.327.327.825.678.825.678s1.454-.789 1.912-1.276c.559-.689.453-1.714.44-2.548-.532-.033-.21-.018-.969-.03m-13.876 6.226c-.024-.342 3.071-.303 3.084.001.026.592.546 17.343.546 17.343l-1.978 1.978-2.21-1.978s.621-16.46.558-17.343zm.418-5.177h2.107c.213 0 .385.173.385.385v.642a.385.385 0 0 1-.385.385h-2.107a.385.385 0 0 1-.385-.385v-.642c0-.213.173-.385.385-.385m3.674 2.107c.213 0 .385.173.385.385v1.567a.385.385 0 0 1-.385.385h-.736c-.049-.153-.217-.208-.348-.264a2.4 2.4 0 0 0-.425-.092 9 9 0 0 0-1.117-.07 8 8 0 0 0-1.114.059 2 2 0 0 0-.428.098c-.126.054-.288.126-.332.27h-.742a.385.385 0 0 1-.385-.385V9.725c0-.213.173-.385.385-.385h5.241zm-3.777-3.931h2.312a.617.617 0 1 1 0 1.234h-2.312a.617.617 0 1 1 0-1.234m1.157-3.772a.784.784 0 1 1 0 1.568.784.784 0 0 1 0-1.568M13.29.27c-.637.562-1.312 1.178-1.508 2.042-.011.024-.001.001-.008.075v.001c.038.767.243 1.514.45 2.25 0 0 .616.104 1.044.104.463 0 1.063-.104 1.063-.104s.47-1.586.45-2.255c-.141-.906-.856-1.517-1.49-2.113zm-2.379 19.489-.046 1.471-.003.097-.121 3.87a2941 2941 0 0 0-3.399 3.658H4.335l.046-2.961zm-1.288-6.03.027.017c.438.481.941.899 1.4 1.359q-.072 2.245-.142 4.489-1.722-1.83-3.438-3.667c-.054-.116.1-.305.16-.386.35-.48 1.387-1.697 1.994-1.812zM8.49 10.658c.149 0 .23-.005.346.106l1.108 1.108c.15.15.15.395 0 .545l-.525.525c-.133-.071-.299-.007-.426.044a2 2 0 0 0-.372.234c-.24.182-.535.449-.829.746a9 9 0 0 0-.74.839q-.158.208-.235.366c-.053.132-.132.29-.059.433l-.52.52a.384.384 0 0 1-.545 0l-1.108-1.108a.384.384 0 0 1 0-.545l3.706-3.706c.099-.081.036-.04.199-.106zm-2.598-.382c.149 0 .23-.005.346.106l.454.454a.384.384 0 0 1 0 .545l-1.49 1.49a.386.386 0 0 1-.545 0l-.454-.454a.384.384 0 0 1 0-.545l1.49-1.49c.099-.081.036-.04.199-.106M4.794 8.85c.248 0 .359-.012.554.169a.616.616 0 0 1 0 .872l-1.635 1.635a.616.616 0 1 1-.872-.872l1.635-1.635c.159-.129.058-.063.318-.169M1.505 6.947l-.11.008c-.331.135-.203.051-.405.215a.785.785 0 1 0 1.109 0c-.187-.144-.35-.234-.595-.223zm-.52-.764c.549.056 1.071.088 1.541.407.025.009.002 0 .058.047l.001.001c.516.569.899 1.242 1.273 1.909 0 0-.362.509-.665.812-.327.327-.825.678-.825.678S.914 9.248.456 8.761c-.559-.689-.453-1.714-.44-2.548.532-.033.21-.018.969-.03"/></svg>