<svg xmlns="http://www.w3.org/2000/svg" width="100%" height="100%" viewBox="0 0 24 24"><path fill="currentColor" d="M15.997 3.063c.634 3.542.297 1.59.992 5.861.852.083 1.641.425 2.364.865l7.936-5.762-5.774 7.953c.317.555.601 1.147.73 1.778l9.754 1.548-9.754 1.548c-.127.646-.431 1.228-.741 1.799l5.786 7.968-7.962-5.781c-.483.274-.253.162-.683.347l.122 1.073 5.061 3.998H8.172l4.927-4.078.125-1.008c-.529-.244-.267-.104-.784-.423l-8.087 5.872 5.934-8.173c-.282-.502-.518-1.044-.633-1.61L0 15.306l9.654-1.532c.116-.567.355-1.097.629-1.603L4.37 4.026l8.053 5.847c.761-.53 1.643-.822 2.554-.953.717-4.26.372-2.308 1.02-5.858zm1.183 7.027c.501 3.306.959 6.628 1.335 9.95 1.809-1.089 2.713-2.633 2.819-4.734-.048-2.443-1.704-4.717-4.155-5.217zm-2.398-.012c-2.567.506-4.087 2.716-4.213 5.229.025 1.605.713 3.124 1.959 4.154.26.215.559.378.839.567.444-3.318.86-6.646 1.416-9.949z"/></svg>