<svg xmlns="http://www.w3.org/2000/svg" width="19" height="32"><path fill="currentColor" d="M9.106 1.121c.187-.346.38-.699.453-1.089.1.535.381 1.01.647 1.477.064.117.132.235.169.364.121.475.381.902.667 1.295.098.14.228.257.298.415.213.442.377.906.581 1.352.131.355.11.741.14 1.113.143-.097.218-.257.292-.406.11-.24.2-.491.257-.749.035-.145-.027-.286-.057-.426a1.09 1.09 0 0 1 .204-.939c.008.456.128.913.374 1.299.23.37.551.671.872.962.184.162.287.392.352.623.034.105.051.219.113.313.058.088.207.023.21-.072.002-.077-.031-.151-.032-.228.025-.061.073-.114.083-.181-.002-.051-.015-.101-.015-.152.044-.083.117-.148.155-.234.102-.212.144-.448.163-.681.017-.173-.029-.343-.069-.51a6.4 6.4 0 0 0-.293-.887c-.043-.097-.086-.197-.153-.281-.044-.057-.143-.069-.15-.151-.005-.099.142-.106.144-.202.004-.152-.106-.273-.198-.382.069-.017.155-.042.213.016.151.156.091.416.249.567.275.291.531.602.735.947.158.269.282.563.328.873.029.182.006.368.043.549.072.393.188.776.257 1.17.101.542.135 1.1.065 1.648-.043.311-.135.63-.35.868-.227.254-.548.389-.821.584a2.3 2.3 0 0 0-.71.793c-.069.136-.206.219-.289.346-.14.199-.173.45-.176.687 0 .131-.046.268.009.393.042.095.148.13.221.197-.056.039-.114.079-.141.144.089.062.224.115.199.25-.236-.001-.423-.163-.555-.341-.149-.204-.368-.339-.585-.46a1.3 1.3 0 0 1-.2-.129c.024-.319-.001-.642.058-.959.161-.087.361-.112.486-.257.156-.183.176-.437.182-.667.023-.369-.249-.675-.253-1.041.007-.324-.162-.626-.387-.85a1.4 1.4 0 0 1-.293-.367c-.036-.059-.057-.137-.124-.17-.09-.014-.12.098-.106.166-.003.104.088.165.138.244.074.124.063.274.103.409.016.068.053.141.019.21-.075.162-.269.265-.264.462-.149.039-.304.036-.455.058a1.6 1.6 0 0 0-.686.239c-.072-.145-.08-.309-.123-.462-.026-.106-.138-.146-.22-.199.007.191-.011.395-.13.553-.197.264-.518.394-.823.491a.72.72 0 0 1 .153-.494c.196-.236.5-.333.738-.516a.07.07 0 0 0 .035-.076c.198-.117.413-.216.572-.386.172-.176.263-.418.281-.66a2.7 2.7 0 0 0-.428-1.637c-.106-.17-.234-.324-.351-.487a.5.5 0 0 1-.087-.19 1.34 1.34 0 0 0-.313-.633c-.086-.094-.2-.162-.265-.273a1.2 1.2 0 0 0-.329-.332 1.9 1.9 0 0 0-.427-.24c-.062-.025-.13-.035-.189-.065-.091-.081-.118-.215-.222-.284-.053-.039-.119-.012-.176.001.045.129.073.263.117.391.086.089.234.119.285.242.042.117.079.238.143.346.065.125.159.231.226.354.05.093.009.2-.025.292-.057.152-.156.283-.222.431-.006.108.091.191.109.297a1.5 1.5 0 0 0-.359.176c-.163.115-.287.275-.443.397-.22.183-.488.29-.72.455a1.73 1.73 0 0 0-.624.727 2 2 0 0 0-.159.818c0 .144-.001.296.065.428.06.127.163.226.265.321-.287-.025-.586-.078-.824-.248-.18-.126-.293-.356-.247-.574.064-.233.206-.444.233-.687.012-.066-.022-.124-.065-.17-.634.477-1.035 1.224-1.144 2-.039.303-.038.62.066.912.057.156.153.308.305.387.09.051.199.043.293.081.236.087.495.126.704.275a.7.7 0 0 1 .228.27c-.177-.022-.368-.033-.517-.14-.169-.119-.314-.267-.467-.405.044.404.123.804.152 1.209-.321.311-.71.538-1.081.783a.8.8 0 0 1-.268-.182c.101-.208.191-.424.243-.65.051-.208.041-.426.017-.637-.017-.124-.051-.265-.164-.336-.091-.06-.189-.119-.238-.22-.073-.147-.127-.304-.217-.442a1.4 1.4 0 0 0-.468-.478c-.238-.151-.524-.221-.74-.409-.181-.154-.284-.377-.346-.602-.111-.422-.125-.862-.12-1.295.02-.779.403-1.491.463-2.265.018-.178-.02-.362.035-.535.036-.124.114-.229.181-.338.108-.176.155-.38.25-.563.04-.086.134-.123.2-.185.187-.17.34-.374.523-.548.034-.034.07-.067.092-.11.039-.091.022-.198.069-.286.037-.067.111-.101.176-.137-.056.164-.113.338-.08.513.008.06.034.119.025.18-.037.061-.096.104-.137.162-.07.091-.088.209-.158.3a.5.5 0 0 0-.119.254c-.021.123.028.247.001.369-.037.077-.12.12-.159.196-.054.099-.022.216-.03.323-.011.153-.026.309.007.46.033.193.135.363.213.539.057.118.022.251.037.376a.66.66 0 0 0 .228.452c.092.08.205.127.319.167.042-.399.196-.775.364-1.136.39-.821.899-1.577 1.401-2.333-.142.338-.198.705-.217 1.068-.011.296-.002.598.085.884.046.151.131.305.287.366.078-.817.396-1.596.839-2.282.282-.447.625-.852.949-1.269.071-.105.173-.21.17-.344-.008-.093-.118-.057-.179-.055.102-.233.246-.446.365-.67zm8.504 6.088c.039.13.099.27.052.406-.013.051-.064.106-.018.155.101.152.182.317.251.485.123.314.249.645.219.988-.01.144-.019.298-.101.423-.041.065-.086.133-.084.213a1.5 1.5 0 0 1-.112.608c-.119.277-.35.485-.591.658-.322.233-.68.439-.913.77-.174.239-.253.533-.274.825a.9.9 0 0 1 .208-.229c.255-.187.58-.216.881-.28.166-.036.351-.079.458-.222.139-.179.138-.416.223-.618a.14.14 0 0 1 .186-.082c.073.091.078.214.082.326.013.382-.051.763-.163 1.128-.093.282-.221.577-.468.758a.66.66 0 0 1-.561.09l-.016.107c-.251-.046-.532.034-.688.242.233.014.466-.04.669-.153-.142.616-.701 1.028-.848 1.641-.053-.017-.11-.041-.13-.098-.068-.16-.08-.336-.125-.502a1.2 1.2 0 0 0-.066.343c-.024.409.061.813.111 1.217.028.369-.07.732-.098 1.098a.6.6 0 0 0 .055.331c.094-.219.204-.432.35-.621.245-.328.586-.572.949-.758.321-.173.673-.312.935-.574.169-.166.271-.386.327-.612-.14.23-.37.418-.642.46-.062.01-.171.003-.166-.082a.8.8 0 0 1 .177-.32c.159-.175.411-.225.57-.4.138-.147.197-.346.232-.54.057-.343.048-.693.03-1.04a1.8 1.8 0 0 1-.553.783c-.072.05-.164.123-.255.083-.07-.059-.049-.165-.036-.244.05-.227.26-.36.444-.476.306-.184.621-.384.813-.694.273-.429.296-.96.254-1.452-.035-.459-.178-.898-.267-1.348-.05-.232-.022-.471-.067-.703a3.3 3.3 0 0 0-.396-1.064c-.159-.227-.369-.41-.556-.613a2 2 0 0 1-.279-.417zm-16.361.797c-.118.111-.273.185-.362.324-.1.156-.169.33-.24.5-.06.155-.135.304-.171.467-.113.477-.194.961-.278 1.445-.055.339-.114.677-.157 1.017-.045.38-.003.786.208 1.114.169.269.433.46.701.624.152.099.321.184.43.334.149.199.329.375.468.582.058.089.125.2.068.306a.67.67 0 0 1-.322-.079 1.52 1.52 0 0 1-.703-.832c.069.559.179 1.129.467 1.621.189.326.49.593.852.712.232.085.482.104.719.169.191.051.314.216.426.366.199.278.397.584.722.729a2 2 0 0 1-.219-1.429c.038-.176.112-.343.138-.521.027-.205-.019-.409-.075-.605-.043.112-.063.233-.118.341-.044.086-.155.035-.222.012-.279-.127-.502-.346-.705-.57a2.6 2.6 0 0 1-.537-.912c-.063-.066-.158-.081-.236-.123-.278-.132-.462-.394-.584-.666a3.1 3.1 0 0 1-.265-.967c-.017-.203-.016-.418.069-.608.008-.033.065-.046.082-.013.058.096.073.209.123.31.117.274.358.483.635.59.307.123.648.148.937.315.183.101.327.257.442.428.053-.423.052-.867-.11-1.269-.127-.344-.389-.624-.49-.979-.065-.222-.047-.457-.004-.681a.8.8 0 0 0-.252.238c-.149.23-.185.511-.197.778-.009.155.008.312-.023.466-.143-.095-.238-.242-.357-.362-.182-.192-.409-.331-.635-.464-.126-.083-.077-.255-.073-.38.035-.184-.082-.341-.136-.508a1.36 1.36 0 0 1-.077-.737c.021-.129.122-.227.146-.356.051-.248.116-.501.267-.71.038-.061.098-.109.126-.176-.02-.069-.056-.132-.067-.203-.019-.109 0-.218.015-.325a1.6 1.6 0 0 1-.428.685zm10.995 3.095a.6.6 0 0 0-.345.383c.222-.023.436-.106.614-.239.109-.075.198-.175.308-.249l-.05-.032c-.177.04-.361.06-.527.137m-3.722 2.737c.079-.053.164-.114.263-.114.088.016.155.082.219.139.248.237.448.518.686.764.043.04.086.09.148.101.064-.032.114-.085.163-.136.217-.234.407-.493.637-.715.062-.057.127-.119.209-.147.078-.018.153.026.219.064.407.266.69.677 1.083.958.055.297.083.604.213.881.06.125.146.251.281.303.043.022.112.03.113.093.011.107-.076.192-.172.221.081.245.181.486.21.745.051.441-.005.889-.121 1.316-.137.48-.359.943-.693 1.319-.146.157-.316.311-.53.366-.129.036-.26-.02-.362-.096-.225-.165-.397-.392-.631-.546a.54.54 0 0 0-.259-.089c-.143-.006-.238-.145-.382-.148-.124.017-.21.129-.334.143a.6.6 0 0 0-.238.067c-.291.167-.479.465-.771.631-.136.081-.305.045-.434-.03-.239-.136-.42-.35-.575-.572a3.7 3.7 0 0 1-.573-1.467c-.059-.38-.077-.774.02-1.149.042-.168.11-.327.161-.492-.095-.031-.183-.113-.172-.22 0-.062.069-.071.112-.093.134-.052.22-.177.28-.3.131-.277.16-.586.214-.883.161-.107.293-.249.431-.383.188-.184.372-.375.585-.532zm.461-1.61c-.369.117-.745.261-1.139.235-.01.063-.027.149-.105.159-.061.013-.085-.051-.097-.097-.207.135-.45.218-.629.395-.193.132-.418.217-.59.379-.202.197-.339.446-.49.681-.261.363-.56.705-.749 1.113-.227.483-.271 1.024-.282 1.55-.032 1.018.262 2.021.709 2.929.165.317.33.641.573.906.049-.039.106-.094.175-.068.11.039.174.145.259.22.074.076.176.145.19.258-.003.079-.088.107-.145.142.119.267.427.36.694.403.24.046.494.038.723.135q.41.157.842.239a4.85 4.85 0 0 0 2.636-.229c.279-.121.592-.096.883-.171.223-.048.459-.155.555-.375-.064-.035-.167-.078-.141-.17.035-.109.135-.175.211-.254.083-.076.154-.195.279-.2.064-.008.117.117.165.036.222-.26.382-.566.537-.867.443-.901.736-1.897.709-2.907-.01-.509-.048-1.032-.252-1.506-.184-.432-.495-.79-.769-1.166-.2-.301-.37-.649-.693-.84-.159-.105-.345-.171-.482-.307-.166-.131-.368-.205-.544-.321-.016.037-.026.098-.08.097-.088.007-.116-.091-.124-.16-.395.028-.773-.12-1.143-.236-.108-.024-.211.036-.318.043-.18.025-.356-.034-.532-.058-.18.03-.361.085-.545.052-.097-.012-.192-.064-.29-.038zm-6.616 1.495c.099.061.206.114.307.174a.53.53 0 0 0 .403.051.72.72 0 0 0-.71-.225M9.6 15.18c-.273.002-.572.081-.741.31-.088.102-.101.245-.188.347-.124.15-.258.297-.341.475a2 2 0 0 0-.153.684c-.009.178-.032.361.019.535.074.246.223.466.405.646.068.059.139.133.236.136.164.008.33.024.483.087.188.081.327.245.514.325.172-.086.308-.23.48-.314.156-.07.329-.087.498-.095.093 0 .164-.068.229-.125.178-.17.321-.379.403-.611.066-.178.046-.372.036-.557-.019-.249-.056-.503-.165-.73-.091-.189-.242-.337-.367-.503-.059-.104-.085-.227-.168-.318-.172-.215-.461-.288-.726-.29-.051-.072-.117-.15-.216-.147-.107-.017-.184.066-.239.145zm-6.824 3.604c.082.166.201.31.285.474.127.237.192.502.222.768.003.079.07.131.116.188.576.639 1.173 1.259 1.762 1.886.044.034.038.102.005.142-.043.037-.103.051-.141.094-.028.083.025.168.087.221.243.211.564.332.763.591.137.231.237.493.44.678.08.075.193.093.299.093.08.008.181-.012.235.063.41.44.817.883 1.21 1.338.034.044.08.085.093.142-.005.053-.056.083-.097.108-.151.082-.321.124-.468.213-.145-.032-.224-.164-.334-.248-.057-.05-.132-.009-.189.018-.194.106-.325.291-.451.467-.165.232-.304.487-.51.689-.104.108-.255.146-.367.242-.093.078-.173.17-.272.241-.244.178-.519.305-.791.434-.183.089-.346.211-.508.332-.453.347-.878.728-1.347 1.054-.565.464-1.093.97-1.641 1.454a1 1 0 0 0 .363-.087c.116-.055.243-.086.351-.156.06-.035.123-.073.194-.079.042-.01.058.035.044.068-.042.131-.158.215-.259.299-.038.11.093.184.188.181.125-.001.272.032.376-.056.698-.537 1.399-1.069 2.093-1.611-.158-.013-.324-.051-.476.014-.069.024-.122.078-.19.104-.03-.032-.054-.069-.086-.098-.113-.002-.243.045-.332-.05a.6.6 0 0 1 .146-.134c.19-.124.394-.229.559-.387.128-.112.253.115.389.033.25-.113.469-.285.714-.407.057-.026.147-.055.191.006-.018.125-.139.198-.22.286a.8.8 0 0 0 .445-.108c.537-.292.96-.767 1.537-.991.138-.06.299-.051.428-.134.241-.144.456-.324.685-.486.113-.078.226-.165.364-.196.048.13.051.27.05.407-.006.62-.107 1.234-.151 1.851.07.019.169.011.21.084.021.116-.028.233-.021.35.028.077.102.125.162.177.035.543.028 1.087.047 1.63.013.342.012.685.061 1.024.201-.366.255-.791.264-1.202.01-.218-.022-.436-.008-.654.085.021.146.1.235.106.056-.064.044-.163.061-.242a27 27 0 0 0 .077-1.952c.05.05.102.103.173.124.101.03.234.048.302-.052.133-.183.051-.423.111-.627.016-.077.082-.124.151-.152.403.331.778.693 1.164 1.043q1.061.98 2.116 1.967c.073.082.207.067.274.156.066.101.053.235.125.334.029.043.086.039.132.046.027-.13.045-.267.115-.383.028-.05.093-.088.148-.055.17.084.323.21.512.253a.35.35 0 0 0 .239-.03c-.621-.738-1.256-1.465-1.885-2.196.073-.052.166-.115.165-.215-.03-.075-.084-.137-.132-.2a14 14 0 0 0-.937-1.026c-.107-.099-.202-.215-.329-.288-.127.001-.215.108-.302.186-.514-.493-1.04-.974-1.535-1.486q.08-.067.166-.126c.499-.338 1.02-.645 1.517-.987.059-.033.106-.111.18-.101.096.056.16.171.281.182.105.007.227-.035.28-.131.048-.104.039-.222.07-.331a.6.6 0 0 1 .286-.358c.415-.232.804-.506 1.196-.773a72 72 0 0 0 1.814-1.296c.217-.166.443-.321.643-.508-.148.022-.297.059-.448.048-.039-.005-.093-.013-.104-.058.005-.078.067-.135.116-.191.287-.293.633-.527.888-.851-.353.188-.692.398-1.037.6-.343.209-.691.41-1.028.63a.16.16 0 0 1-.087.029c-.051-.051-.071-.122-.104-.183-.092.046-.173.109-.255.17-.592.446-1.172.909-1.785 1.328-.275.185-.556.372-.878.468-.074-.017-.151-.049-.227-.017-.154.051-.313.118-.422.242-.083.087-.015.241-.126.308-.334.242-.703.434-1.063.635l-.065-1.276-.277.051-.04-.392c-.118-.005-.264-.001-.334-.115a2.4 2.4 0 0 0-.337.015l-.149 1.677c-.326-.33-.655-.658-.965-1.003-.049-.063-.122-.132-.107-.219.033-.063.087-.115.102-.186l-.082.05c-.033-.012-.081-.007-.098-.044-.128-.258-.108-.576-.288-.812-.126.039-.16.209-.303.21-.088.023-.162-.038-.225-.089-.317-.269-.59-.601-.967-.792-.19-.065-.32-.222-.462-.354-.368-.363-.72-.742-1.096-1.098-.077-.067-.148-.146-.242-.19-.062.002-.149.008-.173.076-.01.071.016.141.027.21-.177-.194-.339-.401-.522-.59-.217-.221-.456-.451-.768-.528z"/></svg>