<svg xmlns="http://www.w3.org/2000/svg" width="29" height="32" viewBox="0 0 29 32"><path fill="currentColor" d="M14.667 2.502c.008-.058 3.553 5.596 3.553 5.596l-1.417.339v5.59l3.71-3.891-.692-1.168 5.21-1.434-.276 5.376s-1.425-.586-1.434-.634-6.52 7.251-6.52 7.251l8.036-2.178-.138-1.985 4.632 2.84-2.536 4.632-1.048-1.902-8.409 2.384s.006 5.97.001 6.182c0 0-5.357-.008-5.349 0s.001-6.182.001-6.182l-8.409-2.384-1.048 1.902-2.536-4.632 4.632-2.84-.138 1.985 8.036 2.178s-6.511-7.299-6.52-7.251-1.434.634-1.434.634l-.276-5.376s5.204 1.42 5.21 1.434-.692 1.168-.692 1.168 3.71 3.868 3.71 3.891v-5.59l-1.417-.339s2.204-3.854 3.553-5.595z"/></svg>