<svg xmlns="http://www.w3.org/2000/svg" width="100%" height="100%" viewBox="0 0 24 24"><path fill="currentColor" d="M16.021 2.441c.422-.426 1.13-.676 1.676-.118.848.866 1.912-1.103 3.371 1.635.676 1.269 2.112-1.035 3.371-.512 1.281.532 1.545 2.335 2.81 2.632 1.031.071 2.295-1.549 2.993.339.323.876 1.911.988 1.747 2.031-1.643.741-3.738.547-4.948 2.265-.298.424.72.96.315 1.28-1.814 1.438-4.642 1.158-6.788 1.677l-.289.47c2.159.071 4.81.236 6.762-.807 1.037-.555 1.497-1.487 1.124-2.521 1.098-.251 2.214-1.149 3.371-1.103-.503 2.32-2.274 4.396-3.213 6.518-.65-.092-1.224-.485-1.886-.514-.83 2.42-.614 4.875-.736 7.387-.184.147-.722.622-.907.768-.088-2.68-.03-5.475-.089-8.151-.039.012-.073.033-.109.045-1.222.405.049 2.961-.926 3.911-1.92 1.888-1.226 5.22-1.498 7.661l-.414-.197c-.034-3.496.051-7.099.03-10.595l-.483-.098c.158 1.268.276 3.446-.138 3.525-.716.136.016 1.754-1.005 1.851-.42.04-.394.118-.611 1.182-.185.907-1.473 2.218-2.444 2.403-.273.052-.63-.375-.907-.355.046-2.127-.219-4.335-.513-6.42l-.434.335c-.021 4.363.648 8.37.355 12.742l-.509.295c-.4-2.589-.22-6.361-.832-7.207-.095-.132-.093-2.373-.552-3.505-2.787.461-1.799-2.821-3.036-4.136-.092 3.789.107 7.968.039 11.757l-.67-.177c.074-3.096-.867-5.928-.907-9.453 0-.034-.473-.118-1.125.576-.062.066-.157.06-.215.074-2.171-2.743-4.629-5.544-5.953-8.823.314.087 1.025-.158 1.321.354.331.573.941.11 1.518.414.172.519.473 1.338.867 1.753 1.915.289 3.989.618 5.934.551-.645-1.394-5.867-.057-4.731-2.678-2.318-.373-4.919-1.026-6.717-2.567-.231-.892.629-2.068 1.355-1.904.456.103 1.295.321 1.656.138C4.49 6.44 5.712 4.432 8.59 5.495c1.667.616-1.025-2.363 1.597-1.635.058.016.037-.597.099-.571.394-.31 1.257.271 1.538-.099.808-1.063 1.644.403 2.523.335 1.097-.085 1.25-.653 1.676-1.083z"/></svg>