<svg xmlns="http://www.w3.org/2000/svg" width="19" height="32"><path fill="currentColor" d="M11.341 1.206c1.168 2.232.393 4.828.617 7.223-.076 1.498.887 2.781 1.994 3.687-.544-1.541-1.979-2.933-1.507-4.679.453-2.008.42-4.054.172-6.086.611.405 1.679.486 1.789 1.388.591 1.798.873 3.682 1.045 5.561.644-1.273 1.164-2.604 1.717-3.92.343.692.744 1.364.992 2.099-.41 2.203-1.386 3.941-.99 6.23.296-1.884.795-3.306 1.61-5.033 1.216 4.016.497 8.14.034 12.213-.213-.371-.883-1.103-.883-1.103s-.192-1.132-.361-1.524c-.033.825-.117 2.152-.222 2.967.32.486.644.973.963 1.464-.501 1.917-1.417 3.687-2.304 5.447-.649-1.951-1.253-3.557-2.269-5.345.176-1.307.17-2.915.323-4.222-.363 1.312-.689 2.915-1.085 4.222 1.164 2.041 1.891 3.986 2.549 6.233a47 47 0 0 1-2.151 1.731c-1.288-2.442-1.379-5.274-1.542-7.964-.358 2.962-.223 5.98.602 8.865-1.812.258-3.667.124-5.485.048.892-2.847.833-5.97.671-8.913-.41 2.652-.189 5.708-1.711 8.054a42 42 0 0 1-2.032-1.779c.649-2.213 1.445-4.263 2.599-6.275a323 323 0 0 0-1.087-4.112c.11 1.345.311 2.763.225 4.112-.806 1.812-1.641 3.528-2.199 5.446-.92-1.765-1.812-3.553-2.361-5.475q.501-.717 1.002-1.426c-.105-1.021-.205-2.041-.315-3.057-.043.372-.134 1.116-.181 1.488q-.508.556-1.016 1.107C.258 15.848-.52 11.694.539 7.711c.758 1.622 1.269 3.339 1.884 5.017-.067-2.137-.768-4.173-1.297-6.224.377-.649.768-1.292 1.159-1.932.52 1.264 1.016 2.542 1.574 3.792.448-2.041.6-3.706 1.208-5.722.253-.84 1.197-.996 1.693-1.253-.143 2.475-.191 4.087.213 6.027.333 1.6-1.016 3.648-1.493 4.797.796-.72 1.502-1.574 1.836-2.614.577-2.704-.614-5.853.817-8.381zM2.38 15.225c.863.591 1.712 1.479 2.852 1.388.973.01 1.712-.725 2.504-1.188-.916-.563-1.779-1.464-2.938-1.383-.997-.143-1.66.711-2.418 1.183m9.263.138c.839.477 1.641 1.202 2.661 1.216 1.025-.114 1.851-.811 2.714-1.307-.682-.525-1.25-1.374-2.223-1.288-1.245-.176-2.199.744-3.153 1.378zM2.686 3.974c.305.672.634 1.331.973 1.989.262-1.083.529-2.161.744-3.257-.587.41-1.154.835-1.717 1.269zm12.352-1.403c.191 1.107.41 2.203.611 3.305l1.111-1.86a55 55 0 0 0-1.722-1.445"/></svg>