<svg xmlns="http://www.w3.org/2000/svg" width="31" height="32" viewBox="0 0 31 32"><path fill="currentColor" d="M27.033 6.806c3.042.842 4.572 3.841 4.314 6.85-.241 2.261-1.636 4.528-3.468 5.977-3.029 2.473-6.841 3.885-9.54 6.778-1.262 1.284-2.059 2.897-2.646 4.584l-.113-.316c-.56-1.579-1.379-3.048-2.533-4.269-2.699-2.893-6.511-4.305-9.54-6.778C1.675 18.183.28 15.915.039 13.655c-.32-2.997 1.342-6.072 4.314-6.85-.772 1.848-2 3.712-1.664 5.812.304 1.376 1.187 2.642 2.362 3.426 2.92 1.947 6.301 3.19 8.906 5.589.824 2.426 1.076 4.998 1.701 7.477l.036.083.036-.083c.625-2.478.877-5.051 1.701-7.477 2.604-2.399 5.985-3.642 8.906-5.589 1.175-.784 2.057-2.05 2.362-3.426.308-2.08-.856-3.985-1.664-5.812zM15.572 5.723l.121-.128c1.351 1.427.653.697 2.095 2.188-.893 1.187-.945 2.625-.851 4.053 1.187.21 2.373.399 3.549.64-1.066 1.181-2.657 1.244-4.143 1.444.42.567 1.003.956 1.586 1.328a197 197 0 0 1-1.013 5.245c4.615-2.861 8.947-7.109 9.934-12.659.58-2.913-1.412-6.068-4.35-6.694 0 0-.355-.119-1.583-.137-2.262-.033-4.039 1.772-5.224 3.737-1.184-1.964-2.962-3.77-5.224-3.737-1.229.018-1.583.137-1.583.137-2.937.626-4.93 3.781-4.35 6.694.987 5.55 5.319 9.797 9.934 12.659a197 197 0 0 1-1.013-5.245c.583-.373 1.166-.761 1.586-1.328-1.486-.2-3.077-.262-4.143-1.444 1.176-.242 2.363-.431 3.549-.64.095-1.428.042-2.867-.851-4.053.661-.684 1.324-1.365 1.974-2.06"/></svg>