<svg xmlns="http://www.w3.org/2000/svg" width="21" height="32"><path fill="currentColor" d="M20.741 1.653q.005 1.645.009 3.292c-1.315.605-1.732 1.91-1.831 3.251-5.682.016-11.359.01-17.036-.005C1.81 6.819 1.387 5.525.01 4.987q0-1.666-.009-3.333H2.92c.134.979.241 1.961.352 2.942.788 0 1.576.005 2.369.005q.006-1.473.019-2.947h3.33c.095.974.167 1.95.24 2.926q1.236.009 2.473.01c.032-.979.056-1.958.096-2.937h3.333c.035.982.067 1.965.108 2.947q1.27-.009 2.546-.042c.022-.969.042-1.937.082-2.905zM2.519 12.494c5.244-.057 10.498-.084 15.747.01.678-.95 1.263-1.978 1.534-3.125-6.267 0-12.538.037-18.805.031.297 1.122.882 2.124 1.524 3.084m1.101.908c-.292 3.517-.464 7.049-.851 10.561-.563.699-1.315 1.205-1.993 1.785 0 1.529.005 3.063 0 4.592q9.619.014 19.238.005c.005-1.56.005-3.115-.01-4.67-.683-.47-1.357-.944-2.03-1.419-.23-3.621-.506-7.242-.84-10.858-4.503-.01-9.011-.016-13.514.005z"/></svg>