<svg xmlns="http://www.w3.org/2000/svg" width="30" height="32" viewBox="0 0 30 32"><path fill="currentColor" d="M15 1c8.284 0 15 6.716 15 15s-6.716 15-15 15S0 24.284 0 16 6.716 1 15 1M6.83 24.078l-1.323 1.323c2.258 2.407 5.424 3.815 8.718 3.981l-1.195-2.07c-2.424-.307-4.436-1.624-6.2-3.235zm16.186.154c-1.581 1.73-3.7 2.591-5.948 3.03l-1.222 2.117c3.217-.132 6.239-1.57 8.493-3.824zM15 6.098c-5.469 0-9.902 4.433-9.902 9.902S9.531 25.902 15 25.902s9.902-4.433 9.902-9.902S20.469 6.098 15 6.098m10.184 15.319c-1.03 1.699-.488.992-1.539 2.185l1.323 1.323a8.2 8.2 0 0 0 1.946-2.796l-1.731-.712zM3.327 9.412C2.052 11.368 1.694 13.725 1.579 16c.108 3.117 1.025 6.498 3.299 8.772l1.323-1.323c-1.904-1.994-2.608-4.784-2.742-7.448.093-1.444.052-1.639.533-3.335.12-.424.339-.814.509-1.221L3.328 9.413zm23.371.038-1.2 2.078c.707 1.388.903 2.943 1.043 4.472-.081 1.241-.072 1.663-.432 3.081-.133.525-.364 1.02-.546 1.531l1.697.699c.883-1.634 1.069-3.49 1.16-5.31-.095-2.221-.445-4.658-1.723-6.55zM14.555 2.601c-4.127.134-8.105 2.186-10.428 5.626H6.61c2.037-2.365 4.909-3.447 7.945-3.746zm1.817.047-.927-.047v1.88c3.207.147 5.798 1.399 7.969 3.722h2.443C24.27 5.8 21.736 4.028 18.991 3.182c-.851-.263-1.746-.356-2.619-.534m2.632 14.504q.44.985.44 1.718 0 1.439-1.086 1.439-1.027 0-1.027-1.028l.381-1.175q.353-1.145.353-1.761 0-.323-.088-.499.588.324 1.028 1.306zm.03 6.268q1.644-1.672 1.643-4.11 0-1.644-1.145-3.376-.735-.998-2.144-3.053-1.145-1.732-1.145-3.553 0-.792.411-2.672a25.3 25.3 0 0 0-4.903 5.402q-2.554 3.76-2.554 6.695 0 2.73 1.498 4.491 1.586 1.85 4.286 1.849 2.407 0 4.052-1.674z"/></svg>