<svg xmlns="http://www.w3.org/2000/svg" width="15" height="32"><path fill="currentColor" d="M13.352 12.486c.185.294.359.62.534.991 1.662 3.529 1.907 7.134 1.23 11.049-.376 2.18-1.664 5.472-3.709 6.621-3.445 1.937-8.539.469-10.054-3.347-.98-2.466-1.332-4.765-1.351-7.374-.023-2.961.545-7.439 3.093-9.38q.154-.117.313-.226c-.677-1.48-.583-2.811-.232-4.248a.76.76 0 0 0-.06-.541c-.868-1.749-1.014-2.425-.908-4.319.048-.86.515-1.534.671-1.615 1.193-.621 2.749 1.852 2.42 4.983-.083.793-.742 1.186-.742 1.186s.717.81.86 1.035c.422.665.517 1.74.532 2.412a7.3 7.3 0 0 1 4.346.344c.035.014.154.073.154.073l.008-.431c.037-.827.351-1.561.967-2.097.149-.128.343-.532.305-.723-.195-.978-.931-1.557-.508-3.438.159-.703.533-2.004 1.444-2.062 1.205-.077 1.43 1.823 1.443 3.07.015 1.376-.549 1.848-.848 2.687-.059.168-.225.376-.118.521.927 1.262.842 3.24.211 4.83zm-8.488-2.439a2.2 2.2 0 0 0 .147-1.258c-.153-.813-.597-1.443-.997-1.451-.001 0-.282 1.129-.002 2.192.108.411.183.65.262.781q.29-.145.59-.263zm7.319 1.109c.257-.014.492-.602.528-1.325.036-.74-.151-1.359-.414-1.372s-.51.585-.546 1.325c-.025.499.053.943.186 1.183q.127.093.246.189m-7.762.7c-1.867.747-2.607 4.078-2.855 5.978a18.5 18.5 0 0 0 .657 7.872c.506 1.662 2.387 5.466 4.559 3.409q.073-.07.012-.149-1.515-1.98-1.911-3.895c-.879-4.249-.745-8.508 1.716-12.229a.14.14 0 0 0 .003-.161c-.48-.808-1.293-1.18-2.181-.824zm3.888 14.733c1.222-3.99 1.153-8.629-.58-12.477q-.062-.136-.162-.026a3.6 3.6 0 0 0-.601.962c-1.458 3.25-1.45 6.616-.642 10.159a5.4 5.4 0 0 0 1.285 2.448.09.09 0 0 0 .136-.002q.38-.459.565-1.065zM3.427 1.448c-.382.492-.157 2.229-.097 2.551.018.084.416 1.074.5 1.074.058 0 .132.039.169 0 .573-.597.208-2.395.208-2.395-.138-.783-.704-1.332-.781-1.23zm9.2 4.642c.186.002.475-.787.488-1.71s-.255-1.654-.441-1.657c-.186-.002-.402.734-.414 1.658s.182 1.707.367 1.709"/></svg>