<svg xmlns="http://www.w3.org/2000/svg" width="30" height="32" viewBox="0 0 30 32"><path fill="currentColor" d="M11.767 4.055C6.495 5.6 3.157 10.13 3.019 15.585c.024 4.565 2.662 8.814 6.787 10.8.89.428 1.282.518 2.227.81H5.508C2.001 24.372.056 20.053 0 15.585c.002-4.42 1.998-8.713 5.411-11.53zm12.822 0h-6.355c5.297 1.647 8.639 5.948 8.748 11.53-.142 5.621-3.609 10.076-9.015 11.61h6.525c3.451-2.848 5.516-7.123 5.508-11.61-.056-4.413-1.956-8.721-5.411-11.53M15 7.994a7.59 7.59 0 1 1 0 15.182 7.59 7.59 0 0 1 0-15.182m0-2.744c-5.708 0-10.335 4.627-10.335 10.335S9.292 25.92 15 25.92s10.335-4.627 10.335-10.335S20.708 5.25 15 5.25m0 6.905a3.43 3.43 0 1 1 0 6.86 3.43 3.43 0 0 1 0-6.86m0-2.469a5.899 5.899 0 1 0 0 11.798 5.899 5.899 0 0 0 0-11.798"/></svg>