<svg xmlns="http://www.w3.org/2000/svg" width="20" height="32"><path fill="currentColor" d="m5.923 1.105.172-.271c-.157 1.1-.067 2.15.086 2.598.308.899 1.458 1.665 1.785 2.327.732 1.479.693 3.268-.148 4.666-.949 1.148-2.97 1.098-3.632-.431-.714-1.65 1.366-3.078.862-3.546-1.908-1.773-.127-3.653.874-5.343zm5.054 11.762c.7-.338 1.242-.746 1.804-1.284.765.236.086 1.105-.193 1.478-1.573 1.549-.605 3.925-.893 5.857-.345 2.409.595 4.414.92 6.768.125.907 2.854 1.64 2.363 3.085-.997.708-1.586-.508-2.59-.848-1.36-.46-2.544 1.386-3.937 1.622-2.239.727-5.937-.923-6.143-1.475-.237-.638-.427-2.454.173-3.84.718-1.66.042-3.626-.166-5.345-.156-1.87-.751-3.665-1.285-5.46 1.256.746 2.549 1.918 2.381 3.465-.172 1.588-.074 3.263.453 4.768.374 1.069 2.159.175 2.106-.779.161-1.039-1.541-1.522-1.131-2.535.419-1.034-.281-1.942.267-2.778 1.242-.071 2.65-.423 3.525-1.408.295-.332-.007 1.679.776 1.687 1.194.012-.332-2.056 1.57-2.976zM9.399 9.849c-.241 3.051-4.718 3.245-5.871.69-1.285-.453-2.782.35-3.528 1.422.439 1.828 1.1 3.675.836 5.611.553 2.281 1.866 5.077.009 7.108-.028 1.365-.052 2.735.038 4.095 2.012 1.738 4.014 2.616 7.601 1.967 1.618-.293 2.943-1.151 4.717-1.107 1.71.043 3.052 1.25 4.742 1.51l.256.025c1.027.099 2.639-.745 1.861-2.052-1.011-1.7-3.696-.688-5.132-2.053-1.1-1.143-1.219-2.952-.571-4.35.222-1.384-1.639-1.341-1.88-2.489-.406-2.414.817-4.643.987-7.019.893-2.324-2.229-3.797-4.067-3.358z"/></svg>