<svg xmlns="http://www.w3.org/2000/svg" width="25" height="32"><path fill="currentColor" d="M20.084 1.023c1.114 0 2.016.903 2.016 2.016-.013.72-.343 1.292-.933 1.69l.755 10.49c1.782.177 3.034 1.693 3.078 3.441a3.466 3.466 0 0 1-3.466 3.466 3.5 3.5 0 0 1-2.692-1.289L6.8 27.225a2.832 2.832 0 1 1-2.677-1.913c.851.004 1.514.343 2.103.936l12.054-6.395a3.6 3.6 0 0 1-.211-1.194c.008-1.596 1.143-3.059 2.724-3.383l-.735-10.223c-.575-.03-1.015-.211-1.415-.625l-6.247 3.707c.064.308.043.16.068.444a2.016 2.016 0 0 1-2.016 2.016A2.05 2.05 0 0 1 8.675 9.54c-.128-.237-.128-.238-.156-.377l-2.852-.066c-.001.766-.326 1.475-.863 2.012l2.65 4.451c.233-.047.109-.031.371-.044l.206.01c1.076.176 1.755.911 1.81 2.006a2.016 2.016 0 1 1-4.032 0c.023-.622.198-1.02.635-1.457l-2.593-4.356c-.321.135-.67.181-1.015.189a2.832 2.832 0 0 1 0-5.664c1.119.006 2.161.678 2.599 1.714l3.077.072c.149-.648.712-1.185 1.337-1.378.274-.085.356-.078.6-.091l.206.01c.429.084.893.235 1.197.57l6.277-3.725c-.053-.24-.033-.113-.057-.379 0-1.114.903-2.016 2.016-2.016z"/></svg>