<svg xmlns="http://www.w3.org/2000/svg" width="30" height="32" viewBox="0 0 30 32"><path fill="currentColor" d="M15 1c8.284 0 15 6.716 15 15s-6.716 15-15 15S0 24.284 0 16 6.716 1 15 1M6.83 24.078l-1.323 1.323c2.258 2.407 5.424 3.815 8.718 3.981l-1.195-2.07c-2.424-.307-4.436-1.624-6.2-3.235zm16.186.154c-1.581 1.73-3.7 2.591-5.948 3.03l-1.222 2.117c3.217-.132 6.239-1.57 8.493-3.824zM15 6.098c-5.469 0-9.902 4.433-9.902 9.902S9.531 25.902 15 25.902s9.902-4.433 9.902-9.902S20.469 6.098 15 6.098m10.184 15.319c-1.03 1.699-.488.992-1.539 2.185l1.323 1.323a8.2 8.2 0 0 0 1.946-2.796l-1.731-.712zM3.327 9.412C2.052 11.368 1.694 13.725 1.579 16c.108 3.117 1.025 6.498 3.299 8.772l1.323-1.323c-1.904-1.994-2.608-4.784-2.742-7.448.093-1.444.052-1.639.533-3.335.12-.424.339-.814.509-1.221L3.328 9.413zm23.371.038-1.2 2.078c.707 1.388.903 2.943 1.043 4.472-.081 1.241-.072 1.663-.432 3.081-.133.525-.364 1.02-.546 1.531l1.697.699c.883-1.634 1.069-3.49 1.16-5.31-.095-2.221-.445-4.658-1.723-6.55zM14.555 2.601c-4.127.134-8.105 2.186-10.428 5.626H6.61c2.037-2.365 4.909-3.447 7.945-3.746zm1.817.047-.927-.047v1.88c3.207.147 5.798 1.399 7.969 3.722h2.443C24.27 5.8 21.736 4.028 18.991 3.182c-.851-.263-1.746-.356-2.619-.534m2.146 13.303q0-1.422-1.061-2.47c-1.061-1.048-1.543-1.048-2.508-1.048q-1.447 0-2.508 1.036c-1.061 1.036-1.06 1.518-1.06 2.482q0 1.472 1.048 2.495 1.047 1.024 2.52 1.023 1.521 0 2.545-.998 1.023-.997 1.023-2.52zm.375 0q.024 1.697-1.111 2.806c-1.135 1.109-1.7 1.11-2.832 1.11q-1.596 0-2.807-1.161c-1.211-1.161-1.202-1.692-1.185-2.756q.025-1.621 1.197-2.782c1.172-1.161 1.713-1.161 2.795-1.161q1.598 0 2.769 1.173c1.171 1.173 1.173 1.706 1.173 2.77zm5.538 1.447a157 157 0 0 1-1.471-2.121q-.848-1.248-1.522-1.248-.549 0-.798.524c-.249.524-.349.524-.549.524a.83.83 0 0 1-.674-.299q-.1-.099-.399-.649l.849-.599q.449-.299.449-.648 0-.2-.125-.624c-.125-.424-.125-.482-.125-.599q0-.374.998-.674l1.647-.449q-2.521-.45-3.319-.45-1.273 0-1.372.35-.025.05.038.449c.063.399.062.424.062.474q0 .748-.723.748-.35 0-1.023-.474.299-.998.05-1.572-.075-.2-.599-.674-.424-.4-.424-.748 0-.674 1.073-2.121-.4.175-1.722 1.173-1.647 1.248-1.647 1.772 0 .15.462.436c.462.286.462.47.462.836q0 .524-.35.898c-.35.374-.524.374-.873.374l-.374-.674q-.375-.648-.948-.648-.174 0-.474.149c-.3.149-.333.15-.399.15q-.575 0-.998-1.248-.35-1.023-.324-1.397-.574 3.119-.574 3.418 0 1.122.45 1.123.125 0 .386-.075c.261-.075.304-.075.387-.075q.3 0 .661.387c.361.387.362.487.362.686q0 .35-.474 1.073-.923-.3-.998-.3-.549 0-.886.611c-.337.611-.453.611-.686.611q-.45 0-1.198-.349l-1.148-.599q.923 1.273 1.373 1.921.947 1.299 1.547 1.298.35 0 .748-.524.399-.523.549-.523.973 0 1.198 1.148-1.198.624-1.098 1.397.1.699.1.599 0 .848-2.595 1.497 2.295.449 3.268.449 1.273 0 1.248-.823v-.674q0-.648.998-.649.45 0 .773.375-.3.624-.299 1.048 0 .5.573.948c.573.448.574.533.574.699q0 .45-.399 1.273a6.6 6.6 0 0 1-.699 1.172 92 92 0 0 1 1.447-1.048q1.971-1.397 1.971-2.071 0-.125-.462-.424t-.462-.798q0-.999 1.148-1.174.574 1.323 1.298 1.323.15 0 .462-.149.312-.15.412-.15.723 0 1.372 2.545.5-2.22.499-3.294 0-1.123-.306-1.123-.102 0-.408.075c-.306.075-.365.075-.484.075q-.28 0-.689-.374c-.409-.374-.408-.466-.408-.649q0-.2.474-.923.849.2 1.123.199.673 0 .898-.611c.225-.611.358-.611.624-.611q.55 0 2.495 1.098z"/></svg>