<svg xmlns="http://www.w3.org/2000/svg" width="19" height="32"><path fill="currentColor" d="M15.056 5.12c-.23.421-.517.603-.559 1.045-.118 1.245-.381 2.474.109 4.103.008.025-.899-.066-.899-.066s-.55.508-.543.52c.212.337 1.625-.047 1.622-.01-.092.931-.756.997-1.098 1.878-.03.077.538.875.538.875s.145 1.197-.835 1.514c-.141.045-.422.443-.414.545.132 1.717.323 2.038-.898 3.185-.857.805-1.644.551-2.55.783-.236.06-.246.138-.027.244l.525.252c.157.077.431.339.433.515.013 3.47-.008 6.632.019 9.845.002.279-.07.658-.59 1.292-.055.067-.477.36-.562.361-.666.006-1.641-1.401-1.641-1.401s-.084-4.317-.07-5.268c.002-.201.047-.721-.033-.537-.487 1.089-1.182 1.87-2.032 2.716a.25.25 0 0 1-.285.06l-.627-.241a.174.174 0 0 0-.205.044l-2.359 2.392q-.103.107-.159-.03c-.005-.011.761-1.253.846-1.453a.258.258 0 0 0-.413-.285L.061 30.163q-.024.022-.036-.008l-.022-.068a.07.07 0 0 1 .008-.055 28.3 28.3 0 0 0 3.265-5.788.38.38 0 0 1 .172-.192.72.72 0 0 0 .394-.695q-.01-.443-.244-.066l-.342.55a.215.215 0 0 1-.224.109l-.208-.022q-.222-.022-.178-.241l.263-1.275a.22.22 0 0 0-.214-.267.22.22 0 0 0-.172.084L.654 24.495a.13.13 0 0 1-.079.042.125.125 0 0 1-.123-.195c.645-.916 2.738-5.085 3.411-6.647.127-.295-.418-.166-.724-.382-.081-.057-.024-.258.02-.348q.583-1.166.93-2.408c.276-.988 1.108-1.817 1.639-2.698a.3.3 0 0 0 .041-.224l-.279-1.587q-.024-.14-.167-.14L4.737 9.9q-.14 0-.093-.134c.351-1.02 1.165-4.108.804-5.4-.045-.16-.662-.742-.662-.742s-1.566-.319-2.419-.829q-.024-.012-.043-.031a.13.13 0 0 1 .056-.209c.928-.312 1.691-.588 2.693-.588h3.44c.174 0 .525-.209.625-.353L9.974.265c.051-.075.192-.255.283-.261 1.012-.06 1.011 1.06 1.038 1.763.004.103.344.137.344.137l3.175-.004s.541.087.735.186c1.115.564 2.043 1.306 2.959 1.994.042.031.265.242.265.242l-.309.353s-.096.039-.147.042l-2.879.183c-.117.008-.326.119-.383.221zm-4.532-1.847c1.246.179 2.22.065 3.349.153.42.033.759.311 1.169.413a.34.34 0 0 0 .316-.104c.107-.112.117-.328.116-.334l-.055-.171c-.009-.086-.227-.193-.307-.225-.791-.317-1.585-.472-1.585-.472s-2.882.094-6.436.032c-.536-.009-.497.154-.987.346-.093.036-.546.235-.466.295.386.282 2.878.054 3.543.093.095.005.331.066.345.159l.275 1.561.063 2.232c.04.274.285.284.342.014.175-.833.676-1.776.717-2.512.014-.265-.037-.428-.136-.699-.083-.225-.279-.352-.379-.615-.042-.109-.002-.181.115-.164zm.124 8.062q.09.405.367.703.246.265.227-.096l-.096-1.894q-.011-.225-.172-.068l-3.681 3.56q-.136.132 0 .265l2.34 2.29q.14.136.276-.005l1.606-1.68c.075-.079.251-.296.171-.37-.515-.481-1.46.605-1.796.909a.357.357 0 0 1-.501-.025l-1.103-1.212a.365.365 0 0 1 .022-.512l2.11-1.937q.175-.164.23.071zm-1.4 12.132a.237.237 0 0 0-.237-.234H9a.237.237 0 0 0-.234.237l.047 6.737a.237.237 0 0 0 .237.234h.011a.237.237 0 0 0 .234-.237z"/></svg>