<svg xmlns="http://www.w3.org/2000/svg" width="28" height="32" viewBox="0 0 28 32"><path fill="currentColor" d="M18.65 2.531c1.945-.114 3.772.448 5.469 1.358 2.468 1.421 3.816 4.042 3.59 5.625-.39 2.73-2.431 3.279-4.268 2.968-1.26-.213-1.982-1.255-2.629-2.261-.855-.48-1.413.763-1.018 1.216.974 1.113 1.339 2.412 1.423 3.864-.033 2.23-1.321 4.054-3.198 5.159-.476.505-.777.734-.636 1.417.31.851.991 1.552 1.515 2.081 1.359 1.373 2.083 1.698 4.076-.415.799-.847 1.121-1.429 1.131-1.293.198 2.648-1.918 5.089-4.754 6.494-2.454 1.216-5.215.79-6.374-.237-1.999-1.771-1.362-3.698-.138-5.002.84-.895 1.968-.824 3.124-.824.551 0 .405-1.398-.269-1.286-.94.155-.707.134-1.632.155-3.945.09-7.137-2.808-7.137-6.249.052-.895.008-.499.232-1.461.075-.324-.277-.784-.65-.905-1.625-.524-3.347.788-3.449 2.488-.077 1.299.279 2.532.807 3.686q.108.222.231.454c-.122-.077-.229-.177-.357-.236C.498 17.845-.409 13.85.157 10.609.647 7.804 2.649 5.64 4.214 5.31c.777-.127.324-.078 1.365-.092 1.699.221 2.602 1.458 2.992 3.024.231 1.257-.543 2.186-1.187 3.194-.307.481.168 1.208.452.82 1.611-2.205 3.674-3.073 6.235-3.185 1.248-.038 2.065.251 3.207.669 1.855.681 4.052-3.022 2.002-4.556-1.239-.928-2.964-.836-4.416-.72q-.246.026-.506.061c.115-.088.245-.155.344-.255 1.199-1.205 2.337-1.483 3.948-1.739m-4.376 9.457c-1.322.028-1.965.516-2.738 1.322q-.018.019-.038.036.011.018.019.035c.113.268.177.353.43.579.103.093.247.224.376.172.483-.196.712-.12.909-.021.396.2.626.742.416 1.141s-.818.513-1.176.303c-.359-.21-.472-.499-.498-.678s-.241-.294-.446-.334c-.285-.055-.292-.062-.554-.061l-.081.006-.016.036c-.114.254-.15.36-.153.859-.013 1.867 1.626 3.413 3.622 3.388.572-.007.615-.057.855-.113.022-.005.043-.032.069-.043l.005-.057c.051-.531.061-.282-.021-.797-.032-.135-.077-.324-.213-.354-.51-.111-.656-.303-.762-.496-.214-.389-.097-.966.301-1.177l.322-.077c.723.276.486.063.82.491.177.376.108.678.028.841s.052.362.18.527c.373.353.208.234.557.439l.072.043.043-.031c.927-.675 1.231-1.478 1.35-2.585-.011-.777-.275-1.542-.832-2.09l-.047-.045-.043.012c-.268.049-.346.077-.671.296-.115.078-.268.174-.247.311.078.516-.049.721-.192.889-.287.338-.868.435-1.207.138s-.308-.915-.02-1.214c.288-.3.595-.342.776-.326s.32-.178.429-.356c.158-.247.165-.268.177-.459q.003-.029.011-.066c-.014-.005-.025-.019-.037-.025-.714-.368-1.04-.475-1.774-.459z"/></svg>