<svg xmlns="http://www.w3.org/2000/svg" width="100%" height="100%" viewBox="0 0 24 24"><path fill="currentColor" d="M15.99.024Q16.496 4.396 17 8.77c.36-.29.719-.584 1.08-.874.198.498.408.991.611 1.487l1.432-.695.263 1.656 4.382-2.887-2.986 4.19 1.424.082-.668 1.513q.77.26 1.541.519-.484.58-.967 1.159 4.435.545 8.869 1.091c-2.915.338-5.831.672-8.746 1.01q.436.538.871 1.077l-1.486.614.695 1.432q-.87.151-1.74.305 1.464 2.445 2.929 4.889l-4.064-3.367q-.084.627-.167 1.255-.757-.334-1.514-.667l-.518 1.541-1.159-.968q-.545 4.434-1.091 8.867c-.339-2.915-.673-5.83-1.01-8.745q-.54.436-1.077.872l-.614-1.487q-.716.349-1.431.695-.11-.615-.22-1.231-2.509 2.035-5.016 4.071 1.895-2.898 3.789-5.798-.818-.043-1.635-.082.333-.757.667-1.513c-.513-.175-1.027-.345-1.54-.519q.484-.58.967-1.16-4.434-.545-8.869-1.091 4.373-.505 8.746-1.01-.434-.54-.872-1.077.743-.307 1.486-.615l-.695-1.432 1.486-.178-3.395-4.636q2.434 1.684 4.868 3.367l.082-1.635 1.513.667q.26-.77.519-1.54.58.483 1.159.967.545-4.434 1.091-8.868zm-.656 9.542a6.481 6.481 0 1 0 1.314 12.896 6.481 6.481 0 0 0-1.314-12.896m.347.661a5.74 5.74 0 0 0-2.608.78 5.8 5.8 0 0 0-2.283 2.448 5.8 5.8 0 0 0-.532 3.408 5.76 5.76 0 0 0 1.222 2.787 5.8 5.8 0 0 0 2.468 1.787 5.83 5.83 0 0 0 3.802.099 5.81 5.81 0 0 0 3.963-4.602 5.8 5.8 0 0 0-.469-3.369 5.8 5.8 0 0 0-5.562-3.337z"/></svg>