<svg xmlns="http://www.w3.org/2000/svg" width="27" height="32"><path fill="currentColor" d="m20.879 19.097 2.982 2.981-3.424-.023.13-.896 1.594.184-1.421-1.379.138-.869zm-15.125 0-2.982 2.981 3.424-.023-.13-.896-1.594.184 1.421-1.379-.138-.869zM13.317 0c-.974 2.092-1.966 4.18-2.87 6.302.119.155.242.307.347.473.243.379.487.76.667 1.175.27.528.441 1.099.608 1.666.102.35.143.713.225 1.067.046.277.096.838.096.838l.013 1.787s-.884.048-1.328.125c-1.183.206-2.242.493-3.401 1.002-.419.184-.911.404-1.314.621-1.416.761-1.671 1.054-1.922 1.255-.126.11-.222.249-.317.385-.198.283-.249.538-.201.821.058.265.325.485.574.554.338.098.668.08 1.016.115-.03-.078-.32-.502-.234-.746.1-.285.396-.434.637-.59.458-.279.927-.536 1.42-.747a14.8 14.8 0 0 1 3.42-1.089c.406-.06.631-.112 1.225-.161q.168-.014.337-.023c.482-.02.598-.02 1.003-.024.447.004.894.009 1.34.046.595.05.819.101 1.225.161 1.177.227 2.33.586 3.42 1.089.494.211.962.468 1.42.747.241.156.537.305.637.59.086.244-.204.668-.234.746.348-.035.678-.018 1.016-.115.248-.069.516-.289.574-.554.048-.284-.003-.538-.201-.821-.095-.136-.191-.275-.317-.385-.251-.2-.506-.494-1.922-1.255a19 19 0 0 0-1.314-.621c-1.16-.51-2.219-.797-3.402-1.002-.444-.077-1.328-.125-1.328-.125l.013-1.787s.05-.561.096-.838c.082-.354.123-.717.225-1.067.167-.567.338-1.137.608-1.666.18-.415.424-.796.667-1.175.104-.166.228-.318.347-.473.042-.048-2.87-6.302-2.87-6.302zm-.053 15.256c-.24.053-.142.015-.302.09-.323.186-.496.617-.339.966a.68.68 0 0 0 .698.447c.357.021.66-.286.71-.626a.81.81 0 0 0-.272-.729c-.179-.136-.275-.133-.495-.148m10.351-3.238-4.49.627v1.247s.933.413 1.163.535 1.211.684 1.211.684zm-20.597 0 2.116 3.093s.981-.562 1.211-.684 1.163-.535 1.163-.535v-1.247zm15.606-4.843-3.154 3.091c-.313.338-.568.763-.591 1.233-.051.336-.031.68-.041 1.286.106-.003.214-.019 1.23.172a14 14 0 0 1 1.552.368c.211.065.291.079.946.34.007-.021.017-.064.058-6.489zm-10.615 0c.041 6.425.05 6.468.057 6.489.655-.26.735-.274.946-.34.511-.145 1.028-.28 1.552-.368 1.017-.19 1.125-.174 1.23-.172-.009-.606.01-.95-.041-1.286-.024-.47-.278-.896-.591-1.233L8.008 7.174zm8.397 10.697c.168.006.097-.007.215.023.324.091.641.207.966.298.228.068.469.064.703.047.181-.015.293-.195.477-.209-.012.087-.018.179-.067.256-.087.159-.15.33-.215.5-.115.269-.319.489-.529.688-.179.176-.407.287-.622.412-.298.175-.632.29-.974.333-.275.03-.541-.068-.784-.185-.205-.101-.346-.284-.489-.455l-.055-.172c-.027-.121-.061-.246-.027-.369.128-.512.548-.928 1.045-1.09.211-.054.093-.027.355-.076zm-6.179 0c.262.049.144.023.355.076.498.162.917.579 1.045 1.09.034.123 0 .248-.027.369l-.055.172c-.143.171-.285.354-.489.455-.243.117-.509.215-.784.185a2.6 2.6 0 0 1-.974-.333c-.215-.124-.443-.236-.622-.412-.21-.2-.414-.419-.529-.688-.065-.169-.128-.34-.215-.5-.048-.077-.055-.169-.067-.256.184.014.297.194.477.209.234.017.476.021.703-.047.325-.09.642-.207.966-.298.118-.03.047-.017.215-.023zm3.226 6.13-.136.157c-1.498-1.722-1.481-1.773-1.486-1.801.944.616 1.204.781 1.486.941.282-.16.542-.324 1.486-.941-.056.154-.206.296-.307.419-.34.415-.692.819-1.043 1.225m-.394 1.231.258-.009c.687.016 1.376.086 2.035.288l.003.001c.096.017.041.003.164.051.116.036.038.01.232.084h.057c.011-.1.025-.201.053-.298a4.2 4.2 0 0 1 .958-1.657c.34-.331.767-.588 1.242-.659.348-.081.735-.112 1.07.038.028-.039.06-.071.098-.123.253-.351.411-.757.559-1.159.069-.238.129-.48.143-.728.059-.228.01-.465.039-1.104-.005-.192.098-.859.571-2.029.07-.173.107-.287-.189-.466-1.297-.785-4.734-1.727-4.734-1.727-.701.682-2.302 2.253-2.302 2.249-.754-.718-1.481-1.463-2.234-2.182l-.068-.066c-1.617.446-3.247.943-4.734 1.727-.297.18-.26.293-.189.466.474 1.17.577 1.837.571 2.029.029.64-.02.877.039 1.104.014.248.075.49.143.728.148.403.307.809.559 1.159.038.053.07.085.098.123.334-.15.721-.119 1.07-.038.474.072.902.328 1.242.659.444.467.77 1.042.958 1.657.029.097.042.198.053.298h.057c.195-.073.116-.048.232-.084.123-.048.068-.034.164-.051l.003-.001a7.3 7.3 0 0 1 1.777-.279zm-9.781-2.192-2.052.014c2.267 4.706 6.843 7.736 12.108 7.747 5.231-.066 9.882-2.99 12.107-7.746l-2.052-.014c-1.974 3.634-5.938 5.922-10.055 5.924-4.148-.052-8.06-2.237-10.056-5.924zm21.931-11.642-1.21 1.77c.572 1.353.819 2.836.833 4.299-.016 1.232-.186 2.459-.586 3.628l1.427 1.426c.674-1.593.985-3.329.995-5.054-.027-2.109-.486-4.188-1.458-6.069zm-23.765.029c-.243.504-.311.623-.519 1.151A13.4 13.4 0 0 0 0 17.468c.022 1.719.312 3.441.985 5.031l1.429-1.428c-.368-1.185-.588-2.356-.578-3.603.018-1.456.259-2.918.82-4.269zm5.59-5.71C4.85 6.904 2.963 8.684 1.748 10.865l1.986.277c.881-1.304 1.986-2.446 3.313-3.3l-.004-.661zM19.599 5.7l-.009 1.481-.004.639c1.313.887 2.483 1.978 3.344 3.318l1.986-.277c-1.194-2.198-3.137-3.974-5.317-5.161m-9.428-1.195c-.88.226-1.749.504-2.564.913l1.539 1.424s-.062-.071 1.025-2.336zm6.286 0c.06.132 1.084 2.304 1.084 2.304l1.495-1.393a12.7 12.7 0 0 0-2.579-.912z"/></svg>