<svg xmlns="http://www.w3.org/2000/svg" width="100%" height="100%" viewBox="0 0 24 24"><path fill="currentColor" d="M14.834 12.986s.54 6.652 1.779 7.827 3.875 1.889 3.875 1.889-2.928.146-4.002 1.588c-1.207 1.62-1.525 7.655-1.525 7.655s-.381-6.194-1.747-7.719c-1.067-1.191-3.97-.858-3.97-.858s2.986-.699 3.939-2.382c1.068-1.887 1.652-8.001 1.652-8.001zm-2.927 11.621c-1.15 1.517-2.343 3.045-4.073 3.941 2.028.052 3.711-1.231 5.118-2.567-.112-.379-.235-.768-.496-1.075-.285-.233-.11-.12-.55-.298zM5.059 14.6c-.162.353-.061.111-.247.749-.889 3.621-3.23 5.785-4.812 6.305 2.736.232 4.931-2.291 6.012-4.517-.241-.867-.468-1.769-.953-2.537M7.75 2.342s-.413 6.257-1.556 8.1c-.893 1.439-3.78 1.779-3.78 1.779s2.356.121 3.32 1.525c1.571 2.287 2.048 7.655 2.048 7.655s.572-5.844 1.779-7.464c1.074-1.442 3.939-1.906 3.939-1.906s-2.859-.318-4.098-1.493S7.75 2.343 7.75 2.343zm20.366 10.331c-.683-.003-1.421.143-1.421.143-3.054.67-5.498 2.895-7.637 5.039a55 55 0 0 0-1.833 2.101l.087.12c.42.353.163.157.795.558 3.788-4.034 7.605-6.863 13.379-6.34.381.028.526-.13.513-.294-.016-.214-1.101-.682-1.755-.873-.977-.286-1.445-.449-2.128-.453zM20.71.055c-.107 1.748-.263 3.502-.629 5.218-.169.79-.371 1.599-.768 2.31-.851 1.465-3.875 2.033-3.875 2.033s2.096.191 3.113 1.48c.902 1.358 1.605 2.826 1.884 4.449l.709-.61c.299-1.389.572-2.847 1.378-4.048 1.074-1.442 4.002-1.874 4.002-1.874s-2.891-.223-4.129-1.398c-.767-.837-1.082-2.838-1.255-3.892a41 41 0 0 1-.429-3.667zm-1.355 3.419c-3.594 1.222-6.85 3.374-9.234 6.341.41.326.879.563 1.378.724l.317.094c.351-.388.699-.779 1.073-1.145 1.834-1.592 3.821-2.984 6.063-3.955.237-.861.114-.352.33-1.536l.072-.524zm7.663-1.959-.019.001c-1.715.508-2.573.826-4.989 1.143l.26 1.592 1.425-.29c1.158-.272 2.436-.747 3.121-1.789.082-.125.333-.501.201-.657z"/></svg>