<svg xmlns="http://www.w3.org/2000/svg" width="28" height="32" viewBox="0 0 28 32"><path fill="currentColor" d="M5.761 1.259c6.96-3.011 15.829-.336 19.844 6.133 3.431 5.146 3.337 12.377-.149 17.473-4.109 6.321-12.895 8.88-19.767 5.819 3.458.116 7.076-.165 10.038-2.145 3.795-2.322 6.312-6.421 6.927-10.843.077-.556.185-1.198.271-1.289 1.208-1.272 2.057-2.103 2.768-3.162.182-1.594.114-3.143-.007-4.731-1.881-.452-3.947-.514-5.828-.062-1.826-2.068-4.578-2.967-7.247-3.226-4.793-.392-9.646 2.658-11.312 7.181-.745 2.035-.596 4.225-.689 6.354-.778-2.752-.938-5.714.276-8.367 1.737-4.451 6.41-7.551 11.174-7.391 1.263.043 2.453.2 3.809.578.029.008.06.008.09.012-2.956-2.107-6.69-2.35-10.198-2.333zm7.969 17.315c-1.164-1.004-2.45-2.263-4.117-1.595.745.949 1.518 1.876 2.296 2.798l-1.738 2.003c-.662.16-1.319.315-1.981.469.039 1.159.061 2.323.066 3.482 1.148-.017 2.296.061 3.444-.028.193-.624.359-1.258.497-1.893.662-.579 1.324-1.153 1.998-1.722.944.728 1.882 1.457 2.826 2.191.083-.442.243-1.335.326-1.777a196 196 0 0 0-1.915-2.18c3.493-1.871 5.828-5.232 8.791-7.781.044-.955.072-1.915.105-2.864l-2.859.099c-2.511 2.986-5.916 5.287-7.737 8.797zM6.553 16.95c-1.164-1.004-2.45-2.263-4.117-1.595.745.949 1.518 1.876 2.296 2.798l-1.738 2.003c-.662.16-1.319.315-1.981.469.039 1.159.061 2.323.066 3.482 1.148-.017 2.296.061 3.444-.028.193-.624.359-1.258.497-1.893.662-.579 1.324-1.153 1.998-1.722.944.728 1.882 1.457 2.826 2.191.083-.442.243-1.335.326-1.777a196 196 0 0 0-1.915-2.18c3.493-1.871 5.828-5.232 8.791-7.781.044-.955.072-1.915.105-2.864l-2.859.099c-2.511 2.986-5.916 5.287-7.737 8.797z"/></svg>