<svg xmlns="http://www.w3.org/2000/svg" width="30" height="32" viewBox="0 0 30 32"><path fill="currentColor" d="M15 1c8.284 0 15 6.716 15 15s-6.716 15-15 15S0 24.284 0 16 6.716 1 15 1M6.83 24.078l-1.323 1.323c2.258 2.407 5.424 3.815 8.718 3.981l-1.195-2.07c-2.424-.307-4.436-1.624-6.2-3.235zm16.186.154c-1.581 1.73-3.7 2.591-5.948 3.03l-1.222 2.117c3.217-.132 6.239-1.57 8.493-3.824zM15 6.098c-5.469 0-9.902 4.433-9.902 9.902S9.531 25.902 15 25.902s9.902-4.433 9.902-9.902S20.469 6.098 15 6.098m10.184 15.319c-1.03 1.699-.488.992-1.539 2.185l1.323 1.323a8.2 8.2 0 0 0 1.946-2.796l-1.731-.712zM3.327 9.412C2.052 11.368 1.694 13.725 1.579 16c.108 3.117 1.025 6.498 3.299 8.772l1.323-1.323c-1.904-1.994-2.608-4.784-2.742-7.448.093-1.444.052-1.639.533-3.335.12-.424.339-.814.509-1.221L3.328 9.413zm23.371.038-1.2 2.078c.707 1.388.903 2.943 1.043 4.472-.081 1.241-.072 1.663-.432 3.081-.133.525-.364 1.02-.546 1.531l1.697.699c.883-1.634 1.069-3.49 1.16-5.31-.095-2.221-.445-4.658-1.723-6.55zM14.555 2.601c-4.127.134-8.105 2.186-10.428 5.626H6.61c2.037-2.365 4.909-3.447 7.945-3.746zm1.817.047-.927-.047v1.88c3.207.147 5.798 1.399 7.969 3.722h2.443C24.27 5.8 21.736 4.028 18.991 3.182c-.851-.263-1.746-.356-2.619-.534m5.781 13.136q0 1.276-1.682 1.302h-2.975q-.88 0-.88-.905 0-1.087.944-2.083c.944-.996 1.307-.995 2.031-.995q1.008 0 1.785.82c.777.82.776 1.167.776 1.862zm-5.846 3.605q0 1.396-.259 1.396-.699-.31-1.189-.31-.492 0-.596.052a2.3 2.3 0 0 1-.466.181q-.208-.26-.207-1.371 0-2.017.88-2.923.077 0 .129.078v.905q0-.362.181 2.381.052.051.155.051.155 0 .155-.362l.285-3.027q.414.931.569 1.449.18.363.362.699v.802zm-2.82-3.208q-.001.932-1.733.905h-1.423q-.983-.026-1.526-.182-.854-.26-.854-1.145 0-1.015.75-1.849c.75-.834 1.078-.833 1.733-.833q1.111 0 2.083.995c.972.995.97 1.367.97 2.109m9.908-.466v-.207a10 10 0 0 1-.026-.854 9.7 9.7 0 0 0-1.113-3.182q-.285-.49-.75-1.112-.621-.828-.828-.828.18 0-1.009.517-1.19.518-1.811.492 1.579-.853 2.224-1.603-1.992-1.656-5.225-1.656-.75 0-2.147.181-.44.052-1.319.414-.984.388-.984.673 0 1.215.44 1.733 1.163.984 1.889 1.423-1.423-.518-1.578-.569l-1.009-.233a25 25 0 0 1-.439-1.863q-3.105 2.51-3.105 6.286 0 2.537 1.785 2.871 1.293.259 1.733.362.724.156.802.181.44.621.44.828 0 .051-.052.181c-.052.13-.052.155-.052.207l-.207 3.104q-.052.699.207 1.087c.259.388.517.388 1.035.388a.17.17 0 0 0 .129-.052l.078-.621q.052-.31.052-.388 0-.103-.065-.401c-.065-.298-.065-.332-.065-.401l.311-.984h.207a49 49 0 0 1 .647 2.535q.516.025.88 0l.31-2.431h.31q.207-.024.259.104v1.837q-.051 0 .13.052.776-.517 1.216-.828a2.5 2.5 0 0 0-.078-.75.5.5 0 0 1 .054-.336h.401q.321.828.322 1.008-.001.13-.065.388c-.064.258-.065.302-.065.388q0 .285.207 1.061.647-.13 1.138-.233.181-.88.181-1.268l-.078-.828a11 11 0 0 1-.077-.802v-2.095q0-.75 1.241-.957 1.914-.31 2.277-.492 1.242-.621 1.242-2.328z"/></svg>