<svg xmlns="http://www.w3.org/2000/svg" width="26" height="32"><path fill="currentColor" d="M2.39 4.585c2.438-.812 5.16-.583 7.458.539.679.303 1.395 1.159.883 1.893-1.378 1.702-3.806 1.732-5.814 1.732C3.14 8.633.879 8.422 0 6.607c.078-1.176 1.398-1.722 2.39-2.022m-.842 1.351c.662.546 1.463.904 2.329.924 1.852.106 3.952.293 5.514-.917C8.279 4.906 6.68 4.821 5.244 4.831c-1.292.041-2.725.15-3.697 1.105zM.755 8.374c.207 1.607.14 3.763 1.581 4.483.031.015.019.053.04.08-.035.032-.066.102-.12.095-1.161-.155-1.185.541-.984 1.095.406.529.994.819 1.647.911 2.7.38 5.242.11 7.674-1.252.602-.337 1.024-.735 1.31-1.35.179-.384-.053-.885-.36-1.001-.337-.127-.961 0-1.441.28-.057.034-.066.024-.12.02.027-.049.034-.116.079-.149.961-.692.742-2.323.101-3.29-.045.019-.092.033-.136.056C7.6 9.617 3.937 9.673.838 8.398q-.042-.014-.083-.026zm20.526 16.134c-.108-.076.019.264.015.396-.016.479-.141.947-.307 1.394-.177.373-.376.737-.643 1.055h.001c.084.005.176-.021.251.016 1.076.531 4.088.5 4.736.176.327-.164.327-1.227.25-1.308-1.192-1.26-2.908-.757-4.302-1.728zm-9.83-10.535c-.037.016-.039.01-.099.055-3.373 2.494-7.866 1.771-8.333 1.658-.203-.049-.067.004-.099.006 1.088 2.503 2.967 4.573 4.917 6.442 2.336 2.097 6.067 4.45 10.32 4.47.088 0 .044-.007.082 0-.028.061-.075.395-.093.459-.1.362.064.682.413.815.766.181 1.415-.876 1.698-1.437.136-.249.076-.126.184-.365.089-.238.182-.478.212-.731.156-.622.23-1.729-.458-2.073-.398-.117-.683.105-.831.491l-.168.505v.001l-.001.001-.001.001h-.004l-.001-.001-.001-.001v-.001c-.055-.21-.113-.437-.228-.712-2.024-1.047-3.77-2.549-5.178-4.334-.972-1.527-1.456-3.276-2.175-4.924l-.154-.325z"/></svg>