<svg xmlns="http://www.w3.org/2000/svg" width="28" height="32" viewBox="0 0 28 32"><path fill="currentColor" d="m12.972 5.23.937 1.692.924-1.673c.514.044 1.022.143 1.524.261l-1.708 2.746.508 4.736 4.549-2.776.905-2.67c.396.296.752.64 1.099.992l-.594 1.563 1.741-.143c.269.397.516.811.721 1.245l-2.952.167-3.844 4.015h.14l.003.004h3.042l4.455-1.782q.198.875.25 1.769l-3.266.726v.113l3.217 1.057c-.049.526-.167 1.042-.298 1.552l-4.357-2.204h-3.185l3.844 4.015 2.95.167a9.5 9.5 0 0 1-.725 1.245l-1.734-.142.594 1.563c-.336.365-.714.685-1.096 1l-.908-2.678-4.549-2.776-.508 4.736 1.729 2.779c-.503.13-1.019.194-1.535.246l-.933-1.69-.939 1.695c-.516-.049-1.036-.11-1.539-.239l1.741-2.79-.547-4.74-4.51 2.78-.916 2.718c-.394-.3-.749-.645-1.098-.994l.612-1.61-1.795.147a9.4 9.4 0 0 1-.727-1.246l3.005-.17 3.703-4.015H7.888l-4.434 2.243a9.7 9.7 0 0 1-.305-1.563l3.301-1.084v-.113l-3.357-.746c.018-.603.132-1.195.253-1.784l4.543 1.817h3.018L7.2 11.372l-3.003-.17c.207-.435.458-.848.728-1.246l1.793.147-.611-1.607c.336-.364.717-.679 1.098-.994l.915 2.715 4.51 2.78.547-4.74-1.739-2.787c.505-.127 1.022-.187 1.539-.239zm.91-.72c6.349 0 11.496 5.147 11.496 11.496s-5.147 11.496-11.496 11.496S2.386 22.355 2.386 16.006 7.533 4.51 13.882 4.51m0-3.445-1.536 2.66a12.1 12.1 0 0 0-3.873 1.14L5.67 3.488l.203 3.035c-1.104.962-2.089 2.052-2.778 3.356l-3.096.426 1.909 2.458c-.273 1.06-.443 2.145-.431 3.243.026 1.093.157 2.186.462 3.238L0 21.741l3.152.432c.708 1.254 1.604 2.402 2.721 3.318l-.203 3.032 2.765-1.358c1.225.622 2.574.99 3.935 1.152l1.512 2.619 1.512-2.619c1.416-.185 2.81-.568 4.074-1.244l2.721 1.337-.204-3.05c1.052-.899 1.921-2.001 2.624-3.188l3.125-.43-1.906-2.454c.307-1.065.459-2.173.458-3.281-.014-1.104-.135-2.208-.439-3.272l1.886-2.429-3.063-.421c-.702-1.236-1.58-2.368-2.683-3.274l.095-1.42.106-1.588-2.731 1.342c-1.28-.609-2.637-1.074-4.05-1.237l-1.525-2.642z"/></svg>