<svg xmlns="http://www.w3.org/2000/svg" width="26" height="32"><path fill="currentColor" d="m2.282 3.302.215-.127C4.822 1.963 7.485 2.61 8.94 4.807l2.571 4.105c1.027 1.682.879 3.647-.146 5.284l-1.876-2.724c.018-.393-.134-.758-.302-1.105L6.616 6.262c-.604-.964-1.891-1.255-2.879-.637s-1.288 1.904-.684 2.868l2.571 4.105c.237.352.564.657.966.808l1.616 2.814c-2 .323-3.748-.545-4.906-2.167L.729 9.948C-.681 7.697.014 4.721 2.281 3.301zm4.162 6.65a1.356 1.356 0 0 0-.428 1.869l2.881 4.594a1.356 1.356 0 0 0 2.297-1.441L8.313 10.38a1.356 1.356 0 0 0-1.869-.428m18.634 17.785c1.74-2.032 1.516-5.079-.501-6.807l-3.679-3.151c-1.589-1.203-3.516-1.509-5.329-.605l2.382 2.204c.429.024.833.217 1.163.483l3.679 3.151c.864.74.961 2.057.203 2.941s-2.074.991-2.938.251l-3.679-3.151c-.264-.281-.517-.584-.618-.964l-2.603-2.041c-.491 1.868-.045 3.788 1.437 5.087l3.679 3.151c2.044 1.663 4.779 1.486 6.637-.364zm-6.039-5.143a1.355 1.355 0 0 0-.149-1.911l-4.12-3.525a1.355 1.355 0 1 0-1.762 2.06l4.12 3.525c.569.487 1.425.42 1.911-.149M7.218 18.856l-.107.067c-.277.257-.401.561-.275.936a.82.82 0 0 0 1.054.492l1.845-.67a.822.822 0 1 0-.562-1.546l-1.845.67c-.037.016-.076.029-.11.051m7.906-4.678c-.07.051-.036.026-.103.073-.262.273-.368.584-.22.95a.824.824 0 0 0 1.081.43l1.802-.777a.824.824 0 0 0-.651-1.511l-1.802.777c-.036.018-.074.034-.107.057zm-5.144 8.27.018.125c.122.358.349.595.743.632a.823.823 0 0 0 .879-.762l.139-1.958a.823.823 0 0 0-1.641-.117l-.139 1.958c-.001.041-.004.081.002.122zm3.324-8.882.015.125c.114.361.336.603.728.649a.824.824 0 0 0 .896-.742l.183-1.954a.824.824 0 0 0-1.638-.154l-.183 1.954c-.002.04-.006.081-.001.122"/></svg>