<svg xmlns="http://www.w3.org/2000/svg" width="31" height="32" viewBox="0 0 31 32"><path fill="currentColor" d="M17.289 12.499c1.959 1.21 3.856 2.525 5.821 3.722 2.278-1.377 5.018-1.616 7.61-1.902-1.296 1.528-2.464 3.166-3.839 4.631 1.215 2.794 2.063 5.738 2.731 8.707-1.896-1.431-3.584-3.117-5.519-4.496-2.082 1.427-4.651 1.562-7.058 1.997.515-.862.31-.587.91-1.518 2.894-.74 3.846-1.364 3.731-1.726-.28-.885-1.727-2.008-1.747-2.022-1.155-2.357-1.94-4.869-2.64-7.391zm6.136 6.001a1.366 1.366 0 1 0 0 2.732 1.366 1.366 0 0 0 0-2.732m-12.935.624a1.856 1.856 0 1 1 0 3.712 1.856 1.856 0 0 1 0-3.712m1.21-9.577c-1.851 2.984-3.535 6.094-4.793 9.377-2.318.094-4.604.498-6.907.708 2.365 1.862 4.814 3.881 7.803 4.589.65 2.575 1.148 5.192 1.783 7.772 1.589-2.816 3.021-5.748 4.012-8.831 2.14-.477 4.316-.797 6.435-1.384-2.334-1.589-4.557-3.556-7.426-4.064-.477-2.701-.503-5.454-.907-8.165zm9.962-4.56a1.31 1.31 0 1 1-1.854 1.852 1.31 1.31 0 0 1 1.854-1.852M27.043.813c-2.412.565-4.803 1.277-7.069 2.287-1.203-1.109-2.546-2.048-3.799-3.092.251 2.109.466 4.338 1.604 6.182-.96 1.609-2.017 3.163-2.988 4.767 2.198-.612 4.374-1.36 6.407-2.404 1.305.829 2.551 1.755 3.901 2.519-.371-1.957-.5-4.047-1.677-5.732 1.109-1.585 2.47-2.972 3.621-4.526z"/></svg>