<svg xmlns="http://www.w3.org/2000/svg" width="29" height="32" viewBox="0 0 29 32"><path fill="currentColor" d="m15.242 20.312 3.019 3.629-6.881-2.02zm-6.005-.575L2.601 21.15 0 24.744l6.729 1.49 3.119-4.437zm7.171-6.57-6.368 6.185.574 1.934 4.446-1.852 2.279-4.147-.932-2.12zm1.938-4.916-2.253 2.01 2.228 5.069-2.418 4.4 4.782 5.749-.192.275-.953 1.557 9.21-2.45zm-2.974-4.747L3.37 20.086l5.956-1.269 6.703-6.511-1.001-2.277 2.842-2.536zM13.16 23.497l-2.861 3.913 3.321 1.085 3.321-.099 1.513-.691-.583-2.894-4.711-1.315z"/></svg>