<svg xmlns="http://www.w3.org/2000/svg" width="30" height="32" viewBox="0 0 30 32"><path fill="currentColor" d="M15 1c8.284 0 15 6.716 15 15s-6.716 15-15 15S0 24.284 0 16 6.716 1 15 1m0 1.571C7.584 2.571 1.571 8.583 1.571 16S7.583 29.429 15 29.429c7.416 0 13.429-6.012 13.429-13.429S22.417 2.571 15 2.571m0 18.786a5.356 5.356 0 1 0 0-10.714 5.356 5.356 0 1 0 0 10.714M15 7.5a8.5 8.5 0 1 1-.001 17.001A8.5 8.5 0 0 1 15 7.5m0-2.143C9.122 5.357 4.357 10.122 4.357 16S9.122 26.643 15 26.643 25.643 21.878 25.643 16 20.878 5.357 15 5.357"/></svg>