<svg xmlns="http://www.w3.org/2000/svg" width="100%" height="100%" viewBox="0 0 24 24"><path fill="currentColor" d="M18.105 2.162c.267 1.366.544 2.727.787 4.097.666.253 1.327.52 1.983.792 1.132-.797 2.27-1.584 3.422-2.348q1.479 1.51 2.965 3.013c-.768 1.128-1.526 2.255-2.318 3.368q.423 1.014.802 2.041c1.375.253 2.746.525 4.122.763-.015 1.405-.015 2.809-.015 4.214-1.371.209-2.727.491-4.088.758-.253.68-.52 1.356-.782 2.032.792 1.118 1.55 2.26 2.309 3.402-1.006.996-1.983 2.022-3.013 2.999-1.137-.778-2.275-1.55-3.407-2.333q-.961.393-1.93.773c-.262 1.371-.544 2.736-.821 4.102h-4.238c-.277-1.366-.559-2.732-.821-4.102q-.968-.379-1.93-.773c-1.132.782-2.27 1.555-3.407 2.333-1.03-.977-2.007-2.002-3.013-2.999.758-1.142 1.516-2.284 2.309-3.402-.262-.676-.53-1.351-.782-2.032-1.361-.267-2.717-.549-4.088-.758 0-1.405 0-2.809-.015-4.214 1.375-.238 2.746-.51 4.122-.763q.38-1.028.802-2.041c-.792-1.113-1.55-2.241-2.318-3.368q1.486-1.503 2.965-3.013a145 145 0 0 1 3.422 2.348c.656-.272 1.317-.54 1.983-.792.243-1.371.52-2.732.787-4.097h4.209zM16 9.773a6.227 6.227 0 1 0 0 12.454 6.227 6.227 0 0 0 0-12.454m.008 4.541a1.686 1.686 0 1 1 0 3.372 1.686 1.686 0 0 1 0-3.372m0-2.801a4.432 4.432 0 1 0 0 8.863 4.432 4.432 0 0 0 0-8.863"/></svg>