<svg xmlns="http://www.w3.org/2000/svg" width="29" height="32" viewBox="0 0 29 32"><path fill="currentColor" d="M2.739 3.283c4.091.419 7.979 2.391 10.467 5.7.469.598.646 1.352.61 2.102-.022 5.021-.037 10.045-.03 15.07-1.094-1.009-2.143-2.08-3.366-2.93-2.309-1.492-5.05-2.052-7.682-2.694V3.283zM1.358 7.24c-.455.057-.905.146-1.358.212v17.921a39 39 0 0 1 3.918-.618c.037-.879.037-1.759.041-2.638-.857-.089-1.714-.163-2.571-.259-.096-4.873.037-9.746-.03-14.619zm25.891-.023.002 14.603-.069.009c-1.548.222-3.125.299-4.629.765-1.984.599-3.742 1.781-5.25 3.181 1.722-.41 3.44-.894 5.217-1.034.5-.047.589-.064 1.197-.055 1.698.026 3.356.447 5.033.657V7.539c-1.002-.209-.501-.102-1.501-.32zM4.99 22.224c-.07 2.8-.004 5.601-.004 8.405.499-1.057 1.082-2.073 1.685-3.07.658.979 1.264 1.999 1.748 3.077-.015-2.394.063-4.788-.015-7.186a23.3 23.3 0 0 0-3.414-1.227zm4.487 2.989.034.005c.86.155 2.162.899 2.162.899l.091.038-.067-.065s-1.271-1.687-2.202-2.134c-.011-.005-.033-.019-.033-.019l.001.043.013 1.186zm16.535-21.93v17.248c-2.632.642-5.372 1.202-7.682 2.694-1.223.85-2.272 1.921-3.366 2.93.007-5.024-.007-10.049-.03-15.07-.037-.75.14-1.504.61-2.102 2.489-3.309 6.376-5.281 10.467-5.7z"/></svg>