<svg xmlns="http://www.w3.org/2000/svg" width="31" height="32" viewBox="0 0 31 32"><path fill="currentColor" d="M15.785 2.232c.825.121 1.415.567 1.869 1.246l12.94 22.51c.967 1.682-.247 3.78-2.187 3.78H2.527c-1.94 0-3.154-2.098-2.187-3.78l12.94-22.51c.666-1.03 1.336-1.246 2.505-1.246m-.318 2.503-12.94 22.51h25.88zm-1.942 19.417q0 .768.555 1.261t1.386.493 1.386-.493.555-1.261-.555-1.261-1.386-.493-1.386.493-.555 1.261m2.775-3.219s.619-.025.639-.689.391-9.151.391-9.151.045-.491-.518-.491h-2.601s-.563 0-.557.502l.417 9.116s-.034.687.608.712h1.622z"/></svg>