<svg xmlns="http://www.w3.org/2000/svg" width="31" height="32" viewBox="0 0 31 32"><path fill="currentColor" d="M28.544.039c.053.063.035.031.061.091.485 1.333.798 2.776 2.166 3.918.25.284-.271.71-.454.875-.261.234-.613.502-.879.701-.674.503-1.37.978-2.018 1.515.333 1.561-.005 3.176.39 4.731 1.959 3.028 4.724 8.441 1.777 11.704-.994.964-2.366 1.305-3.72 1.245a4.66 4.66 0 0 0 .793-2.234c0-1.203-.584-2.858-1.227-3.847a45 45 0 0 0-5.139-6.47c-1.815-1.789-3.745-3.381-5.799-4.894-1.39-1.024-4.174-2.49-5.971-2.109-.635.176-1.192.518-1.751.853-.12-1.582.143-2.931 1.226-4.131 3.441-3.053 9.013.017 12.142 2.065.761.317 1.63.164 2.427.141.782 0 1.619-.037 2.361.256 1.136-1.18 1.913-2.643 2.943-3.906.139-.171.345-.465.583-.522.029-.007.059.012.088.019zM11.029 9.883c.405.476 1.15 1.475.402 1.988-6.909 3.556-8.852 12.974-8.852 12.974S-.853 16.547 7.687 9.57c1.163-.95 2.309-.675 3.342.313m8.014 3.622c-1.711-1.686-3.449-3.336-5.394-4.753-1.316-.959-3.604-2.589-5.335-2.192C4.488 7.814 1.165 13.1.171 17.879c-.52 2.498.262 5.715.742 8.312.491 2.66.376 4.516.376 4.516s1.343-.3 3.888.125c2.597.435 6.421 1.59 8.749.972 4.61-1.223 11.069-5.3 11.352-9.031.021-1.155-.73-2.364-1.329-3.303-1.39-2.175-3.132-4.103-4.908-5.965z"/></svg>