<svg xmlns="http://www.w3.org/2000/svg" width="100%" height="100%" viewBox="0 0 24 24"><path fill="currentColor" d="M7.992 1.938h16.015c.41.128.83.344.968.784.134.709-.138 1.412-.067 2.123.065.616-.192 1.222-.067 1.834.242.355.684.517.895.896.081.129.142.271.202.412v.842c-.141.346-.342.674-.634.913-.261.233-.621.407-.728.766-.581 2.304-1.286 4.598-2.381 6.715-.255.534-.77.864-1.211 1.23-.641.526-1.397.881-2.142 1.231-.457.212-.993.349-1.319.758-.058.308 0 .621.045.926.086 1.014.179 2.028.252 3.044.102.546-.009 1.125.219 1.647.352.851 1.152 1.388 1.933 1.809.726.327 1.499.625 2.309.599.611-.026 1.244.074 1.787.368.322.16.375.636.113.877-.269.209-.617.263-.938.35H8.754c-.32-.086-.667-.142-.935-.35-.241-.225-.22-.653.055-.841.636-.386 1.403-.427 2.128-.407 1.109-.103 2.175-.573 3.052-1.254.427-.332.783-.774.957-1.29.169-.488.071-1.01.171-1.508.095-1.181.173-2.363.315-3.54.008-.207.043-.458-.16-.587-.517-.406-1.18-.55-1.747-.873-.847-.384-1.604-.934-2.292-1.554-.404-.38-.622-.901-.864-1.387-.879-1.91-1.519-3.922-2.014-5.962-.115-.407-.548-.577-.823-.856-.263-.214-.43-.513-.534-.832v-.836c.102-.515.548-.787.915-1.103.319-.229.206-.662.188-.996-.14-.618-.028-1.252-.096-1.875-.07-.426-.122-.865-.047-1.294.167-.407.565-.654.968-.782z"/></svg>