<svg xmlns="http://www.w3.org/2000/svg" width="100%" height="100%" viewBox="0 0 24 24"><path fill="currentColor" d="M14.411 6.677c.789.077.452.027 1.013.124 6.399 1.064 11.598 5.328 16.563 9.204-5.174 4.03-10.647 8.705-17.449 9.277-3.514.403-6.577-2.152-7.673-5.352-1.548 2.434-4.167 4.008-6.851 4.927V7.321c2.773.54 4.941 2.55 6.956 4.388 1.036-2.554 3.352-4.568 6.117-4.968.589-.085.73-.064 1.325-.064zm-.553 1.193c-3.869.16-5.793 4.238-6.357 7.596 3.03-2.281 6.835-.999 9.954.395 3.933 1.918 8.511 1.282 12.501-.097-4.779-3.256-9.688-6.899-15.523-7.874-.321-.022-.129-.012-.574-.02z"/></svg>