<svg xmlns="http://www.w3.org/2000/svg" width="100%" height="100%" viewBox="0 0 24 24"><path fill="currentColor" d="M24.247 12.196c1.074.043.611.006 1.389.085 2.336.284 3.296.995 6.103.107.071-.015.157-.049.222.02.077.082.021.282 0 .352-.139.464-.434.878-.709 1.269.364-.13.186-.06.534-.208.051-.021.134-.048.158.028.055.176-.169.482-.252.592a4 4 0 0 1-2.252 1.468c-3.061 1.662-4.907 1.899-7.55 2.063-.273-.168-.499-.391-.722-.618-.332-.09-.679-.041-1.015-.001L3.09 19.699c-.095.026-.006.002-.273.051-1.43.221-2.686-.232-2.806-1.011s.941-1.589 2.371-1.81h.002l-.002-.013 13.581-1.982c.638-.51 1.938-.679 2.72-.804.714-.116 1.431-.211 2.147-.309l.011-.082c.006-.103-.003-.061.017-.129.061-.21.061-.268.184-.449.608-.896 2.239-.919 3.207-.964zm-4.05 2.377c-.761.051-1.386.137-2.135.286-.089.018-.635.102-.727.242-.101.331.239.553.376.621s2.455-.236 2.572-.431c.122-.203.156-.637.019-.691-.049-.009-.012-.025-.105-.026zm4.211-1.586c-1.1.044-2.253.182-2.639 1.067-.089.204-.102.437.263.506 1.05.198 1.784-.402 2.84-.515 1.194-.129 2.399-.145 3.581-.405-1.028-.279-2.067-.554-3.134-.632-.303-.022-.608-.014-.912-.02z"/></svg>