<svg xmlns="http://www.w3.org/2000/svg" width="100%" height="100%" viewBox="0 0 24 24"><path fill="currentColor" d="M31.406 15.477q0 3.133-2.279 4.273-.665.332-4.178.902-2.278.38-2.278 1.756v3.845q0 .239.142 1.472l.143 1.52q0 .713-.333 2.327-.902.189-2.089.428-.38-1.425-.38-1.948 0-.237.119-.712.119-.474.12-.713 0-.331-.59-1.85h-.736q-.146.237-.098.617.19.807.143 1.377-.807.57-2.232 1.519-.332-.095-.238-.095v-3.371q-.093-.235-.475-.19h-.569l-.569 4.462q-.665.048-1.614 0-.333-1.565-1.187-4.652h-.38q-.523 1.664-.57 1.805 0 .189.119.735.117.546.118.736 0 .142-.095.712l-.143 1.139a.33.33 0 0 1-.237.095q-1.424 0-1.899-.711-.475-.713-.38-1.995l.38-5.696q0-.143.095-.38.094-.237.095-.332 0-.38-.807-1.52-.142-.047-1.471-.333-.808-.19-3.181-.665-3.277-.616-3.276-5.269 0-6.931 5.698-11.536.236 1.282.806 3.418.428.096 1.852.427.286.096 2.897 1.045-1.33-.807-3.466-2.611-.807-.949-.807-3.18 0-.522 1.805-1.236 1.613-.664 2.421-.759Q14.365.002 15.743 0q5.933 0 9.588 3.039-1.186 1.377-4.082 2.942 1.14.049 3.323-.902 2.183-.948 1.852-.949.38 0 1.52 1.519a22 22 0 0 1 1.377 2.041 17.9 17.9 0 0 1 2.042 5.839q0 1.093.047 1.567v.38h.001zm-18.182.855q0-2.041-1.78-3.87c-1.78-1.829-2.461-1.827-3.822-1.827q-1.804 0-3.181 1.529c-1.377 1.529-1.377 2.151-1.377 3.393q0 1.624 1.567 2.102.996.288 2.801.334h2.611q3.18.048 3.181-1.661m5.174 5.887v-1.472a46 46 0 0 1-.664-1.282q-.285-.95-1.045-2.659l-.523 5.555q0 .665-.285.665-.189 0-.285-.094-.333-5.032-.333-4.369v-1.661q-.095-.144-.237-.143-1.615 1.663-1.614 5.365-.001 2.041.379 2.517.38-.095.855-.332.189-.096 1.093-.095.901 0 2.183.569.474 0 .475-2.562zm10.729-6.615q0-1.912-1.424-3.416c-1.424-1.504-2.042-1.505-3.275-1.505q-1.994 0-3.727 1.827c-1.733 1.827-1.733 2.492-1.733 3.822q0 1.662 1.614 1.661h5.459q3.086-.047 3.086-2.389"/></svg>