<svg xmlns="http://www.w3.org/2000/svg" width="100%" height="100%" viewBox="0 0 24 24"><path fill="currentColor" d="M13.407 5.933c1.013-1.434 1.676-3.071 2.587-4.569.88 1.447 1.519 3.03 2.483 4.426a28.9 28.9 0 0 0 7.727 7.722c1.401.967 2.987 1.608 4.434 2.495-1.456.868-3.038 1.512-4.436 2.478a28.8 28.8 0 0 0-7.821 7.869c-.919 1.357-1.536 2.886-2.389 4.279-.882-1.444-1.521-3.028-2.486-4.424a28.9 28.9 0 0 0-7.725-7.724c-1.396-.962-2.977-1.603-4.419-2.493 1.5-.899 3.129-1.569 4.564-2.575a29.1 29.1 0 0 0 7.481-7.486zM7.373 15.999a34.3 34.3 0 0 1 8.617 8.621c2.339-3.356 5.256-6.3 8.631-8.617a34.4 34.4 0 0 1-8.631-8.624 34.4 34.4 0 0 1-8.617 8.619z"/></svg>