<svg xmlns="http://www.w3.org/2000/svg" width="29" height="32" viewBox="0 0 29 32"><path fill="currentColor" d="M16.175.195c.236-.087.486-.124.727-.195.114.02.205.111.321.126.168.008.336-.011.503-.006.128.055.232.192.385.162.127-.026.244.033.367.051.125-.033.242-.104.377-.08q-.098.059-.195.115c.045.042.082.098.143.119.1.002.199-.076.296-.021.228.097.455.194.691.27.123.043.228-.056.333-.104q-.066.087-.13.175c.127 0 .255-.021.382-.021.094.017.178.066.266.105l-.022.135c.209.02.439-.024.626.093.113.061.244.069.365.109.173.063.359.034.539.046-.09-.047-.182-.1-.222-.198.249-.044.454.136.664.238a.95.95 0 0 0 .479.155l.002.138c-.22-.093-.449-.162-.659-.274a1 1 0 0 0-.246-.086c.172.142.394.196.593.288.235.081.424.249.654.34-.073-.077-.154-.145-.229-.221.394.128.753.343 1.099.566.227.152.432.338.679.459.129.062.247.145.341.254.123.143.296.227.425.362.173.157.32.343.522.466l.009-.252c.086.127.161.261.25.387.084.121.235.158.351.239.173.096.196.319.348.438.195.165.346.398.597.483l-.008-.224c.056.032.143.042.155.119.004.127-.074.235-.125.346l.127-.008c-.031.042-.065.082-.091.126.115.275.361.46.531.696.037.363.31.645.37 1.003.016.11.082.201.127.3.071.301.114.609.117.918-.007.127-.03.257.002.383.018.117.082.22.105.334-.01.13-.063.253-.061.385-.021.279.057.551.05.829 0 .552.013 1.106-.056 1.655q-.06-.086-.117-.173a8.5 8.5 0 0 1-.135 1.968c-.048.248-.13.487-.189.732-.05.218-.19.403-.238.622-.049.221-.225.376-.33.57.055-.195.102-.393.107-.596.011-.324.101-.641.096-.966-.056.094-.101.194-.155.289-.024-.333.08-.658.077-.991-.033.109-.059.219-.095.327-.024-.197-.044-.393-.071-.589l-.108.026c-.037-.198-.042-.4-.062-.6q-.064.088-.129.175c-.056-.324-.015-.657-.078-.98a.85.85 0 0 1 .003-.373c.04-.155.007-.314-.033-.465-.082.069-.155.146-.23.221v-.261l-.19.029c.015-.098.038-.197.032-.297-.049-.199-.2-.356-.238-.559-.063-.336-.143-.685-.343-.968a5 5 0 0 0-.266-.635c-.12-.229-.331-.399-.427-.642-.05-.147-.201-.218-.293-.334-.317-.328-.581-.706-.935-.997-.16-.134-.367-.201-.51-.358-.114-.126-.313-.112-.42-.247-.158-.192-.381-.308-.585-.443-.263-.154-.567-.223-.866-.269-.132-.021-.249-.09-.374-.13-.148.026-.277.119-.429.129-.289.017-.566-.085-.834-.178-.158-.055-.299-.156-.467-.18-.151-.003-.301.065-.453.026-.197-.017-.369-.145-.571-.124-.281-.009-.548.09-.825.108-.24.024-.487.005-.721.071-.322.086-.637.199-.965.266-.311.07-.624.156-.903.314-.268.149-.541.293-.794.467-.123.082-.196.235-.346.274a.9.9 0 0 0-.329.152c-.119.097-.261.159-.384.248a2.6 2.6 0 0 0-.583.657c-.075-.063-.149-.126-.231-.179-.021.104-.028.21-.054.312-.016.085-.11.107-.174.145-.072.023-.081.105-.112.163-.063.16-.205.266-.332.373-.133.097-.156.28-.288.379-.068.069-.17.051-.257.056-.052.194-.181.363-.201.564-.013.111.069.19.146.255q.087-.09.182-.171c.035.094.058.192.099.284.142.139.346.203.472.362.014.055.019.112.028.168l.146-.109c.132.108.211.263.34.375q-.1-.019-.199-.039.117.09.237.18.018-.09.039-.179c.19.165.364.351.485.574.125.041.252.076.372.131-.125.187-.076.419-.149.622-.039.125.143.145.223.187l.034-.245c.063.045.119.105.195.13a.5.5 0 0 0 .18-.1c.016-.067.021-.135.03-.203.211.005.364-.164.465-.33.11-.178.248-.334.386-.49.069.124.171.239.196.381-.041.319-.179.617-.277.921l-.077-.16c-.019.124-.02.25-.012.376-.136.107-.213.27-.35.375-.116.085-.16.23-.261.33-.102.089-.063.229-.068.347-.152.065-.305.137-.406.274a4 4 0 0 0-.228-.134c-.074.084-.136.181-.224.251-.074.005-.147-.012-.219-.023l-.022-.218c-.299.279-.438.673-.619 1.029-.04.077-.021.166-.021.249l-.208.079q.072-.159.106-.329c-.098.015-.197.017-.294.036-.091.086-.169.19-.285.246-.218.117-.421.26-.617.411-.156.127-.358.168-.537.252a5.4 5.4 0 0 1-.823.319c-.451.118-.907.221-1.36.329-.223.05-.449.094-.679.1-.152.007-.306 0-.454.036-.149.04-.284.124-.438.15-.092.017-.186-.015-.278.001-.341.087-.629.296-.951.429-.149.068-.272.177-.416.253-.182.099-.39.144-.56.267-.277.187-.633.263-.851.531-.111.112-.249.193-.364.301l-.076-.099q-.076.103-.149.209l.152.055c-.296.323-.579.657-.868.987-.06.059-.055.15-.074.227-.082.054-.196.086-.225.191-.036.103-.121.176-.188.259l-.072-.097c-.057.149-.129.294-.158.452a.7.7 0 0 1-.107.257l-.062-.205c-.086.286-.168.606-.419.795-.037.04-.095.033-.143.045-.054.271-.183.518-.325.752-.086.212-.226.397-.295.616a1.9 1.9 0 0 0-.164.52c-.077.186-.148.377-.255.549-.255-.275-.263-.666-.339-1.012-.057-.237.009-.48-.02-.72-.007-.066-.018-.134.003-.199.219-.717.209-1.475.268-2.216.009-.148.029-.296.028-.445-.043.111-.065.23-.106.342-.003-.092-.019-.187.01-.276.054-.144.201-.224.252-.37.192-.456.417-.897.609-1.354l-.104.028c.101-.21.164-.441.302-.632q.155-.223.294-.456c.097-.161.069-.37.185-.522.173-.231.38-.436.581-.642.258-.306.495-.635.635-1.013-.093.074-.189.15-.248.255-.055.095-.107.196-.203.257.032-.213.178-.381.326-.527q.4-.37.779-.76c.099-.096.147-.226.201-.35.067-.159.194-.281.283-.427.03-.103-.007-.216.032-.316.113-.223.195-.461.308-.685.06-.11.06-.236.054-.357-.01-.234.186-.408.21-.633.002-.205-.028-.414.022-.616.08-.306.16-.612.222-.922.132-.437.285-.866.431-1.298.074-.2.237-.346.339-.53.094-.167.1-.372.218-.527a3.6 3.6 0 0 0 .381-.616c.049-.123.177-.188.231-.308.035-.086.054-.177.079-.266.052-.015.124-.002.156-.055a.9.9 0 0 1 .19-.244c.114-.102.183-.24.265-.367.074-.122.237-.162.293-.3a2.2 2.2 0 0 0 .152-.549c.113-.161.263-.298.443-.38-.116.137-.222.286-.365.398l.092.086c.077-.189.263-.275.417-.388.217-.146.391-.345.56-.544q-.081-.05-.164-.099c.138-.094.297-.039.448-.049.239-.126.462-.283.707-.4.244-.113.412-.336.654-.452.191-.095.41-.103.609-.173.193-.061.355-.193.554-.238.22-.08.419-.212.652-.259.09-.037.169.043.257.049.164-.068.277-.212.421-.309.115-.036.243.014.355-.038.139-.064.284-.112.425-.169.196-.087.421-.045.619-.128.281-.083.518-.313.825-.302.328.003.656-.052.967-.154zm3.431 4.531c.156-.012.318-.039.444-.141a.45.45 0 0 0-.444.141M18.872.292c.075.04.147.087.229.11a1 1 0 0 0 .117-.067.45.45 0 0 0-.346-.043m.884.317c.009.132.114-.065 0 0m.401.099c.15-.04.305-.05.46-.054-.145-.114-.334-.056-.46.054m1.08.169a1 1 0 0 0 .277.06l-.081-.106c-.068-.022-.134.024-.196.045zm.452.063c-.054.048.031.129.079.078.053-.049-.031-.131-.079-.078m4.609 2.389c.082.109.16.225.276.303-.008-.162-.157-.229-.276-.303m-.122.252c-.064.116.132.008 0 0m1.367 1.112c.069.044.142.084.209.132-.052-.085-.036-.185-.025-.278zM12.166 8.475a.85.85 0 0 1-.145.498c.066.115.112.25.227.327.019-.128-.071-.225-.107-.337.019-.162.101-.327.025-.488m1.938 2.407a2 2 0 0 0-.029.143l.128.007q-.047-.076-.098-.151zm13.142.289q-.031.096.065.066.03-.097-.065-.066m-10.407.909c-.177.042-.289.191-.405.318-.106.13-.316.075-.417.212-.078.106-.19.18-.277.276-.073.149-.201.282-.207.456-.011.056-.002.119-.034.169a1.6 1.6 0 0 1-.458.227c-.144.013-.322.044-.39.189-.102.205-.33.3-.535.37-.056.033-.105-.018-.154-.041l.03.128a5.4 5.4 0 0 0-1.006.367c-.008-.086-.012-.172-.022-.257-.098.076-.085.205-.102.315a1 1 0 0 0-.386.23c-.008-.153.088-.273.149-.404-.208.09-.176.344-.225.527-.052.009-.106.012-.156.03-.083.064-.102.177-.171.252-.066.053-.142.093-.215.135-.067.039-.163.041-.196.123-.106.194-.302.307-.473.436-.104.066-.114.202-.166.305l-.061-.154a2 2 0 0 0-.187.206l-.065-.128c-.076.071-.164.128-.243.196-.045.106-.039.25-.154.313-.118.076-.222.17-.327.262.041-.115.119-.21.183-.312-.226.124-.338.364-.493.557-.172.236-.376.45-.514.71-.117.215-.352.342-.458.563-.091.285-.319.493-.509.714-.055.075-.156.084-.229.133-.048.063-.082.135-.122.203l-.077-.106c-.048.099-.088.204-.153.294-.096.127-.13.285-.203.424-.08.155-.17.305-.252.46-.051.102-.157.165-.197.272-.062.172-.153.331-.206.506a4 4 0 0 1-.363.583c-.089.129-.107.289-.159.434-.163.4-.317.809-.376 1.239-.089.319-.102.654-.201.971-.028.19-.162.342-.194.531a2 2 0 0 0-.034.474l-.082-.084c.007.358-.007.717.005 1.075.002.122.011.249-.041.363-.068.251-.029.514-.04.77-.034.262-.015.529.019.79.037.134.082.266.117.401.114.297.161.618.311.902.022-.247-.031-.494-.008-.74q.04-.206.114-.403c.031-.093.125-.153.141-.253.039-.182.052-.371.131-.541.153-.355.299-.715.48-1.057.106-.204.091-.471.275-.631.06-.087.041-.209.103-.296.111-.155.171-.338.252-.509l.128.065c.057-.13.073-.278.159-.394.111-.153.196-.323.322-.465.101-.186.193-.377.328-.541.189-.246.445-.427.693-.608.134-.101.189-.285.347-.358.252-.117.437-.331.671-.477.149-.085.221-.26.382-.327.126-.065.225-.17.351-.235.181-.115.395-.171.561-.31.185-.176.466-.14.674-.273.334-.136.597-.404.944-.514.186-.059.344-.171.497-.288.249-.013.456-.158.653-.296.119-.084.262-.124.38-.21.1-.07.197-.147.31-.195.132-.034.28-.009.402-.083q.238-.13.501-.208c.07-.024.142-.002.213.01.163-.181.422-.22.615-.361.152-.131.367-.112.534-.215q.281-.169.561-.342-.057-.105-.106-.212.098.073.192.151c.031-.072.063-.143.075-.221-.052-.044-.12-.062-.18-.089.06-.173.168-.326.212-.506l-.216.056q.002-.117.006-.233l.236.053a5 5 0 0 0-.202-.192c.181-.09.322-.238.467-.375.221-.251.46-.486.68-.738.108-.121.098-.293.162-.433.065-.139.137-.277.169-.428.034-.147-.036-.301.022-.444.052-.14.06-.291.121-.428.063-.138.069-.291.076-.44-.205.207-.412.417-.669.559-.096-.006-.154-.09-.219-.149.076-.094.16-.181.24-.272.115-.141.075-.363.224-.481.105-.082.144-.213.197-.33a.9.9 0 0 0 .295-.023.5.5 0 0 0-.23-.08c-.017-.121-.019-.246-.066-.36-.051-.105-.138-.185-.211-.274.054-.122.119-.281.024-.399-.075-.091-.114-.203-.171-.305-.178-.052-.368-.016-.549-.034-.058-.078-.095-.186-.205-.204-.102-.054-.189.043-.271.088-.061-.015-.12-.04-.183-.041-.099.051-.197.117-.314.098q.031-.08.065-.159c-.084-.031-.174-.076-.26-.026zm10.7.951q-.032.097.065.066.03-.098-.065-.066m-15.386 1.503q-.078.04 0 .08.078-.04 0-.08m16.262.676c-.062.116.132.006 0 0m-.064.421c-.079.013-.048.137.028.112.078-.014.049-.139-.028-.112m-.411.203q-.034.097.061.067.033-.098-.061-.067m-19.827.148q-.032.096.065.066.031-.096-.065-.066m9.595 1.707a.6.6 0 0 0-.122.152c.234-.126.391-.351.553-.555-.153.125-.282.275-.431.403m3.687-.13-.017.127.122.019c.022-.084-.027-.131-.105-.147zm-.657.564-.168-.174c-.139.022-.28.078-.421.04a.8.8 0 0 0-.417-.006c-.194.04-.331.193-.493.295-.102.074-.22.121-.33.181-.118.092-.209.219-.344.288-.112.056-.181.162-.254.259-.072.102-.187.188-.17.327.015.206-.198.307-.372.324a.9.9 0 0 0-.453.14l.124.093c-.165.156-.381.235-.571.354-.177.123-.321.284-.471.436-.115.106-.125.28-.243.384q-.166.151-.306.328c-.104.101-.14.246-.236.352-.123.142-.229.298-.339.45-.173.244-.414.433-.573.688a1.5 1.5 0 0 0-.184.477c-.032.202-.159.368-.252.546-.155.259-.255.546-.398.812l-.132-.045c-.029.132-.032.267-.05.4-.052.23-.166.443-.209.676-.039.217-.044.439-.097.653-.045.195-.129.379-.188.57-.06.179-.032.371-.05.557-.008.205-.074.409-.04.615.02.114.006.23-.037.337-.073-.073-.14-.15-.213-.222-.028.091-.088.189-.045.285.051.074.143.102.217.149q-.13.093-.257.19.04.079.082.159c.07-.104.134-.212.211-.311.025.279.045.562-.013.839.064.058.137.114.172.196.08.135-.013.286-.026.427l.17.021c.012.435.3.795.358 1.22.032.2.092.397.201.569.031-.231.049-.464.076-.694.109-.151.143-.335.205-.506-.009-.207-.004-.418.082-.611.08-.274.33-.451.428-.716.041-.1.092-.194.143-.288.072-.128.108-.276.199-.394.115-.195.147-.424.222-.635.033-.126.163-.188.222-.299.13-.223.245-.457.401-.664.107-.118.244-.205.373-.297.145-.086.154-.281.274-.391.077-.048.17-.062.249-.106.112-.114.21-.241.318-.358.118-.12.258-.214.389-.32.1-.073.12-.216.232-.277.158-.09.229-.276.392-.358q.192-.102.373-.221c.213-.137.477-.16.691-.295.303-.215.607-.437.95-.586.186-.088.362-.196.553-.275.311-.121.544-.373.816-.558.251-.044.518-.096.709-.281-.113-.005-.236.025-.339-.035-.062-.024-.12-.081-.191-.066a5 5 0 0 1-.366.058q.058.13.123.259c-.079.034-.156.075-.24.093a1.6 1.6 0 0 1-.519-.142c.142-.148.331-.215.524-.268q-.092-.053-.184-.104c.191-.166.318-.393.513-.555.123-.105.267-.179.396-.275.117-.086.172-.224.25-.342.207-.296.447-.575.583-.914.085-.183.263-.347.237-.564-.086-.14-.21-.251-.299-.388.117-.05.234-.104.341-.173-.024-.123-.007-.247-.002-.37a.55.55 0 0 1-.331-.161c-.01-.107.02-.214.016-.322a2 2 0 0 0-.196.002 6 6 0 0 0-.011.27c-.089.055-.214.085-.26.188 0 .1.017.199.018.3-.132-.049-.143-.199-.22-.299-.08-.128-.226-.194-.317-.313-.036-.072-.034-.164-.096-.22-.127-.125-.311-.21-.349-.401-.065-.113-.017-.237.01-.352-.174.142-.384.226-.572.347zm-5.869 4.317c-.069.015-.041.13.028.108.07-.015.041-.13-.028-.108m7.141.253q-.03.096.065.066.03-.098-.065-.066m-9.057 3.478c.208-.018.302-.227.304-.412-.115.126-.211.27-.304.412m.07.779q-.027.081.057.056.025-.083-.057-.056m-.15.08-.02.132q.09 0 .181-.005l-.042-.136zm2.802 1.691.149.011-.012-.146q-.119.017-.137.134zm-1.49 2.289q-.031.096.065.065.03-.097-.065-.065m.172-.007q-.032.096.066.065.03-.097-.066-.065"/></svg>