<svg xmlns="http://www.w3.org/2000/svg" width="100%" height="100%" viewBox="0 0 24 24"><path fill="currentColor" d="M11.102 8.283c.257-.116.496-.372.801-.288.204.087.411.172.604.282.211.232.378.506.491.799.173.456.425.883.527 1.364.143.368.123.771.249 1.143.193-.62.105-1.268-.038-1.885.22.585.282 1.211.459 1.807.164.329.222.696.386 1.024.136.29.119.622.23.921.239.676.251 1.403.45 2.089.077.856.378 1.672.456 2.528.018.274.171.507.249.764.017.251-.071.494-.061.745.011.337.091.672.054 1.011-.059.416.099.824.282 1.19.12-.458.038-.934.074-1.399.054-.317.175-.618.224-.935.079-.521.021-1.059.173-1.568.065-.629.193-1.254.171-1.889.244-.436.208-.974.118-1.45-.007-.606.251-1.187.24-1.793.299-.57.464-1.202.553-1.837.034-.524.14-1.038.208-1.557l.078.258q.139-.281.247-.574l-.278.018c.057-.119.091-.253.176-.356.111-.104.263-.14.4-.196.204-.223.448-.432.749-.5.303-.04.61-.005.913.018a9 9 0 0 0-.282.203c.25.046.501.009.752.007.136.011.12.178.165.272.048.22.262.335.425.464a10 10 0 0 0-.409-.096c.274.524.828.795 1.262 1.166l-.087.096c.151.354.27.721.495 1.037.193.148.383.3.578.446a9 9 0 0 0-.234.253c.416.024.819-.118 1.222-.201.407-.163.845-.206 1.269-.306.467-.058.855-.345 1.244-.585l.033.35c.111-.151.214-.314.37-.423.142-.094.311-.136.456-.225.137-.102.234-.253.387-.335.181-.095.37-.177.541-.293q-.085.21-.142.429c.165-.063.251-.214.307-.372l.237-.028.1.164c.103-.119.186-.252.237-.401l.106.046c.116-.165.271-.3.482-.313l.118.128.36-.163-.023-.167c.64-.174 1.14-.626 1.735-.895-.273.296-.56.583-.923.768l.12.053-.068.137.317.042c-.261.221-.614.307-.843.567-.155.165-.38.258-.479.473.389-.001.714-.234 1.076-.339-.308.266-.712.388-1.01.667.255-.056.488-.175.723-.286q.103.066.203.136c-.203.143-.425.265-.596.448-.173.132-.356.25-.517.397l.316-.124c-.226.229-.359.531-.62.728.446-.13.745-.519 1.18-.673-.317.36-.748.589-1.062.952q.391-.099.784-.192c-.302.205-.604.413-.932.577-.387.188-.749.43-1.155.579a.96.96 0 0 0-.405.286c.255.099.526.052.764-.071q.053.087.108.173c-.2.121-.403.239-.596.372l.11.065c-.276.235-.547.477-.864.655-.388.312-.786.618-1.221.862-.341.11-.675.241-1.008.376q-.156-.05-.311-.098c.166.445.339.889.449 1.352.089.316.175.643.374.911.207.269.27.614.46.894.183.269.332.563.416.878-.213-.271-.412-.553-.647-.805.129.302.31.581.407.896.091.241-.029.5.055.742.074.251.066.514.055.773-.178-.32-.356-.645-.413-1.012l.009.395c-.198-.46-.586-.815-.713-1.308l.056.45a2.8 2.8 0 0 1-.32-.534l-.028.19a12 12 0 0 1-.167-.435l-.057.265a6 6 0 0 1-.212-.341l-.028.201-.122-.342c-.526-.458-.786-1.131-1.19-1.685.029.215.074.428.099.644-.088-.195-.139-.404-.22-.602-.086-.157-.204-.294-.308-.438.084.355.196.702.314 1.046a13 13 0 0 0-.348-.366c-.22-.144-.266-.409-.327-.645a4 4 0 0 0-.328.37 3 3 0 0 0-.257-.048c-.37-.107-.77-.065-1.141.018l.046-.105-.366.048c-.222.684-.391 1.399-.774 2.016l-.159-.019q-.051.124-.099.25l-.129.084a9 9 0 0 0-.287.751l-.065-.259c-.145.3-.256.615-.364.93-.116.333-.407.553-.616.825-.3.372-.745.579-1.081.911.38-.825.711-1.688.815-2.597.056-.227.27-.384.306-.622.081-.377.206-.759.159-1.149.085-.383.251-.745.316-1.133.032-.491-.054-1.009.167-1.469.226-.479.392-.985.655-1.446-.029-.123-.083-.239-.126-.356a3 3 0 0 0 .124-.247.6.6 0 0 0 .24-.116l-.06-.062a.8.8 0 0 0 .433-.323l-.146-.143c.234-.194.446-.421.737-.532-.202-.137-.413-.39-.684-.27-.271.152-.547.37-.626.686-.066.27-.149.536-.206.807-.067.406-.411.686-.528 1.073-.107.371-.149.757-.2 1.139-.052.397-.236.759-.338 1.143-.083.296-.113.603-.2.898-.077.261-.157.523-.2.793a9 9 0 0 1-.488 2.139c-.14.262-.339.497-.417.79-.108.397-.22.794-.365 1.18-.129.372-.189.764-.325 1.134a3.7 3.7 0 0 0-.575-1.352c-.099-.17-.311-.191-.477-.26q.186.026.374.048c-.55-.516-.977-1.143-1.438-1.737-.151-.249-.392-.44-.486-.722q-.073-.187-.143-.378c-.009.054-.028.164-.036.219-.074-.145-.145-.292-.253-.414-.458-.537-.581-1.266-.991-1.832-.181-.267-.268-.613-.56-.79-.219-.125-.439-.269-.69-.316-.229-.049-.431.096-.65.126-.25-.042-.482-.153-.727-.216.28.216.612.333.95.422-.179.009-.384.086-.546-.024-.164-.107-.327-.216-.524-.25-.015-.216-.077-.503-.359-.468-.326.295-.479.749-.86.991-.286.502-.696.913-1.008 1.397-.315.373-.546.803-.796 1.219-.254.348-.474.72-.755 1.048l.322-.883-.481.848c.111-.585.458-1.112.448-1.722l-.16.149.124-.331q-.16-.027-.323-.05.117-.259.231-.518c-.04-.14-.071-.282-.104-.423.179-.229.353-.472.423-.759-.181.131-.316.31-.45.486.151-.255.274-.528.322-.823l-.21.181c.126-.263.229-.538.393-.78.153-.225.157-.505.255-.753-.198-.165-.383-.36-.647-.413a5 5 0 0 0-.09.555 10 10 0 0 0-.71-.609c-.233-.127-.493-.193-.749-.261-.252-.066-.456-.249-.712-.302-.33-.075-.619-.259-.898-.442.352.002.697.099.987.299.264.188.592.218.891.32.142.062.291.001.431-.035-.232-.331-.64-.399-.983-.557l.262.281c-.311-.191-.604-.441-.982-.483q.143.167.296.327a3.5 3.5 0 0 0-.659-.253c-.362-.139-.674-.378-.97-.623.316.173.625.391.989.448-.19-.144-.425-.22-.587-.4q-.337-.344-.704-.653l.103.015c.027-.098.062-.195.079-.296-.063-.187-.155-.368-.12-.573l.279.044a1.7 1.7 0 0 1-.368-.585c-.081-.225-.321-.324-.492-.468.159.052.315.11.474.158a1.03 1.03 0 0 0-.523-.404c-.356-.126-.63-.392-.899-.645.459.1.848.371 1.292.511.179.065.335.178.496.277-.132-.274-.223-.564-.331-.848-.146-.343-.55-.42-.866-.532-.253-.059-.446-.24-.622-.419.382.105.745.259 1.114.399-.216-.207-.473-.362-.708-.545.684.403 1.473.573 2.165.963a7 7 0 0 0-.342-.442c.203.131.421.235.636.345.208.1.344.296.535.42.193.147.442.175.661.266.281.104.53.296.837.321-.161-.202-.372-.354-.567-.522.33.036.56.282.796.487.186.164.412.27.647.341q-.097-.138-.197-.274c.22.147.464.253.712.343-.212-.155-.419-.317-.629-.473.745.293 1.466.678 2.052 1.231l.259-.183-.174-.037c.155-.133.292-.286.414-.45l-.276.048c.235-.165.459-.346.655-.557a7 7 0 0 0-.52.159c.311-.192.634-.392.829-.712l-.272.04c.305-.139.595-.31.843-.539.492-.442 1.017-.86 1.623-1.135zm-9.389 3.076c.141.288.42.466.708.585l-.027-.175q-.2-.075-.401-.147l-.005-.144q-.137-.061-.275-.119m9.948.179c-.068.115-.183.218-.193.357.027.226.142.428.216.64.067.184.043.382.063.574.02.321.169.61.249.917.149.561.434 1.077.55 1.647l-.178-.151c.226.398.442.814.775 1.135.131.135.242.287.343.446a4 4 0 0 1-.43-.352q.138.188.248.395l.132.117.024.18c.21.265.24.614.407.901.154.267.307.541.36.848.058.341.29.636.266.992-.044.324.249.528.406.772.275.402.36.898.606 1.316-.068-.239-.131-.481-.214-.715-.079-.222-.221-.413-.31-.63-.08-.221-.071-.466-.18-.677-.136-.258-.208-.542-.292-.819l.292.559c-.103-.356-.283-.693-.323-1.065-.06-.45-.062-.921-.238-1.346-.237-.457-.324-.969-.475-1.456.211.12.392.283.519.492-.029-.145-.062-.292-.152-.413a1.4 1.4 0 0 1-.229-.693l-.148-.098.213-.223a4 4 0 0 1-.536-.532c.043.288.114.577.085.87-.178-.368-.29-.765-.473-1.132-.184-.372-.155-.811-.382-1.163-.173-.459-.458-.863-.634-1.32l-.107-.039c-.024-.156-.128-.261-.261-.331zm8.469.343c-.235.03-.36.245-.477.425.126-.091.243-.195.362-.295q.446.118.858.325l-.159-.311.203.032c-.247-.111-.508-.294-.788-.176zm5.963 3.253.118.07c.288-.109.552-.269.835-.39.214-.09.405-.226.565-.394-.517.212-1.05.403-1.518.714m3.665-2.371c-.259.114-.448.332-.67.5.462-.149.868-.419 1.246-.719-.194.071-.388.136-.576.218z"/></svg>