<svg xmlns="http://www.w3.org/2000/svg" width="21" height="32"><path fill="currentColor" d="M15.738 21.428c.04 2.422.319 4.085.522 4.853l-5.727 4.384-6.321-3.652c-.352-1.529-.477-3.215-.52-4.898l4.948 3.106 7.098-3.794z"/><path fill="currentColor" d="m11.985 1.335 8.707 5.466-1.553 11.061-10.438 5.575-8.699-5.466L1.551 6.914zm-.668 3.068c-4.331-.002-8.345 3.518-8.95 7.84-.305 2.17.271 4.218 1.61 5.763 1.322 1.521 3.244 2.366 5.395 2.362 4.332 0 8.344-3.512 8.946-7.834.303-2.172-.267-4.218-1.606-5.763-1.331-1.531-3.244-2.37-5.395-2.368m0 2.107c1.529 0 2.876.588 3.802 1.644.93 1.076 1.326 2.528 1.112 4.091-.469 3.316-3.543 6.016-6.859 6.014-1.533.004-2.88-.58-3.802-1.636-.934-1.08-1.333-2.536-1.112-4.095.465-3.316 3.539-6.016 6.859-6.018"/></svg>