<svg xmlns="http://www.w3.org/2000/svg" width="27" height="32"><path fill="currentColor" d="M11.926 2.547c2.862-.586 5.364-.251 7.836.718-.078.014-.153.045-.232.046-2.177.036-3.599.2-5.358.638-4.357.901-8.477 4.111-9.432 8.617-.395 2.569-.236 5.374 1.19 7.62 2.689 4.072 9.355 5.06 12.728 1.311 2.121-2.169 2.251-5.827.352-8.174-1.966-2.463-7.217-1.178-6.878 2.426.146 1.555 1.76 2.404 2.911 1.66 1.274-.823 1.783-1.629 2.627-2.482.424 2.275-.503 4.81-2.767 5.625-1.461.526-3.249.023-4.399-.666-2.495-1.496-3.166-4.93-2.352-7.61C9.646 7.977 14.6 5.172 19.049 6.261c3.991.79 7.026 4.344 7.832 8.222.532 2.559.335 4.149-.116 5.875-.806 3.091-3.031 5.73-5.745 7.427-4.251 2.593-9.894 2.588-14.193.106-5.86-3.152-8.656-11.09-5.533-17.066 1.778-4.415 6.068-7.346 10.632-8.28z"/></svg>