<svg xmlns="http://www.w3.org/2000/svg" width="31" height="32" viewBox="0 0 31 32"><path fill="currentColor" d="m15.625.375.403.005C24.557.7 31.142 7.47 31.25 16c0 8.629-6.996 15.625-15.625 15.625S0 24.629 0 16 6.996.375 15.625.375m1.422.651c.556.435.849 1.093.867 1.791a2.29 2.29 0 0 1-4.578 0c-.001-.705.328-1.346.867-1.791C6.934 1.71 1.372 7.47.641 14.671c.415-.615 1.135-.941 1.861-.96l.118.003c1.223.083 2.14 1.068 2.171 2.286a2.29 2.29 0 0 1-2.289 2.289c-.723-.008-1.45-.351-1.861-.96.718 7.437 6.383 12.917 13.761 13.666-.671-.425-1.046-1.148-1.066-1.933a2.29 2.29 0 0 1 4.578 0c.002.797-.416 1.494-1.066 1.933 7.288-.651 13.012-6.29 13.752-13.573-.435.556-1.093.849-1.791.867a2.29 2.29 0 0 1 0-4.578c.705-.001 1.346.328 1.791.867-.675-7.195-6.398-12.826-13.553-13.553zm-1.422 26.571a1.465 1.465 0 1 0 0 2.93 1.465 1.465 0 0 0 0-2.93M2.353 14.543c-.764.111-1.276.691-1.315 1.457a1.465 1.465 0 0 0 2.93 0c-.039-.767-.551-1.346-1.315-1.457l-.15-.008zm26.456-.008a1.465 1.465 0 1 0 0 2.93 1.465 1.465 0 0 0 0-2.93M15.625 1.352a1.465 1.465 0 1 0 0 2.93 1.465 1.465 0 0 0 0-2.93m-2.933 4.655c.545-.016.995.314 1.095.856.348 2.704 1.297 9.641 1 10.75-.546-.352-2.94-9.244-3.044-10.392-.055-.507.279-1.102.843-1.201zm5.893 0 .106.013c.564.099.898.694.843 1.201-.103 1.148-2.498 10.04-3.044 10.392-.297-1.109.651-8.047 1-10.75.068-.451.435-.795.887-.851.069-.008.139-.004.208-.005M23.214 9a.8.8 0 0 1 .398.122c.391.25.445.845.236 1.25-.456.924-5.184 7.608-5.71 7.739.143-1.011 3.142-6.499 4.295-8.644.197-.329.409-.438.781-.466zM7.965 9c.341.002.608.179.781.466 1.153 2.145 4.152 7.634 4.295 8.644-.525-.131-5.254-6.814-5.71-7.739-.208-.405-.154-1 .236-1.25.127-.087.25-.102.398-.122zm16.539 5.418a.58.58 0 0 1 .468.204c.204.253.108.66-.121.883-.509.513-5.136 3.904-5.515 3.874.32-.64 3.533-3.62 4.776-4.79.118-.113.236-.146.392-.17zm-17.729 0a.66.66 0 0 1 .392.17c1.243 1.169 4.456 4.15 4.776 4.79-.378.03-5.006-3.361-5.515-3.874-.229-.223-.325-.63-.121-.883.135-.158.268-.194.467-.204zm18.303 4.155c.16.044.26.134.32.285.084.246-.077.535-.287.649-.471.266-4.464 1.707-4.72 1.589.369-.412 3.285-1.894 4.417-2.48.146-.057.058-.034.269-.042zm-18.839 0c.211.009.123-.014.269.042 1.132.586 4.048 2.069 4.417 2.48-.256.119-4.249-1.322-4.72-1.589-.21-.114-.37-.403-.287-.649.067-.183.148-.212.32-.285zm17.354 3.437c.035.016.075.023.104.048.105.091.125.235.137.363.007.254-.133.474-.273.515-.315.103-2.849.219-2.976.031.28-.269 2.203-.754 2.95-.952zm-15.908 0 .058.005c.748.198 2.67.682 2.95.952-.127.189-2.661.073-2.976-.031-.14-.041-.28-.261-.273-.515.009-.128.033-.273.137-.363.029-.025.069-.032.104-.048m3.373 2.358-.573.683c-.118.16-.289.196-.475.149a.416.416 0 0 1-.25-.534c.081-.178.182-.257.378-.267zm9.177 0 .92.031c.196.01.297.088.378.267a.417.417 0 0 1-.25.534c-.186.047-.356.011-.475-.149zm-4.609-6.112a4.09 4.09 0 0 1 4.089 4.089c0 1.4-.721 2.654-1.869 3.43-.629-.503-1.427-.725-2.221-.744-.791.01-1.596.246-2.22.744-1.18-.755-1.833-2.046-1.868-3.429a4.09 4.09 0 0 1 4.089-4.089zm3.079-15.893c.035.344.027.194.034.451a3.113 3.113 0 0 1-6.226 0c.007-.258-.001-.107.034-.451C7.395 3.417 3.066 7.799 1.989 12.929a3.113 3.113 0 1 1 .515 6.182c-.172-.004-.346-.006-.515-.044 1.056 5.163 5.438 9.495 10.582 10.571a3 3 0 0 1-.057-.578 3.113 3.113 0 0 1 6.226 0 2.7 2.7 0 0 1-.057.578c5.156-1.055 9.5-5.419 10.579-10.561-.344.035-.194.027-.451.034a3.113 3.113 0 0 1 0-6.226c.258.007.107-.001.451.034-1.053-5.147-5.43-9.478-10.556-10.556z"/></svg>