<svg xmlns="http://www.w3.org/2000/svg" width="100%" height="100%" viewBox="0 0 24 24"><path fill="currentColor" d="M16 .673c1.454 2.242 2.895 4.493 4.247 6.799q1.068-.489 2.136-.988c3.265 5.915 6.415 11.894 9.617 17.841-4.048 3.721-9.071 6.595-14.666 6.948 0 0-1.018.059-1.334.052-.316.007-1.334-.052-1.334-.052C9.072 30.92 4.049 28.046 0 24.325c3.201-5.947 6.351-11.926 9.617-17.841q1.068.5 2.136.988C13.104 5.166 14.546 2.915 16 .673m1.501 16.994c-.103 3.31-.488 6.608-.648 9.918a101 101 0 0 0 3.945-3.265c2.226 2.932 6.184.808 8.045-1.431-.16-2.232-2.348-3.278-4.189-3.99-2.316-.738-4.735-1.084-7.153-1.232m-3.002 0c-2.419.148-4.837.494-7.153 1.232-1.841.712-4.029 1.758-4.189 3.99 1.861 2.239 5.819 4.363 8.045 1.431a102 102 0 0 0 3.945 3.265c-.16-3.31-.545-6.608-.648-9.918M16 4.345a107 107 0 0 0-3.747 5.912L10.29 9.16a385 385 0 0 0-5.209 9.11c2.669-2.47 5.992-4.221 9.655-4.568.097-.776.275-1.984 1.264-2.069.988.085 1.167 1.292 1.264 2.069 3.663.346 6.986 2.098 9.655 4.568a389 389 0 0 0-5.209-9.11l-1.963 1.097A106 106 0 0 0 16 4.345"/></svg>