<svg xmlns="http://www.w3.org/2000/svg" width="100%" height="100%" viewBox="0 0 24 24"><path fill="currentColor" d="M21.243 8.087c5.547 1.938 3.034 1.06 8.252 2.892-1.488 2.753-2.118 5.909-1.937 9.028-3.882 1.265-7.718 2.682-11.542 4.116-3.849-1.409-7.697-2.839-11.591-4.12A16.66 16.66 0 0 0 2.509 11c2.773-.981 5.534-2.015 8.348-2.884 2.06 3.296 7.199 3.57 9.832.622zM11.126 7.003c1.277 2.151 3.892 3.43 6.377 2.668 1.8-.552 2.548-1.514 3.426-2.66 3.334 1.125 6.646 2.312 9.959 3.494a14.8 14.8 0 0 0-2.312 10.067c-4.207 1.459-8.369 3.053-12.588 4.454L3.429 20.539c.511-3.478-.404-7.087-2.308-10.021C4.45 9.323 7.772 8.124 11.126 7.003m9.514-.853c-1.047 1.57-2.332 3.025-4.631 3.041-2.043.014-3.589-1.442-4.594-3.033C7.595 7.444 3.804 8.816.001 10.147c2.23 3.168 3.232 6.984 2.649 10.849l13.338 4.854h.119a284 284 0 0 1 13.186-4.726c-.21-2.917-.107-5.966 1.298-8.608l.066-.115c.441-.762.894-1.52 1.343-2.279z"/></svg>