<svg xmlns="http://www.w3.org/2000/svg" width="100%" height="100%" viewBox="0 0 24 24"><path fill="currentColor" d="M31.753.265c-2.157 3.849-4.011 7.859-5.986 11.809-.151-1.018-.291-2.038-.445-3.056L11.855 22.119l-.508.512q-.11.995-.21 1.989a149 149 0 0 0-5.539 6.155c.088-1.596.162-3.186.244-4.782l-4.836.264a144 144 0 0 0 6.25-5.553q.88-.04 1.76-.067l1.551-1.511c2.03-1.983 1.303-1.3 2.143-2.088l9.586-9.337.824-.906c-.954-.135-2.364-.443-3.317-.578 3.99-1.968 7.988-3.93 11.951-5.952zm-14.67 2.893c-.893 1.806-1.82 3.774-2.708 5.592l-.033.021-.674-1.308c-.049-.121-.014-.041-.115-.234-1.928 1.975-3.822 3.837-5.77 5.791-.027.44-.121 1.42-.148 1.86-.987 1.109-2.037 2.237-3.031 3.34.007-.656.034-1.975.041-2.638-.636.034-1.914.108-2.557.142 1.089-1.001 2.185-2.002 3.273-2.996l1.948-.223c1.88-1.921 3.733-3.875 5.634-5.783-.367-.183-.236-.129-.381-.189l-1.242-.615c1.913-.937 3.84-1.845 5.763-2.761zm1.477-1.462-1.771.852c-.398.192-.824.395-1.398.668l-1.468.698-.377.179c-1.058.505-1.872.9-2.602 1.265l-.926.463-.188.086 1.913 1.065c-1.713 1.753-.854.87-2.579 2.65l-.298.308q-.934.968-1.874 1.931l-.735.084-.974.112-.217.025-.162.148a1122 1122 0 0 0-3.275 2.998L.245 16.5l1.877-.099c.271-.014.595-.032 1.276-.071h.008l.551-.031-.01.587v.008c-.013.749-.018 1.046-.02 1.321l-.018 1.787 1.197-1.327c.374-.415.493-.546 1.426-1.567l.324-.355c.518-.568.909-1.001 1.283-1.421l.156-.175.014-.233c.011-.175.028-.388.073-.914.053-.632.036-.402.056-.688l1.131-1.131 1.3-1.296.96-.959c.497-.5.995-.997 1.488-1.501l1.099 1.9.336-.767-.001-.001.246-.563c.334-.666.474-1.174 1.172-2.54l.135-.265c.615-1.204.997-1.96 1.383-2.741l.871-1.762zm10.269 13.197c-.893 1.806-1.82 3.774-2.708 5.592l-.033.021-.674-1.308c-.049-.121-.014-.041-.115-.234-1.928 1.975-3.822 3.837-5.77 5.791-.027.44-.121 1.42-.148 1.86-.987 1.109-2.037 2.237-3.031 3.339.007-.656.034-1.975.041-2.638-.636.034-1.914.108-2.557.142 1.089-1.001 2.185-2.002 3.273-2.996l1.948-.223c1.88-1.921 3.733-3.875 5.634-5.783-.367-.183-.236-.129-.381-.189l-1.242-.615c1.913-.937 3.84-1.845 5.763-2.761zm1.477-1.462-1.771.852c-.398.192-.824.395-1.398.668l-1.468.698-.377.179c-1.058.505-1.872.9-2.602 1.265l-.926.463-.188.086 1.913 1.065c-1.713 1.753-.854.87-2.579 2.65l-.297.308q-.934.969-1.874 1.93l-.735.084-.974.112-.217.025-.162.148a1271 1271 0 0 0-3.275 2.998l-1.384 1.272 1.877-.099c.27-.014.595-.032 1.276-.071h.008l.551-.031-.01.587v.008a191 191 0 0 0-.02 1.321l-.018 1.787 1.197-1.327c.374-.415.493-.546 1.426-1.567l.324-.355c.518-.568.909-1.001 1.283-1.421l.156-.175.014-.233c.011-.175.028-.388.073-.914.053-.632.036-.402.056-.688l1.131-1.131 1.3-1.296.96-.959c.497-.5.995-.997 1.488-1.501l1.099 1.9.336-.767v-.001l.246-.563c.334-.666.474-1.174 1.172-2.54l.135-.265c.615-1.204.997-1.96 1.383-2.741l.871-1.762z"/></svg>