<svg xmlns="http://www.w3.org/2000/svg" width="100%" height="100%" viewBox="0 0 24 24"><path fill="currentColor" d="m10.49.416 1.323 2.616c1.368-.353 2.778-.49 4.188-.506 8.837 0 16 6.505 16 14.529s-7.163 14.529-16 14.529-16-6.505-16-14.529c0-6.309 4.57-11.672 10.419-13.617zm-.111 4.774c-1.124.398-2.162.992-3.159 1.638l1.371 3.363-3.687-1.346c-2.093 2.226-3.246 5.166-3.289 8.21-.008 2.633.922 5.164 2.493 7.258l3.442-1.425-1.31 3.648c2.726 2.29 6.23 3.393 9.76 3.434 3.203-.017 6.45-.947 9.038-2.872l-1.205-3.593 3.477 1.527c1.975-2.172 3.034-5.06 3.075-7.977.018-2.685-.968-5.225-2.564-7.353l-3.533 1.232 1.439-3.387C23.009 5.273 19.513 4.18 16 4.14c-.975-.014-1.945.097-2.904.264-.178.031-.353.08-.529.12L20.09 19.4 5.453 15.956l4.778-4.434.147-6.333zm1.228-.418-.251.077-.145 6.216 6.005 4.799z"/></svg>