<svg xmlns="http://www.w3.org/2000/svg" width="100%" height="100%" viewBox="0 0 24 24"><path fill="currentColor" d="M15.937 2.151c.81 4.603 1.619 9.206 2.511 13.793l8.323-7.309c-1.351 3.207-2.776 6.398-3.815 9.724l7.152-1.836a76 76 0 0 0-2.813 3.665c-.337.474-.701.966-.943 1.498.931.115.497.057 1.303.171q2.171.316 4.329.715c-.846.569-1.714 1.11-2.629 1.561-.348.171-.746.362-1.134.431-1.67 2.27-4.399 3.609-7.105 4.202 1.628-.659 3.34-1.614 4.534-2.923.489-.535 1.014-1.222 1.025-1.984-.035-1.404-5.245-5.591-10.737-5.642-.666.012-.315-.006-1.053.064-1.276.584-1.991 2.008-2.077 3.354 0 1.764 1.43 3.194 3.194 3.194s4.066-1.725 4.002-3.37c.224 2.684-1.697 4.344-4.071 4.404-2.665 0-4.825-1.993-4.825-4.452.008-.858.265-1.716.774-2.412-1.998.741-3.929 1.803-5.534 3.219-.43.379-1.19.997-1.255 1.641.096 1.064 1.41 2.159 2.158 2.751 1.208.957 2.433 1.658 3.897 2.156-2.992-.526-5.81-1.608-7.527-4.243-1.295-.44-2.475-1.185-3.603-1.951a122 122 0 0 1 4.329-.715c.897-.127.505-.078 1.176-.156-1.056-1.854-2.418-3.526-3.764-5.178l7.147 1.835c-1.089-3.307-2.424-6.531-3.814-9.723l8.338 7.322a680 680 0 0 0 2.508-13.806z"/></svg>