<svg xmlns="http://www.w3.org/2000/svg" width="28" height="32" viewBox="0 0 28 32"><path fill="currentColor" d="m13.988.138.022.001c4.832.229 8.087 2.235 10.379 5.821-1.179 1.313-2.761 2.655-2.694 4.598-.107 1.26.325 2.441.984 3.477H28L14 31.863 0 14.035h5.321c.659-1.036 1.091-2.218.984-3.477.067-1.943-1.514-3.284-2.694-4.598C5.771 2.43 9.53.448 13.988.138M14 3.17c-2.956.057-5.654.925-8.017 2.701 2.673 2.626 2.271 6.601.402 9.556 1.734 3.057 4.403 5.477 7.43 7.217l.183.102h.001l-1.917-6.29 2.642-3.765h-3.306a.313.313 0 0 1-.313-.313v-.94c0-.173.14-.313.313-.313h2.792L12.066 7.71 14 3.169zm.993.058-1.87 4.388 2.197 3.508h1.763c.173 0 .313.14.313.313v.94c0 .173-.14.313-.313.313h-1.214l-2.759 3.94 1.722 5.623a19.8 19.8 0 0 0 6.784-6.827c-1.869-2.955-2.271-6.93.402-9.556C20 4.329 17.512 3.456 14.994 3.228z"/></svg>