<svg xmlns="http://www.w3.org/2000/svg" width="24" height="32"><path fill="currentColor" d="m4.537 0 .589.002.609.015c4.599.173 7.066 1.635 10.9 1.628a35 35 0 0 0 6.029-.58l.002.005c.153-.031.077-.022.229-.029.609 0 1.102.493 1.102 1.102v28.155c-.011.471-.513 1.079-1.026 1.239-1.615.501-3.058.49-4.707.445-4.599-.173-7.066-1.635-10.9-1.628-2.022.011-4.04.222-6.029.58l-.002-.005c-.153.031-.077.022-.229.029a1.1 1.1 0 0 1-1.102-1.102V1.82c0-.514.595-1.112 1.104-1.284 1-.338 1.853-.502 2.841-.529l.589-.005zm.732 1.007c-1.314-.044-2.476.023-3.507.4-.655.239-.627.743-.638 1.181L1.14 28.74l.004.253c0 .562.116.855.593.84.139-.005.474-.043.613-.072l.001.004a31.5 31.5 0 0 1 5.481-.536c3.486-.006 5.728 1.532 9.909 1.692 1.499.042 3.195.206 4.619-.38.64-.263.588-.63.593-1.363V3.212l.012-.368c.013-.694-.181-.714-.735-.714a4 4 0 0 0-.488.061l-.001-.004-.387.067v18.224l-2.065 2.737c-.153.215-.414.456-.666.469-.247-.009-.533-.255-.678-.469l-2.065-2.737V2.716c-2.205-.048-4.29-.843-6.428-1.288a20.3 20.3 0 0 0-3.148-.397l-.554-.013-.482-.01zM1.912 25.844l-.021 3.211s3.095-.535 5.793-.535 8.491 1.841 10.791 1.798 3.994-.749 3.994-.749l.021-3.339s-1.527.557-4.204.492-9.327-1.413-11.335-1.413-5.04.535-5.04.535zM7.26 9.249q-.477.002-.955.002c-.304.015-.609.026-.913.046-.776.05-1.547.154-2.313.273l-.005 1.282c1.749-.279 3.492-.357 4.841-.271 1.039.066 1.835.195 3.324.503l.204.042c1.182.245 2.151.439 2.931.539l-.144-1.374c-.722-.092-1.285-.196-2.425-.432l-.204-.042c-1.565-.324-2.429-.464-3.573-.536-.256-.012-.512-.029-.769-.031zm.039 5.606q-.483.004-.967.003c-.308.019-.616.032-.924.056-.786.061-1.555.141-2.33.285L3.074 16.7c1.853-.269 3.495-.351 4.868-.247 1.057.08 1.904.132 3.416.509l.207.052c1.198.299 2.02.49 2.81.611l-.151-1.556c-.734-.113-1.154-.229-2.311-.518l-.207-.052c-1.585-.395-2.471-.519-3.629-.607-.259-.015-.518-.035-.778-.037m-1.23 5.602c-.391.02-.783.024-1.174.059-.842.075-1.098.134-1.821.266l.005 1.814a16 16 0 0 1 4.575-.227c1.075.108 1.972.048 3.534.451 1.201.311 1.269.328 1.731.433.845.192 2.337.513 3.06.563l-1.02-2.051c-.639-.044-.941-.14-1.719-.316-.441-.1-.507-.117-1.688-.422-1.629-.421-2.559-.407-3.727-.525-.959-.079-.408-.008-1.755-.043zM7.26 3.439q-.477.003-.955.002c-.304.014-.609.023-.913.041-.776.044-1.547.136-2.313.241l-.005 1.132c1.749-.246 3.492-.315 4.841-.24 1.039.058 1.835.172 3.324.444l.204.037c1.182.216 2.151.388 2.931.476l-.144-1.213c-.722-.081-1.285-.173-2.425-.382l-.204-.037c-1.565-.286-2.429-.41-3.573-.473-.256-.011-.512-.026-.769-.027z"/></svg>