<svg xmlns="http://www.w3.org/2000/svg" width="24" height="32"><path fill="currentColor" d="M7.34.403c-.081 1.973.566 2.932.573 4.633 6.702 0 5.36-.001 8.05 0 .007-1.701.654-2.66.573-4.633h5.462c-.081 2.345-1.777 3.19-2.934 4.612 1.628.12 2.964.583 4.506.989-1.462.594-2.789 1.08-4.344 1.28-.029.004.011.105-.016.113.32 3.641 1.895 7.147 4.665 9.583-1.201 4.986-2.658 9.764-4.316 14.617H4.345C2.687 26.744 1.202 21.967.001 16.98c2.77-2.436 4.346-5.941 4.665-9.583-.027-.009.012-.11-.016-.113-1.555-.201-2.882-.687-4.344-1.28 1.542-.405 2.878-.869 4.506-.989C3.656 3.593 1.959 2.748 1.878.403h5.463zm4.598 26.703v-.005c-.927 1.212-1.675 2.556-1.879 4.085q.939.002 1.879.009c1.254-.008.628-.005 1.879-.009-.204-1.528-.952-2.868-1.879-4.08m-6.993-6.298-.24.001c-.503.085-.869.425-.941.936 0 0-.016.476.502.368 1.75-.367 1.329 4.007 4.991 5.156.277.087-.009-.8-.062-1.086-1.874-1.103-2.891-2.843-3.429-4.923-.186-.225-.442-.408-.74-.446zm13.985 0-.08.006c-.297.038-.554.221-.74.446-.538 2.08-1.555 3.82-3.429 4.923-.053.286-.339 1.173-.062 1.086 3.662-1.148 3.24-5.522 4.991-5.156.518.108.502-.368.502-.368-.072-.512-.438-.851-.941-.936l-.24-.001zM13.161 7.099h-.621v14.615l.621-.015zm-1.826 0h-.621v14.6l.621.015zm2.7 6.742c-.007 2.412-.04 4.818-.02 7.224 1.376-1.057 3.15-2.107 3.469-3.961-.166-1.821-1.808-2.911-3.449-3.263m-4.195 0c-1.641.352-3.283 1.442-3.449 3.263.319 1.854 2.093 2.904 3.469 3.961.02-2.406-.013-4.811-.02-7.224m4.169-6.721c.013 2.113 0 3.969 0 6.082.419-.153 1.256-.285 1.675-.431a257 257 0 0 1 .001-5.548zm-4.143 0-1.676.103c.02 1.914.021 3.634.001 5.548.419.146 1.256.278 1.675.431 0-2.113-.013-3.969 0-6.082"/></svg>