<svg xmlns="http://www.w3.org/2000/svg" width="31" height="32" viewBox="0 0 31 32"><path fill="currentColor" d="M18.271.635v1.568l.045-.006c.165 0 .298.166.298.371s-.133.371-.298.371l-.045-.006v2.156c3.56-.502 6.324-2.063 9.907-.635 1.71.672 2.499 2.361 2.822 4.027v.071c-1.938.361-4.188 1.004-4.349 4.58-.229 5.086 2.645 10.805-.301 15.428-1.389 2.179-6.745 1.397-7.8.107-.044-.054-.155-.209-.192-.153-.576.886-1.301 2.009-1.999 2.764l-.859.085-.859-.085c-.697-.756-1.51-1.982-2.012-2.779-.036-.057-.134.113-.178.167-1.056 1.29-6.412 2.072-7.801-.107-2.946-4.623-.073-10.343-.301-15.428C4.188 9.555 1.938 8.912 0 8.551V8.48c.323-1.666 1.113-3.355 2.822-4.027 3.583-1.428 6.348.133 9.907.635V2.932l-.045.006c-.164 0-.298-.166-.298-.371s.133-.371.298-.371l.045.006V.634c.912.076.94.087 2.077.126.231.008.462.003.694.004.925.01 1.85-.045 2.771-.131zM15.43 28.317a6 6 0 0 0-.472.016c-.109.009-.093.004-.152.034-.075.08-.209 1.228-.144 1.298q.013.008.028.012c.12.024.237.029.359.036q.226.012.451.016c.168-.004.274-.006.451-.016.122-.007.239-.012.359-.036q.015-.004.028-.012c.065-.07-.07-1.218-.144-1.298-.059-.029-.043-.025-.152-.034-.314-.019-.133-.011-.542-.017zm-10.694-3.78-.078.261c.136 2.17 1.146 3.367 3.483 3.556 2.006.162 2.721-1.09 3.502-2.252-2.525.013-4.937.277-6.907-1.564zm21.528 0c-1.97 1.841-4.382 1.577-6.907 1.564.782 1.163 1.69 2.414 3.548 2.326 2.342-.111 3.302-1.459 3.438-3.629l-.078-.261zm-10.13 1.859-.634.006-.634-.006c-.139.002-.278.001-.417.008-.045.002-.136 0-.182.023-.061.07-.162.979-.083 1.039.174.038.451.036.621.04q.347.008.695.012c.286-.003.37-.004.695-.012.17-.004.447-.002.621-.04.08-.06-.021-.97-.083-1.039-.047-.023-.137-.021-.182-.023-.139-.007-.277-.006-.417-.008m-1.989-2.395c-.104.557-.164 1.024-.07 1.497.059.099.435.113.487.118.625.041.312.026.938.045.313-.006.627-.016.938-.045.052-.005.428-.019.487-.118.095-.472.035-.94-.07-1.497l-1.355-.005zm-9.611-2.594c-.009.005-.022.006-.027.014-.065.095-.077.252-.09.366 0 3.714 4.118 3.152 7.272 3.206.635.011 1.338-1.602 1.036-1.622-4.926-.332-5.591.508-8.176-1.955zm21.932 0-.015.009c-2.585 2.463-3.25 1.622-8.176 1.955-.302.02.401 1.633 1.036 1.622 3.154-.054 7.272.508 7.272-3.206-.013-.114-.025-.27-.09-.366-.006-.009-.018-.009-.027-.014M15.5 21.63h-.062c-.386.001-.773-.002-1.159.017-.046.002-.234.003-.274.042-.108.388-.229 1.556-.099 1.596q.04.01.081.018c.501.07 1.008.068 1.513.076.503-.01 1.014-.005 1.513-.076q.04-.008.081-.018c.129-.04.008-1.208-.099-1.596-.04-.039-.229-.04-.274-.042-.386-.019-.772-.016-1.159-.017zM4.807 18.855c-.179.069-.221.336-.241.496-.076.592.097 1.194.524 1.615 1.515 1.388 7.55 1.017 8.003.958.303-.039.689-1.465.381-1.466-4.65-.02-6.751.293-8.581-1.564-.044-.036-.017-.02-.086-.039m21.386 0c-.069.019-.042.003-.086.039-1.83 1.857-3.931 1.544-8.581 1.564-.307.001.078 1.427.381 1.466.453.059 6.488.43 8.003-.958.426-.421.6-1.023.524-1.615-.021-.16-.063-.427-.241-.496M17.199 4.413c-.566.023-1.132.044-1.699.038a33 33 0 0 1-1.698-.038c.013.433-.006 1.089 0 1.528l.038.001c1.106.066.553.044 1.661.065a21 21 0 0 0 1.661-.065l.038-.001c.006-.439-.013-1.095 0-1.528zm.017-2.872c-.572.022-1.143.055-1.716.053-.572.001-1.144-.031-1.716-.053-.026.568 0 1.097-.026 1.666l.045.002q.669.082 1.342.105c.237.001.118.002.355-.002.118.001.237.005.355.001q.673-.023 1.342-.105.023-.002.045-.002c-.026-.568 0-1.098-.026-1.666zm-2.097 5.062c-.366.028-1.425.043-1.598.48-.036.316-.034.635-.039.953-.835.047-1.677.047-2.506-.08-.485-.074-.995-.205-1.366-.543l-.013-.003c-.438.109-.663.567-.612.993.119.317.686.388.969.438.319.056.721.1 1.03.125.829.066 1.661.087 2.492.09-.001.539-.001.222.002.951-1.259.014-2.553.051-3.783-.266-.456-.118-.989-.291-1.179-.764-.025-.061-.057-.074-.126-.081-.048.012-.099.017-.145.037a.916.916 0 0 0-.486 1.113c.327.71 2.002.862 2.643.922 1.023.096 2.054.124 3.081.102.006.768-.021.536-.015 1.133-1.602-.015-4.172.243-5.572-.797a2.35 2.35 0 0 1-.633-.735c-.237-.454-1.043 1.122-.862 1.501.611 1.056 2.509 1.254 3.591 1.347 1.171.101 2.346.115 3.52.104l.013.765c.001.038 0 .12.005.171l.031.254c-1.975 0-4.527.418-6.275-.792a4 4 0 0 1-.838-.815c-.629-.846-1.153 1.31-.801 1.623 1.983 1.611 5.607 1.355 8.002 1.347.119.977.016.491.209 1.512-3.155-.044-6.051.689-8.395-1.876-.327-.379-.833 1.48-.427 1.861 2.534 2.31 6.156 1.604 9.272 1.594.216.552.543 1.19 1.187 1.296l.005-.001.005.001c.644-.105.971-.743 1.187-1.296 3.116.01 6.738.716 9.272-1.594.405-.381-.1-2.239-.427-1.861-2.344 2.565-5.224 1.802-8.38 1.845.193-1.021.099-.504.219-1.481 2.395.008 5.995.264 7.977-1.347.352-.313-.173-2.468-.802-1.622a4 4 0 0 1-.838.815c-1.748 1.21-5.225.755-6.275.78l.032-.242c.005-.05.004-.132.005-.171l.013-.765c1.175.011 2.349-.004 3.52-.104 1.081-.093 2.98-.29 3.591-1.347.181-.379-.625-1.955-.862-1.501a2.4 2.4 0 0 1-.633.735c-1.4 1.04-3.969.766-5.572.781.007-.598-.021-.35-.015-1.118a27 27 0 0 0 3.081-.102c.642-.06 2.316-.212 2.643-.922a.916.916 0 0 0-.486-1.113c-.045-.02-.096-.024-.145-.037-.069.007-.101.02-.125.081-.19.473-.724.646-1.179.764-1.229.318-2.523.281-3.783.266.003-.729.002-.412.002-.951a33 33 0 0 0 2.492-.09c.309-.024.711-.068 1.03-.125.283-.05.85-.122.969-.438.05-.426-.174-.884-.612-.993l-.013.003c-.371.338-.881.469-1.366.543-.829.126-1.671.127-2.506.079-.005-.318-.003-.637-.039-.953-.173-.437-1.232-.452-1.598-.48l-.381-.001-.381.001z"/></svg>