<svg xmlns="http://www.w3.org/2000/svg" width="100%" height="100%" viewBox="0 0 24 24"><path fill="currentColor" d="M18.432 25.146c-1.533 1.412-2.245 3.335-2.468 5.369-.174-2.399-1.097-5.259-3.676-5.997-2.303-.942-4.528.564-6.297 1.889 1.571-1.871 2.741-4.474 1.667-6.885-1.541-2.621-4.96-2.927-7.658-3.31 2.585-.348 5.589-.606 7.448-2.687 1.475-1.931.642-4.456-.408-6.363 2.417 1.307 5.166 1.133 7.787 1.493 2.249.408 4.329 1.424 5.599 3.389l-.176-.075c-1.272-.803-2.784-1.042-4.263-1.091-3.972-.055-7.052 3.019-7.006 6.823.088 3.153 2.003 5.333 4.843 6.483a6.6 6.6 0 0 0 1.8.495c1.025.222 2.08.229 3.123.199zM15.97 18.8a2.794 2.794 0 1 0 0-5.588 2.794 2.794 0 0 0 0 5.588M13.568 6.854l-.315.269c1.043-.03 2.098-.023 3.123.199a6.7 6.7 0 0 1 1.8.495c2.84 1.149 4.754 3.33 4.843 6.483.047 3.803-3.033 6.877-7.006 6.823-1.479-.049-2.976-.257-4.247-1.06l-.191-.106c1.145 1.919 3.388 3.046 5.637 3.454 2.621.36 5.332.121 7.748 1.428-1.049-1.907-1.883-4.432-.408-6.363 1.859-2.081 4.864-2.339 7.448-2.687-2.699-.384-6.117-.69-7.658-3.31-1.073-2.411.096-5.013 1.667-6.885-1.769 1.325-3.994 2.831-6.297 1.889-2.579-.738-3.502-3.598-3.676-5.997-.222 2.033-.935 3.956-2.468 5.369z"/></svg>