<svg xmlns="http://www.w3.org/2000/svg" width="20" height="32"><path fill="currentColor" d="m15.078 0 1.221 2.744c.119-.05.251-.054.378-.063.36.022.644.211.817.525l1.541 3.178a.96.96 0 0 1-.457 1.273l-.078.034 1.5 3.372-.75 3.152c.498.143.752.627.664 1.122l-.802 3.441a.963.963 0 0 1-1.117.706l-1.217 5.111c.442.169.666.61.596 1.069l-.711 3.461a.954.954 0 0 1-1.136.729h-.001L15.015 32H5.358l-.553-2.161c-.445.04-.821-.268-.96-.674l-.972-3.397c-.124-.47.128-.99.596-1.15l-1.314-5.136c-.498.102-.952-.229-1.094-.695l-.854-3.428a.96.96 0 0 1 .44-1.04c.053-.032.111-.053.167-.079l-.813-3.176 1.65-3.367-.09-.039a.96.96 0 0 1-.457-1.273l1.541-3.178c.19-.356.432-.475.817-.525.164-.008.315.036.464.099.093.051.06.028.104.061L5.422 0h9.657zm2.433 12.297L5.427 24.123l1.333 5.751 6.791.063zM13.832 2.125H6.667l-4.268 8.938 1.438 6.203L15.349 5.552l-1.517-3.426z"/></svg>