<svg xmlns="http://www.w3.org/2000/svg" width="100%" height="100%" viewBox="0 0 24 24"><path fill="currentColor" d="m1.444.899.627.188c1.471.43 2.901.98 4.282 1.642 3.756 2.084 6.302 5.682 9.596 8.355 2.553-2.166 4.757-4.706 7.341-6.841 2.078-1.691 4.637-2.603 7.183-3.338-.69 2.242-1.393 4.535-2.825 6.429-2.206 2.856-4.882 5.298-7.246 8.015l4.843.206s.663.444.814 2.794c.08 1.237-.128 2.498-.652 3.63l3.733 3.931 2.788-1.049s.545 2.547-1.373 4.491c-2.218 2.248-4.572 1.685-4.572 1.685l.551-2.468-3.727-3.925c-.891.474-2.313.891-3.342.858-1.744-.087-3.402-.93-3.402-.93s-1.832.989-3.518.989c-.947-.052-1.893-.324-2.75-.722-.186-.086-.365-.188-.548-.281l-3.721 3.951.49 2.499s-2.354.564-4.572-1.685C-.474 27.379.071 24.832.071 24.832l2.788 1.049 3.803-4.005c-.526-1.047-.674-2.223-.659-3.381.044-1.558.83-2.942.83-2.942l4.29-.207.345-.286-.105-.108C7.404 11.01 2.52 6.596 1.443.899zm1.717 1.755c1.001 2.762 2.73 5.2 4.827 7.24l5.572 5.549h.063c2.049 2.044 4.108 4.078 6.158 6.12l.476.506c-.428.264-1.163.809-1.591 1.073-.623-.459-1.394-.897-2.017-1.369.113.768.277 1.396.384 2.164 1.849.789 3.747.636 5.688-.344.078-.039.201-.156.281-.188l4.438 4.781-.281 1.938s1.934-.345 2.76-1.275c1.615-1.819 1.146-2.757 1.146-2.757l-2.125.844c-1.656-1.382-3.039-3.202-4.625-4.656.893-1.796 1.535-4.181.219-5.906l-1.844-.094 1.177 1.754c-.384.535-.717 1.104-1.089 1.59-1.665-1.614-.717-.688-2.836-2.788l-1.152-1.169-.24-.246h-.002c-1.298-1.316-2.639-2.588-3.958-3.883-3.433-3.37-6.676-7.36-11.427-8.887zm6.402 13.565-1.875.125c-1.344 1.781-.763 3.89.156 5.719l-4.656 4.75L.938 26s-.33 1.055 1.391 2.85C3.19 29.748 5 30.125 5 30.125l-.375-2.063c1.851-2.036 2.618-2.73 4.5-4.688.08.032.328.211.406.25 1.941.98 3.838 1.07 5.688.281.107-.768.199-1.295.313-2.063-.623.472-1.328.84-1.951 1.299-.428-.264-1.163-.809-1.591-1.073l.476-.506c2.044-2.044.681-.672 2.725-2.716l-2.456-2.449c-.384.39-.045.049-.429.439-2.119 2.1-1.171 1.173-2.836 2.788-.372-.486-.772-1.06-1.156-1.595l1.25-1.813zM28.77 2.654c-4.998 1.584-8.304 5.878-11.953 9.362q1.19 1.243 2.369 2.496c3.61-3.56 7.835-6.911 9.584-11.858"/></svg>