<svg xmlns="http://www.w3.org/2000/svg" width="21" height="32"><path fill="currentColor" d="M6.362 0c2.133.065 4.406-.063 5.893 1.591 1.536 1.286 1.668 3.391 2.008 5.219l.018-.008c.575-.422 1.221-.739 1.867-1.035 1.027-.446 1.468-.528 1.798-.604h.005l-.006.004c-.725 1.99-1.757 4.019-.832 6.118 1.237 2.592 2.919 4.982 3.627 7.811v1.091c-.403 5.358-3.776 10.972-9.468 11.764L10.166 32C5.093 32.028.44 28.763.033 23.125c-.195-2.707.888-4.55 2.041-6.413.076-2.21.765-4.309 2.245-5.976.417-.428.895-.888 1.491-1.045.351-2.337 2.297-4.744 2.03-7.146C7.723 1.493 7.142.669 6.362-.001zm5.88 26.354c-.41.012-.236-.017-.526.051-1.318.408-.976 2.796-2.205 2.76l-.282-.008c-1.531-.223-2.341-.982-2.025-.532.667.948.8 1.226 2.165 1.96 1.107.557 2.498.432 3.562-.325.846-.602 1.093-1.388.933-2.228-.21-.826-.747-1.526-1.622-1.677zM5.259 11.113c-1.709 1.967-2.733 5.092-.878 7.295.73 1.438 3.224 2.793 1.786 4.489-2.835.98-3.896-2.009-3.966-4.163-.569 1.301-1.711 4.475-.136 7.427.439.823.542.916.6.99 1.033 1.483 2.61 2.518 4.225 3.266-.521-1.209-1.043-2.246-.237-3.476 1.779-3.356 7.984-2.932 8.617 1.16.202-2.099.035-4.357-1.209-6.136-1.828-2.675-4.77-3.798-7.355-5.577-1.64-1.174-1.225-3.553-1.447-5.276zm-3.175 8.079c-.026.101-.007.027-.061.224.018-.109.003-.033.061-.224M8.836 1.133c1.661 3.676-2.773 6.873-1.223 10.583 1.445 3.607 4.899 5.809 7.22 8.797 1.501 1.925 1.598 4.503 1.633 6.838 1.633-2.425 3.051-5.281 2.585-8.29-.327-4.086-4.865-6.932-3.517-11.296-1.362 1.133-2.243 2.769-2.653 4.479-.417-2.258-.063-4.538-.167-6.81-.264-2.106-1.872-3.775-3.737-4.016z"/></svg>