<?xml version="1.0" encoding="UTF-8"?>
<svg xmlns="http://www.w3.org/2000/svg" xmlns:xlink="http://www.w3.org/1999/xlink" width="24px"
    height="28px" viewBox="0 0 24 28" version="1.1">
    <g id="surface1">
        <path style="fill:currentColor"
            d="M 10.601562 2.230469 C 13.144531 1.714844 15.367188 2.007812 17.566406 2.855469 C 17.496094 2.867188 17.429688 2.894531 17.359375 2.898438 C 15.425781 2.929688 14.160156 3.070312 12.597656 3.457031 C 8.722656 4.242188 5.0625 7.050781 4.214844 10.996094 C 3.863281 13.242188 4.003906 15.699219 5.269531 17.664062 C 7.660156 21.226562 13.585938 22.089844 16.585938 18.808594 C 18.46875 16.910156 18.585938 13.710938 16.898438 11.65625 C 15.148438 9.503906 10.484375 10.625 10.785156 13.78125 C 10.914062 15.140625 12.347656 15.882812 13.371094 15.234375 C 14.503906 14.511719 14.957031 13.808594 15.707031 13.0625 C 16.082031 15.050781 15.257812 17.269531 13.246094 17.984375 C 11.949219 18.441406 10.359375 18.003906 9.335938 17.398438 C 7.117188 16.089844 6.523438 13.085938 7.246094 10.742188 C 8.574219 6.980469 12.976562 4.527344 16.933594 5.476562 C 20.480469 6.167969 23.179688 9.28125 23.894531 12.671875 C 24.367188 14.910156 24.191406 16.304688 23.792969 17.8125 C 23.074219 20.519531 21.097656 22.828125 18.683594 24.3125 C 14.90625 26.582031 9.890625 26.578125 6.070312 24.40625 C 0.859375 21.648438 -1.625 14.699219 1.148438 9.472656 C 2.730469 5.609375 6.542969 3.042969 10.601562 2.226562 Z M 10.601562 2.230469 " />
    </g>
</svg>