<svg xmlns="http://www.w3.org/2000/svg" width="31" height="32" viewBox="0 0 31 32"><path fill="currentColor" d="M15.625.375C24.254.375 31.25 7.371 31.25 16s-6.996 15.625-15.625 15.625S0 24.629 0 16 6.996.375 15.625.375m13.44 13.607c-1.699 2.09-4.134 3.691-6.921 3.646-3.828.338-7.292-1.628-11.009-2.09-3.646-.41-7.507 2.448-7.409 6.296.592 3.21 3.496 5.267 6.165 6.758-.605-1.335-1.068-3.366.521-4.219 4.447-2.435 9.629 1.771 14.043-1.139-1.869 2.142-4.779 2.506-7.454 2.135-1.68-.273-4.251.26-4.297 2.376.417 1.588 2.161 2.044 3.607 1.953 3.307.189 6.263-1.686 8.639-3.796 3.32-2.943 4.466-7.637 4.115-11.921zM14.391 2.471c-.023.006-.082.028-.105.031-1.006.093-3.014.432-5.995 2.124-4.553 2.584-6.693 8.131-6.309 13.203 1.55-2.813 4.779-4.57 7.995-3.796 4.004.911 8.145 2.715 12.279 1.283 2.923-.605 4.342-3.548 4.948-6.198-2.878 3.06-7.734 3.132-11.419 1.667-1.908-.729-4.154-2.168-3.984-4.499.065-1.686 1.406-2.813 2.591-3.815zm5.443.332c-.212.006-.232.029-.232.029.493.342.84.887 1.151 1.388l.001.002c.322.471.557 1.199.437 1.774-.025.121-.093.357-.256.36-.063.001-.086-.023-.13-.054-4.022-3.483-5.835-.987-5.984.404-.031.511.024 1.026.286 1.477.28.483.753 1.03 1.241 1.294 1.462.789 2.842 1.04 4.464 1.039 3.194-.019 4.072-1.732 4.13-2.848.045-2.02-1.727-3.467-3.384-4.298-.556-.279-1.456-.575-1.724-.567"/></svg>