<svg xmlns="http://www.w3.org/2000/svg" width="30" height="32" viewBox="0 0 30 32"><path fill="currentColor" d="M14.958.318c2.3 3.955 4.594 7.914 6.83 11.906 1.209-1.512.563-.737 1.948-2.318 1.968 2.43 3.795 5.103 4.552 8.172l.114-.012a1.598 1.598 0 0 1 0 3.196l-.267-.027c-.882 2.968-2.555 5.712-4.399 8.188-2.03-2.628-1.127-1.364-2.743-3.767-1.453 1.7-3.677 5.557-6.035 6.025-2.545-1.137-4.404-3.519-6.075-5.673-1.47 2.122-.636.975-2.534 3.415-1.733-2.53-3.682-5.173-4.403-8.204-.126.053-.017.01-.348.043a1.597 1.597 0 1 1 0-3.196l.197.02c.751-3.044 2.556-5.791 4.554-8.18a38 38 0 0 1 1.872 2.211C10.442 8.17 12.694 4.241 14.958.318m.019 2.231S5.801 18.551 5.856 19.005c.231 1.896 6.427 10.541 9.121 11.261 2.386-.19 9.005-10.617 9.082-11.261S14.977 2.549 14.977 2.549m2.293 21.292 1.151 1.875-2.77 2.727v-4.091zm-4.602-.009 1.619.511v4.099l-2.77-2.727 1.151-1.884zm9.838-3.803-3.196 4.815-1.279-1.96 1.96-2.813 2.514-.043zm-15.091.019 2.514.043 1.96 2.813-1.364 1.96-3.111-4.815zm7.628-7.585 3.793 6.562s-2.727 4.091-3.153 4.219-.597.298-1.364 0-3.111-4.219-3.111-4.219zm.639-6.69 6.903 12.784-2.386-.043-4.517-7.67zm-1.364 0v5.071l-4.517 7.67-2.386.043zM6.349 12.42s-3.148 4.09-3.111 6.987c.043 3.326 3.111 7.587 3.111 7.587a23 23 0 0 0 1.688-2.076c-1.251-1.877-2.898-3.742-3.478-5.979.805-1.844 1.849-3.593 2.834-5.348-.574-.677-.231-.283-1.044-1.17zm17.387 0c-.808.885-.434.461-1.127 1.268.521 1.351 2.441 3.847 2.704 5.251-.94 1.968-2.216 3.837-3.499 5.594 1.09 1.567.462.736 1.923 2.461 1.503-2.183 2.771-4.605 3.074-7.268l-.006-.062.032-.322.003-.006c-.194-2.574-1.611-4.878-3.103-6.916z"/></svg>