<svg xmlns="http://www.w3.org/2000/svg" width="30" height="32" viewBox="0 0 30 32"><path fill="currentColor" d="M15 1c8.284 0 15 6.716 15 15s-6.716 15-15 15S0 24.284 0 16 6.716 1 15 1M8.586 13.721l-.321.005c-1.188.059-2.351.447-3.28 1.201-2.734 2.673-1.129 7.035 1.311 9.3 2.916 3.321 8.765 5.483 12.365 2.008-4.321.856-8.936-2.008-10.015-6.227-.585-2.031.509-3.758 2.803-4.385.938-.257 2.126-.183 3.165.097a.17.17 0 0 0 .098-.014c-1.773-1.055-3.724-1.869-5.806-1.981l-.321-.003zm13.772-5.903c2.77 3.426 2.383 8.843-.85 11.763-1.526 1.463-3.563 1.299-5.186-.439-.664-.711-1.152-1.796-1.388-2.846a.16.16 0 0 0-.058-.08c-.2 3.245.475 7.515 3.839 8.971 3.639 1.175 6.752-2.276 7.621-5.489 1.582-4.126.773-10.31-3.979-11.879zm-7.325-3.821c-.221.003-.442-.002-.663.009-.536.027-1.07.1-1.592.225-4.38.587-9.421 4.258-8.523 9.181 1.682-4.072 6.622-6.326 10.733-4.887 2.015.639 2.846 2.506 2.097 4.763-.306.923-1.026 1.871-1.834 2.581a.17.17 0 0 0-.043.09c2.944-1.378 6.37-4.016 6.038-7.666-.611-2.952-3.405-4.196-6.213-4.296"/></svg>