<svg xmlns="http://www.w3.org/2000/svg" width="30" height="32" viewBox="0 0 30 32"><path fill="currentColor" d="m15.53.345.003 1.136c8.144-.386 14.605 5.335 14.592 13.208-.077 3.108-2.114 6.185-4.508 7.99.016-.156.083-.117.09-.18.918-1.894.725-4.104.275-6.105-.048-.19-.232-.771-.223-.575.051 1.182-.085 2.434-.333 3.63-.548-2.142-1.963-3.949-3.876-5.04.438 2.508.803 5.027 1.303 7.523.67 3.523-.549 6.899-3.284 9.223l-.064.039c-1.184.341-2.509.442-3.848.459-8.646 0-15.655-7.009-15.655-15.655C.062 7.358 6.955.56 15.532.344zm-1.423 2.846c-.434.015-1.007.158-1.16.625h-.013l-.004.056c-.019.063-.01.024-.018.119l.005.063a58 58 0 0 0-.137 3.526c-.028 2.831.085 5.55.036 8.382-.007.499-.065-6.228-.513-9.589l-.012-.04-.001-.007-.044-.141c-.181-.383-.677-.496-1.058-.508a1.11 1.11 0 0 0-1.089.771c-.058.173-.021.002-.124 1.116-.026.48-.03.962-.037 1.442-.034 2.346-.06 4.693-.132 7.038-.02.736.076 1.329.149 1.882.618 0 .934.402 1.167 1.604.137.707-.18 1.155-.105 1.155 2.56 0 3.485 2.133 4.495 3.993-1.522-.99-1.886-3.416-4.216-3.322-1.171.047-1.39.182-1.961.644-.204.165-.22 1.313-.406 1.872-.139.418-.173-1.233-.28-1.659-.385.033-1.73-.101-1.349-.167 1.341-.231 2.56-.33 3.067-1.757.098-.276-.241-1.6-.705-1.606-1.415-.017-4.12.126-4.166.434-.272 1.808-.253 3.48-.001 5.301 1.083 1.874 2.644 3.134 4.139 4.683.929 1.079 3.174.84 3.964.84.02 0-.015.002 0-.011.99-.814 1.325-1.485 1.643-2.232.008-.019.024-.033.037-.05.017.022.037.041.049.065.397.81.772 1.445 1.697 2.341.025.024.072.016.106.024.655.164 2.406.076 2.485-.051 1.638-2.66 2.255-5.551 1.863-7.064-.328-1.268-1.452-2.1-2.751-2.109-.342.016-.44.007-.831.114-.151.041-.292.112-.438.168.698-.475 1.595-.582 2.416-.604.564.015 1.144.224 1.677.426-.029-.541-.187-1.224-.269-1.757-.324-3.079-.683-6.138-.917-9.22l.001-.023a.934.934 0 0 0-.934-.934c-.396.02-.805.263-.896.676l-.028.38c-.032 1.406-.059 2.812-.102 4.217-.015.502-.03 1.004-.058 1.505-.004.07-.011.49-.058.584-.006.011-.024-.046-.034-.14a8 8 0 0 1-.023-.313l-.006-.108c-.173-3.391.061-6.029-.212-9.398v-.212c0-.564-.479-1.021-1.069-1.021-.387.019-.789.2-.957.572-.054.069-.089.149-.11.486-.064.912-.119 1.673-.175 6.645-.021.866-.037 1.803-.173 2.89-.002-3.94-.025-7.835-.233-11.77l.002-.027c-.006-.083.002-.056-.008-.087l-.003-.055h-.014c-.148-.484-.716-.649-1.17-.658zm-4.74 1.634c-.183.081-.356.178-.538.251-5.011 2.01-7.368 6.837-6.462 13.346.021.153.052.305.081.456.505-2.878.882-5.805 2.344-8.397 1.196-2.406 2.747-3.756 4.575-5.656m10.377.078c1.726 1.222 3.187 2.084 4.334 3.654 1.397 1.688 1.792 3.623 2.306 5.521.025-.101.054-.202.068-.305.684-4.725-2.374-8.046-6.205-8.716-.173-.03-.333-.105-.504-.155z"/></svg>