<svg xmlns="http://www.w3.org/2000/svg" width="100%" height="100%" viewBox="0 0 24 24"><path fill="currentColor" d="m15.711 3.648.166.804.004-.002.031.172.049.237-.005.011 1.888 10.639 1.941-6.68 3.843 6.9 8.302.731-1.844.52-.032-.003-4.106 1.168-1.026 5.826-4.085-6.688-3.821 11.067-2.898-13.698-4.054 8.314-.062.142-1.61-4.307L.07 16.146h.078l9.676-.215L15.71 3.646zM15.4 6.033 10.312 16.68l-6.211.078 4.873 1.462 1.139 3.047 4.278-8.915 2.793 13.158 3.465-9.959 3.873 6.39.766-4.384 2.803-.731-4.726-.366h-.152l-3.2-5.722-2.369 8.004-.124-.718-.001.001-2.118-11.993z"/></svg>