<svg xmlns="http://www.w3.org/2000/svg" width="27" height="32"><path fill="currentColor" d="M12.993 31.755C8.415 29.438 5.04 25.509 2.161 21.36c.59-2.157 1.387-4.322 1.307-6.593-.221-2.446-2.083-4.604-3.457-6.513l.174-.14c2.593-1.923 5.181-3.484 8.29-4.382 2.117-.509 3.598-2.137 4.951-3.732h.012v.028h.012c1.353 1.595 2.834 3.223 4.951 3.732 3.109.898 5.697 2.459 8.29 4.382l.174.14c-1.374 1.91-3.236 4.068-3.457 6.513-.08 2.271.717 4.436 1.307 6.593-2.928 4.296-6.494 8.35-11.277 10.612v-.028zm7.875-17.804c-3.578 4.409-5.966 9.345-6.776 15.02 3.01-1.792 5.275-3.922 7.279-6.809l.005.003.822-1.182-.571-1.772c-.576-1.695-.637-3.491-.757-5.26zm-14.861-.028c-.121 1.769-.181 3.565-.757 5.26l-.571 1.772.822 1.182.005-.003c2.003 2.887 4.268 5.017 7.279 6.809-.811-5.675-3.198-10.611-6.776-15.02zm7.419-2.358c-1.059-1.983-2.091-3.993-3.491-5.756-2.479.362-4.504 1.441-6.508 2.921 4.268 4.496 7.826 9.529 10.01 15.378v.028c2.184-5.849 5.742-10.883 10.01-15.378-2.003-1.481-4.029-2.56-6.508-2.921-1.4 1.762-2.432 3.772-3.491 5.756l-.012-.022v-.028l-.012.022zm-.02-9.823c-1.072.871-2.097 1.802-2.941 2.901a748 748 0 0 0 2.941 4.342l.032-.047v.028l.032.047a701 701 0 0 0 2.941-4.342c-.844-1.099-1.869-2.03-2.941-2.901l-.032.026v-.028z"/></svg>