<svg xmlns="http://www.w3.org/2000/svg" width="22" height="32"><path fill="currentColor" d="m11.188.524 11.188 15.37-4.139.01c-1.517 3.723.85 6.44 2.819 7.718h.004l-.002.001.007.005h-.016c-3.645 2.078-7.146 4.575-9.835 7.825-.007.009-.026.021-.026.021s.006.012-.021-.016c-2.969-3.032-6.344-5.72-10.009-7.874H1.14c2.254-1.641 4.591-4.789 2.969-7.646L0 15.948 11.188.526zm-.014 10.73h-.022c-2.626.051-5.053.822-7.169 2.413 2.394 2.352 2.034 5.912.36 8.558 1.553 2.737 3.943 4.904 6.654 6.463l.164.092c2.8-1.558 5.21-3.774 6.821-6.555-1.674-2.646-2.034-6.206.36-8.558-2.116-1.591-4.542-2.361-7.168-2.413m.342 5.21h-.708a.31.31 0 0 0-.312.312v2.185H8.311a.31.31 0 0 0-.312.312v.708c0 .172.14.312.312.312h2.185v2.185c0 .172.14.312.312.312h.708c.172 0 .312-.14.312-.312v-2.185h2.185c.172 0 .312-.14.312-.312v-.708a.31.31 0 0 0-.312-.312h-2.185v-2.185a.31.31 0 0 0-.312-.312"/></svg>