<svg xmlns="http://www.w3.org/2000/svg" width="31" height="32" viewBox="0 0 31 32"><path fill="currentColor" d="M15.563.349c2.527 2.755 4.072 6.186 5.105 9.757a42 42 0 0 1 5.138-3.438c.915 2.952 1.161 6.059.584 9.108 1.576-.311 3.153-.623 4.736-.895-.53 4.743-2.63 9.564-7.439 11.052-.397.125-.811.169-1.222.223.297.913.411 1.87.5 2.822.026.316.037.86.012 1.114 0 0-.009.073-.032.07-1.666-.238-3.423-.83-4.784-1.833-.391 1.356-1.407 2.539-2.556 3.324l-.078-.056c-1.145-.794-2.045-1.975-2.473-3.306-1.359 1.065-3.106 1.601-4.789 1.87l-.058.01c-.048-.145-.1-.539-.054-1.042.028-.312.071-.675.102-.892.098-.701.223-1.4.434-2.077a6.7 6.7 0 0 1-1.25-.226C2.63 24.446.53 19.625.001 14.882c1.583.273 3.159.584 4.736.895-.577-3.049-.331-6.156.584-9.108a42 42 0 0 1 5.138 3.438c1.033-3.571 2.578-7.002 5.105-9.757zm3.224 23.516a26 26 0 0 1-3.224 3.082 26 26 0 0 1-3.224-3.082c-.007.024-.021.049-.018.075a5.6 5.6 0 0 1-.147 1.862l-.004.012c-.689.296-1.434.347-2.172.391-.148.489-.23.995-.305 1.5l-.017.12-.022.16a6 6 0 0 0-.026.228c-.016.195-.011.098-.017.294.557-.135 1.071-.402 1.578-.662 1.045-.549 1.69-.915 2.33-1.344l.177-.119.046.208c.288 1.126.738 2.649 1.839 3.252.316-.175.522-.487.717-.78.424-.659.759-1.348 1.217-2.437l.068-.161.146.096c.368.241.257.168.309.2l.492.294c.956.564 1.923 1.14 3 1.442.002-.081 0-.008-.009-.221a8 8 0 0 0-.059-.513l-.008-.057c-.078-.502-.148-1.012-.3-1.498-.748-.019-1.498-.114-2.196-.393l-.004-.012a5.6 5.6 0 0 1-.147-1.862c.002-.026-.012-.05-.018-.075zM15.563 2.551v.005c-2.42 3.328-3.613 7.362-4.288 11.378-.376 4.217 1.278 8.28 4.288 11.238 3.01-2.958 4.664-7.021 4.288-11.238-.675-4.016-1.868-8.05-4.288-11.378zM1.615 16.522c1.213 4.249 4.37 9.186 9.463 8.363.071-5.164-5.363-7.24-9.463-8.363m27.895 0c-4.1 1.122-9.534 3.199-9.463 8.363 5.092.824 8.25-4.113 9.463-8.363M6.117 8.672a19.9 19.9 0 0 0 .493 8.252c1.589.856 3.231 1.739 4.359 3.198-1.291-2.459-1.258-5.3-.811-7.973-1.239-1.278-2.575-2.459-4.041-3.477m18.891 0c-1.466 1.018-2.802 2.199-4.041 3.477.448 2.673.48 5.514-.811 7.973 1.129-1.46 2.77-2.342 4.359-3.198.733-2.686.915-5.495.493-8.252"/></svg>