<svg xmlns="http://www.w3.org/2000/svg" width="31" height="32" viewBox="0 0 31 32"><path fill="currentColor" d="m15.438.375.403.005C24.37.7 30.955 7.47 31.063 16c0 8.629-6.996 15.625-15.625 15.625S-.187 24.629-.187 16 6.809.375 15.438.375m-1.422.651C6.747 1.71 1.185 7.47.454 14.671c.415-.615 1.135-.941 1.861-.96l.118.003c1.223.083 2.14 1.068 2.171 2.286a2.29 2.29 0 0 1-2.289 2.289c-.723-.008-1.45-.351-1.861-.96.718 7.437 6.383 12.917 13.761 13.666-.671-.425-1.046-1.148-1.066-1.933a2.29 2.29 0 0 1 4.578 0c.002.797-.416 1.494-1.066 1.933 7.288-.651 13.012-6.29 13.752-13.573-.435.556-1.093.849-1.791.867a2.29 2.29 0 0 1 0-4.578c.705-.001 1.346.328 1.791.867C29.717 7.353 24.01 1.83 16.86 1.025c.559.436.832 1.096.867 1.791a2.29 2.29 0 0 1-4.578 0c-.001-.705.328-1.346.867-1.791zm4.502 1.337c5.126 1.078 9.503 5.409 10.556 10.556-.344-.035-.194-.027-.451-.034a3.113 3.113 0 0 0 0 6.226c.258-.006.107.001.451-.034-1.08 5.141-5.423 9.506-10.579 10.561.047-.189.052-.385.057-.578a3.113 3.113 0 0 0-6.226 0q-.001.292.057.578C7.24 28.562 2.858 24.23 1.801 19.067c.168.038.343.04.515.044a3.113 3.113 0 1 0-.515-6.182c1.077-5.13 5.406-9.512 10.558-10.566-.035.344-.027.194-.034.451a3.113 3.113 0 0 0 6.226 0c-.006-.258.001-.107-.034-.451zm-3.577 14.601c-.775.008-1.703.019-1.399 1.078.417 1.396.688 2.542.73 5.019.001.043-.016.103.02.127 2.583 1.745 4.833 2.323 7.53 3.061.029.008.041-.013.069-.004.003-.053.018-.074.024-.125.117-1 .117-1.563.023-2.578a2 2 0 0 1 0-.188c-.046-.014-.159-.074-.203-.094-.672-.297-2.508-1.253-3.964-.573-.462-.16-.709-.063-1.459-.392-.03-.013-.088-.062-.089-.115-.002-.094.008-.187.011-.28.183-2.984-.102-3.227-.109-4.9q-.11.002-.219.001a95 95 0 0 1-.965-.038zm-.098-10.339c-1.817.008-3.316.38-4.839 1.406-2.299 1.76-3.332 4.04-3.213 7.246.104 2.792 1.854 4.542 3.854 5.729.07.041.015-.167.021-.249.125-1.709.504-3.85 2.018-5.145.044-.038.07-.092.107-.138 1.543.013 3.234.44 4.469-.729l.125-.141c.859-.906.619-2.265.442-3.395.038.037.071.077.112.108.711.535 1.179 1.132 1.791 2.013.018.026.094.055.066.07-2.613 1.403-3.169 3.447-2.742 5.903l.018.141c1.011.284 1.741.472 1.956 1.927q.008.053.013.107c1.222.302 3.532 1.101 3.667.75.542-1.417.547-2.514-.083-3.854.197-.545.847-.929.688-1.488-.104-.366-.208-.553-.563-.97-.106-.125-.292-.417.024-1.404.018-.057.004-.091.002-.16-.247-4.478-3.504-7.513-7.933-7.728zm5.634 8.009c.805.013 1.094.283 1.273 1.074.16.819-.726 1.948-1.5 1.771-1-.229-1.375-.75-1.354-1.5.023-.839.688-1.25 1.438-1.333zm-5.039 12.963a1.465 1.465 0 1 0 0 2.93 1.465 1.465 0 0 0 0-2.93M2.315 14.535l-.15.008C1.401 14.654.889 15.234.85 16a1.465 1.465 0 0 0 2.93 0c-.039-.767-.551-1.346-1.315-1.457zm26.306 0a1.465 1.465 0 1 0 0 2.93 1.465 1.465 0 0 0 0-2.93M15.438 1.352a1.465 1.465 0 1 0 0 2.93 1.465 1.465 0 0 0 0-2.93"/></svg>