<svg xmlns="http://www.w3.org/2000/svg" width="28" height="32" viewBox="0 0 28 32">
    <path fill="currentColor"
        d="M13.867 2.133c7.658 0 13.867 6.208 13.867 13.867s-6.208 13.867-13.867 13.867C6.209 29.867 0 23.659 0 16S6.208 2.133 13.867 2.133m0 2.157C7.4 4.29 2.157 9.533 2.157 16S7.4 27.71 13.867 27.71s11.71-5.243 11.71-11.71-5.243-11.71-11.71-11.71m0 4.355a7.355 7.355 0 1 1 0 14.71 7.355 7.355 0 0 1 0-14.71m0-1.389a8.744 8.744 0 1 0 0 17.488 8.744 8.744 0 0 0 0-17.488m0 3.635a5.092 5.092 0 1 1 0 10.185 5.092 5.092 0 0 1 0-10.185m-.017-.789a5.881 5.881 0 1 0 0 11.762 5.881 5.881 0 0 0 0-11.762m.017 3.858a2.023 2.023 0 1 1 0 4.047 2.023 2.023 0 0 1 0-4.047m0-2.041a4.063 4.063 0 1 0 0 8.126 4.063 4.063 0 0 0 0-8.126m-3.473-4.835a.728.728 0 1 0 0-1.456.728.728 0 0 0 0 1.456m3.473-.562a.728.728 0 1 0 0-1.456.728.728 0 0 0 0 1.456m0 20.472a.728.728 0 1 0 0-1.456.728.728 0 0 0 0 1.456m-10.036-8.47a.728.728 0 1 0 0-1.456.728.728 0 0 0 0 1.456m0-3.498a.728.728 0 1 0 0-1.456.728.728 0 0 0 0 1.456m1.2-3.364a.728.728 0 1 0 0-1.456.728.728 0 0 0 0 1.456m2.332-2.773a.728.728 0 1 0 0-1.456.728.728 0 0 0 0 1.456M5.031 21.864a.728.728 0 1 0 0-1.456.728.728 0 0 0 0 1.456m2.332 2.769a.728.728 0 1 0 0-1.456.728.728 0 0 0 0 1.456m3.031 1.772a.728.728 0 1 0 0-1.456.728.728 0 0 0 0 1.456m7.082 0a.728.728 0 1 0 0-1.456.728.728 0 0 0 0 1.456m0-19.321a.728.728 0 1 0 0-1.456.728.728 0 0 0 0 1.456m3.211 17.549a.728.728 0 1 0 0-1.456.728.728 0 0 0 0 1.456m2.231-2.769a.728.728 0 1 0 0-1.456.728.728 0 0 0 0 1.456m1.23-3.34a.728.728 0 1 0 0-1.456.728.728 0 0 0 0 1.456m0-3.498a.728.728 0 1 0 0-1.456.728.728 0 0 0 0 1.456m-1.23-3.364a.728.728 0 1 0 0-1.456.728.728 0 0 0 0 1.456m-2.231-2.773a.728.728 0 1 0 0-1.456.728.728 0 0 0 0 1.456" />
</svg>