<svg xmlns="http://www.w3.org/2000/svg" width="29" height="32" viewBox="0 0 29 32"><path fill="currentColor" d="M14.663.507c3.185-.05 3.319 5.366 5.262 5.398 2.733.045 4.754.848 5.339 1.918 1.443 2.638.052 3.895.199 5.425.249 2.588 3.077 2.887 3.036 5.973-.038 2.809-3.086 4.678-7.267 5.525-1.67.338-1.221 6.088-4.678 6.719-2.041.372-3.132-2.914-5.574-3.235-1.891-.249-3.219 1.572-5.973.348-2.24-.995-1.398-3.885-2.14-5.674-.846-2.041-3.932-2.389-2.489-6.769.542-1.644 2.289-1.045 3.434-4.529.625-1.903-2.194-3.242-.05-5.624 1.344-1.493 4.33.05 6.122-.846 1.254-.627 2.855-4.599 4.778-4.629zm6.411 7.828c-.696.003-1.158.332-1.484.932-.348.697.099 1.344-.398 1.792-1.093.984-2.313-.398-2.986 1.244-1.032 2.515 3.352 4.043 4.878 5.276 1.294 1.045.506 2.332 1.294 3.185 1.195 1.294 3.086-1.493 2.737-3.384s-4.33-3.086-4.28-4.778 1.692-.995 1.891-2.339c.139-.941-.299-1.593-1.145-1.841-.283-.072-.116-.037-.507-.086zm-5.473-4.544-.191.001c-.81.039-1.666.757-1.666 1.568s.657 1.468 1.468 1.468c.944-.05 1.392-.149 1.641-1.344.126-.588-.021-1.24-.601-1.534-.256-.13-.367-.12-.651-.159"/></svg>