<svg xmlns="http://www.w3.org/2000/svg" width="26" height="32" viewBox="0 0 26 32"><path fill="currentColor" d="M13.11 0c2.848.684 5.211 2.755 7.19 4.833 3.764 3.897 5.729 9.248 6.074 14.592-.192 5.039-3.22 10.362-8.051 12.151-2.909 1.077-3.931-.055-5.193-1.635-.757.763-1.649 1.779-2.349 1.977-.57.161-1.616-.054-1.616-.054-3.386-.511-5.807-3.224-7.553-5.972-2.642-4.986-1.779-11.113.737-15.966C4.646 5.578 8.324 1.502 13.11.001zm.431 15.89-.318.005c-.186.014-.372.022-.557.043a9 9 0 0 0-1.355.264c-1.498.684-1.998 2.545-3.291 3.517-.896.876-2.258 1.334-2.805 2.511-.041 2.6 1.327 5.152 3.428 6.67 1.129.404 2.367-.126 3.467-.437 2.029-.575 3.73.841 5.625.485 1.334-.992 2.436-2.347 2.956-3.941.493-1.382.999-3.4-.732-4.105-1.902-1.054-3.927-4.327-4.343-4.543-.66-.288-1.348-.476-2.074-.469zm8.281-2.572c-2.59.113-3.634 3.697-2.838 5.778 1.136.807 2.436 1.341 3.667 1.984.862-2.319 1.799-5.111.417-7.423-.392-.193-.805-.335-1.247-.339zM4.54 13.32c-.474.043-.829.133-1.249.371-1.409 2.285-.335 5.042.424 7.355 1.252-.609 2.559-1.129 3.701-1.929.794-2.087-.26-5.719-2.876-5.797m11.088-6.717-.221.028c-1.19 2.49-2.114 6.639-.39 8.176 2.051 1.828 4.31-.722 4.137-3.307-.136-1.659-.904-4.27-2.711-4.811-.354-.106-.447-.081-.816-.085zm-4.84 0c-.369.004-.462-.021-.816.085-1.827.548-2.557 3.143-2.711 4.811-.172 2.586 2.087 5.136 4.137 3.307 1.724-1.537.8-5.685-.39-8.176l-.221-.028zM6.41 8.542c-.971 1.143-3.027 3.61-2.412 3.81.437.142 2.232.613 2.184.114-.104-1.092.125-2.611.228-3.925zm13.87 0c.103 1.314.332 2.832.228 3.925-.048.499 1.748.028 2.184-.114.615-.2-1.441-2.668-2.412-3.81zm-6.565-5.705q.419 1.404.889 2.798c.588.021 1.758.068 2.347.096-.759-1.279-1.929-2.21-3.236-2.894m-1.17.007a7.8 7.8 0 0 0-3.154 2.887 219 219 0 0 1 2.292-.075q.451-1.406.862-2.812"/></svg>