<svg xmlns="http://www.w3.org/2000/svg" width="100%" height="100%" viewBox="0 0 32 32">
    <path fill="currentColor"
        d="m18.16 10.309.127.006c.311.042.54.204.727.447l5.246 9.085-.002.002c.108.184.171.376.169.578-.005.615-.446 1.035-1.015 1.035H12.906a1.03 1.03 0 0 1-1.029-1.029c.011-.298.11-.441.186-.585 1.71-3.01 3.493-5.974 5.187-8.989.17-.276.436-.544.911-.551zm.437-4.649c5.743.07 10.656 4.465 10.687 10.34-.077 5.847-4.918 10.321-10.701 10.34-2.66-.094-5.358-.88-7.313-2.767l-8.422-7.717 7.982-7.051.766-.577c1.968-1.66 4.425-2.521 7.001-2.568m-.036-2.625c-3.236.079-6.237 1.099-8.68 3.206L.876 14.095a2.363 2.363 0 0 0-.114 3.409l8.678 7.951c2.382 2.314 5.801 3.461 9.12 3.509 7.372 0 13.348-5.805 13.348-12.965S25.932 3.034 18.56 3.034z" />
</svg>