<svg xmlns="http://www.w3.org/2000/svg" width="100%" height="100%" viewBox="0 0 24 24"><path fill="currentColor" d="M14.791.113a15.9 15.9 0 0 1 10.393 2.861c3.28 2.303 5.642 5.882 6.429 9.816a16 16 0 0 1-.617 8.616 15.96 15.96 0 0 1-9.413 9.525c-2.895 1.093-6.11 1.294-9.125.613a15.9 15.9 0 0 1-5.361-2.323 16.1 16.1 0 0 1-4.831-5.131A15.9 15.9 0 0 1 .13 17.483a16 16 0 0 1 1.226-7.78 15.96 15.96 0 0 1 4.305-5.83c2.54-2.179 5.787-3.527 9.128-3.76zM12.27 2.309c-.228.845-.63 1.655-1.249 2.283A4.98 4.98 0 0 1 8.385 6.05c-.798.16-1.633.11-2.415-.112.173.702.296 1.434.177 2.156a4.94 4.94 0 0 1-1.948 3.344c-.565.437-1.236.706-1.92.894.926.868 1.525 2.083 1.592 3.355a4.96 4.96 0 0 1-.695 2.833c-.252.433-.593.801-.938 1.16.248.091.506.152.753.248a4.9 4.9 0 0 1 2.413 2.015 4.9 4.9 0 0 1 .659 3.393c-.037.247-.127.484-.143.734.45-.076.892-.22 1.353-.213a4.96 4.96 0 0 1 3.225 1.017c.924.703 1.569 1.739 1.835 2.866.779-.844 1.839-1.433 2.981-1.592.954-.158 1.949.02 2.822.427.608.282 1.132.714 1.588 1.201.145-.498.282-1.006.549-1.456a4.88 4.88 0 0 1 3.687-2.477c.726-.111 1.466.01 2.165.216-.301-.959-.34-2.001-.042-2.966a4.9 4.9 0 0 1 2.982-3.182c.238-.094.494-.137.727-.247-.621-.573-1.131-1.276-1.403-2.08-.494-1.359-.32-2.927.432-4.159.245-.435.607-.783.938-1.152-.188-.054-.377-.099-.562-.159-1.495-.463-2.706-1.709-3.154-3.205-.21-.646-.229-1.333-.176-2.004.037-.334.139-.655.204-.984-.449.085-.894.217-1.356.213a4.982 4.982 0 0 1-4.678-2.844c-.16-.328-.254-.681-.375-1.023a5.04 5.04 0 0 1-2.585 1.47 5 5 0 0 1-3.855-.736c-.319-.208-.592-.474-.874-.725l-.077.034zM14.728 6.3c1.512-.235 3.069 0 4.503.511 1.725.636 3.297 1.738 4.402 3.216a10 10 0 0 1 1.818 3.978c.127.552.166 1.116.215 1.678a10 10 0 0 1-2.373 6.557c-.828.993-1.893 1.772-3.042 2.354-1.705.843-3.659 1.216-5.549.948a10.03 10.03 0 0 1-5.326-2.495c-1.748-1.614-2.859-3.886-3.097-6.249-.216-2.263.44-4.579 1.738-6.437C9.537 8.13 12.068 6.66 14.729 6.3zm.176-.676C12.489 5.81 10.179 6.952 8.51 8.7c-1.75 1.761-2.83 4.189-2.895 6.676-.041.368-.039.741.002 1.109.022.954.206 1.9.507 2.804.663 2.002 2.011 3.734 3.685 4.998 1.75 1.302 3.937 2.031 6.122 1.959a9.2 9.2 0 0 0 2.492-.254c2.653-.612 4.973-2.385 6.396-4.687a10 10 0 0 0 1.389-3.924c.168-1.453.108-2.945-.299-4.356a10 10 0 0 0-2.153-3.922c-.452-.474-.908-.951-1.426-1.355A10 10 0 0 0 18.978 6c-1.316-.398-2.711-.5-4.075-.375z"/></svg>