<svg xmlns="http://www.w3.org/2000/svg" width="100%" height="100%" viewBox="0 0 24 24"><path fill="currentColor" d="M16.001 0c8.837 0 16 7.163 16 16s-7.163 16-16 16-16-7.163-16-16 7.163-16 16-16m.215 13.916c-4.835.232-8.273 1.269-12.5 3.759a122 122 0 0 1 5.827 4.885c2.283 2.037 3.534 3.656 4.853 5.28.547.673.962 1.342 1.653 2.05 3.244-4.825 7.549-8.821 12.235-12.228-2.786-1.644-5.847-2.855-9.022-3.47-1.686-.252-.674-.13-3.047-.276zm-.824-6.084c-.595.089-1.199.127-1.784.267-3.274.784-6.007 3.111-7.1 6.313 3.168-1.073 6.406-2.215 9.813-2.045 3.181-.056 6.186 1.067 9.16 2.045-1.085-3.275-4.015-5.747-7.391-6.368-1.486-.26-.591-.147-2.697-.212z"/></svg>