<svg xmlns="http://www.w3.org/2000/svg" width="100%" height="100%" viewBox="0 0 24 24"><path fill="currentColor" d="M18.561 3.035c7.372 0 13.348 5.805 13.348 12.965s-5.976 12.965-13.348 12.965c-3.319-.048-6.738-1.195-9.12-3.509L.763 17.505a2.363 2.363 0 0 1 .114-3.409l9.005-7.854c2.442-2.107 5.444-3.127 8.68-3.206zm.036 2.625c-2.576.048-5.033.909-7.001 2.568l-.766.577-7.982 7.051 8.422 7.717c1.955 1.887 4.653 2.672 7.313 2.767 5.782-.018 10.624-4.493 10.701-10.34-.031-5.874-4.944-10.27-10.687-10.34m-4.484 5.723c-.397.005-.619.23-.761.46-1.415 2.517-2.902 4.991-4.33 7.504-.063.12-.146.239-.155.488a.86.86 0 0 0 .859.859h8.77c.474 0 .843-.35.847-.864a.94.94 0 0 0-.141-.482l.002-.002-4.379-7.585c-.156-.203-.347-.339-.607-.373zm7.882 9.272c-.397-.005-.619-.23-.761-.46-1.415-2.517-2.902-4.991-4.33-7.504-.063-.12-.146-.239-.155-.488a.86.86 0 0 1 .859-.859h8.77c.474 0 .843.35.847.864a.94.94 0 0 1-.141.482l.002.002-4.379 7.585c-.156.203-.347.339-.607.373z"/></svg>