<svg xmlns="http://www.w3.org/2000/svg" width="100%" height="100%" viewBox="0 0 24 24"><path fill="currentColor" d="M15.948 0c8.837 0 16 7.163 16 16s-7.163 16-16 16-16-7.163-16-16 7.163-16 16-16m1.216 1.302-1.251.02V15.43l-2.7-2.478c-1.111-2.714 1.141-5.397 1.141-5.397s-.387-.069-.675.032c-4.261 1.497-5.685 5.94-5.686 5.94-4.612.54-5.366.797-6.318 1.214l.02 1.25 14.039-.017L13.12 18.9c-2.714 1.111-5.397-1.141-5.397-1.141s-.069.387.032.675c1.497 4.261 5.94 5.686 5.94 5.686.54 4.612.798 5.366 1.214 6.318l1.25-.02.01-14.166.001-.003 2.667 2.507c1.111 2.714-1.141 5.397-1.141 5.397s.387.069.675-.032c4.261-1.497 5.686-5.94 5.685-5.94 4.612-.54 5.366-.797 6.318-1.214l-.02-1.251-13.921-.029 2.517-2.849c2.714-1.111 5.397 1.141 5.397 1.141s.07-.387-.032-.675c-1.497-4.261-5.94-5.685-5.94-5.686-.54-4.612-.797-5.366-1.214-6.318z"/></svg>