<svg xmlns="http://www.w3.org/2000/svg" width="100%" height="100%" viewBox="0 0 24 24"><path fill="currentColor" d="M16 0c8.837 0 16 7.163 16 16s-7.163 16-16 16S0 24.837 0 16 7.163 0 16 0m0 3.096C8.873 3.096 3.096 8.873 3.096 16S8.873 28.904 16 28.904 28.904 23.127 28.904 16 23.127 3.096 16 3.096m.207 1.87 2.053.159-.066.283c-3.117.374-6.415.845-9.112 2.55-.673.425.142 1.088.648 1.052 1.406.228 3.415.299 3.891 1.963-.455 1.462-1.751 2.312-3.253 2.353-.233 1.639.784 3.233.238 4.877-.521 2.09.956 4.113 2.924 4.72.192 1.781 2.221 1.781 3.592 1.619.506-.167.916.101 1.159.541-2.125.349-3.688 2.515-6 1.842-2.666-.734-4.553-3.01-6.198-5.115-1.73-2.555-2.595-5.854-1.634-8.869.364-.992.612-2.368 1.715-2.788 1.245.39 1.74 1.862 2.945 2.353.592-.379 1.214-.941 1.012-1.725-1.143-.592-2.96-.749-3.349-2.165.653-1.356 1.928-2.56 3.278-3.258 3.404-.428 1.356-.235 6.158-.391zm6.981 15.871c.73.083 1.193.41 1.553 1.024.885 1.498-.774 3.137-2.236 3.253-1.882-.354-1.852-3.294-.496-4.189.644-.118.253-.068 1.179-.088m-5.767-2.603c1.263.205 2.085.76 1.613 2.139-.243 1.366-2.631 2.509-3.258.83-.374-1.062.334-2.256 1.194-2.858zm6.722-7.213c1.154.224.708.007 1.413.473 1.002 1.275 1.984 2.503 2.342 4.194.158.745-.075 1.638-.212 1.567-.951.956-1.554 1.848-2.844 2.394-2.186.531-4.781-1.614-4.412-3.891.567-1.133 1.229-2.221 1.7-3.4.428-.984 1.069-1.097 2.012-1.338zm-7.964 3.655a.7.7 0 1 1 0 1.398.7.7 0 0 1 0-1.398m2.199-1.982a.514.514 0 1 1 0 1.028.514.514 0 0 1 0-1.028m1.76-4.922c1.35.285 2.309.998 1.937 2.497-1.452.966-3.309-.931-2.423-2.378l.486-.12z"/></svg>