<svg xmlns="http://www.w3.org/2000/svg" width="100%" height="100%" viewBox="0 0 24 24"><path fill="currentColor" d="M16 0c3.13.009 6.251.917 8.851 2.674-.616.374-1.195.803-1.769 1.238-.953.745-1.714 1.7-2.675 2.434-.916.721-1.714 1.574-2.429 2.493-2.067 2.129-3.218 5.186-4.69 7.714-.201-.839-.465-1.9-.644-2.744-.046-1.465-.006-2.935-.014-4.402-.26-.045-.349-.072-.614-.061-.635.399-1.044 1.041-1.59 1.547l-.297.339-2.416 1.802c-.535.512-1.059 1.114-1.659 1.554-.319.251-.755.19-1.132.163-.594-.193-1.242-.184-1.51-.683-.124-.34-.603-1.253-.871-1.452-.42.922-.477 1.723-.428 2.779.022.766-.112 1.179-.008 1.94.271.535 1.197.431 1.307 1.016.218 1.162-.696 1.6-.944 2.105.718 1.591 1.546 3.323 2.529 4.784.466.677 1.106 1.202 1.677 1.786.712.715 1.422 1.462 2.322 1.941.645.329 1.262.761 1.99.879.228-.019.571.11.713-.128.054-.479-.388-.801-.597-1.186-.308-.372-.217-.879-.238-1.325.027-.343-.049-.745.193-1.028.587-.776 1.508-1.155 2.292-1.689.346-.238.705-.455 1.069-.664.667-.381 1.1-1.044 1.793-1.383.715-.369 1.457-.772 2.02-1.343a11.4 11.4 0 0 0-1.626-.717c-.518-.214-.973-.53-1.401-.891l-1.794.15q-.37.583-.754 1.157c-.13.195-.394.246-.588.116s-.332-.483-.202-.677c.263-.393.499-.331.865-.908.198-.313.795-1.221.911-1.366 1.102-1.385 1.931-2.928 2.662-3.972 1.627-2.325 3.037-4.476 4.692-5.963 1.997-1.795 3.915-2.919 6.105-3.392h.16c.388.388.219.209.511.53-.088.165-.275.241-.445.289-2.031.438-3.811 1.572-5.706 3.274-1.6 1.438-3.122 3.255-4.715 5.531a88 88 0 0 0-2.307 3.502c-.244.386-.706.985-.95 1.371l1.551-.324c1.254-.888 2.648-.827 3.915-1.635.431-.329.388-.913.426-1.395.476.003.975-.034 1.408.204.543.265 1.316.348 1.97.069 1.131-.48.139-1.318.283-1.978.447.008 1.166-.001 1.611-.056.685-.158 1.021-.705 1.494-1.185-.519-.474-1.055-.934-1.655-1.304.672-.262 2.231-.275 2.947-.309.246-.077-.4-.495-.158-.565.557-.162 1.177.043 1.639-.226.064-.037-.159-.396-.085-.396.396 0 1.105-.136 1.272-.339.186-.226-.21-.588-.247-.878-.476-.377-1.146-.15-1.706-.268.34-.3.64-.68 1.061-.867.255-.024.162-.022.278-.024 1.564 2.499 2.31 5.406 2.347 8.338 0 8.837-7.163 16-16 16s-16-7.163-16-16 7.163-16 16-16zm10.268 17.801c-1.301.294-3.354 1.724-4.529 2.299-1.454.953-2.994 1.765-4.419 2.761-.554.377-1.05.838-1.637 1.167-.878.472-1.61 1.171-2.526 1.582.487.613.924 1.342 1.65 1.695.539.041.815-.554 1.3-.704.318.032 1.319.006 1.159.283-.509.876-1.503.714-2.001 1.298-.412.6-.187 1.381-.247 2.06.356-.056.741-.048 1.055-.247 1.43-.806 2.811-1.693 4.239-2.499 1.669-.894 3.168-2.057 4.735-3.111.9-.752 2.964-2.014 3.631-2.983.14-.787-.663-1.447-.735-2.204-.113-1.187-.93-1.277-1.674-1.395zM16.014 1.444l-.551.005c-.153.016-.308.02-.46.048-.385.069-.747.228-1.13.304-1.653.583-3.155 1.527-4.576 2.541C7.76 5.611 6.407 7.079 4.98 8.466c-.302.34-.761.747-.597 1.254.263.509.774.878 1.411 1.077.417.13.361.71.387 1.139.021.345.481.899 1.003.648l2.456-2.309c.559-.571 1.102-1.09 1.766-1.546 1.326-.873 2.614-1.759 4.047-2.458.854-.468 1.76-.848 2.57-1.395.857-.543.912-2.343-.065-2.573-.533-.125-.766.005-1.118.397-.725.81-1.063.942-1.163.849-.072-.066-.035-.174.099-.34.054-.067.118-.091.218-.196.005-.005.253-.238.313-.303.231-.246.341-.462.446-.647.072-.146.101-.094.073-.159-.143-.333-.519-.347-.812-.459z"/></svg>