<svg xmlns="http://www.w3.org/2000/svg" width="100%" height="100%" viewBox="0 0 24 24"><path fill="currentColor" d="M16.009 0c8.837 0 16 7.163 16 16s-7.163 16-16 16-16-7.163-16-16 7.163-16 16-16m-.069 2.294c-.554.12-.879.602-1.26.98-2.594 2.919-5.89 5.073-9.224 7.046-.955.396-.984 1.624-.616 2.441 2.121.516 4.366.139 6.473.707.941.602.893 1.844.645 2.795-.654.912-1.896 1.323-2.326 2.393.497 1.008 1.217 1.954 1.819 2.9-.287.908-.634 2.058.268 2.732-.043-.33-.164-1.137-.074-1.309s.411-.388.566-.267c.133.345.798 1.963 1.209 2.943-.227-.091-.546-.148-.887-.279-.354-.136-.731-.347-.967-.442.411 1.084 1.318 1.724 2.25 2.331-.048.358-.143 1.07-.196 1.424-.946-.062-2.087-.43-.817-1.815-.287.287-.853.764-1.099 1.108-.725 1.01 1.037 1.448 1.634 1.95.511-.478 1.409-.798 1.347-1.648.067-2.226 1.06-4.27 1.285-6.482.148 2.221.903 4.598 1.247 6.497.146.809.812 1.141 1.318 1.609.745-.392 2.162-1.089 2.043-1.388-.286-.723-.94-1.053-1.465-1.626 1.137 1.333.249 1.79-.692 1.79-.104 0-.216-.373-.284-.739-.047-.254-.066-.503-.123-.755 1.07-.416 1.916-1.166 2.298-2.264-.459.182-1.385.54-1.849.721.578-.97.61-2.252 1.607-3.069.347-.284.129 2.007.342 1.612.644-1.194.425-1.73.081-2.685.602-.955 1.29-1.863 1.796-2.876-.511-1.013-1.648-1.471-2.331-2.345-.267-.951-.315-2.193.616-2.809 2.116-.578 4.382-.16 6.511-.702.239-.061.269-.224.313-.477.099-.563.223-1.273-.184-1.52-2.797-1.696-5.651-3.349-8.063-5.579-1.065-.884-1.887-2.016-2.966-2.885l-.245-.015zm.593 17.283a66 66 0 0 0 2.15 2.661 66 66 0 0 1-.783 2.322c-.669-1.595-1.151-3.263-1.366-4.982zm-1.17-.024c-.215 1.72-.683 3.387-1.338 4.987-.282-.74-.554-1.486-.831-2.226-.002-.007 1.462-1.829 2.169-2.761m2.125-2.121c1.022.291 2.006.702 2.923 1.242a99 99 0 0 1-1.28 2.116 17.3 17.3 0 0 1-1.643-3.358m-3.076 0c-.416 1.18-1.034 2.204-1.694 3.265-.435-.702-.809-1.316-1.23-2.023a12.8 12.8 0 0 1 2.923-1.242z"/></svg>