<svg xmlns="http://www.w3.org/2000/svg" width="100%" height="100%" viewBox="0 0 24 24"><path fill="currentColor" d="M14.781.105a16.1 16.1 0 0 1 6.123.731c3.709 1.201 6.925 3.828 8.857 7.213a15.9 15.9 0 0 1 2.112 7.701 15.93 15.93 0 0 1-9.21 14.722 15.76 15.76 0 0 1-7.106 1.461 15.7 15.7 0 0 1-7.492-2.126c-3.508-2.022-6.177-5.434-7.302-9.322a16.06 16.06 0 0 1-.13-8.48c.844-3.329 2.816-6.354 5.503-8.49A15.85 15.85 0 0 1 14.78.106zM7.927 5.303c-1.841 1.381-3.366 3.2-4.332 5.294a12.95 12.95 0 0 0-1.197 6.282 13.1 13.1 0 0 0 2.033 6.259 14.4 14.4 0 0 0 4.84 4.657 15.65 15.65 0 0 0 8.012 2.176 15 15 0 0 1-1.824-.681c-2.436-1.114-4.633-2.804-6.203-4.986a14.05 14.05 0 0 1-2.564-6.309 13.8 13.8 0 0 1 1.1-7.58c1.252-2.777 3.416-5.117 6.042-6.651 1.096-.649 2.261-1.186 3.484-1.548a16.06 16.06 0 0 0-9.389 3.087z"/></svg>