<svg xmlns="http://www.w3.org/2000/svg" width="100%" height="100%" viewBox="0 0 24 24"><path fill="currentColor" d="M16 0c8.837 0 16 7.163 16 16s-7.163 16-16 16S0 24.837 0 16 7.163 0 16 0m-.036 1.594a4 4 0 0 0-.11.617c-.1.931-.144 1.867-.202 2.801-.12 2.11-.238 4.22-.424 6.326a63 63 0 0 1-.424 3.694c-.167 1.095-.365 2.191-.701 3.248-.45.03-.899.071-1.348.111-.162-.456-.252-.933-.342-1.407a55 55 0 0 1-.472-3.388c-.272-2.383-.47-4.774-.695-7.162-.036-.354-.067-.71-.123-1.062-.052.154-.065.317-.09.477-.066.504-.116 1.01-.168 1.516-.284 2.812-.539 5.629-.976 8.423a31 31 0 0 1-.38 2.02c-.1.431-.212.86-.368 1.274-.417.129-.832.267-1.234.44-.188-.437-.316-.896-.435-1.355-.263-1.056-.435-2.132-.588-3.209-.192-1.344-.329-2.694-.512-4.039-.053-.347-.094-.699-.198-1.035l-.027-.005c-.05.165-.071.336-.098.506-.128.93-.215 1.865-.306 2.799a509 509 0 0 0-.717 8.635c1.582.6 3.049 1.495 4.324 2.606 2.303 2.014 4.998 4.496 6.571 7.105.028.002.039.082.069.021.903-1.78 1.903-2.989 3.361-4.364a40 40 0 0 1 3.958-3.292c1.017-.739 2.42-1.63 3.596-2.075a559 559 0 0 0-.498-6.204c-.012-.12-.024-.24-.023-.361l-.01.039c-.064-.858-.15-1.714-.23-2.571-.079-.789-.154-1.579-.265-2.364-.029-.171-.046-.347-.108-.511-.125.383-.166.786-.226 1.183-.229 1.739-.401 3.485-.694 5.215a22 22 0 0 1-.516 2.385 8 8 0 0 1-.309.89 12 12 0 0 0-1.233-.439c-.248-.665-.395-1.362-.533-2.057a53 53 0 0 1-.496-3.209c-.301-2.339-.514-4.688-.755-7.033-.038-.353-.075-.705-.125-1.056-.019-.116-.029-.236-.071-.347-.085.513-.119 1.033-.172 1.55-.231 2.509-.444 5.02-.749 7.521-.079.64-.165 1.28-.266 1.917-.114.682-.224 1.369-.446 2.025-.449-.049-.899-.082-1.349-.116-.34-1.073-.54-2.184-.708-3.295-.344-2.354-.519-4.729-.672-7.101-.091-1.451-.166-2.904-.259-4.355-.041-.545-.073-1.091-.154-1.632-.017-.102-.028-.209-.077-.302z"/></svg>