<svg xmlns="http://www.w3.org/2000/svg" width="27" height="32"><path fill="currentColor" d="M20.347 2.509c.445-.071.871-.225 1.312-.319-.005.177.029.351.049.527.022.708.142 1.408.206 2.113q.221 1.636.575 3.249c.093.417.158.841.282 1.25.135.437.183.898.352 1.326.141.504.286 1.007.47 1.497.123.289.202.593.307.889.151.522.409 1.004.605 1.51.1.283.239.526.349.804.164.415.36.753.568 1.125.391.736.623 1.149.928 1.529.17.273.358.552.573.793.118.15.294.28.311.485-.26.095-.509.218-.763.328-.767.254-1.51.577-2.241.921-1.012.434-1.97.98-2.908 1.554-1.41.853-2.754 1.82-3.958 2.947a23 23 0 0 0-2.168 2.293 8 8 0 0 0-.681.95c-.205.347-.468.656-.676 1.001-.108.178-.204.365-.332.531-.14-.169-.248-.361-.36-.549a19.3 19.3 0 0 0-3.123-3.875c-1.407-1.363-3-2.523-4.683-3.522A45 45 0 0 0 2.7 20.482c-.237-.123-.503-.179-.728-.327-.635-.311-1.315-.514-1.958-.806.167-.332.409-.617.621-.92.445-.613.825-1.268 1.192-1.929.956-1.735 1.664-3.596 2.218-5.495.569-1.911.938-3.876 1.189-5.852a37 37 0 0 0 .211-2.24 6 6 0 0 1 .046-.638c.215.004.425.051.632.11.699.198 1.415.329 2.13.452 1.138.189 2.281.355 3.434.409.734.043 1.469.105 2.205.097.706.003 1.409-.056 2.113-.101.658-.05 1.315-.12 1.967-.228.555-.092.66-.104.727-.117a15 15 0 0 0 1.648-.385zm-3.124 2.097c-.679.248-1.391.382-2.099.517-.552.066-1.106.128-1.663.112-1.083.025-2.178-.135-3.187-.538q-.018.188.014.375c.075.516.104 1.04.041 1.558-.079 1.147-.391 2.263-.794 3.335-.099.273-.239.532-.293.82-1.009 2.266-2.361 4.366-3.892 6.312-.148.188-.313.364-.437.57.227.004.438-.086.656-.136a22 22 0 0 1 3.43-.621c.795-.106 1.6-.079 2.401-.08a10.4 10.4 0 0 1 2.657.367c.036.078.012.165-.005.244-.287.936-.457 1.904-.566 2.875-.131 1.177-.113 2.365-.093 3.548.067 1.209.169 2.42.409 3.61.095-.418.147-.845.251-1.26.243-1.057.605-2.084 1.017-3.086.699-1.68 1.558-3.289 2.494-4.849a55 55 0 0 1 3.295-4.86c.1-.103.055-.251.058-.379-.094.004-.189.007-.281.027-.496.11-1 .179-1.503.259-.357.04-.712.108-1.072.116l.144.039c-.206-.014-.413-.004-.619.005-.54.077-1.087.041-1.63.053-.527-.011-1.058.025-1.582-.053-.447-.003-.88-.131-1.324-.163-.029-.439.09-.869.168-1.297.563-2.636 1.965-5.045 3.789-7.012.127-.137.335-.241.432-.423-.063-.061-.147-.004-.216.011z"/></svg>