<svg xmlns="http://www.w3.org/2000/svg" width="100%" height="100%" viewBox="0 0 24 24"><path fill="currentColor" d="M15.839 2.855h.294c.115.318.203.647.245.985.414 3.991.839 7.985 1.253 11.976.072.448.075.966.396 1.32.377.288.786-.094 1.018-.384 2.057-2.781 4.163-5.529 6.231-8.304.219-.325.523-.575.874-.745-.018.409-.083.82-.248 1.197-1.232 2.994-2.422 6.007-3.649 9.003-.136.409-.35.85-.206 1.287.209.419.767.222 1.117.12 2.356-.946 4.708-1.909 7.061-2.865.563-.254 1.141-.486 1.76-.561v.283c-.376.462-.857.815-1.309 1.196-1.905 1.621-3.796 3.258-5.715 4.863-.312.277-.646.639-.582 1.092.113.379.52.54.862.654 2.257.524 4.493 1.145 6.744 1.701v.293c-2.732.601-5.436 1.34-8.194 1.817-.488.054-1.028.24-1.485-.029-.206-.321-.061-.711-.034-1.06.213-1.255.054-2.57-.492-3.721-.842-1.809-2.562-3.197-4.527-3.577-1.766-.363-3.678.066-5.104 1.173-1.88 1.386-2.893 3.881-2.425 6.181.048.353.177.786-.136 1.06-.296.131-.623.085-.934.043-2.711-.39-5.339-1.191-8.02-1.738-.208-.053-.414-.115-.62-.173v-.203c.246-.117.503-.213.77-.273 1.933-.42 3.822-1.026 5.758-1.439.412-.109.918-.262 1.063-.715.05-.451-.286-.81-.595-1.09-1.68-1.407-3.338-2.842-5.005-4.263-.655-.598-1.399-1.101-1.992-1.763v-.328c.334.074.675.133.994.262 2.473 1.034 4.968 2.014 7.444 3.042.451.176 1.391.585 1.512-.157.03-.623-.28-1.191-.499-1.757-.985-2.427-1.965-4.856-2.951-7.281-.281-.735-.694-1.448-.684-2.259.36.155.66.406.879.729 2.046 2.757 4.134 5.481 6.18 8.239.249.376.649.609 1.108.534.177-.444.313-.906.352-1.386.353-3.429.719-6.856 1.081-10.283.109-.902.118-1.825.408-2.697z"/></svg>