<svg xmlns="http://www.w3.org/2000/svg" width="21" height="32"><path fill="currentColor" d="M8.953 0c.345 0 .689.021 1.023.061l3.55.557c4.397.825 7.229 5.395 7.229 11.645v19.229c0 .28-.228.507-.508.507H3.814a.51.51 0 0 1-.404-.2L.225 27.633a.5.5 0 0 1-.104-.308V11.93c0-7.137 3.55-11.932 8.833-11.932zm3.077 1.295c-4.611 0-7.708 4.326-7.708 10.766v18.924h15.417V12.061c0-6.439-3.098-10.766-7.709-10.766m2.934 21.482a.507.507 0 1 1 0 1.014H9.319a.507.507 0 1 1 0-1.014zm1.599-4.465a.507.507 0 1 1 0 1.014H7.72a.507.507 0 1 1 0-1.014zm-1.859-5.582a.507.507 0 1 1 0 1.014H9.578a.507.507 0 1 1 0-1.014zm1.859-3.856a.507.507 0 1 1 0 1.014H7.72a.507.507 0 1 1 0-1.014z"/></svg>