<svg xmlns="http://www.w3.org/2000/svg" width="100%" height="100%" viewBox="0 0 24 24"><path fill="currentColor" d="M31.729 17.957q0 .9-.698 1.621c-.698.721-.998.72-1.598.72q-1.44 0-2.115-1.35l-2.115-.09q-.676 0-2.656.585-2.116.585-2.431.945-.494.54-.81 2.521-.27 1.62-.27 2.386 0 1.215.382 1.778c.382.563.78.69 1.575.945q1.192.383 1.463.428.18 0 .585-.045h.54q.583 0 1.215.18.9.27.766.721-.63-.09-2.205.27l1.26.63q0 .54-1.53.54-.406 0-1.104-.179-.698-.18-.922-.18h-.585q-.045.45-.27 1.35-.766-.046-1.8-.9c-1.034-.854-1.125-.855-1.305-.855q-.271 0-.766.855-.496.854-.495 1.17-.584-.316-.991-1.17-.18-.586-.404-1.17-.45.046-1.665 1.891h-.226q-.09-.136-.675-1.891-1.395-.45-2.611-.45-.585 0-1.8.27l-1.26-.089q.269-.27 1.575-1.035 1.53-.9 2.34-.901.133 0 .36.045.224.046.36.045.313 0 1.012-.338.698-.337.809-.607.114-.272.114-1.396 0-2.565-1.351-3.825-1.17-1.125-3.871-1.621-.72 2.566-4.05 2.566-1.082 0-2.16-1.305C.268 19.717.267 19.356.267 18.636q0-1.664 1.394-2.747Q.537 14.72.536 13.505q0-1.125.698-1.982.698-.854 1.823-.99-.09-1.44.945-1.98-.495-.494-.495-1.754 0-1.486.99-2.476c.99-.99 1.485-.991 2.475-.991q1.621.001 2.656 1.126Q10.934.002 15.253.002q2.25 0 3.961 1.801.63.675.63.719-.54 0 .54-.202c1.08-.202 1.244-.203 1.576-.203q1.754 0 3.105 1.305 1.17 1.17 1.621 2.97.314.045.99.269.99.496.99 1.711 0 .226-.36.855 2.88 1.62 2.88 4.501 0 .81-.63 2.251 1.17.674 1.17 1.98zm-18.543 1.98v-.585q0-1.035-1.012-1.89c-1.012-.855-1.358-.855-2.048-.855a4.85 4.85 0 0 0-2.341.584q2.386-.134 5.4 2.746zm-.809-5.58q-.675-.766-1.171-1.576-1.89.495-1.89 1.124.54-.044 1.575.203c1.035.247 1.186.248 1.486.248zm2.746-1.396v-1.98q-1.082-.18-1.305-.18v.675l1.305 1.486zm5.85-1.26a83 83 0 0 1-2.025-.9v3.87q2.114-1.216 2.025-2.97m2.474 5.311-.989-1.215q-.9.63-1.823 1.283c-.923.653-1.148.923-1.597 1.463a15.4 15.4 0 0 1 4.41-1.531z"/></svg>