<svg xmlns="http://www.w3.org/2000/svg" width="100%" height="100%" viewBox="0 0 24 24"><path fill="currentColor" d="m17.44 4.438.226.058c.527.137.301.08.679.175-.499.954-1.012 1.9-1.516 2.852-.053.106-.122.205-.161.318-.015.103.001.207.003.31l.183 4.293 2.332-3.833a.25.25 0 0 0 .037-.138c.009-1.201.014-2.402.025-3.604l.921.313.189 2.867q1.24-.709 2.48-1.416l.744.635-2.871 1.949c-.08.057-.171.102-.237.175-.077.12-.127.255-.194.381l-1.801 3.658c1.306-.768 2.61-1.54 3.917-2.308a.3.3 0 0 0 .113-.11l1.841-3.12c.206.233.407.471.611.707l-1.32 2.598q1.47-.002 2.941-.01c.13.302.242.611.372.913-1.209.098-2.42.176-3.63.269a.3.3 0 0 0-.134.055 704 704 0 0 1-3.651 2.56c1.465-.017 2.928-.084 4.392-.124.084-.004.174 0 .246-.05q1.545-.963 3.093-1.923l.195.987q-1.043.75-2.087 1.499c-.095.07-.198.129-.279.215.825.435 1.662.849 2.489 1.282-.004.333 0 .666-.002 1-.629-.254-1.245-.541-1.887-.762-1.11-.388-2.291-.685-3.475-.552-1.131.126-2.259.544-3.101 1.328-.659.607-1.092 1.434-1.276 2.305-.275 1.281-.114 2.627.317 3.855.344.964.91 1.863 1.701 2.523.724.612 1.62.999 2.547 1.18.847.169 1.717.177 2.575.102a10 10 0 0 1-.751.763c-.147.047-.31.021-.464.03-.874-.003-1.738-.189-2.564-.466-.205-.064-.405-.152-.621-.17a.53.53 0 0 0 .114.323c.201.258.47.451.736.636.446.299.913.568 1.406.783-.175.116-.35.234-.529.343a2.6 2.6 0 0 1-.692-.267c-.601-.328-1.106-.797-1.648-1.21-.129-.087-.273-.225-.441-.16.066.217.214.393.344.573.431.568.898 1.108 1.359 1.653q-.3.142-.606.27c-.232-.251-.393-.56-.645-.793-.091-.082-.209-.166-.338-.137-.181.045-.289.223-.33.394-.078.325-.036.662.01.988q-.597.165-1.207.274c-.359-.214-.531-.616-.838-.884-.1-.083-.297-.176-.375-.02-.197.331-.297.709-.411 1.075q-.239.008-.478.014h-.043q-.24-.006-.481-.014c-.105-.345-.206-.694-.374-1.015-.041-.061-.082-.157-.17-.145-.162.014-.286.134-.388.249-.219.256-.397.561-.692.74a13 13 0 0 1-1.206-.274c.046-.326.088-.662.011-.986-.04-.163-.137-.331-.304-.388-.128-.046-.254.032-.347.114-.262.235-.426.552-.663.809a14 14 0 0 1-.606-.27c.499-.593 1.011-1.177 1.469-1.803.085-.129.194-.253.221-.409-.082-.082-.196-.004-.276.041-.352.234-.663.524-1 .778-.45.341-.929.678-1.49.804-.181-.108-.356-.226-.531-.344a9 9 0 0 0 1.218-.659c.321-.211.646-.429.896-.725a.56.56 0 0 0 .141-.357 1.6 1.6 0 0 0-.385.091c-1.028.361-2.116.605-3.21.533-.051-.002-.085-.044-.121-.073a13 13 0 0 1-.683-.707c1.217.108 2.476.041 3.624-.404a5.2 5.2 0 0 0 2.317-1.744c.762-1.015 1.168-2.264 1.3-3.518.109-1.11-.029-2.277-.572-3.266-.439-.805-1.157-1.439-1.983-1.826a5.95 5.95 0 0 0-3.505-.485c-.778.124-1.533.361-2.268.64-.51.192-1.004.422-1.511.624-.002-.333.002-.667-.002-1 .833-.432 1.671-.856 2.505-1.285l-2.382-1.71.196-.988q1.55.961 3.097 1.926c.072.048.161.043.243.047 1.464.041 2.928.106 4.393.125-1.228-.851-2.448-1.712-3.67-2.571-.091-.063-.209-.048-.314-.06l-3.431-.25c.119-.305.244-.608.363-.914.982-.002 1.965.007 2.947.007l-1.32-2.598.611-.708 1.844 3.127c.051.088.15.127.233.178 1.265.743 2.527 1.492 3.792 2.233-.649-1.326-1.305-2.649-1.954-3.975a.3.3 0 0 0-.103-.121Q9.932 8.305 8.411 7.27c.249-.207.488-.428.744-.627.089.034.168.09.252.136l2.227 1.273.189-2.867.922-.313q.013 1.722.022 3.444c.005.099-.017.209.04.298q1.165 1.917 2.332 3.832.097-2.256.193-4.511c.012-.123-.071-.223-.122-.327l-1.563-2.931q.453-.119.908-.235.72 1.181 1.44 2.361l1.44-2.361zm-.084 24.765c.105.267.236.522.37.775.155.28.312.565.528.804.065.061.149.155.248.116.044-.073.043-.161.048-.242a3 3 0 0 0-.049-.575c-.035-.193-.188-.333-.326-.459-.235-.196-.501-.399-.818-.418zm-2.717-.005c-.299.029-.553.208-.778.392-.139.124-.291.255-.349.439-.046.194-.06.395-.062.594.004.092 0 .193.048.276.165.033.271-.149.366-.258.225-.305.403-.64.572-.978.072-.152.154-.302.202-.464zm1.364-.706c-.057.029-.085.091-.118.143-.134.239-.24.492-.331.75-.024.08-.061.164-.04.249.045.18.123.349.196.519.086.186.167.376.292.54.109-.145.185-.311.262-.474.088-.209.198-.416.232-.643-.048-.256-.164-.494-.269-.73-.065-.122-.115-.262-.222-.354zm1.9-.215c.014.105.011.223.065.317.37.224.75.433 1.116.664.028-.174-.094-.315-.205-.432a2.4 2.4 0 0 0-.713-.498.6.6 0 0 0-.263-.052zm-3.807 0c-.179-.01-.339.082-.487.169a2.4 2.4 0 0 0-.574.477c-.076.092-.149.209-.111.334.362-.236.744-.441 1.113-.665.044-.098.049-.209.06-.315zm-9.469-17.85q-1.894.409-3.79.812c.852.976 1.717 1.942 2.573 2.915-1.133.671-2.271 1.332-3.399 2.009 1.106.644 2.21 1.293 3.315 1.938-.292-2.554.139-5.194 1.278-7.502.023-.051.117-.142.024-.172zm22.743-.003-.051.045c.083.109.129.239.19.361 1.054 2.253 1.448 4.801 1.166 7.27 1.105-.645 2.208-1.294 3.315-1.938-1.129-.677-2.267-1.338-3.4-2.009q1.288-1.456 2.576-2.914c-1.265-.272-2.532-.537-3.795-.817zm-1.961-7.187-3.61 1.548a13 13 0 0 1 4.976 4.684c.18.302.367.603.511.925l.059.03q.024-.072.054-.141L28.98 6.77l-3.993.357zM6.59 3.236l.422 3.89-3.994-.356 1.593 3.54c.019.033.037.088.083.088.026-.029.04-.065.059-.098a13.03 13.03 0 0 1 5.446-5.515q-1.804-.775-3.61-1.548zM20.992.932q-.883.749-1.762 1.501c-.413.359-.839.704-1.245 1.071 1.314.217 2.594.641 3.773 1.26zm-9.983.001c-.26 1.276-.512 2.553-.767 3.83a12.5 12.5 0 0 1 3.774-1.26c-.123-.12-.259-.225-.388-.338-.874-.744-1.744-1.491-2.619-2.232M16 .141c-.646 1.116-1.285 2.236-1.927 3.354a12.5 12.5 0 0 1 3.854 0Q16.966 1.817 16 .14z"/></svg>