<svg xmlns="http://www.w3.org/2000/svg" width="100%" height="100%" viewBox="0 0 24 24"><path fill="currentColor" d="M15.972.348c.54 2.389 1.073 4.779 1.612 7.167q.235.035.469.077 2.122-2.884 4.242-5.767c-.317 2.32-.639 4.639-.956 6.959.205.113.404.237.603.361l5.749-3.377-3.204 5.665q.3.374.571.77l5.834-.826q-2.22 1.875-4.443 3.751c.118.389.21.784.288 1.183 1.722.496 3.442.999 5.164 1.495l-5.035 1.508c-.073.769-.227 1.53-.461 2.266a10.9 10.9 0 0 1-2.886 4.599q.686 1.682 1.371 3.366c-.905.825-1.979 1.449-3.11 1.911-.154.072-.325.11-.47.197h-.034c-.119-.698-.273-1.391-.405-2.087-.332-1.671-.667-3.342-.994-5.014l1.694-1.765c.055-.062.13-.115.15-.199q.543-2 1.084-4-2.326 1.18-4.65 2.363c-1.201-.55-2.401-1.105-3.602-1.657-.331-.148-.657-.31-.991-.451-.772-.013-1.545-.002-2.317-.005v-.507h3.842v-2.554h-6.22c.002 1.43-.005 2.861.003 4.291.151.229.333.438.495.659q1.434 1.873 2.867 3.747c-.5 2.384-1.008 4.766-1.51 7.149-1.28-.468-2.498-1.139-3.515-2.052.405-1.169.819-2.336 1.229-3.503a10.9 10.9 0 0 1-2.957-5.151 11 11 0 0 1-.269-1.561c-1.618-.508-3.237-1.011-4.855-1.518-.085-.027-.17-.058-.26-.068v-.009c.342-.107.689-.194 1.033-.292q2.105-.584 4.21-1.169.102-.551.26-1.089l-4.577-3.832c1.983.297 3.964.6 5.947.895q.285-.429.609-.829L4.353 5.743c1.928 1.133 3.854 2.27 5.782 3.402q.258-.164.522-.318l-.881-6.973q2.095 2.876 4.186 5.752.245-.047.492-.083c.506-2.391 1.006-4.782 1.513-7.172zM14.025 10.88v4.486h1.592l.001 2.703c.409-.002.818.006 1.227-.004q-.004-3.591-.001-7.183c-.939-.005-1.879-.001-2.818-.002zm-3.408 1.071v3.415h2.921v-3.415zm6.757 0v6.118q1.313 0 2.626.001.003-3.059.001-6.119zm3.107.753v5.364h2.366c-.001-1.789.003-3.577-.002-5.366q-1.182.001-2.364.001z"/></svg>