<svg xmlns="http://www.w3.org/2000/svg" width="100%" height="100%" viewBox="0 0 24 24"><path fill="currentColor" d="M9.71 13.094q3.157-5.467 6.318-10.931 3.139 5.448 6.276 10.897a9.9 9.9 0 0 0-2.478-1.501 9.9 9.9 0 0 0-6.597-.356 9.8 9.8 0 0 0-3.519 1.891m5.89-1.156q.087.655.178 1.308l.158.047-.011-1.34zm.501.077.038 1.185.259.017-.022-.231.309-.017a3 3 0 0 0-.031-.311q-.196-.056-.388-.119l.071-.193.243.027c.032-.124.063-.249.084-.375zm-2.277.237c.118.226.232.453.331.688.033.084.071.169.082.261-.013.137-.068.265-.104.397l.539-.116c-.051-.119-.147-.226-.141-.362-.006-.351-.017-.703-.024-1.053-.229.059-.456.124-.684.186zm.883-.182.397 1.219.391-.017c-.019-.245-.032-.492-.071-.735-.118-.042-.24-.076-.353-.13-.036-.063-.034-.144-.051-.214l.322-.034-.012-.112c-.208.001-.416.017-.623.024zm2.977.121-.022.297-.329.066c.074.143.166.287.174.451-.02.188-.088.367-.142.547l.374-.011.006-.143.352-.022-.014-.248c-.078-.046-.176-.078-.221-.162-.004-.087.07-.153.117-.219l.233-.016c.007-.055.017-.111.017-.167-.03-.054-.1-.062-.15-.087l.079-.198-.473-.088zm-4.5.265.177.328-.125.125-.197-.068-.078-.296-.249.099.322.676c.137-.035.274-.071.413-.096.036.199.061.407-.012.601.172-.023.353-.03.508-.117-.019-.154-.023-.313-.067-.463-.084-.18-.185-.351-.271-.53-.056-.133-.088-.275-.152-.405a5 5 0 0 0-.268.146zm5.013 1.296.612.292.006-.226.093-.07-.193-.151.017-.175.083-.046-.021-.149c-.069-.052-.219-.102-.181-.209.087-.091.215-.126.33-.167l.175-.29-.342-.011a.5.5 0 0 0-.121-.171c-.15.458-.305.915-.457 1.373zm-6.154-.908c-.068.045-.02.124.006.18q.302.588.616 1.169.218-.076.431-.164c-.209-.428-.385-.871-.605-1.293-.151.021-.317.021-.448.109zm7.248-.06c-.061.104.017.223.014.333-.081.092-.197.14-.3.201q.126.09.245.191c-.11.184-.196.381-.288.575q.091.073.186.142c.14-.252.29-.498.437-.746-.071-.057-.156-.108-.195-.195.054-.071.151-.078.231-.103a.53.53 0 0 0 .301-.204c-.118-.063-.245-.104-.37-.149-.084-.027-.172-.058-.261-.044zm-7.884.58c.045.156.095.312.136.469l-.111.153q.101.103.206.205.204-.174.407-.348c-.09-.235-.165-.477-.276-.704a9 9 0 0 0-.363.224zm8.566.243c-.073.005-.14-.038-.212-.047-.105.097-.163.233-.227.359.079.039.177.062.229.14-.076.114-.169.217-.232.341q.14.081.284.158c.262-.387.531-.769.781-1.164-.141-.075-.28-.153-.424-.221-.07.143-.107.304-.2.435zm.685.101c.076.083.159.163.218.261.015.026.043.083-.008.089-.109.034-.225.028-.337.03-.118.151-.24.301-.325.473.073.063.148.123.219.189a3 3 0 0 0-.17.11q.068.08.138.156l.295-.209c-.039-.082-.083-.163-.102-.252-.007-.038-.017-.097.03-.113.103-.052.22-.067.325-.115.125-.125.229-.269.345-.401l-.478-.346-.15.126zm-4.966.088.024 1.354c.205-.014.412-.025.614.025a.45.45 0 0 0 .152-.14c-.172-.089-.327-.205-.481-.32.032-.298.076-.595.085-.894zm.586.1-.005.712c.091.035.203.118.298.055.153-.197.155-.458.17-.696zm-4.512.361c.096.115.179.241.266.363q.227-.153.453-.307-.122-.191-.246-.382c-.159.107-.319.213-.473.326m3.074-.244-.39.122.077.311c.071-.006.15-.033.217.004.04.022.045.073.056.114q.069.379.132.759l.523-.087c.001-.097.009-.194-.003-.29-.072-.105-.209-.15-.273-.263-.023-.038-.004-.086.032-.108.074-.049.167-.05.252-.062l-.032-.376-.146-.038.003-.143c-.15.014-.304.012-.448.059zM17.036 14q-.138.548-.281 1.095.15.074.316.107l.066-.182c.082-.027.176-.043.237-.11.049-.068.075-.149.106-.225.041-.113.098-.227.086-.35-.005-.067-.036-.14-.103-.164-.142-.058-.287-.109-.428-.17zm-6.974.402c.149.164.296.331.448.492.098-.046.198-.112.31-.102.085.053.078.176.095.265-.079.08-.175.149-.232.246-.013.17-.006.34-.011.51l.638-.752c-.306-.313-.606-.631-.921-.935q-.165.135-.326.275zm10.619.768c.054.073.124.132.187.198l.984-.879q-.196-.176-.401-.341-.395.503-.77 1.022m-6.878-.797c.053.111.119.225.117.352-.02.114-.123.184-.204.254l.267.574.593-.158a2 2 0 0 1-.183-.289c.095-.083.203-.15.31-.218q-.175-.087-.349-.176l-.149-.418zm4.002-.031c-.116.246-.232.492-.336.743-.028.084-.084.17-.073.26.082.144.249.207.387.285.101-.223.156-.466.29-.675-.065-.028-.174-.035-.184-.122.045-.138.125-.261.191-.389l-.034-.153q-.12.022-.24.05zm.202 1.266.32.283.176-.245q.119.095.242.185.145-.13.291-.255c-.147-.144-.325-.275-.41-.467.025-.13.108-.238.17-.352l-.343-.223zm-8.502-.64.122.131c.089-.074.172-.166.286-.202.075 0 .073.106.096.159q-.118.106-.227.219.18.146.36.294c.121-.103.242-.207.354-.319q-.313-.299-.625-.6l-.366.319zm11.545.692q.124.126.247.253c-.014-.107-.063-.226-.012-.329.094-.026.179.073.276.064.06-.021.11-.063.16-.1.214-.169.421-.348.627-.526l-.287-.346zm-2.1-.836-.054.292q.103.121.207.241c.11-.114.221-.227.325-.347q-.203-.114-.403-.236zm-6.281.095c.142.204.289.406.396.631.058.114.019.244-.006.361q.088.102.18.203l.623-.474c-.111-.043-.229-.075-.325-.147-.035-.02-.029-.062-.02-.094.026-.089.081-.165.131-.241a5 5 0 0 0-.165-.215 3 3 0 0 1-.283.197c-.143-.088-.261-.209-.382-.324zm-.498.3c.063.104.163.206.154.335l-.015.018c-.136.031-.235-.102-.324-.184l-.228.22.847.974q.195-.166.388-.333l-.307-.354c.045-.094.143-.195.091-.305a2.8 2.8 0 0 0-.272-.542 3 3 0 0 0-.334.172zm-3.062.307 1.132.83.208-.238-.577-.53c-.088.019-.177.047-.267.032-.047-.006-.094-.042-.095-.092-.001-.072.041-.133.071-.196-.064-.037-.123-.089-.197-.107-.101.091-.184.201-.276.301zm9.775.758q.264.244.53.485l.298-.337q-.159-.169-.321-.334l.523-.747a6 6 0 0 0-.295-.15c-.256.353-.491.721-.735 1.083m3.362-.671a3 3 0 0 0-.164-.114c-.214.204-.42.416-.633.621.013.047.023.097.053.138.102-.022.199-.11.308-.071.024.096-.052.181-.09.263l.245.309.112-.112c-.049-.069-.119-.135-.123-.225q.032-.04.074-.07l.835-.629-.296-.419zm-2.653.481.321.331-.392.448.245.256.927-1.03a2 2 0 0 0-.2-.269c-.087.1-.15.233-.281.282-.051-.151.04-.297.093-.434l-.321-.217q-.197.316-.392.633m-10.769-.257.011.154c-.05.064-.11.125-.136.205.009.081.046.159.034.242s-.039.162-.063.242q.09.047.182.089c.03-.094.067-.21.172-.242.11.004.216.045.315.092.056.03.12.064.143.128.007.107-.036.209-.068.309l.203.139c.073-.089.131-.191.216-.269.052-.011.105-.012.158-.017.063-.122.146-.239.156-.381q-.493-.322-.984-.646c-.096-.077-.226-.036-.338-.045zm2.39.205c.067.07.154.134.179.233 0 .089-.026.175-.045.262q.212.207.423.416c.074-.074.143-.164.246-.2.043-.019.107.025.083.074-.03.102-.119.172-.19.247l.148.086.341-.443q-.393-.434-.782-.87-.201.097-.403.196zm11.679-.141c.005.106.022.211.024.317-.178.061-.374.063-.542.15-.017.147.03.293.055.436l-.382.328.132.241 1.23-.619-.04-.264c-.171.052-.338.126-.519.137.096-.154.279-.218.423-.317-.12-.142-.215-.316-.38-.41zm-7.77.191q-.03.138-.058.278c-.079.023-.174.098-.25.035-.078-.05-.143-.124-.233-.155-.109.008-.159.159-.108.246a1 1 0 0 0 .306.305c.072.042.112.118.156.186-.048.082-.105.163-.124.259.021.081.088.138.137.203q.206-.045.411-.093c0-.269-.008-.538-.003-.807.038-.127.145-.225.172-.357.005-.065-.018-.128-.034-.189q-.185.046-.37.089zm.606.745c-.044.015-.104.01-.137.042 0 .133.019.266.025.399q.232-.016.464-.034l.006-1.204-.294.006zm.85-.795-.009.244-.296.026.009.724.199.05-.042.255.452.087.235-.714-.252-.174.139-.322-.435-.174zm3.526.869.131.163.42-.409-.158-.256zm-9.526.041c.129.003.261.001.387.037.082.021.123.101.179.156.158.163.332.309.503.458q.115-.086.228-.176l-.949-.932q-.173.23-.348.457m7.369-.082c-.096.123.007.277.033.408-.116.157-.241.313-.318.493-.017.044-.049.13.024.14.108.029.2-.054.28-.115.1-.013.221-.007.295-.089.059-.086.018-.194-.006-.284q.218-.225.444-.439c-.169-.129-.356-.231-.537-.342-.075.073-.153.143-.215.228m-4.934.35c.104.124.198.257.307.376.09.026.194.003.277.056.006.054-.009.12-.055.154-.07.027-.146-.001-.205-.04-.165-.106-.309-.242-.457-.37q-.092.065-.183.132.514.432 1.027.867.142-.14.281-.283c-.063-.108-.149-.216-.145-.348.121.03.215.114.308.192l.122-.082a4 4 0 0 0-.472-.707.7.7 0 0 1-.327.057c-.008-.103.042-.195.09-.282l-.122-.133zm9.275.342q.036.19.088.376.15-.039.295-.094l.118.232q.16-.03.316-.076c-.054-.152-.115-.307-.111-.471.151.057.246.196.355.308.105.011.21.016.316.007-.017-.106-.038-.212-.055-.319l.151-.051c-.087-.166-.172-.333-.271-.493q-.6.291-1.202.581m-13.682-.433c-.123-.006-.244-.027-.367-.041l-.055.213q.34.183.681.367-.001.177.02.352l.351.017.038-.191h.317c.018-.089.101-.2.021-.28-.027-.03-.053-.068-.095-.076-.11-.022-.222-.031-.332-.048l-.004-.247-.294-.157c-.09.038-.179.097-.28.091zm10.132.106-.063.276c-.013.046-.019.101-.064.129l-.674.509q.196.23.391.461c.099-.046.196-.098.276-.174l-.197-.244.662-.688zm-8.302.075c.156.117.32.223.476.341.162.149.293.329.434.498.103-.093.208-.183.308-.28-.221-.198-.434-.407-.657-.603-.182.055-.374.032-.56.044zm9.941.735.108.267c.177-.048.355-.093.529-.149.155-.05.248-.195.372-.291.106-.06.225-.093.337-.143l-.3-.305-1.047.621zm-12.183-.296-.027.122c-.069.031-.154.052-.193.123-.019.106-.017.215-.034.321.336.138.674.27 1.009.411.063-.029.112-.076.163-.121.066-.032.144-.024.216-.033.002-.074.013-.15-.005-.222-.059-.087-.174-.118-.275-.106a.6.6 0 0 1-.413-.116c-.076-.087.063-.202-.005-.294-.067-.094-.178-.14-.274-.198l-.16.114zm10.544.496.122.191c-.142.123-.286.243-.426.368l.131.146.489-.361c.003-.076-.006-.177.074-.217.083-.039.15.049.207.095l.273-.196-.374-.505zm-6.464-.114q.162.138.323.278c.049-.052.092-.12.165-.138.057-.011.105.033.149.062.196.15.382.312.568.474a3 3 0 0 0 .17-.205c-.371-.262-.726-.544-1.087-.818zm9.016.194c-.227.078-.468.108-.704.149.032.194.071.386.107.579.124-.04.256-.059.376-.11.124-.125.213-.299.385-.366q.247-.095.494-.194l-.245-.435c-.133.129-.249.284-.412.378zm2.202-.097c-.095.025-.189.054-.284.078-.089.03-.153-.061-.236-.071-.053.012-.092.054-.141.076-.079.011-.158.002-.236.001l-.02.183.253.03c.056.078.103.174.194.217.084.033.175.001.256-.028.254-.1.52.036.781.012-.047-.114-.158-.184-.208-.296-.022-.045-.008-.108.038-.132.04-.014.084-.012.127-.016-.025-.094-.04-.195-.091-.279-.034-.051-.104-.039-.155-.033-.15.006-.152.209-.278.259zm-13.567.303q.046.1.106.194l.313-.053q.06-.104.095-.219c-.173.013-.344.048-.514.078m2.148.139q.373.19.745.377c-.046.106-.104.21-.118.327.023.047.079.055.125.066.11.017.222.022.333.035.032-.133-.063-.249-.074-.377.016-.081.082-.138.132-.199a.74.74 0 0 0-.242-.298c-.097-.044-.149.083-.195.146q-.29-.145-.58-.291-.065.107-.127.215zm6.525.507.139.339c.171-.119.342-.238.524-.341.053-.029.107-.06.167-.068.094.02.155.099.219.165l.301-.112-.322-.705-1.027.723zm-10.596-.545q.013.147.015.295-.157 0-.314-.004l-.013.214.706.084-.081-.216.288-.014-.007.109.29.019c.012-.061.028-.121.031-.182a23 23 0 0 0-.835-.355zm2.291.31c-.157.006-.314-.012-.471-.022-.072.186-.149.37-.206.562l.287.166c.041-.111.068-.237.165-.315.05.101.067.212.087.321l.202.006v-.18l.266.038q-.008.118-.014.236.183.044.364.091l.027-.191a10 10 0 0 0-.276-.095q.005-.184.015-.368l.413-.022-.011-.307c-.128-.066-.253-.158-.4-.172-.168.048-.272.224-.449.253zm10.971.137c-.09.086-.2.148-.296.227.375-.082.747-.172 1.121-.258l-.051-.207-.229.064c-.053-.089-.124-.217-.248-.19-.164.05-.227.225-.297.363zm-9.274-.202c-.039.081-.093.157-.116.245a.8.8 0 0 0 .078.226c.024.056.086.079.123.125.024.064.031.133.045.2q.455.113.912.222l-.011-.157c-.184-.082-.381-.128-.573-.187l-.063-.507q-.197-.084-.395-.167M.032 29.837h12.773a9.9 9.9 0 0 1-4.058-2.686 9.76 9.76 0 0 1-2.39-8.255zm25.533-6.926a9.823 9.823 0 0 1-5.767 6.714c-.168.077-.349.122-.511.212h12.68v-.014c-.27-.44-.518-.895-.779-1.341l-5.475-9.506a9.9 9.9 0 0 1-.148 3.934zm-4.68-3.318-.001.275c.093-.029.187-.072.287-.066.104.016.196.07.289.115.065-.124.163-.272.322-.264.194-.01.328.16.515.177-.058-.157-.108-.318-.177-.47-.013-.056-.081-.017-.116-.017q-.56.123-1.119.249zm3.008-.141-.001.096-.396.018c-.009.072-.009.147-.029.217-.043.072-.152.124-.227.069-.069-.053-.107-.135-.15-.209l-.159.037.004.365c.206.001.413.007.62.008.076.008.114-.086.189-.084.154-.011.308-.015.462-.025l-.051-.47-.264-.022zm-12.176.277.007.298c.057.029.137.037.165.104.031.063.069.131.059.204-.062.095-.169.143-.261.203l.45.279.095-.267.849.006a4 4 0 0 0-.022-.458zm-2.111.208-.044.316.48-.049v-.289zm.653.316.428.049a4 4 0 0 0-.029-.23.7.7 0 0 0-.225-.157c-.082.099-.13.218-.174.338m9.078-.199-.036.158.381.036.029.186-.763.166.035.151 1.129-.029c.014-.088.037-.176.039-.265-.021-.153-.061-.302-.088-.454l-.727.05zm2.573.014.011.207-.201-.005-.057-.123q-.185.004-.371.014c-.036.054-.069.112-.115.159-.043.035-.1.046-.146.076-.064.048-.088.164-.013.214.101.073.233.06.351.069.279.009.557.04.835.026-.009-.109-.096-.198-.092-.307.043-.116.178-.151.28-.198q.004-.107.004-.213zm-13.385.072-.863-.025.004.425.655.06.005.111.629.009-.028-.178c-.061-.043-.129-.08-.171-.143.004-.078.089-.116.14-.165l.009-.174h-.361zm15.23.027.008.056q-.42.014-.84.031l-.015.376c.078.052.161.112.259.107.056-.004.091-.052.127-.089.245-.027.49-.044.735-.066l.028-.191.155-.051q.014-.102.032-.204zm-13.99.353a.44.44 0 0 0-.223.069c.055.108.141.194.218.286-.052.097-.127.18-.171.281-.009.042-.003.106.037.13.149.009.298-.001.447-.003-.009-.069-.038-.169.039-.21.098-.037.17.053.208.13l.213.004.016-.37.393-.06-.086-.223c-.072-.034-.143-.084-.227-.074zm-2.108.272q-.006.196-.005.394c.173.045.341.106.51.163q.015.19.027.38l.238-.007-.021-.35.6.034-.004-.379-.821-.09.021-.14q-.272-.003-.545-.005m4.045.315c.075.071.161.149.173.258.01.125-.046.242-.091.355q.207-.01.416-.02.08-.222.157-.443c.223-.032.447-.056.67-.085l.019-.381c-.178.012-.359-.008-.534.027-.271.094-.54.194-.811.289zm11.654-.288-.005.155-.374-.022-.027.177.305.009.041.232-.209.032.004.206c.164.048.334.088.506.064l-.014-.384c.101-.002.203-.014.304-.003.125.032.243.091.369.124a5 5 0 0 0-.001-.59c-.071-.027-.156-.019-.233-.017-.067.057-.089.148-.125.225l-.132.02.018-.233-.428.005zm-2.046.105.074.189c.27.011.54.003.81.016.07.024.12.086.179.129q.011-.15.007-.301zm-2.46.09c.057.185.239.35.442.322.173-.01.346-.016.519-.027a4 4 0 0 0-.042-.342q-.46.021-.919.047m-8.229.349c-.102.086-.172.215-.298.269-.197-.014-.381-.126-.583-.102-.043.001-.095.032-.078.082.037.121.172.172.229.28.012.113-.123.19-.11.305.075.091.212.081.318.071.148-.063.285-.152.429-.225a3 3 0 0 1-.038-.168c.171-.032.338-.081.511-.103-.007-.164-.012-.329-.037-.492-.115.027-.233.041-.344.082zm1.887.032c-.024.122-.037.271-.152.345-.153.105-.321.187-.486.272q.028.095.057.191l.646-.26a.2.2 0 0 1 .089-.173c.153-.1.337-.132.511-.178l-.068-.196q-.299-.003-.597-.001m8.914.009c-.024.039-.032.101-.084.113-.149-.007-.293-.055-.438-.086l-.021.234c.211.092.436.165.616.314-.004.091.017.187-.017.274-.067.038-.153.019-.226.028-.03-.092-.038-.191-.073-.281-.053-.065-.138-.169-.23-.112-.117.096-.147.257-.243.371.256.113.515.217.771.329.162.063.317.167.499.147-.017-.087-.114-.104-.178-.145-.012-.195-.016-.391-.024-.586l.12-.082c-.009-.083-.022-.166-.024-.249.03-.022.07-.029.104-.043l-.058-.252q-.247.013-.493.027zm-2.657.045-.08.39.866.436v.303l.269.017.234-.789c-.122.035-.247.086-.376.071-.1-.033-.099-.159-.107-.246q.072-.076.14-.154l-.223-.022c-.035.083-.075.184-.172.21-.13.032-.259-.026-.373-.083l-.081-.186zm3.385-.004c-.089.248-.133.509-.191.765l.108.056.231-.762-.148-.058zm-14.463.161q.05.444.098.888l.302.09-.012-.23 1.124-.085c-.036-.161-.075-.321-.108-.482q-.12-.027-.241-.05l-.013.191q-.39.003-.779.005l-.021-.357q-.175.013-.35.031zm15.948.229c-.15.012-.291-.058-.438-.074-.137-.015-.288-.057-.417.012.047.128.176.195.237.312-.015.061-.082.119-.062.183.076.078.195.055.293.049.237-.029.477.021.695.113.086-.004.162-.052.24-.085-.045-.06-.097-.115-.133-.18-.035-.082-.037-.174-.048-.262l.185-.019a6 6 0 0 0 .029-.231l-.405-.033c-.048.078-.087.174-.176.213zm-11.517.687.267.533.29-.189c-.061-.077-.148-.15-.153-.255.056-.061.127-.107.193-.156q.323-.23.65-.457a2 2 0 0 0-.139-.234c-.383.233-.74.503-1.108.758m-1.353-.328a2 2 0 0 1-.235.18c-.112.036-.234.013-.347.044-.1.048-.187.117-.282.173l.223.561.179.007c-.023-.112-.099-.245-.03-.351.119.003.176.128.242.208l.23-.021c-.012-.123-.086-.305.056-.376l.388-.251c-.079-.132-.155-.267-.258-.383-.063.063-.106.142-.164.209zm7.901.155c-.093.004-.191-.009-.278.03-.069.061-.099.155-.146.233l.505.494.269-.155.379.304.229-.476-.337-.097.056-.248c-.184-.103-.366-.211-.554-.307q-.06.112-.123.223zm-5.692.147q.075.143.137.291-.303.297-.604.593l.286.273q.295-.333.591-.665c.115 0 .239.012.344-.046.039-.018.071-.075.029-.108-.088-.089-.218-.112-.32-.18-.045-.047-.023-.12-.026-.178.001-.059.017-.163-.069-.163a.47.47 0 0 0-.367.184zm7.786.212c-.066.037-.139.06-.208.09-.03.039-.027.093-.038.139.108.095.199.208.313.296.151.068.312.114.471.161.138.044.274-.035.392-.097.093-.047.169-.161.121-.266-.05-.075-.128-.125-.187-.191-.094.05-.182.113-.283.146a.57.57 0 0 1-.278-.285c-.049-.092-.141-.178-.25-.18-.068.037-.044.125-.052.187zm2.27-.032c-.082-.005-.126-.079-.167-.14l-.252.014c.011.079.003.167.044.24.059.05.14.06.207.097.048.063.079.135.119.203.124-.024.25-.06.378-.043.177.025.35.079.529.091.039.001.119.01.098-.055-.045-.12-.156-.201-.188-.328-.035-.086-.078-.21-.186-.218-.189.057-.374.18-.58.139zm-14.203-.033c-.161.03-.324.002-.485-.006-.04.078-.074.174-.158.215-.094.04-.2.025-.3.025l.077.216c.027.115.165.129.25.186l.054.211q.178-.07.354-.145a5 5 0 0 1-.123-.323q.23.016.457.037l-.038.121.495-.149-.059-.485q-.262.052-.524.097m2.159.063q.027.16.037.324c-.258.157-.534.282-.808.411.07.163.156.319.241.475q.212-.084.419-.178a7 7 0 0 1-.153-.219c.079-.033.154-.076.236-.1.065-.006.13.01.194.02l.066.209.398-.397c-.045-.09-.079-.188-.142-.268-.07-.079-.153-.144-.234-.211-.069-.063-.171-.049-.256-.066zm6.992.125q-.225.275-.451.55l.241.275.144-.092a.66.66 0 0 1 .248.314l-.22.225.287.304q.178-.132.355-.265-.342-.39-.682-.784l.149-.149c.252.253.5.51.753.762l.378-.471c-.083-.084-.157-.194-.274-.23-.098.032-.151.132-.245.17-.145-.099-.143-.326-.297-.423-.061-.035-.134-.029-.201-.031q-.092-.077-.183-.155zm-4.413.452q-.336.265-.652.554.129.123.249.255l.58-.581c.056-.058.128-.096.198-.136a.7.7 0 0 0 .139.159q.073-.125.132-.256-.123-.154-.244-.309c-.101.143-.27.204-.401.313zm8.801-.181c.08.157.23.257.366.361s.297.175.417.301c.082.077.157.17.267.209.091.028.215.019.267-.073.073-.128.134-.284.07-.429-.031-.063-.025-.178-.117-.179-.183-.019-.364.045-.547.028-.205-.053-.376-.195-.585-.235-.047-.011-.092.005-.136.017zm-1.966.062c-.13.143-.265.282-.392.428.184.17.362.346.553.51a1.4 1.4 0 0 1-.198.214c.171.14.335.291.523.408.05.044.104-.011.136-.049.103-.13.177-.28.252-.427-.154-.14-.339-.238-.517-.342-.071-.037-.063-.132-.09-.196q.199.078.398.157l.109-.223zm-12.228.553q.03.122.067.243.254-.05.506-.103c.084.06.173.116.272.149.08-.084.141-.183.214-.273.128-.069.271-.105.405-.162-.059-.122-.118-.244-.193-.357q-.636.253-1.272.502zm2.437.423c.072.154.141.31.236.451.158-.063.301-.155.446-.243l-.087-.175.698-.42a6 6 0 0 0-.203-.247c-.373.194-.726.424-1.09.634m6.203-.429q.095.438.191.876l-.217.212q.05.109.105.216.278-.094.557-.185c-.119-.4-.225-.804-.365-1.197l-.27.078zm-1.944.265c-.063.038-.14.053-.193.108a1.3 1.3 0 0 0-.264.403c-.027.065-.061.131-.059.203.029.09.112.145.179.205.048-.137.111-.274.23-.363.084-.083.211-.127.258-.241q.123-.268.247-.536l-.215-.037c-.057.089-.106.185-.183.259zm1.575-.17q.022.201.025.404a6 6 0 0 0-.426-.035l.013.287.4.044-.044.241-.458.006.032.286.713.038-.051-1.285-.203.013zm-.857.094c-.107.247-.197.504-.335.737-.123.038-.255.062-.365.132-.05.058-.103.139-.078.218.069.079.184.085.28.112.023-.07.032-.2.134-.19.136.046.234.16.339.253.064-.024.138-.033.19-.081.027-.414.048-.829.075-1.243l-.239.061zm-6.173.143c.039.111.082.222.096.34-.037.099-.185.121-.255.046-.047-.05-.057-.12-.076-.183q-.08-.02-.159-.038c-.043.042-.08.096-.137.12-.078.003-.092-.092-.122-.143q-.169.056-.336.119c.077.076.165.14.24.218.047.065.073.142.107.214l-.168.089.22.36.334-.136.275.103.196-.167q.004-.153.012-.304c.159-.066.314-.14.461-.231l-.164-.206-.152-.003q-.09-.16-.182-.319a.7.7 0 0 0-.19.122zm2.491.002c-.08.011-.168.004-.239.051-.117.11-.152.281-.274.386q-.196.174-.389.35.209.204.417.408.091-.095.185-.187c-.033-.055-.075-.107-.09-.171a.07.07 0 0 1 .055-.083c.076.012.121.082.172.133a4 4 0 0 1 .245-.216c-.031-.077-.114-.184-.033-.256.102-.047.205.039.3.073q.063-.131.119-.266l-.284-.291c-.059.026-.117.062-.183.068zm7.618.204c.111.082.222.165.324.258q-.143.104-.285.21c.099.076.19.165.297.231.077.022.157.029.236.043a1.4 1.4 0 0 0-.181.217q.17.146.34.289c.038-.066.067-.141.119-.198.112-.078.236-.139.35-.216-.221-.19-.427-.396-.64-.593.02-.075-.003-.193.093-.216.067-.021.148-.082.106-.161-.125-.109-.307-.104-.463-.123q-.152.125-.296.259m2.187.382.704.54c.107-.041.216-.092.334-.085.093.02.159.106.255.117.079-.025.12-.129.069-.198-.104-.163-.313-.197-.444-.329-.055-.053-.032-.153-.09-.198-.12.017-.236.111-.36.067-.037-.044-.02-.107-.029-.159a.195.195 0 0 0-.141-.193c-.184.067-.219.284-.298.439zm-2.841.224.779 1.09.42-.24c-.076-.137-.148-.277-.244-.4l-.177.168a3 3 0 0 1-.185-.269l.207-.192-.322-.289q.139-.093.273-.192c-.021-.037-.028-.084-.062-.111-.056-.027-.121-.02-.181-.024-.168.154-.341.305-.51.458zm-6.613-.137.307.285a2 2 0 0 1-.113.215c-.077-.019-.161-.026-.229-.068-.068-.073-.123-.156-.19-.23-.174.155-.33.329-.494.494q.132.141.267.279l.43-.338.164.174-.294.327.202.163q.371-.483.741-.966c-.175-.188-.343-.384-.53-.56q-.134.105-.26.223zm-2.149-.038c-.092.169-.162.357-.295.501-.122.093-.233.208-.377.269-.098.029-.138-.094-.216-.128a.6.6 0 0 0-.217.125c-.04.03.005.068.026.093.107.113.211.231.329.334.23-.09.4-.27.593-.415q.02.074.036.149c.199-.044.324-.216.469-.344.047-.046.114-.087.119-.16.013-.048-.022-.082-.047-.117-.099.071-.19.163-.312.192-.072.017-.109-.074-.097-.132.061-.028.141-.02.187-.075a.4.4 0 0 0 .036-.177c-.055-.072-.155-.082-.233-.117zm11.15.536c.115.131.224.268.335.403a3 3 0 0 0 .286-.08c.19.142.374.292.561.438q.227-.258.452-.518c-.116-.031-.235-.046-.354-.063-.122-.05-.211-.162-.341-.198-.126-.004-.256.095-.377.032-.112-.123-.14-.298-.207-.447a5 5 0 0 0-.356.432zm-3.271.271.375.505a.9.9 0 0 0-.193.217c.118.124.24.245.355.373l.174-.05c-.032-.049-.081-.094-.084-.156-.004-.065.065-.116.127-.102.076.011.134.065.193.11l.051-.11-.183-.388c.047-.089.119-.177.118-.283-.063-.082-.167-.107-.253-.155-.022-.037-.021-.082-.025-.123-.015-.096.112-.156.052-.253-.24.13-.471.276-.704.416zm-4.699-.36c-.086.191-.157.392-.267.571-.133.057-.296.067-.4.179-.061.108-.024.24-.012.357.166-.023.334-.035.499-.064l.398-.934zm-3.048.642c-.103.067-.242-.044-.335.046-.078.073-.156.148-.257.19-.052.029-.152.063-.117.141.089.166.235.292.364.427l.136-.047c-.086-.07-.192-.128-.24-.232.009-.094.132-.133.206-.089.092.051.177.124.288.128-.022-.104-.081-.196-.092-.303a.5.5 0 0 1 .27.07c.039.017.114.045.118-.022-.004-.109-.015-.218-.002-.328q.14-.1.278-.202a.5.5 0 0 0-.172-.198c-.133.155-.268.316-.447.42zm2.923.69c.126.081.241.181.378.244.106-.009.195-.098.248-.187a.9.9 0 0 0-.261-.187q.143-.447.283-.896l-.147-.076q-.252.55-.501 1.102m7.992-1.083q-.078.134-.159.266c.127.15.251.303.396.436a.7.7 0 0 1-.11.189c.175.149.346.317.561.409.061.038.133-.038.097-.097-.052-.099-.138-.175-.187-.275.078-.02.15-.057.224-.09.081.026.119.111.172.171a1 1 0 0 0 .174-.144c-.146-.167-.332-.291-.516-.412-.231-.13-.438-.297-.651-.454zm-3.739.257c.075.408.156.815.234 1.223l.685-.174c-.121-.132-.264-.253-.342-.416-.011-.116.065-.221.11-.324-.057-.055-.11-.124-.192-.142-.121-.021-.197-.123-.274-.207l-.22.041zm-3.178.197c-.134.063-.292.104-.389.224-.011.136.097.247.131.373-.004.081-.024.161-.038.241-.042.036-.104.062-.112.124a.11.11 0 0 0 .092.062c.108.015.217.003.325.001l.163-.849.181-.118-.002-.155-.296-.098c-.016.065-.013.141-.056.195zm4.779-.043.26.457a3 3 0 0 0 .189-.146c-.07-.128-.127-.263-.19-.394q-.129.043-.259.083m-4.044.07-.077.316q-.11.019-.218.039-.084.167-.171.332c-.089.14-.047.313-.063.469.166.047.328.119.5.137a1 1 0 0 0 .102-.252c.002-.105-.123-.154-.146-.249.019-.116.128-.187.213-.256-.001-.181-.018-.361-.032-.541l-.109.005zm1.547.017.006.52c.081.053.184.102.207.205.003.114-.082.202-.147.287q.004.138.012.275c.293-.063.587-.119.879-.182l.012-.231c-.135-.003-.279.006-.402-.06q.015-.093.034-.186l.244-.078-.026-.239c-.117-.017-.241-.004-.354-.038-.023-.097-.009-.205-.043-.297-.141 0-.281.017-.422.024m-.436.022q-.022.393-.042.787a1 1 0 0 0 .033.287q.138.008.277.015c-.022-.359-.012-.719-.012-1.078zm4.699.168c-.102.002-.197-.05-.298-.051-.06.042-.115.12-.078.195.055.126.127.243.197.361.082.111.191.197.285.298.122-.022.276-.093.379.011.01.093-.068.181-.077.277.163-.027.346-.059.458-.193-.194-.256-.464-.445-.647-.709a.63.63 0 0 0 .116-.318c-.128-.01-.22.093-.334.13zm-9.612.339c.048.07.116.135.133.221a.6.6 0 0 1-.087.215c-.095-.044-.176-.156-.287-.136-.012.153.184.219.203.366.005.056-.002.113-.006.17q-.201-.093-.4-.19-.055.118-.089.244c.188.13.348.317.572.382.182-.184.321-.405.481-.608-.064-.071-.169-.139-.159-.245.042-.077.092-.15.123-.232a1 1 0 0 1-.122-.15 5 5 0 0 0 .058-.228l-.139-.109-.277.302zm.842.103c-.031.179-.057.36-.114.533-.118.191-.257.369-.382.557.085.097.186.18.26.286.024.091.031.186.047.28l.259-.03-.03-.318.258-.01c-.082-.114-.176-.22-.252-.338-.027-.038-.02-.085.007-.12q.102-.154.175-.326c.045-.109.139-.19.167-.307-.139-.058-.244-.187-.397-.209zm8.182.366c-.029.086-.089.156-.137.232.119.158.241.314.376.458.054.055.11.114.187.136.075-.12-.053-.249-.104-.356l.215-.01q.092.113.188.225.096-.119.19-.241c-.109-.155-.288-.237-.459-.303-.173-.146-.261-.367-.423-.524-.041.125-.018.256-.033.384zm-.362-.289c-.257.143-.508.297-.763.445q.045.11.097.215c.103.008.22-.005.309.058.051.177-.192.324-.091.503.066.133.223-.079.3.034.07.089.087.223.192.281.142.041.273-.055.367-.152.035-.033.064-.113-.003-.127-.114-.032-.236-.03-.348-.073.058-.056.169-.101.14-.201-.032-.15-.134-.273-.192-.413-.019-.049-.052-.108-.016-.157.054-.081.142-.129.218-.186-.017-.089-.035-.189-.111-.247-.033-.027-.069.006-.1.019zm-7.004.395c-.018.127-.17.116-.267.13-.083.006-.218.015-.217.128.016.13.168.17.235.27-.066.111-.068.242-.1.364-.044.154-.246.187-.294.335a.46.46 0 0 0 .182.202c.174-.084.199-.295.285-.448.064-.105.078-.231.135-.338.098-.006.171.162.264.077.09-.078.183-.156.246-.257.053-.091-.022-.186-.069-.262-.037-.066-.118-.068-.18-.094-.032-.034-.056-.074-.088-.108-.04-.028-.09-.004-.134 0zm5.175.453c-.01.231.03.461.05.691a.72.72 0 0 1-.121.52c-.068.09-.192.059-.288.066.023.101.073.223.182.251.093-.002.183-.025.275-.035.065-.012.143-.013.193-.064.023-.128-.022-.262.02-.387.022-.071.113-.073.172-.052.078.045.099.146.169.2.083.048.183.035.275.031.005-.075.015-.15.011-.225a.49.49 0 0 0-.214-.324c-.153-.202-.159-.482-.311-.684a2 2 0 0 0-.314-.078c-.056-.012-.101.036-.099.09m-4.401-.042c-.117.107-.134.279-.235.398a.45.45 0 0 1-.201.155c-.082.014-.166.006-.248.007-.061.188-.191.355-.197.558-.007.055.047.086.095.089.061.006.13.025.188-.003.066-.091.021-.221.081-.314.056-.023.118-.026.177-.036.028.117-.017.229-.066.333l.147.156c.136-.027.277-.031.413-.062.082-.048.065-.165.087-.245.024-.081-.033-.15-.076-.211q-.003-.134-.002-.266l.277-.119c-.089-.131-.113-.288-.129-.442-.104-.002-.211-.023-.313.003zm.795.184c-.118.04-.156.172-.185.28-.042.142.012.303-.066.434a.55.55 0 0 0-.17.221c-.072.128-.028.28-.089.412.144.018.281-.034.423-.04.137.002.194.175.329.18.101-.081.091-.23.111-.346-.111-.103-.248-.199-.298-.347-.003-.143.123-.236.211-.331.089-.087.086-.23.04-.337-.052-.034-.111-.053-.163-.086-.045-.022-.09-.07-.143-.04m3.073-.002.01.407-.326-.02q.013-.13.015-.26c-.1.006-.284-.023-.296.118.043.189.185.355.167.558-.022.19-.134.352-.209.523-.01.077-.023.188.05.238.134-.014.266-.044.4-.058-.043-.126-.119-.291-.018-.407.151-.105.351-.084.514-.162.012-.303-.03-.607-.04-.911zm-2.185.233-.01.473c-.127.042-.255.077-.383.117.047.111.163.206.134.338-.018.137-.06.27-.098.403l.177.01c.015-.095.028-.191.054-.283.035-.175.242-.199.38-.26l-.05-.803-.203.005zm1.128-.001c-.04.446-.13.895-.09 1.344q.167-.003.332-.015l-.005-.475a.66.66 0 0 0 .27-.146.8.8 0 0 0-.26-.23l.019-.451a5 5 0 0 0-.267-.026zm-.679.151c.006.25.015.503-.022.751-.009.046-.017.096-.047.133-.063.025-.13.034-.194.057-.115.027-.116.167-.151.257.087.011.175.011.262.023.104.015.201.056.304.075.034.002.089.02.104-.025.012-.189-.012-.38.013-.569l.156-.051c.003-.147.009-.297-.03-.441a.4.4 0 0 1-.153-.096c.045-.062.095-.124.097-.204-.089-.002-.178-.013-.266.004-.04.006-.079.041-.073.084z"/></svg>