<svg xmlns="http://www.w3.org/2000/svg" width="100%" height="100%" viewBox="0 0 24 24"><path fill="currentColor" d="M15.208 1.75h.036c.034.08.068.162.119.233.179.213.418.358.637.526.215-.167.457-.308.631-.521a.55.55 0 0 0 .117-.238h.035c.216.11.35.363.605.392.64.078 1.286.08 1.929.112.244.118.338.404.554.56q.053.331.127.658c.255 1.133.538 2.262.71 3.412.088.532.146 1.071.274 1.595.045.215.217.365.342.534-.214.441-.476.857-.715 1.285-.252.452-.525.896-.725 1.375-.25-.945-.844-1.77-1.562-2.419-.202-.176-.409-.354-.652-.47a1 1 0 0 0-.115.195 4.7 4.7 0 0 0-.236.737c-.082.359-.142.738-.042 1.101.267 1.143.634 2.262.843 3.419.092.529.173 1.07.11 1.607-.006.14-.116.238-.198.341-.338.393-.684.793-.893 1.273-.14.311-.199.665-.119 1.001-.269-.144-.491-.388-.564-.69-.111-.449.018-.913.17-1.336.055-.17.158-.332.14-.517a2 2 0 0 0-.292-.879c-.098-.154-.216-.315-.395-.377-.147-.047-.287.053-.384.155-.201.221-.326.501-.407.786-.046.186-.088.391-.011.575.064.165.129.331.181.501.115.378.192.796.06 1.181-.088.264-.296.47-.536.602.072-.309.03-.636-.089-.927-.207-.521-.582-.949-.943-1.369-.073-.091-.168-.18-.176-.303-.062-.485.001-.975.078-1.455.202-1.212.589-2.382.87-3.576.122-.447.017-.912-.101-1.348-.074-.239-.141-.487-.285-.695-.245.108-.447.289-.648.461-.723.65-1.319 1.477-1.572 2.425a5 5 0 0 0-.23-.485c-.245-.462-.51-.913-.769-1.367-.15-.268-.312-.529-.44-.808.125-.169.297-.319.342-.534.109-.441.164-.893.235-1.342.142-.995.36-1.978.587-2.957.101-.453.219-.904.288-1.364.19-.143.289-.372.476-.518.087-.076.208-.048.313-.056.513-.017 1.027-.034 1.538-.082.119-.014.249-.015.351-.089.142-.097.256-.23.403-.322zm-4.557.472c-.897.249-1.729.681-2.533 1.144-.458.268-.918.535-1.342.855-.754.566-1.431 1.223-2.128 1.856a4 4 0 0 1-.641.501c-.324.209-.691.342-1.013.554a.85.85 0 0 0-.377.616c.328-.099.65.097.876.319.101.104.206.213.255.352-.017.216-.07.428-.115.639-.235.998-.539 1.978-.86 2.952a43 43 0 0 1-1.157 3.095c-.257.605-.619 1.155-.969 1.709-.229.369-.453.752-.55 1.18-.079.33-.066.675.002 1.006.069-.203.146-.405.269-.582.158-.234.396-.449.689-.472.107-.018.194.062.26.135.145.166.255.358.364.548.349.626.661 1.272 1.007 1.9.448.818.935 1.62 1.53 2.341.401.491.841.949 1.261 1.423.599.666 1.156 1.398 1.458 2.251.367 1.003.376 2.098.235 3.146.308-.306.478-.718.606-1.126a6.7 6.7 0 0 0 .275-1.705c.015-.746-.294-1.451-.663-2.084-.326-.557-.702-1.083-1.065-1.617-.607-.882-1.184-1.792-1.605-2.78-.185-.418-.312-.858-.486-1.279-.2-.504-.418-1.012-.482-1.556-.015-.161-.037-.328.012-.486.064-.211.168-.406.252-.608.062-.15.123-.31.105-.475-.083-1.165.015-2.34.27-3.479.123-.57.291-1.129.444-1.691.065-.258.14-.52.127-.789-.004-.091.056-.168.091-.248.338-.645.742-1.254 1.185-1.832.626-.805 1.344-1.554 2.203-2.112.673-.437 1.456-.739 2.267-.739.088-.557.313-1.079.452-1.623.029-.131.068-.27.025-.402a3 3 0 0 0-.273-.642c-.059-.088-.132-.244-.262-.192zm10.487.11a2.8 2.8 0 0 0-.319.703c-.051.139-.013.287.019.425.14.544.364 1.066.453 1.623.459.002.916.096 1.343.263.791.308 1.481.829 2.086 1.416a12.4 12.4 0 0 1 2.278 3.111c.07.117.019.257.047.385.08.509.254.997.38 1.495.35 1.277.532 2.606.468 3.932 0 .18-.047.366.009.543.053.185.141.357.217.533.081.182.163.375.142.58-.033.756-.391 1.438-.644 2.136-.328 1.01-.819 1.96-1.393 2.852-.521.822-1.113 1.597-1.61 2.434-.291.5-.546 1.035-.636 1.612-.055.33-.036.667.001.998.049.43.131.856.264 1.268.126.381.292.764.582 1.05-.138-1.025-.133-2.095.212-3.081.274-.806.775-1.51 1.331-2.145.656-.749 1.366-1.456 1.931-2.279.621-.888 1.123-1.85 1.619-2.81.209-.393.404-.796.658-1.162.081-.104.164-.229.298-.265.209-.013.406.095.555.234.233.218.373.516.467.817.066-.291.08-.595.028-.889-.075-.439-.292-.837-.522-1.212-.312-.5-.644-.991-.899-1.524-.223-.474-.407-.966-.599-1.454a45 45 0 0 1-1.408-4.324c-.096-.388-.205-.777-.248-1.175.062-.168.197-.298.326-.418.216-.191.512-.343.805-.254a.9.9 0 0 0-.159-.41c-.163-.213-.414-.325-.646-.443-.372-.181-.739-.384-1.051-.659-.761-.683-1.49-1.405-2.31-2.019-.425-.32-.885-.587-1.343-.855-.809-.465-1.647-.9-2.551-1.145-.084-.029-.139.061-.183.117zm-7.334 7.415c-.163.531-.358 1.056-.647 1.532a3.3 3.3 0 0 1-.858.968c-.357.272-.777.439-1.168.655-.218.116-.403.282-.608.417a4.6 4.6 0 0 0-1.07.985c-.553.71-.861 1.58-1.015 2.459a10 10 0 0 0-.138 1.944c.024.687.105 1.371.197 2.051.072.507.152 1.013.263 1.513q.048.224.127.44c.062-.131.219-.136.339-.089.31.108.57.319.814.532.417.374.773.81 1.093 1.269.198.293.4.588.536.916.206.484.352.991.459 1.506.116.574.18 1.163.139 1.749-.033.464-.137.934-.38 1.335-.065.112-.156.206-.219.32h.012c.104-.094.229-.159.343-.239.6-.42 1.096-.98 1.46-1.614.475-.825.751-1.756.863-2.7.08-.669.021-1.349-.119-2.006-.123-.54-.299-1.078-.598-1.548-.41.149-.872.134-1.279-.02a2 2 0 0 1-1.031-.935c-.09-.176-.164-.373-.137-.575.023-.29.201-.577.483-.676.267-.102.565-.01.785.155-.267-.405-.531-.813-.84-1.187-.174-.207-.365-.411-.611-.531a7 7 0 0 1 .237-1.576c.152-.54.393-1.064.758-1.494.257-.301.578-.559.954-.694.152-.056.315-.08.477-.068-.095-.492-.005-.998.16-1.466.176-.511.371-1.018.471-1.551.142-.71.145-1.439.084-2.158a.63.63 0 0 1-.337.379zm4.053-.38c-.057.686-.058 1.381.066 2.06.099.588.316 1.144.508 1.705.155.451.233.938.141 1.411.233-.024.464.047.671.149.359.179.658.461.894.782.327.443.537.963.669 1.495.113.463.175.938.188 1.414-.22.094-.388.274-.544.449-.337.392-.619.827-.901 1.259.217-.164.511-.254.776-.157.277.094.458.37.487.654.036.212-.041.421-.138.606a2 2 0 0 1-1.078.947 1.87 1.87 0 0 1-1.23.003c-.342.549-.532 1.179-.648 1.811a6 6 0 0 0-.068 1.732 7.2 7.2 0 0 0 .709 2.425c.44.873 1.114 1.642 1.973 2.122-.352-.402-.526-.926-.582-1.45-.07-.623-.011-1.253.107-1.866.132-.646.313-1.289.616-1.877.402-.684.879-1.332 1.466-1.869.246-.217.509-.431.821-.545.119-.047.298-.057.348.091.136-.363.193-.749.264-1.128.158-.945.285-1.896.326-2.854a10 10 0 0 0-.168-2.136c-.187-.962-.58-1.909-1.266-2.623-.293-.313-.645-.56-.995-.804-.448-.37-1.023-.532-1.492-.87a3.3 3.3 0 0 1-.907-.977c-.304-.488-.509-1.03-.675-1.578a.63.63 0 0 1-.339-.381zm4.169.708a7 7 0 0 1-.115.524c-.117.422-.259.851-.53 1.202.183.03.358.105.505.218.333.25.557.618.714.998.152-.464.107-.967.009-1.438a5.1 5.1 0 0 0-.584-1.504zm-12.055.001a5 5 0 0 0-.47 1.076c-.18.599-.29 1.253-.107 1.866.109-.239.227-.477.395-.681.207-.262.491-.485.829-.536a2.5 2.5 0 0 1-.334-.604 6 6 0 0 1-.312-1.12z"/></svg>