<svg xmlns="http://www.w3.org/2000/svg" width="28" height="32" viewBox="0 0 28 32"><path fill="currentColor" d="m14.094 4.139.319.002c1.276.029 2.541.286 3.749.694a15.7 15.7 0 0 1 5.106 2.924 14.8 14.8 0 0 1 3.435 4.246 14 14 0 0 1 1.489 4.491c.179 1.169.203 2.358.119 3.536-.142 1.982-.637 3.965-1.637 5.694a9.2 9.2 0 0 1-1.71 2.174c-.147.088-.312.146-.447.256-.428.317-.704.79-.922 1.266-.159-.423-.235-.884-.167-1.334.037-.304.145-.597.149-.905a1 1 0 0 0-.194-.579 7 7 0 0 1-.672.626c-.736.598-1.549 1.094-2.367 1.57-.442.259-.893.501-1.329.768-.221.131-.402.316-.588.49-.316.301-.638.597-.99.855a5.5 5.5 0 0 1-1.628.837c-.476.153-.974.216-1.471.249h-.294c-.513-.033-1.027-.1-1.517-.262a5.5 5.5 0 0 1-1.62-.849c-.427-.315-.803-.69-1.191-1.049-.177-.171-.39-.298-.601-.42-.736-.423-1.479-.834-2.193-1.293-.687-.446-1.367-.921-1.928-1.523a1 1 0 0 0-.19.491c-.025.328.1.641.141.963.074.459-.001.93-.163 1.363-.191-.418-.425-.827-.767-1.139-.172-.169-.392-.272-.602-.382a9.2 9.2 0 0 1-1.671-2.106C.761 24.123.254 22.209.086 20.289c-.103-1.206-.096-2.425.073-3.624a14 14 0 0 1 1.068-3.749 14.5 14.5 0 0 1 3.071-4.414 15.7 15.7 0 0 1 5.147-3.383 13.7 13.7 0 0 1 3.379-.894c.572-.071.696-.064 1.271-.087zm-7.123 6.323c-.328.652-.519 1.364-.657 2.078a13.7 13.7 0 0 0-.185 3.53c.09 1.172.328 2.336.738 3.439.602 1.634 1.611 3.123 2.943 4.249.116-.156.241-.305.386-.434a10 10 0 0 1-.108-1.158 8 8 0 0 1 .042-1.418 8.8 8.8 0 0 1 .474-1.918c-1.436-.846-2.56-2.189-3.183-3.731a8.25 8.25 0 0 1-.45-4.637m14.433.001a8.23 8.23 0 0 1-.552 4.875 7.8 7.8 0 0 1-1.685 2.423 7.5 7.5 0 0 1-2.122 1.447c.114 1.02.383 2.019.756 2.973.056.135.136.257.214.379.232.355.485.695.729 1.042a10 10 0 0 0 2.158-2.748c.848-1.582 1.28-3.368 1.368-5.155a13.4 13.4 0 0 0-.293-3.57c-.133-.573-.306-1.141-.572-1.667zm-7.059-5.497-.397.002a6.4 6.4 0 0 0-2.311.53A6.7 6.7 0 0 0 9.198 7.34a7.1 7.1 0 0 0-1.351 2.525 7.4 7.4 0 0 0-.199 3.346 7.2 7.2 0 0 0 1.156 2.859 6.8 6.8 0 0 0 2.115 1.994c.431-.943.982-1.831 1.634-2.637.253-.314.356-.723.348-1.121.054-.007.114-.006.157-.046.097-.084.097-.226.087-.344-.018-.235-.137-.48-.357-.586-.177-.088-.385-.059-.563.01-.036-.07-.071-.142-.124-.202-.176-.206-.552-.151-.677.084-.128.233-.048.564.186.698-.071.004-.173.019-.182.107-.001.156.113.281.2.4-.281-.163-.603-.261-.847-.482-.154-.137-.225-.334-.309-.515-.21-.481-.389-.981-.474-1.5-.031-.224-.063-.461.02-.679.111-.307.319-.565.531-.808.347-.39.74-.735 1.126-1.085.443-.395.902-.778 1.417-1.076a4.1 4.1 0 0 1 1.198-.467c.08-.137.201-.241.331-.328.267-.179.56-.311.845-.456.398-.202.815-.4 1.121-.733-.079.29-.268.529-.415.786-.093.163-.204.338-.183.534.264.037.532-.002.786-.076.433-.126.832-.342 1.221-.568-.402.426-.725.92-1.018 1.425-.092.172-.198.341-.253.529a.48.48 0 0 0 .269.276c.298.021.593-.056.885-.106.692-.133 1.394-.29 2.104-.23a2.05 2.05 0 0 0-.903.469c-.394.339-.69.772-.957 1.214.167.363.43.69.781.887.301.175.646.244.973.349a3.09 3.09 0 0 0-2.339 1.229c-.115.159-.226.334-.241.534-.063.544-.02 1.093-.039 1.639-.006.371-.072.737-.118 1.104-.093.669-.161 1.344-.148 2.021a6.8 6.8 0 0 0 2.845-2.661 7.2 7.2 0 0 0 .989-3.384 7.3 7.3 0 0 0-.567-3.154 7 7 0 0 0-1.589-2.321 6.57 6.57 0 0 0-2.885-1.628 6.2 6.2 0 0 0-1.308-.197zM6.614 3.545c.196.569.392 1.145.475 1.743.315-.229.65-.432.991-.619-.493-.37-.978-.748-1.466-1.124m15.148 0c-.488.376-.974.754-1.466 1.124.342.188.675.39.991.619.084-.598.279-1.174.475-1.743M9.956 1.283c.083.855.12 1.723-.06 2.57a15 15 0 0 1 1.631-.501c-.2-.221-.382-.458-.564-.694-.679-.911-.344-.453-1.007-1.375m8.464-.001c-.512.715-.254.359-.775 1.068-.257.34-.511.684-.796 1.001a15 15 0 0 1 1.631.501c-.019-.106-.043-.211-.057-.318a9 9 0 0 1-.064-.642c-.03-.538.004-1.077.06-1.611zM14.187 0c-.163.665-.339 1.329-.581 1.971-.148.383-.305.77-.554 1.101a9.5 9.5 0 0 1 2.271 0c-.244-.325-.4-.705-.546-1.081a18 18 0 0 1-.59-1.992z"/></svg>