<svg xmlns="http://www.w3.org/2000/svg" width="100%" height="100%" viewBox="0 0 24 24"><path fill="currentColor" d="M17.018 0v11.308q0 2.03 1.709 2.029h.297v.774h-6.017v-.774h.378q1.653 0 1.653-2.029V3.89q0-2.053-1.425-2.054h-.605v-.749h.218A5.14 5.14 0 0 0 16.415 0zM20.837 28.493 19.798 32h-8.635v-.75q.629-.7 2.758-2.83a59 59 0 0 0 2.539-2.709q.629-.701.967-1.209.75-1.087.75-2.225 0-1.112-.689-1.959c-.689-.847-1.052-.848-1.778-.848q-2.346 0-3.676 3.169l-.775-.29q1.572-4.45 4.958-4.45 1.67 0 2.842 1.137c1.172 1.137 1.173 1.693 1.173 2.806q0 2.129-2.443 4.16l-1.693 1.402q-1.621 1.355-2.685 2.54a5 5 0 0 0-.29.339h4.498q1.04 0 1.572-.412.46-.363.895-1.379h.749zM27.875 15.354v1.355H4.125v-1.355z"/></svg>