<svg xmlns="http://www.w3.org/2000/svg" width="100%" height="100%" viewBox="0 0 24 24"><path fill="currentColor" d="M21.482 12.75q-.761.488-1.779 1.296t-2.17 1.916q2.14 2.16 3.939 3.222t3.199 1.061q.967 0 1.79-.348t1.43-.958.957-1.409.35-1.7-.35-1.644-.967-1.277-1.461-.836-1.851-.301q-1.481 0-3.086.977zM7.514 20.246q1.481 0 3.261-1.024t3.775-3.09q-2.037-2.179-3.888-3.269t-3.456-1.09q-.967 0-1.78.329t-1.399.892-.915 1.315-.329 1.597q0 .902.36 1.691t.998 1.381 1.502.93 1.872.338zm-.37-10.821q4.361 0 8.969 4.884 1.358-1.315 2.633-2.311t2.242-1.522q.988-.526 2.037-.789t2.078-.263q1.481 0 2.746.488t2.191 1.353 1.44 2.076.514 2.639q0 1.447-.566 2.658t-1.574 2.085-2.397 1.362-3.014.488q-1.913 0-4.053-1.174t-4.505-3.522q-2.304 2.348-4.526 3.522t-4.402 1.174q-1.461 0-2.726-.507t-2.212-1.381-1.481-2.067-.535-2.583q0-1.409.555-2.621t1.522-2.095 2.273-1.39 2.787-.507z"/></svg>