<svg xmlns="http://www.w3.org/2000/svg" width="100%" height="100%" viewBox="0 0 24 24"><path fill="currentColor" d="M13.701 2.542h11.528c.286.096.558.283.628.595-.053.387-.288.713-.566.974-.488.611-1.08 1.127-1.625 1.685-.336.304-.577.695-.915.998-.544.559-1.14 1.071-1.621 1.688-.459.473-.933.93-1.399 1.396-.275.266-.481.595-.767.851-.557.571-1.166 1.095-1.658 1.725-.527.551-1.091 1.066-1.612 1.622-.335.446-.756.813-1.145 1.21-.307.31-.666.604-.825 1.024-.071.29.311.431.543.378q3.706-.74 7.414-1.482c.346-.065.775-.007.975.317.406.644.477 1.436.849 2.094.2.36.643.469 1.024.491.56-.039 1.117-.179 1.682-.115.146.03.257.139.379.218v.396c-.24.355-.563.64-.863.943q-1.213 1.213-2.424 2.43c-.257.26-.558.469-.814.73q-1.542 1.546-3.084 3.093c-.463.521-1.038.921-1.511 1.43-.916.922-1.838 1.839-2.753 2.763-.25.257-.531.472-.844.632l-.32.08c.116-.691.641-1.197.968-1.79 1.713-2.678 3.402-5.372 5.113-8.051.133-.218.242-.474.201-.734-.082-.376-.518-.538-.863-.518-3.796.585-7.585 1.199-11.38 1.787-.684.089-1.372.278-2.064.163a.9.9 0 0 1-.542-.438v-.677c.371-.862.835-1.679 1.286-2.5 1.252-2.25 2.519-4.491 3.785-6.733.208-.368.456-.727.552-1.146.109-.273-.152-.557-.416-.599-.385-.116-.912-.001-1.141-.416-.22-.598.196-1.169.502-1.651.8-1.331 1.602-2.661 2.42-3.982.294-.459.79-.735 1.302-.883z"/></svg>