<svg xmlns="http://www.w3.org/2000/svg" width="100%" height="100%" viewBox="0 0 32 32"><path fill="currentColor" d="m10.756 3.523.002-.001c.825-.316 1.306.346 1.5.658 1.075 1.515 1.514 3.352 2.294 5.017 1.055 2.212 2.206 4.463 4.041 6.138.241.259.719.494.928.249.768-.9 1.389-1.911 1.948-2.952.361-.718 1.161-1.177 1.962-1.151.634-.018 1.206.389 1.559.891.809 1.231 1.198 2.665 1.739 4.022.666 1.43 1.391 2.874 2.519 4.003.669.624 1.395 1.184 2.02 1.855.343.304.536.728.686 1.151l.015.043c.149 1.177-.513 1.735-.892 2.004-.739.589-1.621.96-2.509 1.258-2.994 1.063-6.163 1.622-9.327 1.758-5.152.221-7.177.004-7.702-.086a40 40 0 0 1-5.711-.942c-1.543-.425-3.119-.855-4.494-1.702-.536-.319-1.558-.709-1.275-2.319l.016-.021c.289-1.06 1.099-1.865 1.837-2.644.545-.742 1.307-1.284 1.852-2.025 1.294-1.664 2.244-3.568 2.989-5.531.682-1.721 1.081-3.538 1.687-5.286a15.7 15.7 0 0 1 1.298-3.243c.243-.455.579-.862 1.018-1.141z"/></svg>