<svg xmlns="http://www.w3.org/2000/svg" width="30" height="32" viewBox="0 0 30 32"><path fill="currentColor" d="M11.667 28.033C9.198 25.564 8.7 24.995 8.7 24.638c0-.346.36-.795 1.875-2.339 1.762-1.796 1.875-1.947 1.875-2.504 0-.782-.471-1.246-1.267-1.246-.531 0-.711.136-2.483 1.875-1.544 1.515-1.993 1.875-2.339 1.875-.356 0-.926-.498-3.394-2.967C.73 17.095 0 16.275 0 15.999s.729-1.096 2.967-3.333c2.469-2.469 3.038-2.967 3.394-2.967.346 0 .795.36 2.339 1.875 1.796 1.762 1.947 1.875 2.504 1.875.782 0 1.246-.471 1.246-1.267 0-.531-.136-.711-1.875-2.483C9.06 8.155 8.7 7.706 8.7 7.36c0-.356.498-.926 2.967-3.394C13.904 1.729 14.724.999 15 .999s1.096.729 3.333 2.967C20.802 6.435 21.3 7.004 21.3 7.36c0 .346-.36.795-1.875 2.339-1.762 1.796-1.875 1.947-1.875 2.504 0 .782.471 1.246 1.267 1.246.531 0 .711-.136 2.483-1.875 1.544-1.515 1.993-1.875 2.339-1.875.356 0 .926.498 3.395 2.967 2.237 2.237 2.967 3.057 2.967 3.333s-.729 1.096-2.967 3.333c-2.469 2.469-3.038 2.967-3.395 2.967-.346 0-.795-.36-2.339-1.875-1.796-1.762-1.947-1.875-2.504-1.875-.782 0-1.246.471-1.246 1.267 0 .531.136.711 1.875 2.483 1.515 1.544 1.875 1.993 1.875 2.339 0 .356-.498.926-2.967 3.395C16.096 30.27 15.276 31 15 31s-1.096-.729-3.333-2.967M15 17.35h5.171l3.459 3.45 4.793-4.8-4.793-4.8-3.459 3.45H9.83L6.372 11.2 1.579 16l4.793 4.8 3.458-3.45z"/></svg>