<svg xmlns="http://www.w3.org/2000/svg" width="30" height="32" viewBox="0 0 30 32"><path fill="currentColor" d="m23.056 19.829.795-4.9-3.95 2.9a12.8 12.8 0 0 0-3.076-.907l-1.838-4.504-1.817 4.454a12.6 12.6 0 0 0-3.27.907l-3.883-2.851.778 4.806c-1.826 1.625-3.001 3.821-3.001 6.346 0 0 .161.928.68.928.888 0 2.562-5.441 10.301-5.441 7.743 0 9.678 5.493 10.566 5.493.492 0 .732-.942.732-.942 0-2.488-1.186-4.663-3.017-6.29zm6.784.015s-.106 1.433-.853 1.433c-.813 0-.476-.703-.855-1.681-1.979-5.125-6.804-8.536-13.237-8.536S3.632 14.506 1.738 19.589c-.46 1.233-.089 1.669-.874 1.669-.783 0-.837-1.413-.837-1.413 0-8.231 5.336-14.906 14.908-14.906 9.57 0 14.906 6.675 14.906 14.906z"/></svg>