<svg xmlns="http://www.w3.org/2000/svg" width="100%" height="100%" viewBox="0 0 24 24"><path fill="currentColor" d="M15.549 9.916a5.4 5.4 0 0 1 .944.004c1.079.131 2.041.905 2.423 1.92.195.486.233 1.023.172 1.54a3.06 3.06 0 0 1-1.613 2.265 3.3 3.3 0 0 1-2.82.061 3.03 3.03 0 0 1-1.643-1.907 3.04 3.04 0 0 1 .269-2.361 3 3 0 0 1 2.269-1.521zm-7.851 5.235c.658 4.112 4.086 7.202 8.261 7.315 4.117-.032 7.714-3.214 8.312-7.276.079.685.059.372.076.938 0 4.054-3.734 7.507-8.354 7.507s-8.374-3.453-8.374-7.507c.017-.579-.004-.253.08-.976zM3.827 2.848c-.125.003-.251 0-.376.009-.257.019-.343.04-.563.082-.502.107-.971.245-1.4.515-.46.29-.869.663-1.142 1.127-.164.28-.33.64-.34.972-.011.402-.025.817.103 1.204.097.369.442.61.778.744.296.059.61.055.904-.013.474-.129.685-.687.609-1.136-.042-.334-.314-.592-.331-.933-.05-.488.319-.952.785-1.067.553-.128 1.16-.141 1.68.115.821.376 1.367 1.163 1.702 1.976.491 1.236.587 2.638.204 3.916-.141.49-.396.935-.583 1.407-1.193 2.875-1.374 6.171-.409 9.138.705 2.23 2.054 4.259 3.872 5.736a11.16 11.16 0 0 0 6.145 2.496c1.248.085 2.498-.151 3.681-.535a11.5 11.5 0 0 0 3.787-2.162 12.3 12.3 0 0 0 3.701-5.767c.943-3.124.642-6.584-.757-9.525a5.1 5.1 0 0 1-.53-2.256c-.042-1.188.255-2.407.938-3.39.377-.544.916-.995 1.563-1.17.405-.109.833-.07 1.24.005.48.087.869.538.867 1.027-.011.302-.209.546-.303.822-.081.386-.053.849.256 1.134.262.236.639.227.969.217.34-.002.629-.224.859-.453.258-.365.262-.836.264-1.266.005-.286-.019-.58-.151-.84-.297-.615-.74-1.187-1.352-1.513-.464-.245-.956-.454-1.476-.541-.535-.095-1.076-.013-1.614-.004-1.104.101-2.004.869-2.668 1.704-.455.597-.929 1.226-1.076 1.98-.145.776-.23 1.563-.283 2.35-.019 1.102.308 2.171.395 3.264.042.867-.005 1.746-.267 2.578a22 22 0 0 1-.984 2.474c-.412.835-1.102 1.498-1.85 2.037a8.33 8.33 0 0 1-4.48 1.565c-1.882.031-3.744-.667-5.213-1.829-.613-.488-1.156-1.082-1.5-1.791a22 22 0 0 1-.778-1.884 7 7 0 0 1-.4-3.725c.132-.982.386-1.958.312-2.955a19 19 0 0 0-.281-2.139c-.132-.627-.502-1.162-.872-1.671-.462-.62-1.004-1.2-1.681-1.585-.406-.224-.878-.329-1.339-.391-.346-.041-.142-.021-.613-.051z"/></svg>