<svg xmlns="http://www.w3.org/2000/svg" width="18" height="32"><path fill="currentColor" d="M8.81 31.657c-.084-.189-.467-1.019-.851-1.845s-1.035-2.231-1.446-3.121l-.748-1.619-.52-6.703c-.286-3.686-.52-6.742-.52-6.791 0-.072-.262-.089-1.391-.089H1.943l-.944 1.055-.998 1.1V9.79L1.05 8.709l1.03-1.055 2.324-.01c1.278-.005 2.339-.024 2.357-.043s-.025-.319-.097-.67c-.102-.503-.13-.904-.132-1.91-.002-1.305.028-1.51.381-2.596.045-.138.029-.147-.254-.147h-.302V.449h.581c.447 0 .589-.022.617-.095.079-.206.451-.315 1.184-.347.905-.039 1.451.053 1.648.277.133.151.188.164.702.164h.558v1.829h-.586l.127.321c.07.177.175.581.235.898.143.759.097 2.578-.087 3.468l-.125.604h4.654l1.088 1.095 1.108 1.134v3.701c0 .031-.55-.492-1.062-1.031l-.93-.98h-1.394c-1.072 0-1.394.019-1.394.082 0 .045-.222 3.095-.493 6.777l-.494 6.695-.59 1.274-1.606 3.478c-.559 1.212-1.044 2.205-1.076 2.205s-.129-.154-.213-.343zm1-6.05.723-1.592.167-2.523.262-3.957c.052-.789.083-1.445.07-1.459-.014-.014-.459.374-.991.862s-.991.887-1.022.887-.429-.343-.885-.763-.899-.824-.985-.898l-.156-.135.044.719c.024.395.143 2.203.263 4.017l.218 3.299.742 1.611c.408.886.761 1.591.784 1.568s.367-.759.765-1.635zm.205-11.101.947-.833.018-.798.018-.798H7.009v1.539l.991.863c.545.475 1.008.863 1.029.861s.464-.377.985-.835zm-7.677-4.253.324-.332h4.479v.719h3.658v-.719h4.603l1.341 1.337v-1.106l-1.337-1.341H12.71c-2.609 0-2.7.004-2.826.131-.115.115-.218.131-.872.131-.658 0-.754-.015-.859-.131-.115-.127-.201-.131-2.813-.131H2.645l-1.383 1.32v1.11l.376-.328c.207-.18.521-.477.7-.66m7.517-2.974c.204-.204.204-.455 0-.659-.149-.149-.207-.16-.808-.16-.556 0-.672.019-.819.135-.125.098-.172.196-.172.355s.047.256.172.354c.148.116.264.135.819.135.6 0 .659-.012.808-.16m-.106-1.895c.312-.161.357-.472.106-.724-.15-.15-.205-.16-.847-.16-.622 0-.699.013-.819.143a.482.482 0 0 0 .193.79c.217.08 1.185.045 1.367-.049m.131-1.971c.075-.095.135-.223.135-.285s-.061-.191-.135-.285c-.132-.168-.153-.172-.878-.172-.693 0-.749.01-.844.145-.056.08-.102.22-.102.312s.046.232.102.312c.095.136.151.145.844.145.725 0 .746-.004.878-.172M8.185 1.514c.11-.077.333-.12.729-.138.483-.023.614-.006.856.111.179.086.413.138.625.138h.339v-.588H7.272v.25c0 .138.02.27.043.294.091.091.712.043.87-.068z"/></svg>