<svg xmlns="http://www.w3.org/2000/svg" width="100%" height="100%" viewBox="0 0 24 24"><path fill="currentColor" d="M30.857 22.306q-2.089 4.983-8.304 4.983-1.14 0-2.468.284-1.993.428-1.993 1.188 0 .237.332.545.333.308.569.308-1.186 0 1.613.071c2.799.071 3.038.071 3.512.071q-4.128 2.42-13.81 2.23-3.18-.047-5.457-2.8-2.231-2.611-2.231-5.837 0-3.416 2.302-5.814 2.301-2.395 5.718-2.396.759 0 2.017.332c1.258.332 1.4.332 1.684.332q1.755 0 4.367-1.448c2.612-1.448 2.563-1.448 2.468-1.448q-.475 4.983-3.323 6.691-2.04 1.186-2.04 2.325 0 .713.854 1.14.664.333 1.471.333 1.234 0 2.421-1.518t1.044-2.753q-.142-1.425.19-3.416.094-.57.687-1.399c.593-.829.752-.894 1.068-1.021q0 .427-.309 1.423c-.309.996-.308 1.156-.308 1.471q0 1.044.569 1.613.853-.331 1.519-2.136.568-1.376.664-2.657-1.994-.094-3.82-1.804c-1.826-1.71-1.827-2.373-1.827-3.701q0-.332.095-.665.284.428.853 1.329.807 1.186 1.235 1.186.569 0 .569-1.186 0-1.519-.807-2.752-.902-1.471-2.326-1.471-.665 0-1.992.712-1.33.711-2.42.712-.334 0-2.943-.855 4.602-.758 4.603-1.376 0-1.613-6.311-2.183-.618-.047-2.278-.19.189-.237 2.706-.522Q13.155.001 14.009 0q11.294 0 14.332 10.963.522-.433.523-1.443 0-1.3-.759-3.272-.286-.77-.902-2.309 3.892 4.96 3.892 9.394 0 2.337-1.092 4.243-.712 1.288-2.657 3.29-1.945 2.003-2.658 3.099 2.61-.711 3.418-1.092 1.802-.806 3.274-2.42 0 .618-.522 1.852zM10.166 3.656q0 .854-.949 1.091l-1.234.19q-.665.332-1.946 2.61-.142-.71-.427-1.993-.427.048-1.423.759a39 39 0 0 1-1.377.996q.286-1.707 1.899-3.464Q6.417 1.9 8.031 1.9q2.135 0 2.135 1.756m8.258 4.366q0 .807-.878 1.353c-.878.546-1.163.546-1.732.546q-1.14 0-2.04-1.282-1.093-1.565-2.231-2.042a.78.78 0 0 1 .57-.237q.426 0 1.447.664c1.021.664 1.115.665 1.306.665q.237 0 .783-.665c.546-.665.767-.664 1.21-.664q1.566 0 1.566 1.661z"/></svg>