<svg xmlns="http://www.w3.org/2000/svg" width="100%" height="100%" viewBox="0 0 24 24"><path fill="currentColor" d="M17.851 17.908c1.479-2.914 4.54-4.699 7.621-5.484.203 3.385.257 7.017-1.451 10.065-1.536 2.734-4.524 4.221-7.467 4.936-.149-3.213-.015-6.531 1.296-9.517zM15.89 2.238c-.031.098-.041.201-.054.302-.049.456-.071.915-.099 1.373-.059 1.034-.117 2.069-.208 3.1-.054.605-.118 1.21-.208 1.81-.082.537-.179 1.074-.344 1.592q-.33.024-.66.055c-.079-.223-.123-.457-.168-.69a26 26 0 0 1-.231-1.661c-.134-1.168-.231-2.34-.341-3.51-.018-.174-.033-.348-.06-.52-.026.075-.032.155-.044.234q-.046.37-.082.743c-.139 1.378-.264 2.759-.478 4.128-.053.332-.112.662-.186.99a5 5 0 0 1-.18.625 6 6 0 0 0-.605.216 4.5 4.5 0 0 1-.213-.664 16 16 0 0 1-.288-1.573c-.094-.659-.161-1.32-.251-1.979-.026-.17-.046-.343-.097-.507L11.08 6.3c-.024.081-.035.165-.048.248-.063.456-.105.914-.15 1.372a250 250 0 0 0-.351 4.232 7 7 0 0 1 2.119 1.277c.843.733 1.516 1.653 2.005 2.655.428.874.702 1.816.883 2.77.11.583.182 1.173.233 1.764.02.219.034.439.06.658.011.068.013.141.052.2h.021c.042-.08.045-.173.057-.261.034-.33.055-.661.09-.99.109-1.073.311-2.142.67-3.162a9 9 0 0 1 1.184-2.279 7.8 7.8 0 0 1 1.729-1.753 7 7 0 0 1 1.62-.879 281 281 0 0 0-.244-3.04q-.01-.088-.011-.177l-.005.019c-.031-.421-.073-.84-.113-1.26-.039-.387-.076-.774-.13-1.159-.014-.084-.023-.17-.053-.25-.061.188-.081.385-.111.58-.112.852-.197 1.708-.34 2.556-.067.393-.143.785-.253 1.169-.044.148-.09.295-.152.436a6 6 0 0 0-.604-.215 6.4 6.4 0 0 1-.261-1.008 26 26 0 0 1-.243-1.573c-.148-1.146-.252-2.297-.37-3.447q-.027-.26-.061-.518c-.009-.057-.014-.115-.035-.17-.042.251-.058.506-.084.76-.113 1.229-.218 2.46-.367 3.686q-.057.47-.131.94c-.056.334-.11.671-.219.993-.22-.024-.441-.04-.661-.057-.167-.526-.264-1.07-.347-1.615-.169-1.154-.254-2.318-.33-3.481-.045-.711-.081-1.423-.127-2.134-.02-.267-.036-.535-.075-.8-.01-.05-.013-.103-.038-.148zm-1.855 15.746c1.312 2.986 1.445 6.304 1.296 9.517-2.942-.715-5.931-2.202-7.467-4.936-1.708-3.048-1.654-6.68-1.451-10.065 3.081.784 6.142 2.57 7.621 5.484zm-8.202 1.478c.023.162.078.507.128.684.26.92.603 1.804 1.027 2.666 1.343 2.863 4.187 4.838 7.212 5.553-1.271.53-1.84.622-3.195.6-1.848-.029-4.269-.87-5.643-1.933-2.459-1.865-3.951-4.62-5.363-7.292 1.898-.571 3.914-.888 5.833-.279zm20.334 0a7 7 0 0 1-.128.684 15.7 15.7 0 0 1-1.027 2.666c-1.343 2.863-4.187 4.838-7.212 5.553 1.271.53 1.84.622 3.195.6 1.848-.029 4.27-.87 5.643-1.933 2.459-1.865 3.951-4.62 5.363-7.292-1.898-.571-3.915-.888-5.833-.279z"/></svg>