<svg xmlns="http://www.w3.org/2000/svg" width="100%" height="100%" viewBox="0 0 24 24"><path fill="currentColor" d="m16 .382 3.132 4.41.752-1.303 1.386-.016 2.717-1.308.226 3.007.679 1.208-.752 1.304 5.385.507-2.254 4.917h1.505l.707 1.192 2.491 1.699-2.491 1.699-.707 1.192h-1.505l2.254 4.917-5.385.507.752 1.303-.679 1.21-.226 3.007-2.717-1.308-1.386-.016-.752-1.304L16 31.616l-3.132-4.41-.752 1.304-1.386.017-2.717 1.308-.226-3.008-.679-1.209.752-1.303-5.385-.507 2.254-4.917H3.224l-.707-1.192L.026 16l2.491-1.699.707-1.192h1.505L2.475 8.192l5.386-.507-.752-1.304.679-1.208.226-3.007 2.717 1.308 1.386.016.752 1.303 3.132-4.41zm0 20.512-2.253 3.926L16 28.746l2.252-3.926zM10.055 4.408l-1.12.647v1.293l1.12.647 4.32 8.067-9.147.292-1.12-.646-1.119.646v1.293l1.119.647 1.12-.647 9.147.292-4.321 8.067-1.12.646v1.293l1.12.646 1.12-.646v-1.293L16 17.877l4.826 7.775v1.293l1.119.646 1.12-.647v-1.293l-1.12-.647-4.32-8.067 9.147-.292 1.12.647 1.12-.646v-1.294l-1.12-.646-1.12.646-9.147-.292 4.321-8.067 1.12-.647V5.053l-1.12-.647-1.119.646-.001 1.293L16 14.12l-4.826-7.775V5.052l-1.119-.646zm10.184 14.04 2.274 3.914 4.526.012-2.274-3.913-4.526-.012zm-8.478-.001-4.526.012-2.274 3.914 4.526-.012zm15.278-8.82-4.526.012-2.274 3.914 4.527-.012zm-22.078 0 2.274 3.913 4.526.012-2.274-3.914zM16 3.253l-2.252 3.926L16 11.105l2.252-3.926z"/></svg>