<svg xmlns="http://www.w3.org/2000/svg" width="30" height="32" viewBox="0 0 30 32"><path fill="currentColor" d="M1.744 12.451c4.447-3.289 8.901-6.569 13.351-9.856 4.449 3.279 8.894 6.564 13.342 9.844-1.315.98-2.641 1.947-3.963 2.918.845 2.901 1.696 5.802 2.534 8.706-2.266-1.852-4.537-3.699-6.801-5.555-.795.597-1.608 1.175-2.388 1.789-.922 2.63-1.803 5.276-2.721 7.909-.916-2.625-1.787-5.268-2.702-7.894-.828-.609-1.702-1.162-2.546-1.753-2.256 1.836-4.504 3.681-6.762 5.515.87-2.86 1.75-5.716 2.625-8.574q-1.983-1.527-3.969-3.048zm4.997-1.767c.124 2.529 1.539 5.056 3.841 6.206-1.361-1.452-2.279-3.389-2.256-5.402.385-.212.763-.439 1.149-.65.311 1.055.872 2.048 1.688 2.792 1.047.976 2.481 1.499 3.907 1.495 1.361.002 2.724-.465 3.772-1.338.919-.754 1.56-1.817 1.874-2.958.384.224.773.441 1.16.662.002 2.012-.895 3.962-2.279 5.401 2.309-1.142 3.738-3.686 3.842-6.22A191 191 0 0 0 19.08 7.38c-.068.676-.094 1.355-.168 2.03-.135 1.088-.738 2.118-1.654 2.729a3.89 3.89 0 0 1-3.029.565c-1.352-.303-2.494-1.402-2.833-2.748-.218-.846-.188-1.727-.274-2.591-1.471 1.091-2.945 2.18-4.382 3.317zM3.185 5.475q.529 1.994.83 4.034c1.439-1.051 2.868-2.116 4.304-3.171a54 54 0 0 0-5.134-.863m18.691.862c1.431 1.057 2.858 2.119 4.296 3.166a39 39 0 0 1 .833-4.028c-1.722.206-3.435.49-5.129.862m-3.192 14.581c-.41 1.119-.778 2.253-1.166 3.38 1.003-.642 2.137-1.046 3.273-1.385a10.2 10.2 0 0 0-.54 1.92 16.2 16.2 0 0 1 4.57-1.249c-1.551-1.259-3.096-2.525-4.644-3.789-.498.374-1.012.73-1.493 1.123m-13.37 2.655c1.593.191 3.155.617 4.625 1.26a10 10 0 0 0-.536-1.92c1.138.345 2.277.743 3.282 1.392-.351-1.074-.733-2.138-1.085-3.211-.028-.081-.055-.168-.135-.21-.519-.354-1.04-.704-1.557-1.06a1103 1103 0 0 0-4.594 3.749"/></svg>