<svg xmlns="http://www.w3.org/2000/svg" width="28" height="32" viewBox="0 0 28 32"><path fill="currentColor" d="M14.542 1.064c2.167 3.353 4.329 6.71 6.495 10.064.299.363.662.67.985 1.013-1.338 1.816-2.333 3.859-3.215 5.928 2.3-1.312 4.06-3.505 4.899-6.011 1.045-3.023.772-6.475-.756-9.288a8 8 0 0 1-.203-.389c2.219 1.744 3.843 4.217 4.639 6.92a14.06 14.06 0 0 1-.464 9.206 14 14 0 0 1-11.013 8.576c-.328 1.26-.627 2.527-.913 3.796q-1.148-.002-2.295.001c-.303-1.284-.592-2.57-.931-3.845-3.829-.584-7.349-2.867-9.468-6.107C.288 17.912-.443 14.091.262 10.539a13.9 13.9 0 0 1 3.634-6.977c.416-.412.823-.844 1.308-1.176-.896 1.568-1.459 3.333-1.558 5.14a11.6 11.6 0 0 0 1.073 5.708 10.97 10.97 0 0 0 4.088 4.635c-.864-2.005-1.857-3.966-3.13-5.744.408-.435.903-.802 1.197-1.331q2.492-3.866 4.985-7.73c.439-.664.849-1.348 1.307-2 .015 3.243.002 6.487.006 9.73-.309.422-.626.837-.93 1.261q.799 1.705 1.603 3.407c.545-1.132 1.073-2.272 1.606-3.409l-.909-1.227c0-3.254-.003-6.507.001-9.761zM7.494 11.74c-.127.194-.305.346-.468.508 1.527 2.34 2.677 4.905 3.647 7.519 1.198 3.279 2.043 6.673 2.85 10.065l.643.001c.709-2.968 1.447-5.937 2.419-8.832 1.044-3.054 2.325-6.049 4.084-8.766-.165-.16-.344-.309-.474-.498-1.55-2.396-3.092-4.798-4.644-7.193q-.004 2.95 0 5.901c.355.506.773.982 1.085 1.509-.915 1.989-1.856 3.968-2.792 5.949-.937-1.991-1.88-3.98-2.805-5.977.369-.487.728-.982 1.095-1.471-.001-1.968.002-3.936-.001-5.904l-4.639 7.19z"/></svg>