<svg xmlns="http://www.w3.org/2000/svg" width="29" height="32" viewBox="0 0 29 32"><path fill="currentColor" d="M8.682 2.611c3.77-1.695 8.252-1.68 12.018.018.167 1.035-.096 2.16-.813 2.943-.733.809-1.799 1.216-2.848 1.422.488-.391.921-.886 1.097-1.498.128-.487.246-1.003.13-1.505-.091-.423-.419-.753-.798-.938-.688-.336-1.466-.407-2.219-.441-.881-.019-1.774-.019-2.636.187-.56.138-1.161.405-1.421.955-.228.536-.102 1.134.034 1.676.164.64.61 1.161 1.119 1.563-1.093-.212-2.212-.646-2.94-1.525-.655-.782-.888-1.862-.722-2.858zm3.973 1.163c-.224.073-.481.16-.601.379-.081.297-.011.607.042.904.063.264.093.577.336.747.398.31.905.664.881 1.232-.024 2.532-.113 5.065-.161 7.597.554-.565.811-1.339 1.01-2.087.328-1.288.429-2.617.518-3.938.144 1.485.216 2.996.677 4.427.182.583.437 1.161.874 1.6-.058-2.252-.114-4.504-.159-6.756-.006-.355-.033-.714.011-1.067.102-.471.537-.737.879-1.025.212-.154.247-.429.306-.666.059-.313.136-.641.058-.957-.097-.199-.321-.288-.517-.36-.701-.225-1.448-.245-2.178-.24-.663-.005-1.337.028-1.978.21zm.89 12.819c.079.485.363.899.579 1.331a3 3 0 0 1-.651-.276 46 46 0 0 0-2.151 2.208c-1.075 1.186-2.215 2.355-2.914 3.815-.29.62-.542 1.316-.394 2.008.161.775.626 1.452 1.179 2.003 1.046 1.015 2.455 1.576 3.878 1.802-.659-.549-1.257-1.184-1.684-1.932-.593-.99-.844-2.202-.588-3.337.303-1.392 1.171-2.579 2.123-3.605.944-.975 1.885-1.974 2.58-3.149.194-.37.423-.788.302-1.219-.134-.535-.699-.896-1.241-.824-.579.044-1.067.59-1.016 1.174zm1.123 3.625c-.719.839-1.436 1.729-1.79 2.792-.206.711-.336 1.471-.189 2.207.125.64.529 1.21 1.074 1.563a1.7 1.7 0 0 0 1.544.124c.718-.291 1.24-.983 1.363-1.744.147-.892-.063-1.802-.405-2.627.877.747 1.654 1.652 2.088 2.731.102.277.232.575.14.873-.322 1.353-1.217 2.497-2.279 3.364a8.8 8.8 0 0 0 2.145-.61c1.058-.466 2.029-1.206 2.617-2.216.346-.591.549-1.307.364-1.986-.28-1.119-.947-2.094-1.647-2.992a68 68 0 0 0-3.361-3.644c-.471.782-1.045 1.495-1.664 2.165"/></svg>