<svg xmlns="http://www.w3.org/2000/svg" width="29" height="32" viewBox="0 0 29 32"><path fill="currentColor" d="M4.683 5.236a16 16 0 0 1 2.244-1.704c.193 1.243.867 2.387 1.796 3.225.999.843 2.339 1.136 3.616 1.179q.004.414-.017.826c-1.629.314-3.412.199-4.86-.67-1.145-.698-2.13-1.679-2.78-2.855zm17.77-1.669a5.62 5.62 0 0 1-1.861 3.242c-.999.805-2.31 1.083-3.565 1.129-.003.274.013.548.027.821 1.511.295 3.141.216 4.533-.486a7.9 7.9 0 0 0 3.094-2.995 14.2 14.2 0 0 0-2.229-1.711zM1.446 9.595a9.84 9.84 0 0 0 4.622 2.249c2.091.437 4.284.044 6.22-.808-.003-.321-.006-.642.024-.961-1.827.44-3.83.517-5.582-.251-1.456-.596-2.714-1.697-3.445-3.097a14.5 14.5 0 0 0-1.839 2.868m24.573-2.827c-.07.309-.287.552-.459.809-.951 1.284-2.373 2.182-3.908 2.593-1.5.371-3.082.269-4.572-.095.015.321.005.643.018.964 1.027.449 2.114.766 3.228.908 2.706.35 5.528-.543 7.58-2.333-.491-.97-1.062-1.903-1.747-2.751-.036-.045-.079-.089-.139-.096zM.586 11.778A14.7 14.7 0 0 0 0 14.936c2.433.896 5.128 1.21 7.669.614a13 13 0 0 0 4.546-2.065c.034-.368.024-.74.034-1.11-1.669.862-3.529 1.388-5.414 1.404-2.222-.026-4.417-.751-6.25-2zm21.916 2c-1.873-.024-3.72-.549-5.378-1.405.018.374.035.748.033 1.122 1.994 1.378 4.355 2.277 6.791 2.353a14.1 14.1 0 0 0 5.385-.902 14.6 14.6 0 0 0-.583-3.144c-1.832 1.244-4.03 1.958-6.248 1.975zM6.157 17.704c-2.038.371-4.229.385-6.15-.478a14.6 14.6 0 0 0 .587 3.124c.481.082.965.136 1.453.15 1.437.089 2.866-.238 4.196-.768 2.105-.85 4.145-1.914 5.911-3.354.031-.399.011-.799.031-1.198-1.825 1.209-3.862 2.145-6.029 2.525zm11.028-2.528c.031.4.006.802.047 1.2a19.2 19.2 0 0 0 3.464 2.244c1.328.666 2.689 1.3 4.138 1.654 1.273.309 2.603.287 3.892.092.317-1.013.51-2.065.596-3.122-1.248.562-2.635.736-3.993.695a14.9 14.9 0 0 1-4.505-.883 18.5 18.5 0 0 1-3.64-1.88zM4.176 22.357c-.862.241-1.764.397-2.659.294.395.782.857 1.529 1.384 2.23 2.118 2.834 5.29 4.863 8.759 5.567.491.089.985.215 1.488.183a9.1 9.1 0 0 1-3.922-1.524c-1.135-.793-2.137-1.931-2.392-3.329-.19-.981.186-1.956.657-2.8.749-1.342 1.788-2.489 2.859-3.578-1.952 1.182-3.966 2.327-6.174 2.957M19.033 19.4c.6.619 1.2 1.241 1.731 1.922.712.918 1.386 1.904 1.709 3.033.268.897.072 1.878-.381 2.681-.653 1.172-1.737 2.053-2.919 2.658-.889.475-1.866.744-2.845.96 1.906-.19 3.763-.802 5.441-1.722a14.8 14.8 0 0 0 6.038-6.273c-1.482.133-2.933-.348-4.291-.89-1.57-.639-3.039-1.49-4.484-2.368z"/></svg>