<svg xmlns="http://www.w3.org/2000/svg" width="29" height="32" viewBox="0 0 29 32"><path fill="currentColor" d="M21.106 16.832a13.3 13.3 0 0 1 5.45-.486 8.77 8.77 0 0 0-2.523 4.379 12.84 12.84 0 0 0-5.807-.568c-1.397.178-2.743.641-3.993 1.281 1.789-2.145 4.203-3.777 6.873-4.606m-8.219 6.275c-1.526.713-2.983 1.626-4.642 2.006-1.331.315-2.784.345-4.055-.215 1.709 1.122 3.805 1.534 5.826 1.439 1.821-.05 3.612-.41 5.407-.688 2.25-.316 4.65.5 6.166 2.207.427-1 1.073-1.893 1.829-2.67a13.4 13.4 0 0 1 3.108-2.335c-2.636-1.077-5.516-1.724-8.372-1.39-1.842.206-3.607.843-5.267 1.645zm-8.154 4.07c1.294 1.139 2.832 1.979 4.449 2.564.72-1.036 1.67-1.948 2.848-2.437-2.961.514-6.116-.056-8.681-1.635.386.565.877 1.051 1.384 1.507z"/></svg>