<svg xmlns="http://www.w3.org/2000/svg" width="28" height="32" viewBox="0 0 28 32"><path fill="currentColor" d="m7.494 11.74 4.639-7.19q.001 2.952.001 5.904c-.367.489-.726.983-1.095 1.471.924 1.997 1.868 3.986 2.805 5.977.936-1.981 1.877-3.959 2.792-5.949-.312-.528-.73-1.003-1.085-1.509q-.004-2.95 0-5.901c1.552 2.395 3.094 4.797 4.644 7.193.13.189.31.338.474.498-1.759 2.716-3.041 5.712-4.084 8.766-.972 2.895-1.71 5.864-2.419 8.832l-.643-.001c-.807-3.392-1.651-6.786-2.85-10.065-.969-2.615-2.119-5.179-3.647-7.519.163-.161.341-.314.468-.508z"/></svg>