<svg xmlns="http://www.w3.org/2000/svg" width="25" height="32"><path fill="currentColor" d="M8.426 5.283a11.6 11.6 0 0 1 8.472-.001c-1.491.126-2.963.568-4.231 1.37-1.269-.807-2.747-1.245-4.24-1.37zm-1.504.761c-.996 1.443-1.604 3.174-1.609 4.936 1.127-.433 2.354-.637 3.56-.503.292-.206.61-.372.905-.573.098-.115.145-.263.218-.393a7.7 7.7 0 0 1 1.99-2.376c-1.52-.889-3.321-1.207-5.065-1.09zm6.421 1.088c.782.637 1.466 1.405 1.947 2.295.72-1.14 1.459-2.267 2.172-3.409-1.433.046-2.872.392-4.118 1.114zm-12.01 7.093c.833-1.2 1.938-2.215 3.231-2.901-.072-1.488.298-2.968.92-4.313a11.44 11.44 0 0 0-4.151 7.213zm9.183-4.057q1.075 1.676 2.146 3.355c.727-1.114 1.434-2.242 2.156-3.358a6.9 6.9 0 0 0-2.156-2.591c-.911.676-1.667 1.565-2.146 2.594m10.2-2.272-.318.548c.28.934.409 1.911.379 2.885 1.281.672 2.357 1.686 3.202 2.852a11.57 11.57 0 0 0-3.263-6.285M19.1 10.682q.465.127.916.298a8.4 8.4 0 0 0-.158-1.593c-.262.426-.503.865-.758 1.295m-13.735 1.1c.095.919.385 1.813.831 2.619a6 6 0 0 1 .73-1.776c.273-.535.661-.998 1.073-1.431-.904.042-1.803.224-2.634.588m12.788.532c.441.647.769 1.37.958 2.13.472-.812.748-1.728.862-2.658a7 7 0 0 0-1.27-.417q-.275.473-.55.945M1.184 15.992l.043.129c.757 1.53 1.92 2.885 3.413 3.735a7.7 7.7 0 0 1 1.398-3.406c-.055-.318.032-.658-.054-.966a7.7 7.7 0 0 1-1.344-3.338c-1.517.881-2.715 2.265-3.456 3.846m19.51-3.846a7.6 7.6 0 0 1-1.391 3.397c.02.314.026.628.008.942.741.983 1.194 2.163 1.384 3.374 1.528-.881 2.715-2.279 3.471-3.861-.766-1.575-1.945-2.974-3.473-3.853zM6.221 17.559a7 7 0 0 0-.86 2.661c.407.186.836.315 1.271.417.184-.312.362-.629.548-.941a6.8 6.8 0 0 1-.958-2.137zm12.922.047a7.07 7.07 0 0 1-1.799 3.196 7.1 7.1 0 0 0 2.629-.578 7.2 7.2 0 0 0-.829-2.618zm1.633 3.074c.057 1.491-.299 2.977-.929 4.323 2.221-1.779 3.744-4.406 4.155-7.224a9.2 9.2 0 0 1-3.226 2.901M1.363 17.824a11.38 11.38 0 0 0 3.257 6.284l.314-.542c-.267-.935-.417-1.91-.372-2.885-1.277-.676-2.37-1.677-3.198-2.858zm9.152 4.017a6.9 6.9 0 0 0 2.153 2.593 6.8 6.8 0 0 0 2.149-2.592c-.714-1.121-1.437-2.238-2.147-3.361-.722 1.117-1.43 2.244-2.155 3.361zm5.936-.293c-.308.188-.625.368-.918.577a7.9 7.9 0 0 1-2.188 2.75c1.523.884 3.326 1.213 5.073 1.08.989-1.443 1.603-3.17 1.598-4.93-1.127.46-2.357.602-3.565.523m-11.139-.525q.01.809.165 1.603c.255-.432.502-.869.758-1.3a9 9 0 0 1-.923-.302zm4.733 1.559c-.723 1.133-1.451 2.261-2.169 3.396 1.434-.023 2.87-.385 4.115-1.105a7.7 7.7 0 0 1-1.945-2.291zm-1.577 4.147a11.45 11.45 0 0 0 8.421-.007c-1.489-.12-2.958-.569-4.225-1.367-1.255.806-2.721 1.229-4.196 1.374"/></svg>