<svg xmlns="http://www.w3.org/2000/svg" width="100%" height="100%" viewBox="0 0 32 32">
    <path fill="currentColor"
        d="M12.781 1.938h.013c.58.136 1.216.232 1.689.624.163.113.166.317.17.496-.593.041-1.178-.157-1.771-.066-.921.117-1.898.407-2.517 1.14-.556.667-.596 1.605-.437 2.422.152.83.798 1.453 1.465 1.912 1.048.667 2.248 1.066 3.251 1.808 1.058.741 1.792 1.85 2.855 2.585.371.256.803.458 1.266.434.707.051 1.404-.406 1.681-1.049.368-1.21-.184-2.666-1.31-3.272-.762-.427-1.624-.616-2.427-.944-.216-.082-.433-.222-.477-.466.04-.158.141-.318.317-.341 1.29-.192 2.594.14 3.769.666 1.745.907 3.329 2.162 4.493 3.756 1.124 1.493 1.752 3.299 2.093 5.121q.087.642.204 1.28v2.759c-.198 1.282-.44 2.579-.998 3.762-.819 1.822-2.18 3.429-3.925 4.421-1.036.609-1.406 1.149-5.86 1.072-.507-.148-.662-.32-.75-.652.138-.466.672-.597 1.087-.698.453-.118 1.032-.153 1.272-.624-.127-.544-.669-.83-1.15-1.009-.727-.268-1.525-.239-2.282-.146-1.097.197-2.099.832-3.238.802-1.393-.023-2.711-.632-3.821-1.438-.803-.575-1.424-1.37-1.902-2.227-.336-.601-1.042-1.925-.652-3.675v-.015c.211-1.099.622-2.228 1.493-2.976.572-.437 1.244-.812 1.977-.845.274.008.619.034.777.293a.29.29 0 0 1-.16.232c-.356.233-.796.378-1.038.752-.454.618-.496 1.432-.385 2.165.181.906.824 1.676 1.615 2.129.631.362 1.312.646 2.026.788.642.131 1.297.168 1.949.197.648.028 1.193-.067 1.762-.062.788.007 1.596.066 2.333.382.988.431 1.891 1.134 2.408 2.095.197.374.245.805.444 1.177.441-.083.638-.537.772-.916.324-.878.046-1.839-.329-2.653-.593-1.227-1.761-2.093-3.046-2.485-1.219-.392-2.546-.21-3.752-.651-.561-.197-.993-.631-1.364-1.078-.23-.276-.354-.657-.224-1.006.549-.137 1.061.289 1.613.212.469-.106.795-.539.889-.993a2.27 2.27 0 0 0-.424-2.032c-.607-.755-1.495-1.215-2.389-1.544-1.001-.384-2.093-.546-3.022-1.106-1.011-.633-1.883-1.557-2.273-2.701-.381-.993-.378-2.075-.33-3.122.098-.99.532-1.923 1.118-2.716.382-.531.933-.9 1.478-1.244.648-.411 2.128-.996 3.972-.73z" />
</svg>