<svg xmlns="http://www.w3.org/2000/svg" width="100%" height="100%" viewBox="0 0 24 24"><path fill="currentColor" d="m30.968 18.79-3.676 4.427-.901-.9q.526-1.326.663-2.439c.137-1.113.054-1.429-.113-2.064a1.9 1.9 0 0 0-.151-.45 3.9 3.9 0 0 0-.601-1.125q-.4-.526-1.15-1.276l-2.626-2.676-12.205 12.205q-1.601 1.6-1.726 2.775-.126 1.177 1.151 2.452l.35.299-.95.95-8.003-8.003.95-.95.4.399q1.25 1.301 2.426 1.176t2.751-1.701l12.229-12.23-2.726-2.726q-1.15-1.1-1.963-1.538c-.813-.438-1.172-.413-1.888-.363a4 4 0 0 0-.651.049q-.326.025-.575.075c-.249.05-.325.058-.475.075q-.075.025-.137.037c-.062.012-.096.013-.163.012q-.276.075-.625.175c-.349.1-.525.142-.876.225l-.825-.876 4.326-3.776 17.758 17.759z"/></svg>