<svg xmlns="http://www.w3.org/2000/svg" width="25" height="32"><path fill="currentColor" d="M9.965.038c.47-.045.957-.049 1.41.104.695.223 1.382.465 2.066.717.778.272 1.394.923 1.685 1.686.202.495.133 1.042.211 1.559.058.344.273.647.545.858.439.335 1.064.39 1.564.161.283-.134.49-.378.678-.62.493-.637 1.276-1.066 2.088-1.074.361-.032.726.017 1.07.131.673.212 1.338.447 2.002.686.381.148.779.29 1.085.572.59.526 1.029 1.276 1.017 2.085-.014.252.022.516-.067.757a7051 7051 0 0 1-7.594 22.007c-.147.382-.232.797-.491 1.125-.584.875-1.7 1.311-2.728 1.169-.28-.037-.544-.137-.812-.218a36 36 0 0 1-1.993-.713c-.877-.309-1.531-1.113-1.742-2.007-.128-.55.025-1.169-.292-1.669-.368-.626-1.224-.873-1.878-.571-.286.112-.495.345-.678.582a2.97 2.97 0 0 1-1.709 1.093c-.49.085-1.005.076-1.48-.084a33 33 0 0 1-2.183-.772c-.897-.339-1.554-1.19-1.724-2.125-.009-.352-.034-.709.007-1.058C7.806 1.897 7.881 1.568 8.066 1.291A2.83 2.83 0 0 1 9.965.036zm.108.995c-.556.113-1.044.512-1.297 1.014a5894 5894 0 0 0-7.681 22.26c-.149.378-.146.807-.045 1.197.184.545.588 1.049 1.145 1.239q.949.358 1.913.669c.243.076.49.164.749.151.441-.018.889-.153 1.228-.443.32-.253.503-.635.827-.883.566-.449 1.342-.653 2.047-.454a2.4 2.4 0 0 1 1.771 1.751c.135.474-.001.983.178 1.448.199.54.649.99 1.198 1.17q.977.361 1.964.696c.492.192 1.07.213 1.558.001.45-.214.875-.563 1.031-1.052 3.19-9.228 5.422-15.684 7.634-22.147a1.84 1.84 0 0 0-.167-1.598c-.243-.375-.595-.704-1.028-.839a61 61 0 0 0-2.199-.765c-.27-.099-.562-.073-.842-.057-.557.054-1.037.415-1.362.854a2.4 2.4 0 0 1-1.21.864c-.722.236-1.547.071-2.15-.383-.548-.416-.934-1.08-.927-1.779-.031-.327-.012-.666-.11-.983-.215-.517-.613-.996-1.158-1.178a40 40 0 0 0-1.801-.632 2.35 2.35 0 0 0-1.267-.12zm.151.862c-.277.086-.545.274-.633.562a7733 7733 0 0 0-7.636 22.085c-.071.197-.105.41-.068.618.039.367.322.675.663.798.576.216 1.16.412 1.745.601.267.074.549.184.827.098.292-.079.495-.323.687-.542a3.25 3.25 0 0 1 2.321-1.26 3.32 3.32 0 0 1 2.556.913c.492.453.838 1.065.94 1.729.087.409.047.834.139 1.242.116.274.347.515.634.609q1.035.375 2.082.719c.415.15.909.02 1.188-.325.149-.151.193-.365.263-.558q3.784-10.961 7.562-21.924c.038-.181.009-.371-.022-.552-.089-.338-.378-.602-.704-.71a40 40 0 0 0-2.18-.727c-.414-.122-.873.074-1.115.423-.428.59-1.041 1.053-1.747 1.252-.857.249-1.809.118-2.586-.315a3.23 3.23 0 0 1-1.5-1.867c-.14-.429-.112-.885-.156-1.328a.98.98 0 0 0-.639-.833 28 28 0 0 0-2.04-.701.9.9 0 0 0-.581-.009z"/></svg>