<svg xmlns="http://www.w3.org/2000/svg" width="100%" height="100%" viewBox="0 0 24 24"><path fill="currentColor" d="m8.801 20.012.034.009a3 3 0 0 0 .604.076 2 2 0 0 1 .197.018c.042.007.025.003.052.01.19.079.39.158.541.302l.011.012.012.011c.57.549 1.242 1.019 2.028 1.443l.008.004c.213.104.099.054.345.146a3.6 3.6 0 0 0-.36.603c-1.706.038-3.412-.063-5.116-.128-.285-.052-.351-.423-.252-.654.153-.398.617-.558 1.013-.558.494.01.997-.062 1.447-.275a2.06 2.06 0 0 1-.563-1.019zm1.966-13.517c-.125.018-.252.027-.376.053-.692.149-1.298.561-1.787 1.058a4.95 4.95 0 0 0-2.224.963c-.549.414-1.052.935-1.3 1.589-.105.032-.229.087-.217.22.014.22.077.478.287.591.204.132.358.325.554.469.343.26.725.496 1.156.57.255.048.527-.035.771.077.22.086.45.184.602.374.242.257.234.721-.044.951-.403.353-.984.366-1.488.293-.508-.068-.947-.476-1.478-.372-.293.043-.626.111-.804.374-.099.171-.022.392.133.504.37.332.913.161 1.348.327.32.13.642.279.886.531.537.518 1.161.935 1.816 1.288l.002.001a1.6 1.6 0 0 1-.431-.586 2 2 0 0 1-.138-.616h-.001v-.008l-.002-.021h.001c-.031-.383.144-.708.42-.959l.011-.008c.322-.679.874-1.202 1.453-1.662l.009-.007.004-.004c.687-.522 1.49-.916 2.34-1.084.191-.164.38-.335.595-.467-.367-.869-.946-1.632-1.494-2.391-.129-.193-.318-.331-.503-.467a7 7 0 0 0 .471-1.547c-.319-.045-.128-.026-.575-.033zm8.307-2.948c-1.634-.02-3.287.717-4.309 2.004-.795.985-1.228 2.272-1.117 3.539.045.447.132.89.302 1.308.544-.194 1.136-.21 1.703-.135l.943.174-.166.944c-.056.374-.171.733-.286 1.092.117.141.071.079.143.181.175.238.353.475.519.719-.014-1.373.513-2.664 1.341-3.741a6 6 0 0 1 1.275-1.189l-.202-.201c-.544-.56-.992-1.265-1.072-2.057-.077-.684.225-1.357.657-1.872.117-.147.296-.235.396-.394.079-.14-.026-.279-.126-.373zm-.174 6.69c-.795.985-1.228 2.272-1.117 3.539.086 1.128.625 2.162 1.259 3.078.768 1.123 1.68 2.163 2.251 3.41a7.1 7.1 0 0 1 .576 2.214 6 6 0 0 0-.554-1.127c-.61-.998-1.569-1.7-2.343-2.558-.733-.76-1.407-1.616-1.75-2.627-.376-1.079-1.036-2.027-1.713-2.937-.129-.193-.318-.331-.503-.467a7 7 0 0 0 .471-1.547c-1.029-.189-2.042.355-2.738 1.079a4.95 4.95 0 0 0-2.224.963c-.549.414-1.052.935-1.3 1.589-.105.032-.229.087-.217.22.014.22.077.478.287.591.204.131.358.325.554.468.344.26.725.496 1.156.57.255.048.527-.035.771.077.22.086.45.184.602.374.242.257.234.721-.044.951-.403.353-.984.366-1.488.293-.508-.068-.947-.476-1.478-.372-.293.043-.626.111-.804.374-.099.171-.022.392.133.504.37.332.913.16 1.348.327.32.13.642.279.886.531.537.517 1.161.935 1.816 1.288.286.151.611.2.931.216.051.298.112.594.2.882-.755.576-1.129 1.603-.939 2.531.077.398.281.764.57 1.047-.45.213-.953.284-1.447.274-.396 0-.86.16-1.013.558-.099.231-.034.602.252.654 2.37.082 4.749.253 7.117.029a8.8 8.8 0 0 0 1.881-.38c.722.05 1.447.013 2.167-.055 1.215-.171 2.439-.615 3.331-1.487 1.167-1.088 1.75-2.686 1.839-4.254-.001-1.014-.099-2.033-.353-3.017-.334-1.263-.938-2.491-1.916-3.38-.632-.617-1.392-1.088-2.002-1.731-.544-.56-.992-1.265-1.072-2.057-.077-.684.225-1.357.657-1.871.117-.147.296-.235.396-.394.079-.14-.026-.279-.126-.373-1.634-.02-3.287.717-4.309 2.004z"/></svg>