<svg xmlns="http://www.w3.org/2000/svg" width="18" height="32"><path fill="currentColor" d="M8.591 31.661c-.813-.684-2.142-2.062-2.911-3.016-1.231-1.528-2.007-2.738-2.903-4.529C.783 20.132-.1 15.978.019 11.133c.051-2.064.197-3.443.59-5.56l.147-.794h.532c1.095 0 2.573-.307 3.633-.755C6.7 3.273 8.179 1.9 8.976.259 9.053.1 9.138-.017 9.165 0s.146.218.265.448c.55 1.063 1.59 2.221 2.586 2.881 1.285.851 2.921 1.355 4.645 1.431l.846.038.041.203c.85 4.25.922 8.563.205 12.292-.969 5.038-3.356 9.649-6.777 13.091-.889.895-1.733 1.616-1.89 1.615-.051 0-.274-.153-.494-.339zm.981-3.114c.683-.559 1.98-1.937 2.624-2.787a21.2 21.2 0 0 0 3.952-9.242c.46-2.852.369-6.424-.238-9.253l-.074-.344h-.624c-.744 0-1.405-.118-2.25-.401A6.44 6.44 0 0 1 9.34 3.516l-.236-.426-.149.293C8.246 4.777 6.97 5.89 5.404 6.479c-.648.244-1.722.441-2.401.441-.325 0-.605.023-.622.051s-.094.397-.171.819c-.909 5.012-.419 9.85 1.414 13.95.861 1.927 2.23 4.003 3.626 5.501.367.394 1.772 1.682 1.835 1.682.014 0 .233-.17.487-.377zm-.964-2.931c-.754-.622-1.738-1.807-2.437-2.935-2.013-3.249-2.656-7.188-1.872-11.48l.079-.435 9.448-.034.105.586c.229 1.277.274 1.831.274 3.395 0 1.721-.072 2.382-.409 3.773a14.7 14.7 0 0 1-2.775 5.635c-.492.617-1.755 1.861-1.89 1.861-.044 0-.28-.165-.524-.366zM6.888 8.443l.002-.82 1.062-.834c.584-.459 1.094-.845 1.132-.858s.569.373 1.178.858l1.108.881-.038 1.558-4.447.035z"/></svg>