<svg xmlns="http://www.w3.org/2000/svg" width="100%" height="100%" viewBox="0 0 30 32">
    <path fill="currentColor"
        d="M23.11 29.095Q20.255 32 16.077 32q-4.689 0-7.439-3.21-2.6-3.057-2.599-7.795 0-5.096 4.433-11.62A44 44 0 0 1 18.981 0q-.713 3.262-.713 4.637 0 3.16 1.986 6.166 2.446 3.568 3.72 5.299 1.987 3.007 1.987 5.859 0 4.23-2.852 7.133zm-.052-10.879q-.764-1.706-1.784-2.268.153.306.153.867 0 1.07-.612 3.057l-.662 2.038q-.001 1.784 1.783 1.784 1.884 0 1.885-2.497 0-1.272-.764-2.981z" />
</svg>