<svg xmlns="http://www.w3.org/2000/svg" width="100%" height="100%" viewBox="0 0 24 24"><path fill="currentColor" d="M16 22.38c-3.524 0-6.38-2.856-6.38-6.38a6.38 6.38 0 1 1 12.76 0A6.38 6.38 0 0 1 16 22.38m0-13.351a6.979 6.979 0 1 1 0 13.958 6.979 6.979 0 0 1 0-13.958m0-8.951-2.345 7.063-5.711-4.969 1.502 7.292-7.232-1.489 4.895 5.626-7.108 2.444 7.116 2.362-4.903 5.635 7.226-1.488-1.495 7.262 5.708-4.966 2.348 7.072 2.376-6.911 5.594 4.867-1.514-7.354 7.371 1.518-4.911-5.644 7.084-2.436-7.079-2.35 4.905-5.638-7.364 1.516 1.507-7.319-5.581 4.855L16 .077z"/></svg>