<svg xmlns="http://www.w3.org/2000/svg" width="100%" height="100%" viewBox="0 0 24 24"><path fill="currentColor" d="M16.929.001c.414.004.617.373.776.709.588 1.364.804 2.848 1.099 4.293.12.564.635 1.099 1.246 1.038.662.069 1.253-.288 1.763-.668.917-.64 1.94-1.167 3.043-1.389.539-.035 1.159.045 1.567.434.151.114.138.318.108.484-.111.147-.249.271-.379.399a6.05 6.05 0 0 0-1.443 2.052c-.204.418-.208.908-.126 1.356.123.141.242.347.454.344.525.032 1.053.021 1.578-.01.745-.133 1.491-.297 2.193-.586.356-.106.764-.304 1.121-.097.228.092.314.341.378.558-.113.766-.586 1.399-1.054 1.987a25 25 0 0 1-1.376 1.546c-.218.274-.521.554-.495.936a.9.9 0 0 0 .091.485c.467.01.952.059 1.404-.094.687-.185 1.353-.432 2.03-.652.266-.101.601-.034.761.216.15.31.108.661.053.989-.039.695-.135 1.473-.667 1.98a28 28 0 0 1-3.476 2.532c-.354.178-.35.634-.224.956.669 1.11 1.706 1.944 2.387 3.046.173.257.201.612 0 .863a2.32 2.32 0 0 1-1.611.88c-.886-.109-1.648-.608-2.432-.995-.365-.055-.849-.117-1.057.268-.281.527-.41 1.118-.589 1.685-.337 1.195-.573 2.417-.766 3.642-.021.352-.12.691-.221 1.026-.284.048-.486-.145-.634-.362a43 43 0 0 1-2.14-3.007c-.189-.283-.336-.607-.609-.823-.151-.083-.338-.04-.501-.028-.176.16-.274.383-.341.607-.346 1.115-.739 2.221-1.278 3.26-.301.603-.829 1.046-1.354 1.451-.403.293-.829.59-1.327.689-.476-.054-.677-.57-.806-.968-.348-1.377-.422-2.8-.602-4.203-.021-.598-.175-1.322-.781-1.59-.394-.066-.821-.09-1.206.021-.521.345-.861.892-1.297 1.331-.615.607-1.121 1.378-1.944 1.727-.293-.744-.334-1.576-.183-2.357.123-.489.298-.908.463-1.385.113-.325.162-.813.025-1.075-.256-.49-.869-.7-1.352-.928-1.333-.585-2.911-.999-4.311-1.384-.156-.043-.199-.188.196-.396.74-.39 1.674-.415 2.285-1.032.028-.257.119-.617-.133-.79-.361-.283-.81-.425-1.248-.541a9 9 0 0 0-1.787.008c-.573.17-1.28.089-1.672-.402-.444-.589-.342-1.403-.021-2.024.237-.459.727-.706 1.203-.846.761-.201 1.551-.27 2.337-.272.312-.041.642-.058.931-.196.428-.502.332-1.207.3-1.815-.183-.428-.6-.686-.887-1.037-.325-.398-.702-.819-.802-1.306-.038-.183.074-.352.138-.502.355-.553 1.025-.786 1.64-.912.929-.204 1.856.108 2.771.253.701.111.829.035 1.243.021.025-.174.101-.373.003-.536-.218-.297-.535-.534-.647-.898-.074-.455.144-.883.335-1.28a41 41 0 0 1 1.673-2.874c.182-.28.352-.58.621-.785.212.108.273.352.357.555.25.711.548 1.404.825 2.104.113.274.221.562.435.776.194.04.397.042.595.009.572-.28 1.055-.773 1.226-1.399.373-1.39.672-2.813 1.268-4.13.186-.353.367-.789.777-.927l.08-.012zm-.502 8.669a7.298 7.298 0 1 0 0 14.596 7.298 7.298 0 0 0 0-14.596m0 13.651a6.353 6.353 0 1 0 0-12.706 6.353 6.353 0 1 0 0 12.706"/></svg>