<svg xmlns="http://www.w3.org/2000/svg" width="100%" height="100%" viewBox="0 0 30 32">
    <path fill="currentColor"
        d="M31.915 18.358q-3.284-1.851-4.21-1.852-.672 0-1.052 1.032c-.38 1.032-.758 1.031-1.515 1.031q-.463 0-1.895-.336-.8 1.221-.8 1.558 0 .463.689 1.095c.689.632.846.631 1.162.631q.301 0 .817-.127.516-.125.689-.126.517 0 .516 1.895 0 1.81-.842 5.558-1.095-4.295-2.315-4.295-.169 0-.695.254-.527.252-.779.252-1.22 0-2.189-2.232-1.937.295-1.937 1.98 0 .842.779 1.347.778.505.779.716 0 1.138-3.327 3.495a150 150 0 0 0-2.441 1.768q.588-.757 1.179-1.978.673-1.389.673-2.148 0-.42-.968-1.179c-.968-.759-.968-1.038-.968-1.599q0-.715.505-1.768-.547-.632-1.305-.632-1.684 0-1.684 1.095v1.137q.041 1.39-2.106 1.39-1.642 0-5.515-.758 4.379-1.095 4.379-2.526 0 .169-.168-1.011-.169-1.305 1.852-2.357-.378-1.937-2.021-1.938-.253 0-.926.883-.674.886-1.262.885-1.012 0-2.61-2.19-.759-1.094-2.316-3.242.968.506 1.937 1.011 1.263.588 2.021.589.59 0 1.158-1.032c.568-1.032.877-1.032 1.495-1.032q.127 0 1.684.506.8-1.221.8-1.811 0-.505-.611-1.158c-.611-.653-.779-.652-1.116-.652q-.211 0-.653.126-.442.127-.652.127-.759 0-.758-1.895 0-.505.969-5.768-.043.631.547 2.357.715 2.106 1.685 2.105.167 0 .673-.253c.506-.253.603-.252.8-.252q.967 0 1.6 1.094l.632 1.137q.884 0 1.473-.631c.589-.631.59-.927.59-1.516q0-.926-.779-1.411c-.779-.485-.78-.568-.78-.737q0-.885 2.779-2.989Q17.812.298 18.488.002q-1.81 2.441-1.811 3.579 0 .59.716 1.263.884.8 1.01 1.137.42.97-.084 2.653 1.136.8 1.727.8 1.22 0 1.221-1.263 0-.126-.105-.8t-.064-.758q.168-.59 2.316-.59 1.346 0 5.6.758-.927.252-2.779.758-1.685.505-1.685 1.137 0 .295.211 1.01c.211.715.211.828.211 1.053q0 .589-.758 1.094l-1.432 1.011q.505.927.674 1.094.42.505 1.137.505.505 0 .926-.884c.421-.884.73-.884 1.347-.884q1.137 0 2.569 2.106.798 1.181 2.483 3.58zm-9.346-2.441q0-2.694-1.98-4.674c-1.98-1.98-2.877-1.979-4.673-1.979q-2.737 0-4.716 1.959c-1.979 1.959-1.993 2.87-2.021 4.694q-.043 2.695 2 4.651 2.043 1.958 4.736 1.959 2.863 0 4.778-1.874 1.916-1.872 1.875-4.736zm-.632 0q0 2.57-1.727 4.252-1.727 1.685-4.295 1.685-2.484 0-4.252-1.727-1.768-1.725-1.768-4.21 0-2.442 1.788-4.189 1.79-1.748 4.232-1.748c2.442 0 3.038.589 4.232 1.769q1.79 1.768 1.79 4.168" />
</svg>