<svg xmlns="http://www.w3.org/2000/svg" width="21" height="32"><path fill="currentColor" d="M8.628 13.867h2.086v1.316c.698.11 1.36.324 1.967.634l.77-1.061 1.689 1.227-.77 1.067a6.7 6.7 0 0 1 1.215 1.671l1.25-.409.64 1.985-1.25.403q.081.507.083 1.037c.002.53-.03.7-.083 1.037l1.25.403-.64 1.985-1.25-.409a6.7 6.7 0 0 1-1.215 1.671l.77 1.067-1.689 1.227-.77-1.061a6.6 6.6 0 0 1-1.967.634v1.316H8.628v-1.316a6.6 6.6 0 0 1-1.967-.634l-.77 1.061-1.689-1.227.77-1.067a6.7 6.7 0 0 1-1.215-1.671l-1.25.409-.64-1.985 1.25-.403q-.081-.507-.083-1.037c-.002-.53.03-.7.083-1.037l-1.25-.403.64-1.985 1.25.409a6.7 6.7 0 0 1 1.215-1.671l-.77-1.067 1.689-1.227.77 1.061a6.6 6.6 0 0 1 1.967-.634zm1.043 5.973a1.896 1.896 0 1 0 0 3.792 1.896 1.896 0 0 0 0-3.792m7.585-17.446h.569v.456c.172.098.428.194.794.196.77.004 1.015-.662 1.594-.652s.474.346 1.12.521c-.001.096-.317.388-1.108.397s-1.336.931-1.861.954a1.1 1.1 0 0 1-.539-.107v2.033l1.138 1.037s-.008.514-1.138.812v4.119h1.138v9.766h-1.908q.01-.093.012-.19c0-.17-.03-.331-.041-.498l1.404-.45-1.108-3.437-1.404.462a7 7 0 0 0-.581-.8l.865-1.203-2.916-2.116-.871 1.191a7 7 0 0 0-.942-.302v-1.476H7.87v1.476q-.484.12-.942.302l-.871-1.191-2.916 2.116.865 1.203a7 7 0 0 0-.581.8l-1.404-.462-1.108 3.437 1.404.45c-.012.167-.042.327-.042.498q.001.096.012.19H.189V12.16h1.138V9.89C.002 9.604 0 9.031 0 9.031l3.129-2.844 3.129 2.844s-.002.573-1.327.859v2.27h1.991V5.902L5.689 4.859V2.583h1.707v.853h1.043v-.853h1.896v.853h1.043v-.853h1.707v2.276l-1.233 1.043v6.258h1.991V8.041c-1.129-.297-1.138-.812-1.138-.812l3.129-2.844 1.422 1.292z"/></svg>