<svg xmlns="http://www.w3.org/2000/svg" width="18" height="32"><path fill="currentColor" d="M8.854 30.171c-1.757 0-4.492-.261-5.272-1.164.308-1.112 4.027-.729 4.314-3.424v-2.739l.959 1.506.959-1.506v2.739c.287 2.695 4.006 2.312 4.314 3.424-.786.91-3.515 1.164-5.272 1.164zM1.802 7.849l2.739 1.78 6.71 10.408-.137.822.753.205c1.603 1.991 2.241 4.458 3.834 3.081.89 2.467-1.777 4.377-4.04 2.739 1.262-.52.147-1.918-1.575-4.451l.068-.959-.822-.137-.479-.685.834-.834L1.8 7.848zm5.69 10.584-1.034 1.604.137.822-.753.205c-1.603 1.991-2.241 4.458-3.834 3.081-.89 2.467 1.777 4.377 4.04 2.739-1.262-.52-.147-1.918 1.575-4.451l-.068-.959.822-.137.479-.685-1.362-2.221zm-3.91-6.065-.616-.89C-.511 14.607-.956 20.13 1.763 23.323c.545.64 1.133.765 1.477.205-3.361-3.577-2.733-8.042.342-11.161zm10.545 0 .616-.89c3.477 3.129 3.922 8.652 1.203 11.845-.545.64-1.133.765-1.477.205 3.361-3.577 2.733-8.042-.342-11.161zm-7.19 5.273-3.013-4.588c-2.936 2.597-2.736 7.442-.274 9.723l1.398-2.185-.113-.739.705-.186 1.297-2.026zm3.835 0 3.013-4.588c2.936 2.597 2.736 7.442.274 9.723l-1.398-2.185.113-.739-.705-.186-1.297-2.026zm-1.436-2.068.76 1.095 5.811-8.819-2.739 1.78-3.832 5.943zm-.469-3.89c1.101-.048 2.77-2.705 4.985-7.874-1.061-.499-3.332-.753-4.998-.753s-3.92.246-4.998.753c2.225 5.189 3.898 7.847 4.998 7.874zm-.023-1.026c-.886-.03-2.853-3.56-3.55-5.067.755-.529 2.373-.616 3.559-.621 1.289-.005 2.83.108 3.562.621-.7 1.513-2.68 5.064-3.56 5.067zm-1.085 2.67v-.548C4.629 8.6 2.992 5.541 2.213 3.125c1.043-.986 4.428-1.301 6.642-1.301s5.631.346 6.642 1.301c-.779 2.416-2.416 5.475-5.546 9.654v.548l-1.096 1.506z"/></svg>