<svg xmlns="http://www.w3.org/2000/svg" width="100%" height="100%" viewBox="0 0 24 24"><path fill="currentColor" d="M23.879 11.202c1.061-.167.601-.113 1.378-.187 2.346-.176 3.425.334 6.004-1.083.066-.028.323-.358.4-.303.091.065-.103.552-.11.624-.046.482-.255.945-.449 1.382.332-.198.171-.095.483-.308.046-.03.364-.284.402-.215.088.162-.313.717-.374.841-.401.816-.864 1.113-1.698 1.485-2.511 1.938-4.558 2.908-7.207 3.261-.382.051-1.012-.002-1.301-.486-.343-.024-3.19 1.163-4.027 1.309-.525.092-.826-.413-.826-.413L1.626 22.181c-.444.187-1.4.456-1.605-.374-.217-.881 1.369-1.269 1.369-1.269l14.667-4.985a.69.69 0 0 1 .225-.76c1.06-.839 4.271-1.512 4.276-1.569.019-.218.32-.586.344-.616.667-.814 2.07-1.183 2.977-1.406m.312.745c-1.07.257-2.174.617-2.38 1.56-.047.217-.016.448.357.444 1.067-.01 1.671-.741 2.684-1.057 1.501-.71 2.368-.59 3.476-1.075-1.062-.073-2.178-.16-3.239-.029-.302.037-.599.105-.898.158zM20.12 14.02c-.736.198-2.663.679-2.979 1.17-.242.377.109.846.463.768.149-.033 2.986-.959 3.082-1.165.319-.686-.474-.789-.566-.773"/></svg>