<svg xmlns="http://www.w3.org/2000/svg" width="16" height="32"><path fill="currentColor" d="M1.575.062c.015.041.045.07.057.109a738 738 0 0 1 1.583 5.591.025.025 0 0 1-.013.029c-.367.187-.47.474-.616.829q-.011.026-.034.01L.91 5.473 1.575.061zm.403.012L5.19 4.027a.22.22 0 0 0-.072.098q-.376 1.082-.74 2.153a.03.03 0 0 1-.019.018.03.03 0 0 1-.03-.012 1.24 1.24 0 0 0-.754-.553.04.04 0 0 1-.033-.032zm3.441 4.234 1.276 1.573-1.898 1.333q-.016.011-.023-.007l-.185-.488a.02.02 0 0 1 0-.02l.831-2.39zM.863 5.887q.074.026.212.122.71.494 1.414.995a.04.04 0 0 1 .017.039q-.063.527.006 1.053c.002.02-.01.04-.029.046l-1.971.673.352-2.928zm3.704 1.982c.149 1.046-.114 1.95-.588 2.018s-.98-.726-1.13-1.773.114-1.95.588-2.018.98.726 1.13 1.772zm2.254-1.614-.348 3.082-1.532-.457q-.024-.007-.021-.031.059-.615-.054-1.224a.04.04 0 0 1 .018-.045q.928-.646 1.849-1.294a.2.2 0 0 1 .088-.032zM2.67 11.498.691 9.149l1.868-.652q.027-.01.033.019.132.669.518 1.228a.05.05 0 0 1 .008.046zM6.424 9.69l-.555 4.817a.8.8 0 0 1-.09-.199q-.62-2.166-1.243-4.335a.05.05 0 0 1 .009-.048q.229-.305.301-.677.009-.042.05-.03l1.528.47zm-.799 5.28a4 4 0 0 1-.39-.415l-2.292-2.738.445-1.746q.008-.03.034-.013c.268.183.489.255.802.135q.028-.01.037.018zm4.907-5.516q.006.015.021.029a.07.07 0 0 1 .023.038l1.596 5.653q.008.027-.018.041c-.348.188-.486.483-.609.839l-.001.003c-.006.011-.02.016-.031.01l-.003-.002-1.646-1.164.666-5.448zm.395.075a.7.7 0 0 1 .164.151 398 398 0 0 1 3.042 3.753l-.802 2.287a.02.02 0 0 1-.013.012.02.02 0 0 1-.02-.008 1.25 1.25 0 0 0-.756-.561.06.06 0 0 1-.044-.044l-1.572-5.59zm3.447 4.197 1.274 1.572-1.896 1.344-.006.003a.02.02 0 0 1-.02-.011 7 7 0 0 0-.114-.332c-.024-.066-.09-.118-.056-.214q.4-1.157.818-2.361zm-4.55 1.57 1.617 1.13a.06.06 0 0 1 .026.059q-.069.523.009 1.045.004.024-.019.032-.962.331-1.916.665a.08.08 0 0 1-.055-.003zm-8.748 1.668 1.62 5.723q.007.024-.015.036c-.349.195-.476.48-.605.838q-.01.027-.034.011L.389 22.409q.297-2.514.599-5.021.033-.276.087-.424zm.359.041q.14.125.405.452a482 482 0 0 1 2.816 3.482l-.798 2.291a.02.02 0 0 1-.013.011.02.02 0 0 1-.019-.008 1.27 1.27 0 0 0-.767-.572.04.04 0 0 1-.033-.034zm12.091.294c.148 1.047-.117 1.951-.591 2.017s-.978-.729-1.126-1.775.117-1.951.591-2.017c.474-.067.978.729 1.126 1.775m2.261-1.644-.357 3.113-1.519-.461q-.029-.009-.026-.038.055-.615-.063-1.219-.005-.026.016-.041zm-4.162 5.271-1.973-2.357 1.873-.654.002-.001a.022.022 0 0 1 .027.016v.001q.124.67.51 1.23a.06.06 0 0 1 .009.049l-.448 1.715zm3.76-1.808-.566 4.868-1.325-4.58a.05.05 0 0 1 .009-.047q.225-.312.314-.687.007-.03.037-.021l1.532.466zm-.804 5.294-2.682-3.174.444-1.72q.014-.054.059-.02a.8.8 0 0 0 .79.128q.023-.008.03.015zM4.905 21.23l1.28 1.583-1.901 1.335q-.021.015-.029-.009l-.176-.473a.07.07 0 0 1-.001-.046zM.346 22.809l1.634 1.136q.021.015.018.041-.073.521.002 1.042a.036.036 0 0 1-.025.04l-1.974.678.346-2.938zm3.708 1.995c.15 1.047-.114 1.952-.589 2.02s-.982-.727-1.132-1.774.114-1.952.589-2.02.982.727 1.132 1.774m2.255-1.64-.353 3.107-1.528-.462q-.024-.007-.021-.032.058-.612-.057-1.217a.034.034 0 0 1 .015-.037zm-4.158 5.264-1.98-2.352 1.864-.651q.033-.012.041.023.134.67.521 1.228a.05.05 0 0 1 .007.042l-.453 1.711zm3.758-1.794-.555 4.78a1.1 1.1 0 0 1-.121-.281q-.318-1.117-1.212-4.216a.05.05 0 0 1 .008-.046q.218-.306.306-.67a.05.05 0 0 1 .035-.036.05.05 0 0 1 .026.001zm-.794 5.305-2.69-3.189.454-1.749q.008-.031.032-.01a.75.75 0 0 0 .804.135q.023-.008.029.015z"/></svg>