<svg xmlns="http://www.w3.org/2000/svg" width="28" height="32" viewBox="0 0 28 32"><path fill="currentColor" d="M2.239 12.606c-.756-.276-1.416-.698-1.774-1.45l-.079-.167-.059-.146C-.247 9.464-.074 7.96.926 6.828c.238-.269.531-.485.846-.667a4.5 4.5 0 0 1 1.747-.583q.007 0 .009-.009.044-.299.188-.593c.458-.927 1.115-1.708 2.053-2.18l.08-.038a3.91 3.91 0 0 1 2.834-.146c1.128.376 1.763 1.4 2.043 2.504q.014.102.034.202c.039.193.06.38.078.573q.001.01.01.007l.012-.008c.023-.002.048-.025.067-.034.415-.208.893-.294 1.357-.315.912-.041 1.828.13 2.646.549a4.9 4.9 0 0 1 1.79 1.513c.57.798.803 1.746.765 2.722a3 3 0 0 1-.037.334c-.296 1.658-1.134 3.253-3.018 3.429-.897.084-1.783-.182-2.573-.604q-.012-.006-.012.007-.009.377.012.734c.063 1.109.24 2.22.492 3.302q.053.228.129.468.013.041.023-.001a126 126 0 0 1 .794-3.204q.002 0 .005.002v.001c.605 1.971 1.712 3.749 3.005 5.339 1.759 2.164 3.871 4.067 6.084 5.769a57 57 0 0 0 5.278 3.604q-.025.007-.055-.008a66 66 0 0 1-2.877-1.546 52 52 0 0 1-3.24-2.019c-1.779-1.202-3.475-2.528-5.007-4.035-1.258-1.238-2.386-2.617-3.216-4.181q-.003-.005-.008-.003-.003.001-.003.004l-.781 3.301q-.003.015-.013.003a1 1 0 0 1-.05-.067q-.259-.375-.502-.761a38 38 0 0 1-2.506-4.574q-.008-.02-.026-.007c-1.037.719-2.037-.023-2.642-.875-.522-.735-.9-1.66-.897-2.573l-.001-.003q-.004-.005-.009-.003-.461.237-.959.396-.011.004-.01.01l.006.009.006.009c.633 1.986 1.566 3.866 2.67 5.63a40 40 0 0 0 4.754 6.175 11 11 0 0 0 .3.308q.007.003.01-.003l.001-.002q.037-.194.068-.392c.215-1.393.381-2.792.548-4.195q.003-.03.02-.005c1.055 1.628 2.509 2.986 4.059 4.136a31.4 31.4 0 0 0 3.636 2.309 47 47 0 0 0 6.771 3.019q.008.003.012.01a.04.04 0 0 0 .011.013c-.05.001-.106-.023-.138-.03a40 40 0 0 1-4.461-1.281c-2.03-.714-3.999-1.626-5.806-2.798a16 16 0 0 1-2.469-1.944 7 7 0 0 1-.854-.968l-.002-.002q-.007-.003-.011.002l-.001.003c-.187.963-.188 2.02-.161 2.948.025.877.078 1.656.137 2.59l.002.056q0 .006-.006.009-.007.003-.01-.001a29.5 29.5 0 0 1-6.318-5.794 31.4 31.4 0 0 1-4.478-7.374q-.52-1.2-.917-2.395z"/></svg>