<svg xmlns="http://www.w3.org/2000/svg" width="28" height="32" viewBox="0 0 28 32"><path fill="currentColor" d="M20.373 14.598a.48.48 0 0 1 .433-.27l1.302.001c.101 0 .178.025.238.062a.47.47 0 0 1 .247-.063l1.309.001a.5.5 0 0 1 .144.021.6.6 0 0 1 .136-.02h.004s1.175-.003 1.65.006c.403.008.8.14 1.049.408.188.202.31.479.287.86a1.45 1.45 0 0 1-.896 1.257l.202.616a.45.45 0 0 1-.396.556l-1.317.003a.46.46 0 0 1-.26-.086.45.45 0 0 1-.281.086c-.398.001-1.302-.007-1.302-.007a.47.47 0 0 1-.329-.209 2 2 0 0 1-.291.136c-.325.122-.697.161-1.067.16-.438-.001-1.072-.099-1.404-.494a1.3 1.3 0 0 1-.204-.327 4 4 0 0 1-.27.253c-.392.329-.862.53-1.37.592a4.6 4.6 0 0 1-1.031.007c-.581-.064-1.153-.345-1.287-.99a1.5 1.5 0 0 1-.033-.285l-.408.895a.45.45 0 0 1-.417.268h-1.324a.47.47 0 0 1-.449-.402.45.45 0 0 1 .037-.245l.531-1.166a.475.475 0 0 1-.41-.399.45.45 0 0 1 .037-.245l.444-.978a.45.45 0 0 1 .417-.268l2.554.001h.005a.48.48 0 0 1 .417.285 2.8 2.8 0 0 1 1.167-.325q.463-.033.822 0c.492.045.941.234 1.184.597l.125-.273-.001.003.008-.018zm-.009.018q-.004.008 0 0m.009-.018-.004.009zm-6.438 1.41-.668 1.465a.24.24 0 0 0-.02.131.25.25 0 0 0 .24.215h1.321a.24.24 0 0 0 .223-.143l.76-1.668h.255c-.168.348-.248.729-.171 1.102.114.546.61.768 1.102.822.319.035.659.033.982-.006a2.4 2.4 0 0 0 1.259-.543 3.2 3.2 0 0 0 .519-.552c.008.223.083.448.255.653.292.348.856.418 1.241.418.344 0 .69-.033.992-.147.208-.078.39-.189.547-.325l-.021.049a.25.25 0 0 0-.018.125.25.25 0 0 0 .212.211l.006.001h.006l.074.002q.594.003 1.191.002a.23.23 0 0 0 .23-.152l.058-.133.007.065v.002c.015.123.13.218.247.218l1.293-.002a.24.24 0 0 0 .212-.297l-.263-.799a1.237 1.237 0 0 0 .953-1.133c.019-.31-.077-.538-.23-.702-.212-.228-.553-.333-.896-.34-.474-.009-1.646-.006-1.646-.006a.35.35 0 0 0-.15.036.24.24 0 0 0-.135-.037l-1.309-.001a.23.23 0 0 0-.23.147l-.015.034a.3.3 0 0 0-.038-.076.23.23 0 0 0-.201-.104l-1.302-.001c-.109 0-.2.061-.244.155l-.349.76c-.05-.621-.583-.901-1.176-.956a5 5 0 0 0-.787 0c-.535.039-1.024.199-1.44.544l-.02.017.079-.174a.24.24 0 0 0 .02-.131.25.25 0 0 0-.24-.215l-2.556-.001a.24.24 0 0 0-.223.143l-.444.978a.24.24 0 0 0-.02.131.254.254 0 0 0 .243.215h.285zm.365-.24q.005 0 .005.005v.002l-.819 1.797v.002q.001.005.005.005h1.318l.004-.002.823-1.807q.001-.003.004-.002h.563l.004-.002.444-.977v-.002q-.001-.005-.005-.005l-2.553-.001-.004.002-.444.978v.002q.001.005.005.005zm8.673 1.809-.002-.002v-.001l1.189-2.783q.003-.006.009-.006a56 56 0 0 1 1.658.004c.461.009.926.21.892.788a1 1 0 0 1-.576.847 1.4 1.4 0 0 1-.442.108H25.7q-.01.002-.007.012v.001l.34 1.03v.001l-.001.004.002.006h-1.282c-.04-.369-.097-.748-.084-1.113v-.001l-.002-.002-.002.002a3 3 0 0 1-.138.408q-.145.35-.296.696-.003.007-.01.007a157 157 0 0 1-1.249-.004zm2.109-1.978-.163.372q-.003.008.005.008c.181.015.376.007.506-.119.068-.066.121-.251-.048-.265q-.15-.013-.289-.004-.008 0-.012.008zm-1.817.599.648-1.417a54 54 0 0 0-1.33-.001l-.665 1.454c-.063.137-.101.227-.192.305-.073.063-.236.108-.331.035q-.069-.053-.024-.152.265-.589.744-1.632.003-.007-.005-.007l-1.302-.001q-.019 0-.026.016-.345.75-.688 1.504c-.144.316-.188.704.085 1.028.248.294.732.332 1.058.333.314 0 .631-.028.907-.131.396-.149.681-.43.864-.79q.122-.238.26-.543zm-7.155.863c-.145-.694.345-1.411.853-1.832.377-.312.82-.454 1.305-.489q.421-.03.748-.001c.523.048 1.009.294.958.908-.051.602-.459 1.174-.909 1.551a2.15 2.15 0 0 1-1.134.489 4 4 0 0 1-.927.006c-.392-.043-.803-.198-.894-.632m1.685-1.154c-.128.115-.507.571-.285.733a.4.4 0 0 0 .147.053c.403.035.695-.235.876-.571.075-.14.13-.359-.092-.406a.73.73 0 0 0-.646.191m-.1.548c.292.017.494-.201.627-.447a1 1 0 0 0 .024-.064.5.5 0 0 0-.392.142 1.3 1.3 0 0 0-.225.287 1 1 0 0 0-.035.082zM1.98 14.606a.45.45 0 0 1 .441-.278h1.564c.428.001.901.057 1.226.384l.033.035.001.001c-.019-.046.062-.404.426-.417h.004a57 57 0 0 1 1.672.004c.403.008.8.14 1.049.408q.095.102.164.231.081-.077.164-.146c.451-.374.98-.551 1.561-.593q.463-.033.822 0c.455.042.874.209 1.125.519.175.217.274.505.243.878-.06.718-.532 1.411-1.07 1.861-.392.329-.862.53-1.37.592a4.5 4.5 0 0 1-1.031.006c-.38-.042-.756-.177-1.008-.445a.45.45 0 0 1-.404.385l-1.317.003a.46.46 0 0 1-.26-.086.45.45 0 0 1-.281.086c-.389.001-1.296-.007-1.302-.007a.47.47 0 0 1-.399-.396.46.46 0 0 1 .033-.235l.083-.194a2.5 2.5 0 0 1-.597.08 24 24 0 0 1-.468.004l-.217.477a.46.46 0 0 1-.423.272h-1.3a.44.44 0 0 1-.384-.197.44.44 0 0 1-.041-.462l1.258-2.757.005-.011zm0 0-.003.007zm3.274.547q-.013-.032-.029-.062c-.259-.497-.785-.549-1.24-.55H2.422a.26.26 0 0 0-.251.161l-1.26 2.76a.24.24 0 0 0 .021.251.24.24 0 0 0 .21.106h1.3a.25.25 0 0 0 .229-.147l.274-.602q.3.002.602-.004.582-.009 1.006-.271l-.292.683a.25.25 0 0 0-.018.125.25.25 0 0 0 .212.211l.006.001s.874.006 1.271.005a.23.23 0 0 0 .23-.152l.058-.133.007.064v.004c.015.123.13.218.247.218l1.293-.002a.242.242 0 0 0 .212-.297l-.263-.799a1.294 1.294 0 0 0 .393-.167q-.035.25.016.502c.114.546.61.768 1.102.822.319.035.659.033.982-.006a2.4 2.4 0 0 0 1.259-.543c.496-.416.938-1.052.994-1.715.065-.77-.519-1.107-1.175-1.167a5 5 0 0 0-.787 0c-.535.039-1.024.199-1.44.544a3 3 0 0 0-.395.395.86.86 0 0 0-.225-.5c-.212-.228-.553-.333-.896-.34a60 60 0 0 0-1.665-.004h-.001a.23.23 0 0 0-.225.149l-.001.001-.196.459zM1.142 17.58q-.02 0-.013-.018l1.259-2.76q.009-.021.033-.021h1.563c.373.001.816.014 1.028.421.16.305.024.701-.133.937-.306.462-.756.678-1.337.688q-.372.006-.745.003-.007 0-.01.006l-.336.738a.01.01 0 0 1-.01.006h-1.3zm2.613-1.895c-.017-.133-.308-.099-.388-.098q-.008 0-.011.007l-.2.437q-.002.005.004.005c.201.012.377.006.519-.128a.25.25 0 0 0 .076-.223m4.404 1.323c-.145-.694.345-1.411.853-1.832.377-.312.82-.455 1.305-.49q.421-.03.748-.001c.523.048 1.009.294.958.908-.051.602-.459 1.174-.909 1.551a2.15 2.15 0 0 1-1.134.489 4 4 0 0 1-.927.006c-.392-.043-.803-.198-.894-.632zm1.685-1.155c-.128.115-.507.571-.285.733a.4.4 0 0 0 .147.053c.403.035.695-.235.876-.571.075-.14.13-.359-.092-.406a.73.73 0 0 0-.646.191m-.1.548c.292.017.494-.201.627-.447a1 1 0 0 0 .024-.064.5.5 0 0 0-.392.142 1.3 1.3 0 0 0-.225.287 1 1 0 0 0-.035.082zm-5.261 1.175-.002-.002v-.001l1.19-2.788h.03l.141-.001a55 55 0 0 1 1.496.005c.461.009.926.21.892.788a1 1 0 0 1-.576.847c-.133.061-.29.094-.442.108h-.001a.01.01 0 0 0-.007.012v.001l.341 1.03v.005l.003.008-1.279-.002-.001-.007-.002-.004c-.04-.369-.099-.737-.086-1.102v-.001l-.002-.002-.002.002a3 3 0 0 1-.138.408q-.147.349-.296.696-.003.006-.01.006a157 157 0 0 1-1.249-.004zm2.108-1.978-.163.372q-.003.008.005.008c.181.015.376.007.506-.119.068-.066.121-.251-.048-.265q-.15-.013-.289-.004-.008 0-.012.008zM.829 14.042l2.961-.077a.04.04 0 0 0 .032-.022c1.476-3.711 5.545-5.448 9.272-5.64 0 0 .454-.017.587-.017.208 0 .66.017.66.017 3.157.153 6.522 1.44 8.418 4.086.01.014.029.02.046.013q.269-.112.492-.297.024-.02.038.008c.799 1.734 2.723 1.814 4.379 1.902a.02.02 0 0 1 .02.019q.003.043-.029.022a.1.1 0 0 0-.038-.011q-12.811.038-25.623.07c-.401.001-.809.004-1.216.007v-.029zm21.322-1.459c-2.306-2.412-5.691-3.446-8.968-3.186-2.901.23-5.913 1.628-7.116 4.45l-.003.015a.04.04 0 0 0 .039.039h.001c4.071-.103 8.156-.241 12.212-.624 1.327-.125 2.631-.317 3.818-.63a.04.04 0 0 0 .028-.037.04.04 0 0 0-.011-.026zm-3.994-2.051a.47.47 0 0 1-.304.083 1 1 0 0 1-.184-.031c-.062-.016-.126-.033-.248-.033a.596.596 0 0 0-.6.596c-.011.374.228.773.646.791.242.011.727-.122.943-.214l.08-.133a2.2 2.2 0 0 1-.706.112q-.286 0-.414-.136c-.105-.112-.11-.268-.102-.392.014-.229.205-.462.37-.451.195.013.295.064.333.316l.058.015a1 1 0 0 1 .174-.355c-.004-.021-.025-.095-.045-.167zm-1.9 1.758-.165.057v.009l.028-.009v.441h-.029v.011h.168v-.011h-.031v-.249l.004-.005q.03-.04.071-.041.067 0 .067.074v.221h-.03v.011h.166v-.011h-.028v-.262c0-.034-.012-.091-.088-.091-.053 0-.085.024-.131.063l-.03.026v-.209l.029-.01v-.014zm.884.142c-.019 0-.033.046-.04.067l-.004.014-.004.012h-.032l-.002-.018v-.069l-.122.033v.007l.025-.01v.318h-.027v.011h.174v-.011h-.039v-.216l.003-.005a.08.08 0 0 1 .068-.038.2.2 0 0 1 .053.012l.035-.098-.012-.004-.011.018-.015-.008a.1.1 0 0 0-.05-.014zm.645.003c-.047 0-.084.028-.122.059l-.03.023-.002-.036v-.04l-.137.037v.008l.028-.008v.31h-.028v.011h.167v-.011h-.031v-.252l.006-.006c.019-.016.042-.037.077-.037s.06.022.06.053v.241h-.03v.011h.165v-.011h-.027v-.259q0-.094-.096-.094zm-1.065 0q.124 0 .171.137l-.226.083.007.018q.034.08.117.081a.14.14 0 0 0 .096-.034l.006.007a.22.22 0 0 1-.173.083c-.108 0-.175-.073-.175-.191 0-.103.077-.184.176-.184zm-.024.023q-.06.002-.062.076.001.037.01.061l.004.016.004.021.122-.046.016-.008-.006-.017c-.012-.036-.034-.103-.089-.103zm.657-.106c-.025 0-.067.023-.067.05q0 .03.035.031c.022 0 .084-.009.084-.049 0-.01 0-.031-.052-.031zm-7.601-.762c-.009 0-.022.003-.031.028l-.001.003-.092.225c-.016.038-.038.103-.064.178-.077.223-.193.561-.315.716-.079.099-.2.184-.237.209l.038.071c.108-.089.355-.18.624-.18q.084 0 .165.011v-.055a.4.4 0 0 1-.097-.066c-.146-.131-.046-.381.035-.582l.043-.11c.042-.119.091-.225.117-.283l.006-.014c.022-.057.006-.066-.03-.082l-.126-.058a.1.1 0 0 0-.036-.012zm4.715.845q.124 0 .171.137l-.226.083.007.018a.12.12 0 0 0 .117.081.14.14 0 0 0 .096-.034l.006.007a.22.22 0 0 1-.173.083c-.108 0-.175-.073-.175-.191 0-.103.078-.184.176-.184zm-.025.023q-.06.002-.062.076.001.037.01.061l.004.016.005.021.122-.046.016-.008-.005-.017c-.012-.036-.034-.103-.089-.103zm.714-.178a.29.29 0 0 0-.297.285c0 .148.092.243.236.243q.096 0 .181-.062l.016-.011.04.061h.014v-.234q0-.032.018-.047l-.005-.01a.1.1 0 0 1-.029.007h-.196v.025h.094v.208h-.018c-.139 0-.215-.086-.215-.242 0-.16.077-.184.123-.184.036 0 .072.022.072.063a.1.1 0 0 1-.007.03l.012.019.14-.09-.013-.019-.024.016-.01-.007a.25.25 0 0 0-.13-.05zm.333.139.013.004-.014.043.038-.016a.2.2 0 0 1 .089-.017q.129 0 .129.113v.24h.025v.011h-.126l-.012-.052-.023.02c-.026.022-.058.045-.1.045-.064 0-.107-.041-.107-.102 0-.075.044-.126.109-.126h.127v-.038c0-.043-.027-.07-.071-.07-.049 0-.074.031-.094.057l-.019-.007.038-.104zm.105.173a.084.084 0 0 0-.087.086c0 .076.046.084.066.084.028 0 .062-.013.062-.076v-.094zm.355-.246a.23.23 0 0 1-.134.113v.011h.039v.253c0 .062.023.086.081.086a.2.2 0 0 0 .111-.044l-.003-.005a.1.1 0 0 1-.031.007c-.025 0-.051-.017-.051-.05v-.247h.062l.005-.025h-.067v-.05q0-.022.002-.047l-.015-.003zm-6.179-1.69-.084.109a.8.8 0 0 1 .227.068c.062.039.051.102.029.187-.029.115-.105.308-.108.316q-.025.043-.018.06c.007.017.019.021.043.033l.125.059q.024.01.039.01c.015 0 .027-.007.04-.04l.003-.008a.5.5 0 0 1 .07-.127l.004-.004c.016-.017.034-.037.064-.037q.023 0 .05.016c.068.038.367.323.579 1.031.158.527.133.711.121.757l.115.064c.057-.101.286-.358.471-.402a3 3 0 0 0-.138-.427q-.031-.083-.048-.131a.56.56 0 0 1 .069-.505c.032-.037.034-.062.007-.089l-.087-.098c-.001-.001-.018-.024-.044-.024a.07.07 0 0 0-.046.022 1 1 0 0 0-.137.129q-.004.005-.01.005-.008 0-.01-.004a1.7 1.7 0 0 1-.231-.342 4 4 0 0 0-.137-.229q-.041-.062-.076-.113c-.078-.115-.132-.194-.14-.265l-.742-.02zm2.96-.054-.069.083c.106.039.613.227.687.285l.003.004c.063.1.219.559.233.74.007.084-.016.127-.03.145l.06.07c.053-.045.139-.069.248-.069.11 0 .234.025.35.07l.03-.041c-.213-.313-.348-.659-.451-1.154l-.129-.103a.9.9 0 0 1-.315.044c-.248 0-.532-.049-.615-.072zm2.902 0a.47.47 0 0 1-.298.081 2 2 0 0 1-.238-.037 2 2 0 0 0-.333-.044h-.009c-.13 0-.554.043-.569.601-.01.352.29.723.605.747.066.005.125-.01.196-.029s.152-.04.264-.049a.29.29 0 0 1 .254.146l.078.021-.003-.036c-.014-.15-.042-.46.279-.518l-.049-.082a1 1 0 0 0-.16-.011c-.164 0-.402.019-.475.044l-.019.052c.11-.008.211.049.217.12.003.034-.013.116-.225.152q-.253.043-.388-.098c-.131-.139-.132-.37-.126-.463.012-.202.173-.418.392-.418q.025 0 .052.004c.188.028.335.069.373.313l.056.015a1 1 0 0 1 .17-.348 3 3 0 0 0-.044-.163m1.055-.032a2.7 2.7 0 0 1-.742.04l-.026.05c.268.103.254.398.246.557l-.002.058c0 .332-.081.621-.208.744l.024.053c.084-.106.302-.189.503-.189q.122 0 .206.039l.032-.037c-.258-.216-.245-.364-.229-.535q.007-.063.008-.133c0-.296.015-.529.207-.595l-.018-.051zm.715 1.871-.136.039v.009l.028-.006v.305h-.03v.011h.164v-.011h-.026zm-3.402-.151-.165.057v.009l.028-.01v.441h-.029v.011h.168v-.011h-.031v-.249l.004-.005q.03-.04.071-.041.068 0 .068.074v.221h-.03v.011h.166v-.011h-.028v-.262c0-.034-.011-.091-.088-.091-.053 0-.085.024-.131.063l-.03.026v-.209l.029-.01v-.014zm-.586-.008-.009.125h.022c.011-.047.035-.077.099-.077h.018v.443h-.05v.025h.234v-.025h-.049v-.443h.019c.064 0 .087.03.099.077h.022l-.008-.125h-.025v.013h-.347v-.013zm-.872-.53a6 6 0 0 0-.204-.416c-.144-.248-.196-.514-.134-.683l-.085-.046a.8.8 0 0 1-.284.042c-.152 0-.315-.024-.384-.048l-.062.096c.049.024.211.105.251.142.057.052.074.108.048.156-.105.201-.179.27-.208.296q-.022.02-.022.041c0 .023.02.042.02.042l.002.003.089.095c.028.029.039.028.081.001a.14.14 0 0 1 .065-.018c.032 0 .076.014.109.083l.043.089c.108.219.308.626.359.818.041.152-.024.235-.283.455l.076.082c.122-.091.324-.14.572-.14.197 0 .409.033.598.093l.03-.071c-.036-.042-.095-.079-.156-.119-.063-.041-.129-.083-.173-.132-.067-.07-.079-.123-.101-.219l-.01-.043a3 3 0 0 0-.156-.415h.012q.036 0 .091-.006c.051-.005.115-.011.182-.011q.07 0 .128.009l.009-.023c.065-.164.104-.263.198-.297q.038-.015.029-.061a.3.3 0 0 0-.035-.114q-.013-.026-.05-.026h-.008a.43.43 0 0 0-.25.101q-.008.005-.016 0c-.008-.005-.007-.009-.006-.015a.7.7 0 0 1 .056-.132.6.6 0 0 0 .064-.16c.014-.039-.006-.06-.019-.068l-.001-.001a.6.6 0 0 0-.11-.056.04.04 0 0 0-.022 0c-.021.004-.037.018-.042.032a1.3 1.3 0 0 1-.188.362.4.4 0 0 0-.104.282zm5.724.622h.007l-.007.033-.016-.003c-.019 0-.033.015-.033.036 0 .013.01.021.022.032.021.018.052.044.052.101 0 .106-.095.13-.186.154l-.024.008v.031l.016.002c.059.006.181.02.181.092s-.107.088-.144.088q-.122 0-.122-.061c0-.028.035-.047.061-.05l.016-.004V12.8l-.027-.002q-.035-.004-.062-.004l-.028.001-.021-.02a1 1 0 0 0 .119-.036l.012-.006v-.029l-.016-.002c-.056-.008-.12-.045-.12-.122 0-.107.085-.145.158-.145q.042.001.066.007l.018.003.015.002.014-.045c.006-.019.011-.028.049-.028m-.169.074c-.06 0-.06.054-.06.072 0 .046.025.181.102.181.06 0 .06-.054.06-.071 0-.046-.025-.181-.102-.181zm.017.359-.01.015a.1.1 0 0 0-.017.064c0 .03.018.06.051.06q.047-.002.049-.048c0-.046-.028-.063-.054-.08l-.002-.001-.015-.01zm6.311.965q.1 0 .011-.043a2.9 2.9 0 0 1-1.246-1.158q-.017-.029-.047-.014c-.961.47-2.066.668-3.132.814a54 54 0 0 1-4.228.41q-.005 0-.009.004-.005.005-.003.005c2.886-.002 5.867-.031 8.654-.018M9.658 9.578a1 1 0 0 0-.122.037c-2.149.816-4.052 2.125-5.024 4.285l-.003.013c0 .017.014.032.032.032l.786-.019a.08.08 0 0 0 .07-.052c.684-1.974 2.316-3.464 4.255-4.258a1 1 0 0 1 .098-.034.02.02 0 0 0 .016-.022.023.023 0 0 0-.023-.023H9.74a.1.1 0 0 0-.051.022.05.05 0 0 1-.033.018zm17.86 8.863c-4.422.105-8.845.219-13.262.436-2.345.116-4.701.285-7.025.631a.03.03 0 0 0-.023.027.03.03 0 0 0 .006.018c3.01 3.519 8.674 4.393 12.785 2.498.05-.023.142-.09.219-.115l.004-.001q.013.001.014.014 0 .008-.007.012c-1.696 1.039-3.879 1.631-5.617 1.737-.604.037-1.817 0-1.817 0-2.951-.204-5.804-1.34-7.781-3.584q-.04-.046-.092-.013l-.424.263q-.02.012-.031-.007c-.428-.76-.89-1.259-1.746-1.522-.864-.266-1.811-.327-2.709-.379q-.013 0-.013-.01L0 18.441l.003-.007 27.51-.074zm-24.213.272a.02.02 0 0 0-.021.021q0 .013.011.018.806.394 1.26 1.165.015.026.043.013a7 7 0 0 1 1.559-.515c1.798-.376 3.597-.54 5.403-.668.208-.014.42-.01.632-.011q.006 0 .008-.003l.006-.019q.006-.016-.012-.016l-8.89.015zm6.883 3.815c-1.418-.652-2.713-1.613-3.674-2.849a.06.06 0 0 0-.069-.024l-.774.184q-.059.014-.017.058c1.337 1.419 3.02 2.321 4.897 2.816q.004.001.004-.002l.004-.014q.006-.02-.014-.027a4 4 0 0 1-.358-.142z"/></svg>