<svg xmlns="http://www.w3.org/2000/svg" width="18" height="32"><path fill="currentColor" d="M5.069 27.455a12.2 12.2 0 0 0 1.757-1.892l2.027 1.419 2.027-1.419a12.2 12.2 0 0 0 1.757 1.892l-3.785 2.568-3.785-2.568zm1.622-2.433q.786-1.59 1.014-4.393h2.298q.227 2.803 1.014 4.393l-2.163 1.284zM6.488 8.87.879 12.046v9.191l5.204 3.041c.515-1.006.755-2.229.743-3.649H4.934c.025-.423.155-.678.405-.743v-.946c1.651.456 2.799.28 2.838-.946.078-2.423-4.393-.718-5.88-3.717h4.655c.069-1.91-.064-3.723-.465-5.407zm4.731 0 5.609 3.176v9.191l-5.204 3.041c-.515-1.006-.755-2.229-.743-3.649h2.838c-.025-.423-.155-.678-.405-.743v-.405c-2.547-1.426-2.516-3.138 1.284-5.271h1.081v-.541h-4.94c-.066-.982.065-3.441.48-4.798zM7.84 13.601c-.028-2.25-.197-4.461-.887-6.529l1.234-1.234.667.667.667-.667 1.234 1.234c-.69 2.068-.859 4.279-.887 6.529zM6.826 2.517H1.96c-.275-.004-.44-.173-.473-.541H0v5.542h1.487c.065-.318.234-.532.541-.608h3.92q-.216-.76-1.014-.811H2.028c-.101-.006-.179-.044-.183-.183V3.531q.008-.143.141-.141H5.88c.481-.027.86-.217.946-.872zm4.055 0h4.866c.275-.004.44-.173.473-.541h1.487v5.542H16.22c-.065-.318-.234-.532-.541-.608h-3.92q.216-.76 1.014-.811h2.906c.101-.006.179-.044.183-.183V3.531q-.008-.143-.141-.141h-3.894c-.481-.027-.86-.217-.946-.872zM7.288 4.899l.605.605L6.487 6.91c-.219-.479-.625-.904-1.419-1.216H2.297V3.802h3.514c.981-.071 1.504-.649 1.487-1.825h3.109c-.017 1.176.506 1.754 1.487 1.825h3.514v1.892h-2.771c-.794.313-1.2.738-1.419 1.216L9.812 5.504l.605-.605-1.565-1.571z"/></svg>