<svg xmlns="http://www.w3.org/2000/svg" width="19" height="32"><path fill="currentColor" d="M0 22.678V9.173l9.6-3.691 9.6 3.691v10.871c-2.375 0-4.76-.065-7.282.073q.645-.386 1.002-.959.47-.75.47-1.707 0-.784-.355-1.378a2.6 2.6 0 0 0-.94-.948 3.7 3.7 0 0 0-1.303-.479v-.074q.808-.38 1.311-.775.511-.396.792-.924.28-.536.28-1.237 0-.767-.429-1.303-.42-.544-1.204-.825-.776-.28-1.79-.28-1.7 0-3.786.891v1.955h1.485q.124-.71.388-1.147.272-.445.61-.619.346-.181.751-.181.71 0 1.081.47.37.462.371 1.377 0 1.162-.742 1.782-.742.61-2.178.668v.94h.652q1.254 0 1.864.569.618.569.619 1.732 0 2.161-1.749 2.161-.71 0-1.147-.421-.437-.429-.676-1.369H5.81v2.07q.669.305 1.567.479l.068.012A36.5 36.5 0 0 0 0 22.678m19.2-2.634v6.475l-4.342-.027c-2.072-.001-3.481-.138-4.439-.869-.07-.057-.155-.123-.231-.195-.063-.063-.14-.137-.208-.216-.057-.071-.117-.142-.177-.226-.068-.099-.137-.194-.203-.311-.057.092-.127.208-.2.307-.052.068-.114.154-.18.228a3 3 0 0 1-.439.412c-.958.731-2.367.868-4.439.869L0 26.518c6.245-3.934 11.717-5.754 19.2-6.475z"/></svg>