<svg xmlns="http://www.w3.org/2000/svg" width="27" height="32"><path fill="currentColor" d="M15.828 12.536c-1.266.645-2.703 1.19-4.113.949-1.917-.327-1.964-2.203-1.023-3.513.968-1.347 2.612-1.926 4.227-1.677h.001a.01.01 0 0 0 .006-.006l-.001-.004c-1.06-1.269-1.314-3.123-.767-4.668.259-.731.749-1.282 1.571-1.325h.18c.998.067 1.538 1.298 1.772 2.105.35 1.204.472 2.417.411 3.659.107-.138.255-.279.329-.433.411-.865.857-1.766 1.12-2.67.172-.592.24-1.665-.467-1.948-.168-.067-.266.035-.315.187-.076.238.001.483.06.717q.005.016-.013.021l-.319.082q-.012.003-.016-.009a4 4 0 0 1-.095-.423c-.081-.489.194-1.122.809-.917.547.182.796.768.822 1.298q.032.625-.168 1.245c-.235.733-.544 1.414-.872 2.1a.04.04 0 0 0-.001.029q.01.03.035.019a.1.1 0 0 0 .021-.02c.415-.636.838-1.25 1.335-1.784.443-.475 1.166-.983 1.855-.91.344.037.832.28.827.701-.006.516-.608.743-1.011.849q-.015.003-.019-.011l-.092-.32q-.004-.015.01-.018c.262-.066.532-.14.69-.355.093-.126.069-.251-.057-.337-.584-.401-1.349.083-1.775.488-.352.334-.65.728-.931 1.122a56 56 0 0 0-.812 1.189 1 1 0 0 0-.093.186 10 10 0 0 1-.19.491c.872-.537 1.749-1.054 2.669-1.506.627-.308 2.145-1.019 2.812-.667.538.284.169 1.076-.043 1.449-.962 1.691-2.91 2.702-4.742 3.11l-.003.002q-.006.006-.002.012l.003.002c2.055 1.081 1.875 6.164-1.193 5.746-1.743-.238-2.205-2.577-2.228-3.972l-.49.577-.003.002q-.005.001-.007-.004v-.003l.296-.841zM8.882 24.141c.054 1.394-.049 3.227-1.134 4.265-.765.731-1.789.507-2.483-.171-.908-.887-1.243-2.226-.989-3.447a4.5 4.5 0 0 1 .635-1.521q.012-.02-.01-.013c-1.57.429-3.489-.178-4.52-1.448A1.7 1.7 0 0 1 0 20.892v-.167q.045-.45.282-.797c.477-.697 1.817-.628 2.525-.517 1.092.172 2.148.548 3.136 1.055-.079-.159-.144-.338-.257-.471-.535-.63-1.081-1.286-1.667-1.828-.437-.404-1.376-1.026-1.951-.538-.282.239.039.463.247.522q.189.053.384.085.014.002.011.016l-.055.304a.017.017 0 0 1-.021.014 13 13 0 0 1-.347-.075c-.312-.071-.69-.336-.675-.686.022-.519.693-.734 1.115-.683.743.091 1.352.589 1.852 1.109q.558.582 1.077 1.206l.001.002a.02.02 0 0 0 .03 0l.001-.002q.021-.025-.001-.061a18 18 0 0 1-.689-1.172c-.297-.553-.547-1.163-.551-1.788-.003-.498.214-1.084.739-1.24.475-.141.753.33.747.76a2.5 2.5 0 0 1-.046.451q-.003.012-.015.011l-.307-.045a.02.02 0 0 1-.014-.016v-.003c.047-.236.087-.524-.047-.742-.167-.271-.498.066-.591.239-.29.545-.038 1.347.211 1.862.319.663.71 1.279 1.091 1.907.111.184.326.355.479.517-.189-1.361-.311-2.734-.214-4.101.029-.402.125-.967.363-1.276.342-.443.804-.17 1.087.152 1.308 1.487 1.455 3.701 1.067 5.547q-.009.04.023.014c.469-.371 1.118-.447 1.698-.377.931.113 1.867.532 2.501 1.231.712.785.724 1.788.073 2.61-.363.459-1.008.663-1.586.683-.855.029-1.73-.194-2.516-.537l.297.638.001.004q-.002.006-.008.005l-.004-.002-.596-.573zm10.795 2.13c-1.01.577-2.298 1.104-3.474.878-1.372-.265-1.534-1.577-.944-2.63.71-1.267 2.133-1.871 3.546-1.705h.001a.01.01 0 0 0 .008-.008l-.002-.005c-.94-1.057-1.196-2.685-.693-3.987.23-.593.706-.988 1.363-.956.998.049 1.51 1.56 1.694 2.376q.255 1.13.236 2.295c.124-.153.229-.287.308-.473.267-.628.548-1.271.736-1.904.153-.516.298-1.493-.339-1.788-.283-.131-.336.231-.308.408q.011.069.085.326.004.018-.012.022l-.253.076-.004.001a.02.02 0 0 1-.014-.01c-.068-.225-.135-.452-.089-.687.095-.489.521-.574.892-.301.723.531.465 1.713.215 2.405q-.234.65-.51 1.282a.1.1 0 0 0-.007.03.02.02 0 0 0 .02.017.02.02 0 0 0 .018-.01c.332-.537.674-1.082 1.095-1.555.391-.439 1.082-.922 1.71-.709.35.119.591.45.347.807-.168.246-.431.338-.705.423q-.01.003-.015-.008l-.087-.261q-.005-.014.009-.017c.207-.053.418-.126.551-.304.135-.181-.051-.305-.2-.356-.429-.148-.941.183-1.238.472-.561.545-.966 1.274-1.382 1.929-.123.194-.184.425-.259.642.496-.336 4.486-3.054 4.689-1.569v.114a1.7 1.7 0 0 1-.13.47c-.673 1.545-2.34 2.519-3.915 2.921q-.008.002-.008.01c0 .008.002.008.006.01 1.626.797 1.723 4.645-.516 4.768h-.199c-1.528-.07-1.982-2.027-2.055-3.214l-.385.486-.004.002q-.005 0-.005-.005v-.002l.221-.702z"/></svg>