<svg xmlns="http://www.w3.org/2000/svg" width="30" height="32" viewBox="0 0 30 32"><path fill="currentColor" d="M16.95 1.406q-.209.092-.899.612-.86.652-.86.925 0 .078.241.228c.241.15.241.245.241.436q0 .273-.183.469c-.183.196-.274.195-.456.195l-.195-.352q-.195-.338-.495-.338-.091 0-.247.078c-.156.078-.174.078-.208.078q-.3 0-.521-.651-.183-.534-.169-.729-.3 1.629-.3 1.785 0 .586.235.586.065 0 .202-.039c.137-.039.159-.039.202-.039q.156 0 .345.202c.189.202.189.254.189.358q0 .183-.248.56a5 5 0 0 0-.521-.157q-.286 0-.463.319c-.177.319-.236.319-.358.319q-.235 0-.625-.182l-.6-.313q.482.665.717 1.003.495.678.808.678.182 0 .391-.274c.209-.274.235-.273.287-.273q.508 0 .625.599-.626.326-.573.729.052.364.052.313 0 .443-1.355.782 1.199.234 1.707.234.664 0 .652-.43v-.352q0-.339.521-.339.234 0 .404.196-.156.326-.156.547 0 .261.299.495c.299.234.3.278.3.365q0 .235-.208.665a3.4 3.4 0 0 1-.365.612q.209-.156.755-.547 1.029-.73 1.029-1.081 0-.065-.241-.222c-.241-.157-.241-.243-.241-.417q0-.522.599-.613.3.691.678.691.078 0 .241-.078c.163-.078.18-.079.215-.079q.378 0 .716 1.329.261-1.16.261-1.72 0-.586-.16-.586-.053 0-.213.039c-.16.039-.191.039-.253.039q-.147 0-.359-.195c-.212-.195-.213-.243-.213-.339q0-.104.248-.482.443.104.586.104.352 0 .469-.319c.117-.319.187-.319.326-.319q.286 0 1.303.573a79 79 0 0 1-.768-1.108q-.443-.652-.795-.652-.286 0-.417.274c-.131.274-.182.274-.286.274a.43.43 0 0 1-.352-.157q-.052-.051-.209-.339l.443-.313q.234-.156.234-.339 0-.105-.065-.326c-.065-.221-.065-.252-.065-.313q0-.195.521-.352l.86-.234q-1.317-.235-1.733-.235-.665 0-.717.182-.012.026.02.235c.032.209.032.221.032.247q0 .39-.378.391-.183 0-.534-.247.156-.52.026-.821-.039-.104-.313-.352-.222-.208-.222-.391 0-.353.56-1.107zm-.795 2.866q.834 0 1.446.613c.612.613.612.891.612 1.446q.013.886-.58 1.466c-.593.58-.888.58-1.479.58q-.833 0-1.466-.606c-.633-.606-.627-.883-.619-1.439q.013-.847.625-1.453c.612-.606.894-.606 1.459-.606zm0 .222q-.756 0-1.309.541c-.553.541-.554.793-.554 1.296q0 .769.547 1.303c.547.534.803.534 1.316.534q.795 0 1.329-.522c.534-.522.534-.786.534-1.316q0-.743-.554-1.29c-.554-.547-.806-.547-1.31-.547zm-11.79 4.45q-1.258 0-1.638 1.298a1 1 0 0 0-.773-.328q-.433 0-.721.289c-.288.289-.289.433-.289.721q0 .367.144.511-.302.157-.275.577-.327.04-.531.289c-.204.249-.203.358-.203.577q0 .354.327.694-.406.314-.406.8 0 .315.314.695c.314.38.419.38.629.38q.97 0 1.18-.747.786.144 1.127.472.393.367.393 1.114 0 .327-.033.407c-.033.08-.1.111-.236.177q-.203.099-.295.099-.039 0-.105-.013c-.066-.013-.079-.013-.105-.013q-.236 0-.682.262-.38.223-.459.301l.367.026q.354-.078.524-.079.354 0 .76.131.17.511.197.551h.066q.354-.537.485-.551.065.17.118.341.119.25.288.341 0-.092.144-.341c.144-.249.17-.249.223-.249q.078 0 .38.249c.302.249.375.253.524.262q.066-.263.079-.393h.171q.065 0 .269.052c.204.052.242.052.321.052q.446 0 .446-.157l-.367-.183q.459-.105.642-.079.04-.13-.223-.21a1.3 1.3 0 0 0-.354-.053h-.157a2 2 0 0 1-.171.013q-.079-.013-.426-.125c-.347-.112-.384-.166-.458-.275q-.111-.164-.112-.518 0-.223.078-.695.092-.576.236-.734.091-.105.708-.275.576-.17.774-.171l.616.026q.197.393.616.393.262 0 .466-.21c.204-.21.203-.297.203-.472a.63.63 0 0 0-.341-.577q.183-.419.184-.656 0-.839-.839-1.311.105-.183.105-.249 0-.354-.288-.498a2 2 0 0 0-.288-.079 1.8 1.8 0 0 0-.472-.865 1.26 1.26 0 0 0-.904-.38q-.146 0-.459.059a2 2 0 0 0-.173.039 3 3 0 0 0-.168-.19q-.498-.524-1.154-.524zm23.519.293a12.5 12.5 0 0 0-2.416 2.662q-1.259 1.853-1.259 3.299 0 1.346.738 2.214.782.912 2.112.911 1.187 0 1.997-.825c.81-.825.81-1.225.81-2.026q0-.81-.564-1.664-.361-.492-1.056-1.505-.564-.853-.564-1.751 0-.39.202-1.317zM3.945 12.089q.065 0 .38.053v.577l-.38-.433zm1.495 0q.432.196.59.262.026.511-.59.865zm-2.255.577q.144.236.341.459-.131 0-.433-.072c-.302-.072-.354-.068-.459-.059q0-.183.55-.327zm3.277.878.288.354a4.5 4.5 0 0 0-1.284.446q.196-.236.465-.426zm22.074.222q.29.16.507.644c.217.484.217.605.217.846q0 .71-.535.709-.506 0-.506-.506l.188-.579q.174-.564.174-.868a.6.6 0 0 0-.043-.246zm-25.666.015q.302 0 .596.249c.294.249.295.35.295.55v.17q-.878-.839-1.573-.8.315-.17.682-.17zm20.069 7.086a10 10 0 0 0-1.119.094q-.23.027-.688.216-.513.203-.512.351 0 .633.229.903.606.513.984.741a64 64 0 0 0-.823-.297l-.526-.121a14 14 0 0 1-.229-.971q-1.618 1.308-1.618 3.276 0 1.322.93 1.496.674.135.903.189.377.081.418.094.23.324.229.431 0 .027-.027.094c-.027.067-.027.081-.027.108l-.108 1.617q-.027.364.108.567c.135.203.269.202.539.202a.1.1 0 0 0 .067-.027l.041-.323q.027-.162.027-.202 0-.054-.034-.209c-.034-.155-.034-.173-.034-.209l.162-.513h.108q.243.877.337 1.321.27.013.459 0l.161-1.267h.162q.108-.014.135.054v.957q-.027 0 .068.027.405-.27.634-.431a1.3 1.3 0 0 0-.041-.391.26.26 0 0 1 .028-.175h.209q.168.431.168.525 0 .068-.034.202c-.034.134-.034.157-.034.202q0 .148.108.553.338-.068.593-.122.094-.458.094-.66l-.041-.432a6 6 0 0 1-.04-.418v-1.092q0-.39.647-.499.997-.162 1.186-.256.647-.324.647-1.213v-.108a5 5 0 0 1-.014-.445 5 5 0 0 0-.58-1.658 6 6 0 0 0-.391-.579q-.324-.432-.431-.431.094 0-.526.27c-.62.27-.728.265-.944.256q.823-.444 1.159-.835-1.037-.863-2.723-.863zm-13.958.069q-.236 0-.827.066-.696.079-.749.144l.63.053q1.746.157 1.746.604 0 .171-1.274.381.722.236.814.237.301 0 .67-.197c.369-.197.429-.197.551-.197q.393 0 .643.407.223.341.223.762 0 .328-.158.328-.119 0-.341-.328l-.236-.368a.7.7 0 0 0-.026.184q0 .552.505 1.024c.505.472.689.481 1.057.499a2.4 2.4 0 0 1-.184.735q-.184.5-.42.591-.158-.158-.158-.446 0-.13.085-.407c.085-.277.085-.315.085-.394q-.132.053-.296.282c-.164.229-.173.282-.19.387a3.7 3.7 0 0 0-.053.945q.04.341-.289.762c-.329.421-.442.42-.67.42a.9.9 0 0 1-.407-.092q-.236-.118-.236-.315 0-.315.564-.643.788-.472.919-1.851.039 0-.683.401c-.722.401-.884.4-1.208.4q-.118 0-.466-.092c-.348-.092-.418-.092-.558-.092q-.945 0-1.582.663c-.637.663-.637.979-.637 1.609q0 .893.617 1.615.63.762 1.51.774 2.679.052 3.821-.617-.197 0-.972-.02c-.775-.02-.665-.02-.446-.02q-.066 0-.157-.085c-.091-.085-.092-.107-.092-.151q0-.21.551-.329a3.3 3.3 0 0 1 .683-.079q1.719 0 2.298-1.379.144-.34.144-.512a2.7 2.7 0 0 1-.906.67q-.223.105-.946.302.197-.303.735-.857c.538-.554.604-.673.735-.91q.302-.527.302-1.174 0-1.227-1.077-2.599.17.426.25.639.21.546.21.905 0 .279-.145.399-.84-3.033-3.965-3.033zm-1.655.526q-.447 0-.919.538-.447.486-.526.958.262-.184.381-.276.276-.197.394-.21.08.354.118.551.354-.63.538-.722l.342-.053q.262-.066.262-.302 0-.486-.591-.486zm1.13 1.233a.22.22 0 0 0-.158.065q.315.132.617.565.249.354.565.355.237 0 .479-.151c.242-.151.243-.225.243-.374q0-.459-.433-.46-.184 0-.335.184c-.151.184-.173.184-.217.184q-.08 0-.361-.184c-.281-.184-.321-.184-.4-.184m12.177 1.192q.58 0 1.085.519c.505.519.506.713.506 1.099q0 .485-.903.472h-.741q-.512-.014-.795-.095-.445-.136-.445-.597 0-.53.391-.963c.391-.433.561-.434.903-.434zm4.773.014q.525 0 .93.427c.405.427.404.608.404.97q0 .665-.876.678h-1.55q-.459 0-.459-.472 0-.567.492-1.085c.492-.518.681-.519 1.058-.519zm-2.669 1.725q.04 0 .067.041v.471q0-.188.094 1.241.027.027.081.027.081 0 .081-.189l.148-1.577q.216.486.297.755.095.19.189.364v.418q0 .728-.135.728-.363-.162-.62-.162c-.257 0-.274.009-.31.027a1.2 1.2 0 0 1-.243.094q-.108-.135-.108-.715 0-1.051.459-1.523"/></svg>