<svg xmlns="http://www.w3.org/2000/svg" width="25" height="32"><path fill="currentColor" d="M5.236 6.811a.34.34 0 0 1 .282.138l.426.593a.35.35 0 0 1-.066.476l-.648.488 5.706 6.954c-.066-.08.055.011.188.011s.255-.093.188-.011l5.612-6.887-.742-.56c-.148-.112-.165-.326-.061-.471l.426-.593a.326.326 0 0 1 .459-.078l4.921 3.723a.353.353 0 0 1 .072.477l-.426.587a.333.333 0 0 1-.465.078l-.62-.471-5.363 6.92 4.24 6.183c.577.841.408 1.897-.044 2.704s-1.188 1.468-2.042 1.468H4.648c-.924 0-1.7-.71-2.131-1.579s-.53-1.987.1-2.876L6.94 17.99l-5.286-6.782-.703.526a.325.325 0 0 1-.459-.072l-.426-.598c-.104-.146-.087-.359.061-.471L5.053 6.87a.3.3 0 0 1 .183-.061zm11.585.365-.404.571 4.882 3.69.41-.565zm-11.579 0L.36 10.866l.404.571 4.887-3.696zm13.817 4.637.795-1.025-2.363-1.79-5.629 6.909c-.222.272-.486.271-.736.271s-.514-.001-.736-.271L4.667 8.931l-2.374 1.795 5.463 7.009s.114.153.116.233-.105.244-.105.244l-4.494 6.339c-.422.596-.371 1.385-.039 2.056s.934 1.136 1.417 1.136h12.631c.388 0 .994-.432 1.345-1.058s.444-1.344.089-1.862l-4.406-6.427s-.1-.117-.1-.233.111-.238.111-.238l4.195-5.409a1.06 1.06 0 0 1-.498.124c-.588 0-1.072-.485-1.072-1.074s.484-1.073 1.072-1.073a1.078 1.078 0 0 1 1.043 1.319zm-9.456 6.395c.484-.005.538.497 1.029.51s.363-.294.819-.299c.457-.005.545.409 1.079.438s.584-.289.985-.271l4.24 6.194c.745 1.086-.148 2.322-1.041 2.322H5.312c-.967 0-1.873-1.302-1.218-2.227l4.605-6.494c.115-.163.419-.167.902-.172zm2.264 6.189a.88.88 0 0 0-.786.875.874.874 0 1 0 .874-.875c-.03 0-.059-.003-.089 0zM10.5 19.881c-.722 0-1.306.585-1.306 1.308a1.306 1.306 0 1 0 2.612 0c0-.723-.584-1.308-1.306-1.308m-2.513 3.291a.879.879 0 0 0 0 1.756.878.878 0 1 0 0-1.756m7.093-6.966c0 .589-.484 1.074-1.072 1.074s-1.072-.485-1.072-1.074.484-1.073 1.072-1.073 1.072.485 1.072 1.073m.579-2.531c0 .318-.261.58-.579.58s-.579-.262-.579-.58.262-.58.579-.58.579.262.579.58m4.775-7.1v.001c0 .567-.467 1.034-1.033 1.034s-1.033-.467-1.033-1.034v-.001c0-.567.467-1.034 1.033-1.034s1.033.467 1.033 1.034m4.055-3.894c0 .443-.364.807-.806.807s-.806-.364-.806-.807.364-.807.806-.807.806.364.806.807m.313 3.682v.002c0 .899-.739 1.638-1.636 1.638s-1.636-.739-1.636-1.638v-.002c0-.898.738-1.638 1.636-1.638s1.636.739 1.636 1.638"/></svg>