<svg xmlns="http://www.w3.org/2000/svg" width="24" height="32"><path fill="currentColor" d="M1.759 23.313q-.685-.47-.862-1.119c-.253-.94-.544-1.668-.477-2.671q.044-.651-.048-1.157c-.208-1.134-.11-2.2-.243-3.367-.105-.928.124-1.819.007-2.69-.272-2.033-.243-3.637 1.091-5.289.852-1.057 1.737-2.286 3.031-2.542a10.1 10.1 0 0 1 3.184-.153c.685.077 1.272-.069 1.802-.308 1.265-.568 2.32-.329 3.563-.683 1.587-.449 5.014-1.169 6.429-.122 1.656 1.227 2.854 2.37 2.892 4.372.019 1.088.179 2.141.561 3.15.255.68.232 1.394.449 2.012.783 2.224.375 5.074-.172 7.32-.217.893-.833 1.427-1.141 2.274-.456 1.262-.819 2.308-1.592 3.506-.518.802-.936 1.826-1.563 2.418-2.086 1.966-4.744.795-7.176-.262q-2.478-1.076-5.153-.146a.35.35 0 0 1-.239-.002c-2.224-.826-2.425-3.22-4.344-4.542zM11.463 5.06c-3.51.225-5.995.616-7.379 1.907C1.315 9.55.973 12.633.973 16.118c0 2.516.535 4.797 1.975 6.639 1.814 2.322 4.005 4.279 8.838 4.334 1.658.019 3.238.023 4.497-.494 3.605-1.483 6.693-5.995 6.489-10.744-.231-5.381-1.182-5.756-4.128-8.63-1.118-1.09-.95-1.997-2.272-2.486-1.396-.516-3.404.225-4.91.322zm.632 1.213c5.434 0 9.846 4.412 9.846 9.846s-4.412 9.846-9.846 9.846-9.846-4.412-9.846-9.846 4.412-9.846 9.846-9.846m0 1.599c-4.552 0-8.247 3.695-8.247 8.247s3.695 8.247 8.247 8.247 8.247-3.695 8.247-8.247-3.695-8.247-8.247-8.247m-3.733 8.392c.044.287.31.349.452.336a.386.386 0 0 0 .346-.406v-2.57c0-.301.244-.545.545-.545h1.089c.301 0 .545.244.545.545v2.455c.028.264.164.479.568.478.299 0 .53-.087.568-.475l.24-2.482a.59.59 0 0 1 .571-.52h1.041c.287 0 .498.233.47.52l-.25 2.58c-.004.16-.018.387.277.406.352.023.377-.2.417-.354l.445-2.262a.614.614 0 0 1 .575-.48h.961c.265 0 .438.215.386.48l-.591 3.001a.614.614 0 0 1-.575.48H7.216a.63.63 0 0 1-.58-.472l-.627-2.754c-.059-.261.104-.472.364-.472h.944c.261 0 .52.211.58.472l.464 2.038zm8.476-4.743a.78.78 0 1 1 0 1.56.78.78 0 0 1 0-1.56m0 6.983v1.595c0 .23-.187.417-.417.417H7.182a.417.417 0 0 1-.417-.417v-1.595c0-.23.187-.417.417-.417h9.239c.23 0 .417.187.417.417m-6.582-7.548a.78.78 0 1 1 0 1.56.78.78 0 0 1 0-1.56m-3.321.78a.78.78 0 1 1 0 1.56.78.78 0 0 1 0-1.56m6.74-.78a.78.78 0 1 1 0 1.56.78.78 0 0 1 0-1.56"/></svg>