<svg xmlns="http://www.w3.org/2000/svg" width="19" height="32"><path fill="currentColor" d="M0 22.678V9.173l9.6-3.691 9.6 3.691v10.871c-1.999 0-4.006-.046-6.095.022l.174-2.706h-.949q-.099.388-.256.586a.8.8 0 0 1-.412.272q-.264.075-.8.074H7.934v-.082q.264-.355.817-.981.552-.636 1.188-1.254 1.419-1.337 2.013-2.054.602-.718.842-1.279.247-.561.247-1.212 0-.743-.346-1.295-.339-.56-1.105-.883-.766-.33-1.98-.33-.652 0-1.213.082a8.5 8.5 0 0 0-1.122.248q-.57.156-1.575.561v1.947h1.485q.198-1.006.627-1.468.437-.47 1.097-.47.701 0 1.105.52.404.511.404 1.419 0 .643-.231 1.246c-.231.603-.388.828-.701 1.278q-.462.677-1.353 1.724a30 30 0 0 0-1.6 2.037q-.651.932-.998 1.724v.544h3.972c-2.897.32-6.009.989-9.505 2.365zm19.2-2.634v6.475l-4.342-.027c-2.072-.001-3.481-.138-4.439-.869-.07-.057-.155-.123-.231-.195-.063-.063-.14-.137-.208-.216-.057-.071-.117-.142-.177-.226-.068-.099-.137-.194-.203-.311-.057.092-.127.208-.2.307-.052.068-.114.154-.18.228a3 3 0 0 1-.439.412c-.958.731-2.367.868-4.439.869L0 26.518c6.245-3.934 11.717-5.754 19.2-6.475z"/></svg>