<svg xmlns="http://www.w3.org/2000/svg" width="27" height="32"><path fill="currentColor" d="m7.715 15.392-5.354-4.868q-.07-.063.019-.032l6.072 2.121c-.008-.045-.011-.1-.025-.139Q7.84 10.821 7.23 9.182l-.001-.004q.001-.01.011-.011.005 0 .008.003l2.6 2.531a.04.04 0 0 0 .034.01.05.05 0 0 1 .04.009l1.535-9.74q.007-.05.018 0l2.066 9.633a.1.1 0 0 1 .042-.014.05.05 0 0 0 .033-.016l2.409-2.392q.05-.05.028.017-.564 1.663-1.139 3.335-.012.035.011.111l7.619-2.824.004-.001q.01.001.011.011a.01.01 0 0 1-.004.009l-6.605 5.509 2.887.892q.092.028-.001.054l-2.645.742 4.4 4.958.003.007a.01.01 0 0 1-.011.011l-.004-.001-5.671-2.66q-.024.075-.014.105.69 1.956 1.384 3.907.004.012-.009.018-.016.006-.021-.011c-.893-.879-1.771-1.777-2.679-2.64a.05.05 0 0 0-.031-.013h-.041l-1.712 9.056q0 .004-.005.004-.05.003-.002-.007.003 0 .002-.004l-1.671-8.817a.1.1 0 0 0-.052.023l-2.285 2.425q-.002.003-.005.002a.01.01 0 0 1-.007-.007V23.4l1.255-4.32L3.7 20.628h-.004a.014.014 0 0 1-.014-.014q0-.006.004-.01l3.529-3.529-2.519-.766q-.017-.006-.018-.024c-.001-.018.008-.021.018-.024l2.889-.8c.051-.014.078-.046.126-.069zM20.139 4.033c.364.389.768.767 1.112 1.178q.002.003.002.006a.01.01 0 0 1-.009.009l-.004-.001-1.374-.568q-.06-.025-.077.039c-.012.047-.008.103-.015.145l-.4 2.129q-.002.008-.01.008-.01-.001-.01-.008l-.425-2.272q-.01-.059-.066-.036l-1.401.562-.004.001a.01.01 0 0 1-.01-.01q0-.005.003-.007l1.141-1.182q.008-.008.008-.02c0-.012-.003-.016-.009-.021l-1.137-1.092a.02.02 0 0 1-.005-.011q.002-.014.015-.015l.005.001 1.419.502.008.001a.03.03 0 0 0 .024-.019l.427-2.283q.003-.014.017-.015c.014-.001.016.006.017.015l.42 2.259a.046.046 0 0 0 .062.035l1.366-.493h.007q.01.004.008.018l-.004.007-1.102 1.101q-.02.02-.001.04zM1.666 3.382l-.004-.009q.001-.012.013-.013l.004.001 1.51.536q.018.006.021-.012l.451-2.414.001-.002a.01.01 0 0 1 .012-.004l.002.001q.017.015.021.039.22 1.179.447 2.368.005.019.025.02l.008-.001 1.461-.523.003-.001q.01.001.011.011l-.003.008L4.48 4.541q-.009.009-.009.021c0 .012.003.015.008.021l1.175 1.231.004.008q.002.015-.013.019-.005.001-.009-.001l-1.467-.604q-.024-.01-.03.016L3.68 7.683q0 .007-.008.008c-.008.001-.007-.003-.007-.008l-.451-2.429q-.006-.028-.031-.017l-1.493.599-.004.001a.014.014 0 0 1-.014-.014l.003-.009 1.198-1.241q.015-.015 0-.029l-1.21-1.161zm21.973 16.779q-.009-.044-.049-.027l-2.273.919-.005.001a.01.01 0 0 1-.01-.01.01.01 0 0 1 .004-.008l1.842-1.89q.005-.005.005-.012 0-.01-.006-.013l-1.839-1.773-.003-.008q.001-.01.011-.011l.004.001 2.294.804q.016.006.02-.011l.692-3.664q.003-.011.014-.012.015 0 .015.013.013.158.045.322l.633 3.326a.03.03 0 0 0 .039.022l.003-.001 2.206-.794.006-.001a.02.02 0 0 1 .014.034l-1.783 1.743a.02.02 0 0 0 0 .031l1.788 1.875.002.005q.002.023-.019.015-1.12-.457-2.233-.914l-.007-.001a.02.02 0 0 0-.017.014l-.691 3.652q-.003.01-.014.011c-.011.001-.012-.005-.014-.011-.193-1.215-.449-2.426-.674-3.627M4.585 22.939a4 4 0 0 1-.241.252q-.553.528-1.103 1.074-.016.015 0 .032l1.381 1.437a.02.02 0 0 1 .005.011.016.016 0 0 1-.016.016l-.006-.001-1.721-.711-.006-.001a.015.015 0 0 0-.015.013l-.529 2.805q-.002.01-.012.01c-.01 0-.011-.004-.012-.01l-.52-2.78a.03.03 0 0 0-.031-.026l-.012.002-1.644.66q-.161.064-.04-.06l1.346-1.376q.005-.006 0-.011L.006 22.923a.02.02 0 0 1-.005-.012q.001-.015.016-.016l.006.001 1.733.61q.025.009.031-.018l.508-2.724q.036-.19.063.001.026.186.077.455.216 1.136.426 2.259a.03.03 0 0 0 .032.026l.011-.002 1.684-.606.005-.001q.015.001.016.016l-.001.004a.03.03 0 0 1-.022.023zm12.04 4.94-1.139-1.097a.01.01 0 0 1-.004-.01q.002-.014.015-.015l.005.001 1.44.506q.034.012.04-.023l.44-2.327q.002-.01.013-.011c.011-.001.012.005.013.011l.442 2.336q.006.027.031.018l1.405-.506.007-.001a.021.021 0 0 1 .015.036l-1.125 1.102c-.013.013-.014.035-.001.048l1.143 1.194q.003.003.004.008 0 .013-.015.016l-.01-.001-1.397-.579-.005-.002a.05.05 0 0 0-.061.033l-.001.005-.438 2.321-.003.005a.01.01 0 0 1-.013 0l-.003-.005-.438-2.345a.03.03 0 0 0-.026-.022l-.01.002-1.446.585-.005.001a.014.014 0 0 1-.014-.014q0-.006.004-.009l1.138-1.181q.038-.039-.001-.078z"/></svg>