<svg xmlns="http://www.w3.org/2000/svg" width="100%" height="100%" viewBox="0 0 24 24"><path fill="currentColor" d="M26.225 15.719q.24.774-.436 1.057c-.233.097-.412-.03-.645-.037-.526-.017-.9.258-1.293.564a.1.1 0 0 1-.066.024c-.761.024-.953-.545-.976-1.188a.06.06 0 0 1 .031-.055c.19-.103.416-.196.533-.373.369-.556.157-1.827.084-2.465a.17.17 0 0 0-.091-.131l-.433-.222q-.036-.018-.063.011a1.77 1.77 0 0 0-.462 1.078q-.007.099.089.078c.457-.099.922.362.906.813a3 3 0 0 1-.077.43.07.07 0 0 1-.043.052c-.366.174-.742.344-.596.846q.104.357.235.677v.001a.09.09 0 0 1-.049.113h-.001c-.54.207-1.114.476-1.542-.102-.31-.418-1.1.049-1.495.095-.687.079-1.203-.26-1.764-.712q-.032-.025-.041.015-.113.546-.599.629c-.306.053-.699-.12-1.008-.151a1.4 1.4 0 0 0-.698.125.12.12 0 0 1-.071.007q-.796-.15-.801-.982 0-.036-.034-.025-.21.062-.273.188c-.492.987-.884.858-1.878.889q-.04.002-.029.039c.094.343.177.887.492 1.094.329.216.834.537.955.911.219.678-.48 1.132-1.079.911-.717-.264-1.933-.418-2.601.057a.56.56 0 0 1-.26.112c-.78.079-1.055-.584-.802-1.235a.1.1 0 0 1 .039-.045q.324-.184.594-.442a.08.08 0 0 0 .025-.066c-.07-.864-.638-1.971-1.072-2.692a.14.14 0 0 0-.116-.065.14.14 0 0 0-.132.103c-.13.525-.427 1.072-.152 1.614q.24.472.432.965c.169.432-.022.829-.346 1.116q-.428.38-.852.765-.402.366-.626.425c-.473.124-.867-.296-.928-.763-.155-1.174-.516-2.334-.983-3.447a5.3 5.3 0 0 0-.742-1.265l-.003-.003a.036.036 0 0 0-.051.001l-.003.003-.228.294a.13.13 0 0 0-.027.079v.299a.13.13 0 0 1-.017.063c-.449.757-.855 1.506-.933 2.394a.125.125 0 0 0 .073.126c.62.297.596 1.268-.088 1.473q-.145.044-.462.016c-.676-.061-1.084.083-1.659.422-.356.21-.789.048-.977-.301q-.256-.473.085-.968a.12.12 0 0 1 .055-.044c.57-.235.915-.721 1.171-1.279q.356-.776.959-2.636a.1.1 0 0 1 .042-.054q.206-.132.069-.361a.06.06 0 0 1 .002-.069q.338-.494.495-1.073l.002-.016a.06.06 0 0 0-.051-.059l-.784-.118h-.001a.064.064 0 0 1-.052-.072v-.001c.052-.305.091-.667.262-.91.228-.326.51-.458.926-.434q.627.036 1.253.026c.387-.006.709-.073 1.027.191q.261.215.561.674a27 27 0 0 1 1.035 1.711.04.04 0 0 0 .034.02.03.03 0 0 0 .024-.009.53.53 0 0 1 .337-.119.05.05 0 0 0 .037-.018l.662-.833a.094.094 0 0 0-.029-.14c-.247-.135-.691-.376-.763-.668-.122-.491.201-1.092.784-1.06q.68.037 1.352.138c.47.071.904-.264 1.253.284.27.426.016 1.027.264 1.489q.4.744.752 1.523a.024.024 0 0 0 .023.014.02.02 0 0 0 .021-.011q.218-.348.432-.706c.214-.353.168-.683.531-.985l.004-.004c.012-.013.01-.034-.004-.046l-.004-.003-.568-.368a.1.1 0 0 1-.043-.053c-.258-.679.036-.863.47-1.266q.073-.068.154-.037c.811.303 1.572.321 2.46.278.884-.043 1.253.166 1.407 1.065.103.599.182 1.117.448 1.679a.01.01 0 0 0 .01.008.01.01 0 0 0 .011-.011v-.003c-.18-1.339.409-2.528 1.785-2.863a3.26 3.26 0 0 1 2.124.171c.335.146.593-.138.862-.306a.08.08 0 0 1 .067-.007q.45.145.711.534.027.04.049-.004c.176-.371.524-.605.938-.498q.643.165 1.283.01c.764-.185.98.144 1.255.794a.046.046 0 0 0 .076.013c.947-1.041 2.11-1.111 3.403-.621a.05.05 0 0 0 .053-.016l.226-.331a.055.055 0 0 1 .06-.025q1.236.211 1.159 1.491a.07.07 0 0 1-.048.067q-.256.104-.43.317a.1.1 0 0 0-.022.056c-.012.22.011.41-.119.597-.4.575-1.128.393-1.401-.159a.1.1 0 0 1-.01-.061l.051-.389v-.005a.04.04 0 0 0-.035-.038c-.709-.059-1.045.256-.928.973.209 1.289 2.028.757 2.839.527.82-.233 1.14.833.445 1.239-1.575.917-3.067 1.33-4.719.35q-.384-.228-.652-.7-.055-.098-.022.01zm-.396-2.733c-.082.759-.192 1.592 0 2.341a.09.09 0 0 0 .046.058l.205.104q.053.027.03-.028c-.37-.87-.401-1.954.101-2.782q.052-.086-.025-.022l-.32.261a.1.1 0 0 0-.037.068m4.289-1.301-.228.31a.055.055 0 0 1-.067.019c-.976-.4-1.931-.528-2.846.103-1.267.872-1.296 2.999-.181 4.01.262.238.633.377.976.495 1.349.465 2.614.006 3.776-.717.498-.311.29-1.108-.338-.922-1.012.299-2.907.786-3.069-.843-.037-.376.175-.888.608-.953q.324-.048.664-.005.046.006.043.053l-.028.477a.14.14 0 0 0 .011.066c.25.588 1.145.457 1.147-.189q.002-.493.488-.682a.05.05 0 0 0 .032-.043q.072-1.005-.887-1.216a.09.09 0 0 0-.1.038zm-3.308 3.754c-1.044-1.769.202-3.853 2.329-3.209.394.119.874.42 1.178-.07a.045.045 0 0 1 .061-.016q.256.133.3.424.006.036-.025.057-.477.328-.485.91a.16.16 0 0 1-.068.135q-.122.093-.215-.002-.027-.028-.018-.067c.083-.335.026-.859-.423-.876-.489-.018-.968-.077-1.332.326q-.479.528-.393 1.177c.256 1.931 2.341 1.569 3.617 1.164a.05.05 0 0 1 .033.001.051.051 0 0 1 .011.092c-.86.57-1.934 1.033-3.003.829-.599-.114-1.253-.343-1.569-.876zm-14.94.001a19 19 0 0 0-.92-1.895c-.154-.278-.109-.657-.122-1.028-.014-.426-.335-.763-.782-.64-.147.041-.239.065-.399.037-.329-.055-1.445-.232-1.707-.068-.329.206-.514.805-.132 1.036q.279.167.579.384a.17.17 0 0 1 .044.229c-.171.272-.6.653-.663.956q-.007.035-.043.031a.55.55 0 0 0-.531.207l-.005.005a.04.04 0 0 1-.053-.005l-.004-.006a44 44 0 0 0-1.081-1.784c-.281-.44-.636-.928-1.148-.893q-.731.051-1.465-.001-.382-.027-.546.036c-.4.153-.555.607-.59 1.021q-.003.035.032.042l.707.126a.08.08 0 0 1 .055.035c.177.245-.262 1.038-.407 1.268a.09.09 0 0 0-.01.066l.058.23a.08.08 0 0 1-.025.076q-.171.147-.198.232a29 29 0 0 1-1.015 2.729q-.315.716-1.018 1.129c-.703.415-.097 1.518.608 1.03.591-.409 1.212-.416 1.905-.372.706.046.779-1.073.115-1.231q-.036-.009-.038-.046c-.042-.905.401-1.779.867-2.543.1-.163.083-.31.023-.477q-.015-.039.02-.063.262-.177.382-.472.016-.04.052-.016c.367.259.648.793.832 1.194a14.3 14.3 0 0 1 1.119 3.638q.062.375.162.515c.21.292.59.308.862.065q.585-.524 1.167-1.05c.251-.227.374-.553.246-.887-.141-.364-.671-1.286-.575-1.597q.184-.606.315-1.227.006-.029.035-.032l.356-.046a.05.05 0 0 1 .052.024q.643 1.02 1.048 2.268.12.372.129.696a.1.1 0 0 1-.028.072q-.27.274-.6.468a.1.1 0 0 0-.045.052q-.242.579.191.871c.459.311.837-.195 1.294-.266a4.26 4.26 0 0 1 2.128.204c.606.219 1.126-.412.695-.93-.288-.346-.972-.593-1.097-1.03q-.141-.495-.293-.983-.012-.036.026-.035.365.01.98.004c.508-.005.736-.269.947-.715.132-.281.472-.266.45-.602q-.003-.054.051-.059l.094-.007q.04-.003.045.038c.036.473-.077 1.07.519 1.244q.12.034.31-.018c.416-.117.816-.059 1.233.053.485.131.835-.123.798-.658v-.007c0-.052.043-.095.095-.095q.04 0 .068.029c.42.43 1.054.87 1.691.839q.137-.007.557-.142.377-.122.777-.143c.305-.016.478.403.764.503.278.097.635-.079.891-.175a.05.05 0 0 0 .033-.047l-.004-.02c-.321-.715-.415-1.169.397-1.557a.09.09 0 0 0 .046-.053q.216-.652-.313-.92c-.21-.106-.475-.058-.703-.031l-.01.001a.102.102 0 0 1-.037-.197c.085-.03.135-.132.147-.226q.072-.588.467-1.027a.1.1 0 0 0 .024-.064q-.01-.725-.68-.958a.08.08 0 0 0-.074.011c-.263.189-.549.424-.894.275a3.2 3.2 0 0 0-2.091-.174c-1.51.373-1.915 1.917-1.509 3.26a.08.08 0 0 1-.001.052.079.079 0 0 1-.141.012 5.4 5.4 0 0 1-.748-2.132c-.122-.951-.4-1.116-1.366-1.052-.808.052-1.596.001-2.358-.281a.07.07 0 0 0-.067.01c-.266.195-.505.407-.48.772.025.362.504.564.784.697a.093.093 0 0 1 .004.166c-.501.268-.38.663-.628 1.024a8 8 0 0 0-.59 1.02q-.007.012-.02.012-.018 0-.02-.013zm2.669-1.706.261.655q.006.015.006.032a.09.09 0 0 1-.09.09.1.1 0 0 1-.063-.026.66.66 0 0 0-.498-.197.04.04 0 0 1-.038-.048.77.77 0 0 0-.105-.626.034.034 0 0 1 .029-.052l.01.001.448.134a.07.07 0 0 1 .04.036zm-.204.066q-.013-.011-.019.005-.124.34.191.384.04.006.034-.034a.58.58 0 0 0-.205-.355zm-1.105 1.45a.067.067 0 0 0 .113.037c.286-.279 1.222-1.152 1.069.089a.1.1 0 0 1-.034.06c-.105.08-.213.138-.283.253-.103.168-.244.515-.415.602-.214.109-.706.061-.955.059-1.057-.01.117-1.634.267-1.938.079-.159.099-.554.347-.606a.38.38 0 0 1 .322.073q.03.024.038.062c.097.469-.538.932-.47 1.31zM2.76 18.751l.329.129a.04.04 0 0 1 .017.015.26.26 0 0 1-.014.308.09.09 0 0 1-.087.035 2.97 2.97 0 0 0-2.217.463.07.07 0 0 1-.079-.003q-.141-.11-.075-.278a.08.08 0 0 1 .039-.043c.644-.326 1.103-.997 1.364-1.651q.478-1.199.882-2.407a.105.105 0 0 1 .115-.07q.313.045.531.272a.06.06 0 0 1 .009.07c-.426.763-1.224 2.208-.852 3.122a.07.07 0 0 0 .037.037zm16.975-5.344c.1-.131.161-.213.34-.221q.513-.023.99.154c.05.018.081.069.076.122l-.04.38a.09.09 0 0 0 .035.083l.218.171q.038.032.039.081a.103.103 0 0 1-.127.1c-.79-.197-.889.476-.992 1.049a.06.06 0 0 1-.06.046c-.367-.03-.602-.234-.725-.584q-.253-.728.245-1.382zm.187.038q-.366.405-.347.894c.015.389.111.728.511.852q.04.012.049-.029c.12-.555.207-1.035.87-1.09q.037-.003.01-.029l-.076-.076a.08.08 0 0 1-.024-.071l.049-.376q.005-.035-.028-.047c-.243-.087-.817-.248-1.015-.028zM3.153 14.602c.369-.631.888-1.683-.293-1.866a.04.04 0 0 1-.031-.055c.071-.176.202-.28.407-.257a9 9 0 0 0 1.764.02.26.26 0 0 1 .208.077c.662.684 1.129 1.661 1.795 2.795.227.386.492-.193.543-.349a.092.092 0 0 1 .127-.057q.568.256.386.843c-.205.66-.387 1.086-.115 1.658q.247.522.456.995a.35.35 0 0 1-.085.397L7.082 19.91l-.016.012a.13.13 0 0 1-.188-.055c-.075-.165-.081-.4-.105-.525-.24-1.285-1.067-4.648-2.486-5.105a.125.125 0 0 0-.154.073c-.058.145-.216.512-.362.585-.186.094-.497-.086-.612-.227a.06.06 0 0 1-.005-.066zm18.391-1.406c-.183-.43-1.277-.487-1.661-.446q-.132.014-.314.194-.813.807-.486 1.942.22.764 1.006.911c.4.076 1.747.094 1.284-.742a.06.06 0 0 0-.04-.031l-.459-.118q-.03-.008-.031-.038c-.006-.132.08-.185.207-.179q.542.027 1.533-.044.232-.017.221.235a.06.06 0 0 1-.03.051c-.681.422-.846.854-.596 1.631q.02.059-.043.061l-.215.005a.06.06 0 0 1-.048-.025c-.501-.775-1.31-.449-2.02-.236q-.34.102-.721-.097-1.675-.872-1.244-2.744c.302-1.313 1.878-1.514 2.942-1.113.477.18.816.201 1.203-.135a.102.102 0 0 1 .159.032l.124.254a.07.07 0 0 1-.009.079 2.04 2.04 0 0 0-.452 1.045q-.007.05-.057.051l-.185.007h-.001a.052.052 0 0 1-.05-.066.7.7 0 0 0-.019-.483zm-9.233 4.781c.142.499.835.805 1.198 1.178a.08.08 0 0 1 .021.07c-.036.182-.183.171-.328.118-.884-.321-2.293-.459-3.112.129a.145.145 0 0 1-.222-.076c-.065-.213.39-.462.53-.593.69-.649-.713-3.173-1.104-3.758q-.126-.189-.394-.192a.08.08 0 0 0-.06.025c-.225.24-.553-.084-.631-.294a.13.13 0 0 1 .026-.131q.33-.351.59-.759c.224-.349-.006-.68-.304-.89-.175-.123-.5-.25-.474-.439a.185.185 0 0 1 .193-.158q.696.042 1.409.138c.195.026.361-.01.545-.059l.019-.004a.15.15 0 0 1 .17.13l.001.02c.002.407-.003.98.201 1.351a20 20 0 0 1 1.726 4.194m2.642-4.403c-.061-.128-.183-.29-.339-.323a6.3 6.3 0 0 1-1.675-.624c-.182-.1-.216-.256-.035-.376a.07.07 0 0 1 .064-.01 6.8 6.8 0 0 0 2.638.198c.412-.05.501.173.563.537.067.391.113.813.233 1.173q.342 1.028.975 1.913c.089.125.062.295-.131.253-.558-.121-.897-.214-1.516-.064-.222.054-.27-.165-.268-.343a5.2 5.2 0 0 0-.509-2.333zm8.442-1.79c-.382.126-.519.537-.412.909a.1.1 0 0 0 .035.045l.542.312a.08.08 0 0 1 .043.064c.103.731.321 2.161-.16 2.774-.105.134-.296.195-.442.297a.07.07 0 0 0-.028.065c.077.498.141.905.758.914a.1.1 0 0 0 .067-.023c.489-.397.938-.65 1.585-.527.652.123.903-.411.634-.964a.1.1 0 0 0-.052-.046c-.156-.053-.271-.12-.311-.296-.183-.808-.056-1.608.011-2.4a.1.1 0 0 1 .037-.069l.412-.332q.025-.021.013-.051c-.214-.525-.388-.822-1.012-.674a3 3 0 0 1-1.328.014q-.26-.056-.393-.011zm.02.517q.082-.126.232-.092a3.35 3.35 0 0 0 1.624-.025c.166-.043.282-.016.324.158a.05.05 0 0 1-.023.058q-.338.221-.353.542c-.034.724-.314 2.518.358 2.948.111.071.179.174.083.284a.07.07 0 0 1-.067.022q-1.08-.228-1.899.48a.11.11 0 0 1-.135.005.24.24 0 0 1-.105-.209q0-.036.03-.055c.987-.648.686-2.294.581-3.263-.035-.326-.311-.553-.591-.668a.127.127 0 0 1-.059-.186zm-8.396 5.636a.27.27 0 0 0-.145.187.05.05 0 0 1-.049.038h-.103a.057.057 0 0 1-.054-.059v-.002l.036-.405.004-.017a.077.077 0 0 1 .097-.049l.017.008c.212.13.64.08.885.079a.1.1 0 0 0 .037-.011l.077-.052a.1.1 0 0 1 .062-.019c.058 0 .107.046.111.104l.022.379v.003c0 .024-.02.044-.044.044h-.001l-.129-.002q-.042-.001-.045-.043-.008-.142-.147-.174l-.004-.001a.034.034 0 0 0-.038.029v.004l-.002 1.085a.06.06 0 0 0 .034.056q.017.009.026.01a.1.1 0 0 1 .066.037.109.109 0 0 1-.087.176h-.623q-.043 0-.049-.043l-.012-.098q-.006-.045.034-.067l.047-.025a.08.08 0 0 0 .041-.07v-1.065l-.001-.01a.044.044 0 0 0-.052-.032l-.009.003zm5.49 1.046.021-.394q.002-.051-.049-.051h-.169q-.049 0-.049-.049v-.119q0-.04.04-.04l.634-.002h.002a.077.077 0 0 1 .075.078v.002l-.032.874a.05.05 0 0 1-.046.049q-.129.011-.16-.122a.03.03 0 0 0-.031-.024.03.03 0 0 0-.017.005c-.634.394-1.241.082-1.221-.65.018-.612.631-1.055 1.221-.775a.23.23 0 0 0 .12.028.1.1 0 0 1 .054.007c.05.021.074.078.054.125a.1.1 0 0 1-.034.041l-.367.245a.11.11 0 0 1-.154-.029.13.13 0 0 1-.008-.144.05.05 0 0 0-.01-.055c-.412-.402-.613 1.057.085 1.036q.036-.001.039-.037zm-3.791-.719c.782-.519.708.375.7.787a.09.09 0 0 0 .027.065.2.2 0 0 1 .065.165.06.06 0 0 1-.056.055l-.492.01q-.046.001-.06-.044a.17.17 0 0 1 .04-.167.1.1 0 0 0 .028-.072l-.001-.556a.06.06 0 0 0-.036-.055q-.116-.051-.219.034a.06.06 0 0 0-.025.051v.543q0 .033.022.055a.18.18 0 0 1 .052.161q-.006.037-.044.039l-.51.012q-.05.002-.04-.048.122-.594.057-1.204a.09.09 0 0 0-.04-.068q-.053-.036-.04-.105a.08.08 0 0 1 .055-.062l.5-.166q.042-.014.057.028.028.087-.038.139a.07.07 0 0 0-.028.055l-.013.327q-.001.048.038.022zm7.325-.006c.738-.519.726.362.706.81a.08.08 0 0 0 .031.067q.073.057.045.158-.014.047-.063.047h-.507a.05.05 0 0 1-.05-.041.16.16 0 0 1 .048-.159.1.1 0 0 0 .033-.077l-.001-.531a.1.1 0 0 0-.128-.096l-.105.03a.07.07 0 0 0-.048.064v.545q0 .014.008.025l.079.109q.095.132-.067.132h-.497a.064.064 0 0 1-.061-.046q-.031-.104.044-.162a.1.1 0 0 0 .039-.079l.009-.948a.08.08 0 0 0-.028-.061l-.06-.052a.075.075 0 0 1 .026-.129l.531-.171q.008-.002.015-.002a.05.05 0 0 1 .048.035q.03.096-.052.146a.08.08 0 0 0-.034.062v.302q0 .046.038.019zm3.546-.486c.128-.039.255.003.282.093s-.055.195-.183.234-.255-.003-.282-.093.055-.195.183-.234m-4.414 1.309h.12c.037 0 .068.031.068.068a.07.07 0 0 1-.018.046c-.165.181-.665.303-.668-.091q-.003-.329-.002-.659a.05.05 0 0 0-.033-.054l-.064-.031q-.04-.02-.027-.063c.037-.12.311-.245.406-.4a.087.087 0 0 1 .161.043l.007.189c.001.02.017.036.037.036h.108q.038 0 .04.038.013.188-.155.191-.033.001-.033.034l.001.605a.05.05 0 0 0 .049.049zm7.156.052a.43.43 0 0 1 .412.227.1.1 0 0 1 .011.079c-.108.424-.988.442-.886.015a.1.1 0 0 1 .036-.059l.064-.055a.04.04 0 0 0 .012-.027.04.04 0 0 0-.037-.037l-.012.002q-.177.07-.279-.083-.03-.045.022-.061l.287-.085q.06-.016.002-.042c-.682-.291-.19-1.005.425-.878q.038.008.049-.029.06-.2.281-.174c.02.002.035.018.037.037q.014.147-.108.215a.032.032 0 0 0-.009.05c.373.436.057.68-.317.853a.03.03 0 0 0-.016.025c0 .015.012.027.027.027h.001zm-.026-.26c.07-.02.09-.167.045-.324s-.141-.27-.211-.25-.09.167-.045.324.141.27.211.25m-.069.533q-.073.111.016.185.014.01.031.011a.05.05 0 0 0 .05-.05l-.001-.012-.03-.123a.04.04 0 0 0-.036-.028.04.04 0 0 0-.031.017zm-8.383-.905q-.008-.088-.099-.114a.08.08 0 0 0-.063.009l-.201.127a.1.1 0 0 1-.145-.121l.115-.288a.053.053 0 0 1 .069-.029l.122.049a.1.1 0 0 0 .058.003.51.51 0 0 1 .57.174.1.1 0 0 1 .022.058l.002.689q0 .034.023.058a.25.25 0 0 1 .072.167.04.04 0 0 1-.032.043.73.73 0 0 1-.482-.035.1.1 0 0 0-.085.003c-.69.359-.967-.796.016-.754h.002c.02 0 .036-.018.036-.038V18.5zm-.015.541.023-.275v-.003a.04.04 0 0 0-.033-.036l-.017-.002a.166.166 0 0 0-.177.151l-.002.018c-.007.09.06.17.149.178l.017.002h.003a.04.04 0 0 0 .036-.033zm3.664-.137q.21.269.462.056a.09.09 0 0 1 .147.067.1.1 0 0 1-.018.057c-.361.476-1.139.334-1.125-.339.014-.694.863-.876 1.123-.221q.036.092-.056.128l-.516.198q-.046.018-.016.056zm-.067-.261.183-.058a.043.043 0 0 0 .028-.053l-.003-.01c-.038-.118-.126-.197-.196-.175l-.01.003c-.07.022-.096.138-.058.257l.003.01q.01.029.041.03l.013-.002zm-7.251.272q.214.253.467.039a.074.074 0 0 1 .099.002q.07.066.012.158a.56.56 0 0 1-.224.169c-.48.239-.929-.067-.879-.608.061-.659.832-.751 1.107-.168l.002.003a.107.107 0 0 1-.056.14l-.004.002-.507.195q-.056.021-.017.067zm-.092-.272.224-.064q.014-.006.011-.02l-.006-.022c-.036-.125-.123-.212-.193-.192h-.001c-.07.02-.099.14-.063.265l.006.022a.02.02 0 0 0 .016.012l.005-.001zm8.705-.054-.007.49q0 .02.04.055a.1.1 0 0 0 .043.019.096.096 0 0 1-.019.19l-.543-.006q-.034-.001-.042-.034a.21.21 0 0 1 .047-.191.1.1 0 0 0 .026-.069v-.47a.043.043 0 0 0-.04-.043q-.093-.007-.105-.076-.009-.048.038-.106.089-.111.181-.218a.05.05 0 0 1 .07-.007l.197.153q.033.025.056-.008.159-.234.479-.123.046.016.031.061l-.101.308a.05.05 0 0 1-.05.034l-.242-.016q-.059-.003-.06.055zm.613.452v-.583a.06.06 0 0 0-.026-.051l-.037-.028-.017-.017a.075.075 0 0 1 .018-.103.1.1 0 0 1 .022-.01l.443-.128q.046-.014.046.034v.921q0 .03.023.05.077.066.046.174-.013.045-.061.044l-.504-.013a.055.055 0 0 1-.054-.055q0-.012.005-.024l.091-.192a.1.1 0 0 0 .005-.019m1.312-.767c.177-.152.448-.237.609-.053.136.156.081.629.081.843a.08.08 0 0 0 .03.063q.088.069.049.178a.06.06 0 0 1-.055.038l-.511-.008q-.076-.002-.046-.072l.082-.192q.002-.006.002-.013v-.584a.053.053 0 0 0-.058-.047l-.006.001-.177.042q-.038.009-.038.049v.557q0 .033.025.055.087.075.036.18a.06.06 0 0 1-.056.034l-.501-.014q-.081-.003-.05-.077l.065-.159a.2.2 0 0 0 .014-.071v-.561a.07.07 0 0 0-.026-.056.12.12 0 0 1-.047-.094c0-.035.023-.065.057-.075l.427-.118.013-.002c.024 0 .044.02.044.044v.093q0 .051.04.018z"/></svg>