<svg xmlns="http://www.w3.org/2000/svg" width="100%" height="100%" viewBox="0 0 24 24"><path fill="currentColor" d="M23.707 12.657c.053-.221.055-.481.129-.672q.384-.993 1.357-1.163.36-.063 1.113.054 1.896.297 3.792.589c.967.148 1.702.478 1.881 1.503q.061.351-.046 1.032a816 816 0 0 1-.704 4.428c-.029.185-.056.34-.122.52q-.43 1.185-.889 2.357a.06.06 0 0 1-.057.039q-5.185 0-10.365.011-.402 0-.718-.231a.09.09 0 0 0-.074-.016c-.554.113-1.121.266-1.669.062-.633-.236-1.078-.914-1.23-1.562q-.006-.019-.026-.02c-.02-.001-.025.009-.027.022-.106.799-.446 1.452-1.283 1.623q-.345.07-1.166-.062l-3.554-.576q-.668-.108-1.09-.409a.06.06 0 0 0-.071-.004q-.27.146-.383.168a672 672 0 0 1-3.956.755c-.811.152-1.29.066-1.878-.484a11 11 0 0 1-1.516-1.707c-.541-.774-.252-1.831.464-2.384q.04-.03-.003-.058c-.593-.352-.853-.768-1.096-1.438-.335-.92-.821-1.754-.263-2.669q.395-.648 1.169-.8a848 848 0 0 1 4.494-.871c1.191-.227 2.112.314 2.331 1.555q.052.294.082.432.02.097.04 0c.049-.252.066-.535.159-.755q.393-.937 1.321-1.102.365-.066 1.158.058l4.268.658q.31.048.698.33a.06.06 0 0 0 .071.001q.36-.256.614-.306 2.151-.405 4.302-.816.717-.137 1.081-.089 1.051.138 1.443 1.2c.082.223.108.538.173.798q.026.1.05-.001zM24.904 20l.062-.813c0-.009-.007-.018-.016-.019l-2.073-.16c-.251-.019-.472.155-.49.387l-.001.005c-.018.231.174.438.425.457h.001l2.072.16h.002q.015-.002.018-.017m-9.258-7.594q-.24-.208-.432-.238-2.296-.36-4.596-.714c-.999-.154-1.453.213-1.612 1.193q-.168 1.03-.323 2.064-.035.234.013.467c.217 1.063.581 2.1.002 2.912q-.024.034.007.062a1 1 0 0 0 .495.252l4.736.736c.888.139 1.298-.428 1.421-1.211q.31-1.975.613-3.948c.107-.697.189-1.128-.325-1.574zm-2.159 2.488-.183 1.156a.64.64 0 0 1-.731.531l-1.161-.184a.64.64 0 0 1-.531-.731l.183-1.156a.64.64 0 0 1 .731-.531l1.161.184a.64.64 0 0 1 .531.731m11.906 2.892-.008.682v.001c0 .031.026.057.057.057l.017-.003a.71.71 0 0 1 .573.062.07.07 0 0 0 .065.002q.438-.224.819.073.038.029.071-.004.427-.416.982-.152.039.018.057-.021c.196-.431.409-.74.93-.741.5-.002 1.247-.083 1.712.074l.013.002c.022 0 .04-.017.042-.039q.008-.09.037-.28l.566-3.655c.163-1.058-.096-1.567-1.188-1.74a834 834 0 0 0-4.2-.653c-.907-.139-1.432.178-1.583 1.103q-.175 1.073-.336 2.15-.036.24.011.48c.139.716.453 1.714.252 2.422q-.014.045.033.048l1.032.081q.047.005.047.051zm3.425-2.894-.183 1.158a.64.64 0 0 1-.729.53l-1.164-.184a.64.64 0 0 1-.53-.729l.183-1.158a.64.64 0 0 1 .729-.53l1.164.184a.64.64 0 0 1 .53.729m-2.14 5.135-.527.931q-.026.046.026.046h.775a.07.07 0 0 0 .066-.038q.42-.735.831-1.474c.302-.545-.345-.909-.646-.378q-.203.357-.418.713a.03.03 0 0 1-.022.013c-.013 0-.025-.011-.025-.024-.015-.245.135-.875-.283-.866-.401.009-.28.713-.276.98q0 .04.041.04h.426q.066 0 .033.057zm-1.771.983.062-.811v-.002a.02.02 0 0 0-.015-.017l-2.091-.16a.437.437 0 0 0-.477.387v.004c-.018.231.168.436.412.455l2.09.16h.002a.02.02 0 0 0 .017-.015zm.504-1.038h.52a.023.023 0 0 0 .023-.023v-.723a.266.266 0 0 0-.259-.27h-.049a.266.266 0 0 0-.259.27v.723c0 .013.011.023.023.023zm-4.199-1.033v1.051q0 .041-.041.041l-1.473.002c-.636.002-.547.831-.087.83l1.915-.001c.336 0 .541-.113.541-.468q0-.911.006-1.822.004-.526-.475-.527c-.434 0-1.844-.108-2.162.079-.374.219-.173.775.255.773q.741-.005 1.481.001.04.001.04.041m8.581.063-.695 1.966q-.02.057.04.057h.689c.032 0 .06-.02.071-.05q.377-1.075.758-2.149c.135-.382.016-.614-.415-.616q-.704-.004-1.364 0a.34.34 0 0 0-.302.186l-.53 1.029a.04.04 0 0 0-.004.019c0 .023.019.041.041.041l.755-.013q.032-.002.048-.029l.237-.447a.06.06 0 0 1 .061-.036h.58q.048 0 .032.045zm-13.241-4.679q.373.163.762.092 1.546-.282 3.094-.556c.49-.088.511.211.593.613q.13.64.235 1.285.067.414-.306.486-1.466.276-2.933.559-.469.091-.67.227c-.952.642-.415 2.172.707 2.112q.172-.01.708-.128a.05.05 0 0 0 .041-.05c-.007-.852.099-1.359 1.089-1.361.53-.002 1.885-.135 2.284.169.02.016.049.015.068-.002.371-.333.836-.236 1.361-.156.31.047.245-.599.22-.733q-.388-2.131-.789-4.259c-.216-1.146-.619-1.504-1.816-1.278l-4.399.832q-.174.033-.427.22-.033.024-.012.06c.345.594.212 1.119.11 1.72a.14.14 0 0 0 .081.15zm-9.336-2.789c-.384-.329-.73-.309-1.252-.21l-4.149.783q-.486.092-.684.218c-.578.368-.667 1.162-.259 1.701.369.487.905.444 1.513.328q1.357-.258 2.716-.501.423-.075.504.321.147.717.273 1.44c.053.306.058.557-.292.627q-.8.157-2.809.535-.556.105-.781.256c-.821.551-.571 1.827.384 2.065q.248.062.656-.015 2.07-.386 4.137-.78c.631-.121 1.133-.271 1.285-.906q.072-.3-.078-1.089a456 456 0 0 1-.749-4.042 1.23 1.23 0 0 0-.417-.733zm15.393 7.254a.25.25 0 0 0 .126.045l2.158.175h.004c.024 0 .045-.02.045-.045v-.755q0-.043-.043-.047l-1.982-.173c-.493-.043-.732.503-.307.799z"/></svg>