<svg xmlns="http://www.w3.org/2000/svg" width="19" height="32"><path fill="currentColor" d="M0 22.678V9.173l9.6-3.691 9.6 3.691v10.871c-2.192 0-4.393-.055-6.702.044v-.503a4 4 0 0 1-.437-.148.66.66 0 0 1-.272-.231 1.1 1.1 0 0 1-.14-.412 5 5 0 0 1-.041-.701v-1.229h2.104l.099-1.823h-.866q-.106.38-.231.528a.6.6 0 0 1-.28.206q-.165.05-.569.049h-.256V8.813H9.753l-5.007 7.16v.891h4.421v1.229q0 .388-.025.643c-.025.255-.055.311-.115.421a.7.7 0 0 1-.272.256 2.5 2.5 0 0 1-.47.173v.545h3.405c-3.514.208-7.298.82-11.688 2.548zm19.2-2.634v6.475l-4.342-.027c-2.072-.001-3.481-.138-4.439-.869-.07-.057-.155-.123-.231-.195-.063-.063-.14-.137-.208-.216-.057-.071-.117-.142-.177-.226-.068-.099-.137-.194-.203-.311-.057.092-.127.208-.2.307-.052.068-.114.154-.18.228a3 3 0 0 1-.439.412c-.958.731-2.367.868-4.439.869L0 26.518c6.245-3.934 11.717-5.754 19.2-6.475zm-12.855-4.22v-.14l2.821-4.248h.083a40 40 0 0 0-.083 2.499v1.889z"/></svg>