<svg xmlns="http://www.w3.org/2000/svg" width="21" height="32"><path fill="currentColor" d="M10.667 2.676c-2.856 0-5.505.81-7.462 2.346S0 8.844 0 11.668c0 2.113 1.203 4.088 2.467 5.672.632.792 1.287 1.486 1.832 2.044s.992.995 1.155 1.191c.559.675.98 2.431 1.125 3.912-.289.176-.467.698-.46 1.125.007.407.13.886.72 1.088q.091.031.181.061c.176.398.405.782.695 1.131.68.817 1.7 1.433 2.951 1.433s2.271-.616 2.951-1.433c.29-.348.519-.732.695-1.131q.09-.03.181-.061c.59-.202.713-.681.72-1.088.007-.427-.17-.948-.46-1.125.145-1.481.566-3.238 1.125-3.912.162-.196.61-.634 1.155-1.191s1.2-1.252 1.832-2.044c1.264-1.583 2.467-3.559 2.467-5.672 0-2.823-1.248-5.109-3.205-6.646s-4.606-2.346-7.462-2.346zm0 .967c2.673 0 4.821.904 6.573 2.28s2.63 3.225 2.63 5.769c-.402 4.152-2.357 5.297-4.735 7.819-.957 1.154-1.141 3.838-1.222 5.545-1.504.62-2.138.647-3.247.647s-1.743-.027-3.247-.647c-.08-1.707-.265-4.391-1.222-5.545-2.378-2.522-4.333-3.666-4.735-7.819 0-2.544.878-4.394 2.63-5.769s3.9-2.28 6.573-2.28zm0 3.489c-1.136 0-2.111.511-2.576 1.246a2 2 0 0 0-.145-.042c-1.163-.305-2.203.218-2.346 1.167-.74.325-1.24.947-1.24 1.657 0 1.046 1.091 1.893 2.431 1.893.74 0 1.399-.258 1.844-.665.264.478.431 1.129.532 1.838.439.03.961.073 1.5.073s1.06-.043 1.5-.073c.101-.709.268-1.36.532-1.838.445.408 1.105.665 1.844.665 1.34 0 2.431-.847 2.431-1.893 0-.71-.5-1.332-1.24-1.657-.143-.949-1.183-1.472-2.346-1.167l-.145.042c-.465-.734-1.44-1.246-2.576-1.246m-1.651 3.671.163.224c.458.617.916.974 1.487.974s1.03-.356 1.488-.974l.163-.224.151.236c.252.392.568.747 1.016.919s2.431-.121 2.431-.121c-.953.408-2.012.699-2.57.484-.468-.18-.784-.519-1.04-.871-.456.554-.98.937-1.639.937s-1.183-.383-1.639-.937c-.256.352-.572.691-1.04.871-.558.215-1.617-.075-2.57-.484 0 0 1.983.293 2.431.121s.763-.527 1.016-.919zm-.03 2.902c-1.523.07-2.733.13-2.733.448 0 .344 1.254.631 2.987.738.113 1.263.073 2.596.073 3.423 0 .128.605.23 1.354.23s1.354-.102 1.354-.23c0-.827-.04-2.16.073-3.423 1.733-.106 2.987-.394 2.987-.738 0-.317-1.21-.377-2.733-.448-.016.07-.028.26-.042.333.665.009 1.463.015 1.463.079 0 .209-1.387.375-3.102.375s-3.102-.166-3.102-.375c0-.064.798-.07 1.463-.079-.014-.073-.026-.262-.042-.333m.223 4.421c-1.005.094-1.699.28-1.699.496s.69.402 1.693.496c-.218.611-.742 1.197-1.33 1.778 0 0 1.336.424 2.777.424s2.81-.424 2.81-.424c-.589-.581-1.113-1.167-1.33-1.778 1.003-.094 1.693-.281 1.693-.496s-.694-.401-1.699-.496c.121.058.194.123.194.194 0 .231-.738.417-1.651.417s-1.651-.186-1.651-.417c0-.07.072-.135.194-.194zM7.45 20.768l.454 3.749s1.236.659 2.763.695c1.527-.036 2.763-.695 2.763-.695l.454-3.749s-2.105.869-3.217.895c-1.112-.026-3.217-.895-3.217-.895m.598 1.034s1.472.629 2.618.629 2.618-.629 2.618-.629-.878.907-2.618.907-2.618-.907-2.618-.907m0 .871s1.472.629 2.618.629 2.618-.629 2.618-.629-.878.907-2.618.907-2.618-.907-2.618-.907m0 .871s1.472.629 2.618.629 2.618-.629 2.618-.629-.878.907-2.618.907-2.618-.907-2.618-.907m-.302 3.452c.97.283 1.915.447 2.921.447s1.951-.164 2.921-.447c-.575.595-2.008.78-2.921.78s-2.345-.185-2.921-.78"/></svg>