<svg xmlns="http://www.w3.org/2000/svg" width="19" height="32"><path fill="currentColor" d="M9.6 5.494 0 9.185V22.69c7.646-3.011 13.455-2.634 19.2-2.634V9.185zm9.6 14.562c-7.438.717-12.888 2.521-19.086 6.405 5.517.007 8.189.473 9.486-1.774 1.307 2.263 4 1.773 9.6 1.773zM7.537 9.305h3.873l-.009.015-.948 1.537v5.57c1.029-.449 1.496-.926 1.671-1.431.176-.507.058-1.043-.084-1.605s-.307-1.15-.222-1.759.422-1.239 1.281-1.884l.014-.011.001.017c.113 1.406.369 2.552.884 3.22l1.072-1.515.004.023c.653 3.383-.023 5.686-1.331 7.083-1.112 1.187-2.678 1.721-4.271 1.709-1.593.011-3.159-.522-4.27-1.709-1.308-1.398-1.984-3.7-1.331-7.083l.005-.023.013.019 1.059 1.496c.515-.668.771-1.814.884-3.22l.001-.017.014.011c.859.645 1.196 1.274 1.281 1.884s-.08 1.197-.222 1.759-.26 1.098-.084 1.605c.175.505.643.983 1.672 1.431v-5.57z"/></svg>