<svg xmlns="http://www.w3.org/2000/svg" width="100%" height="100%" viewBox="0 0 24 24"><path fill="currentColor" d="M24.026 5.012a1 1 0 0 0-.157.213l-.002.011a.03.03 0 0 0 .041.028c.111-.049.171-.103.281-.199l.005-.004q.273-.239.514-.529a.02.02 0 0 0 .004-.013.02.02 0 0 0-.018-.021h.001q-.018-.003-.036-.002a.27.27 0 0 0-.173.063 7 7 0 0 0-.461.453zm5.097 3.72-.001.001a.33.33 0 0 0 .051-.248.04.04 0 0 0-.014-.022c-.166-.113-1.031.551-1.193.739a.02.02 0 0 0-.006.016l.002.009c.037.095.104.212.224.17l.012-.004c.099-.034.194-.077.276-.123.103-.084.195-.164.312-.237.147-.091.215-.207.337-.3zm-26.356 8.22c-.25-.042-.519-.134-.725-.172a1.5 1.5 0 0 0-.35-.031c-.134.006-.11.166-.057.238q.005.007.006.016a.03.03 0 0 1-.017.025l.007-.001a1.4 1.4 0 0 1-.182.012l-.05-.001a8 8 0 0 0-1.029.026c-.118.012-.368.097-.368.244q0 .398.363.51c.03.009.058.001.087.02a.1.1 0 0 0 .024.009q.211.024.423.006c.058-.005.133-.036.211-.021l.01.001.016-.003q.35-.14.707-.259c.043-.014.124-.027.173-.055q.078-.046.101-.055c.179-.073.348-.161.522-.244.07-.034.144-.046.22-.064q.01-.004.011-.014v-.003l-.027-.142a.024.024 0 0 0-.017-.02l-.057-.021zm27.696 2.472a.03.03 0 0 1 .016-.013c.068-.019.229-.093.198-.188q-.004-.014-.016-.018c-.201-.092-.468-.133-.685-.18h.002a.3.3 0 0 0-.103 0 .02.02 0 0 0-.018.017l-.022.089a.03.03 0 0 1-.017.019.8.8 0 0 1-.369.063 1.5 1.5 0 0 0-.302.026c-.409.074-.142.501.133.518.316.02.649-.126.962-.234.065-.022.13-.071.206-.09l.007-.004.006-.007zm-3.092 3.324.069-.119.001-.003q0-.004-.004-.006l-.761-.443c-.147-.085-.279-.134-.295-.108l-.02.035c-.015.026.093.118.239.204l.761.443q.006.003.009-.003zm-.033 2.801-.002-.011a1.6 1.6 0 0 0-.273-.628l-.002-.004a1.2 1.2 0 0 0-.304-.296l.007.004a2 2 0 0 0-.788-.324c-.279.303.252.716.452.885.149.126.369.271.561.421.082.063.382.176.351-.048zm-2.711 1.631c-.119-.139-.233-.287-.346-.412l-.01-.011a14 14 0 0 0-1.173-1.144 2 2 0 0 0-.14-.11c-.108-.077-.274-.219-.394-.108-.149.137-.051.437.019.576.186.362.425.743.609 1.052q.26.437.546.858l.002.003q.125.182.324.293a.04.04 0 0 0 .02.006h.003c.454-.037.909-.572.539-1.003zm-.204-.698q.008.006.013.015v.001q.017.039.056.058a.03.03 0 0 1 .014.016v.001a.1.1 0 0 0 .023.037c.634.628 1.255 1.289 1.879 1.904.081.081.233.206.357.159a.48.48 0 0 0 .324-.378c.007-.044 0-.109-.03-.139l.006.006a26 26 0 0 0-2.205-1.915c-.283-.22-.548-.453-.82-.684-.066-.057-.275-.099-.239.059q.045.201.193.302a.02.02 0 0 1 .009.016v.004c-.014.089.115.189.193.277.026.028.037.073.09.091a.02.02 0 0 1 .014.015l.001.002a.4.4 0 0 0 .122.153m-2.5.68q.095.117.17.176a.1.1 0 0 1 .014.018v.001a.1.1 0 0 0 .025.031.03.03 0 0 0 .018.007h.01q.029.001.046.023.01.01.023.005l.066-.028a.05.05 0 0 0 .02-.016.6.6 0 0 1 .091-.086c.037-.03.063-.135.081-.147a.02.02 0 0 0 .011-.015l.023-.137a.02.02 0 0 0-.004-.014l-.053-.066a.03.03 0 0 0-.025-.014.05.05 0 0 1-.041-.032l-.012-.018c-.035-.034-.072-.051-.105-.085l-.002-.002a5 5 0 0 0-.202-.198.03.03 0 0 0-.022-.009.12.12 0 0 1-.089-.038.1.1 0 0 0-.021-.013 4 4 0 0 1-.273-.1c-.169-.071-.193.164-.132.244.131.17.238.337.381.515zm-1.293 1.612a.03.03 0 0 1-.013-.013.1.1 0 0 0-.013-.019c-.189-.19-.377-.366-.63-.475a.04.04 0 0 1-.02-.019q-.057-.11-.184-.098a.03.03 0 0 0-.02.011c-.055.074-.005.19.033.265.072.141.401.823.581.796h.003a.55.55 0 0 0 .378-.234.04.04 0 0 0 .007-.025v.001-.012a.19.19 0 0 0-.122-.177zm.761 1.229-.076-.004q-.013-.001-.017.012c-.052.179.128.555.225.72q.054.09.089.18c.039.1.095.27.182.322.126.076.29-.066.383-.149q.09-.041.048-.102a6 6 0 0 1-.329-.532c-.027-.051-.071-.063-.102-.102a6 6 0 0 1-.179-.258.03.03 0 0 0-.019-.014l-.206-.073zM14.304 3.802l.01.219a.9.9 0 0 0-.003.29c.052.291.095.935.383 1.103.258.151.431-.337.445-.525a10 10 0 0 0 .027-.636.03.03 0 0 1 .036-.028c.173.047.317.142.471.233.156.091.285.065.435-.006.085-.04.142-.11.267-.103q.014.001.014.014c.012.152-.011.29-.028.44a.4.4 0 0 0 .016.158.02.02 0 0 0 .018.016.2.2 0 0 0 .079.003c.332-.046.669-.113 1.005-.117.145-.001.296.062.429.114a.1.1 0 0 1 .02.014c.109.141.223.304.33.472l.016.027q.008.013.043.04a.1.1 0 0 1 .014.018.12.12 0 0 0 .058.06.05.05 0 0 1 .023.02q.04.057.099.092l.009.002a.02.02 0 0 0 .016-.011q.069-.206-.078-.335c-.072-.062-.093-.133-.162-.189-.048-.04-.152-.164-.086-.226l.295-.027a1.4 1.4 0 0 0 .568.057l-.006.001q.014-.003.015-.016a.02.02 0 0 0-.009-.014c-.102-.05-.306-.142-.155-.283.198-.185.406-.081.627-.007a.03.03 0 0 1 .021.03v.003l-.021.217v.002q0 .014.013.02l.098.048q.011.006.016.018a.9.9 0 0 1 .063.493l.001-.005a.03.03 0 0 1-.015.021c-.167.084-.288.15-.276.361.005.096.083.188.135.273a.05.05 0 0 0 .037.021.04.04 0 0 0 .031-.014c.267-.285.537-.552.815-.81l.011-.01c.009-.009.031-.02.04-.025q.044-.027.055.024c.022.104.016.301.082.371q.024.026.044-.004a10 10 0 0 0 .409-.699q.025-.048.09-.046.012 0 .013.013.005.05.005.108 0 .203-.069.384l.002-.008c-.075.205-.089.421-.176.618-.058.12-.115.265-.162.414l-.006.024a.234.234 0 0 0 .053.217.03.03 0 0 0 .02.012c.383.084.631-.157.833-.443.121-.171.361-.247.476-.017.021.041.03.095.051.139a.06.06 0 0 0 .07.03.7.7 0 0 1 .216-.035h.017-.001q.015 0 .011.014c-.07.215-.188.388-.318.569a.16.16 0 0 0-.037.065v.001a1 1 0 0 0-.121.266l-.002.007-.002.011c0 .022.018.039.039.039l.007-.001a.2.2 0 0 0 .062-.032c.52-.396.981-.796 1.415-1.223l-.002.002q.307-.303.635-.604a.03.03 0 0 1 .023-.009q.017.001.028.014l.042.06q.007.011.002.025a.7.7 0 0 1-.081.134l.001-.001q-.23.236-.444.487c-.368.431-.771.837-1.101 1.255-.091.115-.215.235-.31.362a.05.05 0 0 0-.009.028c0 .026.021.047.047.047q.016 0 .028-.011c.509-.4.965-.845 1.431-1.299q.031-.03.103-.038.01-.001.02.007c.073.075-.053.234-.116.306-.121.141-.267.291-.37.414a7 7 0 0 0-.684.976l-.018.033a.1.1 0 0 0-.007.027q.001.026.019.041c.092.075.196.105.312.055q.2-.085.352-.212l-.003.002c.276-.222.503-.391.871-.414q.165-.01.332-.016c.165-.006.293-.069.437-.145a16 16 0 0 0 1.789-1.095l-.048.033q.066-.046.315-.156c.009-.004.02 0 .024.009l.034.077.002.009a.02.02 0 0 1-.007.015c-.029.03-.059.062-.092.087q-.693.507-1.382 1.018c-.431.32-.838.661-1.278.985q-.032.023.003.044l.208.118a.03.03 0 0 1 .014.023c.011.148.019.262-.106.365q-.233.192-.457.395c-.052.047-.133.057-.073.156.198.325.605.358.805.66q.104.155.203.313c.021.033.041.035.077.03q.213-.026.4-.099c.251-.098.507-.173.754-.273q.27-.109.537-.221a.58.58 0 0 1 .35-.035c.114.027.067.228.025.288a3 3 0 0 0-.145.221l-.008.014a.1.1 0 0 0-.005.02v.008l.001.017v-.001q.003.01.013.011l.006-.002c.51-.239 1.018-.485 1.534-.706q.515-.22 1.022-.457c.07-.032.179-.102.285-.131a.07.07 0 0 1 .073.026c.086.122-.257.268-.323.312-1 .65-1.606 1.062-2.209 1.481l.346-.228c-.092.063-.221.126-.322.202a.03.03 0 0 0-.011.022c0 .015.012.027.027.027h.004c.105-.011.314-.072.389-.003a.03.03 0 0 1 .009.02q0 .045-.039.062a2 2 0 0 1-.546.146l-.01.001c-.169.02-.299.106-.464.128-.29.037-.599.172-.879.263-.135.045-.33.163-.362.322-.044.214.011.445-.051.66-.043.151-.125.278-.199.416a.02.02 0 0 0-.004.015.03.03 0 0 0 .029.03 1 1 0 0 0 .17-.002c.33-.03.668-.075.998-.062.26.011.453.017.597.212a.15.15 0 0 1 .029.134c-.02.082-.172.227-.236.289-.235.228-.483.465-.734.698l-.029.026a.2.2 0 0 1-.048.029l-.017.004h-.006l-.541-.062a.03.03 0 0 0-.031.031v.005a.8.8 0 0 0 .151.353c.093.132.211.307.248.463.005.02.023.034.044.032.434-.029.871-.046 1.295-.077a39 39 0 0 1 1.731-.101q.271-.003.466-.019c.398-.033.796-.054 1.195-.079.151-.009.296.002.444.012q.015.001.011.016a.15.15 0 0 1-.118.111h-.001c-.204.042-.395.108-.603.136-.173.024-.4.027-.561.087-.1.038-.217.07-.339.09l-.011.002a1 1 0 0 0-.176.049l.008-.002a1 1 0 0 1-.245.05c-.313.02-.575.044-.834.074l.076-.007q-.018.007-.019.025 0 .007.003.013c.041.076.172.047.245.053.269.021.546-.005.805-.001q.89.017 1.593.017c.109 0 .216.013.316.011q.36-.008.718.041.013.001.016.014c.036.139-.13.212-.238.264-.191.092-.454.114-.659.111q-.39-.006-.586-.006c-.157 0-.307-.018-.461-.019-.648-.002-1.317-.031-1.962.032q-.056.006-.034.067c.026.071.11.075.173.094.102.031.333.231.388.323a.32.32 0 0 0 .052.218l-.009.03q-.005.013-.017.013l-.406-.014c-.012 0-.023.01-.023.022q0 .006.003.011c.09.165.229.294.398.368l.005.002c.15.067.281-.029.412-.107a.03.03 0 0 1 .022-.004c.057.007.082-.021.119-.034l.213-.076a.02.02 0 0 1 .023.003c.03.017.049.048.049.084q0 .032-.017.055a.6.6 0 0 1-.387.238h-.003a3.6 3.6 0 0 0-.675.145c-.094.03-.21.011-.32-.018-.251-.066-.497-.119-.746-.217-.138-.054-.236-.242-.102-.356q.168-.144.346-.278c.03-.022.081-.042.103-.089l.003-.012a.03.03 0 0 0-.03-.03l-.411-.008c-.155-.002-.169-.084-.256-.181a2 2 0 0 0-.095-.097.032.032 0 0 0-.051.012.7.7 0 0 1-.214.294l-.001.001c-.043.033-.154.053-.178.083-.109.132.155.335.247.411.154.125-.152.442-.267.53l-.284.05a.4.4 0 0 1-.159.03q-.014 0-.017.013c-.063.206-.123.364-.04.543a.11.11 0 0 0 .087.057c.282.025.452.101.685.274.22.163.489.009.755.044a.02.02 0 0 1 .014.016v.001c-.004.111-.15.173-.234.221-.06.034-.288.213-.198.316.184.209-.005.368-.195.482l-.014-.001a.13.13 0 0 0-.089.036.04.04 0 0 1-.022.011l-.226.029a1 1 0 0 1-.068-.188l-.002-.007c-.042-.166-.187-.322-.311-.434a.03.03 0 0 0-.02-.008h-.002l-.224.012a.02.02 0 0 0-.021.016 1 1 0 0 0-.039.149l-.001.006c-.035.294-.194.516-.285.772q-.026.04-.016.112-.005.332.071.654c.051.219.023.343-.217.364a9 9 0 0 1-.434.026.055.055 0 0 0-.054.055v.005q.029.327.067.637a.35.35 0 0 1-.041.217l.001-.002c-.208.057-.635.118-.745.301a.059.059 0 0 0 .021.08 1 1 0 0 1 .157.11q.01.009.024.012.111.027.108.149c-.007.35-.124.671-.317.932l.003-.004c-.059.08-.285.285-.391.229-.153-.081-.275-.244-.374-.388a.03.03 0 0 0-.019-.014c-.411-.123-.233.569-.555.615-.204.029-.444.057-.5.301-.036.155-.031.333-.056.477-.064.381-.378.716-.69.921-.404.265-1.027.22-1.396-.087a.02.02 0 0 0-.016-.006h-.004l-.147.019a.04.04 0 0 0-.03.019c-.169.266-.271.546-.366.844-.029.091-.02.193-.047.292-.015.093-.027.173-.073.258a.4.4 0 0 0-.037.095l-.001.003q-.006.023-.026.011c-.093-.06-.142-.16-.224-.211-.104-.065-.347-.151-.458-.054-.151.133-.188.423-.213.617q-.023.174-.056.213a2 2 0 0 1-.523.449l-.009.005q-.242.144-.494-.026a1.16 1.16 0 0 1-.492-.659c-.025-.089-.019-.189-.037-.288-.014-.075-.07-.107-.098-.159-.127-.241-.469-.604-.774-.544-.318.062-.058.512-.013.681q.039.145.045.294c.002.037.009.079-.02.105a.6.6 0 0 1-.206.124l-.005.002c-.045.017-.085.004-.131.012-.257.044-.452-.275-.508-.48-.107-.389-.363-.309-.696-.335h-.003a.02.02 0 0 0-.019.009c-.161.172-.344.369-.577.434-.411.111-.692.198-.97.292l.127-.037a.27.27 0 0 1-.222-.026l.001.001a.03.03 0 0 1-.014-.018l-.056-.181a.03.03 0 0 0-.017-.018l-.05-.015a.02.02 0 0 1-.013-.014.88.88 0 0 0-.503-.638c-.062-.03-.25-.1-.254.026-.003.08.024.451-.182.313a8 8 0 0 1-.211-.144l.032.021c-.051-.036-.117-.052-.172-.092a.5.5 0 0 0-.1-.059l-.003-.001c-.042-.016-.145-.052-.168-.091q-.04-.065-.048.011-.018.15-.028.297c-.018.277-.226.356-.444.473-.186.1-.397.147-.598.208a.3.3 0 0 1-.11.004.03.03 0 0 1-.02-.012c-.101-.136-.068-.28-.047-.435.037-.272.348-.419.537-.559q.181-.133.108-.324a3.5 3.5 0 0 0-.459-.803l.006.008c-.084-.114-.219-.098-.321-.014-.25.206-.425.381-.653.458-.126.043-.252-.068-.34-.144-.052-.045-.109-.206-.124-.271a9 9 0 0 0-.166-.618c-.051-.165-.116-.293-.268-.356a1.7 1.7 0 0 0-.864-.116l.008-.001c-.5.053-.945.131-1.379.234l.073-.015q-.066.015-.184.064a.9.9 0 0 1-.434.072h.003a.05.05 0 0 1-.049-.047c-.006-.055.051-.059.08-.075.123-.07.223-.163.346-.226.238-.122.443-.26.63-.418l-.005.004a.63.63 0 0 0 .222-.567.03.03 0 0 0-.011-.018.9.9 0 0 0-.607-.163h.004a7.5 7.5 0 0 0-1.267.245l.053-.013c-.052.014-.115.006-.17.009q-.014 0-.014-.013 0-.057.053-.08a.02.02 0 0 0 .01-.012l.009-.043q.002-.012.013-.016c.313-.143.602-.386.868-.601.114-.092.266-.22.268-.379.002-.127-.312-.01-.369.014-.188.08-.551.18-.784.324a7 7 0 0 1-.381.237l-.147.082c-.145.085-.313.218-.484.308-.067.035-.122.01-.144-.059l-.001-.008a.03.03 0 0 1 .005-.015c.059-.092.139-.116.212-.165.486-.325 1.36-.883 1.338-1.408-.006-.156-.109-.352-.148-.509-.032-.125-.072-.254-.185-.326-.212-.134-.367.003-.619.006q-.018 0-.014-.017l.02-.109q.002-.016.018-.02c.205-.071.354-.137.446-.349.144-.333.01-.45-.297-.539-.078-.022-.164-.01-.251-.026-.134-.025-.09-.146-.017-.21q.171-.15.338-.305a.04.04 0 0 0 .012-.021.5.5 0 0 0 .011-.087 7 7 0 0 1 .014-.63q0-.077-.01-.151l.001.006a.07.07 0 0 0-.069-.059h-.002a5 5 0 0 0-.371.028c-.137.016-.261.062-.393.102-.147.045-.301.051-.454.075-.078.012-.153.053-.253.027q-.014-.004-.008-.017c.031-.059.106-.126.064-.196a.03.03 0 0 0-.018-.012c-.123-.018-.245-.005-.363-.019a3 3 0 0 0-.184-.016l-.012-.001a.02.02 0 0 1-.013-.005.02.02 0 0 1-.009-.018q0-.017.018-.023l.609-.162q.012-.004.011-.016c-.007-.139-.145-.137-.1-.298a.02.02 0 0 1 .019-.013.4.4 0 0 1 .125.038.7.7 0 0 0 .235.044c.267.007.448-.169.622-.345.099-.1.159-.257.018-.351a3 3 0 0 0-.346-.198l-.018-.008q-.072-.035.001-.067c.275-.121.513-.331.752-.519.132-.104.222-.213.124-.372-.115-.185-.235-.248-.395-.35a.75.75 0 0 0-.441-.142 2 2 0 0 1-.194-.004c-.495-.05-1.022.02-1.559.122q-.12-.006-.053-.107c.057-.086.306-.117.403-.136.234-.046.468-.112.707-.15.148-.024.286-.069.433-.101q.014-.003.005-.014l-.005-.005-.006-.002h-.002a.6.6 0 0 1-.124-.006.1.1 0 0 0-.065-.011h.001l-.113-.065q-.01-.006-.005-.015.049-.102.116-.122c.067-.024.226-.068.387-.109l.09-.02q.07-.018.025-.075c-.162-.197-.37-.366-.549-.547-.044-.045-.043-.098.004-.136a.03.03 0 0 1 .018-.007h.004a.2.2 0 0 1 .1.034c.181.132.851.566 1.04.415.047-.038.053-.177.056-.235q0-.014-.011-.021a13 13 0 0 0-.532-.333c-.147-.089-.134-.255-.018-.365.183-.174.441-.166.713-.171l.655-.01a.1.1 0 0 0 .035-.004.04.04 0 0 0 .017-.049c-.186-.432-.395-1.022-.785-1.31a5.4 5.4 0 0 0-.837-.508l-.032-.014c-.1-.049-.191-.113-.287-.159-.209-.099-.552-.261-.669-.457-.089-.148-.031-.326-.177-.45-.182-.154-.416-.275-.624-.391-.289-.16-.659-.336-.978-.531-.069-.043-.079-.093-.047-.164q.006-.011.019-.009a1 1 0 0 1 .176.054 77 77 0 0 1 2.845 1.424l-.859-.412c.394.204.85.348 1.199.467.123.042.277.188.421.118q.033-.017.015-.048c-.089-.156-.19-.334-.338-.441a2 2 0 0 0-.335-.204l-.013-.006a39 39 0 0 1-.747-.356c-.197-.097-.415-.153-.614-.274a.02.02 0 0 1-.011-.02l.001-.006.022-.086a.05.05 0 0 1 .051-.039l.013.002c.405.105.802.231 1.179.434.171.092.347.219.517.337.252.175.535.274.813.395a.38.38 0 0 0 .247.025l-.003.001q.081-.006.038-.048c-.041-.057-.122-.1-.174-.15-.159-.15-.339-.252-.482-.418a.016.016 0 0 1-.002-.021c.087-.144.218-.014.325.011.069.016.4.085.343-.083-.056-.166.205-.261.322-.29.213-.053.422-.123.638-.162l.008-.003a.03.03 0 0 0 .019-.03.03.03 0 0 0-.008-.021c-.133-.158-.307-.201-.316-.444-.004-.103.194-.167.264-.183a.05.05 0 0 0 .037-.046.05.05 0 0 0-.021-.039.8.8 0 0 1-.175-.151l-.001-.001c-.129-.148-.089-.476-.103-.617s-.221-.363-.334-.473c-.5-.486-1.057-.964-1.365-1.603-.035-.073-.044-.18-.084-.256a.7.7 0 0 0-.165-.211L4 5.777q-.48-.427-.818-.673a.17.17 0 0 1-.073-.095v-.001l-.001-.006q.001-.014.011-.021c.062-.042.123-.037.188.005q.468.312.901.671c.074.1.175.177.292.221l.004.002.961.713q.023.017.044-.002c.079-.071-.027-.236.154-.246q.01-.001.018.007l.653.705a.04.04 0 0 0 .03.013.04.04 0 0 0 .04-.032c.024-.104.05-.227.089-.377a.15.15 0 0 0-.038-.143 5 5 0 0 1-.253-.313l-.009-.012a.18.18 0 0 1-.01-.202v.001a.02.02 0 0 1 .016-.012q.078-.013.116.026.585.594 1.179 1.161l.021.02c.289.276.642.565.999.71a.2.2 0 0 0 .053.012.04.04 0 0 0 .023-.006c.098-.074.011-.267-.033-.359a.1.1 0 0 0-.016-.021.2.2 0 0 1-.04-.049v-.001L8.5 7.468q0-.011.012-.012h.003a.9.9 0 0 0 .365.032h-.004a.03.03 0 0 0 .021-.026l-.001-.007c-.016-.057-.167-.147-.217-.181-.066-.044-.118-.106-.185-.155-.099-.074-.19-.238-.292-.283q-.014-.006-.009-.019c.027-.102.126-.07.199-.06a.36.36 0 0 0 .168.022l.272.065h.005a.02.02 0 0 0 .02-.02.02.02 0 0 0-.005-.013 1 1 0 0 1-.213-.403l-.001-.007c-.026-.095.109-.172.188-.085q.084.092.156.198l.004.006q.006.01.017.015a.09.09 0 0 1 .051.066.04.04 0 0 0 .01.021c.069.089.246.3.353.244.046-.024.051-.082.007-.11q-.007-.005-.008-.013l-.062-.657v-.002c0-.014.011-.025.025-.025a.02.02 0 0 1 .013.004c.194.124.387.239.609.315l.008.002a.025.025 0 0 0 .025-.025.03.03 0 0 0-.006-.017 11 11 0 0 0-.277-.297c-.106-.11-.159-.256.042-.296.256-.051.424.029.685.146.068.03.151.098.247.111h.003a.028.028 0 0 0 .023-.044l-.147-.199c-.037-.087-.08-.156-.091-.252l-.016-.13.327.024q.017.002.014-.015a6 6 0 0 0-.043-.249l.006.035c-.059-.306.368-.241.527-.188.132.039.231.15.249.287v.002c.015.104.009.218.139.255.298.085.456-.043.718-.133.192-.067.358-.148.513-.244l-.011.006c.214-.132.355-.371.143-.589a.04.04 0 0 1-.011-.021c-.052-.301-.13-.591-.156-.898l-.003-.068q0-.092.018-.179l-.001.006a.03.03 0 0 1 .039-.016l.237.117q.018.01.019-.011l.027-.713a.04.04 0 0 1 .04-.038q.012 0 .022.006a.45.45 0 0 1 .192.267l.001.003c.045.165.136.265.225.406q.009.015.016-.002a.13.13 0 0 0 .005-.094q.027-.292.001-.583c.005-.594.041-1.188.054-1.782a.6.6 0 0 1 .034-.194.04.04 0 0 1 .04-.029q.022 0 .035.018c.041.06.108.113.151.165q.206.258.272.391c.082.161.185.325.222.497q.044.207.035.387c-.008.148-.079.266-.143.4q-.099.208-.204.412a.6.6 0 0 0-.037.468l-.001-.004c.029.075.065.183.096.292l.008.031zm10.041 15.405c.067-.187.144-.446.209-.708l.014-.065q.155-.08.313-.171c.385-.225.262-.779-.134-.78q.083-.614.083-1.251c0-5.155-4.185-9.339-9.339-9.339s-9.34 4.185-9.34 9.339c0 .913.131 1.795.376 2.629a7 7 0 0 1-.153.367c-.157.341-.368.64-.718.783a.1.1 0 0 0-.034.027q-.179.26-.089.511a.2.2 0 0 0 .016.049.02.02 0 0 0 .01.012l.011.021c.116.214.381.313.599.185.353-.208.603-.296 1.017-.259l.027.003a9.34 9.34 0 0 0 10.502 4.744l.295-.065c.185-.042.374-.11.56-.169a8.6 8.6 0 0 0 1.273-.543 8.3 8.3 0 0 0 1.538-1.013l-.013.011c.633-.533 1.191-1.098 1.639-1.753l.004-.005q.365-.495.662-1.035l.061-.101c.008-.014.029-.059.059-.123.054.065.129.11.215.124h.002q.046.008.099.009a.6.6 0 0 0 .295-.079l-.003.002a.4.4 0 0 0 .184-.235l.001-.003a.216.216 0 0 0-.023-.164l.001.001v-.001a.5.5 0 0 0-.086-.109.4.4 0 0 0 .131-.199l.001-.003a.4.4 0 0 0-.054-.305.3.3 0 0 0 .035-.178.18.18 0 0 0-.158-.162h-.001a.3.3 0 0 0-.09 0h.002zm-13.03 2.126.006-.004a2 2 0 0 1-.13.076.5.5 0 0 1-.219.073h-.002a1 1 0 0 1-.083-.016l.003.001a.39.39 0 0 0-.391.103.4.4 0 0 0-.116.284v.008c0 .113.043.216.112.293l.001.001a.35.35 0 0 0 .273.139q.486.01.693-.112h-.008l-.249-.007q-.012 0-.029-.016-.017-.015-.017-.027 0-.038.1-.06a.6.6 0 0 1 .124-.014q.313 0 .417-.251l-.001.002a.3.3 0 0 0 .027-.094.5.5 0 0 1-.164.121 1 1 0 0 1-.172.054l.002-.003a1 1 0 0 1 .131-.152.8.8 0 0 0 .133-.165.4.4 0 0 0 .055-.213q0-.223-.195-.472.03.078.045.116l-.001-.003a.5.5 0 0 1 .04.167q0 .051-.027.072-.152-.55-.72-.55h-.003a2 2 0 0 0-.147.011.4.4 0 0 0-.136.027l.114.01q.317.029.317.109 0 .032-.231.069.131.042.148.043h.001a.3.3 0 0 0 .121-.035.24.24 0 0 1 .1-.036q.071 0 .117.074l-.001-.001a.25.25 0 0 1 .041.136v.003q0 .06-.028.06-.021 0-.062-.06l-.043-.067a.1.1 0 0 0-.005.033q0 .1.092.186a.3.3 0 0 0 .192.091.4.4 0 0 1-.034.133q-.033.09-.076.107a.1.1 0 0 1-.029-.081q0-.024.016-.074c.016-.05.015-.058.015-.071q-.024.009-.053.051c-.029.042-.031.051-.034.07a.7.7 0 0 0-.01.171q.007.062-.053.139c-.06.077-.08.076-.121.076a.2.2 0 0 1-.074-.017q-.043-.021-.043-.057 0-.057.102-.117.142-.086.166-.335zm0 .001v-.001zm11.18-2.068c-.079.024-.129.088-.113.143s.094.081.173.058c.078-.025.129-.089.113-.144s-.094-.081-.173-.057m-4.609 2.222a1.3 1.3 0 0 0-.037.238.57.57 0 0 0 .102.318q.126.184.192.273a.54.54 0 0 1 .102.301v.001a.505.505 0 0 1-.498.517h-.012.001a.48.48 0 0 1-.383-.165.6.6 0 0 1-.134-.402q0-.263.228-.599.188-.276.435-.48l.004-.003zm.119.821a.1.1 0 0 1 .007.045.6.6 0 0 1-.031.158l-.034.105q0 .092.092.092.096 0 .097-.129 0-.065-.039-.154c-.039-.089-.057-.098-.092-.117m-6.883-8.318q.346-.015.691.031c.236-.203.559-.473.885-.739l.107-.085c.254-.207.537-.431.836-.542a.5.5 0 0 1 .111-.024h.002l.031-.002q.034 0 .064.009h-.002q.028.01.043.032c.015.022.014.033.01.057a.1.1 0 0 1-.032.054q-.705.709-1.345 1.479l-.029.036a.3.3 0 0 1 .106.172v.002q.126-.133.244-.271a.3.3 0 0 0 .027-.044.1.1 0 0 0-.017-.02l-.035-.028-.001-.001a.07.07 0 0 1-.027-.042q-.005-.033.01-.05a.05.05 0 0 1 .032-.019.1.1 0 0 1 .045.008.2.2 0 0 1 .064.053.4.4 0 0 1 .086.206v.002a1 1 0 0 1 .241-.137l.006-.002a.4.4 0 0 1 .23-.021h-.003c.224.054.172.296.069.425a1.4 1.4 0 0 1-.164.178l-.001.001c-.086.077-.381.32-.548.507a.7.7 0 0 0-.108.155v.001l.004-.001a.3.3 0 0 0 .052-.017 2 2 0 0 0 .285-.178l-.004.003c.24-.181.469-.375.675-.594.125-.133.256-.266.37-.409q.01-.012.01-.019-.001-.006-.007-.011-.007-.007-.016-.012c-.023-.018-.048-.037-.058-.06q-.004-.01-.004-.02c0-.01.001-.014.004-.021a.06.06 0 0 1 .025-.029.05.05 0 0 1 .027-.008h.004c.035.003.069.029.098.066a.4.4 0 0 1 .072.145l.001.003.009.055a1 1 0 0 1 .233-.134l.006-.002a.44.44 0 0 1 .242-.022h-.003a.18.18 0 0 1 .133.099c.037.076.025.158-.013.237a1 1 0 0 1-.223.269c-.059.053-.39.331-.56.526a.5.5 0 0 0-.087.119l-.001.003-.004.012a.2.2 0 0 0 .049-.014 2.5 2.5 0 0 0 .522-.359q.412-.35.774-.75a.3.3 0 0 0 .041-.051c.007-.011.013-.023.009-.034s-.015-.019-.035-.028a.06.06 0 0 1-.034-.042.06.06 0 0 1 .021-.06.1.1 0 0 1 .033-.01q.016 0 .028.007a.23.23 0 0 1 .094.092c.085.142.066.253-.02.386a1.7 1.7 0 0 1-.25.287l-.001.001c-.227.214-.401.363-.546.572l.067-.032a3 3 0 0 0 .443-.309l-.005.004c.288-.239.548-.487.788-.753l.006-.006a1 1 0 0 0 .069-.091q.009-.016-.003-.028a.1.1 0 0 0-.029-.022h-.001a.061.061 0 0 1-.024-.084q.011-.02.036-.025a.07.07 0 0 1 .051.009.32.32 0 0 1 .104.41l.001-.002a1 1 0 0 1-.128.186l.001-.001c-.227.261-.514.462-.715.747.116-.005.252-.094.34-.159q.409-.3.69-.705l.006-.01a1.1 1.1 0 0 0 .177-.366l.002-.008a.1.1 0 0 0-.004-.034q-.009-.026-.015-.05c-.007-.032-.004-.062.023-.087q.034-.03.066-.019c.028.007.052.035.054.072.016.203-.124.459-.238.62a2.8 2.8 0 0 1-.441.49l-.003.003c-.175.155-.4.329-.634.365-.06.009-.101-.002-.129-.023a.14.14 0 0 1-.051-.086v-.001a.4.4 0 0 1-.007-.075v-.007c-.097.078-.207.15-.322.213l-.012.006c-.068.034-.129.05-.167.04-.025-.006-.028-.024-.028-.031v-.002q0-.017.015-.027a.14.14 0 0 1-.059-.007.13.13 0 0 1-.073-.082v-.001a.3.3 0 0 1-.014-.096v-.013.001q-.146.118-.32.213l-.012.006c-.067.033-.128.05-.168.042-.026-.005-.029-.023-.03-.03s0-.026.024-.035a.1.1 0 0 1-.038 0c-.06-.008-.099-.049-.12-.104a.37.37 0 0 1-.002-.229l-.001.003c.047-.142.238-.325.351-.427l.447-.405a.6.6 0 0 0 .09-.1.1.1 0 0 0-.035-.009.3.3 0 0 0-.112.012.85.85 0 0 0-.357.232l-.001.001q-.397.411-.782.852l-.023.027q-.054.06-.109.116a.06.06 0 0 1-.075.006.14.14 0 0 1-.046-.066.3.3 0 0 1-.014-.057v-.001c-.07.052-.197.139-.298.185a.3.3 0 0 1-.091.03.1.1 0 0 1-.055-.004c-.02-.009-.022-.024-.022-.032q0-.018.014-.026c-.092.001-.147-.069-.161-.154a.394.394 0 0 1 .064-.285l-.001.001q.082-.116.181-.207l.001-.001q.25-.244.512-.477c.03-.027.074-.064.107-.1a.2.2 0 0 0 .033-.043.1.1 0 0 0-.034-.009l-.026-.001a.3.3 0 0 0-.07.009h.002c-.192.051-.325.178-.457.316-.282.297-.547.608-.826.907-.021.023-.045.028-.065.024a.08.08 0 0 1-.049-.042c-.046-.091-.053-.221.022-.301.124-.134.252-.266.373-.402.062-.07.112-.139.109-.21q0-.058-.059-.119c-.256.3-.495.633-.706.985l-.019.034a.09.09 0 0 1-.091.048.05.05 0 0 1-.034-.021.24.24 0 0 1-.024-.151v.001a.8.8 0 0 1 .06-.214c.135-.304.345-.582.562-.834a1.4 1.4 0 0 0-.231-.067c-.567.532-1.209 1.077-1.958 1.327a2.6 2.6 0 0 1-.636.124h-.008c-.441.033-.882-.141-.971-.625-.063-.345.062-.722.252-1.013.22-.338.535-.605.886-.798.288-.159.679-.297 1.041-.283.245.011.477.09.655.277a.3.3 0 0 1 .069.155.7.7 0 0 1-.002.251q-.041.224-.14.408l.004-.008zm2.488-1.208a1 1 0 0 0-.125.069 4 4 0 0 0-.327.226l.008-.006c-.396.307-.758.655-1.123 1q.104.028.203.073.427-.48.873-.923c.157-.156.324-.309.491-.439m-1.931 1.354a3.6 3.6 0 0 0-.648 0l.014-.001c-.334.526-.9 1.017-1.522 1.155a.6.6 0 0 1-.276.005c-.097-.026-.172-.089-.175-.219a.5.5 0 0 1 .14-.32c.121-.142.298-.262.419-.332.34-.201.739-.346 1.164-.409l.018-.002a1.6 1.6 0 0 0 .14-.364l.002-.011a.9.9 0 0 0 .019-.343c-.012-.073-.038-.137-.091-.174-.134-.098-.334-.106-.496-.085-.803.102-1.723.81-1.892 1.626-.052.25-.007.459.114.607s.318.234.57.237c.58.009 1.14-.302 1.608-.651.337-.251.627-.487.908-.734l-.016.014zm-.965.041a3.2 3.2 0 0 0-1.21.493l.012-.007q-.146.096-.248.227l-.002.002a.33.33 0 0 0-.072.186v.001q0 .05.026.075c.026.025.041.027.068.032a.65.65 0 0 0 .295-.044c.464-.169.865-.553 1.131-.965m9.606 5.386q-.023.017-.023-.012v-.185q0-.025.021-.038.05-.03.032-.09a.03.03 0 0 0-.029-.021l-.009.001-.327.106a.047.047 0 0 0-.015.079l.037.032a.05.05 0 0 1 .017.036v.001l-.005.581q0 .03-.024.048-.046.036-.027.099c.005.016.02.027.037.027h.305q.1 0 .041-.081l-.048-.067a.03.03 0 0 1-.005-.015v-.334a.04.04 0 0 1 .029-.039l.064-.018.017-.003a.06.06 0 0 1 .061.061v.325a.06.06 0 0 1-.02.047.1.1 0 0 0-.029.098.03.03 0 0 0 .031.025h.311q.03 0 .038-.029.018-.061-.028-.097a.05.05 0 0 1-.019-.041c.012-.275.02-.816-.433-.498zm-.741-9.086h-.875v.308h.237v1.231h.4v-1.231h.238zm1.01 0h-.4v.55h-.119v-.55h-.4v1.539h.4v-.646h.12v.646h.4v-1.539zm-6.148 3.333-.006.002a.8.8 0 0 1 .414-.029l.004.001a.55.55 0 0 1 .208.097l.001-.002a.4.4 0 0 1 .323-.191l.001-.004a.5.5 0 0 1 .164-.235l-.001.001a.49.49 0 0 1 .566-.054v-2.54q0-.519.06-.661c.06-.142.122-.143.246-.143q.19 0 .243.134c.053.134.052.313.052.67v2.752l.003.001a.42.42 0 0 1 .3.284l-.008.004q.153-.075.337-.11c.063-.012.195-.042.284-.029h.002a.4.4 0 0 1 .174.065l.002-.004a.83.83 0 0 1 .581-.413v-1.985q0-.763-.076-1.111l-.002-.01a1.54 1.54 0 0 0-.291-.616q-.215-.278-.651-.471c-.436-.193-.619-.193-.987-.193q-.676 0-1.15.278c-.474.278-.528.431-.634.738q-.16.46-.16 1.385v2.393zm-3.785 6.969q-.08 0-.166.098a.34.34 0 0 0-.096.174l.069-.05q.05-.036.072-.038l.021.1q.064-.114.098-.131l.061-.009q.048-.012.048-.055 0-.089-.107-.089m.205.224a.04.04 0 0 0-.028.012l.002.001a.3.3 0 0 1 .11.102q.045.064.102.064a.2.2 0 0 0 .087-.027q.044-.027.044-.068 0-.083-.078-.084-.034 0-.061.034c-.027.034-.031.034-.039.034q-.014 0-.066-.034c-.052-.034-.058-.034-.073-.034m4.966-1.437q-.025.016-.023-.013l.008-.201q0-.021.018-.034.04-.032.023-.085-.01-.026-.035-.017l-.307.101a.05.05 0 0 0-.034.038.06.06 0 0 0 .024.064.05.05 0 0 1 .024.041q.04.375-.035.739-.006.03.025.029l.313-.007q.024 0 .028-.024a.11.11 0 0 0-.032-.099.05.05 0 0 1-.014-.034v-.334q0-.019.015-.03a.12.12 0 0 1 .083-.033.1.1 0 0 1 .052.012.04.04 0 0 1 .022.033l.001.341a.06.06 0 0 1-.018.044.1.1 0 0 0-.025.102q.008.028.036.027l.302-.005a.035.035 0 0 0 .034-.034.12.12 0 0 0-.04-.101.05.05 0 0 1-.017-.04c.005-.252.051-.8-.429-.482zm3.961.501a.03.03 0 0 1-.03-.03v-.371q0-.021.02-.021.103-.002.095-.117-.001-.023-.025-.023h-.067a.02.02 0 0 1-.022-.022l-.004-.116a.053.053 0 0 0-.099-.026c-.058.094-.227.172-.249.245q-.009.026.017.038l.039.019q.02.009.02.033-.002.203.001.404c.002.242.308.167.41.056a.04.04 0 0 0 .01-.028.04.04 0 0 0-.041-.042h-.074zm1.427-.107q.128.165.283.034a.055.055 0 0 1 .09.043.06.06 0 0 1-.011.033c-.221.292-.699.205-.69-.208.009-.426.529-.537.689-.135q.022.056-.035.078l-.317.121q-.027.01-.01.035zm-.04-.16.112-.036a.03.03 0 0 0 .018-.025l-.001-.008-.002-.006c-.023-.073-.077-.121-.12-.108l-.007.002c-.043.014-.059.085-.035.157l.002.006a.03.03 0 0 0 .025.018l.008-.001zm-4.449.166q.131.154.286.024.012-.01.03-.011c.018-.001.023.005.031.012q.043.041.007.097a.33.33 0 0 1-.138.103c-.295.147-.57-.041-.539-.373.037-.404.51-.46.679-.103l.001.002a.1.1 0 0 1 .005.026.07.07 0 0 1-.041.061l-.311.119q-.035.014-.011.042zm-.056-.166.138-.039q.009-.004.007-.012l-.004-.013c-.021-.077-.075-.13-.118-.118s-.061.085-.039.163l.004.013q.002.007.01.007h.003zm-.859 1.98q-.102.137-.102.201 0 .033.04.071.05.045.057.064.024.053-.005.149.064.044.098.044.068 0 .068-.071l-.006-.045a.2.2 0 0 1-.004-.043q.01-.033.13-.033.076 0 .315.043l-.156.043q-.094.028-.094.064 0 .016.012.057a.2.2 0 0 1 .012.059q0 .033-.043.062l-.08.057a1 1 0 0 0 .037.062.08.08 0 0 0 .064.028q.028 0 .052-.05c.024-.05.041-.05.075-.05q.065 0 .144.118l.14.201q-.185-.104-.236-.104-.038 0-.059.058c-.021.058-.043.058-.085.058a.6.6 0 0 1-.107-.019.3.3 0 0 0-.045.087q0 .025.038.061c.038.036.048.036.066.036a.2.2 0 0 0 .047-.008h-.002a.2.2 0 0 1 .038-.007q.03 0 .029.107 0 .101-.047.312-.061-.241-.13-.241-.009 0-.039.014c-.03.014-.034.014-.044.014q-.068 0-.123-.125-.11.016-.109.111 0 .047.044.076c.044.029.044.032.044.04q0 .064-.187.196l-.137.099a.7.7 0 0 0 .066-.111.3.3 0 0 0 .037-.121q0-.024-.054-.066c-.054-.042-.054-.059-.054-.09q0-.04.028-.099a.1.1 0 0 0-.073-.035q-.095 0-.095.061v.064q.003.078-.118.078-.093 0-.309-.043.245-.062.245-.142a.3.3 0 0 1-.01-.057q-.009-.073.104-.133-.021-.108-.113-.109-.015 0-.052.05c-.037.05-.049.05-.071.05q-.056 0-.147-.123a7 7 0 0 0-.147-.207l.018.025.108.057a.3.3 0 0 0 .114.033q.033 0 .065-.058c.032-.058.049-.058.084-.058q.007 0 .095.028.045-.068.045-.101 0-.029-.034-.065c-.034-.036-.044-.037-.063-.037q-.012 0-.037.007l-.036.007q-.042 0-.043-.107 0-.028.054-.324a.4.4 0 0 0 .031.132q.04.118.094.118.01 0 .037-.014c.027-.014.034-.014.045-.014q.054 0 .09.061l.036.064q.05 0 .083-.036c.033-.036.033-.052.033-.085q0-.051-.044-.079c-.044-.028-.044-.032-.044-.042q0-.05.156-.167.073-.06.157-.108l.006-.003zm-.144.52h-.004a.36.36 0 0 0-.26.11.37.37 0 0 0-.114.263v.008c0 .1.043.19.112.253.068.068.161.11.264.11h.002a.37.37 0 0 0 .268-.105.35.35 0 0 0 .105-.25v-.018.001a.36.36 0 0 0-.111-.262.36.36 0 0 0-.259-.111h-.003zm0 .04h-.003a.33.33 0 0 0-.235.099.32.32 0 0 0-.101.235v.006c0 .091.038.173.099.231a.33.33 0 0 0 .239.097h.01a.33.33 0 0 0 .329-.334v-.002a.32.32 0 0 0-.101-.232.33.33 0 0 0-.237-.099zm-2.424-.804q.119 0 .209.095.027.029.031.035a.5.5 0 0 1 .114-.018h.001c.064 0 .122.027.164.069a.33.33 0 0 1 .085.155v.002l.053.014q.052.026.052.091 0 .011-.019.045.152.086.153.238a.3.3 0 0 1-.034.119.11.11 0 0 1 .062.105q0 .048-.037.085c-.037.037-.053.038-.084.038h-.004a.12.12 0 0 1-.107-.07v-.001l-.112-.005a.7.7 0 0 0-.14.031q-.112.031-.128.05-.027.029-.043.133a1 1 0 0 0-.014.124v.002q0 .064.02.094c.02.03.041.037.083.05q.064.02.077.022l.031-.002h.028q.031 0 .064.01.047.014.041.037h-.01a.4.4 0 0 0-.109.016l.003-.001.067.033q0 .029-.081.029a.2.2 0 0 1-.059-.01.2.2 0 0 0-.047-.009h-.032a1 1 0 0 1-.014.071q-.04-.003-.095-.048c-.055-.045-.059-.045-.069-.045q-.013 0-.04.045c-.027.045-.026.051-.026.062a.13.13 0 0 1-.052-.062l-.021-.061q-.024.003-.088.1h-.012a1 1 0 0 1-.035-.1.4.4 0 0 0-.138-.024.5.5 0 0 0-.094.014l-.067-.005a1 1 0 0 1 .083-.054.3.3 0 0 1 .122-.047h.001l.019.003q.012.002.019.002a.2.2 0 0 0 .053-.018q.037-.018.043-.032a.2.2 0 0 0 .006-.074q0-.136-.071-.202a.4.4 0 0 0-.205-.085q-.037.136-.213.135-.058 0-.115-.069-.057-.068-.057-.126 0-.088.074-.145-.059-.061-.059-.126v-.002q.001-.06.037-.102a.14.14 0 0 1 .096-.053q-.004-.076.05-.105-.026-.025-.026-.093v-.005c0-.098.08-.178.178-.178h.006q.085 0 .14.059.069-.235.297-.235zm-.271.877a.17.17 0 0 1 .108.045q.053.045.053.1v.031q-.16-.151-.285-.145a.26.26 0 0 1 .124-.03zm.194-.307v.036l.069.078v-.105q-.057-.01-.069-.01zm.457.264-.096.068a.4.4 0 0 0-.084.077.8.8 0 0 1 .233-.081l-.052-.065zm-.185-.264v.205q.112-.064.107-.157-.028-.01-.107-.047zm-.409.105q-.1.026-.1.06a.3.3 0 0 1 .083.011q.035.01.078.013h.001a1 1 0 0 1-.061-.081l-.001-.002zm11.149-2.111.018-.001c.101 0 .189.056.234.138l.001.001a.06.06 0 0 1 .007.048c-.066.261-.606.271-.543.01a.1.1 0 0 1 .022-.037l.04-.034q.007-.006.007-.017a.02.02 0 0 0-.022-.022q-.004 0-.008.002-.108.043-.171-.051-.019-.028.013-.037l.176-.052q.037-.01.002-.026c-.419-.179-.117-.617.261-.539q.023.004.03-.018.037-.123.172-.107a.025.025 0 0 1 .022.023q.009.09-.066.132a.02.02 0 0 0-.011.018q0 .008.005.013c.229.267.035.417-.195.523q-.01.004-.01.015.001.016.016.017h.001zm-.057.167q-.045.069.01.114a.03.03 0 0 0 .019.007.03.03 0 0 0 .031-.031l-.001-.007-.019-.076a.02.02 0 0 0-.022-.017.02.02 0 0 0-.019.01zm.042-.327c.043-.013.055-.102.027-.198s-.086-.166-.13-.154c-.043.013-.055.102-.027.199s.086.165.129.153zm-12.048-6.606-.151.122c.156-.129.312-.258.63-.516.282-.23.6-.474.931-.596l-.006.002a.9.9 0 0 1 .271-.048V9.148h-.987q-.63.813-1.845 1.074v.784h.166q.58 0 .748.081c.168.081.18.133.205.238s.037.417.037.937zm8.022 7.438q.02.002.078.078.044.059.071.105.076.133.104.295l.001.005.002.081v.019q0 .162-.117.22a1 1 0 0 1-.215.046q-.117.02-.117.091v.198q0 .013.007.076l.007.078a.6.6 0 0 1-.017.12l-.108.022a.5.5 0 0 1-.019-.099v-.002q0-.012.006-.037c.006-.025.006-.028.006-.037a.5.5 0 0 0-.032-.098l.001.003h-.038a.04.04 0 0 0-.006.023l.001.01a.2.2 0 0 1 .007.07q-.042.03-.115.078-.016-.005-.012-.005v-.173q-.004-.012-.025-.01h-.029l-.029.229-.042.001-.044-.001h.002a5 5 0 0 0-.061-.239h-.02l-.029.093q0 .01.006.037l.006.038-.005.037-.007.059a.02.02 0 0 1-.011.005h-.001q-.074 0-.098-.037c-.024-.037-.023-.059-.02-.103l.02-.293q0-.007.005-.02c.005-.013.005-.014.005-.017q0-.02-.042-.078a4 4 0 0 0-.194-.044l-.046-.008q-.168-.032-.169-.272 0-.357.293-.594.013.066.042.176l.096.022.149.053a2 2 0 0 1-.181-.136l.002.001q-.042-.049-.042-.164 0-.027.093-.064a.5.5 0 0 1 .121-.038l.003-.001q.132-.017.203-.017.306 0 .494.157a.7.7 0 0 1-.206.149l-.004.002a.4.4 0 0 0 .171-.046q.111-.048.096-.049zm-.969.335a.27.27 0 0 1 .196.094.28.28 0 0 1 .092.199q0 .088-.164.086h-.135a.6.6 0 0 1-.144-.018q-.081-.025-.081-.108a.25.25 0 0 1 .071-.175.22.22 0 0 1 .164-.079zm.381.316q.008 0 .012.007v.085l-.001-.013q.013.114.018.239a.02.02 0 0 0 .014.005h.001q.015 0 .015-.034l.027-.286q.039.089.054.138l.034.066v.076q0 .132-.025.132-.066-.03-.113-.029c-.047.001-.05.002-.056.005a.2.2 0 0 1-.044.017q-.02-.024-.019-.13 0-.19.083-.276zm.485-.313a.26.26 0 0 0-.192.094.28.28 0 0 0-.09.196v.001q0 .085.083.085h.281q.159-.003.159-.123a.25.25 0 0 0-.073-.176.23.23 0 0 0-.168-.078zm-1.057-1.399a.074.074 0 0 0-.061-.069l-.013-.002a.1.1 0 0 0-.026.007l-.124.078a.06.06 0 0 1-.032.009.06.06 0 0 1-.061-.061q0-.012.004-.023l.071-.177a.03.03 0 0 1 .042-.018l.075.03a.05.05 0 0 0 .035.002.31.31 0 0 1 .349.106l.001.001a.06.06 0 0 1 .013.036l.001.423a.05.05 0 0 0 .014.035.16.16 0 0 1 .044.102v.002a.03.03 0 0 1-.02.025.46.46 0 0 1-.299-.023l.003.001a.06.06 0 0 0-.052.002c-.423.221-.594-.489.01-.462h.001q.02-.002.022-.023v-.002zm-.01.332.014-.169v-.002a.023.023 0 0 0-.02-.022l-.011-.001h-.007a.1.1 0 0 0-.101.093l-.001.011v.009c0 .052.04.095.091.101l.011.001h.003c.011 0 .021-.009.021-.02zm-3.205-6.337c-.073.06-.089.152-.046.205s.138.054.211-.005.089-.152.046-.205-.138-.054-.21.005zm6.248 6.061q.001-.037.037-.034l.149.009h.003a.03.03 0 0 0 .028-.02l.062-.189q.01-.028-.019-.037-.197-.069-.293.075-.015.021-.035.005l-.121-.093a.03.03 0 0 0-.019-.006.03.03 0 0 0-.024.011 4 4 0 0 0-.111.133q-.03.036-.023.065.008.043.065.046a.025.025 0 0 1 .024.026v.288a.07.07 0 0 1-.016.043.13.13 0 0 0-.029.117q.005.021.026.021l.333.004h.001a.06.06 0 0 0 .059-.059.06.06 0 0 0-.048-.058.1.1 0 0 1-.027-.012q-.025-.021-.025-.034l.004-.3zm.376.277-.003.012-.056.118-.003.015c0 .018.015.034.033.034l.309.008q.029 0 .037-.028.02-.066-.028-.107a.04.04 0 0 1-.014-.03v-.565q0-.03-.028-.021l-.272.079a.045.045 0 0 0-.014.079l.023.017q.016.011.016.031v.359zm.804-.471q-.024.021-.025-.011v-.057a.027.027 0 0 0-.027-.027l-.008.002-.262.072c-.021.006-.035.025-.035.046s.01.041.029.057q.016.012.016.034v.345a.1.1 0 0 1-.009.043l-.04.098q-.018.045.031.047l.308.009h.002a.04.04 0 0 0 .032-.021q.032-.065-.022-.11a.04.04 0 0 1-.015-.034v-.341q0-.024.023-.03l.109-.026.008-.001c.017 0 .03.013.032.029v.358l-.002.007-.05.118q-.018.044.029.044l.313.005q.024-.002.033-.023.024-.067-.03-.109a.05.05 0 0 1-.018-.038c0-.131.034-.422-.05-.517-.099-.113-.265-.061-.373.033zm-1.922-3.614.05-.05q.273-.28.53-.575a1 1 0 0 1-.33.142l-.007.002c-.086.019-.144.007-.181-.021a.15.15 0 0 1-.051-.075v-.001a.3.3 0 0 1-.01-.079v-.014.001q-.151.12-.329.218l-.012.006a.4.4 0 0 1-.105.037.13.13 0 0 1-.062-.001.034.034 0 0 1-.027-.032c0-.006.002-.021.019-.03a.1.1 0 0 1-.034-.001c-.073-.012-.105-.064-.109-.137-.013-.196.075-.325.204-.458q.181-.187.374-.363c.068-.062.166-.144.203-.222v-.006l-.006-.024v.001l-.021-.05.001.002c-.333.347-.674.681-1.051.979a2.5 2.5 0 0 1-.303.207l-.012.007a.5.5 0 0 1-.15.065l-.004.001-.033.004a.14.14 0 0 1-.075-.022h.001a.13.13 0 0 1-.051-.079.4.4 0 0 1 .003-.173l-.001.003c-.131.115-.305.242-.456.276a.1.1 0 0 1-.039.006.15.15 0 0 1-.069-.018h.001a.13.13 0 0 1-.054-.076.4.4 0 0 1-.001-.187l-.001.003c-.242.173-.54.355-.837.355h-.002a.03.03 0 0 1-.029-.017q-.005-.008-.005-.017c0-.009.001-.011.004-.015a.04.04 0 0 1 .013-.014c-.118-.002-.223-.051-.261-.193q-.136.106-.3.19l-.011.005c-.062.028-.117.041-.151.03a.034.034 0 0 1-.027-.032c0-.007.002-.025.023-.033l-.02.002a.13.13 0 0 1-.078-.025c-.029-.022-.05-.061-.053-.123-.011-.236.141-.398.309-.556q.183-.171.364-.345a1 1 0 0 0 .094-.107q.019-.029.008-.059a.2.2 0 0 0-.02-.047l.001.001q-.414.441-.861.83l-.014.012a3 3 0 0 1-.458.332l-.014.008c-.129.071-.257.115-.354.1-.125-.02-.17-.107-.174-.21v-.002q.001-.144.055-.268l-.002.004a1 1 0 0 1 .203-.318l-.001.001c.237-.255.582-.541.934-.604.04-.007.122-.036.178-.027a.1.1 0 0 1 .063.034q.022.026.019.081a.24.24 0 0 1-.056.12 1 1 0 0 1-.146.142 1.7 1.7 0 0 1-.623.312l-.012.003a.1.1 0 0 0-.03.016q-.18.167-.323.364l-.005.007a.5.5 0 0 0-.083.162l-.001.003q-.012.046.005.061c.017.015.033.01.055.007a.6.6 0 0 0 .166-.056q.14-.072.253-.158l-.004.003c.448-.331.804-.69 1.202-1.104a.46.46 0 0 1 .379-.349l.016-.002q.037.001.06.03a.04.04 0 0 1 .001.05.4.4 0 0 1-.046.05 5 5 0 0 0-.296.277l.006.018q.068.12.084.2c.026.119-.036.221-.106.306-.157.191-.348.357-.527.527a.7.7 0 0 0-.15.183l.001-.001c.176-.08.344-.203.492-.325a.2.2 0 0 0 .032-.04.94.94 0 0 1 .281-.303c.059-.034.117-.046.167-.026a.052.052 0 0 1 .022.081h.003q.012 0 .023.007.022.016.024.033v.005a.05.05 0 0 1-.015.034q-.212.206-.445.393l-.012.009q-.002.002-.002.005l-.002.023a.1.1 0 0 0 .006.038v-.001q.033.072.08.082c.047.01.063-.004.095-.023a.5.5 0 0 0 .127-.116l.001-.001c.175-.22.279-.458.378-.709.079-.203.229-.423.435-.489a.37.37 0 0 1 .214-.003l-.003-.001a.2.2 0 0 1 .117.09c.096.179-.113.29-.253.241a.06.06 0 0 1-.036-.052q0-.026.019-.042c.022-.019.05-.037.071-.061.014-.016.026-.034.023-.057a.1.1 0 0 0-.065-.025.1.1 0 0 0-.043.01h.001a.3.3 0 0 0-.112.086v.001c-.137.162-.153.364-.19.57a.95.95 0 0 1-.16.382l.002-.003c.105-.067.194-.133.28-.203l-.005.004c.12-.094.226-.188.327-.287l-.001.001c.125-.133.319-.317.524-.441a.83.83 0 0 1 .417-.141.33.33 0 0 1 .191-.036h-.002q.055.008.091.044.026.026.034.069a.25.25 0 0 1 .17.006.15.15 0 0 1 .068-.039q.034-.005.051.008a.06.06 0 0 1 .023.048q-.002.038-.041.062c-.021.014-.051.023-.064.035a9.022 9.022 0 0 0-.913.966q-.03.038-.055.077.213-.101.379-.24l-.003.002c.381-.296.718-.637 1.104-1.043a.45.45 0 0 1 .406-.346h.001a.052.052 0 0 1 .046.076.2.2 0 0 1-.032.039q-.16.14-.31.288.003.018.007.026a.7.7 0 0 1 .084.2.26.26 0 0 1-.016.156.7.7 0 0 1-.131.193c-.178.197-.425.405-.564.559a.5.5 0 0 0-.073.101l-.001.003.012-.005c.147-.072.273-.153.39-.246l-.004.003c.35-.278.661-.572.946-.89l.006-.007q.033-.034.035-.053 0-.008-.009-.017-.015-.017-.043-.042a.05.05 0 0 1-.015-.034v-.004q.004-.033.022-.045c.018-.012.028-.013.05-.007a.18.18 0 0 1 .09.066.4.4 0 0 1 .066.14c.031.157-.068.294-.161.399-.244.274-.518.471-.708.741a.7.7 0 0 0 .342-.131q.323-.21.563-.484l.003-.003c.134-.151.269-.309.412-.444.095-.09.208-.16.345-.12a.17.17 0 0 1 .094-.043h.006q.024.001.036.02a.06.06 0 0 1 .012.042c-.002.025-.022.047-.049.061a.5.5 0 0 0-.091.057c-.668.581-1.21 1.298-1.871 1.862q-.086.074-.186.151l-.012.009c-.029.471-.176 1.507.222 1.762.068.043.11.107.051.174a.04.04 0 0 1-.031.015l-.01-.001a1.29 1.29 0 0 0-1.165.294.07.07 0 0 1-.083.003.15.15 0 0 1-.064-.122v-.006q0-.022.018-.034c.504-.331.46-1.086.395-1.673-.265.12-.544.192-.824.176-.211-.012-.395-.084-.529-.245l-.023-.029-.001-.001q-.01.048-.017.098-.004.03-.035.031l-.114.004a.03.03 0 0 1-.031-.032l.001-.008a.43.43 0 0 0-.012-.297c-.112-.264-.784-.299-1.019-.274q-.081.008-.193.119-.499.496-.299 1.191.134.47.618.559c.245.046 1.071.057.788-.455a.04.04 0 0 0-.025-.019l-.281-.073q-.018-.005-.019-.023c-.004-.082.049-.114.126-.11q.332.016.94-.027.142-.01.136.144a.04.04 0 0 1-.018.031c-.418.259-.519.524-.365 1.001q.012.036-.026.037l-.132.003a.03.03 0 0 1-.029-.016c-.308-.476-.804-.275-1.239-.144a.58.58 0 0 1-.443-.06q-1.028-.534-.764-1.684c.186-.805 1.152-.929 1.805-.683.292.11.5.123.738-.083a.063.063 0 0 1 .098.019l.076.156a.1.1 0 0 1 .005.02q0 .016-.01.028c-.088.106-.161.23-.211.365l-.003.009q.04.067.099.114l.001.001c.1.081.224.135.36.152h.004a1.6 1.6 0 0 0 .849-.136l-.022-.19c-.021-.199-.191-.339-.363-.41a.08.08 0 0 1-.048-.072q0-.023.012-.042.05-.077.142-.057a2.042 2.042 0 0 0 1.011-.019l-.014.003c.102-.027.173-.009.199.097a.04.04 0 0 1-.004.027zm-.167.158q.08-.072.157-.149a.5.5 0 0 0-.156.148l-.001.002zm-1.895-.728a.3.3 0 0 0 .075-.028c.106-.06.197-.124.282-.196l-.002.002q.48-.4.892-.869a.2.2 0 0 0 .038-.071q.004-.012-.001-.023-.006-.009-.021-.013-.03-.006-.077.014a1 1 0 0 0-.201.128l.002-.001c-.3.233-.696.67-.797.788-.061.071-.155.178-.189.27zm-2.211-.789q.258-.1.446-.273l-.001.001c.043-.039.085-.077.105-.134a.1.1 0 0 0-.043.01.6.6 0 0 0-.119.066l.002-.001a3 3 0 0 0-.389.332zm6.136 6.072a46 46 0 0 1-1.043-.014c-1.453 2.314-3.811 3.854-6.743 3.854-2.414 0-4.915-1.096-6.418-2.756-.019-.021-.552.002-.606.031 1.629 1.916 4.314 3.391 7.024 3.391 3.31 0 6.26-1.817 7.786-4.506m-8.388-3.983-.008-.019c.206.422.321.896.321 1.397v.054c-.001.109.029.243.164.21.38-.092.588-.035.931.039.118.026.135-.078.08-.155l.009.013a4.4 4.4 0 0 1-.607-1.186c-.073-.221-.102-.48-.142-.72-.038-.223-.092-.36-.346-.33l.02-.002a4 4 0 0 1-.522.032c-.397 0-.782-.055-1.116-.151a.05.05 0 0 0-.039.006c-.111.074-.09.17.021.23l-.02-.01c.316.175.659.307 1.047.393.096.021.171.12.208.198zm-7.24.631a.04.04 0 0 0-.005.018q0 .013.008.023c.071.086.262.197.376.139.089-.045.187-.27.222-.359a.077.077 0 0 1 .095-.044c.87.281 1.378 2.343 1.525 3.132.014.077.018.221.064.323a.08.08 0 0 0 .114.032l.01-.007.757-.679a.21.21 0 0 0 .052-.244 31 31 0 0 0-.279-.61c-.167-.351-.055-.613.07-1.018q.113-.36-.237-.517a.058.058 0 0 0-.079.035c-.031.095-.194.451-.333.214-.409-.695-.695-1.295-1.101-1.715a.16.16 0 0 0-.128-.047q-.524.047-1.082-.012c-.126-.014-.206.05-.25.158l-.002.009q.002.02.021.025c.724.113.406.758.179 1.145zm5.62 2.07-.022-.087a12 12 0 0 0-1.037-2.486c-.125-.227-.122-.579-.123-.828a.093.093 0 0 0-.118-.09.8.8 0 0 1-.334.036q-.438-.059-.865-.085h-.006a.113.113 0 0 0-.112.097c-.016.116.183.193.291.269.183.129.324.332.187.546a3 3 0 0 1-.362.466.08.08 0 0 0-.016.081c.048.129.25.327.387.18a.05.05 0 0 1 .037-.015q.165.002.242.118c.24.359 1.101 1.907.677 2.306-.086.081-.365.233-.325.364v.001a.09.09 0 0 0 .136.046c.503-.361 1.367-.276 1.909-.079.089.033.18.039.201-.073a.05.05 0 0 0-.013-.043c-.223-.228-.647-.416-.735-.723zm8.895-1.557c.193.327.595.467.962.537.656.125 1.315-.158 1.843-.508a.03.03 0 0 0 .013-.016l.002-.011a.03.03 0 0 0-.032-.032l-.01.002c-.783.249-2.062.47-2.219-.715a.87.87 0 0 1 .241-.722c.223-.247.517-.21.817-.199.276.011.31.332.26.538l-.002.012q0 .017.012.029.057.058.132.001a.1.1 0 0 0 .041-.082v-.001a.65.65 0 0 1 .298-.558q.019-.013.015-.035v-.002a.34.34 0 0 0-.184-.258l-.013-.003a.03.03 0 0 0-.024.013c-.187.3-.481.116-.723.043-1.305-.395-2.069.883-1.429 1.969zM19.67 8.448c1.905.923 3.403 3.918 3.461 4.803.091.015.837.01.861.015-.662-2.086-2.047-3.709-3.988-4.829-.038.01-.297 0-.335.01zm-5.984 9.271c-.042-.232.347-.516.288-.804a.07.07 0 0 0-.023-.038.23.23 0 0 0-.198-.046c-.153.033-.165.275-.213.372-.092.187-.813 1.183-.164 1.189.153.001.454.031.586-.036.105-.053.191-.266.254-.369.043-.07.109-.106.173-.155a.06.06 0 0 0 .021-.037c.094-.762-.48-.226-.656-.054a.05.05 0 0 1-.029.012.04.04 0 0 1-.041-.034zm-6.424 2.147a.05.05 0 0 1-.023-.022c-.228-.561.261-1.448.523-1.916a.03.03 0 0 0 .004-.018.04.04 0 0 0-.01-.026.55.55 0 0 0-.325-.167.064.064 0 0 0-.07.043q-.247.742-.541 1.477c-.16.402-.442.813-.837 1.012a.04.04 0 0 0-.023.027q-.04.104.046.171a.04.04 0 0 0 .026.009.03.03 0 0 0 .022-.007 1.82 1.82 0 0 1 1.36-.284.06.06 0 0 0 .053-.021.159.159 0 0 0 .009-.19.02.02 0 0 0-.011-.009zm7.522-.499.012-.003q.02.002.026.02l.001.006v.655q-.001.028-.025.041l-.029.015q-.025.013-.021.041l.007.06q.003.027.03.027h.384a.066.066 0 0 0 .051-.108.06.06 0 0 0-.04-.022l-.016-.006a.04.04 0 0 1-.021-.035l.002-.666a.02.02 0 0 1 .021-.02h.004q.085.02.091.107.001.027.028.027l.081.001a.027.027 0 0 0 .027-.027v-.002l-.014-.233a.07.07 0 0 0-.105-.052l-.047.032a.04.04 0 0 1-.022.007c-.15 0-.413.031-.543-.049a.1.1 0 0 0-.024-.007.05.05 0 0 0-.047.043l-.022.249v.002c0 .019.015.034.033.035h.063a.03.03 0 0 0 .03-.023v-.001a.16.16 0 0 1 .089-.114zm3.369.642q-.002.023-.024.023c-.428.013-.306-.882-.052-.636a.028.028 0 0 1 .006.033.08.08 0 0 0 .005.089.07.07 0 0 0 .095.018l.225-.151a.1.1 0 0 0 .021-.024.06.06 0 0 0-.056-.082l-.01.001a.14.14 0 0 1-.074-.017c-.363-.172-.739.099-.749.475-.013.449.359.641.749.399l.01-.003a.02.02 0 0 1 .019.015q.019.081.098.075a.03.03 0 0 0 .029-.03l.02-.537v-.001a.05.05 0 0 0-.046-.048l-.39.002q-.025 0-.025.025v.073q0 .03.03.03h.104q.03 0 .03.031l-.013.241z"/></svg>