<svg xmlns="http://www.w3.org/2000/svg" width="100%" height="100%" viewBox="0 0 24 24"><path fill="currentColor" d="M13.355 22.675a.42.42 0 0 1 .441.001.05.05 0 0 1 .025.042.05.05 0 0 1-.014.034l-.022.022a.08.08 0 0 0-.024.07l.02.15q.008.05-.042.067a1.6 1.6 0 0 1-.62.082q-.054-.004-.043-.055l.047-.232a.04.04 0 0 0-.002-.025.2.2 0 0 1 .017-.206.1.1 0 0 1 .062-.042q.128-.028.155.093a.2.2 0 0 0-.086.056q-.02.024.003.046l.029.029a.02.02 0 0 0 .013.005.02.02 0 0 0 .017-.015l.025-.122zm.071.228q-.034.026.014.062c.014.01.033.008.043-.005l.054-.063q.037-.042-.014-.066l-.042-.02q-.043-.02-.049.029zm18.277-12.792.015.024a.1.1 0 0 1 .008.025c.035.385.07.728.041 1.137-.02.284.038.548.009.839-.058.593.047 1.285-.009 1.926q-.035.39-.049.783c-.003.069.037.132-.029.203q-.026.027-.005.058c.088.136.087.479.147.526a.08.08 0 0 1 .032.061q.144 2.274.028 4.549c-.007.126-.109.261-.031.443.245.566-.331.419-.618.389h-.005a.043.043 0 0 0-.042.04.4.4 0 0 1-.147.293.08.08 0 0 1-.066.019.54.54 0 0 0-.348.068.07.07 0 0 1-.07-.001l-.026-.015a.1.1 0 0 0-.042-.012 43 43 0 0 1-.948-.016c-.104-.002-.225.069-.358-.001a.13.13 0 0 0-.072-.015q-.8.058-1.061.026c-.182-.022-.307.043-.444.039-.26-.008-.486-.118-.739-.086a3.5 3.5 0 0 1-.568.026.2.2 0 0 0-.073.014.3.3 0 0 1-.277-.012.1.1 0 0 0-.023-.006l-.572-.018a.2.2 0 0 0-.071.012c-.136.051-.286-.01-.398-.011q-.732-.006-1.459.044-.218.015-.541-.103a.1.1 0 0 0-.076.003.32.32 0 0 1-.291-.002.1.1 0 0 0-.079-.005.17.17 0 0 1-.116-.001.1.1 0 0 0-.078.002l-.235.098a.09.09 0 0 1-.084-.008q-.09-.061-.14.025a.1.1 0 0 1-.063.046 2.6 2.6 0 0 1-.557.054q-.769.003-1.847.049c-.433.018-.869-.015-1.306-.027-.274-.008-.532.065-.845-.082a.08.08 0 0 0-.066-.002.2.2 0 0 1-.097.012.15.15 0 0 0-.088.015.43.43 0 0 1-.429-.009.15.15 0 0 0-.078-.021 614 614 0 0 0-3.324.003.4.4 0 0 1-.197-.068.12.12 0 0 0-.069-.019l-.662.005a.15.15 0 0 0-.082.026.35.35 0 0 1-.327.042q-.039-.014-.058.023-.037.07-.099.077-.31.03-1.218.048-1.433.028-2.864.018c-.292-.002-.457-.166-.77-.05a.53.53 0 0 1-.349.017.1.1 0 0 0-.071.002c-.301.102-.96.024-1.296.007a.1.1 0 0 0-.072.022q-.07.054-.141.009a.13.13 0 0 0-.075-.022l-1.675.022c-.222.004-.41-.077-.594-.082q-.27-.008-.543-.02a.13.13 0 0 0-.075.018q-.248.142-.449-.055a.08.08 0 0 0-.07-.025q-.091.01-.146-.069a.06.06 0 0 0-.057-.026l-.802.066a.05.05 0 0 1-.05-.032c-.089-.234-.063-.503-.083-.693a3.3 3.3 0 0 1 .019-.813c.061-.405.053-.706.052-1.079-.001-.197-.125-.312-.036-.539a.13.13 0 0 0 .008-.065c-.096-.679-.203-1.536-.082-2.179a.1.1 0 0 1 .046-.07q.072-.048.021-.129a.1.1 0 0 1-.014-.046 19 19 0 0 1 .006-.896c.004-.104-.063-.217-.051-.292q.051-.31.039-.622c-.01-.267.034-.47.086-.715.029-.133-.004-.208-.035-.336a.2.2 0 0 0-.033-.066c-.113-.133-.028-.577-.017-.866.01-.275-.13-.496-.125-.768q.007-.35.025-.701a.13.13 0 0 0-.015-.073c-.116-.243.022-1.163.096-1.442.031-.115.008-.148-.018-.257a.2.2 0 0 0-.03-.069c-.152-.22-.067-.598-.042-.865.02-.203-.074-.376-.073-.592.001-.228-.185-1.138.409-.837q.034.018.064-.005a.77.77 0 0 1 .634-.138.08.08 0 0 0 .06-.015c.365-.302.835-.111 1.269-.178.281-.043.58.004.876.008.362.005.597.214.941-.001a.2.2 0 0 1 .075-.025q.405-.034.8.061.039.009.073-.009a.9.9 0 0 1 .546-.096.1.1 0 0 0 .066-.011c.118-.058.242-.022.341-.031.549-.052 1.022-.082 1.615-.028.38.035.979.106 1.336-.025a.15.15 0 0 1 .076-.007q.256.045.511.002c.517-.086 1.157-.122 1.706-.044a.1.1 0 0 1 .058.029l.033.033a.07.07 0 0 0 .058.019q.42-.057.84-.025c.178.013.376-.061.52-.042.315.042.63-.005.935.074q.176.046.358.067a.13.13 0 0 0 .071-.012c.473-.234.846-.046 1.348-.116.527-.073 1.035-.045 1.572-.059.549-.014 1.084.115 1.651.09.167-.007.358-.113.572-.04a.14.14 0 0 0 .073.004q.29-.066.58-.079c.429-.021 1.222-.145 1.553.068q.031.02.062.002c.257-.141.832.035 1.013-.011q.353-.088.71-.001.057.014.136-.028a.12.12 0 0 1 .078-.011l.618.138a.13.13 0 0 0 .075-.005q.133-.052.267-.1c.242-.086.57-.022.814.028a.14.14 0 0 0 .079-.005q.255-.083.523-.095a.13.13 0 0 1 .082.022q.06.038.089-.038.017-.04.059-.039.338.008.658.104a.1.1 0 0 0 .069-.002.2.2 0 0 1 .112-.01c.327.062.643.027.963.097.2.043.322.083.534.017q.468-.147.954-.014.038.01.074-.004.199-.078.407-.093c.321-.022.628-.092.964.035.231.088.557-.045.708.192.055.085.036.182.073.28q.023.063.022.113a96 96 0 0 0-.016 2.573c.002.337.086.632-.078.994a.07.07 0 0 0 .005.067zM11.286 7.165a.1.1 0 0 0-.032-.012.05.05 0 0 1-.038-.028.06.06 0 0 1-.002-.039q.04-.185.14-.363.028-.05.057-.001.088.147-.036.281a.05.05 0 0 0-.008.054l.055.119q.003.007.004.016a.035.035 0 0 1-.055.029l-.084-.056zm5.684-.171q.045-.105-.05-.183a.04.04 0 0 0-.023-.008.036.036 0 0 0-.036.036v.133c0 .031.026.057.057.057a.06.06 0 0 0 .052-.035m-7.941-.018-.205-.042q-.042-.008-.062.029a.26.26 0 0 0-.018.236l.002.005c.01.018.033.024.051.014l.005-.003.239-.187a.03.03 0 0 0 .011-.023.03.03 0 0 0-.023-.029m13.186.048a1 1 0 0 0 .118.062.076.076 0 0 0 .076-.076.08.08 0 0 0-.066-.076.17.17 0 0 0-.131.032l-.006.005a.034.034 0 0 0 .002.048l.006.004zm-9.995.113.016.002c.036 0 .066-.03.066-.066a.06.06 0 0 0-.025-.051l-.03-.025q-.028-.023-.057-.002-.144.1.03.142m5.628-.844a.03.03 0 0 1-.019.006.035.035 0 0 1-.035-.035q0-.015.012-.026.132-.137.29-.017.016.01.016.028a.033.033 0 0 1-.033.033.03.03 0 0 1-.015-.004.24.24 0 0 0-.215.014zm11.875-.035q.033-.04-.019-.048l-.433-.055-.009-.001a.07.07 0 0 0-.068.068c0 .027.016.052.041.062l.294.133q.048.022.082-.019l.113-.141zm-14.66.066q.098.015.102.042a.16.16 0 0 0 .036.08c.051.063.137.08.189.037a.1.1 0 0 0 .038-.066q.015-.078.092-.119c.077-.041.049-.044-.009-.051l-.476-.052q-.044-.006-.056.038l-.008.033q-.01.043.033.049zm-7.11-.003q.018.024.049.002.014-.01.014-.027c0-.017-.006-.022-.015-.028q-.123-.082-.267.005-.036.021-.029.047.01.036.045.021a.3.3 0 0 1 .201-.019zm-3.197.121.326.166q.057.029.095-.022l.106-.146q.036-.05-.025-.048c-.143.003-.394-.086-.506.019l-.002.002a.02.02 0 0 0 .003.027zm16.574.604q.026.094.174.089a.025.025 0 0 0 .023-.025q0-.012-.009-.019-.112-.084.002-.184a.07.07 0 0 0 .023-.051v-.192a.05.05 0 0 0-.049-.048.05.05 0 0 0-.047.034 2 2 0 0 1-.088.244q-.042.1-.029.152m-19.395.249q.105.055.139 0a.15.15 0 0 0 .018-.077c-.003-.066-.045-.119-.095-.117a.08.08 0 0 0-.056.029q-.056.07-.027.141.006.015.022.023zm4.789-.404.082.16q.01.019.033.02a.04.04 0 0 0 .037-.031q.021-.144-.099-.201a.039.039 0 0 0-.056.035.04.04 0 0 0 .004.018zm12.138.027q-.125.123.016.239.028.024.049-.008a.34.34 0 0 1 .207-.158q.02-.007.021-.028c.001-.021-.009-.025-.021-.028l-.178-.042a.09.09 0 0 0-.093.026zm11.89.724c.136-.058.105-.284-.062-.298q-.045-.004-.033.04a.22.22 0 0 1-.069.245q-.034.03-.015.072l.061.131q.04.088.058-.007l.027-.141a.06.06 0 0 1 .033-.042M.553 12.296a.2.2 0 0 1 .063-.134.13.13 0 0 0 .039-.071q.037-.197-.152-.263-.04-.014-.025.026c.079.22-.119.361-.015.518l.003.004a.04.04 0 0 0 .054.003l.003-.003a.14.14 0 0 0 .031-.08zm30.967 2.723.024-.094q.003-.009.002-.018a.064.064 0 0 0-.064-.064.07.07 0 0 0-.057.035q-.054.099.027.163a.04.04 0 0 0 .027.009.04.04 0 0 0 .041-.032zm-6.29-8.735c.122.179.296.127.372-.058q.015-.039-.026-.039a2 2 0 0 1-.351-.045q-.137-.029-.17.075-.017.052.037.045l.068-.009a.07.07 0 0 1 .071.032zm-9.872 14.028q-.158-.082-.284.039-.046.045.017.057l.092.018a.2.2 0 0 1 .08.034l.143.103c.03.021.071.014.093-.015l.121-.158q.05-.066-.032-.066h-.177a.1.1 0 0 1-.052-.013zM.464 8.168a.23.23 0 0 1 .072-.183.15.15 0 0 0 .042-.071q.054-.217-.158-.3-.053-.02-.035.033a.45.45 0 0 1 .01.244.1.1 0 0 1-.01.024q-.087.15.035.273a.02.02 0 0 0 .009.006.026.026 0 0 0 .033-.015l.002-.01zm30.349 3.711.1-.157q.021-.034-.004-.066l-.143-.173a.03.03 0 0 0-.022-.01.03.03 0 0 0-.028.028l.001.006a.5.5 0 0 1-.041.343.12.12 0 0 0-.004.096l.051.133a.03.03 0 0 0 .029.021.03.03 0 0 0 .03-.029l.011-.129a.13.13 0 0 1 .02-.061zM7.272 7.554c-.179-.01-.375-.152-.56-.056-.225.117-.383-.025-.54.055a.14.14 0 0 1-.075.015 8 8 0 0 0-1.005-.021c-.094.004-.161-.042-.269.029a.08.08 0 0 1-.069.01c-.234-.072-.495-.032-.671-.037-.486-.014-.941.041-1.425-.01a.2.2 0 0 1-.073-.025c-.099-.059-.198-.016-.283-.02a10 10 0 0 1-.461-.028.1.1 0 0 0-.07.022.37.37 0 0 1-.194.078q-.039.005-.039.044-.004.871.002 1.741c.003.367.079.687-.072 1.087a.06.06 0 0 0 .015.069l.02.02q.031.03.031.074l-.01 1.621q0 .04.015.078a.2.2 0 0 1 .013.116c-.074.441-.028.963-.028 1.414 0 .097.062.178.053.276-.03.302-.106.59-.094.895q.007.192.002.385c-.004.143.071.273.054.43a.14.14 0 0 0 .01.071c.119.288.102.521.11.821.02.661.004 1.323.051 1.982.022.314-.031.661-.021.941q.01.237.008.477c0 .025.017.046.042.051q.413.08.827.032c.245-.029.45.003.687-.002.314-.007.817.189 1.061.06.231-.123.583-.073.833-.035.187.029.311-.049.457-.065.596-.066 1.503-.181 2.232-.083q.546.074 1.098.049c.124-.006.254-.072.387-.064q.223.013.284.005c.367-.05 1.677-.23 2.033-.006q.033.02.07.018.392-.018.782-.012.112.002.5-.029c.454-.035.928.069 1.38.112a.14.14 0 0 0 .072-.013c.441-.213.851 0 1.32-.108.54-.123 1.02-.024 1.63-.046.496-.018.986.109 1.502.088.173-.007.359-.076.552-.076.647-.001 1.541-.212 2.185-.039a1 1 0 0 0 .292.041c.263-.012.789.096 1.002-.014a.14.14 0 0 1 .069-.015q.35.018.701.024c.284.005.561.12.881.083a.1.1 0 0 0 .067-.033c.125-.129.644-.061.824-.045.247.02.473-.072.735-.045a.13.13 0 0 0 .072-.013.47.47 0 0 1 .318-.039q.515.118.982.093a.14.14 0 0 1 .07.015.18.18 0 0 0 .17 0 .1.1 0 0 1 .072-.009l.617.13a.14.14 0 0 0 .08-.007q.456-.18.934-.096c.284.05.58-.057.872-.063q.04-.001.045-.041a8.6 8.6 0 0 0 .052-1.454c-.005-.109-.055-.241-.042-.366q.023-.194.014-.264a12 12 0 0 1-.077-2.06.08.08 0 0 1 .04-.066q.096-.057.029-.153a.12.12 0 0 1-.022-.074l.033-.906a.13.13 0 0 0-.015-.066.4.4 0 0 1-.039-.163 7 7 0 0 1 .124-1.415c.043-.223-.135-.373-.122-.609.018-.331.062-.633-.019-.971-.088-.364-.053-.816-.066-1.071q-.018-.39-.013-.782c.004-.323.119-.682.095-1.055a.1.1 0 0 0-.029-.067c-.168-.187-.055-.698-.032-.939q.004-.04-.035-.041a31 31 0 0 0-1.544-.021c-.57.023-1.144.055-1.71-.031-.321-.049-.666.037-.949.025a31 31 0 0 0-2.671.008c-.183.009-.358-.041-.547-.047q-.032-.002-.069-.039a.07.07 0 0 0-.064-.02c-.325.06-.582-.103-.862.1a.06.06 0 0 1-.069.003q-.085-.05-.13.024a.1.1 0 0 1-.07.045 6 6 0 0 1-.571.029c-1.37.024-2.452.002-3.366.05q-.3.016-.592-.081c-.269-.09-.417.167-.68.019a.2.2 0 0 0-.067-.021 7.4 7.4 0 0 0-1.438-.002 1.2 1.2 0 0 1-.31-.012c-.464-.082-1.183.095-1.745-.045-.275-.069-.523-.013-.799-.045a.08.08 0 0 0-.065.019q-.16.13-.334.051-.034-.015-.049.019l-.017.035a.07.07 0 0 1-.065.045c-.879.082-1.771.056-2.654.089a4 4 0 0 1-.335-.004c-.398-.022-.848.001-1.27-.022zm18.615 4.387-.303-.005q-.042 0-.056.039l-.183.511a.05.05 0 0 0-.002.028c.09.435.053.59-.177.959a.13.13 0 0 0-.019.07 1.8 1.8 0 0 1-.229.914.16.16 0 0 0-.019.08c.012.427.046.758-.077 1.01-.126.259-.096.477-.299.72a.08.08 0 0 0-.018.067q.068.437-.181.796a.13.13 0 0 0-.024.076c-.002.314-.076.657-.459.688-.541.043-1.479.22-1.528-.506a.1.1 0 0 0-.025-.059.52.52 0 0 1-.135-.392.1.1 0 0 0-.026-.078 1.25 1.25 0 0 1-.3-.69c-.032-.289-.199-.527-.208-.796q-.015-.393-.086-.577c-.139-.351-.303-.698-.354-1.074-.058-.424-.062-.815-.421-1.074a.07.07 0 0 0-.072-.004l-.167.096a.07.07 0 0 0-.033.064c.078.846-.02 1.627-.038 2.432q-.006.264.052 1.077c.026.377.143 1.467-.17 1.747a.1.1 0 0 1-.071.027 9 9 0 0 0-1.2.076c-.496.067-.529-.427-.529-.831-.001-.683-.049-1.39-.015-2.043q.048-.94.119-1.881c.028-.365-.143-.608-.059-1.014a.1.1 0 0 0-.011-.072.4.4 0 0 1-.044-.267.1.1 0 0 0-.008-.059.47.47 0 0 1 .032-.493.08.08 0 0 0 .013-.068c-.193-.817-.336-1.453-.038-2.269a.11.11 0 0 1 .104-.073 31 31 0 0 0 1.616-.052c.279-.017.594.1.859-.004.486-.19 1.046-.084 1.032.556a.1.1 0 0 0 .019.068c.157.252.179.515.301.779q.158.343.157.733 0 .045.022.085a.6.6 0 0 1 .046.488.09.09 0 0 0 .007.067c.102.179.36.657.323.817q-.004.02.017.066.007.016.022.009.02-.01.032.01a.92.92 0 0 1 .06.753.04.04 0 0 0 .024.052l.639.272q.042.017.072-.015.133-.145.016-.306a.14.14 0 0 1-.026-.07c-.041-.476-.051-1.174.203-1.595a.1.1 0 0 0 .012-.069c-.064-.365.127-.466.17-.768q.078-.555.173-.757.102-.22.125-.39c.139-1.04.979-1.034 1.797-.933.512.062 1.071-.01 1.575-.092.344-.056.593.112.627.467q.061.626.106 1.248c.032.432-.032.794-.096 1.236-.048.338.062.653.017.977-.048.338-.134.67-.097 1.01.022.2.052.409.055.608q.039 1.962.012 3.127c-.011.472-.341.506-.741.477q-.636-.046-1.275-.016c-.499.023-.513-.365-.468-.762.03-.267-.122-.57-.179-.835-.055-.255.203-.537.136-.752-.113-.363-.001-.624.197-.906a.1.1 0 0 0 .015-.069 5 5 0 0 1-.105-.899 1.4 1.4 0 0 0-.079-.471q-.057-.15.044-.667a.06.06 0 0 0-.013-.05l-.135-.16q-.037-.044.005-.086.149-.14-.001-.311a.07.07 0 0 0-.055-.025zm-2.426 4.564c-.066-.278-.281-.297-.435-.079q-.025.036.018.045.149.03.2.166a.044.044 0 0 0 .064.02l.128-.085q.037-.024.026-.068zm2.92.304c.084.119.133.288.067.426q-.017.037.012.066l.159.159q.032.032.053-.007a.7.7 0 0 0 .019-.696.046.046 0 0 0-.053-.027l-.24.039q-.04.007-.017.04m-6.912.271-.002.227c0 .015.013.028.028.028l.123.001c.126 0 .229-.024.229-.055v-.171c0-.03-.103-.056-.228-.056l-.123-.001a.03.03 0 0 0-.028.028zm8.118.136q-.006.048.042.058l.192.036q.045.009.031-.035l-.033-.106a.08.08 0 0 0-.05-.052q-.164-.057-.182.098zm-2.894-5.946.437.086q.033.006.031-.027l-.021-.257a.04.04 0 0 0-.038-.035h-.391a.12.12 0 0 0-.117.117c0 .057.042.107.099.116m.24.767a.18.18 0 0 0-.087.071c-.044.07-.035.156.021.191a.11.11 0 0 0 .096.008.3.3 0 0 1 .14-.019q.059.008.06-.052l.007-.24q.001-.043-.04-.029zm-.062-2.025a2.5 2.5 0 0 0-.035.4q0 .017.007.032a.073.073 0 0 0 .124.014l.517-.643q.027-.036-.012-.056c-.23-.119-.552-.036-.6.252zm.511-.517.205-.103q.008-.005.009-.014l-.002-.007-.003-.006a.12.12 0 0 0-.161-.052l-.018.009a.12.12 0 0 0-.053.16l.003.006q.008.011.02.007m-8.089-.289a.08.08 0 0 1 .023-.105c.526-.403.712.345.718.685q.033 2.067.034 3.117a.8.8 0 0 1-.053.268.1.1 0 0 0 .001.071c.093.24-.008.438 0 .645q.045 1.068-.053 1.584-.027.149-.301.497a.1.1 0 0 0-.019.072c.062.401.031.7-.397.852q-.039.014-.03.055.099.413.514.324.034-.008.045.025l.137.367.007.023a.197.197 0 0 1-.145.237l-.024.004a7 7 0 0 1-.666.042c-.371.007-.704.254-1.036-.045-.291-.261-.491-.653-.664-.883a16 16 0 0 1-.679-.977c-.039-.059-.105-.093-.136-.167a9 9 0 0 0-.321-.695c-.175-.339-.473-.543-.66-.875a47 47 0 0 0-.416-.724c-.099-.169-.13-.399-.325-.572a.07.07 0 0 1-.022-.067c.096-.39-.362-.626-.464-.244q-.01.037.024.055.197.107.126.335a.13.13 0 0 0-.002.069q.057.234.043.469c-.023.387-.012.762-.089 1.143a2.1 2.1 0 0 0-.016.795c.053.296-.028.489-.015.761q.006.146-.012.294a.1.1 0 0 0 .016.068c.288.441.41.587.228 1.135-.087.26-.548.258-.77.246l-.98-.055a.34.34 0 0 1-.317-.336c.003-.902-.079-1.911.029-2.814.03-.252-.099-.373-.123-.583a28 28 0 0 1-.137-4.172c.008-.19-.015-.51.039-.774a.14.14 0 0 1 .053-.085.57.57 0 0 1 .62-.059.13.13 0 0 0 .076.01 6.2 6.2 0 0 1 1.37-.069c.496.04.854.879 1.113 1.246q.466.66.85 1.372a.2.2 0 0 1 .021.071q.007.087.103.138a.7.7 0 0 1 .371.533.16.16 0 0 0 .037.077 3.3 3.3 0 0 1 .725 1.34.06.06 0 0 0 .05.045l.328.049.011.001a.07.07 0 0 0 .071-.071.1.1 0 0 0-.004-.022q-.186-.555-.124-1.177a1.7 1.7 0 0 0-.006-.46.1.1 0 0 0-.037-.065q-.17-.145-.17-.291c-.005-.894-.083-1.723.083-2.601.086-.449.913-.17 1.114-.018a.2.2 0 0 0 .075.033c.08.016.156-.021.168-.082a.1.1 0 0 0-.011-.064zm-.071.642a.07.07 0 0 1-.063-.023.05.05 0 0 1-.014-.036q0-.029.024-.044l.257-.171.008-.004a.04.04 0 0 1 .05.022l.002.008.042.255q.006.036-.028.048a.26.26 0 0 1-.277-.055zm-.367 7.341c-.006.147-.22.341.018.45q.035.016.035-.022l.001-.425q0-.033-.033-.025-.02.005-.021.023zm-5.43.351a.4.4 0 0 0-.422.072.136.136 0 0 0 .084.241l.017-.001q.264-.03.504.035a.04.04 0 0 0 .028-.002l.266-.135a.04.04 0 0 0 .022-.036.04.04 0 0 0-.007-.023l-.125-.18q-.025-.037-.069-.025l-.225.059a.1.1 0 0 1-.073-.005m5.101-.342c.022-.166-.23-.287-.357-.339l-.014-.003a.04.04 0 0 0-.039.039q0 .013.008.023l.251.321c.016.02.041.032.066.032a.085.085 0 0 0 .084-.073zm-.197-7.395q-.07.184.055.323.039.043.066-.008.102-.19-.071-.328-.034-.027-.049.013zm-10.22 3.346.181.095a.049.049 0 0 0 .07-.043v-.005q-.009-.065.02-.103.024-.033.085-.039c.478-.049 1.003-.234 1.401-.045q.036.017.076.013l.794-.086.02-.002a.3.3 0 0 1 .313.287v.02l-.031 1.291v.001a.21.21 0 0 1-.218.206h-.001l-1.769-.06a.12.12 0 0 0-.08.027.58.58 0 0 1-.495.118.1.1 0 0 0-.071.016c-.144.102-.267.2-.291.388q-.051.399.052.792a.15.15 0 0 1 0 .074q-.14.54-.053 1.148a.4.4 0 0 1-.059.267.08.08 0 0 0-.007.078.8.8 0 0 1 .042.462.1.1 0 0 1-.085.078c-.715.085-1.405.247-2.127.118-.491-.088-.362-.722-.366-1.074q-.003-.255.062-.577c.085-.423.022-.694 0-1.058-.019-.328-.125-.699-.003-1.091a.07.07 0 0 0-.013-.064c-.369-.435-.091-1.732-.129-2.494a.14.14 0 0 0-.023-.069c-.136-.205-.104-1.089.008-1.308a.1.1 0 0 0 .009-.07c-.076-.337-.18-1.321.375-1.288q.625.038 1.238-.096c.129-.029.4.101.563.104q1.09.02 2.18.022c.17.001.346-.077.505-.056a8 8 0 0 0 1.238.063c.492-.015.345.348.325.622q-.045.645-.035 1.238a.23.23 0 0 1-.222.23q-1.223.025-2.476.009a.9.9 0 0 1-.534-.163.044.044 0 0 0-.053-.002l-.321.203a.08.08 0 0 0-.035.049l-.083.353a.1.1 0 0 0 .006.073c.169.409.07.772-.014 1.283q-.007.045.033.066zm-.488 3.06a.028.028 0 0 0 .047-.018l.076-.728v-.003a.03.03 0 0 0-.029-.029h-.31a.03.03 0 0 0-.029.027l-.027.489a.03.03 0 0 0 .009.023l.261.238zm12.516 4.073q-.17-.052-.217.099l-.001.008q.002.023.025.025.012 0 .019-.009.078-.092.185-.035.045.024.045-.026 0-.045-.055-.061zm-17.12.741q.124.032.212-.07a.052.052 0 0 0-.065-.08l-.154.085a.04.04 0 0 0-.019.031c0 .016.011.03.026.034m15.993-.116q-.031-.02-.035.017a.25.25 0 0 0 .04.165q.036.057.053-.008.031-.117-.059-.173zm-10.189.07.094.19q.009.016.028.017a.03.03 0 0 0 .031-.027.32.32 0 0 0-.065-.235.05.05 0 0 0-.041-.02.05.05 0 0 0-.052.052q0 .012.005.022zM1.3 15.375l.014-.17q.008-.094-.062-.03l-.078.073q-.042.039 0 .079l.075.069.008.006c.015.007.033-.001.04-.016l.003-.01zm30.277.487a.1.1 0 0 0 .007-.043q-.002-.04-.042-.038c-.114.01-.242-.07-.315-.055a.12.12 0 0 0-.085.064.1.1 0 0 0-.005.02q.002.029.027.041l.33.132q.042.017.066-.022a.1.1 0 0 0 .011-.059.1.1 0 0 1 .007-.039zm-30.658.231c-.018.007-.03.025-.03.044s.012.037.03.044l.332.134q.037.015.052-.022l.062-.17.001-.007a.02.02 0 0 0-.02-.02l-.01.003c-.181.113-.251-.076-.418-.006zm30.487 2.154-.059.24q-.01.039.025.057l.126.066q.018.01.039.01a.08.08 0 0 0 .082-.082.08.08 0 0 0-.033-.065.37.37 0 0 1-.139-.225q-.005-.017-.021-.018c-.016-.001-.019.007-.021.017zm-30.146.711a.1.1 0 0 0 .094-.033.044.044 0 0 0 .006-.053l-.146-.27q-.003-.005-.007-.009a.036.036 0 0 0-.05.002l-.006.01c-.042.099-.054.33.109.353m29.545.475a.1.1 0 0 0 .01-.04.05.05 0 0 0-.011-.035c-.019-.02-.056-.015-.082.009a.1.1 0 0 0-.023.039.3.3 0 0 0 .052.239.034.034 0 0 0 .061-.02v-.004l-.018-.125a.1.1 0 0 1 .011-.063m-30.233.293.001-.008a.03.03 0 0 0-.028-.028.03.03 0 0 0-.02.008q-.145.145.032.279.021.016.032.003.015-.018-.005-.032-.066-.044-.014-.223zm25.141.598q.002-.004.002-.01a.02.02 0 0 0-.021-.021h-.004l-.187.038a.06.06 0 0 1-.059-.023q-.115-.155-.271-.041a.04.04 0 0 0-.016.033.04.04 0 0 0 .029.039l.134.038a.1.1 0 0 1 .053.035c.118.15.264.039.338-.089zm4.126-.004a6 6 0 0 1-.409-.059.12.12 0 0 0-.135.076l-.003.013c0 .019.015.034.034.034h.002a.2.2 0 0 1 .185.082c.02.025.051.039.083.039a.26.26 0 0 0 .249-.172l.001-.003a.01.01 0 0 0-.008-.008zm-10.593.701-.214-.05q-.045-.011-.066.032l-.059.124a.078.078 0 0 0 .111.1l.237-.148a.03.03 0 0 0 .014-.026.03.03 0 0 0-.024-.031zm3.049.073q.067.108.197.075.027-.007.025-.035-.015-.117-.16-.136l-.008-.001a.063.063 0 0 0-.053.097zm-14.191-.728c-.055-.082-.207-.044-.263.008a.025.025 0 0 0 .017.043l.22-.005a.031.031 0 0 0 .025-.048zm-2.761.126-.375-.061a.04.04 0 0 0-.025.006l-.1.079a.03.03 0 0 0-.013.026c0 .019.015.034.034.034h.003a.24.24 0 0 1 .23.097.07.07 0 0 0 .063.03.235.235 0 0 0 .217-.15q.022-.053-.035-.062zm25.917.145q-.063.08.039.072.107-.008.153-.119a.1.1 0 0 0 .006-.026.062.062 0 0 0-.112-.037l-.086.109zm-9.677.413a.34.34 0 0 0 .034-.308l-.008-.013a.034.034 0 0 0-.047-.002l-.008.013-.133.362q-.017.044.025.068l.123.069q.006.003.013.004a.025.025 0 0 0 .025-.025l-.001-.008-.031-.089a.08.08 0 0 1 .008-.071m-10.181.205a.2.2 0 0 1-.053-.032q-.027-.026-.016-.06.031-.099.079-.272a.13.13 0 0 1 .095-.099l.009-.001c.017 0 .031.014.031.031v.003l-.042.452q-.003.036-.037.025a.14.14 0 0 1-.065-.045zm-2.386-.192q-.061-.036-.113-.018-.046.015-.066.069a.22.22 0 0 0-.005.144l.004.01a.066.066 0 0 0 .088.029l.009-.006.204-.146a.04.04 0 0 0 .015-.031.04.04 0 0 0-.038-.039h-.045a.1.1 0 0 1-.053-.014zm3.241.164h.132q.067 0 .028-.054l-.069-.096a.04.04 0 0 0-.035-.018.04.04 0 0 0-.038.023l-.049.091q-.028.054.032.054zm-10.254.068q.033.103.158.105.053 0 .029-.047l-.055-.111a.072.072 0 0 0-.13.004.07.07 0 0 0-.002.049m27.485 1.474.033.034a.089.089 0 0 1-.051.149l-.616.078h-.002a.04.04 0 0 1-.04-.036v-.002l-.003-.476a.05.05 0 0 1 .025-.049q.144-.096.265.027.032.033.072.008a.35.35 0 0 1 .351-.012.06.06 0 0 1 .037.055.17.17 0 0 1-.067.148q-.044.036-.004.075zm-.35.018q-.032.099.052.038l.073-.052a.03.03 0 0 0 .013-.026.033.033 0 0 0-.029-.033q-.082-.007-.109.074zm-.17-.217-.027.045-.003.006a.035.035 0 0 0 .02.043l.006.002.083.015q.047.008.037-.039a.11.11 0 0 0-.078-.086.035.035 0 0 0-.039.015zm-9.49 2.278q.036.068.107.097c.023.01.05.003.066-.016.155-.186.473-.083.411.196a.3.3 0 0 1-.044.055q-.042.048.01.107.033.037-.01.062l-.043.025q-.052.031-.067-.028l-.045-.179a.06.06 0 0 1 .008-.045q.068-.096-.008-.222-.014-.023-.027 0l-.102.177a.06.06 0 0 1-.055.029q-.061-.006-.081.045l-.001.002a.05.05 0 0 0 .031.063l.002.001.019.006a.112.112 0 0 1-.012.217c-.934.184-.892-.973-.829-1.528l.001-.015a.134.134 0 0 0-.124-.134l-.197-.016q-.024-.002-.025.022-.022.733-.001 1.467l.004.015.044.092q.018.037-.022.047c-.19.047-.366.035-.557.043-.15.008-.187-.126-.19-.257q-.009-.436-.042-.873a.09.09 0 0 1 .025-.07l.032-.032q.038-.038-.004-.071a.37.37 0 0 1-.143-.274.06.06 0 0 0-.057-.054l-.191-.002a.07.07 0 0 0-.07.048.6.6 0 0 1-.111.183.3.3 0 0 1-.057.047l-.037.022a.08.08 0 0 0-.027.105.8.8 0 0 1 .109.44.2.2 0 0 1-.022.082q-.036.066.026.106a.07.07 0 0 1 .035.064v.361a.156.156 0 0 1-.15.156c-.163.005-.34-.007-.516.005q-.156.01-.163-.181c-.011-.299.012-.618.008-.823a24 24 0 0 1 .008-1.678.28.28 0 0 1 .108-.204.04.04 0 0 1 .026-.009q.02 0 .031.016l.045.061q.028.039.072.018a.46.46 0 0 1 .403-.002.07.07 0 0 1 .04.049q.088.355-.024.706a.1.1 0 0 0 .157.107q.534-.441 1.088-.026a.08.08 0 0 0 .119-.022.35.35 0 0 1 .31-.173h.001a.09.09 0 0 1 .09.09.1.1 0 0 1-.014.048q-.047.075-.002.147l.005.005a.02.02 0 0 0 .023-.005l.003-.006.036-.221q.006-.04-.031-.059l-.025-.012a.05.05 0 0 1-.029-.046.44.44 0 0 1 .083-.267.09.09 0 0 0 .008-.083.3.3 0 0 1-.012-.237.06.06 0 0 1 .058-.041c.028 0 .053.02.06.047a1 1 0 0 1-.021.526q-.018.053.039.056.18.009.244.185.019.053-.035.069l-.08.025a.1.1 0 0 0-.054.045.36.36 0 0 1-.175.157.05.05 0 0 0-.033.047.05.05 0 0 0 .067.047.5.5 0 0 0 .29-.224.055.055 0 0 1 .076-.018l.055.034.005.004c.012.014.004.041-.018.059l-.008.006q-.016.01-.019.052a.1.1 0 0 0 .013.059c.032.053.111.064.176.025a.2.2 0 0 0 .053-.051.5.5 0 0 1 .214-.183q.048-.021.036-.071l-.037-.166-.001-.012a.052.052 0 0 1 .08-.044c.221.132.123.545-.218.511l-.01-.001a.1.1 0 0 0-.099.098l-.011.794a.16.16 0 0 0 .022.085l.059.102a.03.03 0 0 1 .003.019.03.03 0 0 1-.033.026.03.03 0 0 1-.017-.009.2.2 0 0 0-.082-.053q-.057-.02-.029.033zm-.204-.136a.1.1 0 0 0-.098-.005q-.06.03.005.045l.19.049.008.001a.03.03 0 0 0 .029-.029l-.002-.01q-.02-.06-.079-.043a.07.07 0 0 1-.053-.008m-1.121.396q-.026.058.001.107a.03.03 0 0 0 .019.016c.019.006.039-.007.046-.028a.04.04 0 0 0 0-.027.8.8 0 0 0-.183-.281q-.023-.021-.039.004a.25.25 0 0 0-.042.211.038.038 0 0 0 .063.019l.072-.067a.04.04 0 0 1 .026-.01.04.04 0 0 1 .037.055zm-1.166-.168.012.1a.05.05 0 0 0 .047.041.05.05 0 0 0 .046-.037q.021-.097-.061-.136l-.012-.003a.03.03 0 0 0-.031.031v.003zm2.343.17q.042-.009.055-.044a.04.04 0 0 0-.003-.031c-.012-.021-.045-.026-.072-.01a.1.1 0 0 0-.026.027q-.014.032-.006.038.028.024.052.02m-2.83-2.196-.006.076v.002c0 .019.015.034.034.034a.03.03 0 0 0 .029-.017.11.11 0 0 0 .005-.106.03.03 0 0 0-.03-.02.03.03 0 0 0-.032.031m2.659 1.109.21.499a.046.046 0 0 0 .087-.01.76.76 0 0 0-.122-.564l-.004-.011q.002-.016.018-.018.006 0 .011.003l.082.052.011.004c.017.003.034-.007.037-.024v-.012c-.029-.172-.222-.134-.338-.179a.086.086 0 0 0-.091.14l.054.053q.028.03.045.066zm.075-1.393q.028.009.022.039a.1.1 0 0 0-.002.039q.003.03.032.049.05.03.107.012.07-.023.002-.05-.102-.04-.089-.146.005-.036-.03-.045-.072-.021-.119.019c-.047.04-.029.049.012.062zm.247-.087a3 3 0 0 0-.008.385q.01.159-.134.155a.1.1 0 0 1-.068-.029q-.024-.023-.06-.005a.04.04 0 0 0-.018.031q.001.024.022.033l.273.104.018.003a.05.05 0 0 0 .048-.037 1 1 0 0 0-.025-.648.03.03 0 0 0-.023-.015.025.025 0 0 0-.025.022zM1.637 23.965a.8.8 0 0 1-.414-.077q-.026-.013-.026.016l-.015 1.537a.14.14 0 0 1-.127.136c-.237.018-.769.058-.642-.37a.09.09 0 0 0-.008-.072.24.24 0 0 1-.014-.232.1.1 0 0 0 .006-.076c-.062-.235.005-.483-.041-.733a.06.06 0 0 0-.045-.052c-.284-.096-.403-.546-.042-.583a.055.055 0 0 0 .049-.049c.068-.576.701-.936 1.23-.707.188.081.248.256.21.445q-.009.04-.049.045c-.231.024-.365-.102-.524.158a.103.103 0 0 0 .088.157l.01-.001.987-.104q.102-.011.078.089a.7.7 0 0 1-.178.328.05.05 0 0 0-.011.029c0 .024.02.044.044.044l.009-.001a.32.32 0 0 1 .262.045.08.08 0 0 0 .069.01l.304-.102q.03-.01.033-.041.027-.189-.139-.27-.056-.027-.081.029l-.079.17q-.015.033-.043.01-.008-.007-.012-.018a.03.03 0 0 1 0-.028q.115-.348.493-.329.037.003.035.039a3 3 0 0 1-.033.365q-.012.078.042.102.04.018.029-.024c-.025-.106-.048-.418.079-.471a.09.09 0 0 1 .092.012.1.1 0 0 0 .061.023l.525.034q.046.003.045.05-.007.344.034.679c.051.414.035.839-.008 1.163-.038.279-.448.235-.624.197q-.234-.05-.231-.289l.013-1.165q0-.047-.042-.026l-.101.049q-.043.02-.064-.023l-.026-.055q-.01-.019-.033-.02c-.023-.001-.027.008-.033.021l-.03.066a.1.1 0 0 1-.062.052q-.189.05-.151.235a.06.06 0 0 1-.028.06q-.126.069-.084.176c.109.277.092.546.004.827a.1.1 0 0 1-.063.063 1.05 1.05 0 0 1-.543.022.1.1 0 0 1-.053-.035c-.226-.314-.089-1.145-.09-1.492a.04.04 0 0 0-.039-.039h-.004zm.632.241-.057-.16a.04.04 0 0 0-.036-.025.04.04 0 0 0-.039.037.43.43 0 0 0 .17.365q.02.015.021-.009l.015-.17v-.002a.025.025 0 0 0-.025-.025h-.002l-.026.002q-.016.001-.022-.014zm-.066.548.056.055a.03.03 0 0 0 .021.009.03.03 0 0 0 .029-.029l-.002-.01q-.027-.078-.094-.061-.036.01-.01.035zm1.489.274q-.077.118.017.232a.025.025 0 0 0 .043-.017v-.001l-.009-.202a.03.03 0 0 0-.028-.026.03.03 0 0 0-.023.013zm-2.843.299-.001.007c0 .017.014.032.032.032a.03.03 0 0 0 .027-.015l.06-.089a.04.04 0 0 0 .005-.029c-.005-.021-.029-.034-.053-.028a.06.06 0 0 0-.027.017.3.3 0 0 0-.043.106zm.139-2.428.016.022a.03.03 0 0 0 .026.013q.024-.001.032-.025l.019-.075.001-.007a.025.025 0 0 0-.025-.025.03.03 0 0 0-.016.005l-.045.033a.04.04 0 0 0-.009.058zm.486.004.088.025.009.001a.033.033 0 0 0 .033-.033.04.04 0 0 0-.01-.024.15.15 0 0 0-.11-.044.04.04 0 0 0-.037.038c0 .017.011.032.027.036zM.565 25.32l.122.073a.043.043 0 0 0 .065-.037.04.04 0 0 0-.007-.023.2.2 0 0 0-.153-.093H.587a.043.043 0 0 0-.043.043q.001.024.02.036zm2.902-2.57q.158-.133.329-.025a.07.07 0 0 1 .034.059l.014.331q.003.047-.045.053l-.621.077h-.006a.043.043 0 0 1-.043-.043l.001-.01c.042-.175-.003-.437.193-.531a.06.06 0 0 1 .045-.004q.051.014.042.059l-.001.006c0 .019.016.035.035.035a.04.04 0 0 0 .022-.008zm.064.305q.066-.101.053-.127a.1.1 0 0 0-.019-.023c-.024-.019-.056-.02-.071-.001a.04.04 0 0 0-.008.022v.116c0 .013.011.024.024.024a.02.02 0 0 0 .02-.011zm-.155-.261-.002-.003a.03.03 0 0 0-.044-.005l-.003.002-.025.025a.04.04 0 0 0-.012.029.04.04 0 0 0 .028.039q.135.045.058-.087m1.746.771a.03.03 0 0 0 .001.027c.01.019.04.022.066.008a.1.1 0 0 0 .026-.024q.104-.187.196-.176.026.003.023-.022-.033-.345.022-.69.007-.043.049-.031.176.053.159.185a.13.13 0 0 0 .012.073l.072.146.004.006a.045.045 0 0 0 .067.006l.098-.098a.04.04 0 0 1 .024-.01c.019 0 .034.015.034.034v.062q0 .043.037.022l.022-.013q.038-.023.005-.051-.064-.053-.044-.14a.06.06 0 0 0-.027-.069q-.123-.084-.225.016a.02.02 0 0 1-.014.006c-.011.001-.021-.008-.021-.018q0-.008.005-.014a.38.38 0 0 1 .387-.139.1.1 0 0 1 .061.037c.174.223.126.632.126.904 0 .592.05 1.195-.052 1.815a.07.07 0 0 1-.049.053 1.5 1.5 0 0 1-.608.031.1.1 0 0 1-.064-.038l-.066-.087q-.029-.036-.066-.012l-.312.184a.13.13 0 0 1-.066.018c-.125.002-.234.021-.346-.045-.214-.126-.402-.261-.489-.505-.253-.707-.093-1.857.97-1.631l.016.006a.064.064 0 0 1 .026.086l-.01.014a.2.2 0 0 0-.047.072zm-.037 1.444a.183.183 0 0 0 .261-.051l.161-.249a.06.06 0 0 0 .002-.059.76.76 0 0 1-.072-.54.09.09 0 0 0-.018-.077l-.203-.255-.003-.003a.05.05 0 0 0-.07-.002l-.003.003-.2.22a.1.1 0 0 0-.026.068c.003.244-.046.792.17.946zm-.316.277q.075-.01.07-.076a.06.06 0 0 0-.015-.035.06.06 0 0 0-.081-.002.06.06 0 0 0-.018.033l-.005.031q-.007.055.049.049m1.161-.206q-.029.024-.006.068.029.057.048-.004l.046-.155.001-.008a.034.034 0 0 0-.034-.034.03.03 0 0 0-.029.016.23.23 0 0 0-.026.117m-.188-1.77v-.094l-.001-.007a.03.03 0 0 0-.031-.018l-.007.003a.08.08 0 0 0-.035.047q-.006.023.012.068.02.05.008.111v.005c0 .018.015.032.032.032a.03.03 0 0 0 .022-.009.5.5 0 0 1 .267-.133q.06-.01.015-.049l-.107-.095a.035.035 0 0 0-.059.026v.097q0 .051-.052.055a.1.1 0 0 1-.032-.002q-.032-.006-.032-.039zm-1.115 1.916a.17.17 0 0 0 .071-.14q.005-.081-.049-.021l-.083.093a.046.046 0 0 0 .061.068m22.224-.788q.08.063.043.172-.011.03.02.035l.506.096q.037.008.075-.003c.614-.164 1.138.208.973.861a.1.1 0 0 1-.036.057c-.23.19-.334.46-.696.405a.2.2 0 0 0-.072.005q-.248.075-.498.042l-.381-.051c-.502-.072-.831-.526-.398-.956q.027-.027 0-.055c-.26-.261-.005-.622.277-.708q.057-.017.017-.061a.34.34 0 0 0-.132-.091.2.2 0 0 1-.066-.047c-.093-.106-.246-.398-.093-.513a.1.1 0 0 0 .042-.059c.072-.215.412-.327.598-.318a.3.3 0 0 0 .082-.009.8.8 0 0 1 .312-.025.15.15 0 0 1 .065.024.2.2 0 0 0 .108.034.08.08 0 0 0 .061-.032l.311-.42a.1.1 0 0 1 .086-.039l.376.032a.07.07 0 0 1 .064.07.07.07 0 0 1-.04.063l-.187.086a.04.04 0 0 0-.021.033c0 .017.012.032.029.036l.172.034a.02.02 0 0 1 .016.02l-.003.011a.35.35 0 0 1-.272.159.06.06 0 0 0-.053.058q0 .014.006.026.301.609-.193.921c-.247.156-.689.102-.985.109a.05.05 0 0 1-.048-.025q-.017-.028-.048-.027l-.012.003c-.013.006-.018.023-.011.036l.007.009zm.204-.738a.1.1 0 0 0-.005.124l.183.251q.028.04.075.022l.261-.104a.06.06 0 0 0 .039-.053c.018-.306-.351-.481-.553-.24m.976-.245a.033.033 0 0 0 .022-.057l-.047-.047q-.04-.04-.046.017-.009.091.072.087zm-.21.185a.05.05 0 0 0 .043-.049q.006-.037-.032-.03l-.044.008-.003.001a.03.03 0 0 0-.02.038l.001.003q.024.058.04.039a.03.03 0 0 1 .015-.01m.482 1.727.002.002a.022.022 0 0 0 .032-.003l.001-.002q.064-.093-.046-.129a.04.04 0 0 0-.024-.001.045.045 0 0 0-.033.053.1.1 0 0 0 .011.021l.056.059zm-1.408.185q.464.236.923.026a.06.06 0 0 0 .032-.065l-.041-.163a.036.036 0 0 0-.036-.028c-.3.006-.509-.107-.913-.03a.06.06 0 0 0-.048.039q-.06.148.082.22zm1.394-.057q.031-.128-.079-.094l-.005.002a.055.055 0 0 0-.03.072l.002.005q.04.075.099.034a.03.03 0 0 0 .013-.018zm-1.866.103.18.069.007.001a.03.03 0 0 0 .028-.028.03.03 0 0 0-.014-.024 1 1 0 0 0-.187-.063.02.02 0 0 0-.018.002.024.024 0 0 0-.011.032.02.02 0 0 0 .014.011zm-11.658-.856q.373.089.748.068c.309-.017.479.027.688.228a.1.1 0 0 1 .032.052l.115.347a.1.1 0 0 1 .001.066c-.094.298-.296.589-.63.64q-.42.063-.843.072-.034.001-.078-.041a.06.06 0 0 0-.062-.012c-.441.166-.776-.375-.721-.751a.08.08 0 0 1 .037-.055l.162-.099a.055.055 0 0 0 .017-.074q-.236-.38.115-.687a.05.05 0 0 1 .032-.012.17.17 0 0 0 .136-.075.04.04 0 0 0 .008-.025.04.04 0 0 0-.029-.041c-.584-.21-.257-.936.224-.985q.043-.004.352-.045a.7.7 0 0 1 .397.067.046.046 0 0 0 .059-.024l.001-.003a.83.83 0 0 1 .332-.435.1.1 0 0 1 .059-.015l.329.032q.016.001.028.01a.06.06 0 0 1 .015.084.1.1 0 0 1-.022.02l-.172.087a.04.04 0 0 0-.02.032c0 .017.012.032.029.035l.104.022a.092.092 0 0 1 .046.156.1.1 0 0 1-.049.024l-.193.032a.06.06 0 0 0-.042.031q-.046.093.045.144a.08.08 0 0 1 .038.056c.022.179.049.373-.043.533q-.23.399-.731.312a.12.12 0 0 0-.082.014.19.19 0 0 1-.215-.011.08.08 0 0 0-.073-.008.2.2 0 0 1-.204-.024q-.028-.02-.045.011l-.014.026-.001.005q0 .009.009.011.135.032.086.156-.015.039.025.049m1.364.748q-.11-.001-.13.089-.014.061.047.043l.023-.008a.05.05 0 0 0 .033-.034l.027-.091zm0 0q.042.002.072-.049a.056.056 0 0 0-.031-.082l-.05-.015q-.056-.017-.035.037l.043.11zm-.484-1.824q-.035-.038-.024.055a.036.036 0 0 0 .035.032h.022a.02.02 0 0 0 .019-.023v-.001q-.006-.042-.037-.052a.03.03 0 0 1-.015-.01zm.172-.126.004.021a.029.029 0 0 0 .057-.007l-.006-.082a.04.04 0 0 0-.036-.033.04.04 0 0 0-.029.015q-.021.032.003.066a.1.1 0 0 1 .008.019zm-.21 1.363.025.042q.03.051.049-.005.018-.05-.018-.082a.04.04 0 0 0-.025-.01.036.036 0 0 0-.036.036q0 .01.005.019m-.968.707q.29.196.563.146a.2.2 0 0 1 .076.002c.187.045.42-.043.387-.271a.06.06 0 0 0-.045-.053.6.6 0 0 0-.268-.02q-.016.002-.029-.009l-.025-.025a.08.08 0 0 0-.071-.025l-.535.05a.114.114 0 0 0-.102.112c0 .037.018.072.049.093m-.244.141q-.01.04.022.059a.041.041 0 0 0 .061-.036.05.05 0 0 0-.01-.027.32.32 0 0 0-.185-.106h-.004a.037.037 0 0 0-.039.034v.028c0 .022.018.04.04.04l.014-.002.064-.024q.053-.02.038.035zm.645-1.583c.563.211.503-.711-.128-.419a.12.12 0 0 0-.071.11c0 .04.02.078.054.1a.21.21 0 0 1 .097.15.07.07 0 0 0 .048.059m14.312-.936c.078-.057.246-.018.205.121a.2.2 0 0 0-.005.08q.128.901.008 1.801a.09.09 0 0 1-.072.079c-.19.047-.691.139-.721-.192a9.4 9.4 0 0 1 .001-1.733 1 1 0 0 1 .064-.244.03.03 0 0 1 .029-.02.03.03 0 0 1 .025.012l.057.072q.026.034.065.016a.3.3 0 0 1 .284.008q.031.018.059-.003zm.08 1.627q.021-.051-.055-.048a.03.03 0 0 0-.025.013q-.098.12.018.215a.03.03 0 0 0 .021.007.03.03 0 0 0 .033-.032V24.9q0-.021.008-.042zm1.81-1.062q-.134-.16-.31-.096a.08.08 0 0 0-.05.051c-.126.35-.048.543-.077.893q-.004.046.04.061a.23.23 0 0 1 .153.153q.01.029.041.03.01 0 .019-.004a.42.42 0 0 0 .222-.244.1.1 0 0 1 .049-.057c.133-.075.782-.215.655.173-.2.612-1.022.795-1.528.448q-.615-.422-.508-1.182c.056-.4.533-.887.95-.897.456-.011.875.131 1.076.549.107.222-.155.332-.329.304-.101-.015-.129-.001-.213.036a.06.06 0 0 1-.061-.006.23.23 0 0 1-.096-.144.2.2 0 0 0-.033-.066zm.649-.112a.03.03 0 0 0 .006-.017.03.03 0 0 0-.029-.029h-.058a.04.04 0 0 0-.037.037q.002.024.024.035.058.024.094-.026m-.232-.214a.028.028 0 0 0-.017.041.1.1 0 0 0 .078.049.04.04 0 0 0 .041-.041.04.04 0 0 0-.025-.038.12.12 0 0 0-.077-.012zm-1.456 1.288a.1.1 0 0 0 .06.039q.058.011.028-.04a.3.3 0 0 0-.127-.117l-.011-.003a.02.02 0 0 0-.021.021q0 .01.007.016l.02.02a1 1 0 0 1 .043.065zm1.472-1.079a.3.3 0 0 0-.162-.079q-.064-.01-.022.04.084.103.167.092.062-.01.017-.052zm-.136 1.22.011.031q.018.045.049.008l.08-.099a.03.03 0 0 0 .007-.019.03.03 0 0 0-.053-.019l-.051.058a.03.03 0 0 1-.024.011.033.033 0 0 1-.033-.033l.001-.009a.17.17 0 0 0 .005-.09q-.003-.016-.014-.021c-.015-.007-.037.005-.047.028q-.008.017-.005.033a.16.16 0 0 0 .066.112.02.02 0 0 1 .008.012zm-1.038-.101c.011-.023-.01-.055-.047-.073s-.076-.014-.086.009c-.011.023.01.055.047.073s.076.014.086-.009m.855.243.018.018a.03.03 0 0 0 .019.008.03.03 0 0 0 .028-.028l-.001-.007q-.023-.083-.107-.086-.045-.002-.027.04.012.03.045.04a.1.1 0 0 1 .024.014zm-.42.068.143-.014q.024-.006.025-.03c.001-.024-.012-.029-.027-.031l-.241-.011h-.002a.044.044 0 0 0-.044.044.04.04 0 0 0 .006.022q.032.053.089.032a.2.2 0 0 1 .05-.012zm-5.788-1.29c-.216-.385-.52-.098-.698.102a.06.06 0 0 1-.08.012 1 1 0 0 0-.342-.126.156.156 0 0 1-.089-.257c.361-.412.852-.422 1.437-.331a.62.62 0 0 1 .479.338c.183.345.078 1.234.084 1.646a.1.1 0 0 1-.023.067c-.128.16-.419.094-.597.076l-.025-.006a.11.11 0 0 1-.069-.14q.004-.012.011-.023.009-.014.025-.049.018-.039-.022-.027l-.17.05a.04.04 0 0 0-.023.019l-.021.043a.14.14 0 0 1-.059.063q-.2.115-.432.132c-.093.007-.164-.048-.271-.023a.1.1 0 0 1-.069-.006c-.606-.266-.568-.905-.024-1.206a.13.13 0 0 1 .072-.015.2.2 0 0 0 .161-.049.14.14 0 0 1 .073-.034l.592-.091a.113.113 0 0 0 .081-.166zm.451-.329q-.054-.08-.078-.072a.09.09 0 0 0-.066.088c0 .051.042.093.093.093l.011-.001q.048-.006.048-.083a.04.04 0 0 0-.008-.025m-.705-.144-.002-.012a.039.039 0 0 1 .066-.028l.048.047.008.012c.007.017-.002.036-.02.043l-.013.002a.09.09 0 0 1-.086-.064zm-.532.175a.4.4 0 0 1 .032-.075q.035-.066-.032-.033l-.205.103q-.02.012-.022.036c-.002.024.009.029.023.036l.147.071q.008.004.015.004a.035.035 0 0 0 .035-.035v-.068a.1.1 0 0 1 .006-.038zm1.321.874.032.015.016.003a.035.035 0 0 0 .032-.037.03.03 0 0 0-.005-.016l-.018-.031q-.012-.019-.033-.019c-.021 0-.026.007-.033.019q-.01.018-.007.03.01.033.015.035zm-.734.586c.124-.204.278-.342.19-.593a.06.06 0 0 0-.054-.041.56.56 0 0 0-.508.246.1.1 0 0 0-.018.07.5.5 0 0 0 .199.351.13.13 0 0 0 .081.029.13.13 0 0 0 .11-.062m.765-.131a.2.2 0 0 0-.034.156c.003.017.018.03.036.03q.026-.001.035-.025a2 2 0 0 0 .052-.23.1.1 0 0 0-.005-.047.06.06 0 0 0-.039-.03q-.04-.01-.035.032l.006.047a.1.1 0 0 1-.015.068zm-.457.161q.018.024.059-.001a.1.1 0 0 0 .018-.017.055.055 0 0 0-.041-.084q-.065-.007-.094.037-.026.039.016.06.016.008.042.005m-.696.327q.025-.003.025-.028v-.03a.039.039 0 0 0-.076-.01q-.02.076.05.068zm-.087-.864.225-.078a.051.051 0 0 0-.018-.099h-.001l-.383.014a.036.036 0 0 0-.034.035q0 .012.007.021l.025.035q.039.052-.027.051a.3.3 0 0 1-.177-.068q-.035-.027-.06.007a.6.6 0 0 0-.114.496.1.1 0 0 0 .046.071.2.2 0 0 1 .086.133c.003.02.02.037.041.039l.372.05q.012.001.018-.008l.021-.035q.022-.037.062-.018l.056.026.011.002a.031.031 0 0 0 .02-.055l-.09-.064a.04.04 0 0 0-.05-.002l-.067.039q-.046.028-.061-.024a.77.77 0 0 1 .04-.524.08.08 0 0 1 .051-.046zm1.23-.604-.003-.013a.03.03 0 0 1 .042-.026q.078.04.056.136-.015.064-.044.005zm-4.212 1.146c.172.062.385-.075.493.115q.022.04.052.005.093-.105.035-.219a.06.06 0 0 1-.005-.049q.015-.05.053-.027a.07.07 0 0 1 .035.064l-.01.355a.06.06 0 0 1-.039.058c-.135.058-.488.083-.52-.109q-.005-.03.022-.015l.051.03.009.004c.02.005.04-.007.046-.027l.001-.01v-.024a.055.055 0 0 0-.055-.055h-.001l-.172.003q-.042.002-.042.042v.087a.05.05 0 0 1-.049.048.05.05 0 0 1-.04-.021l-.04-.059q-.03-.043.015-.07l.044-.026a.04.04 0 0 0 .022-.041l-.052-1.218a.07.07 0 0 0-.039-.061l-.173-.091q-.047-.024-.075.021c-.059.099-.183.23-.13.342q.015.032.013.069c-.021.381.036.785-.075 1.149a.1.1 0 0 1-.048.055.75.75 0 0 1-.567.032l-.002-.001a.135.135 0 0 1-.082-.17l.001-.003c.128-.338-.158-.549.015-.931a.08.08 0 0 0-.002-.069c-.116-.224-.191-.862.143-.947a.63.63 0 0 1 .621.164q.027.025.055.001c.326-.297.742-.266 1.038.039q.026.027.057.005.329-.234.727-.264c.56-.041.633.89.563 1.193-.099.432-.429.299-.734.328a.06.06 0 0 1-.061-.042.18.18 0 0 1 .018-.146q.015-.029.01-.06c-.04-.228.057-.703-.28-.703a.07.07 0 0 0-.059.031c-.06.083-.14.064-.184.131q-.036.053-.007.122.015.033.008.069a.7.7 0 0 1-.15.325.04.04 0 0 0-.008.029l.033.315a.067.067 0 0 1-.057.073l-.29.04a.04.04 0 0 1-.036-.012l-.035-.035q-.042-.041-.06.014l-.029.091q-.014.04.027.056zm.265-.233.122-.025q.012-.004.013-.016c.001-.012-.005-.014-.013-.016a.23.23 0 0 0-.213.062.03.03 0 0 0-.01.022c0 .017.014.031.031.031l.01-.002q.04-.013.043-.037.002-.016.018-.02zm.329-.955q-.006-.035-.042-.035h-.035a.03.03 0 0 0-.03.03q0 .012.009.022.036.034.076.024.029-.007.023-.04zm-1.349.868q.023-.03.053-.008.025.017.019.055a.044.044 0 0 1-.042.035.04.04 0 0 1-.041-.029.05.05 0 0 1 .011-.053m.021.199-.032.033a.05.05 0 0 0-.013.032q0 .025.022.039.034.021.058-.01.034-.046.016-.085t-.05-.009zm-1.256-1.567a.2.2 0 0 1-.029.04l-.045.045a.04.04 0 0 0-.009.017.03.03 0 0 0 .026.038q.01.001.019-.002l.191-.087a.056.056 0 0 0 .005-.101q-.102-.06-.158.051zm-7.787.213v-.022a.07.07 0 0 1 .028-.054c.65-.498 1.253.063 1.105.786q-.054.267.027.688c.027.139-.006.247-.005.387a.06.06 0 0 1-.036.057c-.191.084-.575-.002-.664.106a.05.05 0 0 1-.039.018.05.05 0 0 1-.05-.05v-.003q.039-.644.021-1.293a.2.2 0 0 0-.015-.059l-.111-.227a.123.123 0 0 0-.173-.052.37.37 0 0 0-.192.341q-.005.49-.041.979-.029.392-.399.366c-.365-.024-.437-.076-.352-.479a.8.8 0 0 0 .008-.305 3.9 3.9 0 0 1-.06-1.142c.031-.274.509-.222.706-.231q.047-.002.035.043l-.039.143-.002.012c0 .024.02.044.044.044h.004l.167-.016q.033-.003.032-.035zm.797 1.711q-.096-.064-.178.014a.057.057 0 0 0 .039.097.1.1 0 0 0 .023-.005l.112-.052q.05-.023.004-.053zm-1.505-1.221q.053-.01.056-.066a.05.05 0 0 0-.015-.043c-.024-.025-.068-.021-.099.008a.1.1 0 0 0-.026.047q-.006.034.005.04a.13.13 0 0 0 .078.015zm-.012.253-.015.049q-.022.072.045.04l.039-.018q.049-.022.016-.066l-.082-.109a.04.04 0 0 0-.02-.014c-.017-.006-.035-.001-.039.011a.02.02 0 0 0 .003.019.2.2 0 0 0 .042.049q.018.015.011.037zm2.317-.933q.236-.042.465.02a.06.06 0 0 1 .045.051q.157.994.015 1.992-.006.037-.042.04c-.326.036-.768.136-.769-.373q-.001-.837.05-1.735 0-.012.005-.025a.078.078 0 0 1 .122-.029l.049.043q.025.022.058.015zm.316 1.76a.04.04 0 0 0 .014.018c.017.012.04.007.052-.01a.04.04 0 0 0 .007-.021v-.146q0-.066-.04-.014-.065.084-.032.173zm-5.97.203c-.15.229-.381.248-.678.218-.791-.081-.798-1.035-.103-1.239q.428-.124.822-.141a.121.121 0 0 0 .061-.223l-.251-.165q-.045-.03-.089.003l-.361.268a.04.04 0 0 1-.036.008l-.446-.097q-.032-.007-.033-.039-.015-.245.11-.329.696-.468 1.454-.185c.342.128.425.449.428.813q.005.56.035 1.077a.21.21 0 0 1-.177.222 1.1 1.1 0 0 1-.462-.022.08.08 0 0 1-.058-.058l-.021-.079a.11.11 0 0 0-.106-.082.11.11 0 0 0-.091.049zm.478-1.719q-.018-.023-.055-.012c-.017.004-.027.021-.024.039q.021.098.116.116l.009.001c.025 0 .045-.02.045-.045v-.005q-.01-.069-.091-.093zm-.54-.115a.16.16 0 0 0-.072-.066q-.065-.03-.036.035a.2.2 0 0 0 .119.115l.011.002a.03.03 0 0 0 .032-.032v-.003q-.003-.045-.053-.051zm-.805.26.11.051q.038.018.046-.023l.033-.154q.01-.045-.035-.03l-.15.052a.06.06 0 0 0-.038.053c0 .022.013.042.032.051zm1.566.835q.079-.074.015-.13l-.011-.007c-.02-.007-.042.002-.049.022q-.003.006-.002.013v.081q0 .066.048.02zm.06-.386a.2.2 0 0 0-.021-.195.038.038 0 0 0-.069.022v.005l.022.16c.003.017.018.03.035.03a.04.04 0 0 0 .033-.022m-1.527.421-.208-.056q-.052-.015-.055.039a.11.11 0 0 1-.046.084l-.007.006c-.11.094-.112.276-.004.403l.007.008a.4.4 0 0 1 .093.156q.015.042.059.042h.5q.058 0 .024-.047-.09-.121-.185-.039a.06.06 0 0 1-.037.014.06.06 0 0 1-.057-.057v-.001c.008-.25-.067-.542.287-.583a.064.064 0 0 0 .054-.063.064.064 0 0 0-.064-.064l-.34.012q-.044.002-.024.041l.033.069q.026.053-.031.038zm.83-.109c-.236-.059-.515.158-.556.376a.1.1 0 0 0 .039.099.6.6 0 0 1 .165.185.126.126 0 0 0 .234-.065v-.004q-.004-.106.107-.153a.06.06 0 0 0 .035-.049l.027-.315q.005-.058-.052-.073zm.605.573a.1.1 0 0 0-.032.04.04.04 0 0 0 0 .032.04.04 0 0 0 .054.024.04.04 0 0 0 .023-.023.44.44 0 0 0 .033-.295c-.004-.008-.014-.011-.021-.007l-.004.003q-.059.063-.032.154a.07.07 0 0 1-.022.07zm-.423.088c.026-.004.042-.039.036-.077s-.033-.066-.058-.062-.042.039-.036.077.033.066.058.062m.993.971.04.059a.03.03 0 0 1 .005.017.03.03 0 0 1-.03.03l-.009-.001c-.26-.086-.236-.404-.159-.609a.04.04 0 0 1 .064-.017l.088.066q.027.02.055.001a.21.21 0 0 1 .195-.033.169.169 0 0 0 .22-.16.16.16 0 0 0-.027-.091 1.8 1.8 0 0 1-.224-.56q-.031-.137-.098-.187a.1.1 0 0 1-.042-.062 4.8 4.8 0 0 0-.402-1.074.122.122 0 0 1 .082-.176.24.24 0 0 1 .106.001.3.3 0 0 0 .078.008l.432-.008q.037-.001.053.032l.221.434a.07.07 0 0 1-.004.068q-.07.11.036.164a.07.07 0 0 1 .041.061l.022.281a.056.056 0 0 0 .055.052l.014-.002q.232-.063.214-.321-.012-.174.122-.486c.106-.248.315-.332.56-.236a.064.064 0 0 1 .039.073l-.062.27a.04.04 0 0 1-.042.034.04.04 0 0 1-.027-.009l-.093-.07a.04.04 0 0 1-.016-.032q0-.022.019-.035l.031-.021q.035-.022.022-.061a.2.2 0 0 0-.098-.117q-.036-.02-.034.022.001.033.036.034.069.002-.008.062-.237.183-.141.492a.044.044 0 0 1-.015.049l-.115.094a.03.03 0 0 0-.011.021c0 .014.012.026.026.026a.03.03 0 0 0 .014-.004l.142-.072q.042-.02.033-.067-.033-.18.127-.289.008-.006.018-.005c.017 0 .032.014.032.032a1.04 1.04 0 0 1-.147.555c-.042.069-.024.157-.051.231-.065.18-.159.351-.21.529-.163.564-.455 1.405-1.157.985q-.063-.037-.022.024zm.176-1.97q.016.023.039.01.043-.029.012-.08a.025.025 0 0 0-.034-.009l-.037.022q-.016.01-.015.029.003.029.035.029zm.112-.598q-.003-.053-.044-.062-.028-.006-.039.02l-.024.052q-.022.047-.052.005l-.039-.052q-.018-.025-.048-.016c-.063.02-.106.09-.076.157q.039.084.132.106a.07.07 0 0 0 .072-.021.07.07 0 0 1 .066-.019q.044.01.041.055-.01.116.094.12c.012 0 .022-.01.022-.022a.02.02 0 0 0-.006-.015l-.029-.029a.05.05 0 0 1-.014-.035q.001-.03.028-.044l.052-.025q.027-.013.019-.042-.029-.095-.114-.095-.04.001-.042-.041zm-.222.337q.01.075.08.086h.005a.033.033 0 0 0 .033-.033.03.03 0 0 0-.01-.023l-.056-.055a.03.03 0 0 0-.022-.009.03.03 0 0 0-.032.032v.003zm.696.727q-.02-.01-.034.01-.008.013-.002.039a.1.1 0 0 0 .051.06l.012.003a.03.03 0 0 0 .027-.02q.017-.061-.054-.091zm.017.443a.3.3 0 0 0-.096-.065l-.015-.003a.041.041 0 0 0-.022.076.24.24 0 0 1 .11.19q.006.08.062.022l.211-.219a.04.04 0 0 0 .011-.021.04.04 0 0 0-.033-.043.04.04 0 0 0-.023.004l-.138.071q-.038.02-.067-.012m.174.203q-.09.015-.094.116-.002.055.042.022l.084-.064a.04.04 0 0 0 .016-.033.04.04 0 0 0-.042-.042zm-.192.351-.116.212a.03.03 0 0 0-.005.015c0 .015.012.027.027.027a.03.03 0 0 0 .018-.007.47.47 0 0 0 .152-.212q.002-.007.002-.014a.04.04 0 0 0-.042-.042.04.04 0 0 0-.037.022zm-.645.256a.2.2 0 0 0 .007-.044q.002-.046-.04-.027l-.117.055q-.054.026-.008.064a.3.3 0 0 0 .151.063q.042.004.082-.009a.33.33 0 0 1 .16-.013q.046.008.058-.037l.019-.069q.002-.006.002-.013a.04.04 0 0 0-.037-.037.04.04 0 0 0-.033.02q-.039.064-.093.022l-.006-.004a.045.045 0 0 0-.061.017l-.003.007q-.018.051-.058.042-.031-.007-.024-.038zm.976-1.258.139-.093a.035.035 0 0 0-.02-.064h-.001a.37.37 0 0 0-.273.122q-.032.033 0 .066l.099.104q.035.036.049-.012a.06.06 0 0 0-.008-.053q-.027-.04.014-.068zm12.012-.16.073.327a.01.01 0 0 0 .01.008h.003l.004-.002c.052-.012.083-.077.068-.144l-.022-.1v-.001c-.015-.067-.071-.113-.123-.101l-.005.002a.01.01 0 0 0-.008.012zm1.192.429.059-.022q.057-.021.065.038l.048.36.001.011a.077.077 0 0 1-.076.076.07.07 0 0 1-.045-.015l-.036-.027a.06.06 0 0 0-.066-.007c-.331.146-.604.005-.519-.39a.061.061 0 0 1 .108-.024l.14.176a.04.04 0 0 0 .023.015.042.042 0 0 0 .047-.059l-.055-.116a.05.05 0 0 1 .045-.072q.01 0 .021.004.056.024.108-.027.042-.042.067.012l.024.052q.013.028.042.018zm-.112.118q.107.063.147.172.022.059.032-.004a.18.18 0 0 0-.024-.123.06.06 0 0 0-.057-.03q-.044.003-.055-.039-.012-.045-.059-.039l-.032.005-.004.001c-.011.004-.017.016-.013.026l.002.004q.018.031.063.028z"/></svg>