<svg xmlns="http://www.w3.org/2000/svg" width="100%" height="100%" viewBox="0 0 24 24"><path fill="currentColor" d="M32 16.521v.624c-.191 1.325-1.561 2.442-2.645 3.041-2.808 1.552-7.06 2.213-9.278 2.357a31 31 0 0 1-4.047 0c-3.452-.221-6.129-.769-8.903-2.141a.04.04 0 0 1-.021-.019l-.006-.018v-.002q.001-.01.011-.012l.004.001q1.91.646 2.418.788 1.67.468 3.811.651 5.244.45 10.359-.763a21.3 21.3 0 0 0 3.607-1.197c1.756-.765 5.045-2.778 3.23-5.112a3.5 3.5 0 0 0-.819-.769c-1.854-1.245-4.336-1.766-6.457-1.983a32.9 32.9 0 0 0-8.793.279c-2.27.379-4.573 1.037-6.621 2.105l-.006.006c-.004.008-.001.018.006.022l.009.002a33 33 0 0 0 3.098-.504q.014-.002.012.007-.001.007-.009.009-2.232.68-4.444 1.395l-.006.003c-.01.007-.013.021-.007.03l.004.005a45 45 0 0 0 2.854 2.264q.025.018.032-.012l.724-3.209a.05.05 0 0 1 .049-.039l4.362-.002c.86.001 1.846.269 2.037 1.25.131.67-.077 1.543-.366 2.145-.651 1.363-1.801 1.661-3.207 1.666a658 658 0 0 1-3.974 0q-.036 0-.028-.035l.364-1.612a.086.086 0 0 0-.041-.1 25 25 0 0 0-3.239-1.705l-.014-.003a.036.036 0 0 0-.036.036v.004q.243 2.457.65 4.893v.001a.01.01 0 0 1-.009.009h-.001q-.013 0-.016-.008c-.398-1.598-.786-3.18-1.316-4.742a.03.03 0 0 0-.027-.019.03.03 0 0 0-.023.012 98 98 0 0 0-2.524 3.573.03.03 0 0 1-.024.016h-.003a.014.014 0 0 1-.014-.014l.002-.006a58 58 0 0 0 1.957-3.973q.028-.062-.039-.056a36 36 0 0 0-4.572.666.14.14 0 0 1-.062-.001q-.006 0 0-.003l4.496-1.377q.055-.017.011-.053a63 63 0 0 0-3.481-2.691q-.01-.007-.008-.015.001-.012.012-.006a36 36 0 0 0 3.844 2.067q.059.027.053-.037a66 66 0 0 0-.575-4.604 1.4 1.4 0 0 1-.019-.213v-.001q0-.005.005-.005.006 0 .005.004c.022.079.017.172.035.24a97 97 0 0 0 1.264 4.43q.01.031.03.003l2.578-3.642a.02.02 0 0 1 .011-.005q.014.002.015.015l-.001.006a34 34 0 0 0-1.62 3.118q.001.015.016.016l.008-.002c1.751-.975 3.699-1.557 5.662-1.908 4.551-.815 9.421-.7 13.88.572 2.166.617 5.161 1.859 5.775 4.284zm-17.772.489c.16-.576.142-1.289-.637-1.371a10 10 0 0 0-1.586-.023q-.036.002-.043.037l-.547 2.42q-.007.033.026.033c1.144.011 2.422.213 2.786-1.096z"/><path fill="currentColor" d="M17.574 15.398c.986-1.204 2.869-1.105 4.335-1.061 1.216.036 2.498.416 2.303 1.946q-.003.031-.035.031h-2.332q-.04 0-.038-.039.014-.503-.422-.605c-.671-.157-1.564-.082-1.995.547-.218.319-.452 1.136-.216 1.51.208.328.749.316 1.096.307.606-.013 1.05-.058 1.386-.593a.06.06 0 0 1 .051-.028h2.219q.05 0 .03.045c-.444 1.025-1.153 1.74-2.307 1.847q-1.296.121-2.708.062c-1.082-.046-2.163-.423-2.165-1.716a3.45 3.45 0 0 1 .798-2.255zM25.024 14.316h2.087c.012 0 .022.01.022.022l-.001.005-1.128 5.016a.023.023 0 0 1-.022.018l-2.093.007a.02.02 0 0 1-.022-.022l.001-.005 1.134-5.024a.023.023 0 0 1 .022-.018z"/></svg>