<svg xmlns="http://www.w3.org/2000/svg" width="100%" height="100%" viewBox="0 0 24 24"><path fill="currentColor" d="m23.39 2.945-.778 3.051-2.167-1.276 1.713 2.676-.123-.918.946.756.482-1.439.403 1.775 1.528-.885-.621 1.321 1.226 1.019-1.288-.185-.437 1.78-.431-1.842-.929 1.075-.252-.672-.968 3.096 1.657-2.391 1.416 3.292.095-3.482 3.107.078-2.318-1.965 1.366-2.9-2.693 1.573-.935-3.538zm-4.563 4.221-.98.98a5.429 5.429 0 0 0-7.692 4.937c0 3 2.43 5.43 5.43 5.43a5.43 5.43 0 0 0 4.937-7.692l.98-.98s-.278-.599-.778-1.209a3 3 0 0 1 .728-.162c.556-.046 1.118.066 1.523.358l.47-.655c-.603-.435-1.352-.569-2.06-.51-.45.037-.886.156-1.271.341-.636-.541-1.288-.84-1.288-.84zm-.011.56h.028c.109-.005.217.063.26.164s.016.226-.064.301l-.409.403c-.095.116-.294.125-.399.018s-.093-.306.024-.399l.403-.403a.27.27 0 0 1 .157-.084m-3.661.632c.456-.012.938.051 1.433.196-2.961.058-4.042.986-5.363 3.896.423-2.551 1.954-4.039 3.93-4.092m5.2 4.944c-.206 2.537-2.179 4.719-4.77 4.719a4.92 4.92 0 0 1-3.829-1.825 5.32 5.32 0 0 0 3.561 1.355c2.511 0 4.468-1.914 5.039-4.249zM2.049 14.858l-.157 2.598L0 16.504l1.338 1.651-1.304 1.377 1.646-.565.325 1.478.14.627.123-.633.252-1.304 1.293 1.248-.711-1.64.05.627-.795-.773-.229 1.159-.252-1.142-.885.302.705-.745-.705-.868 1.148.571.095-1.573.425 1.327.526-.554-.045.509.98-1.881-1.344 1.405-.728-2.251zm27.902 0-.728 2.251-1.344-1.405.98 1.881-.045-.509.526.554.425-1.327.095 1.573 1.148-.571-.705.868.705.745-.885-.302-.252 1.142-.23-1.159-.795.773.051-.627-.711 1.64 1.293-1.248.252 1.304.123.633.14-.627.325-1.478 1.646.565-1.305-1.377 1.338-1.651-1.892.952-.157-2.598zm-23.53 1.859c-.394-.001-.955.525-1.383 1.304a2.3 2.3 0 0 0-.829-.112c-.31.024-.485.066-.616.101s-.212.062-.409.062c-.191 0-.325-.035-.409-.067s-.101-.051-.101-.051c-.073-.059-.193-.045-.252.028s-.045.193.028.252c0 0 .074.059.196.106s.302.09.537.09c.23 0 .373-.038.504-.073s.262-.073.549-.095c.204-.016.433.03.638.09-.425.934-.475 1.811-.09 2.004q.037.022.078.034l5.889 2.715 4.815-2.217-8.98-4.131a.4.4 0 0 0-.168-.039zm19.158 0a.4.4 0 0 0-.168.039L9.937 23.877c-.489.214-.885.632-1.075 1.131s-.173 1.071.05 1.556.651.878 1.153 1.058a2.04 2.04 0 0 0 1.556-.084l15.513-7.149c.028-.006.053-.021.078-.034.385-.193.335-1.07-.09-2.004.205-.059.434-.105.638-.09.287.022.417.06.549.095s.274.073.504.073c.235 0 .415-.043.537-.09s.196-.106.196-.106c.073-.059.087-.179.028-.252s-.179-.087-.252-.028c0 0-.018.018-.101.051s-.217.067-.409.067c-.197 0-.277-.026-.409-.062s-.306-.077-.616-.101a2.3 2.3 0 0 0-.829.112c-.428-.78-.989-1.305-1.383-1.304zm-19.342.335a.2.2 0 0 1 .045 0c.272.03.181.712-.202 1.523s-.915 1.44-1.187 1.411c-.272-.03-.181-.707.202-1.517.006-.014.016-.026.022-.039.185.068.325.134.325.134.083.063.221.031.269-.062s-.007-.221-.106-.252c0 0-.127-.07-.319-.146.332-.588.716-1.021.952-1.052zm19.482 0c.229-.025.642.425.996 1.052-.192.075-.319.146-.319.146-.099.031-.153.161-.105.253s.185.123.267.06c0 0 .14-.066.325-.134q.011.019.022.039c.383.81.473 1.488.202 1.517s-.804-.6-1.187-1.411c-.383-.81-.473-1.493-.202-1.523zm-4.473 6.45-4.815 2.217 3.947 1.819c.481.233 1.054.264 1.556.084s.93-.573 1.153-1.058.24-1.057.05-1.556a2.04 2.04 0 0 0-1.075-1.131l-.817-.375z"/></svg>