<svg xmlns="http://www.w3.org/2000/svg" width="19" height="32"><path fill="currentColor" d="M0 22.678V9.173l9.6-3.691 9.6 3.691v10.871c-1.903 0-3.812-.041-5.793.013v-.189q-.636-.016-1.023-.058a3.6 3.6 0 0 1-.643-.132 1 1 0 0 1-.396-.239.96.96 0 0 1-.19-.396 4 4 0 0 1-.05-.726v-6.896q0-1.402.05-2.194h-1.056l-4.306 2.582.503.874q.858-.585 1.229-.776.38-.19.586-.19.223 0 .346.149.132.148.132.487v5.964q0 .578-.099.833-.09.256-.297.396c-.207.14-.338.165-.602.215q-.387.066-1.303.107v.751h1.034A36.5 36.5 0 0 0 0 22.679zm19.2-2.634v6.475l-4.342-.027c-2.072-.001-3.481-.138-4.439-.869-.07-.057-.155-.123-.231-.195-.063-.063-.14-.137-.208-.216-.057-.071-.117-.142-.177-.226-.068-.099-.137-.194-.203-.311-.057.092-.127.208-.2.307-.052.068-.114.154-.18.228a3 3 0 0 1-.439.412c-.958.731-2.367.868-4.439.869L0 26.518c6.245-3.934 11.717-5.754 19.2-6.475z"/></svg>