<svg xmlns="http://www.w3.org/2000/svg" width="100%" height="100%" viewBox="0 0 24 24"><path fill="currentColor" d="m14.988 14.326.002-.01.001-.005.034-.157-.006.008c-.486.655-1.414.808-2.154.644-.333-.074-.564-.219-.721-.404-.151.778-.699 1.376-1.495 1.648-.933.318-1.955.159-2.829-.276a.48.48 0 0 1-.227-.209.4.4 0 0 1-.03-.291c.016-.064.054-.137.096-.218q.201-.384.42-.757a.32.32 0 0 1 .209-.155.56.56 0 0 1 .412.059h.001c.29.158.557.271.877.3.14.012.296.007.43-.043.092-.034.174-.092.209-.196.072-.213-.075-.351-.248-.462a48 48 0 0 1-.764-.496 3 3 0 0 1-.204-.149c-5.178 1.406-9.184 5.628-4.932 11.647-9.417-7.089-.649-15.319 7.763-17.1 7.591-1.607 17.977.548 19.873 7.29 0 0-.372-.331-.889-.38-.709-.067-1.042.115-1.299.156-1.66.013-3.764-.013-6.052 0l-.045-.003a.4.4 0 0 1-.073.029l-.03.007q-.348.065-.71.122a1 1 0 0 1-.17.018.37.37 0 0 1-.229-.084.4.4 0 0 1-.136-.215l-.08-.273c-.005-.002-.012-.03-.022-.074l-.128-.441-.048.225-.098.456a1 1 0 0 1-.033.116.31.31 0 0 1-.292.216c-.017.004-.002 0-.002 0l-.746.001h-1.07l.002.002a.5.5 0 0 1 .155.194l.002-.001q.016-.007.05-.01c.034-.003.047-.005.075-.005l-.025.002h.001l.024-.002h.001v.001h.004l-.004-.001q1.07-.003 2.14 0a.34.34 0 0 1 .211.074.38.38 0 0 1 .239-.078c.387.001.78-.008 1.166.013.432.023.817.166 1.058.452l.033-.151a.2.2 0 0 0 .003.095.2.2 0 0 0 .147.138q-.036.168-.067.337c-.012.063.003.109.03.141s.068.056.132.056l.162.002-.506 2.365c-.101.001-.216-.009-.303.013a.12.12 0 0 0-.08.073l-.006.018-.355-.956q.105-.047.21-.107c.44-.25.675-.783.666-1.27-.012-.679-.525-.979-1.133-1.011-.383-.021-.772-.011-1.156-.013a.2.2 0 0 0-.129.045.2.2 0 0 0-.066.117q-.633 2.949-.805 3.765a.3.3 0 0 0 .001.113v.001a.11.11 0 0 0 .092.091l.889.009v-.005q.06-.01.082-.074v-.001a1 1 0 0 0 .03-.114l.295-1.381h.004q.212.733.427 1.465c.034.116.083.2.215.183q.216-.027.658-.109a.13.13 0 0 0 .058.026 96 96 0 0 0 1.543.008.25.25 0 0 0 .12-.025l.011-.007.016-.012a.02.02 0 0 1 .011-.004l.105-.386v-.001l.048-.246a.4.4 0 0 0 0-.094q-.008-.076-.083-.096a1 1 0 0 0-.242-.015l.506-2.367h.252a.146.146 0 0 0 .142-.112q.066-.268.122-.553a.24.24 0 0 0-.013-.142v-.001a.11.11 0 0 0-.091-.069 1 1 0 0 0-.106-.007h-1.393q-.066-.002-.109.005a.16.16 0 0 0-.091.049.2.2 0 0 0-.05.103l-.032.145c-.052-.08-.15-.224-.159-.188a.4.4 0 0 1 .099-.194.35.35 0 0 1 .195-.107 1 1 0 0 1 .146-.009h1.394a1 1 0 0 1 .133.009c.07.01.134.043.182.093a.36.36 0 0 1 .186-.094 1 1 0 0 1 .137-.008h2.018q.073 0 .145.012h.003a.3.3 0 0 1 .181.099q.03.033.05.066.148-.082.31-.136a2.56 2.56 0 0 1 1.365-.041c.101.024.439.137.598.27.181.152.214.336.128.504q-.108.21-.223.418a1 1 0 0 1-.105.163.4.4 0 0 1-.218.128.43.43 0 0 1-.271-.037c-.18-.082-.342-.174-.552-.195a.45.45 0 0 0-.178.015c-.051.016-.098.046-.107.107-.004.023.02.031.038.047.246.213.549.357.785.55.305.251.52.566.489 1.095-.055.944-.849 1.503-1.729 1.534q-.628.023-1.204-.226a.31.31 0 0 1-.282.152c-.01.001-.041.005-.056.005h-2.045c-.143 0-.229-.048-.284-.106l.007-.007h-.002l-.015-.003.009.01-.013.012a.39.39 0 0 1-.276.094h-.001l-1.436.001c.012 0 0-.003 0-.003l-.001.003s-.106-.005-.144-.012a.3.3 0 0 1-.051-.014q-.4.073-.604.099a.35.35 0 0 1-.258-.057.47.47 0 0 1-.168-.265l-.212-.727-.135.629a1 1 0 0 1-.036.135l-.001.003a.28.28 0 0 1-.286.207h-.004l-.545.003c-.054.001-.272.006-.323-.007l-.014-.001h-.001a.3.3 0 0 1-.168-.074l-.037.026a.4.4 0 0 1-.231.056c-.669.001-2.061-.003-2.061-.003-.239.576-.722 1.016-1.371 1.237-.933.318-1.955.159-2.829-.276a.48.48 0 0 1-.227-.209.4.4 0 0 1-.03-.291c.016-.064.054-.137.096-.218q.201-.384.42-.757a.32.32 0 0 1 .209-.155.56.56 0 0 1 .413.059h.001c.29.158.557.271.877.3.14.013.296.007.43-.043.092-.034.174-.092.209-.196.072-.213-.075-.351-.248-.462a48 48 0 0 1-.764-.496c-.455-.301-.792-.695-.855-1.271-.088-.806.225-1.5.808-1.927l-.023.001-.728-.001s-.086.003-.133-.001h-.018l.006-.001-.008-.001-.002-.001a.337.337 0 0 1-.277-.37l.008-.057.001-.007q.008-.053.019-.102l-.003.018.003-.016v-.005l-.001.002zm9.696 1.033a.2.2 0 0 0 .003.095c.024.075.1.113.148.131l.006-.03zv.001zm.886 3.327s.199-.003.265.002a12 12 0 0 1-.103.496l-.012.001q-.718.002-1.436.001l-.041-.001a.1.1 0 0 0-.022-.023.1.1 0 0 0-.078-.019q-.47.088-.696.117l-.015-.043q-.225-.764-.445-1.529a.11.11 0 0 0-.115-.08l-.134.009h-.001q-.041.005-.066.027a.09.09 0 0 0-.035.061q-.152.721-.308 1.442l-.009.037a27 27 0 0 1-.697 0h-.002a1330 1330 0 0 1 .802-3.749c.381.001.766-.008 1.146.012.502.027.938.259.948.82.008.42-.189.882-.567 1.097a2 2 0 0 1-.258.126h-.001q-.048.023-.063.06c-.015.037-.014.053-.001.087q.25.67.496 1.339c.015.041.056.067.099.064s.08-.036.088-.079l.048-.243.008-.031c.09-.011.201.004.289-.003q.042-.004.067-.028c.025-.024.031-.035.037-.063l.541-2.53.002-.011a.11.11 0 0 0-.095-.119l-.011-.001-.235-.003q.047-.246.101-.488l.001-.004.059-.001h1.407q-.051.253-.108.493h-.279q-.045.001-.072.025c-.027.024-.033.036-.039.065l-.541 2.53a.11.11 0 0 0 .021.096q.018.025.056.037zm-2.477-2.639-.204.963q-.002.01.008.01.208.016.358-.017c.31-.067.466-.358.453-.664-.015-.349-.36-.305-.603-.301q-.01 0-.011.009zm-2.698-2.515.093-.436a.34.34 0 0 1-.189.055h-.821l-.08.374h.92q.04 0 .077.006zm3.9 4.773q.063-.007.131-.008l.238-1.112a1.44 1.44 0 0 1-.58.553zm-12.041-6.822a.46.46 0 0 1-.163.125.46.46 0 0 1-.368 0 4 4 0 0 1-.346-.151c-.205-.1-.539-.194-.814-.147-.122.021-.232.074-.281.2-.046.119.006.205.076.276.084.085.191.153.287.215.306.198.654.394.934.643q.196.172.34.381l.007-.034.327-1.509zm2.78 2.873-.028-.029a.2.2 0 0 1 .028.029m5.694-2.384.078-.367a.3.3 0 0 1-.055.004h-.943l-.042.201h.65a.35.35 0 0 1 .311.162zm1.658 7.6q0-.002 0 0m-5.961-4.879q.245-.127.532-.198c.22-.054.466-.09.721-.101q.026-.132.075-.363l.224-1.046c-.357.239-.792.318-1.235.323l-.276 1.282v.001a.4.4 0 0 1-.04.102zm5.168 1.681-.844.002-.039.186h.649c.19 0 .346.156.346.346v.014l.124-.578a.4.4 0 0 1-.16.03h-.064l-.014.001v-.001zm-.18 1.917.134-.625a.34.34 0 0 1-.317.224l-.805.001-.076.356h.847c.037 0 .078.006.111.01h.002a.3.3 0 0 1 .105.034zm-7.82-8.098.001-.024a.27.27 0 0 0-.263-.267 26 26 0 0 0-.794-.001.35.35 0 0 0-.192.052l-.01.007q.123.068.232.15a.5.5 0 0 1 .115.119.5.5 0 0 1 .179-.037q.368-.005.732 0zm12.521 9.074a.2.2 0 0 0 .017.04c.025.039.072.073.164.073h2.045q.03 0 .063-.005c.066-.009.092-.021.112-.064l.001-.001a.7.7 0 0 0 .041-.133l.007-.032q.03.019.066.036.593.293 1.247.27c.78-.028 1.492-.513 1.541-1.35.026-.451-.159-.719-.418-.932-.237-.195-.542-.34-.788-.554-.074-.064-.118-.133-.103-.225.038-.239.286-.305.497-.285.232.023.414.12.614.211a.25.25 0 0 0 .151.024.2.2 0 0 0 .111-.066c.028-.032.053-.078.08-.127q.113-.205.22-.413c.046-.089.017-.184-.08-.265-.137-.115-.432-.209-.519-.23a2.37 2.37 0 0 0-1.257.037 1.4 1.4 0 0 0-.628.406q.062-.142.096-.232c.02-.052.013-.105-.034-.157a.12.12 0 0 0-.07-.039h-.001a1 1 0 0 0-.113-.009h-2.018q-.06-.002-.102.004a.17.17 0 0 0-.089.045.2.2 0 0 0-.051.101l-.762 3.564-.032.156-.002-.002a1 1 0 0 0-.005.156zm1.043-3.673-.016.013.016.026zm1.651.781a2 2 0 0 0-.011.23.3.3 0 0 0-.061-.023l-.007-.002a.5.5 0 0 0-.117-.018h-.002l-.624-.001.039-.186.783-.001zm-.147 2.601.055.029q.548.271 1.153.249c.68-.024 1.31-.437 1.353-1.167.026-.451-.206-.68-.491-.878-.21-.146-.448-.276-.649-.45-.131-.113-.194-.24-.168-.404.056-.349.4-.479.709-.448.255.025.456.128.676.228l.024.009.006.001.017-.02q.021-.033.043-.076.11-.2.215-.402l-.029-.032a.6.6 0 0 0-.117-.072 2 2 0 0 0-.322-.118 2.17 2.17 0 0 0-1.15.032c-.354.118-.651.357-.753.765-.119.47.012.833.412 1.097l.588.386c.249.162.338.499.161.742-.108.148-.279.219-.469.236a1.5 1.5 0 0 1-.74-.149 5 5 0 0 0-.228-.105l-.009.012q-.149.258-.286.525l-.004.008zm2.525-2.963-.003.004zm-2.846 3.171s.095-.378.126-.545l-1.195-.003c-.04 0-.065-.018-.081-.038s-.029-.048-.021-.088v-.001l.196-.912a.12.12 0 0 1 .12-.098l.976-.001q.063-.274.119-.547l-.963-.002a.11.11 0 0 1-.086-.116l.002-.011.157-.752v-.001a.11.11 0 0 1 .107-.086q.569.001 1.135-.001l.013-.001.008-.018.018-.041q.145-.314.216-.486h-2.03l-.052.001-.015.07a1446 1446 0 0 0-.784 3.675h2.034zm0 0q.007 0 0 0m.323-.714-.035-.004q.024.03.057.049l-.017.031a.13.13 0 0 0-.098-.093.4.4 0 0 0-.094-.009l-1.092-.003.16-.746.952-.001q.06-.001.096-.032a.13.13 0 0 0 .053-.087c.035-.152.122-.56.132-.61a.2.2 0 0 0-.01-.128v-.001a.12.12 0 0 0-.078-.066l-.002-.001c-.024-.006-.05-.013-.074-.013h-.865l.12-.577 1.066-.001q.072-.002.109-.024l.01-.006-.007.026c-.141.561.016.992.494 1.308q.294.194.589.386c.156.102.221.311.11.463-.075.102-.196.145-.328.157a1.3 1.3 0 0 1-.635-.129 4 4 0 0 0-.23-.107.2.2 0 0 0-.151-.009.2.2 0 0 0-.112.1l-.056.098-.103-.178.029.009c-.018-.026-.032-.039-.039-.027a.39.39 0 0 1 .509-.173h.001q.121.052.238.111c.133.066.344.126.531.109.074-.007.146-.02.188-.078.045-.062.005-.143-.059-.185l-.59-.387a1.46 1.46 0 0 1-.49-.507q-.05.24-.106.481a.34.34 0 0 1-.34.27h-.794l-.076.356.851.002q.076 0 .129.012l.007-.012-.007.012a.2.2 0 0 0-.017.059c-.006.063.032.114.075.15zm-.04-.205-.01-.018-.001.002-.007.012.008.002zm.04.205.033.025.011-.02zm-9.43.907q.917.003 1.832.002c.066 0 .104-.011.129-.026s.085-.172.085-.172q.061-.28.115-.571.002-.012.002-.025a.136.136 0 0 0-.117-.134h-.001c-.025-.003-.056-.008-.084-.008h-1.088l.16-.747.963-.001a.14.14 0 0 0 .138-.111l.14-.643.003-.032a.15.15 0 0 0-.151-.151l-.889-.001.12-.576.984-.002h.094l.024-.001q.107-.01.157-.118.116-.257.229-.516a.35.35 0 0 0 .042-.167.145.145 0 0 0-.144-.132q-1.059-.002-2.115 0v-.002l-.024.001v.001a.3.3 0 0 0-.09.014l-.001-.002-.006.002v.002a.2.2 0 0 0-.048.03c-.034.031-.049.082-.066.161q-.331 1.54-.659 3.08c-.035-.42-.248-.729-.532-.982-.273-.242-.612-.432-.911-.625a2 2 0 0 1-.32-.242c-.122-.123-.2-.278-.12-.484.076-.196.24-.289.43-.322.315-.055.699.049.934.164q.162.08.33.144c.089.034.159.031.218.005a.33.33 0 0 0 .145-.149l.261-.476.105-.192q.054-.102.034-.188c-.02-.086-.046-.112-.107-.158a2.1 2.1 0 0 0-.784-.352h1.47c.027 0 .142.004.189-.07v-.001a.5.5 0 0 0 .035-.106q.06-.282.113-.567a.2.2 0 0 0 0-.101v-.001q-.032-.105-.142-.105h-1.161l.164-.764.978-.001q.059-.001.093-.031a.13.13 0 0 0 .05-.085l.138-.633c.014-.065-.001-.113-.027-.145s-.07-.058-.136-.058l-.89.001.124-.592h1.102a.19.19 0 0 0 .176-.113l.24-.533.001-.002a.6.6 0 0 0 .041-.13v-.001l.001-.007a.14.14 0 0 0-.117-.158l-.007-.001a1 1 0 0 0-.105-.005q-1.05-.003-2.101-.002a.2.2 0 0 0-.115.027.16.16 0 0 0-.069.083c-.011.027-.016.062-.026.107l-.151.703a.95.95 0 0 0-.229-.538c-.192-.218-.494-.347-.881-.37-.415-.024-.835-.012-1.261-.01a.164.164 0 0 0-.157.121c-.031.116-.584 2.704-.813 3.783q-.012.06-.021.124a.3.3 0 0 0 .007.098c.02.046.065.08.119.083h.002l.032-.001v-.001h.034l.768.001a.16.16 0 0 0 .154-.124l.309-1.437c.615.014 1.237-.088 1.626-.619q.06-.081.108-.168l-.374 1.747q-.057.268-.082.402a.18.18 0 0 0 .015.111l-.205.005a3.6 3.6 0 0 0-.668.095c-.987.242-1.586 1.065-1.474 2.088.056.514.363.861.768 1.13q.378.25.761.494c.252.161.433.379.328.689a.51.51 0 0 1-.326.316c-.16.059-.347.069-.515.054-.347-.031-.638-.152-.953-.323l-.033-.016a.37.37 0 0 0-.241-.024.13.13 0 0 0-.085.063l-.014.024q-.209.358-.401.725-.033.06-.057.112a.3.3 0 0 0-.02.056l-.002.007a.21.21 0 0 0 .014.154.3.3 0 0 0 .14.124c.827.413 1.795.568 2.679.266.58-.198 1.017-.585 1.239-1.095l.001.001.028-.067h-.001q.024-.06.043-.121a.12.12 0 0 0 .065.03l.006.001.281.005zm-3.863-4.97c.229-1.079.777-3.64.805-3.75.412-.002.821-.013 1.224.01.326.019.584.12.746.304.16.182.222.442.17.77a1.46 1.46 0 0 1-.262.636c-.363.496-.959.56-1.532.537a.11.11 0 0 0-.112.087l-.318 1.476h-.733l.013-.07zm1.509-3.12-.213.977v.003q.001.012.013.013.167.003.332-.03c.309-.062.484-.338.495-.637.007-.172-.059-.292-.236-.319a1.8 1.8 0 0 0-.38-.016q-.008 0-.011.009m4.187 7.897s.095-.385.125-.547H19.99l-.01-.001a.103.103 0 0 1-.088-.124l.197-.921v-.001a.12.12 0 0 1 .114-.091l.983-.001.119-.547-.97-.006a.112.112 0 0 1-.075-.134l.154-.739q.01-.041.037-.063c.027-.022.039-.025.068-.025h.002l1.148-.003q.003 0 .004-.005.116-.256.228-.514l.013-.026q-1.038-.003-2.075 0h-.009l-.012.053q-.396 1.844-.788 3.689c.613.003 2.004.003 2.036.003zm-.065-8.525-2.126-.002-.74 3.455q-.051.236-.075.365l.013.001h2.049l.028-.001.005-.022q.057-.268.108-.538h-1.218c-.042 0-.067-.019-.084-.04s-.028-.048-.02-.088v-.001l.197-.919c-.002-.061.025-.107.111-.107l1.009-.001.122-.561-.965.001h-.001l-.01-.001a.107.107 0 0 1-.093-.128l.16-.766a.11.11 0 0 1 .108-.089h1.17c.053-.116.247-.55.25-.559zm-3.098 4.119-.027.002a3.5 3.5 0 0 0-.826.094c-.888.218-1.427.957-1.327 1.877.049.452.325.752.682.988q.365.241.734.477l.024.015c.332.212.546.508.408.917-.148.434-.638.538-1.043.501-.374-.033-.69-.161-1.029-.346a.2.2 0 0 0-.112-.026q-.207.354-.396.716v.001q-.03.054-.051.1l-.011.029-.001.002q-.004.01-.001.017a.1.1 0 0 0 .015.017.2.2 0 0 0 .038.022c.781.389 1.694.541 2.529.256.826-.282 1.331-.986 1.267-1.879l-.001-.013c-.03-.366-.22-.632-.467-.852-.265-.236-.597-.419-.887-.607a2 2 0 0 1-.352-.268c-.174-.176-.277-.398-.163-.692.103-.267.321-.399.578-.444.355-.061.789.052 1.053.181q.154.076.314.136c.028.011.05.017.068.009.022-.01.037-.034.054-.065l.365-.667q.018-.03.015-.056c-.003-.026-.016-.029-.034-.042-.372-.283-.901-.399-1.414-.403zm-6.006-5.001c-.646-.379-1.597-.394-2.28-.226-.976.24-1.569 1.054-1.459 2.066.026.235.105.434.224.605a2 2 0 0 1-.031-.188c-.123-1.126.536-2.032 1.622-2.299.566-.139 1.303-.151 1.925.042zm8.634 4.895s.861.007.862-.003a.12.12 0 0 0 .084-.077 1 1 0 0 0 .027-.096l.27-1.263.035.026.047-.05.402 1.38a.23.23 0 0 0 .072.118.18.18 0 0 0 .113.04c.037.001.081-.007.132-.015a31 31 0 0 0 .718-.124.165.165 0 0 0 .115-.202l-.004-.013-.553-1.49c.302-.128.544-.315.7-.62.34-.665.283-1.528-.584-1.748a2.3 2.3 0 0 0-.517-.069 32 32 0 0 0-1.073 0 .16.16 0 0 0-.153.126l-.835 3.905-.003.031c0 .08.066.146.145.146zm.777-.195h-.716l.816-3.818q.514-.008 1.038.001.24.005.472.063c.724.183.743.914.458 1.47-.146.285-.382.447-.674.559h-.001a.11.11 0 0 0-.063.141l.569 1.533c-.214.04-.747.126-.755.127l-.468-1.601v-.001a.11.11 0 0 0-.112-.081h-.002l-.134.007a.11.11 0 0 0-.105.09c-.103.496-.321 1.502-.323 1.51m.784-3.198-.207.982q-.002.01.009.012.187.014.363-.02c.317-.062.468-.366.463-.665-.006-.363-.369-.322-.618-.317a.01.01 0 0 0-.01.008m-7.501-.574-.437 2.034c-.045.21-.098.485-.214.695-.102.184-.258.315-.517.276a.3.3 0 0 1-.175-.075c-.041-.043-.055-.102-.058-.167a1 1 0 0 1 .032-.265q.269-1.23.535-2.461a3 3 0 0 0 .037-.212.14.14 0 0 0-.139-.141 26 26 0 0 0-.79-.001.23.23 0 0 0-.126.033.18.18 0 0 0-.071.088c-.012.031-.019.071-.029.118l-.52 2.406c-.092.425-.091.837.099 1.139.13.207.348.367.691.443.67.149 1.514.024 1.954-.569.146-.196.238-.473.29-.717q.292-1.368.583-2.768c.011-.056-.003-.096-.026-.124s-.059-.05-.116-.05h-.803a.16.16 0 0 0-.158.128l-.032.146zm.94-.123h-.714l-.473 2.198c-.049.227-.109.522-.235.749-.141.254-.359.428-.717.374a.48.48 0 0 1-.287-.133.4.4 0 0 1-.107-.231 1.1 1.1 0 0 1 .03-.378q.269-1.23.535-2.461.013-.06.023-.117a25 25 0 0 0-.741.002l-.007.028-.011.055-.52 2.407c-.08.37-.092.73.073.993.106.169.288.294.568.357.6.134 1.361.036 1.755-.495.13-.175.209-.423.256-.641q.286-1.338.571-2.706zm6.138 5.788v.003zM7.754 15.313l-.002.007a.21.21 0 0 0 .014.154.3.3 0 0 0 .14.124c.827.412 1.795.568 2.679.266.912-.311 1.47-1.091 1.399-2.078-.031-.428-.246-.741-.534-.997-.273-.242-.612-.432-.911-.625a2 2 0 0 1-.32-.242c-.122-.123-.2-.278-.12-.484.076-.196.24-.289.429-.322.315-.054.699.049.934.164q.162.08.33.144c.089.034.159.031.218.005a.33.33 0 0 0 .145-.149q.184-.333.366-.668a.27.27 0 0 0 .034-.188.2.2 0 0 0-.027-.07.3.3 0 0 0-.08-.088c-.635-.483-1.691-.523-2.431-.341-.987.242-1.586 1.065-1.474 2.088.056.514.363.861.768 1.13q.378.25.761.494c.252.161.433.379.328.689a.51.51 0 0 1-.326.316c-.16.059-.347.069-.515.054-.347-.031-.638-.152-.953-.323l-.033-.016a.37.37 0 0 0-.241-.024.13.13 0 0 0-.085.063l-.014.024q-.209.358-.401.725-.033.06-.057.112a.3.3 0 0 0-.02.056zm.188.052-.001.002q-.004.01-.001.017a.1.1 0 0 0 .015.017.2.2 0 0 0 .038.022c.781.389 1.694.541 2.529.256.826-.282 1.331-.986 1.267-1.879-.027-.372-.218-.642-.468-.865-.265-.236-.597-.419-.887-.607a2 2 0 0 1-.352-.268c-.174-.176-.277-.398-.163-.692.103-.267.321-.399.578-.444.355-.061.789.052 1.053.181q.154.075.314.136c.028.011.05.017.068.009.022-.01.037-.034.054-.065l.365-.667q.018-.03.015-.056c-.003-.026-.016-.029-.034-.042-.592-.45-1.577-.476-2.267-.307-.888.218-1.427.957-1.327 1.877.049.452.325.752.682.988q.365.242.734.477l.024.015c.332.212.546.508.408.917-.148.434-.638.538-1.043.501-.374-.033-.69-.161-1.029-.346a.2.2 0 0 0-.112-.026q-.207.354-.396.716v.001q-.03.054-.051.1l-.011.029zm18.575.953a.3.3 0 0 1-.054.004h-.094l-.425 1.986.051.01a.4.4 0 0 1 .087.033zm-6.057-2.194h.001zm2.977-3.6c-.128-.27-.373-.486-.763-.585a2.5 2.5 0 0 0-.545-.073 32 32 0 0 0-1.078 0 .3.3 0 0 0-.154.049.3.3 0 0 0-.108-.042l-.014-.002a1 1 0 0 0-.117-.005q-1.051-.003-2.102-.002a.33.33 0 0 0-.179.045c-.078.046-.122.127-.153.271l-.055.255a1 1 0 0 0-.108-.147c-.211-.24-.542-.387-.968-.412-.417-.024-.84-.012-1.269-.01a.29.29 0 0 0-.277.214l-.009.037a.24.24 0 0 0-.055-.119.26.26 0 0 0-.213-.096h-.803a.29.29 0 0 0-.281.226v.001c-.313-.021-.346.07-.529.067a.338.338 0 0 1 .327.388q-.016.099-.037.201-.266 1.231-.535 2.462a1 1 0 0 0-.027.215c.001.015-.005.03.004.04.013.013.035.013.063.017.161.024.254-.064.318-.178.108-.194.153-.448.194-.641l.478-2.223v.008l.004-.016q-.002.001-.003.005a.36.36 0 0 1 .349-.281h.803a.32.32 0 0 1 .305.179.36.36 0 0 1 .249-.103c.43-.002.855-.014 1.273.011.448.026.794.184 1.016.436l.021.024.021-.1q.016-.086.035-.137a.35.35 0 0 1 .15-.179.4.4 0 0 1 .215-.055q1.052-.001 2.102.002.07 0 .123.005l.017.002a.3.3 0 0 1 .098.031.4.4 0 0 1 .153-.038q.535-.009 1.08 0 .285.005.561.075.245.064.422.18zm-9.288 5.842c-.034-.004-.079.009-.136.049a.408.408 0 0 1-.243.064c-.092-.005-.144-.022-.202-.037a1.1 1.1 0 0 0-.296-.037.836.836 0 0 0-.831.834c-.014.494.303 1.04.876 1.066.302.014.876-.146 1.137-.26a1 1 0 0 0 .063-.056l.114-.192c.082-.137.048-.253-.101-.208a2.9 2.9 0 0 1-.739.129c-.568.044-.523-.243-.511-.438.013-.215.158-.371.229-.367.163.011.208.027.238.239.005.038.064.106.1.116l.091.024a.137.137 0 0 0 .167-.107c.025-.119.126-.315.158-.343a.2.2 0 0 0 .034-.178l-.021-.08c-.012-.042-.024-.207-.126-.219zm-1.784.028-.023.003c-.246.061-.68.07-.802.046-.044-.008-.125.031-.145.073l-.043.084c-.041.081-.007.169.077.198.116.04.163.125.184.231.011.059.013.12.012.174-.001.063-.005.119-.005.158 0 .175-.06.347-.086.489-.027.145-.066.22-.101.248-.039.032-.06.122-.039.169l.043.096c.055.124.168.132.238.016.069-.113.45-.226.635-.132.043.022.13.004.162-.034l.054-.064a.144.144 0 0 0-.017-.202c-.173-.143-.21-.255-.217-.336-.014-.156.011-.249.011-.319 0-.178.006-.31.032-.404.024-.084.057-.117.108-.131a.14.14 0 0 0 .091-.183l-.031-.088a.15.15 0 0 0-.137-.091zm-1.269.011c-.033-.003-.074.013-.127.058a.39.39 0 0 1-.237.062c-.095-.006-.188-.027-.288-.047a2 2 0 0 0-.365-.045c-.375-.005-.791.216-.808.84-.014.501.396.981.825 1.015q.076.005.143-.008.058-.012.124-.029c.073-.02.159-.043.277-.052.051-.004.128.051.139.077.008.02.071.077.091.082l.116.032c.098.027.174-.034.171-.139a2 2 0 0 0-.015-.174.6.6 0 0 1 .013-.192c.016-.072.059-.111.15-.135.172-.044.211-.109.152-.21l-.07-.119a.4.4 0 0 0-.072-.06c-.137-.049-.703-.014-.835.04-.054.022-.088.101-.097.158l-.019.094c.012.056.091.106.201.109h-.079c-.369.064-.42-.239-.405-.479.012-.19.165-.354.329-.329.201.03.271.057.296.237.005.038.064.107.1.116l.089.024a.136.136 0 0 0 .167-.106 1 1 0 0 1 .154-.336.2.2 0 0 0 .035-.177l-.021-.079c-.012-.041-.036-.217-.135-.226zm-5.217.034q.024 0 .044.007c.085.036.495.081.654.01a.3.3 0 0 1 .12.003l.06.031c.105.057.165.061.12.21s-.003.411.138.657c.049.086.137.264.226.463a.7.7 0 0 1 .146-.316c.097-.124.16-.286.188-.369.031-.09.128-.175.245-.151l.029.009a21 21 0 0 0-.398-.153c-.104-.038-.13-.136-.059-.221l.099-.12c.025-.03.112-.056.149-.044.11.036.76.14.977.043.029-.013.115 0 .14.02l.13.115c.009.008.058.037.067.081.077.401.217.911.51 1.336.036.052-.046.137-.113.23-.016.021-.13-.031-.16-.041-.272-.09-.447-.037-.491.008a.136.136 0 0 1-.205-.008l-.107-.126c-.04-.078.025-.165.027-.174s.002-.025.001-.048a1.4 1.4 0 0 0-.044-.217c.02.11-.046.195-.131.231-.009.003-.028.012-.054.059a1 1 0 0 0-.043.094q-.025.06-.054.137a.134.134 0 0 1-.153.087 1.1 1.1 0 0 0-.296-.001q-.078.009-.13.011a.3.3 0 0 1-.073-.007c.043.111.077.21.093.277.016.065.024.112.039.152a.2.2 0 0 0 .051.078.5.5 0 0 0 .069.06q.048.034.1.068.059.037.111.076a.5.5 0 0 1 .105.099c.02.024.032.114.02.143l-.043.104a.15.15 0 0 1-.17.079c-.489-.16-1.014-.122-1.207.032a.15.15 0 0 1-.188-.014l-.106-.116a.14.14 0 0 1 .012-.203c.157-.135.234-.21.269-.265.024-.038.027-.058.014-.107a4 4 0 0 0-.209-.516c-.092-.2-.187-.392-.235-.491a.2.2 0 0 1-.131.032.26.26 0 0 1-.065.16c-.021.028-.127.185-.051.433.018.058.058.159.1.274.045.125.092.267.117.396a.144.144 0 0 1-.111.165c-.154.028-.408.312-.445.391-.002.004-.1.115-.217.049l-.055-.031-.078-.045c-.082-.045-.055-.183-.055-.183.002-.015.001-.043-.001-.1-.006-.114-.037-.32-.14-.667-.196-.661-.452-.968-.547-1.059l-.005.01a1 1 0 0 0-.03.068q-.045.106-.132.133c.024.049.027.113-.003.192-.024.054-.086.188-.136.331-.038.11-.108.256-.144.396s-.018.201.013.228a.3.3 0 0 0 .057.043c.137.081.104.229.104.229a.135.135 0 0 1-.16.139c-.377-.059-.711.082-.797.164-.074.07-.169.054-.217-.036l-.059-.112a.15.15 0 0 1 .048-.185c.001 0 .155-.101.242-.212.077-.099.16-.291.236-.497s.137-.404.172-.49c.063-.152.089-.219.105-.258a.18.18 0 0 1 .116-.12c-.03-.054-.031-.123.014-.21.022-.058.121-.376.123-.388a3 3 0 0 0-.168-.044c-.162-.033-.192-.11-.106-.242l.101-.14c.035-.042.072-.056.113-.053l.861.024c.067.001.132.067.135.134 0 .013.008.041.049.109.042.069.101.151.171.26.079.12.146.246.213.362q.05.087.096.156l.056-.047a.23.23 0 0 1 .177-.06.22.22 0 0 1 .076-.167c.016-.015.038-.038.07-.08s.074-.106.124-.201q-.006 0-.015-.007a3 3 0 0 0-.263-.145.137.137 0 0 1-.056-.202l.087-.136c.022-.036.077-.06.125-.061zm1.999.566.013.006q.027.011.055.022l.08.034c.07.049.096.159.064.265l-.011.044.021-.002c.01 0 .043-.002.075.005.043.01.102.038.137.106l.023.067a3 3 0 0 0-.148-.413 4 4 0 0 0-.31-.133zm.513 1.534-.013.184h.065c.011-.059.03-.087.095-.087v.459h-.057v.07l.306-.001v-.07h-.056v-.459c.065 0 .084.029.095.087l.065.001-.012-.184h-.068v.014H8.46l.001-.014h-.068zm.781 0-.229.079v.054l.031-.011v.45h-.033v.054h.233v-.054h-.035v-.254a.08.08 0 0 1 .064-.037c.042-.001.055.022.055.062v.229h-.034v.054h.23v-.054h-.032l-.001-.276c0-.054-.024-.123-.12-.123-.069 0-.111.033-.162.076v-.178l.033-.011zm1.406 0a.347.347 0 0 0-.357.344c0 .18.115.296.288.296a.36.36 0 0 0 .217-.074l.039.06h.048v-.286c0-.024.006-.034.025-.048l-.021-.044c-.014.005-.028.013-.043.013h-.242v.07h.106v.194c-.132 0-.223-.072-.223-.253 0-.043.004-.187.118-.187.03 0 .061.016.061.05a.05.05 0 0 1-.013.034l.033.05.194-.125-.038-.056-.033.021a.3.3 0 0 0-.159-.06zm1.401 0-.228.079v.055l.031-.011v.449h-.033v.054h.232v-.054h-.035v-.254c.015-.021.038-.038.064-.038.042 0 .056.021.055.062v.229h-.034v.054h.23v-.054h-.032v-.276c0-.055-.025-.124-.121-.123-.069 0-.111.033-.162.076v-.177l.033-.012zm1.355.039c-.038 0-.096.033-.096.077 0 .037.025.056.061.056.045 0 .115-.02.115-.076 0-.047-.041-.057-.08-.056zm-1.771.032a.24.24 0 0 1-.16.136v.049h.044v.265c0 .078.031.118.113.118a.27.27 0 0 0 .154-.064l-.023-.038a.1.1 0 0 1-.043.014c-.013 0-.037-.008-.037-.036v-.259l.066.001.013-.07h-.08v-.036q0-.035.006-.069zm2.904.033.034.002-.02.091c-.011-.011-.017-.018-.032-.018-.011 0-.016.01-.016.02 0 .018.084.046.084.151 0 .141-.13.169-.238.197v.002c.074.008.224.024.224.124 0 .098-.13.121-.184.121-.079 0-.159-.017-.159-.09.001-.044.048-.072.087-.077v-.001a.5.5 0 0 0-.12-.003l-.06-.058a1 1 0 0 0 .171-.048v-.002c-.077-.012-.154-.064-.154-.158 0-.129.102-.185.2-.185.048 0 .073.008.098.012l.011-.034c.011-.033.026-.046.075-.046zm-.191.125c-.033 0-.046.017-.046.06 0 .048.028.183.095.183.033 0 .047-.017.047-.06 0-.048-.028-.183-.095-.183zm.026.414q-.016.028-.016.061-.001.048.037.047.034 0 .034-.033c0-.041-.023-.055-.055-.075m-3.292-.491.054.018-.008.024a.3.3 0 0 1 .108-.021c.1 0 .166.043.167.149v.25h.029v.054h-.18l-.01-.042c-.037.031-.076.056-.127.056-.081 0-.142-.053-.142-.136 0-.104.064-.163.144-.163h.123v-.022q0-.057-.059-.059c-.052 0-.075.038-.099.069l-.055-.02.057-.156zm.131.242a.073.073 0 0 0-.077.077c0 .035.01.074.054.074.041 0 .049-.031.049-.065v-.086zm1.398-.221c.121 0 .188.08.22.189l-.255.093q.03.078.113.079a.14.14 0 0 0 .109-.047l.034.036a.27.27 0 0 1-.223.117c-.135 0-.218-.095-.218-.237 0-.124.094-.229.22-.229zm-.028.068c-.035-.001-.05.027-.05.065.001.035.01.058.015.083l.116-.044c-.013-.038-.033-.104-.081-.103zm.475-.068-.18.048v.054l.029-.011v.308h-.03v.054h.238v-.054h-.044v-.217a.07.07 0 0 1 .059-.033.3.3 0 0 1 .072.02l.053-.151-.049-.017-.011.018a.13.13 0 0 0-.066-.018c-.042 0-.059.075-.07.105h-.002v-.106zm.421 0-.196.056v.051l.032-.006v.299h-.034v.054h.227v-.054h-.029zm.296 0-.197.054v.053l.031-.009v.302h-.031v.054h.23v-.054h-.035v-.255c.021-.019.043-.037.073-.037.024 0 .047.013.047.04v.252h-.034v.054h.228v-.054h-.03v-.272c0-.049-.016-.127-.13-.127-.062 0-.107.037-.153.072v-.072zm-3.972 0c.121 0 .188.08.219.189l-.254.093q.03.078.113.079a.14.14 0 0 0 .109-.047l.034.037a.27.27 0 0 1-.223.116c-.135 0-.219-.095-.218-.237 0-.124.094-.229.22-.229zm-.028.068c-.035.001-.049.028-.049.066 0 .035.01.058.015.082l.115-.044c-.012-.038-.033-.104-.081-.104"/></svg>