<svg xmlns="http://www.w3.org/2000/svg" width="19" height="32"><path fill="currentColor" d="M5.363 5.02c.629-.345 1.267-.605 2.043-.715l-.758 1.856-1.285-1.14zM.772 17.411l1.731-.005A8.04 8.04 0 0 0 9.6 21.672h.036a8.04 8.04 0 0 0 7.061-4.266l1.731.005a9.6 9.6 0 0 1-1.717 2.671v4.22l-.924.924v3.058l-3.413 2.062v-3.129l-.853.284v-3.556l-1.92 3.769-1.92-3.769v3.556l-.853-.284v3.129l-3.413-2.062v-3.058l-.924-.924v-4.22a9.6 9.6 0 0 1-1.717-2.671zm.387-8.35A9.65 9.65 0 0 1 5.362 5.02l-.023 1.802a8.1 8.1 0 0 0-2.487 2.449L1.159 9.06zm-.387 8.35A9.6 9.6 0 0 1 0 13.636a9.55 9.55 0 0 1 1.159-4.574l1.097 1.31a8 8 0 0 0-.692 3.264c0 .863.136 1.695.389 2.474zM13.837 5.02l-1.285 1.14-.758-1.856c.776.11 1.414.371 2.043.715zm4.204 4.041-1.693.211a8.1 8.1 0 0 0-2.487-2.449l-.023-1.802a9.65 9.65 0 0 1 4.203 4.041zm.387 8.35-1.181-1.301a8 8 0 0 0 .389-2.474 8 8 0 0 0-.692-3.264l1.097-1.31a9.55 9.55 0 0 1 1.159 4.574c0 1.34-.275 2.616-.772 3.775M3.627 21.149v2.798l.853.853v2.987l1.28.924v-3.058l.853.427v-3.319a9.6 9.6 0 0 1-2.987-1.612zm4.835 2.014 1.138 2.39 1.138-2.39zm7.111-2.014a9.6 9.6 0 0 1-2.987 1.612v3.319l.853-.427v3.058l1.28-.924V24.8l.853-.853v-2.798zm-6.005-1.967a6.3 6.3 0 0 0-1.746.214c-.388-1.224-1.121-1.947-2.418-1.849-1.025-1.184-.335-2.8-.996-3.769.4-.748 1.718-1.239 3.627-1.564l1.564 1.564 1.564-1.564c1.909.325 3.227.816 3.627 1.564-.661.969.029 2.585-.996 3.769-1.296-.098-2.03.625-2.418 1.849a6.4 6.4 0 0 0-1.778-.213h-.032zm.032-1.493-1.138-.711L9.6 18.187l1.138-1.209zm-3.769-3.627c.345.87 1.262 1.348 1.707 1.351.427.003.719-.261.711-.711-.006-.379-.352-.674-.853-.711-.38-.028-.948.458-1.564.071zm7.538 0c-.617.387-1.184-.099-1.564-.071-.501.037-.847.332-.853.711-.007.451.284.714.711.711.445-.003 1.362-.481 1.707-1.351zm-9.173.498c.215.223.256.52.213.853l-.711.711h.711c-.009.296.032.56.142.782H2.062l2.133-2.347zm10.808 0 2.133 2.347h-2.489c.11-.222.151-.487.142-.782h.711l-.711-.711c-.043-.333-.001-.63.213-.853zm-5.443-2.843c-3.32.133-6.158 1.428-5.436 2.416-3.107-.204.013-2.974 4.764-3.627.086-1.842-.355-3.49-1.422-4.907L9.6 1.119l2.133 4.48c-1.067 1.417-1.508 3.065-1.422 4.907 4.752.652 7.871 3.423 4.764 3.627.725-.992-2.139-2.293-5.476-2.418zm.039.212a.57.57 0 1 1 0 1.139.57.57 0 0 1 0-1.139m-4.053-.925a7.8 7.8 0 0 0-1.778.924L2.276 9.652l3.271.498v.853zm8.106 0v-.853l3.271-.498-1.493 2.276a7.7 7.7 0 0 0-1.778-.924zM5.831 6.169c2.98 2.858 2.802 2.074 2.773 4.053-.873.081-1.772.286-2.702.64zm7.538 0-.071 4.693a10.2 10.2 0 0 0-2.702-.64c-.028-1.979-.206-1.195 2.773-4.053"/></svg>