<svg xmlns="http://www.w3.org/2000/svg" width="28" height="32" viewBox="0 0 28 32"><path fill="currentColor" d="M9.352 2.66a6 6 0 0 0-.867.071c-.896.16-1.806.538-2.391 1.261a1.94 1.94 0 0 1 .195-1.019c-.732.464-1.287 1.161-1.7 1.914-.254.476-.457.988-.528 1.526l-.036-.014a3.1 3.1 0 0 1-.195-1.147c-.592.793-.72 1.83-.662 2.792.078.977.417 1.985 1.154 2.663-.268-.94-.1-1.957.316-2.827.102.242.181.493.3.728.34.749.93 1.366 1.63 1.79.12.065.229.159.366.184-.163-.781-.074-1.597.111-2.366.007-.102-.025-.202-.041-.302-.101-.628.005-1.304.367-1.835.347-.529.951-.896 1.591-.9.493-.019.995.156 1.352.501.407.397.619.959.672 1.517a3.63 3.63 0 0 1-.583 2.324c.653.889 1.543 1.558 2.316 2.334a8 8 0 0 0 1.495-3.124c.26-1.1.113-2.278-.351-3.303-.412-.909-1.112-1.691-1.994-2.164a5.24 5.24 0 0 0-2.516-.605zM7.813 7.539c-.282.372-.394.837-.477 1.288-.074.45-.099.909-.055 1.364.03.243.062.494.166.718.66.416 1.254 1.028 1.44 1.808-.123-.194-.236-.398-.403-.558-.635-.65-1.495-.996-2.246-1.485-.646-.39-1.249-.907-1.558-1.612-.161.68-.108 1.442.291 2.034-.68-.205-1.398-.224-2.103-.202.433.233.803.579 1.092.975.124.19.264.444.148.667-.112.182-.307.289-.479.407-.868.514-1.825.903-2.569 1.602.546-.09 1.115-.188 1.662-.048.302.072.591.269.707.565.156.362.109.769.029 1.143-.052.199-.082.41-.195.588.121-.067.21-.175.316-.261.35-.294.728-.552 1.119-.788.592-.352 1.221-.663 1.9-.807a5.1 5.1 0 0 0-1.26-.231c.358-.426.863-.704 1.379-.896.772-.271 1.618-.387 2.426-.223-.775.04-1.55.225-2.241.583-.093.06-.218.096-.268.204.428.066.848.176 1.258.314a3.33 3.33 0 0 0-1.728 1.806 2.23 2.23 0 0 1 1.504-.29c.364.053.728.206.978.483.282.296.379.733.324 1.13-.074.447-.301.884-.679 1.145q.153.008.306.001l.065.032-.024-.034c.239-.013.479-.054.703-.141-.065.19-.175.359-.307.51-.173.195-.363.39-.615.482.437.003.868-.113 1.264-.291.5-.227.983-.573 1.213-1.087-.229.051-.494.106-.707-.027-.108-.062-.146-.19-.146-.307-.011-.348.088-.686.175-1.019-.131.144-.317.326-.53.242-.153-.086-.183-.278-.171-.437.036-.384.172-.754.363-1.087a3.9 3.9 0 0 0-1.379-.164c.419-.156.864-.225 1.304-.291.567-.058 1.147-.12 1.711-.008.176.034.386.128.388.337-.003.315-.156.605-.321.865.342.001.685-.002 1.022.063.315.064.657.159.867.42.242.307.268.74.14 1.101.353-.184.647-.466.871-.793.472-.676.701-1.527.591-2.348-.164.362-.476.692-.87.793.055-.359-.238-.666-.566-.753.14-.726-.135-1.461-.541-2.056-.718-1.062-1.828-1.762-2.65-2.73-.592-.664-1.094-1.498-1.057-2.418-.187.271-.268.598-.321.919-.057.408-.075.851.099 1.234.388.464.868.841 1.306 1.257.728.656 1.427 1.41 1.734 2.362-.364-.729-.969-1.292-1.565-1.832-.658-.597-1.345-1.168-1.916-1.853-.552-.656-.977-1.484-.913-2.364zm14.373 4.327a1.8 1.8 0 0 0-.47.076c-.645.182-1.196.586-1.704 1.01-.277.219-.53.472-.838.65a.45.45 0 0 1-.364.049c-.02-.063-.057-.126-.034-.193.095-.335.312-.616.514-.893-.75.424-1.369 1.046-1.906 1.714-.507.663-.965 1.388-1.18 2.203.858-1.008 1.991-1.763 3.214-2.256.847-.33 1.762-.557 2.675-.457-.235.042-.475.048-.709.097-.99.181-1.923.604-2.766 1.148-1.41.92-2.612 2.143-3.586 3.512.325.086.613.275.863.496.352.275.687.57 1.041.844.636-1.457 1.458-2.841 2.494-4.049.638-.75 1.628-1.171 2.608-1.145.544.009 1.097.157 1.536.487.309-.249.678-.41 1.053-.534a7.4 7.4 0 0 1 1.689-.363c.472-.035.954-.044 1.417.075-.554-.598-1.241-1.063-1.979-1.404-.654-.289-1.364-.477-2.084-.46-.574-.007-1.137.137-1.677.323-.172.057-.344.121-.525.138-.128.018-.237-.117-.21-.24.026-.146.141-.254.244-.352.223-.196.481-.353.752-.475q-.034-.002-.069-.001zm-11.457 1.529a2.18 2.18 0 0 1 1.254 1.29c-.267-.001-.544-.078-.742-.263-.287-.268-.418-.656-.512-1.026zm-7.776 1.669a12.3 12.3 0 0 0-1.555 1.802C.828 17.681.29 18.543 0 19.502c.396-.329.806-.648 1.268-.877-.493 1.021-.702 2.163-.696 3.292a8.9 8.9 0 0 0 .738 3.403c.269.595.603 1.173 1.066 1.64.086.077.162.179.282.204-.034-.071-.071-.141-.08-.22a3.8 3.8 0 0 1-.04-.942l.075.101c.373.62.917 1.119 1.503 1.535a6.9 6.9 0 0 0 2.897 1.174c.933.13 1.891.07 2.806-.148a7.2 7.2 0 0 0 2.796-1.385c1.249-1.007 2.172-2.365 2.856-3.803-.756-.679-1.55-1.313-2.33-1.963a7.9 7.9 0 0 1-1.928 2.318c-.586.462-1.267.848-2.021.932a2.93 2.93 0 0 1-1.95-.522 3.25 3.25 0 0 1-1.14-1.507c-.36-.926-.343-1.967-.07-2.913.341-1.19 1.063-2.244 1.951-3.093-.227-.114-.49-.137-.74-.132-.643.038-1.228.393-1.668.848a3.33 3.33 0 0 1 .632-1.958c-.62.215-1.178.576-1.728.929-.605.414-1.208.847-1.688 1.406 0-.47.064-.938.155-1.398.061-.34.164-.68.142-1.029 0-.123-.07-.227-.134-.326zm7.604.838c-.2.397-.172.901.066 1.276.335.49.939.706 1.272 1.196.236.361.137.814.246 1.212.134.642.626 1.123 1.127 1.508a69 69 0 0 1 2.368 1.97c.313.277.552.646.64 1.059.206.856-.122 1.741.082 2.599.205.933.961 1.703 1.869 1.977-.692-.755-.697-2.048.033-2.779.048.718.318 1.415.747 1.991a3.44 3.44 0 0 0 2.079 1.341c.887.191 1.823.058 2.66-.275.582-.247 1.175-.567 1.536-1.104a2.2 2.2 0 0 1-.964.112c-.627-.063-1.256-.269-1.749-.672.764.089 1.559.003 2.257-.332.809-.367 1.49-1.044 1.796-1.884a2.97 2.97 0 0 0-.061-2.219c-.307-.712-.886-1.287-1.567-1.645-.677-.357-1.456-.493-2.216-.441.484.139.933.433 1.206.863.282.423.333.983.137 1.451-.184.461-.605.776-1.049.965a3.17 3.17 0 0 1-1.779.183c.447-.323.684-.868.727-1.407.071-.748-.17-1.538-.703-2.078-.124-.116-.249-.242-.412-.3.263.601-.023 1.373-.609 1.665a1.3 1.3 0 0 1-1.075.04c-.417-.154-.725-.49-1.069-.758q-1.185-.98-2.371-1.955c-.216-.175-.425-.367-.686-.473-.378-.167-.8-.162-1.204-.178-.17-.015-.365-.038-.48-.179-.205-.26-.185-.609-.277-.912-.052-.214-.18-.418-.38-.52-.501-.259-1.112-.079-1.609-.358-.359-.163-.617-.538-.589-.938z"/></svg>