<svg xmlns="http://www.w3.org/2000/svg" width="18" height="32"><path fill="currentColor" d="M5.474 25.433h.898l1.244-1.52-2.28-8.428L4.3 14.38c.773-1.987 2.312-3.542 3.454-5.181.049-.152.025-.24-.138-.207-.856.247-1.202.728-1.174 1.382-.948.014-1.485-1.044-1.796-2.694-.065-.345.857-.491 5.112-2.556L11.9 3.259c.402.266.709.599.967.967l-2.28 1.658C9.526 5.83 8.76 6.16 8.376 6.989c-.218.518-.46.745-.76.276-.029-.204-.131-.263-.345-.138-1.118.714-1.359 1.428-1.244 2.142 1.196-1.166 2.09-1.477 2.58-.672.362.596-.18 1.395-2.235 4.195l1.451 1.451 1.244-1.52 1.244 1.52 1.451-1.451c-.713-.972-1.619-2.268-1.619-2.268l.653-.7c1.214 1.43 2.307 2.913 3.038 4.557l-1.036 1.105-2.28 8.428 1.244 1.52h.898l-3.592 5.112-3.592-5.112zm.277-11.813-.276.553 2.556 2.418-.207-1.105-2.073-1.865zm6.632 0-2.073 1.865-.207 1.105 2.556-2.418zM10.31 25.571l-.967-1.313.898-6.494-1.174 1.174-1.174-1.174.898 6.494-.967 1.313 1.244 1.865 1.244-1.865zm-2.487 4.422H5.82c-.134.553-1.089.666-1.382 0h-.207c-.735-.735-.373-3.517.276-3.454l.276-.415h.345l2.694 3.869zm2.487 0 2.694-3.869h.345l.276.415c.649-.063 1.011 2.719.276 3.454h-.207c-.292.666-1.248.553-1.382 0h-2.004zM5.129 22.67c-1.338-1.078-1.938-4.725-.967-7.669l.76.691c-.335 2.145-.325 3.933.207 5.181v1.796zm7.876 0v-1.796c.532-1.248.543-3.036.207-5.181l.76-.691c.971 2.944.37 6.591-.967 7.669zM5.889 1.668c.072.757-.337 1.079-1.144 1.672-.876.644-2.152 4.626.798 8-2.26 2.996-2.831 6.399-1.658 10.225-3.702-.461-1.403-8.755-.622-9.327.05-.14-.071-.298-.207-.207-1.092 1.434-1.563 3.37-1.589 5.665-1.459-.653-1.672-5.141.76-7.807.088-.199-.134-.398-.276-.276C1.241 10.481.762 11.309.5 12.1c-.75-1.209-.887-2.769 1.244-4.56.218-.183.041-.504-.207-.345-.508.372-.932.864-1.313 1.313-.567-1.31-.056-2.649 1.796-3.869.09-.059.046-.479-.207-.345l-1.105.967c-.824-.755-.675-3.42.138-3.385.293 1.421 1.608 1.347 3.109-.207zm6.356 0h1.934c1.501 1.554 2.815 1.628 3.109.207.813-.034.962 2.631.138 3.385l-1.105-.967c-.254-.134-.297.286-.207.345 1.852 1.22 2.363 2.559 1.796 3.869-.38-.449-.804-.941-1.313-1.313-.249-.159-.425.163-.207.345 2.131 1.791 1.994 3.351 1.244 4.56-.261-.791-.741-1.619-1.451-2.487-.143-.121-.364.077-.276.276 2.432 2.665 2.219 7.154.76 7.807-.026-2.295-.497-4.231-1.589-5.665-.136-.091-.257.068-.207.207.781.572 3.08 8.865-.622 9.327 1.173-3.825.602-7.229-1.658-10.225 2.95-3.374 1.674-7.356.798-8-.806-.593-1.215-.915-1.144-1.672zM7.754 13.067l-.484-.484 1.796-2.487 1.796 2.487-.484.484-1.313-1.658-1.313 1.658zm5.251-8.429c.369.678.459 1.233.415 1.727l-.622.138c-.151.014-.115.309.069.276l.622-.069c.08.568.058 1.124-.138 1.658l-.553-.138c-.116-.01-.201.222-.069.276l.553.276q-.26 1.053-1.105 1.52l-.967-1.244c.544-1.205.509-2.222-.138-3.04l1.934-1.382z"/></svg>