<svg xmlns="http://www.w3.org/2000/svg" width="20" height="32"><path fill="currentColor" d="M10.067 0c-.085 0-.17.029-.172.086-.23 8.17-1.558 13.049-1.558 13.049l-1.392.136s-.852-1.738-1.307-9.709c-.008-.148-.437-.148-.446 0C4.711 11.543 3.6 14.078 3.6 14.078l-1.295.352s-.756-.958-1.303-6.611c-.013-.135-.398-.136-.407 0C.22 13.44.001 16.678.001 16.678s8.774 2.759 9.895 15.155c.02.225.326.224.344 0 .97-12.377 9.921-15.155 9.921-15.155s-.291-3.306-.675-8.859c-.009-.124-.362-.124-.374 0-.494 5.458-1.401 6.611-1.401 6.611l-1.146-.352s-1.119-2.017-1.681-10.516c-.009-.134-.395-.134-.403 0-.53 8.426-1.354 9.709-1.354 9.709l-1.312-.136S10.463 8.255 10.24.086C10.238.029 10.153 0 10.068 0zm.026 11.084.485 3.601-1.609 1.993 6.64-1.153-5.25 4.69c.802.332 1.55.687 2.356 1.011l-2.233 2.749-.389 3.277-.656-3.613 1.345-1.812L7 20.771l4.407-3.313-5.919 1.248 4.178-4.525z"/></svg>