<svg xmlns="http://www.w3.org/2000/svg" width="19" height="32"><path fill="currentColor" d="M0 22.678V9.173l9.6-3.691 9.6 3.691v10.871c-3.126 0-6.271-.112-9.72.272l4.439-10.413v-.544H6.017l-.215 3.423h.957q.1-.437.182-.643a.94.94 0 0 1 .231-.33q.14-.132.363-.19c.223-.058.344-.058.586-.058h3.671v.124l-4.141 8.389v.49a36.5 36.5 0 0 0-7.649 2.114zm19.2-2.634v6.475l-4.342-.027c-2.072-.001-3.481-.138-4.439-.869-.07-.057-.155-.123-.231-.195-.063-.063-.14-.137-.208-.216-.057-.071-.117-.142-.177-.226-.068-.099-.137-.194-.203-.311-.057.092-.127.208-.2.307-.052.068-.114.154-.18.228a3 3 0 0 1-.439.412c-.958.731-2.367.868-4.439.869L0 26.518c6.245-3.934 11.717-5.754 19.2-6.475z"/></svg>