<svg xmlns="http://www.w3.org/2000/svg" width="100%" height="100%" viewBox="0 0 24 24"><path fill="currentColor" d="m13.202 16.533-1.148 2.269a.25.25 0 0 1-.223.137l-2.055.003h-.001a.087.087 0 0 1-.077-.125l3.482-6.841a.22.22 0 0 1 .197-.121l2.864-.011a.13.13 0 0 0 .13-.124 7 7 0 0 0 .009-.528q-.005-.189.147-.199a15 15 0 0 1 1.831-.014q.048.003.049.051l.026.668q.006.134.14.134l2.649.002c.057 0 .103.046.103.103v1.11a.14.14 0 0 1-.137.139l-.956.015a95 95 0 0 1 1.688 2.105.3.3 0 0 1 .038.115l1.997-.002c.048 0 .088-.04.088-.088l-.002-.67q0-.126-.126-.126h-2.433a.12.12 0 0 1-.117-.116l-.01-1.095q0-.132.131-.133l6.037.01c.116 0 .142.02.203.103.277.376.491.736.767 1.093.113.146-.066.142-.072.142h-2.025c-.072.001-.124.044-.125.116l-.001.594v.001c0 .089.073.162.162.163l2.685.006s.053-.019.146.097c.011.013.727 1.033.727 1.033s.111.14-.129.139H26.41c-.113-.006-.127.09-.127.156l.004.646.001.066c.001.104.086.124.189.123h.002l4.135-.002c.138 0 .165.052.255.168.012.016 1.082 1.546 1.102 1.599.083.218-.058.177-.088.184l-11.373.001-.925.449q-.952.522-1.939.947c-.19.082-.568-.117-.744-.203a191 191 0 0 0-2.886-1.377c-.184-.086-.198-.22-.256-.444a38 38 0 0 1-.342-1.444 5 5 0 0 0-.219-1.024zm8.498.262-.194.881h2.379c.166.011.184-.057.181-.151l-.01-.74a.09.09 0 0 0-.09-.09h-2.185c-.023 0-.069.032-.081.1m-7.213 1.945a.12.12 0 0 0 .065.081l2.882 1.387a.12.12 0 0 0 .105-.001l2.868-1.395a.12.12 0 0 0 .065-.082l.693-3.103a.12.12 0 0 0-.024-.102l-1.994-2.469a.12.12 0 0 0-.093-.045l-3.191.003a.12.12 0 0 0-.094.045l-1.977 2.481a.12.12 0 0 0-.023.102l.72 3.097zm3.39-2.905-3.08.255a.02.02 0 0 1-.023-.019l-.184-1.278a.02.02 0 0 1 .018-.024l4.476-.742a.02.02 0 0 1 .02.006l1.276 1.334a.02.02 0 0 1 .002.028l-1.715 2.329a.02.02 0 0 0-.004.013q0 .012.011.019l.84.435a.02.02 0 0 1 .012.019q0 .008-.005.014l-1.187 1.334a.02.02 0 0 1-.029.003l-2.681-1.977a.02.02 0 0 1-.006-.028l.64-1.035c.006-.009.018-.013.028-.007l.912.477c.01.006.023.002.029-.008l.67-1.114.003-.012a.02.02 0 0 0-.022-.022h-.002zM7.21 12.703l.631-.001c0 .081.083.105.083.105h.838s.092-.001.083.07l.006.263c0 .028-.006.058-.057.057H8c-.025.001-.043.018-.044.059l.001.016c-.003.05.04.058.04.058h.772c.066.001.122.044.13.11l.001.842c-.001.121-.111.13-.111.13h-.777s-.056.002-.057.063c-.002.094.075.079.075.079s1.066.005 1.599-.006h.001s.031.008.046-.018c.015-.027-.024-.051-.035-.055l-.513-.181c-.032-.013-.088-.034-.078-.134v-.268c-.001-.051.054-.086.106-.087h.002l2.325-.003q.07-.028.003.111c-.364.756-1.137 2.192-1.137 2.192l-.542-.001s-.273-.021-.273.168c0 .575-.429.57-.429.57H6.909s-.086.017-.083-.084v-.378c-.006-.097.092-.083.092-.083l1.472-.005c.028 0 .076-.009.073-.056-.005-.083-.08-.07-.08-.07s-1.505-.01-2.109-.01c-.025 0-.054-.042-.055-.067l-.001-.324c0-.001.001-.076.066-.072h2.127s.054.004.053-.062c-.001-.067-.053-.071-.053-.071l-2.125.002c-.032 0-.067-.025-.067-.058v-.364c0-.049.025-.066.073-.066h2.102s.05.005.05-.059a.1.1 0 0 0-.051-.088l-.427.001.003.072-.818-.001-.002-.069-.855.002s-.071.006-.074-.072l.002-.272c0-.025.02-.034.046-.034h.8s.056-.035.056-.068-.024-.073-.057-.073l-.71-.001c-.078-.002-.149-.008-.137-.137v-.832c.001-.057.053-.111.109-.112h.745s.042-.005.043-.061c.002-.077-.047-.071-.047-.071s-.652.002-.808.007q-.042.001-.042-.041l.001-.297c-.001-.055.063-.06.063-.06s.53-.006.8 0c.058.001.134-.039.13-.104zm-.106 1.007c.001-.039-.03-.075-.11-.073-.072.002-.106.028-.106.066 0 .034.037.06.109.06.074 0 .106-.033.107-.053m2.376 1.31c.001.05.069.054.069.054h1.211s.053.002.052-.057-.04-.046-.06-.059c-.009-.005-1.139 0-1.139 0s-.134-.018-.133.062m1.06.618v-.012a.06.06 0 0 0-.061-.061l-.905-.002a.06.06 0 0 0-.061.061v.012c0 .034.029.056.063.056h.9c.034 0 .065-.02.065-.054zm-3.427-1.534c-.011-.048-.041-.074-.118-.078-.052-.003-.107.03-.105.075-.001.04.055.06.107.063.1.006.116-.059.116-.059zm1.101-.005s-.024-.073-.114-.073c-.052 0-.121.022-.121.073 0 .039.028.058.123.061.083.003.112-.028.112-.061m2.242.13.054.047q.029.024.059.001l.093-.072a.03.03 0 0 0 .009-.012.033.033 0 0 0-.03-.047h-.339a.04.04 0 0 0-.026.009c-.016.013-.02.034-.009.047q.008.01.022.01l.13.002a.06.06 0 0 1 .038.015zM8.199 13.7s-.024-.071-.121-.069c-.079.002-.106.042-.108.06.001.04.04.077.123.076.059-.001.106-.022.107-.067zm-2.332.849.016.002H3.564q-.046 0-.046.046v.043q0 .046.046.046l1.765-.001c.079 0 .145.066.145.145l-.004 1.22c0 .061-.05.111-.111.112l-1.83.004c-.027 0-.048.037-.048.064 0 .021.009.048.029.055.027.009.066.006.11.007.629.011 1.374 0 2.003.014.093.002.109.067.11.098l.006.382v.001c0 .03-.024.054-.054.055h-.001q-1.398-.004-2.794.001c-.383.001-.467-.096-.455-.536.002-.088-.043-.139-.129-.14l-1.671-.004a.084.084 0 0 1-.083-.084L.551 14.8c0-.054.025-.111.099-.114l.036-.001 1.731.001s.048.005.045-.077c-.002-.071-.045-.074-.057-.075l-2.355.012a.05.05 0 0 1-.049-.049l.006-.821c.001-.118.098-.274.275-.273.74.005 2.125 0 2.125 0s.046.004.041-.084c-.002-.038-.045-.054-.045-.054s-1.184.005-1.796 0c-.018 0-.062-.014-.062-.032v-.421c0-.046.038-.084.084-.084h4.787a.06.06 0 0 1 .059.059v.337c0 .079-.015.141-.094.141H3.552q-.044-.001-.053.04v.046c-.005.027.005.051.032.051.748-.003 1.379-.002 2.143 0 .244.001.254.193.257.254l.001.796c0 .001.012.1-.062.097zm-2.35-.639c-.009.015-.021.446-.003.427.035-.037.233-.238.255-.239l.034-.002h1.101c.035 0 .09.007.093-.065.001-.024.006-.04.002-.076.012-.084-.065-.075-.088-.075-.215 0-1.119-.002-1.345.001a.06.06 0 0 0-.049.029m-2.551.035-.003.364q-.002.067.043.016l.157-.185c.013-.015.036-.044.057-.044.351.001.802-.002 1.175 0 .057 0 .055-.062.056-.098v-.064a.05.05 0 0 0-.046-.054h-.002c-.462-.012-.896-.003-1.356-.007-.032 0-.083.021-.079.072zm1.457 1.239a.025.025 0 0 0-.025-.025H1.393a.025.025 0 0 0-.025.025v.018q.002.023.025.025h1.005a.025.025 0 0 0 .025-.025zm2.164.009a.03.03 0 0 0-.032-.032l-1.001-.002a.03.03 0 0 0-.032.032v.003c0 .017.014.032.032.032l1.001.002a.03.03 0 0 0 .032-.032zm-2.163.39a.02.02 0 0 0-.018-.018l-1.016-.004a.02.02 0 0 0-.018.018v.035q.002.016.018.018l1.016.004q.016-.002.018-.018zm2.162.012a.03.03 0 0 0-.029-.029l-1.008-.002a.03.03 0 0 0-.029.029v.008c0 .016.013.029.029.029l1.008.002a.03.03 0 0 0 .029-.029zm7.131-2.165a.5.5 0 0 1-.143.253l-.731-.009a.036.036 0 0 1-.035-.036v-.336q0-.034-.034-.034l-.755.003c-.018 0-.037.006-.039.024l-.008.32a.064.064 0 0 1-.064.057l-.812.001a.045.045 0 0 1-.045-.044l-.003-.822c0-.029.011-.086.068-.08h2.535s.08.007.081.08l-.016.623zm-2.782 3.944.357-.002a.004.004 0 0 0 .004-.004l-.001-.183q0-.003.004-.004l.154-.002q.003 0 .004.004l.003.512a.004.004 0 0 1-.004.004l-.157-.002a.004.004 0 0 1-.004-.004l.002-.209a.004.004 0 0 0-.004-.004l-.359.005a.004.004 0 0 0-.004.004l.001.211a.004.004 0 0 1-.004.004l-.156-.004a.004.004 0 0 1-.004-.004v-.509q0-.003.004-.004l.151.002q.003 0 .004.004l.004.181q0 .004.004.004zm-.275.207a.12.12 0 0 1-.118.119l-.442.002a.12.12 0 0 1-.119-.118l-.001-.278c0-.065.053-.118.118-.118l.442-.002a.12.12 0 0 1 .119.118l.001.278zm-.164-.277a.01.01 0 0 0-.01-.01l-.34.002a.01.01 0 0 0-.01.01l.002.279q.001.009.01.01l.34-.002a.01.01 0 0 0 .01-.01zm-3.777.213.001.19q0 .008-.008.008H4.57q-.009 0-.009-.009l-.001-.502q0-.005.005-.005l.15-.001q.005 0 .005.005l.002.15q0 .02.018.01l.295-.155c.01-.005.035-.013.035-.013s.154-.006.212-.004q.035.002.003.015-.014.006-.045.022-.196.102-.391.207-.006.003 0 .007l.455.265.001.002-.002.002-.22.001-.013-.003-.342-.197q-.008-.005-.008.004zm2.184-.204-.153.386q-.001.003-.004.003l-.233.002q-.003 0-.004-.003l-.163-.4q-.001-.003-.004-.003-.004 0-.004.004l.004.396a.004.004 0 0 1-.004.004h-.156a.004.004 0 0 1-.004-.004v-.504q0-.003.004-.004h.285q.003 0 .004.003l.152.395q.001.003.004.003t.004-.003l.165-.395q.001-.003.004-.003h.269q.003 0 .004.004l.004.503a.004.004 0 0 1-.004.004l-.158-.003a.004.004 0 0 1-.004-.004l.001-.381q0-.003-.004-.004-.004 0-.004.003zm.44.209.004.174q0 .007-.007.007h-.151q-.007 0-.007-.007v-.328c0-.135.03-.175.163-.177a8 8 0 0 1 .4 0q.13.006.13.141l-.002.365a.01.01 0 0 1-.006.006h-.151q-.006 0-.006-.006l.001-.176q0-.007-.006-.007h-.354q-.008 0-.008.008m.368-.219q0-.003-.003-.003H7.35q-.003 0-.003.003v.099q0 .003.003.003h.358q.003 0 .003-.003zm-2.14-.084v.467a.024.024 0 0 1-.024.024h-.108a.024.024 0 0 1-.024-.024v-.467c0-.013.011-.024.024-.024h.108c.013 0 .024.011.024.024m-1.646.1v.061q0 .01.01.01l.507-.001q.008 0 .008.008v.094q0 .009-.008.009l-.511.002q-.006 0-.006.006l.001.089q.001.007.008.008l.511-.002q.007.001.008.008l-.004.099q0 .006-.006.006h-.492c-.08 0-.186-.016-.188-.116a9 9 0 0 1-.002-.287c0-.084.084-.111.154-.111q.264.001.528-.001.007 0 .007.007v.093q0 .006-.006.006l-.513.007q-.006 0-.006.006zm-2.386.003v.06q0 .01.01.01h.506a.01.01 0 0 1 .01.01v.09q0 .008-.008.008l-.506.001q-.01 0-.011.011v.091q0 .006.006.006h.509q.01 0 .01.01v.089q0 .007-.006.007h-.517c-.118 0-.168-.027-.168-.148q0-.12.002-.239c.002-.103.091-.122.173-.122l.509-.001q.008 0 .008.007v.09q0 .007-.007.007l-.508.002q-.01 0-.01.01zm.792.394H2.18a.01.01 0 0 1-.006-.006l-.004-.502q0-.005.005-.005l.212.002.004.002.278.301.004.002q.005 0 .005-.005l.007-.295q0-.005.006-.005h.158q.005 0 .006.006l.004.501q0 .005-.005.006h-.152l-.004-.002-.351-.369-.004-.002a.01.01 0 0 0-.006.006l-.002.361q0 .005-.005.006zm.797-.391v.275q0 .005.006.006h.347q.008 0 .008-.008l.003-.091q0-.007-.006-.007h-.172q-.005 0-.005-.005v-.097q0-.006.007-.007h.33q.006 0 .007.007v.311q0 .005-.005.005l-.53.001c-.103 0-.154-.045-.154-.149v-.224c-.001-.089.042-.138.134-.139q.366-.003.548-.001.006 0 .006.006l.002.096q0 .007-.007.007H3.14q-.013 0-.013.013zm-2.556-.113q0-.003.003-.003l.548.001c.079 0 .145.057.145.126v.262c0 .069-.066.126-.145.125l-.548-.001q-.003 0-.003-.003l.001-.508zm.531.118a.02.02 0 0 0-.018-.018l-.332.002a.02.02 0 0 0-.018.018l.001.263q.002.017.018.018l.332-.002q.016-.002.018-.018zm4.965.067v.069q-.002.017-.018.018h-.351a.02.02 0 0 1-.018-.018v-.069q.001-.017.018-.018h.351q.016.002.018.018"/></svg>