<svg xmlns="http://www.w3.org/2000/svg" width="100%" height="100%" viewBox="0 0 24 24"><path fill="currentColor" d="M14.782 8.297s.454-.017.588-.017c.208 0 .66.017.66.017 3.159.153 6.527 1.441 8.423 4.089.01.014.029.02.046.013a2 2 0 0 0 .493-.297q.024-.02.038.008c.799 1.735 2.725 1.815 4.382 1.903a.02.02 0 0 1 .02.019q.003.043-.029.022a.1.1 0 0 0-.038-.011q-12.82.038-25.641.07c-1.182.003-2.427.021-3.518.011q-.011 0-.018-.013-.004-.01.006-.01l5.279-.137a.04.04 0 0 0 .032-.022c1.477-3.714 5.548-5.452 9.278-5.644zm9.064 4.284c-2.308-2.414-5.695-3.448-8.974-3.189-2.903.23-5.917 1.629-7.121 4.453l-.003.015a.04.04 0 0 0 .039.039h.001c4.073-.103 8.161-.241 12.22-.625 1.328-.125 2.632-.317 3.82-.631a.04.04 0 0 0 .028-.037.04.04 0 0 0-.011-.026zm-12.406-.994q.015 0 .036.012l.126.058c.035.015.051.025.03.082l-.006.014c-.026.057-.075.164-.117.283l-.043.111c-.081.201-.182.452-.035.583.045.041.08.059.097.066v.055a1 1 0 0 0-.165-.011c-.269 0-.516.091-.624.18l-.038-.071c.037-.025.159-.11.237-.209.123-.156.239-.493.316-.717.026-.075.048-.14.064-.178l.092-.225.001-.003c.009-.025.022-.028.031-.028zm3.664.693h.025v.013h.347v-.013h.025l.008.125h-.022c-.011-.047-.035-.077-.099-.077h-.019v.443h.049v.025h-.234v-.025h.05v-.443h-.018c-.064 0-.088.03-.099.077h-.022zm1.743-.003q.056 0 .131.05l.01.007.024-.016.013.019-.141.09-.012-.019a.1.1 0 0 0 .007-.03c0-.041-.036-.063-.072-.063-.046 0-.123.024-.123.184 0 .156.077.242.216.242h.018v-.209h-.094v-.025h.196q.016 0 .029-.007l.005.01a.06.06 0 0 0-.018.047v.234h-.014l-.04-.061-.016.011a.3.3 0 0 1-.181.062c-.143 0-.236-.096-.236-.243a.29.29 0 0 1 .297-.286zm-1.156.01v.014l-.029.01v.209l.03-.026c.046-.039.078-.063.132-.063.077 0 .088.057.088.091v.262h.028v.011h-.167v-.011h.03v-.221q0-.074-.068-.074-.04.001-.071.041l-.004.005v.249h.031v.011h-.168v-.011h.029v-.442l-.028.01v-.009l.165-.057zm2.257 0v.014l-.029.01v.209l.03-.026c.046-.039.078-.063.131-.063.077 0 .088.057.088.091v.262h.028v.011h-.167v-.011h.03v-.221q0-.074-.067-.074-.04.001-.071.041l-.003.005v.249h.031v.011h-.168v-.011h.029v-.442l-.028.009v-.009l.165-.057zm1.098.062c.052 0 .052.021.052.031 0 .04-.062.049-.084.049q-.035 0-.035-.031c0-.026.042-.05.067-.05zm-1.405-.006.015.003-.003.047v.05h.067l-.005.025h-.062v.247c0 .033.026.05.051.05a.1.1 0 0 0 .031-.007l.003.005a.2.2 0 0 1-.112.044c-.058 0-.081-.024-.081-.086v-.253h-.039v-.011a.23.23 0 0 0 .134-.113zm2.319.029h.007l-.007.033-.016-.003c-.019 0-.033.015-.033.036 0 .013.01.021.022.032.021.018.052.044.052.101 0 .106-.095.13-.186.154l-.024.008v.031l.016.002c.059.006.181.02.181.092s-.107.088-.144.088q-.122 0-.123-.061c0-.028.035-.047.061-.05l.016-.004v-.033l-.027-.002q-.036-.004-.062-.004l-.028.001-.021-.02a1 1 0 0 0 .119-.036l.012-.006v-.029l-.016-.002c-.055-.008-.12-.045-.12-.122 0-.107.085-.145.158-.145q.042.001.066.007l.018.003.016.002.014-.045c.006-.019.011-.028.049-.028m-.17.074c-.06 0-.06.054-.06.072 0 .046.025.181.102.181.06 0 .06-.054.06-.071 0-.046-.025-.181-.102-.181zm.018.359-.01.015a.1.1 0 0 0-.017.064c0 .03.018.06.051.06q.047-.002.049-.048c0-.046-.028-.063-.055-.08l-.002-.001zm-3.65-.372q.124 0 .171.137l-.226.083.007.018a.12.12 0 0 0 .117.081.14.14 0 0 0 .096-.034l.006.007a.22.22 0 0 1-.173.084c-.108 0-.175-.073-.175-.191 0-.103.078-.184.176-.184zm-.025.023c-.039 0-.062.028-.062.076q.001.037.01.061l.004.016.005.021.122-.046.016-.008-.005-.017c-.012-.036-.034-.103-.089-.103zm2.961-.017v.347h.026v.011h-.164v-.011h.03v-.305l-.028.006v-.009zm-1.913-.023.013.004-.014.043.038-.016a.2.2 0 0 1 .089-.017q.13 0 .129.113v.24h.025v.011h-.126l-.012-.052-.023.02c-.026.022-.058.045-.1.045-.064 0-.108-.041-.108-.102 0-.075.044-.126.109-.126h.127v-.038c0-.043-.027-.071-.071-.071-.049 0-.074.031-.094.057l-.019-.007zm.104.173a.084.084 0 0 0-.087.087c0 .076.046.084.066.084.028 0 .062-.013.062-.076v-.094h-.042zm1.128-.156q.125 0 .171.137l-.226.083.007.018q.034.08.117.081a.14.14 0 0 0 .096-.034l.006.007a.22.22 0 0 1-.173.083c-.108 0-.175-.073-.175-.191 0-.103.077-.184.176-.184zm-.025.023c-.039 0-.062.028-.062.076q.001.037.01.061l.004.016.004.021.122-.046.016-.008-.005-.017c-.012-.036-.034-.103-.089-.103m.445-.026a.1.1 0 0 1 .05.014l.015.008.011-.018.012.004-.035.098a.2.2 0 0 0-.053-.012.08.08 0 0 0-.068.038l-.003.005v.216h.039v.011h-.174v-.011h.027v-.318l-.025.01v-.007l.122-.033v.069l.002.019h.031l.004-.012.004-.014c.007-.022.021-.067.04-.067zm.645.003q.097 0 .096.094v.259h.027v.011h-.165v-.011h.03v-.242c0-.031-.025-.053-.06-.053s-.058.021-.077.037l-.006.006v.252h.031v.011h-.167v-.011h.028v-.31l-.028.008v-.008l.137-.037v.04l.002.036.03-.023c.038-.03.074-.059.122-.059m.372-1.905a3 3 0 0 1 .045.167 1 1 0 0 0-.174.356l-.058-.015c-.038-.253-.138-.304-.333-.317-.166-.011-.357.222-.371.451-.008.124-.003.281.102.393q.128.136.414.136.05 0 .106-.004a2.2 2.2 0 0 0 .601-.108l-.08.133c-.216.092-.701.226-.943.214-.418-.018-.657-.417-.646-.791a.597.597 0 0 1 .601-.596c.123 0 .187.017.249.033.05.013.102.026.184.031a.47.47 0 0 0 .304-.083zm-1.47.038.018.051c-.192.066-.207.299-.207.595q-.001.07-.008.133c-.015.171-.028.32.229.536l-.032.037a.5.5 0 0 0-.206-.039c-.201 0-.419.083-.503.189l-.024-.053c.126-.123.208-.413.208-.744l.002-.058c.008-.159.021-.454-.246-.557l.026-.05a2.687 2.687 0 0 0 .742-.04zm-1.057.032c.02.07.04.143.044.163a1 1 0 0 0-.17.348l-.056-.015c-.037-.245-.185-.286-.373-.314a.3.3 0 0 0-.052-.004c-.219 0-.38.216-.392.419-.006.093-.004.324.126.463q.135.141.388.098c.212-.037.228-.119.225-.152-.006-.072-.107-.129-.217-.121l.019-.052c.073-.025.311-.044.475-.044.077 0 .134.004.16.011l.049.082c-.321.058-.293.368-.279.519l.003.037-.078-.021c-.037-.081-.158-.152-.254-.146-.112.009-.193.03-.264.049s-.13.034-.196.029c-.315-.025-.615-.395-.605-.748.016-.558.44-.602.569-.602h.009c.122.002.229.023.333.044.082.016.16.032.239.037a.47.47 0 0 0 .298-.081zm-2.904 0c.084.024.367.072.616.072a.9.9 0 0 0 .315-.044l.129.103c.103.495.239.841.452 1.155-.005.009-.018.025-.03.041a1 1 0 0 0-.35-.07c-.108 0-.195.024-.248.069l-.06-.07c.014-.018.037-.06.03-.145a2.9 2.9 0 0 0-.233-.741l-.003-.004c-.074-.058-.582-.246-.688-.285l.069-.083zm-2.961.054.742.02c.008.072.062.15.14.265l.076.113c.05.075.094.154.138.229.075.131.145.255.231.342q.005.004.01.004.007 0 .01-.005a1 1 0 0 1 .137-.129q.024-.022.046-.022c.026 0 .043.022.044.024l.087.098c.027.027.025.053-.007.089a.56.56 0 0 0-.07.505q.016.05.048.131c.046.12.108.283.138.427-.185.044-.415.301-.472.402l-.115-.064c.012-.046.037-.23-.121-.757-.213-.709-.511-.995-.579-1.032a.1.1 0 0 0-.05-.016c-.03 0-.048.02-.064.037l-.004.004c-.03.032-.055.092-.07.128l-.003.008c-.013.033-.025.04-.04.04a.1.1 0 0 1-.039-.01l-.125-.059q-.036-.017-.043-.033c-.007-.016.002-.03.019-.06.003-.008.079-.2.108-.316.022-.085.032-.148-.029-.187a.8.8 0 0 0-.227-.068l.084-.109zm2.774 1.097a.4.4 0 0 1 .104-.282c.092-.116.153-.261.188-.363a.05.05 0 0 1 .042-.032h.022a.6.6 0 0 1 .111.057c.013.009.033.029.019.068-.011.057-.038.109-.064.16-.023.045-.045.087-.057.132q-.002.01.006.015.01.006.016 0a.43.43 0 0 1 .25-.101h.008q.037 0 .05.026c.024.044.025.052.035.114q.008.047-.029.061c-.094.034-.133.133-.198.298l-.009.023a1 1 0 0 0-.128-.009q-.102.002-.182.011-.056.005-.091.006h-.012c.073.169.135.328.156.416l.01.043c.023.096.035.149.101.219.044.05.11.092.173.132s.12.078.156.119l-.03.071a2 2 0 0 0-.599-.093c-.249 0-.451.05-.573.14l-.076-.082c.26-.22.324-.304.284-.455-.052-.192-.252-.6-.359-.819l-.043-.089c-.033-.068-.077-.083-.109-.083a.14.14 0 0 0-.065.018c-.042.028-.052.028-.081-.001-.055-.059-.078-.085-.089-.095l-.002-.003s-.02-.018-.02-.042q0-.021.022-.041c.028-.026.103-.096.208-.297.026-.049.008-.104-.048-.156a2 2 0 0 0-.251-.142l.062-.097c.068.024.232.048.384.048a.8.8 0 0 0 .284-.042l.085.046c-.062.169-.01.435.134.683.045.078.125.24.204.416zm-2.887-2.176a1 1 0 0 0-.122.037c-2.151.817-4.055 2.126-5.027 4.288l-.003.013c0 .017.014.032.032.032l.786-.019a.08.08 0 0 0 .07-.052c.685-1.976 2.318-3.467 4.258-4.261a1 1 0 0 1 .098-.034.02.02 0 0 0 .016-.022.023.023 0 0 0-.023-.023h-.003a.1.1 0 0 0-.051.022.05.05 0 0 1-.033.018zm-9.079 7.095h-.459q-.033 0-.019-.029l.281-.625a.05.05 0 0 1 .043-.027h1.807q.047 0 .029.044-.414.988-1.326 1.414c-.592.276-1.284.408-1.914.229q-.657-.187-.704-.748c-.053-.648.492-1.329 1.024-1.687q.669-.449 1.476-.512c.479-.037 1.403.109 1.522.711q.006.029-.023.036l-1.25.351q-.029.009-.041-.019c-.108-.258-.472-.216-.684-.135q-.588.225-.739.79-.064.238.089.373c.246.217.676.081.909-.101q.08-.063-.022-.063zm5.874.705-.227.314a.05.05 0 0 1-.046.023H5.322a.07.07 0 0 1-.065-.057l-.108-.867-.004-.011a.024.024 0 0 0-.033-.006l-.008.01-.398.882a.08.08 0 0 1-.076.049H3.539q-.042 0-.024-.038l1.294-2.882a.04.04 0 0 1 .04-.026q.747-.006 1.502.002c.5.005 1.195.179.957.871q-.258.75-1.038.895a.04.04 0 0 0-.034.041q0 .022.018.034c.162.116.313.791.393 1.006q.015.04.044.008l2.406-2.837a.06.06 0 0 1 .048-.022h1.289q.034 0 .033.035l-.113 2.873q-.002.04-.041.04H9.112q-.05 0-.043-.049l.041-.281q.005-.031-.027-.031h-.894a.05.05 0 0 0-.046.024zm-2.146-1.788-.283-.035q-.045-.006-.065.036l-.202.442q-.014.032.019.036c.28.046.573-.05.616-.368l.001-.013a.1.1 0 0 0-.087-.098zm3.382.173v-.004a.023.023 0 0 0-.023-.023.03.03 0 0 0-.019.009l-.619.878a.02.02 0 0 0-.004.013q.002.021.023.023h.448a.024.024 0 0 0 .023-.019zm2.917.397-.006-.002q-.01 0-.012.009a9.6 9.6 0 0 1-.637 1.523.05.05 0 0 1-.043.026h-1.077q-.04 0-.023-.036l1.296-2.885a.04.04 0 0 1 .041-.027h1.111q.03 0 .037.029l.361 1.585c.003.016.017.027.033.027s.03-.012.033-.028c.117-.557.38-1.07.613-1.582q.014-.031.048-.031h1.084q.042 0 .024.038l-1.29 2.877a.05.05 0 0 1-.052.033h-1.102q-.035 0-.042-.033l-.365-1.478a.07.07 0 0 0-.033-.046zm3.244-1.381a.01.01 0 0 1 .011-.007c.744-.01 3.058-.276 2.685 1.178-.214.833-.951 1.455-1.757 1.67-.616.164-1.507.101-2.214.095q-.043 0-.026-.04l1.301-2.895zm.8.925-.495 1.103q-.012.027.018.029c.496.037.966-.208 1.092-.709.103-.403-.317-.471-.597-.438a.02.02 0 0 0-.018.014zm3.93-.926a.01.01 0 0 1 .012-.008q.826-.006 1.656.002c.565.006 1.105.342.815.989q-.398.888-1.323 1.04c-.255.042-.591.023-.885.026a.04.04 0 0 0-.04.026l-.377.837a.04.04 0 0 1-.042.027h-1.106a.02.02 0 0 1-.022-.022l.002-.009 1.308-2.908zm.818.789-.217.481q-.014.03.019.034c.278.036.663-.034.693-.366a.12.12 0 0 0-.107-.128l-.366-.035q-.016-.001-.023.014zm2.747 1.221-.004-.011c-.007-.01-.022-.012-.032-.005a.02.02 0 0 0-.007.009l-.413.913q-.01.021-.034.022h-1.123q-.04 0-.023-.036l1.296-2.887a.04.04 0 0 1 .04-.026l1.452.002c.533.001 1.247.157.997.897q-.234.694-1.021.877a.04.04 0 0 0-.031.04.04.04 0 0 0 .012.029c.185.182.321.809.4 1.075q.008.03-.022.029h-1.345q-.026 0-.028-.025l-.112-.903zm.49-1.191-.192.432q-.012.027.017.032c.562.115.924-.585.222-.499a.06.06 0 0 0-.047.035m2.529-.829h1.174q.017.002.018.018l-.002.007-1.307 2.912q-.005.01-.016.011h-1.175a.02.02 0 0 1-.018-.018l.002-.007 1.308-2.912q.005-.01.016-.011m2.94.654q.002.005.007.006l.005-.002.631-.64a.06.06 0 0 1 .043-.018h1.265q.074 0 .017.047l-1.592 1.309q-.024.02-.014.049l.482 1.514q.009.029-.021.029h-1.326a.04.04 0 0 1-.04-.034l-.116-.758q-.002-.013-.012-.004l-.826.776a.07.07 0 0 1-.051.021h-1.294q-.047 0-.011-.03l1.823-1.513q.022-.019.013-.047l-.424-1.318q-.013-.04.029-.04h1.301q.036 0 .041.037l.071.617zm-13.488 8.287c-.605.037-1.818 0-1.818 0-2.953-.204-5.808-1.341-7.786-3.586q-.04-.046-.092-.013l-.424.264q-.02.012-.031-.007c-.428-.76-.891-1.26-1.748-1.523-.865-.266-1.813-.327-2.711-.379q-.012 0-.013-.01l.001-.005.003-.007 30.309-.081q.012 0 .006.01-.01.013-.02.013c-5.344.127-10.692.239-16.032.502-2.346.116-4.704.285-7.029.632a.03.03 0 0 0-.023.027.03.03 0 0 0 .006.018c3.012 3.521 8.68 4.396 12.794 2.5.05-.023.142-.09.219-.115l.004-.001q.013.001.014.014 0 .007-.007.012c-1.697 1.04-3.882 1.633-5.621 1.738zm-4.428-1.171c-1.419-.653-2.715-1.614-3.677-2.851a.06.06 0 0 0-.069-.024l-.774.184q-.059.014-.017.058c1.338 1.42 3.022 2.323 4.9 2.818q.004.001.004-.002l.004-.014q.006-.02-.014-.027a4 4 0 0 1-.358-.142z"/></svg>