<svg xmlns="http://www.w3.org/2000/svg" width="17" height="32"><path fill="currentColor" d="M.963 8.517c-.365.018-.839-.023-.939 1.076-.115 1.269.214 3.525.271 4.715.039.807.072 1.855.073 2.424.001.331-.017.951.022 1.28.056.478.174.962.315 1.586.181.804.495 2.153.686 2.951.147.614.222 1.077.356 1.489.075.23.379.755.447.987.097.335.203.907.241 1.369.059.707.112 2.871.112 2.871l7.433.099s.195-1.819.645-2.584c.505-.858 1.736-1.744 2.383-2.565.576-.731 1.094-1.585 1.497-2.358.378-.725.605-1.52.918-2.276.358-.866.997-2.342 1.23-2.922.073-.181.175-.364.172-.559-.007-.345-.22-1.011-.212-1.511s.113-.871.189-1.219c.045-.206.279-.658.266-.868-.028-.441-.397-.703-.665-.784s-.714.061-.943.298c-.378.392-1.089 1.375-1.325 2.056-.221.639-.149 1.33-.306 1.777-.118.338-.45.654-.632.909-.175.246-.159.67-.245.873-.057.134-.144.329-.272.342s-.45-.082-.498-.264c-.139-.528-.268-1.94-.337-2.904-.069-.957-.065-1.918-.08-2.878-.016-.996.032-2.066-.017-3.097a55 55 0 0 0-.298-3.512c-.065-.515-.167-1.224-.34-1.519-.125-.214-.453-.271-.699-.251-.742.063-.89.584-.989.964-.127.487-.081 1.205-.116 1.845-.036.664-.098 1.559-.128 2.248-.046 1.064-.057 3.365-.15 4.139-.018.146-.191.34-.303.322s-.345-.243-.369-.431c-.086-.671-.125-2.434-.228-3.629-.107-1.24-.275-2.36-.413-3.398-.112-.843-.268-2.19-.572-2.613-.181-.252-.69-.424-.952-.342s-.636.229-.748.653c-.134.504-.213 1.644-.169 2.411.092 1.601.43 6.008.486 7.306.007.168-.071.467-.15.481s-.302-.229-.325-.399c-.094-.695-.258-2.608-.361-3.864a21.3 21.3 0 0 0-.563-3.508c-.175-.729-.667-.693-.857-.676s-.707.326-.77.553c-.149.538-.079 1.728-.124 2.673-.048.996.029 1.956.099 2.999.07 1.039.282 2.687.324 3.258.009.119-.083.317-.142.329s-.191-.146-.211-.255c-.175-.937-.548-4.362-.84-5.37-.105-.362-.566-.746-.874-.731z"/></svg>