<svg xmlns="http://www.w3.org/2000/svg" width="27" height="32"><path fill="currentColor" d="M24.238 7.359a13.6 13.6 0 0 1 3.069 8.629c0 7.542-6.118 13.666-13.653 13.666S.001 23.531.001 15.988a13.6 13.6 0 0 1 3.05-8.605l6.423 8.213q-.018.194-.018.392c0 2.319 1.881 4.203 4.199 4.203a4.2 4.2 0 0 0 4.177-4.637L24.24 7.36zM4.338 6a13.7 13.7 0 0 1 3.698-2.47l3.001 9.171a4.2 4.2 0 0 0-1.155 1.436L4.337 5.999zm5.516-3.141a13.5 13.5 0 0 1 2.97-.512l.349 9.466q-.547.065-1.043.258zm4.639-.512c.995.06 1.962.228 2.889.491l-2.223 9.225a4.2 4.2 0 0 0-.992-.247zm4.768 1.179a13.7 13.7 0 0 1 3.666 2.436l-5.532 8.119a4.2 4.2 0 0 0-1.176-1.419z"/></svg>