<svg xmlns="http://www.w3.org/2000/svg" width="28" height="32" viewBox="0 0 28 32"><path fill="currentColor" d="M9.448 4.148a7.44 7.44 0 0 1 4.418.194 7.46 7.46 0 0 1 4.764-.096c2.576.788 4.764 2.781 5.765 5.286.896 2.267 1.088 4.794.673 7.188 1.216.764 2.37 1.87 2.616 3.348.352 2.229-1.192 4.459-3.285 5.17.087-.52.128-1.088-.134-1.565-.153-.305-.591-.461-.871-.226-.712.453-1.294 1.077-1.971 1.578-2.156 1.721-4.81 2.833-7.564 3.072-2.596-.235-5.113-1.231-7.192-2.801-.703-.509-1.339-1.104-2.018-1.643-.286-.229-.703-.485-1.028-.169-.443.461-.377 1.172-.287 1.757C2.065 24.778.97 23.824.425 22.58c-.534-1.129-.598-2.517.009-3.63.493-.958 1.346-1.655 2.233-2.233-.431-2.481-.212-5.108.779-7.434C4.535 6.785 6.813 4.835 9.45 4.147zM9.35 5.244c-2.342.739-4.309 2.599-5.139 4.916-.673 1.856-.833 3.881-.591 5.833.153 1.655.849 3.239 1.915 4.508-.419-.649-.798-1.354-.859-2.139-.112-.905.209-1.811.752-2.529-.568-.809-1.006-1.74-1.054-2.74-.194-1.962.512-4.19 2.267-5.257.808-.527 1.795-.625 2.735-.559 1.709.161 3.327.989 4.489 2.247 1.161-1.26 2.781-2.085 4.49-2.247.94-.07 1.926.037 2.735.562 1.677 1.017 2.393 3.11 2.286 4.993-.015 1.091-.449 2.122-1.076 2.998.542.719.864 1.622.752 2.529-.054.793-.452 1.495-.862 2.155a9 9 0 0 0 1.57-2.802c.346-1.068.411-2.198.467-3.31-.025-1.568-.234-3.158-.854-4.611-.915-2.208-2.88-3.933-5.17-4.6-1.299-.366-2.746-.395-3.999.152q-.174.047-.342.108a5 5 0 0 0-.336-.112c-1.314-.564-2.829-.513-4.177-.094zM7.562 8.357c-1.039.399-1.788 1.35-2.122 2.391-.383 1.195-.418 2.527.019 3.714.371 1.146 1.137 2.106 1.934 2.989-.481-.243-.899-.584-1.329-.905-.223.024-.29.325-.404.488-.55 1.042-.229 2.299.364 3.247 1.06 1.707 2.78 2.821 4.428 3.892-.279-.099-.551-.215-.83-.313-2.816-1.176-5.436-3.228-6.558-6.148-.874.549-1.691 1.335-1.925 2.375-.245 1.178.255 2.394 1.079 3.231l.177.053c.342-.657 1.042-1.203 1.82-1.073.878.193 1.477.927 2.16 1.454 2.09 1.822 4.726 3.06 7.5 3.302 2.735-.246 5.336-1.454 7.408-3.241.709-.546 1.325-1.309 2.234-1.515.802-.139 1.502.449 1.855 1.12.976-.822 1.5-2.189 1.194-3.444-.271-.987-1.059-1.733-1.901-2.263-1.235 3.187-4.217 5.366-7.37 6.431.625-.419 1.284-.789 1.878-1.253 1.326-1.014 2.658-2.255 3.092-3.927.252-.855-.011-1.762-.516-2.471-.407.291-.804.598-1.203.899-.073.061-.42.061-.233-.079 1.035-.756 1.664-1.96 2.069-3.154l-.005-.015a5.84 5.84 0 0 0-.197-3.685C21.795 9.47 21 8.609 19.971 8.29c-.791-.247-1.634-.115-2.422.07l.067.026c-1.581.304-2.924 1.391-3.753 2.748-.401-.571-.801-1.161-1.36-1.589-.653-.547-1.436-.908-2.243-1.161-.874-.229-1.835-.366-2.699-.026zm10.345 4.178a6.6 6.6 0 0 1 1.913.091c-.401.43-.136 1.052-.383 1.544-.29.677-1.006 1.126-1.738 1.125-.516.021-1.137-.248-1.519.238-.086-.78-.329-1.63.005-2.381.381-.541 1.134-.518 1.722-.617m-5.039 7.607c.32-.324.428-1.011.997-.966.568-.049.677.644.999.965.243.14.509-.058.753-.098a9.75 9.75 0 0 1-1.752 4.554c-.966-1.328-1.564-2.924-1.754-4.553.245.041.512.234.756.098zm-4.984-7.507c.932-.193 1.901-.159 2.829.037.378.079.806.256.913.669.201.719.009 1.47-.074 2.194-.346-.447-.912-.258-1.389-.241-.715.048-1.441-.33-1.787-.962-.256-.408-.215-.908-.237-1.369a21 21 0 0 1-.255-.328"/></svg>