<svg xmlns="http://www.w3.org/2000/svg" width="100%" height="100%" viewBox="0 0 24 24"><path fill="currentColor" d="m3.357 14.213-.442.328h-.336q-.56 0-1.027-.188c-.467-.188-.584-.308-.816-.548a2.5 2.5 0 0 1-.544-.927A4 4 0 0 1 0 11.595q0-.656.216-1.211.215-.56.584-.935.372-.38.863-.588.497-.212 1.047-.212 1.227 0 1.931.704l-.907 1.259-.024-.024q.024-.216.024-.36 0-.46-.248-.752-.244-.296-.736-.296-.64 0-1.019.608c-.379.608-.38.981-.38 1.727q0 1.275.356 1.887.356.608 1.119.608.14 0 .274-.02l-1.278-1.114 1.771.754v-.652q0-.56-.26-.871-.26-.316-.756-.48v-.032H4.74v2.523l.686.292.212-.131-.456-3.042.665 1.33V9.696h1.015v-.032l-1.467-.899v-.036h2.287q.34 0 .648.056.311.052.584.172.276.12.472.292.2.172.316.428.116.252.116.56 0 .528-.308.912c-.308.384-.482.433-.832.532l.828 1.464a24 24 0 0 1 2.179-.737l1.624-3.921h.036l1.329 3.31a14 14 0 0 1 2.233-.088V9.355l-.204-.312-.412-.276v-.036h1.579l2.195 3.146h.036V9.79q0-.235-.028-.396a1 1 0 0 0-.076-.268.4.4 0 0 0-.144-.172.7.7 0 0 0-.2-.108 2 2 0 0 0-.284-.08V8.73h1.875v.036l-.448.276v3.231q.802.208 1.564.48V9.697h1.015v-.032l-1.467-.899V8.73h2.251q.831 0 1.447.36.62.36.943 1.007.328.647.328 1.499 0 1.368-.724 2.119a2.3 2.3 0 0 1-.7.495 16.2 16.2 0 0 1 2.615 1.935h.344l.471.804q.43.457.805.939l.606-.883a.74.74 0 0 0 .148-.44q0-.152-.092-.256c-.092-.104-.156-.112-.284-.128v-.036h1.835v.036l-.452.276-1.363 1.969c.707 1.009 1.234 2.079 1.55 3.17l.361.25v.032h-1.635l-1.223-2.079-.844 1.219a.77.77 0 0 0-.144.444q0 .332.376.384v.032h-1.835v-.032l.452-.28 1.635-2.375-1.603-2.734-.404-.276v-.036h.984a15 15 0 0 0-2.606-1.82 3.4 3.4 0 0 1-.992.138h-2.251v-.032l.452-.28v-1.012q-.748-.233-1.564-.401v2.1h-.036l-1.656-2.355a19 19 0 0 0-1.502-.088v1.011q0 .296.032.476a.6.6 0 0 0 .352.448q.12.048.344.1v.032h-1.875v-.032l.452-.28v-1.753c-.67.017-1.312.084-1.918.184l.63 1.57.408.28v.032h-1.595l-.613-1.64-.224.057-.49.316h-.561q-.294.1-.563.203l-.031.073a1.2 1.2 0 0 0-.088.42q0 .403.436.54v.032H10.55v-.032l.412-.28.166-.4c-.405.181-.742.353-1.001.494l.21.372 2.793.064-2.43.578q.348.603.812.8l-.008.028a.6.6 0 0 1-.148.016q-.304 0-.688-.172a4 4 0 0 1-.779-.48l-1.593.378 2.949 3.113-3.769-2.13.902 4.261-1.967-3.604-2.622 4.753 1.556-5.326-5.327 1.229 4.532-2.229a1.96 1.96 0 0 0-.958-.651v-.821l-.237-.207zm2.19.248.127.054-.008-.054zm1.544-.759.685-1.265-.553-1.054v-.032h.236q.564 0 .804-.276.244-.28.244-.8 0-.475-.28-.724-.276-.248-.907-.248h-.244v4.182q0 .115.016.216zm1.096-.482-.136.557s.121-.061.343-.163l-.015-.029zm-3.446 2.579.277-.136-.277-.242zm8.767-3.826-.435-1.182h-.032l-.574 1.407a19 19 0 0 1 1.041-.225m5.156-.118-1.029-1.463h-.032v1.353q.536.04 1.061.11m6.072 1.947a1.1 1.1 0 0 0 .456-.448q.336-.58.336-1.759 0-1.223-.332-1.775-.331-.555-1.035-.556h-.572v3.978q.588.261 1.147.559zm4.851 4.235q-.105-.13-.215-.26l.181.309zm2.049 3.555c-.229-.728-.761-1.834-1.643-3.029l-.088.128 1.703 2.882.028.02zm-8.047-8.014v.352h.572q.104 0 .198-.013-.374-.178-.77-.339m-9.252 2.602v-.036h2.287q.96 0 1.527.42c.567.42.568.684.568 1.211q0 .408-.172.744a1.5 1.5 0 0 1-.452.548 2.3 2.3 0 0 1-.636.324 2.3 2.3 0 0 1-.724.112h-.032l-.688-.444v3.678h-.032a2.2 2.2 0 0 0-.5-.508 2.1 2.1 0 0 0-.696-.352v-4.765h1.015v-.032l-1.467-.899zm1.679 2.75h.376q1.015 0 1.015-1.107 0-.576-.268-.84c-.268-.264-.472-.264-.88-.264h-.244zm2.994 2.946v-.032l.452-.28v-4.453h1.015v-.032l-1.467-.899v-.036h2.287q.34 0 .648.056.311.052.584.172.276.12.472.292.2.172.316.428.116.252.116.56 0 .528-.308.911c-.308.383-.482.433-.831.532l2.023 3.578q.347.603.812.8l-.008.028a.6.6 0 0 1-.148.016q-.304 0-.688-.172a4 4 0 0 1-.784-.484 5 5 0 0 1-.803-.796 6 6 0 0 1-.704-1.063l-1.155-2.203v-.032h.236q.564 0 .803-.276.244-.28.244-.8 0-.475-.28-.724-.276-.248-.907-.248h-.244v4.182q0 .192.044.348c.044.156.067.188.112.252a.83.83 0 0 0 .348.28q.089.036.192.064v.032h-2.375zm5.067-5.696v-.036h2.131v.036l-.452.276v6.28h-.032a2.2 2.2 0 0 0-.5-.508 2.1 2.1 0 0 0-.696-.352v-5.421l-.452-.276z"/></svg>