<svg xmlns="http://www.w3.org/2000/svg" width="100%" height="100%" viewBox="0 0 24 24"><path fill="currentColor" d="M25.282 14.622c.005-1.094-.373-4.789-6.195-4.613-3.024.091-6.64 1.714-7.478 2.337-1.255-.222-1.954.159-1.954.159s-1.103-.458-2.588-.4c2.98-2.979 7.241-4.665 9.775-5.308 1.298-.33 3.287-.618 4.697-.37 4.522.797 5.226 3.563 4.221 7.216-.106.386-.234.806-.352 1.016a.1.1 0 0 1 .008.036l.015 1.599 1.678.198a.088.088 0 0 1 .031.165l-2.098 1.125-.25.984c1.166-.658 2.412-.73 2.884-.123.521.669-.086 1.927-1.344 2.787s-2.723 1.016-3.243.347c-.512-.657.065-1.883 1.278-2.741l-.588-.471-2.097 3.406a.17.17 0 0 1-.141.077h-1.068q-.123 0-.063-.101l1.83-3.005-1.05.399-1.581 2.638a.13.13 0 0 1-.125.069l-1.098-.002-.025-.003a.08.08 0 0 1-.054-.098.1.1 0 0 1 .011-.021 15 15 0 0 0 1.461-2.423.2.2 0 0 0 .016-.07.17.17 0 0 0-.14-.166c-.71-.159-1.145.134-1.494.726a77 77 0 0 1-1.216 1.986.14.14 0 0 1-.131.07l-1.029.002q-.154.002-.077-.124l2.114-3.42a.16.16 0 0 1 .107-.074q.714-.143 1.351.136c.055.025.12.023.175-.005.513-.262 1.818-.537 1.926.245l1.116-1.464-.399-.837q-.017-.039.001-.078c.018-.039.035-.041.062-.046l1.486-.272 1.621-1.478.012-.009zm-.703 4.272.303-1.192a.1.1 0 0 1 .043-.056l1.887-1.012-1.478-.175a.09.09 0 0 1-.077-.086l-.014-1.481-1.495 1.363a.1.1 0 0 1-.043.021l-1.399.256.373.782a.09.09 0 0 1-.009.091l-1.274 1.67 2.191-.833a.09.09 0 0 1 .086.014l.845.677zm-.143-2.515-.053.585.699.017-.836.471-.036.547-.452-.33-.896.341.528-.692-.184-.337.578-.083zm.006 4.861c.281.227.947-.06 1.475-.635s.731-1.234.45-1.461c-.281-.226-.947.06-1.475.635s-.731 1.234-.45 1.461m-13.331-3.183-.859.049h-.008c-.078 0-.141-.06-.141-.132q0-.04.024-.074l.438-.605a.19.19 0 0 1 .161-.082l2.275-.03h.002c.042 0 .077.033.077.072a.1.1 0 0 1-.011.037 370 370 0 0 0-2.959 4.809c-.948 1.572-2.266 2.316-4.286 1.907q-.084-.017-.045-.089l.492-.868c.023-.042.077-.06.123-.042 1.272.504 1.873-.084 2.492-1.106a179 179 0 0 1 2.309-3.715.1.1 0 0 0 .013-.044c0-.048-.042-.087-.093-.087zm2.065 3.09c.694.08 1.007-.129 1.365-.69a52 52 0 0 0 1.204-1.986.12.12 0 0 1 .097-.057l1.141-.035q.093-.004.048.074l-2.141 3.519a.17.17 0 0 1-.14.077h-.748a.26.26 0 0 1-.152-.047l-.284-.201a.12.12 0 0 0-.134-.005c-.76.467-2.758.715-1.789-.933q.707-1.203 1.46-2.379a.14.14 0 0 1 .116-.066l1.08-.057h.006c.045 0 .082.035.082.077a.1.1 0 0 1-.011.039l-1.404 2.289a.24.24 0 0 0-.036.128c0 .129.104.239.24.255zm17.074-2.379a.1.1 0 0 0-.006.027c0 .035.031.064.068.064a.07.07 0 0 0 .042-.014 2.45 2.45 0 0 1 1.601-.478q.068.003.034.059l-.619.992a.12.12 0 0 1-.105.06l-1.392.06a.24.24 0 0 0-.188.107l-1.458 2.343a.13.13 0 0 1-.122.064l-1.052-.014q-.142-.002-.072-.119l2.134-3.45a.14.14 0 0 1 .113-.065l1.013-.057h.007c.074 0 .134.057.134.126a.1.1 0 0 1-.012.052zm-24.084-2.06c-1.538.756-2.858.131-1.331-1.456.585-.608 1.949-.752 2.745-.732a.25.25 0 0 0 .25-.19c.17-.773-1.8-.218-2.114-.078a.1.1 0 0 1-.032.007.07.07 0 0 1-.073-.07q0-.022.013-.039l.572-.819a.16.16 0 0 1 .094-.06c.549-.107 3.668-.542 2.869.899a47 47 0 0 1-1.628 2.715.15.15 0 0 1-.138.075h-.879a.15.15 0 0 1-.135-.082l-.06-.12q-.05-.1-.152-.049zm1.043-1.399c-.092-.182-.535-.16-.981.048s-.736.529-.644.711.535.16.981-.048.736-.529.644-.711m4.679-1.837c.512-.253 1.281-.54 1.775-.178 1.168.858-1.938 4.519-3.923 3.508q-.1-.05-.156.044l-.783 1.339a.18.18 0 0 1-.163.092H7.616q-.151 0-.074-.124l2.938-4.855a.16.16 0 0 1 .131-.073l.817-.002a.2.2 0 0 1 .158.068l.136.151q.07.078.167.031zm.294.581c-1.07-.246-1.639 1.189-2.07 1.909a.1.1 0 0 0-.012.043c0 .043.033.08.078.086 1.196.175 1.866-.642 2.245-1.605q.137-.347-.241-.433m2.911 2.637c-.654.307-1.729.668-2.094-.16a.2.2 0 0 1-.005-.156c.602-1.612 1.981-1.779 3.523-1.892a.263.263 0 0 0 .246-.256.26.26 0 0 0-.23-.254 3.4 3.4 0 0 0-1.861.263q-.076.033-.057-.044.186-.795.76-.956c.397-.112 3.416-.43 2.709.873a37 37 0 0 1-1.467 2.47.4.4 0 0 0-.055.151q-.029.209-.264.226-.246.017-.838.002a.15.15 0 0 1-.133-.08l-.073-.136q-.055-.102-.161-.051m1.026-1.39c-.092-.182-.539-.158-.99.053s-.746.534-.653.716.54.158.99-.053c.451-.211.746-.534.653-.716m5.133-.86.015-.032a.226.226 0 0 0-.171-.302c-.704-.144-1.079.163-1.429.754q-.587.994-1.18 1.991a.19.19 0 0 1-.17.095l-.991.017-.025-.003a.09.09 0 0 1-.056-.131l2.118-3.53a.16.16 0 0 1 .14-.078h.932q.093 0 .126.085l.06.149q.044.114.145.046c.76-.503 2.671-.707 1.776.861q-.723 1.267-1.478 2.514a.17.17 0 0 1-.149.082h-.946l-.029-.003a.107.107 0 0 1-.065-.157l1.378-2.36zm-17.92 2.813c.368.333.883.617 1.653.691-.977 1.356-1.65 2.934-1.93 4.498-.135.76-.081 1.575-.026 2.366q.005.065-.035.014c-1.519-1.895-1.556-4.015-.879-6.351.045-.156.201-.538.402-.729.021-.019.039-.055.073-.06.311-.043.769-.332.743-.431zm9.157 6.812v1.493a.057.057 0 0 1-.057.057h-.545a.057.057 0 0 1-.057-.057v-1.493h-.391a.056.056 0 0 1-.057-.057v-.438c0-.032.025-.057.057-.057h1.44c.031 0 .057.025.057.057v.438a.057.057 0 0 1-.057.057h-.391zm.37.805q0-.164.07-.306a.6.6 0 0 1 .192-.245.9.9 0 0 1 .289-.162q.166-.059.362-.059.194 0 .359.057a.9.9 0 0 1 .29.16.734.734 0 0 1 .193.887.8.8 0 0 1-.194.248.9.9 0 0 1-.293.16 1.2 1.2 0 0 1-.364.056q-.193 0-.357-.056-.167-.057-.287-.161a.6.6 0 0 1-.191-.252.76.76 0 0 1-.069-.326zm.646.006q0 .056.021.101a.27.27 0 0 0 .142.136.28.28 0 0 0 .295-.054.3.3 0 0 0 .058-.082.23.23 0 0 0 0-.194q-.022-.047-.058-.082c-.036-.035-.052-.041-.084-.054a.29.29 0 0 0-.295.054.3.3 0 0 0-.058.081.2.2 0 0 0-.021.094m1.974-.67v.762q-.001.098.047.147c.048.049.085.046.152.046q.1.001.152-.046c.052-.047.047-.082.047-.147v-.762c0-.031.026-.057.057-.057h.503c.032 0 .057.026.057.057v.854q-.001.306-.214.457-.201.147-.602.148c-.401.001-.467-.051-.602-.148q-.213-.153-.214-.457v-.854c0-.031.026-.057.057-.057h.503c.032 0 .057.026.057.057m1.3-.057h.503c.031 0 .057.026.057.057v.067a.6.6 0 0 1 .113-.081.6.6 0 0 1 .3-.072h.043a.4.4 0 0 1 .064.006.06.06 0 0 1 .047.056v.456c0 .019-.01.038-.026.048s-.037.012-.055.003a.44.44 0 0 0-.192-.042q-.146-.001-.22.08-.075.086-.073.251v.58a.057.057 0 0 1-.057.057h-.503a.056.056 0 0 1-.057-.057v-1.352c0-.031.025-.057.057-.057zm1.296 0h.503c.032 0 .057.026.057.057v.036a.5.5 0 0 1 .131-.078.7.7 0 0 1 .268-.045q.163 0 .28.051a.56.56 0 0 1 .202.145.4.4 0 0 1 .096.176q.024.091.024.207v.859a.057.057 0 0 1-.057.057h-.503a.057.057 0 0 1-.057-.057v-.683a.6.6 0 0 0-.014-.149.13.13 0 0 0-.091-.103.2.2 0 0 0-.072-.011q-.101-.001-.154.055-.054.058-.053.168v.722a.056.056 0 0 1-.057.057h-.503a.057.057 0 0 1-.057-.057v-1.352c0-.031.026-.057.057-.057zm2.947 0h.506c.032 0 .057.026.057.057v1.352a.056.056 0 0 1-.057.057h-.506a.056.056 0 0 1-.057-.057v-.018a.6.6 0 0 1-.38.117q-.167 0-.308-.058a.6.6 0 0 1-.247-.164q-.105-.105-.164-.248c-.059-.143-.058-.198-.058-.309a.79.79 0 0 1 .216-.543.76.76 0 0 1 .555-.228q.222 0 .385.112v-.013c0-.031.025-.057.057-.057zm-.577.729a.25.25 0 0 0 .076.18q.035.035.084.054c.049.019.07.02.108.02a.27.27 0 0 0 .19-.074.3.3 0 0 0 .058-.081q.021-.044.021-.094a.2.2 0 0 0-.021-.096q-.022-.047-.058-.082c-.036-.035-.052-.041-.084-.054a.3.3 0 0 0-.106-.02.27.27 0 0 0-.192.074.3.3 0 0 0-.056.079.2.2 0 0 0-.02.094m1.425-.729h.503c.031 0 .057.026.057.057v.048a.7.7 0 0 1 .405-.126q.306 0 .484.215a.6.6 0 0 1 .484-.217q.109 0 .206.03a.44.44 0 0 1 .291.275.7.7 0 0 1 .041.25v.878a.057.057 0 0 1-.057.057h-.503a.057.057 0 0 1-.057-.057v-.667a.7.7 0 0 0-.014-.156.2.2 0 0 0-.034-.08.1.1 0 0 0-.042-.032.2.2 0 0 0-.065-.01.16.16 0 0 0-.116.039c-.049.045-.069.126-.069.239v.667a.056.056 0 0 1-.057.057h-.503a.056.056 0 0 1-.057-.057v-.667a1 1 0 0 0-.013-.159.3.3 0 0 0-.032-.087.1.1 0 0 0-.04-.032.2.2 0 0 0-.079-.011.2.2 0 0 0-.072.011.1.1 0 0 0-.047.034.2.2 0 0 0-.039.084.7.7 0 0 0-.016.161v.667a.057.057 0 0 1-.057.057h-.503a.056.056 0 0 1-.057-.057v-1.352c0-.031.025-.057.057-.057zm4.328.764v.049c0 .052-.057.058-.057.058h-.999a.22.22 0 0 0 .057.134q.063.062.189.06a.22.22 0 0 0 .2-.101.06.06 0 0 1 .047-.026h.487q.028.001.046.023c.018.022.014.034.008.051-.106.333-.368.504-.791.504q-.191 0-.349-.054-.162-.056-.277-.158c-.115-.102-.137-.151-.18-.246a.8.8 0 0 1-.063-.318q0-.18.06-.326t.173-.251c.113-.104.164-.121.269-.158a1 1 0 0 1 .348-.055q.191 0 .344.055a.7.7 0 0 1 .432.421 1 1 0 0 1 .056.338m-.611-.284a.23.23 0 0 0-.207-.108.24.24 0 0 0-.155.046.2.2 0 0 0-.05.062zm.841-.48h.503c.032 0 .057.026.057.057v.036a.5.5 0 0 1 .131-.078.7.7 0 0 1 .268-.045q.163 0 .28.051a.56.56 0 0 1 .202.145.4.4 0 0 1 .096.176q.024.091.024.207v.859a.057.057 0 0 1-.057.057h-.503a.057.057 0 0 1-.057-.057v-.683a.6.6 0 0 0-.014-.149.13.13 0 0 0-.091-.103.2.2 0 0 0-.072-.011q-.1-.001-.155.055-.054.058-.053.168v.722a.056.056 0 0 1-.057.057h-.503a.056.056 0 0 1-.057-.057v-1.352c0-.031.025-.057.057-.057zm2.465.512v.897a.057.057 0 0 1-.057.057h-.503a.057.057 0 0 1-.057-.057v-.897h-.11a.056.056 0 0 1-.057-.057v-.398c0-.031.025-.057.057-.057h.11V23.8c0-.031.026-.057.057-.057h.503c.031 0 .057.026.057.057v.349h.229c.032 0 .057.026.057.057v.398a.056.056 0 0 1-.057.057zM5.271 10.878l-.856.061h-.007a.08.08 0 0 1-.08-.077q0-.02.01-.038l.463-.791a.15.15 0 0 1 .143-.082h2.314q.085 0 .043.071a185 185 0 0 1-3.342 5.506c-.824 1.306-2.374 1.719-3.895 1.381q-.099-.022-.048-.107l.521-.834q.059-.095.168-.058c1.497.528 1.884-.314 2.607-1.475a118 118 0 0 0 2.052-3.42.1.1 0 0 0 .01-.026.095.095 0 0 0-.076-.111.1.1 0 0 0-.028-.002z"/></svg>