<svg xmlns="http://www.w3.org/2000/svg" width="30" height="32" viewBox="0 0 30 32"><path fill="currentColor" d="M19.52 14.813q.018.25.013.536c-.003.185.107.294.238.395.156.12.345.225.534.341.631.387 1.252.878 1.298 1.966.024.566.009.965-.429 2.479-.215.743-.244 1.122-.24 1.514.002.173.09.298.142.435a1.27 1.27 0 0 1-.005 1.017.97.97 0 0 1-.538.558c-.138.066-.321.093-.492.31-.162.206-.277.426-.4.619-.582.912-1.277 1.709-2.158 2.312-.446 1.097-1.032 1.917-1.73 2.27-.218.14-.481.225-.81.217a2 2 0 0 1-.124-.007 1.4 1.4 0 0 1-.588-.149c-.753-.323-1.382-1.177-1.854-2.342-.878-.603-1.571-1.398-2.151-2.308-.123-.193-.238-.413-.4-.619-.17-.217-.353-.244-.492-.31a.97.97 0 0 1-.538-.558 1.27 1.27 0 0 1-.005-1.017c.052-.138.141-.262.142-.435.004-.392-.025-.771-.24-1.514-.438-1.513-.453-1.913-.429-2.479.046-1.087.667-1.579 1.298-1.966.189-.116.378-.22.534-.341.131-.101.241-.21.238-.395q-.004-.287.013-.536C2.692 8.46.607 4.759.14 3.441c-.129-.365-.148-.603-.138-.708a.54.54 0 0 1 .106-.283.59.59 0 0 1 .387-.221c.132-.022.361-.014.665.045 1.325.257 4.547 1.453 6.815 2.832.058.035.119.062.177.093 2.418 1.293 5.163 5.082 5.928 6.185a4.8 4.8 0 0 1 1.566-.017q.07.01.141.023c.765-1.103 3.51-4.892 5.928-6.185.058-.031.119-.058.177-.093 2.268-1.379 5.49-2.575 6.815-2.832.304-.059.533-.067.665-.045.199.034.318.13.387.221a.53.53 0 0 1 .106.283c.01.105-.008.343-.138.708-.467 1.318-2.552 5.019-10.207 11.365zM12.766 26.97c.424 1.1.969 1.933 1.667 2.223.118.062.254.1.415.105q.053.005.105.006a.93.93 0 0 0 .561-.154c.656-.318 1.172-1.122 1.579-2.17.886-.575 1.572-1.357 2.145-2.255.131-.205.255-.438.427-.657.39-.495.791-.326.962-.751.228-.567-.167-.797-.171-1.269-.004-.428.024-.842.259-1.652.412-1.421.433-1.794.41-2.326-.074-1.761-2.09-1.54-2.07-2.73a5 5 0 0 0-.036-.735l.014-.011C28.629 6.677 29.516 2.928 29.377 2.745c-.244-.32-4.468 1.09-7.238 2.775-.066.04-.134.071-.199.106-2.632 1.407-5.649 5.863-5.94 6.299a4.323 4.323 0 0 0-1.088-.135c-.374 0-.729.046-1.046.129-.291-.435-3.308-4.891-5.94-6.299-.065-.035-.134-.066-.199-.106C4.956 3.829.732 2.418.489 2.739c-.139.183.748 3.933 10.344 11.849l.014.011q-.042.328-.036.735c.02 1.19-1.996.969-2.07 2.73-.022.532-.001.905.411 2.326.235.81.263 1.224.259 1.652-.005.473-.4.703-.171 1.269.171.426.572.256.962.751.172.219.296.452.427.657.571.896 1.256 1.675 2.138 2.25zm-1.898-8.608c.234-.169 1.583.447 2.321 1.623s.913 2.225.547 2.844c-.058.098-1.812-.503-2.55-1.679s-.53-2.635-.318-2.788m8.013 0c.212.153.42 1.612-.318 2.788s-2.493 1.777-2.55 1.679c-.366-.619-.191-1.668.547-2.844s2.088-1.791 2.321-1.623"/></svg>