<svg xmlns="http://www.w3.org/2000/svg" width="19" height="32"><path fill="currentColor" d="m8.187 10.773-1.097-.08q-.015-.001-.01-.015l.555-1.566a.02.02 0 0 0-.003-.023 17 17 0 0 1-1.31-2.215c-.475-.966-.834-2.026-.881-3.102C5.367 2.09 6.353.684 8.115.584h.341c1.311.087 2.42.907 2.815 2.171.675 2.16-.795 4.678-2.068 6.315q-.007.01-.005.022l.439 1.765v.004a.016.016 0 0 1-.016.016H9.62l-1.176-.083c-.221.69-.387 1.393-.424 2.116-.074 1.459.506 2.601 1.587 3.542.217.189.526.401.73.605 1.204 1.204 1.556 3.38-.116 4.408-.457.281-.911.439-1.434.225-.922-.378-1.319-1.819-.555-2.534.282-.264.678-.394 1.068-.405.19-.005.187.23-.026.247-.813.066-1.329.609-1.159 1.445.1.492.465.989.991 1.077.58.096 1.243-.377 1.582-.809.8-1.019.358-2.519-.442-3.384-.2-.216-.481-.424-.729-.625-1.045-.846-1.705-1.988-1.752-3.353-.03-.874.147-1.744.421-2.576zm5.972 8.711a11 11 0 0 0-.751 2.969c-.121 1.103-.023 2.232.495 3.23q.072.139.279.458c.639.982 1.472 2.425 1.181 3.638-.174.721-.757 1.222-1.412 1.5q-.284.12-.597.138h-.127c-1.622-.104-2.746-2.375-1.296-3.501.147-.114.314.073.132.217-1.085.859-.403 2.481.685 2.923.641.261 1.296-.006 1.795-.436.636-.548.738-1.284.525-2.067-.205-.756-.578-1.466-.996-2.109a6.6 6.6 0 0 1-.517-.895c-.835-1.865-.393-4.267.349-6.107l-1.137-.2h-.002q-.008-.004-.005-.012l.001-.002 1.1-1.641a.03.03 0 0 0 .003-.029c-.436-1.147-.76-2.351-.863-3.569a6.3 6.3 0 0 1 .084-1.7c.246-1.328 1.123-2.43 2.549-2.516 1.636-.099 2.976 1.184 3.033 2.786v.167c-.033.827-.322 1.604-.754 2.306-.676 1.1-1.624 2.057-2.629 2.854a.07.07 0 0 0-.026.061l.165 1.747q.001.015-.013.012l-1.25-.221zm-8.832 1.033-1.144.556-.003.001a.01.01 0 0 1-.008-.008l-.051-1.904a.07.07 0 0 0-.031-.058 15.5 15.5 0 0 1-1.982-1.611C1.06 16.483.119 15.173.001 13.677v-.363c.079-1.361 1.077-2.514 2.461-2.665 1.645-.18 2.71 1.068 3.1 2.539.452 1.701.152 3.592-.237 5.292q-.003.015.007.026l1.274 1.379q.003.003.002.006 0 .006-.005.008l-1.041.504c.317 1.25.346 2.558-.162 3.765-.112.266-.301.611-.436.893-.75 1.56-1.214 3.844.73 4.821q.293.147.576.216c1.401.338 2.352-1.04 2.649-2.197.152-.593.072-1.148-.182-1.714-.21-.469-.661-.967-1.209-.942-.457.021-.784.337-1.076.654-.086.093-.269-.048-.172-.179.144-.197.43-.441.67-.568.825-.434 1.57.07 1.954.8.332.632.438 1.315.265 2.003-.388 1.54-1.694 3.019-3.449 2.222-2.189-.994-1.847-3.386-1.02-5.152.157-.334.37-.706.496-1.026.438-1.12.429-2.316.132-3.48z"/></svg>