<svg xmlns="http://www.w3.org/2000/svg" width="19" height="32"><path fill="currentColor" d="M0 22.678V9.173l9.6-3.691 9.6 3.691v10.871c-2.281 0-4.571-.059-6.983.057q.577-.351.934-.885.511-.775.511-1.914 0-.974-.429-1.691a2.74 2.74 0 0 0-1.196-1.105q-.768-.38-1.79-.379-.751 0-1.27.074a6 6 0 0 0-1.006.215v-2.97h5.065l.165-2.631h-.907q-.107.264-.198.363a.4.4 0 0 1-.231.14 1.7 1.7 0 0 1-.446.041H6.544v5.634l.742.462a6.7 6.7 0 0 1 1.699-.255q1.047 0 1.6.602c.553.602.553.984.553 1.749q0 1.163-.429 1.724-.43.552-1.328.553-.718 0-1.171-.437-.453-.445-.66-1.345H6.057v2.062q.639.294 1.529.468A36.5 36.5 0 0 0 0 22.68zm19.2-2.634v6.475l-4.342-.027c-2.072-.001-3.481-.138-4.439-.869-.07-.057-.155-.123-.231-.195-.063-.063-.14-.137-.208-.216-.057-.071-.117-.142-.177-.226-.068-.099-.137-.194-.203-.311-.057.092-.127.208-.2.307-.052.068-.114.154-.18.228a3 3 0 0 1-.439.412c-.958.731-2.367.868-4.439.869L0 26.518c6.245-3.934 11.717-5.754 19.2-6.475z"/></svg>