<svg xmlns="http://www.w3.org/2000/svg" width="16" height="32"><path fill="currentColor" d="M8.014 30.385c-1.668-.04-3.19-.998-3.677-2.546 1.403.498 2.257-1.028 2.253-1.73-.005-.726-.712-1.38-2.148-1.398-1-.013-2.679.38-3.959 1.476-.267-.254-.474-.545-.482-.964l2.547-3.166-.344 1.79c.689-.049.846-.892 3.373-2.891l-.413 2.34h.62c.879-3.496 1.74-6.99 2.271-10.462l.012.081c.533 3.446 1.387 6.913 2.259 10.381h.62l-.413-2.34c2.527 1.999 2.684 2.842 3.373 2.891l-.344-1.79 2.547 3.166c-.008.418-.215.71-.482.964-1.28-1.096-2.959-1.489-3.959-1.476-1.436.019-2.144.672-2.148 1.398-.004.701.85 2.227 2.253 1.73-.491 1.561-2.033 2.521-3.717 2.547l-.039-.001zm.077-1.103c.786-.05 1.376-.274 1.752-.686-.428-.049-.715-.307-.826-.826-.054.615-.427.839-.939.892l-.024.002c-.525-.049-.909-.27-.964-.895-.111.519-.398.777-.826.826.382.419.985.643 1.79.688l.038-.002zm-.028-4.018c.21-.585.628-1.028 1.229-1.349l-1.239-1.239-1.239 1.239c.61.326 1.033.778 1.239 1.377zm-.021-14.22a1.79 1.79 0 0 0-.99 3.273l-.031.1-.826 3.855.62.275-.275.964c-1.765-.625-3.029-1.738-3.595-3.53-.191-.603-.509-.8-.879-1.564v-3.235l.551-.688V9.53c.033-.235.355-.374.535-.375.442-.003.996.617.979.857v3.442l.688 1.101c.159.035.219-.044.207-.207l-.413-.688V3.886c.015-.554.565-.831 1.032-.834.405-.003.933.277.964.834v5.3c.115.195.233.19.353 0V2.707c.095-.666.431-1.062 1.093-1.093l.015.001c.651.036.983.431 1.077 1.092v6.479c.12.19.238.195.353 0V3.473c.031-.558.558-.837.964-.834.467.003 1.017.28 1.032.834v6.952q.136.24.275 0V6.157c.083-.453.513-.76.876-.758.348.002.767.293.845.758v7.778c-.101 3.034-1.565 4.741-3.923 5.575l-.275-.964.62-.275-.826-3.855-.031-.1a1.79 1.79 0 0 0-.99-3.273h-.023z"/></svg>