<svg xmlns="http://www.w3.org/2000/svg" width="100%" height="100%" viewBox="0 0 24 24"><path fill="currentColor" d="M10.108 12.796c.191-.036.39-.088.585-.043.138.079.057.24.027.356-.872 2.679-1.75 5.355-2.62 8.035-.464.093-.924.219-1.394.28-.349.063-.518-.298-.662-.545a1481 1481 0 0 0-1.857-3.212c-.081-.139-.15-.286-.257-.408-.447 1.34-.881 2.686-1.323 4.028-.067.232-.194.465-.139.715.061.111.193.126.306.139l-.065.134c-.631.164-1.278.268-1.913.418-.224.039-.457.113-.684.058-.17-.057-.108-.274-.075-.4.78-2.395 1.565-4.788 2.344-7.184.039-.133.072-.276.032-.412-.059-.11-.19-.123-.3-.136q.024-.143.157-.162 1.188-.255 2.379-.503a.44.44 0 0 1 .511.206c.66 1.099 1.281 2.22 1.946 3.316.401-1.139.758-2.295 1.14-3.441.053-.173.12-.364.057-.542-.053-.111-.199-.089-.298-.118.025-.099.091-.168.196-.173q.953-.2 1.905-.403zm1.274.847c1.749-.355 3.494-.725 5.242-1.083-.133.406-.213.984-.714 1.091-.829.202-1.673.338-2.507.522-.156.505-.338 1.002-.48 1.511.929-.192 1.855-.401 2.781-.602-.109.292-.192.594-.316.88-.075.17-.258.25-.428.291-.643.155-1.292.283-1.934.44-.268.063-.525.232-.608.506a77 77 0 0 0-.545 1.682c.932-.184 1.861-.391 2.791-.584.322-.081.693-.127.922-.396a.43.43 0 0 1 .248-.159c-.079.314-.19.62-.286.93-.061.182-.126.383-.293.497-.202.133-.447.171-.679.225q-2.366.498-4.733 1c-.111.015-.239.055-.34-.013-.091-.102-.013-.247.009-.36.625-1.9 1.241-3.802 1.866-5.702a.8.8 0 0 0 .045-.428c-.054-.086-.177-.078-.258-.121a.31.31 0 0 1 .216-.127zm11.005-2.306c.472-.073.998-.188 1.442.052.295.157.387.516.367.827-.046.793-.478 1.53-1.066 2.048-.428.382-.984.559-1.512.749.212.438.481.846.712 1.275.077.138.166.328.356.314.206-.018.406-.075.609-.109-.114.307-.186.63-.324.928-.13.254-.436.302-.685.36-.4.071-.79.188-1.194.233-.197.027-.375-.112-.438-.293-.334-.766-.677-1.528-1.004-2.297-.25.039-.495.101-.743.149-.259.778-.509 1.56-.766 2.339-.05.159-.121.323-.091.494.051.091.164.085.252.113l-.058.115q-1.018.217-2.038.431c-.119.016-.275.063-.356-.056-.015-.204.076-.396.134-.587q.889-2.707 1.774-5.414c.047-.155.115-.332.035-.487a3 3 0 0 0-.235-.087c.057-.111.184-.115.288-.142 1.514-.315 3.026-.641 4.541-.956zm-2.591 1.5-.565 1.73c.467-.097.936-.188 1.399-.301.41-.109.831-.268 1.125-.586.236-.263.342-.643.269-.989-.086-.21-.353-.206-.542-.188-.569.071-1.123.227-1.686.334m10.413-1.651c.323-.069.657-.125.946-.294.553.54.907 1.313.835 2.094-.08.874-.515 1.669-1.037 2.356-.651.852-1.455 1.574-2.303 2.224-2.128 1.603-4.551 2.777-7.044 3.694a35 35 0 0 1-8.358 1.92c-1.374.133-2.759.194-4.139.105-1.475-.095-2.963-.322-4.339-.883a6 6 0 0 0-.465-.177c1.793.401 3.642.467 5.47.37a33 33 0 0 0 7.045-1.185c2.616-.744 5.171-1.784 7.452-3.279.192-.114.352-.296.579-.342q.673-.14 1.346-.284c.061-.232.157-.455.192-.694l-.098-.158-.125-.053c.685-.661 1.317-1.469 1.487-2.429.581-.148 1.173-.248 1.757-.381.348-.061.756-.178.905-.537q.21-.629.406-1.264c.047-.119-.05-.224-.097-.326-1.031.214-2.064.428-3.092.655.072-.2.142-.402.196-.608.828-.175 1.655-.353 2.483-.525zm-4.874-.476c1.978-.415 3.953-.836 5.931-1.251-.087.25-.143.511-.244.755-.104.244-.382.316-.614.374-1.012.22-2.026.43-3.039.645q-.25.76-.491 1.524c1.103-.22 2.203-.46 3.305-.694-.097.276-.168.562-.273.836-.083.216-.318.298-.525.342-.762.168-1.528.321-2.29.488-.31.064-.637.239-.728.565-.254.793-.521 1.584-.759 2.381-.038.184.131.232.276.252-.051.06-.101.13-.189.131-.669.137-1.334.286-2.003.42-.159.058-.344-.087-.25-.254.595-1.863 1.21-3.719 1.814-5.579.063-.222.182-.445.14-.683-.054-.089-.173-.086-.258-.125a.26.26 0 0 1 .197-.129zm-5.18-1.899a21 21 0 0 1 2.069-.113c.776-.06 1.554.001 2.33.023 1.541.101 3.083.355 4.536.892-1.384.275-2.76.588-4.143.865q-.073.266-.157.53c-2.109-.694-4.36-.795-6.562-.732-.691.034-1.379.085-2.068.143-2.887.336-5.749.962-8.488 1.946-.235.083-.462.186-.702.251 1.415-.696 2.859-1.339 4.352-1.852a38.5 38.5 0 0 1 8.833-1.953"/></svg>