<svg xmlns="http://www.w3.org/2000/svg" width="100%" height="100%" viewBox="0 0 24 24"><path fill="currentColor" d="M14.753 18.43c-1.727 2.913-4.259 5.304-7.157 5.299-2.458-.005-4.159-.41-5.605-1.909C.83 20.617.001 18.51.001 16.446q0-3.359 2.429-5.798c2.429-2.439 3.545-2.44 5.777-2.44q2.014 0 4.158 1.408c2.144 1.408 2.786 2.215 4.288 4.103 1.28-1.597 4.502-5.072 7.419-5.28 3.256-.232 4.655.426 5.954 1.659 1.51 1.433 1.943 3.429 1.973 5.853.034 2.8-3.084 7.973-7.727 7.839-1.878-.054-3.13-.529-4.638-1.319-1.733-.907-2.804-1.883-4.77-3.925l-.112-.117zm3.145-2.787s1.661 2.954 4.293 4.341c2.717 1.432 5.877.16 6.701-.808s1.311-2.148 1.237-3.533c-.084-1.562-1.089-4.439-5.762-4.357-2.925.051-5.432 2.853-6.468 4.357zm-4.133.994s-1.452-2.574-3.613-3.998c-1.063-.7-2.038-.986-2.709-.972-1.976.041-3.029.331-4.09 1.541-.834.951-1.123 2.027-1.123 3.415q0 1.977 1.357 3.297c1.357 1.32 1.938 1.245 3.779 1.191 1.035-.031 3.711-.974 6.399-4.474"/></svg>