<svg xmlns="http://www.w3.org/2000/svg" width="100%" height="100%" viewBox="0 0 24 24"><path fill="currentColor" d="M20.797 11.952c-.001-1.614-2.089-2.093-3.323-1.994-1.974.159-3.782 1.34-4.982 2.878a.05.05 0 0 1-.037.018.05.05 0 0 1-.044-.031c-.734-2.089-2.277-3.828-4.395-4.543l-.014-.007a.063.063 0 0 1-.02-.088q.004-.007.01-.012l1.059-.999a10.9 10.9 0 0 1 3.345-1.849 10 10 0 0 1 2.57-.53c1.752-.123 3.52.237 5.036 1.198 1.172.741 2.03 1.804 2.287 3.186a.07.07 0 0 1-.034.078l-.179.113-.042.046a.54.54 0 0 0-.331.216.09.09 0 0 0-.014.084 1.77 1.77 0 0 1-.032 1.11v.01a.03.03 0 0 0 .017.019q.025.012.036-.013.213-.455.107-.956-.03-.136.015-.222.054-.103.147-.058a.06.06 0 0 1 .033.054v.299c0 .019.016.034.035.034a.04.04 0 0 0 .032-.021 1 1 0 0 0 .066-.383q.049-.013.023-.143.064-.089.138-.016l.053.823q0 .01.007.018c.011.013.03.014.044.003a.03.03 0 0 0 .01-.016q.121-.477.013-.861-.158-.771-.239-.966c-1.154-2.756-4.048-3.85-6.855-3.809-.76.011-1.514.105-2.225.272a.1.1 0 0 1-.076-.012l-.466-.297c3.554-.837 7.911-.075 9.621 3.562l.264.883a.16.16 0 0 0 .044.07q2.964 2.66 3.545 6.621.009.054-.047.052a15 15 0 0 1-1.056-.089l-.021-.003-.049-.217.015.001.272.042q.042.006.04-.037l-.023-.364a.09.09 0 0 0-.038-.063.38.38 0 0 0 .282-.265l.001-.002.065-.225c.035-.118.011-.213-.032-.288s-.112-.142-.232-.172l-2.997-.756a7.8 7.8 0 0 0-1.086-1.492c-.388-.42.033-1.354.284-1.744a.063.063 0 0 1 .117.026q.084.636-.359 1.085a.03.03 0 0 0-.008.02c0 .017.014.031.031.031l.008-.001c.458-.152.5-1.051.33-1.44l-.08-.252q-.025-.079-.032.004a.45.45 0 0 0 .063.25q-.434.567-.569 1.153a1.2 1.2 0 0 1-.078.242.11.11 0 0 0-.008.086q.274.982-.569 1.557l-.955.831-1.236.197c-.007-.132.01-.193.111-.293.157-.155.221-.348.429-.497.066-.047.093-.104.076-.181l.06-.029a.09.09 0 0 0 .05-.068q.014-.084-.084-.089a.38.38 0 0 1-.018-.268.08.08 0 0 1 .049-.056.35.35 0 0 0 .204-.217.082.082 0 0 0-.15-.067q-.141.249-.278.238-.058-.004-.029.045l.015.024a.05.05 0 0 1 .001.056 2.7 2.7 0 0 1-.53.693.2.2 0 0 0-.038.058.9.9 0 0 1-.214.339.06.06 0 0 1-.045.02c-.034-.001-.061-.036-.059-.076a.1.1 0 0 1 .02-.051q.336-.387.559-.848l.002-.004a.02.02 0 0 0-.014-.021h-.004l-.029-.001a.05.05 0 0 0-.049.027 6 6 0 0 1-.444.685 1 1 0 0 1-.078.058q-.054.038-.107.001a.06.06 0 0 0-.038-.012.07.07 0 0 0-.061.042q-.04.107-.167.131-.06.012-.03-.042l.483-.848q.16.08.169-.031a.12.12 0 0 0-.098-.127q-.066-.01-.091.045-.074.02-.115-.019a.05.05 0 0 1-.011-.064l.526-.996a.16.16 0 0 0 .019-.077v-.044a.064.064 0 0 0-.063-.063.06.06 0 0 0-.061.048 2 2 0 0 1-.324.681q-.15.202-.222.387a5 5 0 0 1-.336.697.08.08 0 0 1-.066.038.08.08 0 0 1-.076-.07l-.031-.354a.056.056 0 0 0-.056-.051.06.06 0 0 0-.039.016l-.039.039a.05.05 0 0 1-.035.015.05.05 0 0 1-.046-.066l.701-1.983q.02-.06-.043-.056a.2.2 0 0 0-.084.026.13.13 0 0 0-.049.067 20 20 0 0 0-.61 1.877.1.1 0 0 1-.172.04q-.06-.065-.132-.033-.057.026-.044-.036c.064-.292.205-.55.17-.848a.082.082 0 0 0-.163-.007l-.508 2.452a.11.11 0 0 1-.082.08q-.128.023-.11-.127.103-.87.202-1.742.005-.049.056-.044.086.009.118-.081.018-.05-.008-.091a.12.12 0 0 0-.093-.051q-.041-.004-.046-.045-.006-.04.03-.062a.07.07 0 0 0 .033-.075 1.3 1.3 0 0 1 .023-.547.16.16 0 0 0-.001-.085q-.033-.11.062-.169c.65-.407 1.664-.787 2.433-.448a6.75 6.75 0 0 1 2.118 1.463.06.06 0 0 0 .042.017c.03 0 .055-.022.06-.052l.041-.3q-.006-.008.003-.023-.228-.846-1.144-1.18c-1.863-.682-3.869.126-5.262 1.415a.03.03 0 0 1-.023.009.034.034 0 0 1-.034-.034l.001-.008a.5.5 0 0 0-.066-.41q-.029-.045.013-.079a6.3 6.3 0 0 1 2.734-1.283c1.198-.243 2.914-.097 3.675 1q.168.242.173.594.011.126.1.169zm-.033-3.335q.117-.028.18.074c.046.076.019.142.014.208q-.015.208.113.044c.379-.487-1.135-1.015-.463.37a.114.114 0 0 1-.095.162.16.16 0 0 1-.178-.136l-.036-.2a.04.04 0 0 0-.041-.035.04.04 0 0 0-.039.028l-.089.254q-.013.037.013.068c.173.205.565.354.709.071.111-.218-.039-.606-.131-.822a.063.063 0 0 1 .043-.086m-7.486 2.83c.264-.064.426-.344.359-.619s-.34-.448-.604-.384-.426.344-.359.619.34.448.604.384m.137-.679c-.132-.188-.353-.26-.495-.161s-.15.332-.018.52.353.26.495.161.15-.332.018-.52m6.237-.741-.14-.07q-.076-.04-.042.04c.082.194.372.154.372-.044 0-.102-.081-.215-.107-.332l-.001-.007a.038.038 0 0 1 .062-.028l.093.086q.032.032.056-.007a.1.1 0 0 0 .009-.042q-.003-.027-.034-.052-.112-.088-.227-.048a.145.145 0 0 0-.068.224q.084.112.073.255-.004.047-.046.026zm-3.072-.444-.034-.214q-.01-.07.055-.046.127.045.188-.041l.003-.007a.03.03 0 0 0-.016-.034l-.008-.001h-.195q-.052 0-.059-.05l-.015-.105-.001-.01c0-.033.027-.061.06-.062l.271-.008c.011 0 .02-.01.02-.021l.001-.037v-.001a.04.04 0 0 0-.039-.039h-.004l-.44.043q-.07.008-.057.077l.131.686q.008.042.05.035l.435-.078a.052.052 0 0 0-.007-.103h-.007a.8.8 0 0 0-.244.066.065.065 0 0 1-.089-.05zm3.406-1.828c-.773-.693-1.396 1.448-.434 1.356a.08.08 0 0 1 .077.032.6.6 0 0 0 .369.213q.035.007.05-.026a.13.13 0 0 0-.01-.128.1.1 0 0 1-.009-.092l.594-1.696a.08.08 0 0 0-.024-.095l-.44-.399a.05.05 0 0 0-.034-.015.047.047 0 0 0-.047.047q0 .015.008.027l.099.169a.06.06 0 0 1 .006.04l-.141.547q-.015.061-.062.019zm-.122.685c.093-.303.079-.576-.031-.61s-.275.185-.367.488c-.093.303-.079.576.031.61s.275-.185.367-.488m-1.124-.989.041-.246a.067.067 0 0 0-.05-.076l-.551-.134-.013-.001a.058.058 0 0 0-.038.102c.088.073.119.154.109.274a50 50 0 0 1-.107 1.099q-.018.172-.19.167a.195.195 0 0 1-.188-.194v-.01c.045-.875.418-1.865-1.047-1.6a.08.08 0 0 0-.06.056l-.082.325-.001.011c0 .023.019.042.042.042a.04.04 0 0 0 .03-.013.51.51 0 0 1 .622-.105.16.16 0 0 1 .003.256c-.327.258-.706.251-.781.734-.082.524.369.76.809.453q.046-.031.073.017l.047.082a.07.07 0 0 0 .065.037q.638-.006 1.248.18.04.012.061-.023l.031-.052a.04.04 0 0 0 .005-.018.035.035 0 0 0-.029-.035.28.28 0 0 1-.184-.117.1.1 0 0 1-.019-.081c.038-.276-.013-1.127.522-.849q.042.02.076-.011l.212-.207.006-.007a.053.053 0 0 0-.012-.074l-.008-.005-.244-.119a.08.08 0 0 0-.076.005l-.269.175q-.069.043-.055-.036zm-1.854.883c.089.134.323.154.378-.019q.069-.214.042-.605-.003-.045-.043-.025c-.193.094-.534.409-.377.649m-1.806.948-.631.27q-.065.027-.029.087l.016.028q.021.035.048.005.096-.108.19-.061.053.027.089.121.094.252.202.504.017.039.058.034.13-.014.086-.126a8 8 0 0 0-.234-.551.094.094 0 0 1 .035-.119l.205-.125a.04.04 0 0 0 .02-.034.04.04 0 0 0-.038-.038.04.04 0 0 0-.018.004zm5.055.668a.09.09 0 0 0-.002-.09l-.044-.075a.04.04 0 0 1-.005-.021c0-.023.019-.042.042-.042a.04.04 0 0 1 .024.008l.202.144q.05.037 0 .072a.68.68 0 0 0-.265.372l-.004.009a.043.043 0 0 1-.057.014l-.008-.006-.026-.025a.06.06 0 0 1-.01-.069l.154-.291zm-6.342.34a.2.2 0 0 1-.094-.168.09.09 0 0 1 .044-.08q.132-.073.27-.137.025-.012.032-.028a.06.06 0 0 0 0-.047q-.028-.062-.085-.027l-.476.288q-.038.023-.014.059l.467.706a.06.06 0 0 0 .051.027.06.06 0 0 0 .043-.018l.037-.036q.03-.03.006-.067l-.196-.288a.053.053 0 0 1 .015-.075l.18-.118a.05.05 0 0 0 .022-.044l.001-.033v-.001a.03.03 0 0 0-.044-.025l-.192.113q-.033.02-.067-.002zm4.002-.704a.183.183 0 0 1-.253-.114q-.103-.34.188-.479a.07.07 0 0 1 .073.004l.158.093q.045.027.066-.021a.06.06 0 0 0 .003-.036q-.006-.028-.044-.049-.287-.165-.497.024c-.389.349.129.95.502.582a.043.043 0 0 0-.048-.07l-.148.068zm-1.956-.171-.232.046a.06.06 0 0 1-.068-.043l-.056-.208q-.015-.057-.071-.04l-.07.02q-.055.015-.037.07l.244.718q.02.057.071.027l.041-.024q.048-.029.031-.082l-.091-.283-.003-.018a.06.06 0 0 1 .045-.057l.205-.052.003-.001a.06.06 0 0 1 .07.045l.001.003q.025.156.064.274a.078.078 0 0 0 .15-.042l-.154-.683q-.009-.04-.049-.036l-.085.008q-.06.006-.046.065l.06.257q.006.027-.021.032zm2.998-.026c0-.199-.163-.362-.362-.362s-.362.163-.362.362.163.362.362.362.362-.163.362-.362m-.168.047c.037-.155-.02-.301-.126-.326s-.222.08-.258.235.02.301.126.326.222-.08.258-.235m-5.962-3.029q.02.01.044.008a.045.045 0 0 0 .039-.044.04.04 0 0 0-.022-.038l-.135-.08a.043.043 0 0 0-.065.037l.001.008q.018.098.102.101.02 0 .036.008m6.491 3.049a.04.04 0 0 1 .021.02q.008.017-.001.047a.85.85 0 0 0-.022.386.07.07 0 0 0 .067.057.07.07 0 0 0 .068-.065l.026-.538v-.005a.107.107 0 0 0-.194-.062l-.326.471a.03.03 0 0 0-.006.019c0 .019.016.035.035.035a.04.04 0 0 0 .019-.005.7.7 0 0 0 .276-.345q.01-.027.037-.017zm-5.368-3.44q.162.03.064-.165-.024-.048-.063-.012l-.055.05-.263-.581q-.02-.044-.043-.002a.1.1 0 0 0-.006.068q.143.565.264 1.144.01.048-.038.04a.4.4 0 0 1-.225-.128.53.53 0 0 0 .075-.465q-.015-.049-.065-.032l-.569.203a2.8 2.8 0 0 1-.485-.228q-.025-.014-.043-.002-.03.02-.001.042l1.194.853q.017.012.018.034a.04.04 0 0 1-.031.04l-.111.026-.229-.207q-.07-.063-.034.023l.108.262-.717.33-.622-.772q-.032-.04-.078-.016l-.296.158q-.052.027-.034.083l.261.809a.07.07 0 0 1-.025.081.5.5 0 0 1-.152.084.04.04 0 0 0-.021.019l-.016.025-.001.006q.001.012.013.013h.003l.288-.085 1.741-.558q.051-.015.042.036a.33.33 0 0 1-.078.15q-.139-.034-.23.032a.07.07 0 0 0-.029.077l.079.345a.6.6 0 0 1-.111.391l-.501-.633a.08.08 0 0 0-.082-.026l-.803.225h-.001a.067.067 0 0 0-.044.083v.001l.365 1.098q.028.084-.036.023a26 26 0 0 1-1.255-1.303c-.137-.152-.127-.302.056-.399q.044-.023.032-.07l-.024-.106q-.02-.089-.094-.035l-1.228.901q-.038.028-.029.076.023.117.165.079a.1.1 0 0 0 .039-.018q.208-.145.376.005 1.192 1.068 2.299 2.086a.207.207 0 0 0 .337-.21l-.544-1.858q-.034-.113.044-.024l.657.764a.09.09 0 0 1 .015.083l-.078.216q-.002.006-.002.012c0 .016.013.029.029.029a.03.03 0 0 0 .026-.017l.087-.166q.027-.05.063-.006l.427.514a.2.2 0 0 0 .084.06.206.206 0 0 0 .273-.222l-.21-1.334a.07.07 0 0 0-.118-.04.1.1 0 0 0-.02.038q-.072.408-.329.624l.626-1.327q.03-.063.057 0l.667 1.498a.4.4 0 0 1-.131-.033 35 35 0 0 0-.554-1.226q-.007-.015-.017-.018a.04.04 0 0 0-.024.006q-.031.018-.019.054.31.873.473 1.266.096.233-.082.35-.043.028-.006.064l.023.023a.06.06 0 0 0 .068.012 6.6 6.6 0 0 1 1.984-.56q.049-.006.047-.055l-.013-.52-.001-.005a.043.043 0 0 0-.049-.036l-.006.001-.031.009a.08.08 0 0 0-.053.07q-.01.36-.344.434l-.01.001a.047.047 0 0 1-.047-.047l.002-.012.473-1.697.002-.013a.06.06 0 0 0-.055-.064l-.013.001-1.389.194q-.073.01-.054.082l.09.31-.485-.359q-.072-.053.016-.073.961-.218 1.842-.41a.05.05 0 0 0 .032-.02q.016-.026-.014-.022l-1.709.18h-.001a.02.02 0 0 1-.017-.017q0-.01.008-.014c2.629-1.576 6.029-.824 7.23 2.161q.017.041.048.01.025-.024.011-.06c-1.168-3.021-4.763-3.999-7.461-2.386a.04.04 0 0 1-.018.005.04.04 0 0 1-.037-.037l.002-.011.408-1.175q.006-.015-.009-.019l-.021-.007q-.01-.003-.016.006l-.658 1.298q-.031.065-.057-.003l-.16-.427zm1.738 1.891.212-.762q.015-.053-.04-.057-.467-.035-.674.436zm-.035.127a.07.07 0 0 0-.033-.063q-.618-.388-1.258-.755-.05-.028-.054.028-.006.08.1.163a.3.3 0 0 1 .11.033.13.13 0 0 1 .065.075l.455 1.294q.013.036.051.044l.244.046a.053.053 0 0 0 .061-.036zM9.375 20.557l-.697.011q-.058.001-.031.052c2.636 4.958 9.368 5.692 12.911 1.26q.07.072.191.098l.014.003-.158.526q-.014.047.033.057l2.527.607q.059.014.023.062c-4.501 6.202-13.703 5.96-17.762-.601l-.004-.009a.046.046 0 0 1 .037-.06l.58-.077q.05-.006.042-.056l-.071-.482q-.006-.044-.05-.044h-.387c.01-.074-.14-.566-.202-.627a.36.36 0 0 0-.283-.106l-.403.017-.16-.546q-.022-.071.053-.084c2.773-.487 5.77-.32 8.566-.126l1.238.095-.072.269-3.073-.194-1.43 1.713q-.042.05-.085.002l-.877-.965q-.044-.05.007-.091c.255-.208.697-.67 1.034-.566q.045.013.007.043-.12.093-.237.179-.147.108-.071.19l.001.001c.03.031.079.032.109.003l.001-.001.387-.39q.038-.038.08-.004l.112.094q.014.01.031.011a.05.05 0 0 0 .04-.021l.095-.14a.02.02 0 0 1 .014-.007q.014 0 .017.015l.005.029a.06.06 0 0 1-.02.055c-.256.238-.55.605-.828.794q-.14.095.042.171a.1.1 0 0 0 .109-.022l1.008-1.012q.03-.03.007-.066l-.019-.028-1.348-.034a2.5 2.5 0 0 1-.328.32c-.1.081-.261.107-.361.231q-.03.037-.053-.004l-.313-.545zm10.804 4.169-.221-.347q-.036-.056-.093-.02l-.122.079q-.042.026-.015.068l.728 1.122q.025.039.066.015l.144-.089.005-.004a.057.057 0 0 0 .009-.081l-.004-.005a.7.7 0 0 1-.207-.421l-.001-.007a.047.047 0 0 1 .076-.037l.4.301a.08.08 0 0 0 .095.003l.164-.109q.035-.024.001-.048l-.692-.492a.11.11 0 0 1-.048-.087l-.032-.51q-.004-.054-.05-.026l-.143.088a.08.08 0 0 0-.039.076l.043.512a.03.03 0 0 1-.003.018.034.034 0 0 1-.047.015.04.04 0 0 1-.014-.012zm-9.478.17-.113.749-.002.023a.146.146 0 0 0 .27.074l.637-1.058a.06.06 0 0 0-.02-.083l-.118-.075q-.042-.025-.066.017l-.371.643a.02.02 0 0 1-.018.01.02.02 0 0 1-.021-.021v-.003l.137-.771a.154.154 0 0 0-.215-.166.15.15 0 0 0-.068.061l-.633 1.06q-.032.055.019.094l.072.055q.02.015.046.015a.08.08 0 0 0 .066-.038l.356-.599q.057-.096.041.015zm8.27.934c.205.1.366.531.626.282q.03-.028.001-.057l-.358-.358a.065.065 0 0 1-.008-.084c.197-.299-.02-.678-.369-.701q-.145-.01-.494.2-.04.024-.022.067l.507 1.213q.015.037.053.021l.161-.069a.054.054 0 0 0 .027-.072l-.175-.393q-.04-.091.05-.048zm-.271-.532.085.244c.012.032.048.05.081.039l.024-.008c.107-.038.169-.144.137-.236l-.009-.028c-.032-.092-.147-.137-.255-.099l-.023.007a.06.06 0 0 0-.043.06q0 .01.004.021zm-6.401.252a.15.15 0 0 1-.041-.105c0-.085.07-.156.156-.156q.05 0 .091.03a.4.4 0 0 0 .285.08q.052-.007.063-.058l.017-.085q.01-.054-.042-.073l-.576-.215-.019-.003a.054.054 0 0 0-.051.036l-.458 1.237q-.018.048.03.065l.603.227a.066.066 0 0 0 .084-.037l.046-.117a.1.1 0 0 0 .004-.023.06.06 0 0 0-.041-.058l-.356-.131a.06.06 0 0 1-.037-.08l.098-.261a.05.05 0 0 1 .05-.034q.016 0 .03.009.116.076.209.057a.12.12 0 0 0-.008-.235.21.21 0 0 1-.138-.069zm-2.874-1.856c-.009-.008-.013-.022-.008-.033l.132-.348.002-.011a.03.03 0 0 0-.031-.031.03.03 0 0 0-.016.004l-.32.189a.03.03 0 0 1-.034-.003l-.29-.233a.03.03 0 0 0-.019-.007.03.03 0 0 0-.031.031l.001.007.081.363a.03.03 0 0 1-.013.032l-.312.204a.03.03 0 0 0-.013.025c0 .015.012.029.027.03l.37.036a.03.03 0 0 1 .026.022l.097.359a.03.03 0 0 0 .03.023.03.03 0 0 0 .028-.018l.149-.342a.03.03 0 0 1 .03-.019l.371.019h.002a.03.03 0 0 0 .031-.031.03.03 0 0 0-.011-.023l-.279-.247zm4.655 2.047.169.032a.053.053 0 0 0 .061-.037l.043-.139q.018-.062-.044-.072l-.732-.137q-.052-.01-.064.042l-.046.191-.001.01a.042.042 0 0 0 .055.04q.16-.055.205.041.023.05.001.163-.088.455-.168.915-.01.06.051.065l.132.01a.076.076 0 0 0 .08-.062l.184-1.009q.01-.063.074-.051zm8.166-2.162a.03.03 0 0 1-.015-.032l.063-.37v-.005a.031.031 0 0 0-.052-.023l-.275.257a.03.03 0 0 1-.035.005l-.332-.175-.014-.003a.03.03 0 0 0-.031.031l.003.013.158.341a.03.03 0 0 1-.006.035l-.269.262a.03.03 0 0 0-.009.021c0 .017.014.031.031.031h.003l.372-.045a.03.03 0 0 1 .032.017l.166.337q.009.016.027.017a.03.03 0 0 0 .03-.025l.072-.369a.03.03 0 0 1 .026-.025l.371-.054a.03.03 0 0 0 .011-.056l-.329-.183zm-4.754 3.274c.261-.052.409-.427.328-.83s-.361-.692-.622-.64-.409.427-.328.83.361.692.622.64m.052-.773c-.053-.256-.184-.446-.294-.424s-.156.249-.103.505.184.446.294.424.156-.249.103-.505m-2.299.288-.079-.69q-.008-.069-.077-.069h-.13q-.054 0-.044.054l.229 1.288a.124.124 0 0 0 .244 0l.131-.737q.004-.016.02-.017c.016-.001.017.006.02.015q.088.37.175.712.033.131.176.092a.08.08 0 0 0 .058-.067l.191-1.306q.01-.075-.064-.062l-.139.025q-.038.006-.043.045l-.073.746c-.002.012-.013.02-.025.02s-.022-.009-.025-.02c-.029-.234-.095-.463-.121-.698q-.012-.106-.135-.115a.113.113 0 0 0-.118.091l-.13.695q-.004.015-.021.016c-.017.001-.019-.008-.021-.018zm-3.223-13.104a5.4 5.4 0 0 0-.791-1.667.07.07 0 0 0-.1-.016 4.7 4.7 0 0 0-.825.774q-.03.036.003.069l.774.769c.012.013.939.07.939.07zm-1.227-.076-.588-.67q-.033-.036-.063.002l-.419.54a.08.08 0 0 0-.011.085q.045.11.167.119a.1.1 0 0 1 .074.035l.063.066.006-.157q.002-.056.057-.053zm-.784.395-.361-.281q-.05-.04-.088.012l-.068.094q-.024.033.01.056l.343.232a.1.1 0 0 0 .081.019l.063-.009q.042-.088.02-.123m-.354.226q.138.024.034-.07a.9.9 0 0 0-.246-.159q-.045-.02-.069.022l-.091.156a.05.05 0 0 0-.007.026.05.05 0 0 0 .049.049l.016-.002a.66.66 0 0 1 .315-.02zm4.112 7.012.008-.024a.03.03 0 0 1 .018-.019c.017-.006.038.006.045.027a.04.04 0 0 1 0 .031l-.934 2.777q-.02.056-.074.032l-.558-.254q-.053-.024-.029-.078.506-1.095 1.027-2.176c.051-.107.092-.258.204-.344a.06.06 0 0 1 .033-.011.055.055 0 0 1 .052.073l-.118.315-.002.006c-.004.02.008.04.028.044l.006.001q.086.003.109-.084a.63.63 0 0 1 .17-.295.1.1 0 0 0 .012-.02zm4.828 2.214-.874-1.537a.138.138 0 0 1 .119-.205.13.13 0 0 1 .069.019l.062.035q.036.022.079.019.422-.023.822.106a.15.15 0 0 1 .067.044c.218.248.483-.236.715.153l.005.007a.034.034 0 0 0 .048 0l.005-.007a.1.1 0 0 0 .008-.024q.006-.06.068-.054l1.02.112.012.003c.017.008.024.03.016.048l-.007.01-.724.706a.17.17 0 0 1-.086.044c-.169.032-.195.169-.31.257q-.434.327-.909.58-.078.043-.047-.041.055-.144-.086-.211a.15.15 0 0 1-.069-.065zm.984-.867q.064.06.117-.011a.08.08 0 0 0 .007-.083.12.12 0 0 0-.051-.052.12.12 0 0 0-.066-.013c-.055.004-.097.042-.094.084a.07.07 0 0 0 .028.048q.023.019.038.019.012 0 .02.008zm-4.834.272q-.18.246-.108.621l.002.024a.124.124 0 0 1-.177.111q-.054-.026-.03-.179.113-.676.014-1.356-.006-.05-.057-.056c-.176-.023-.201.112-.205.263a1 1 0 0 1-.149.516.08.08 0 0 1-.069.038.08.08 0 0 1-.082-.082l.002-.017.202-.881v-.005a.03.03 0 0 0-.031-.031.03.03 0 0 0-.028.019l-.305.808a.03.03 0 0 1-.034.02l-.03-.005q-.019-.003-.02-.023l.001-.007.144-.49q.005-.017-.012-.022l-.03-.01q-.012-.004-.016.008l-.607 1.964c-.013.04.01.084.05.097a7.4 7.4 0 0 0 3.797.269 4 4 0 0 0 1.001-.328.05.05 0 0 0 .023-.067l-.343-.715a.06.06 0 0 0-.052-.033l-.325-.005q-.234-.004-.156.217l.193.536q.018.051-.032.074l-.04.019h-.001c-.015.006-.032 0-.038-.015v-.001l-.312-.809a.09.09 0 0 0-.072-.054q-.752-.061-1.496.056-.045.006-.049-.039l-.042-.459-.118.006a4.3 4.3 0 0 1-.137 1.458.06.06 0 0 1-.061.042q-.072-.006-.07-.089a31 31 0 0 0-.012-1.364.14.14 0 0 1-.083-.022zm-3.572-.036a.05.05 0 0 1-.056.019l-.127-.027-.009-.001a.047.047 0 0 0-.047.047q0 .02.015.034.476.439 1.043.748.037.021.056-.018l.475-.92q.015-.03-.019-.033l-.04-.003q-.045-.005-.054.042a.18.18 0 0 1-.117.141l-.018.003a.05.05 0 0 1-.05-.05q0-.014.006-.024l.414-.765q.034-.062-.037-.062h-.065q-.042 0-.053.042-.072.29-.366.292a.08.08 0 0 0-.075.045 5 5 0 0 1-.523.802.06.06 0 0 1-.029.022.1.1 0 0 1-.031.003q-.066-.012-.031-.069l.577-.908a.1.1 0 0 0 .009-.029q.013-.144-.119-.179a.07.07 0 0 0-.073.024l-.291.352q-.032.039.004.075l.022.021a.05.05 0 0 1 .013.033.05.05 0 0 1-.048.048h-.11q-.033 0-.053.029-.09.135-.195.264zm6.627-.041h-.004a.03.03 0 0 0-.027.023.62.62 0 0 0 .168.53q.03.033.046.073l.231.582q.028.072.095.033l.271-.156q.054-.03.023-.085l-.525-.922a.09.09 0 0 0-.067-.046l-.212-.032zm-10.361-5.82a.95.95 0 0 0-.408-.032c.319-2.26-1.467-2.765-3.184-1.928q-.04.02-.032.062l.305 2.258q.175 1.207.401 2.526.175 1.021.456 2.011c.017.059.073.1.134.097l.99-.042q.053-.003.051.051a.44.44 0 0 0 .082.28q.04.057-.03.066a61 61 0 0 0-4.141.653.1.1 0 0 1-.097-.089l-.021-.249a.066.066 0 0 1 .047-.069l.617-.183a.124.124 0 0 0 .088-.127c-.109-1.55-.417-3.068-.648-4.587-.144-.918-.271-1.947-.568-2.794q-.016-.045-.063-.046l-.697-.027q-.05-.002-.058-.051l-.047-.261q-.011-.06.05-.069c1.943-.245 3.497-.58 5.249-.885.84-.147 1.926-.121 2.589.505.714.676.87 1.767.602 2.695-.533 1.741-2.462 2.324-4.093 2.328q-.061 0-.053-.059l.117-.835q.008-.053.06-.056l.712-.052a.54.54 0 0 0-.055.25.034.034 0 0 0 .044.018l.008-.005.555-.446a.07.07 0 0 1 .076-.006l.592.346a.04.04 0 0 0 .018.005c.02 0 .037-.017.037-.037l-.002-.012-.242-.637q-.018-.045.018-.076l.543-.486zm.069-1.428-.207.008a.05.05 0 0 0-.032.011.057.057 0 0 0-.01.079.1.1 0 0 0 .027.02c.101.032.184.144.184.144s.002.152-.062.254a.04.04 0 0 0-.006.021.04.04 0 0 0 .039.039.04.04 0 0 0 .024-.008l.216-.165a.06.06 0 0 1 .063-.005l.199.112a.1.1 0 0 0 .026.006c.026-.002.047-.024.045-.05a.1.1 0 0 0-.009-.025c-.062-.086-.071-.226-.071-.226s.082-.133.197-.178a.04.04 0 0 0 .024-.035.04.04 0 0 0-.038-.038h-.257a.07.07 0 0 1-.069-.044l-.084-.189a.045.045 0 0 0-.085.009l-.053.211a.07.07 0 0 1-.061.05zm4.756.423.162-1.459a.074.074 0 0 1 .065-.065l.654-.074q.045-.005.048-.05l.029-.328q.005-.057-.052-.061l-2.93-.157q-.061-.003-.061.058v.327q0 .055.053.069c.126.035.392.083.47.185.048.062.006.205.006.205l.18.305.211-.013.018-.003a.048.048 0 0 1 .033.083l-.177.15a.06.06 0 0 0-.017.067l.09.237q.03.077-.047.047l-.31-.117q.087.194.037.452c-.064 1.048-.048 2.06-.266 3.135a.07.07 0 0 1-.059.056l-.384.057a.12.12 0 0 0-.1.114l-.005.287a.056.056 0 0 0 .052.056l5.007.244q.061.003.077-.056l.288-1.049q.013-.052-.032-.078l-.149-.083a.084.084 0 0 0-.112.028l-.18.279a.1.1 0 0 1-.068.046 7.2 7.2 0 0 1-2.531.044q-.102-.015-.098-.119l.101-2.82zm11.693.935.557.594q.063.068-.029.056l-.974-.118a.06.06 0 0 0-.063.032l-.2.351c.138.365.561 1.265.462 1.608q-.352 1.216-.826 2.399a.07.07 0 0 1-.068.046 2.4 2.4 0 0 1-.687-.082c-.216-.058-.383.014-.351.261a.05.05 0 0 0 .038.042c1.422.311 2.818.684 4.225 1.06l.017.002a.07.07 0 0 0 .067-.055l.037-.184q.014-.069-.05-.094l-.815-.328q-.044-.018-.035-.065.194-1.01.437-2.007c.076-.311.131-.61.385-.835a234 234 0 0 0 3.035-2.726 51 51 0 0 1 1.787-1.512c.304-.246.619-.174.974-.116a.066.066 0 0 0 .075-.053l.041-.209q.008-.037-.03-.046l-2.68-.678-.014-.002a.05.05 0 0 0-.052.041l-.044.182a.07.07 0 0 0 .037.081l.476.243.007.004a.06.06 0 0 1 .014.082l-.005.006-1.453 1.524-2.665 2.571a.08.08 0 0 1-.051.021.07.07 0 0 1-.069-.05l-.711-2.103-.393-1.723-.001-.014a.067.067 0 0 1 .078-.065l.601.113q.054.01.069-.042l.065-.223q.013-.043-.032-.055l-3.725-.939-.016-.002a.06.06 0 0 0-.06.047l-.073.291a.06.06 0 0 0 .032.065l.617.272q.038.018.056.055l.419.848.82.699a.08.08 0 0 0 .086.012l.89-.424a.03.03 0 0 1 .017-.004c.02 0 .037.017.037.037a.03.03 0 0 1-.004.016l-.411.877a.09.09 0 0 0 .006.093q.042.067.125.124zm-4.008-.92a47 47 0 0 0 2.014 4.023q.023.042.071.035a1.1 1.1 0 0 1 .383.019.156.156 0 0 1-.019.306l-2.702.267-.017.001a.156.156 0 0 1-.155-.155c0-.066.042-.125.104-.146l.328-.115a.14.14 0 0 0 .084-.177l-.219-.62.245.113.015.003c.02 0 .036-.016.036-.036l-.003-.013-.121-.304q-.018-.045.019-.078l.239-.214q.06-.054-.02-.054h-.329q-.051 0-.071-.046l-.131-.308a.04.04 0 0 0-.035-.023.04.04 0 0 0-.039.036c-.004.064-.089.278-.089.278s-.206-.411-.238-.408l-2.059.204q-.041.005-.05.046l-.703 3.488c-.01.048.02.097.068.11l.429.12q.055.016.089.064a.162.162 0 0 1-.146.253 10 10 0 0 0-1.886.02l-.023.002a.167.167 0 0 1-.166-.166c0-.079.057-.148.135-.163q.2-.045.359-.145a.13.13 0 0 0 .059-.081l1.313-4.931.671-2.501a.12.12 0 0 1 .109-.097l1.654-.232a.064.064 0 0 1 .066.036l.729 1.588zm-2.45 1.184-.143.684-.001.012c0 .034.028.062.062.062h.007l1.53-.162.008-.001a.056.056 0 0 0 .04-.068l-.003-.008-.599-1.387-.351-.822a.12.12 0 0 0-.106-.07.115.115 0 0 0-.113.093l-.332 1.669zm2.5.73q-.045-.023-.08.006l-.009.011a.048.048 0 0 0 .027.072q.222.063.106.27-.013.024.006.044l.024.024a.03.03 0 0 0 .018.008.02.02 0 0 0 .021-.011q.141-.204.312-.016a.04.04 0 0 0 .027.011.04.04 0 0 0 .038-.038l-.001-.01-.053-.17a.07.07 0 0 1 .02-.071l.118-.101a.04.04 0 0 0 .013-.029.038.038 0 0 0-.047-.037q-.238.056-.257-.16-.002-.021-.012-.032a.06.06 0 0 0-.04-.015.043.043 0 0 0-.041.044q.003.129-.091.193a.1.1 0 0 1-.102.007zm-18.66-2.361-.065-.24-1.071.265a.4.4 0 0 0-.203.274q-.01.047.036.035zm4.451-2.307.067-.012c.932-.163 2.132-.106 2.867.589l.022.021c.447-.903 1.27-1.78 2.019-2.377q.036-.029.008-.066a5.27 5.27 0 0 0-2.254-1.733.15.15 0 0 0-.161.029 10.7 10.7 0 0 0-2.569 3.549zm3.504 1.389q.067.15.115.307.189-.018.367.03l.698.025h.004l.021-.002a1 1 0 0 1-.109-.284l-.009-.037-1.088-.039zm3.422.226-.034.31.204.02 3.914.467.078-.291zm7.516.978.136.305 2.194.296c.031.004-.041-.286-.08-.291l-2.251-.31zm4.752.563.072.317 2.313.105.293-.283-2.679-.139zM2.344 21.467l-.03-.31-1.192.25a.73.73 0 0 0-.239.359q-.015.048.033.036l1.429-.335zm17.297-2.48.047-.043a.1.1 0 0 0-.047.043m1.865 2.32a.518.518 0 0 1 .367-.278l-4.118-.311-.041.237q-.01.055.046.06zm8.739-5.189-.412-.003-.357.309.933-.012zm-3.562 5.176h-.61l-.064.309.854.013-.181-.322z"/></svg>