<svg xmlns="http://www.w3.org/2000/svg" width="100%" height="100%" viewBox="0 0 24 24"><path fill="currentColor" d="m15.078 10.176.012.481h.388L15.4 8.479h-.454l-1.37 2.178h.421l.293-.481zm-.009-.362h-.596l.579-.877zm1.014.844h-.41l.662-2.178h.809q.215 0 .335.056c.12.056.139.099.178.184a.6.6 0 0 1 .039.307q-.018.165-.094.321c-.076.156-.108.187-.171.25q-.096.093-.198.142c-.102.049-.159.057-.271.074q-.098.015-.363.015h-.262l-.252.831zm.361-1.192h.126q.324 0 .438-.045c.114-.045.138-.077.187-.143s.078-.137.087-.215q.009-.079-.017-.129c-.026-.05-.045-.058-.081-.074a.9.9 0 0 0-.255-.023h-.293zm2.234.71h-.788l-.293.481h-.421l1.37-2.178H19l.078 2.178h-.388zm-.009-.362-.017-.877-.579.877zm2.029.059q-.09.222-.235.334c-.145.112-.198.113-.304.113q-.171 0-.27-.143c-.099-.143-.089-.23-.069-.404q.027-.24.142-.479c.115-.239.168-.278.275-.353a.57.57 0 0 1 .329-.113q.154 0 .238.085c.084.085.087.149.094.276l.397-.042q.002-.327-.177-.516c-.179-.189-.286-.189-.501-.189q-.288 0-.55.163c-.262.163-.32.266-.435.472s-.186.432-.214.68q-.051.458.127.698c.178.24.3.241.543.241q.324 0 .588-.194c.264-.194.317-.316.425-.561l-.405-.068zm-7.601.812a.5.5 0 0 1 .073-.283l1.37-2.178A.48.48 0 0 1 14.946 8h.454a.48.48 0 0 1 .467.368l.008-.027a.48.48 0 0 1 .459-.34h.809c.232 0 .41.041.538.101q.216.1.347.301l.112-.177a.48.48 0 0 1 .406-.224H19c.258 0 .47.205.48.463v.011q.151-.162.333-.275.333-.206.694-.232C8.545 4.707-6.566 14.194 3.054 24.635c-2.722-6.581 1.382-10.67 6.598-11.771l.219-1.026h-.369c-.229 0-.41-.137-.459-.333a.54.54 0 0 1-.237-.454c0-.066.005-.096.023-.195l.101-.478c.076-.306.284-.468.6-.468h2.011c.384 0 .591.288.591.56a.8.8 0 0 1-.03.226l.001.003a.6.6 0 0 1 .277-.063h.476q.13.001.239.053zm8.302-2.45q.036.032.07.068c.196.209.309.487.307.847a.48.48 0 0 1-.332.454.48.48 0 0 1 .097.53 2 2 0 0 1-.26.44c.402.074.713.302.891.651l.037-.171a.53.53 0 0 1 .546-.425h.688c.424 0 .766.048 1.06.281.28.222.434.559.434.948q0 .12-.018.24.005.053.005.105c0 .418-.182.854-.465 1.112a1 1 0 0 1-.109.091l.239.662c.022.056.049.124.049.234a.5.5 0 0 1-.039.196.412.412 0 0 1-.297.546l-.48.128a.5.5 0 0 1-.135.018c-.069 0-.301-.023-.391-.316a.56.56 0 0 1-.206-.275l-.032.155-.001.007-.002.007a.413.413 0 0 1-.431.336h-.452a.42.42 0 0 1-.417-.32.5.5 0 0 1-.154-.158 1.6 1.6 0 0 1-.795.505.48.48 0 0 1 .166.385l-.001.043a.6.6 0 0 1 .258-.054h1.605c.144 0 .272.044.369.125a.56.56 0 0 1 .361-.12h.685c.422 0 .763.048 1.056.28q.093.074.167.164v-.001c.052-.276.256-.443.545-.443h1.193a.54.54 0 0 1 .353.128.56.56 0 0 1 .376-.133h1.605c.158 0 .297.053.397.149q.119-.063.253-.109c-2.091-3.813-5.27-6.146-8.794-7.314zM9.637 10.547c-.182 0-.27.069-.314.245l-.097.459c-.017.092-.019.102-.019.142 0 .131.101.264.295.264h.888l-.63 2.952c-.114.538-.262.582-.416.582-.116 0-.192-.016-.192-.231 0-.041.018-.187.04-.286a.3.3 0 0 0 .015-.099c0-.053-.019-.225-.264-.225H8.22c-.311 0-.311.443-.311.767 0 .783.501 1.269 1.309 1.269.557 0 1.031-.193 1.369-.557.279-.287.436-.65.58-1.336l.752-3.526c.021-.069.021-.119.021-.156 0-.127-.092-.264-.295-.264H9.634zm11.453.644c.666 0 1.063.435 1.063 1.164 0 .756-.255 1.61-.62 2.077-.307.389-.685.578-1.155.578-.682 0-1.073-.426-1.073-1.169 0-.758.255-1.61.62-2.073.302-.388.683-.578 1.164-.578zm-.081.855c-.051 0-.205 0-.399.388-.17.345-.294.931-.294 1.393 0 .328.066.328.131.328.089 0 .228-.04.4-.383.171-.337.299-.935.299-1.393 0-.333-.066-.333-.135-.333zm-8.522-.773c-.142 0-.225.064-.259.202l-.448 2.12q-.053.226-.053.454c0 .602.419.947 1.149.947.412 0 .74-.108.999-.33.273-.227.351-.426.474-.995l.437-2.062a.5.5 0 0 0 .014-.107.233.233 0 0 0-.235-.23h-.467q-.218 0-.256.211l-.457 2.127c-.043.22-.086.307-.136.369a.39.39 0 0 1-.306.147c-.214 0-.232-.095-.232-.183 0-.068.007-.106.039-.271l.438-2.062c.002-.011.013-.067.013-.106a.23.23 0 0 0-.24-.23h-.476zm2.945 0q-.218 0-.256.211l-.664 3.116c-.01.058-.012.069-.012.099 0 .127.105.23.235.23h.423c.142 0 .224-.064.259-.202l.309-1.456.465 1.467c.045.169.161.191.257.191h.308c.142 0 .224-.064.259-.202l.659-3.113c.015-.052.015-.11.015-.111a.227.227 0 0 0-.235-.23h-.423q-.218 0-.256.211l-.291 1.373-.448-1.401c-.043-.129-.119-.184-.255-.184h-.346zm2.742 0q-.218 0-.256.21l-.063.278a.5.5 0 0 0-.012.099c0 .129.108.23.245.23h.06l-.43 2.022h-.145c-.142 0-.224.064-.259.202l-.06.282c-.01.052-.013.065-.013.102 0 .114.086.23.25.23h1.189c.189 0 .239-.12.26-.214l.052-.256c.015-.061.019-.076.019-.116 0-.133-.103-.23-.245-.23h-.06l.43-2.022h.145c.142 0 .224-.064.259-.202l.059-.281.004-.022a1 1 0 0 0 .009-.082c0-.131-.103-.23-.24-.23zm4.686 0h.688c.434 0 .679.061.876.216.208.165.322.419.322.716 0 .366-.165.761-.41.983-.08.075-.172.138-.322.217l.402 1.114c.021.053.031.078.031.13 0 .082-.05.19-.192.225l-.471.126a.4.4 0 0 1-.096.014c-.062 0-.172-.025-.223-.194l-.353-1.184-.229 1.09c-.034.138-.117.202-.259.202h-.452c-.142 0-.25-.099-.25-.23 0-.036.004-.051.019-.112l.66-3.112c.034-.138.117-.202.259-.202zm.577.845-.126.592c.19-.005.261-.038.319-.097a.56.56 0 0 0 .126-.351c0-.062-.022-.107-.038-.121a.7.7 0 0 0-.232-.024zm-4.206 3.165c-1.361 0-2.207.73-2.207 1.906 0 .447.136.805.405 1.065.155.146.266.231.707.512.611.394.64.489.64.731 0 .494-.44.568-.703.568-.237 0-.537-.071-.761-.179-.339-.169-.339-.169-.42-.169-.144 0-.197.097-.24.174l-.349.666-.003.008c-.018.046-.029.071-.029.122 0 .171.168.243.256.281.512.227.974.332 1.452.332 1.318 0 2.239-.833 2.239-2.025 0-.619-.259-1.01-.955-1.443-.543-.341-.543-.341-.669-.453a.4.4 0 0 1-.159-.348c0-.346.239-.544.655-.544.253 0 .522.077.776.222l.009.005c.143.071.196.098.285.098.098 0 .192-.06.236-.15l.323-.615c.045-.081.062-.112.062-.181 0-.141-.071-.183-.263-.296-.276-.16-.841-.286-1.286-.286zm11.763.8c.28 0 .637.08.813.182.121.072.194.114.194.24 0 .06-.017.092-.046.144l-.195.37a.23.23 0 0 1-.205.128c-.071 0-.115-.022-.204-.067l-.009-.005a.9.9 0 0 0-.434-.125c-.149 0-.326.045-.326.259 0 .072.018.111.072.157.073.065.073.065.396.268.445.276.61.529.61.931 0 .762-.585 1.294-1.423 1.294-.299 0-.587-.066-.906-.207-.032-.014-.09-.038-.134-.084l-.002.008c-.022.095-.071.215-.26.215h-1.576c-.145 0-.249-.099-.249-.235 0-.031.003-.043.019-.107l.657-3.098c.034-.137.116-.202.258-.202h1.605c.175 0 .254.112.254.216a.3.3 0 0 1-.044.154c.241-.28.633-.437 1.135-.437zm-1.355.849a.27.27 0 0 1-.206.08h-.8l-.097.455h.6c.142 0 .245.097.245.23 0 .016 0 .053-.014.095l-.006.019-.064.308q-.038.21-.261.211h-.681l-.129.599h.805c.119 0 .213.072.238.174l.105-.201c.027-.049.078-.141.206-.141.066 0 .074.004.285.11.126.061.295.101.429.101q.353 0 .354-.273c0-.112 0-.154-.355-.383-.271-.173-.341-.226-.438-.317q-.266-.258-.266-.694 0-.2.049-.372zm-8.306-.782c-.142 0-.224.064-.258.202l-.657 3.098c-.016.064-.019.076-.019.107 0 .136.105.235.249.235h1.576c.189 0 .238-.12.26-.215l.06-.305.006-.019c.014-.041.014-.078.014-.094 0-.131-.105-.23-.245-.23h-.805l.129-.599h.681q.223 0 .26-.211l.064-.308.006-.019c.014-.041.014-.078.014-.094 0-.133-.103-.23-.245-.23h-.6l.097-.455h.8a.265.265 0 0 0 .255-.151l.168-.335a.34.34 0 0 0 .048-.161c0-.104-.079-.216-.254-.216h-1.605zm2.335.005h.685c.432 0 .677.06.872.216.207.164.321.418.321.714 0 .364-.164.758-.408.98a1.3 1.3 0 0 1-.32.216l.402 1.112.044-.208c.034-.137.116-.201.258-.201h.144l.428-2.012h-.059c-.137 0-.245-.101-.245-.23 0-.02.002-.041.012-.099l.063-.277q.037-.21.256-.209h1.193c.137 0 .24.099.24.23a1 1 0 0 1-.009.08l-.004.023-.059.28c-.034.137-.117.201-.258.201h-.144l-.428 2.012h.059c.142 0 .244.097.244.23 0 .04-.004.057-.019.116l-.052.255c-.022.094-.071.214-.26.214h-1.183c-.124 0-.204-.067-.235-.149a.26.26 0 0 1-.149.096l-.47.126c-.047.01-.062.014-.096.014-.061 0-.172-.025-.223-.194l-.351-1.176-.227 1.082c-.035.137-.117.201-.258.201h-.45c-.142 0-.249-.099-.249-.23 0-.036.004-.051.019-.112l.657-3.098c.034-.138.116-.202.258-.202zm.575.843-.125.588c.188-.005.258-.038.316-.096a.56.56 0 0 0 .125-.349c0-.062-.021-.106-.038-.12a.7.7 0 0 0-.23-.024h-.048zM14.14 18.209c-.033-.004-.076.008-.131.047a.385.385 0 0 1-.234.06c-.088-.005-.139-.021-.195-.035a1 1 0 0 0-.285-.035.8.8 0 0 0-.801.795c-.013.471.292.991.844 1.016.291.013.845-.139 1.096-.247a1 1 0 0 0 .061-.053l.11-.183c.079-.131.046-.241-.098-.198a2.8 2.8 0 0 1-.713.123c-.547.042-.504-.232-.493-.418.012-.205.152-.354.221-.349.157.01.201.025.229.228.005.036.062.101.096.11l.088.023a.13.13 0 0 0 .161-.102 1 1 0 0 1 .152-.327.2.2 0 0 0 .033-.169l-.02-.077c-.011-.04-.023-.197-.122-.208zm-1.719.027-.022.003a2.7 2.7 0 0 1-.773.044c-.043-.008-.12.03-.14.069l-.041.08a.13.13 0 0 0 .074.189c.112.039.158.119.177.22a1 1 0 0 1 .011.166c-.001.06-.005.113-.005.15 0 .166-.058.33-.083.466-.026.138-.064.21-.097.236-.038.031-.058.116-.038.161l.041.091c.053.118.162.126.23.015.067-.108.434-.216.612-.126.041.021.126.004.156-.032l.052-.061a.135.135 0 0 0-.017-.192c-.167-.137-.202-.243-.209-.32-.013-.148.01-.238.01-.304 0-.17.006-.296.031-.385.023-.08.055-.111.104-.125a.133.133 0 0 0 .087-.174l-.03-.084a.145.145 0 0 0-.132-.087zm-1.224.01c-.032-.003-.072.012-.122.055l-.045.025a.4.4 0 0 1-.183.034c-.091-.006-.182-.026-.278-.045a2 2 0 0 0-.352-.043c-.362-.005-.762.206-.779.801-.013.478.382.935.795.967q.074.005.138-.007.056-.01.119-.028c.07-.019.153-.041.267-.05.049-.004.124.049.134.074a.25.25 0 0 0 .088.078l.112.031c.095.026.167-.032.165-.133a2 2 0 0 0-.014-.166.6.6 0 0 1 .013-.183c.015-.068.057-.106.145-.129.166-.042.204-.104.147-.2l-.067-.114a.4.4 0 0 0-.069-.057c-.132-.047-.677-.013-.805.038-.052.021-.084.096-.094.15l-.018.089c.011.054.087.101.194.104h-.077c-.355.061-.405-.227-.391-.456.011-.181.159-.337.317-.314.194.029.261.054.285.226.005.036.062.102.096.111l.086.023a.13.13 0 0 0 .161-.101 1 1 0 0 1 .149-.32.2.2 0 0 0 .034-.169l-.02-.075c-.011-.039-.034-.207-.13-.215zm-5.029.032q.023 0 .042.007c.082.034.477.078.631.009a.3.3 0 0 1 .115.003l.058.03c.102.054.16.058.116.2s-.003.392.133.626c.047.082.132.252.218.441a.64.64 0 0 1 .141-.301c.093-.118.154-.273.181-.352.03-.086.124-.166.236-.144l.028.009c-.184-.072-.373-.142-.383-.146-.1-.036-.125-.129-.057-.211l.095-.114c.024-.029.108-.054.144-.042.106.034.733.133.942.041.028-.013.111 0 .135.019l.125.109c.009.007.056.035.064.077.074.383.209.868.492 1.273.034.05-.045.131-.109.219-.015.02-.126-.03-.154-.039-.262-.085-.431-.035-.473.007a.132.132 0 0 1-.197-.008l-.103-.12c-.038-.074.024-.157.026-.166s.002-.024.001-.045a1.3 1.3 0 0 0-.042-.207c.019.105-.045.186-.127.22-.008.003-.027.011-.052.057a1 1 0 0 0-.042.09l-.052.131c-.019.049-.096.092-.147.083a1.1 1.1 0 0 0-.286-.001 2 2 0 0 1-.125.01.3.3 0 0 1-.071-.006c.042.106.075.2.09.264.015.062.023.107.037.145a.2.2 0 0 0 .049.074.4.4 0 0 0 .067.058q.046.033.096.064.056.036.107.072a.6.6 0 0 1 .102.094.2.2 0 0 1 .019.136l-.042.099a.145.145 0 0 1-.164.075c-.472-.152-.978-.117-1.164.031-.05.039-.138.033-.181-.014l-.103-.11a.134.134 0 0 1 .011-.193c.152-.128.225-.2.26-.253.023-.036.026-.055.014-.102a4 4 0 0 0-.201-.491c-.089-.19-.181-.373-.226-.468a.2.2 0 0 1-.126.031.25.25 0 0 1-.062.152c-.02.027-.122.176-.049.413.017.055.056.151.097.261.044.119.088.255.112.378a.14.14 0 0 1-.107.158c-.148.027-.393.297-.429.373-.002.004-.097.11-.209.047l-.053-.029-.075-.043c-.079-.043-.053-.174-.053-.174.002-.014.001-.041-.001-.096a3 3 0 0 0-.135-.636c-.189-.63-.436-.922-.527-1.009l-.005.009-.029.065a.2.2 0 0 1-.127.127c.023.047.026.107-.003.183-.023.051-.082.179-.131.316-.037.104-.104.244-.138.378s-.017.191.012.217a.4.4 0 0 0 .055.041c.132.077.1.219.1.219a.13.13 0 0 1-.154.132c-.364-.056-.686.079-.769.156-.071.067-.163.052-.209-.035l-.057-.107a.14.14 0 0 1 .046-.176c.001 0 .15-.096.233-.202.075-.094.154-.277.227-.474s.132-.385.166-.467l.101-.246a.18.18 0 0 1 .112-.115c-.029-.052-.03-.118.014-.201.021-.055.117-.358.119-.37l-.162-.042c-.156-.031-.185-.105-.102-.231l.098-.133c.034-.04.069-.053.109-.051l.83.023c.064.001.127.064.13.128.001.012.008.039.048.104.04.066.097.144.165.247.076.114.141.235.205.345q.048.083.093.149.031-.028.054-.045a.22.22 0 0 1 .171-.057.2.2 0 0 1 .073-.159c.015-.014.037-.036.067-.076s.071-.101.12-.192q-.006 0-.014-.007c-.03-.028-.239-.131-.253-.138a.13.13 0 0 1-.054-.193l.084-.129c.022-.034.074-.057.12-.059zm1.927.54.012.005.053.021.077.032c.068.047.092.152.062.252l-.011.042.021-.002c.01 0 .041-.002.073.005.041.01.098.036.132.101l.022.063a3 3 0 0 0-.143-.393 4 4 0 0 0-.299-.127zm.434 1.515-.012.175h.062c.01-.056.029-.083.09-.083v.438h-.054v.067l.291-.001v-.066h-.053v-.438c.062 0 .08.027.091.083l.062.001-.012-.175h-.065v.014h-.335l.001-.014H8.53zm.744 0-.218.075v.052l.03-.01v.429h-.032v.051h.222v-.051h-.033v-.242c.015-.02.036-.035.061-.035.04-.001.053.02.053.059v.218h-.032v.051h.219v-.051h-.03l-.001-.263c0-.052-.023-.118-.115-.118-.066 0-.106.031-.155.073v-.169l.032-.011v-.057zm1.341 0a.33.33 0 0 0-.34.328c0 .171.109.282.274.282a.34.34 0 0 0 .206-.071l.038.057h.046v-.272c0-.023.006-.032.024-.046l-.02-.042c-.013.005-.027.013-.041.013h-.231v.066h.101v.185c-.126 0-.212-.069-.212-.241 0-.041.003-.178.113-.178.029 0 .058.015.058.048q0 .019-.012.032l.032.048.185-.119-.036-.054-.031.02a.3.3 0 0 0-.152-.057zm1.335 0-.217.075v.052l.03-.01v.428h-.032v.051h.221v-.051h-.034v-.242c.015-.02.036-.036.061-.036.04 0 .053.02.053.06v.219h-.032v.051h.219v-.051h-.03v-.263c0-.052-.024-.118-.115-.118-.066 0-.106.031-.155.072v-.169l.032-.011zm1.291.037c-.036 0-.092.031-.092.073 0 .035.024.053.058.053.043 0 .11-.019.11-.073 0-.044-.039-.054-.076-.054zm-1.688.03a.23.23 0 0 1-.153.13v.047h.042v.253c0 .074.03.113.107.113a.26.26 0 0 0 .147-.061l-.022-.037a.1.1 0 0 1-.041.014c-.013 0-.035-.008-.035-.034v-.247l.063.001.013-.067h-.076v-.035a.3.3 0 0 1 .006-.066l-.051-.01zm2.768.032c-.046 0-.061.013-.071.044l-.01.033c-.024-.004-.048-.011-.094-.011-.093 0-.19.053-.19.176 0 .089.074.14.147.151v.002a.8.8 0 0 1-.163.045l.057.055a.5.5 0 0 1 .114.003v.001c-.037.005-.082.032-.083.074 0 .069.077.085.152.085.051 0 .175-.022.175-.115 0-.096-.143-.111-.213-.118v-.002c.103-.026.227-.053.227-.187 0-.1-.08-.127-.08-.144 0-.009.005-.018.015-.019.015 0 .02.007.031.017l.019-.087-.032-.002zm-.158.514q-.016.027-.015.058 0 .045.035.044.032 0 .032-.031c0-.04-.022-.053-.052-.071m-.025-.395c-.031 0-.044.016-.044.057 0 .046.026.175.091.175.032 0 .044-.016.044-.057 0-.046-.026-.175-.091-.175m-3.112-.074-.054.148.053.019c.023-.03.045-.066.095-.066q.057.002.056.056v.021h-.117c-.076 0-.137.056-.137.156 0 .079.058.129.135.129.049 0 .086-.023.121-.053l.01.04h.171v-.051h-.027v-.239c0-.101-.064-.142-.159-.142a.3.3 0 0 0-.103.02l.008-.023-.051-.017zm.125.231c-.043 0-.073.03-.073.074 0 .033.01.071.051.071.039 0 .047-.03.047-.062v-.082h-.025zm1.332-.211c.115 0 .179.076.209.18l-.243.089q.03.074.107.075c.04 0 .078-.014.104-.045l.032.034a.26.26 0 0 1-.212.111c-.129 0-.208-.09-.208-.226 0-.118.09-.218.21-.219zm-.026.065c-.034-.001-.047.026-.047.062.001.034.01.056.015.079l.11-.042c-.012-.036-.032-.099-.078-.099m.453-.065-.171.046v.052l.027-.011v.294h-.029v.051h.227v-.051h-.042v-.207a.07.07 0 0 1 .056-.032c.025.002.047.011.069.019l.051-.144-.047-.016-.01.017a.12.12 0 0 0-.063-.017c-.04 0-.056.071-.066.101h-.002v-.101zm.401 0-.187.053v.049l.031-.006v.285h-.033v.051h.217v-.051h-.028zm.282 0-.188.051v.05l.03-.009v.288h-.03v.051h.22v-.051h-.033v-.243c.02-.018.041-.035.07-.035.023 0 .045.013.045.038v.24h-.033v.051h.218v-.051h-.029v-.26c0-.047-.015-.121-.124-.121-.059 0-.102.035-.146.069v-.069zm-3.786 0c.115 0 .179.076.209.18l-.242.088q.03.074.108.075c.04 0 .078-.014.104-.045l.033.035a.26.26 0 0 1-.213.111c-.129 0-.208-.09-.208-.226 0-.118.09-.218.21-.218zm-.027.065c-.033.001-.047.027-.047.063 0 .034.01.055.014.078l.11-.042c-.012-.037-.031-.099-.077-.099"/></svg>