<svg xmlns="http://www.w3.org/2000/svg" width="100%" height="100%" viewBox="0 0 24 24"><path fill="currentColor" d="M28.578 9.522q.825 0 1.577.088c.752.088 1.073.162 1.716.311v2.69H30.6q-.175-.732-.45-1.164c-.275-.432-.41-.499-.682-.635q-.408-.204-1.029-.204-.528 0-.946.186c-.418.186-.498.308-.659.552q-.241.366-.241.886 0 .538.209.932c.209.394.373.519.7.77q.492.375 1.428.858 1.141.594 1.795 1.164c.654.57.757.795.965 1.243q.31.672.311 1.563 0 1.141-.529 1.98c-.529.839-.866.989-1.54 1.289q-1.011.45-2.337.45-.947 0-1.971-.107c-1.024-.107-1.325-.175-1.924-.311v-2.857h1.271q.233 1.104.774 1.646c.541.542.892.543 1.591.543q.548 0 .983-.186c.435-.186.524-.323.7-.598q.264-.413.264-1.034 0-.575-.213-.997c-.213-.422-.371-.549-.686-.802q-.473-.38-1.317-.807-.723-.362-1.308-.751c-.585-.389-.722-.546-.997-.858-.263-.287-.457-.627-.619-.979-.063.306-.216.583-.366.853q-.547.909-1.586 1.377c-1.039.468-1.558.468-2.597.468q-.9 0-1.475-.037v2.968q0 .612.046.867c.046.255.082.306.153.408q.106.153.306.255c.2.102.339.127.617.176v.612H9.553v-.612q.408-.111.566-.195a.5.5 0 0 0 .246-.218q.088-.135.13-.408c.042-.273.042-.484.042-.904v-4.545q0-.751.028-1.771c.028-1.02.037-1.162.056-1.447h-.195q-.111.37-.237.728c-.126.358-.24.663-.468 1.275l-2.486 6.696H5.603l-2.615-7.522q-.232-.64-.408-1.271h-.167q.093 1.53.093 3.617v4.266q0 .686.065.955c.065.269.13.328.26.445q.195.176.677.297v.612H.002v-.612q.344-.093.543-.204c.199-.111.233-.173.301-.297q.102-.185.125-.473c.023-.288.023-.436.023-.733v-8.023q0-.705-.06-.965c-.06-.26-.119-.315-.237-.427q-.175-.166-.696-.315v-.612h4.61l2.569 7.615 2.782-7.615h9.679q2.346 0 3.515.839c.432.321.798.76.96 1.28.247-.513.123-.303.344-.645q.566-.798 1.637-1.21c1.071-.412 1.541-.413 2.481-.413zm-14.295.769c-.229.06-.449.151-.639.293q-.176.162-.246.436c-.07.274-.07.505-.07.969v8.023q0 .566.056.895c.056.329.113.386.227.501.186.165.435.237.67.302q.267-.07.513-.191.2-.107.297-.297c.097-.19.107-.287.125-.482q.028-.293.028-.737v-7.995q0-.436-.023-.733c-.023-.297-.056-.359-.121-.482a.75.75 0 0 0-.297-.301 2.3 2.3 0 0 0-.521-.2zm4.838.464q-.65 0-1.002.019v5.222h.798q.927 0 1.475-.264c.548-.264.635-.456.812-.839s.264-.9.264-1.549q0-.965-.264-1.535c-.264-.57-.434-.651-.774-.812q-.51-.241-1.308-.241z"/></svg>