<svg xmlns="http://www.w3.org/2000/svg" width="19" height="32"><path fill="currentColor" d="M0 22.678V9.173l9.6-3.691 9.6 3.691v10.871c-2.747 0-5.508-.086-8.478.153a4.3 4.3 0 0 0 1.047-.349q.965-.47 1.427-1.303.462-.841.462-1.939 0-1.006-.346-1.765c-.346-.759-.575-.896-1.031-1.171q-.677-.421-1.625-.421-.775 0-1.427.206c-.652.206-.866.355-1.295.652l-.082-.033q.37-2.004 1.493-3.077 1.122-1.08 2.928-1.122v-.511l-.446-.569q-1.889.132-3.382 1.081c-1.493.949-1.765 1.468-2.31 2.508q-.808 1.558-.808 3.489 0 1.427.487 2.425c.487.998.792 1.169 1.402 1.51q.924.511 2.202.511h.038c-2.883.322-5.98.991-9.456 2.36zm19.2-2.634v6.475l-4.342-.027c-2.072-.001-3.481-.138-4.439-.869-.07-.057-.155-.123-.231-.195-.063-.063-.14-.137-.208-.216-.057-.071-.117-.142-.177-.226-.068-.099-.137-.194-.203-.311-.057.092-.127.208-.2.307-.052.068-.114.154-.18.228a3 3 0 0 1-.439.412c-.958.731-2.367.868-4.439.869L0 26.518c6.245-3.934 11.717-5.754 19.2-6.475zm-9.518-5.657q.75 0 1.138.61.396.602.396 1.782 0 .586-.091 1.072a2.5 2.5 0 0 1-.297.825 1.5 1.5 0 0 1-.544.528q-.33.19-.825.19-.865 0-1.287-.759c-.422-.759-.421-1.262-.421-2.268q0-.602.041-.842c.041-.24.071-.28.132-.363q.1-.132.371-.33.272-.206.627-.322.354-.123.759-.124z"/></svg>