<svg xmlns="http://www.w3.org/2000/svg" width="100%" height="100%" viewBox="0 0 24 24"><path fill="currentColor" d="M27.057 8.619c.025-.022.088-.091.067-.075a.58.58 0 0 1 .535-.097.57.57 0 0 1 .397.409q.062.212.116.425a.64.64 0 0 1 .015.312.6.6 0 0 1-.152.292.5.5 0 0 0-.053.075q-.136.235-.211.481c-.012.039-.026.099-.047.148l-.003.006a.55.55 0 0 1-.218.25l-.003.002-.003.002a.63.63 0 0 1-.398.077 2 2 0 0 1-.242-.058.7.7 0 0 1-.235-.115l-.001-.001-.008-.006-.017-.014a.56.56 0 0 1-.182-.322l-.002-.013v-.006l-.001-.004v-.004q-.008-.072-.024-.152c-.006-.024-.005-.051-.018-.069l-.059-.012-.068-.006-.008.005a.64.64 0 0 0-.178.236.7.7 0 0 0-.065.214 1.1 1.1 0 0 0 .001.334.28.28 0 0 0 .089.171c.173.138.441.112.651.1a5 5 0 0 0 1.15-.177l.268-.08a.77.77 0 0 1 .455.045c.143.078.215.18.259.276a.61.61 0 0 1-.046.575l-.217.359a.7.7 0 0 1-.374.29 8 8 0 0 1-.243.089 1 1 0 0 1 .804 1.139c.065.243.059.501-.013.741q.032.136.03.292a1 1 0 0 1 .089-.003h.002q1.01.016 2.07.061c.338.014.578.136.745.303.177.178.294.427.288.769a.7.7 0 0 1-.016.135l-.429 1.891-.001.003a.83.83 0 0 1-.616.621l-1.179.283-.331 1.491-.001.003a.74.74 0 0 1-.665.57.33.33 0 0 1 .029.234l-.555 2.216c-.023.09-.082.166-.163.21s-.177.052-.264.021c0 0-5.388-1.869-11.852-1.858-5.932.011-11.778 1.861-11.778 1.861a.327.327 0 0 1-.42-.24l-.51-2.216a.33.33 0 0 1 .007-.174c-.377.159-.786.28-1.148.398l-.005.002-.035.01a.74.74 0 0 1-.908-.558l-.26-1.216-.003-.018v-.002a.82.82 0 0 1 .01-.517.9.9 0 0 1-.237-.409c.002.006.011.043 0-.002l-.001-.002-.645-2.519a.7.7 0 0 1-.005-.304c.067-.304.172-.512.275-.64a.82.82 0 0 1 .588-.322c.517-.044 1.346-.125 1.939-.043.249.034.465.101.64.189q.062-.068.134-.129a.7.7 0 0 1 .215-.121.56.56 0 0 1 .271-.504c-.003.003-.057.062-.08.083q-.009.007-.01.006l.016-.023-.016.023q-.002.005.01-.006a.5.5 0 0 0 .08-.083c.208-.137.405-.293.525-.51.284-.513.457-1.086.653-1.639.088-.248.194-.491.293-.734a.7.7 0 0 1 .171-.259.8.8 0 0 1 .02-.206v-.001l.004.001-.004-.005v-.001l.001-.005.001-.002.007-.025q.013-.043.052-.138a6 6 0 0 0 .186-.511l-.106-.019a.3.3 0 0 0 .062.006l-.063-.006a.6.6 0 0 1-.432-.329.57.57 0 0 1 .061-.61.3.3 0 0 0-.055.125c-.005.032.008.001.023-.038.02-.044.045-.105.033-.089q.126-.171.255-.33a.59.59 0 0 1 .466-.218l.127.003 1.68.047a.58.58 0 0 1 .377.146.57.57 0 0 1 .193.362v.002l.002.014v.002c.009.075.07.132.112.194.137.205.28.408.408.618q.175.288.34.58l.033.058q.075-.041.151-.064a.9.9 0 0 1 .201-.285q.075-.072.134-.156l.066-.096a8 8 0 0 0-.282-.145.6.6 0 0 1-.305-.321.56.56 0 0 1 .056-.546l.182-.282a.58.58 0 0 1 .663-.237q.075.025.155.039.372.068.752.048a.9.9 0 0 0 .3-.055.56.56 0 0 1 .471.017q.085.04.268.142c.168.095.24.215.279.333a.58.58 0 0 1-.007.399c-.108.304.047.68.187.956.057.114.153.279.224.419l.054.108.075-.104c.146-.195.252-.411.335-.641q.042-.117.097-.209l-.159-.059a.55.55 0 0 1-.356-.355.6.6 0 0 1 .007-.41.7.7 0 0 1 .111-.187q.096-.119.194-.233a.3.3 0 0 0-.059.109q0 .005.006-.006c.019-.027.074-.128.056-.109a.59.59 0 0 1 .585-.188h.001c.361.088.741.133 1.111.153q.246.013.492-.007.135-.012.284-.064a.56.56 0 0 1 .568.101l.001.001.288.231c.143.115.207.191.247.38q.064.305.143.604.016-.065.036-.13c.232-.756.841-1.229 1.622-1.304.466-.045.927.06 1.381.145.115.021.231.042.343.033a.5.5 0 0 0 .255-.1l.005-.004c.09-.067.2-.106.314-.111h.001s-.172.039-.07.01c-.136.035.106-.011.07-.01a.59.59 0 0 1 .509.246c.116-.147.283-.228.52-.198h.002q.143.018.287.021.456.01.91-.043.186-.021.368-.062h.001l-.087.035q-.005.002-.003-.001l.019-.01-.019.01q-.007.004.003.001c.02-.005.113-.04.087-.035.283-.062.585.012.716.37l.043.122a2.05 2.05 0 0 1 1.23-.487 2.7 2.7 0 0 1 .57.034c.12.02.263.058.394.088.186.043.376.049.535-.069l-.067.075q-.01.01-.009.006.001-.005.006-.009l-.006.009q-.005.009.009-.006zm.233 6.477-.016.003a.43.43 0 0 0-.256.163l-.003-.003a.62.62 0 0 0-.577-.226l-.606.005h-.004a.38.38 0 0 0-.335.202.371.371 0 0 0-.362-.241h-.882a.41.41 0 0 0-.377.238.5.5 0 0 0-.089-.068l-.002-.001c-.158-.094-.413-.16-.715-.19-.586-.057-1.368 0-1.735.03h-.001a.65.65 0 0 0-.413.179.6.6 0 0 0-.078.095l-.002-.003a.63.63 0 0 0-.324-.244c-.168-.059-.385-.064-.549-.062a35 35 0 0 1-1.848-.03h-.007a.5.5 0 0 0-.265.068l-.058.033a.33.33 0 0 0-.167.275l-.053 1.422-.226-1.437a.39.39 0 0 0-.38-.337h-.005l-1.261-.03a.385.385 0 0 0-.388.294v.002l-.593 2.377-.231-.004a49 49 0 0 0-.108-2.017.39.39 0 0 0-.342-.369l-.971-.148a.33.33 0 0 0-.259.071.33.33 0 0 0-.245-.122c-.58-.019-.733.143-1.11.308l-.368-.259a.33.33 0 0 0-.185-.06l-.68-.009-.043.001a.597.597 0 0 0-.558.63v.002a.36.36 0 0 0-.328.051l-.001.001c-.077.052-.16.022-.226-.026a.44.44 0 0 1-.185-.297c-.019-.238-.167-.316-.28-.341l-.01-.002a.44.44 0 0 0-.257.035.33.33 0 0 0-.173.171l-.01.023a.392.392 0 0 0-.374-.233l-1.016.014a.33.33 0 0 0-.298.198c-.224-.176-.582-.248-1.084-.146-.223.042-.458.169-.682.26a1 1 0 0 1-.158.052c-.033.007-.064.014-.093 0-.051-.024-.084-.084-.124-.172a.33.33 0 0 0-.511-.115 1 1 0 0 0-.265.341 1 1 0 0 0-.045-.047c-.155-.14-.409-.238-.722-.281-.571-.079-1.369.003-1.867.045a.5.5 0 0 0-.359.2c-.081.1-.158.266-.21.504a.3.3 0 0 0 .003.152l.646 2.52a.57.57 0 0 0 .391.401l-.053.049h-.001c-.101.094-.174.247-.111.478l.268 1.251.004.019c.056.215.28.347.498.29l.02-.006.002-.001c.594-.193 1.333-.389 1.796-.77q.27-.223.457-.478l.017.078a.384.384 0 0 0 .485.287 28 28 0 0 1 2.246-.571.42.42 0 0 0 .281-.183c.073.043.166.069.285.043l.895-.195a.33.33 0 0 0 .232-.192q.023.024.05.042a.4.4 0 0 0 .318.069l.888-.154a.33.33 0 0 0 .192-.108.33.33 0 0 0 .232.056 80 80 0 0 1 1.489-.187h.001c.204-.024.56-.171 1.056-.467.143.188.386.296.688.324.318.03.713-.024 1.038-.052a.4.4 0 0 0 .173-.048.4.4 0 0 0 .202.052h.003l.394-.002q.26.001.377-.24l.002-.003.096-.206.333-.085.027.178v.001a.37.37 0 0 0 .318.331l.005.001c.388.072.716.035.985-.093l.013-.006a.33.33 0 0 0 .244.134l.92.063h.001a.4.4 0 0 0 .328-.137.39.39 0 0 0 .323.191l.999.088a.33.33 0 0 0 .159-.025q.061.042.139.055.576.085 1.161.154c.513.06.939-.038 1.435-.138l-.003.02a.33.33 0 0 0 .261.375l.905.181a.37.37 0 0 0 .337-.092.33.33 0 0 0 .154.155q.445.216.999.28h.001a.4.4 0 0 0 .233-.04l.012.021a.39.39 0 0 0 .244.173l.842.209.006.001.011.002c.09.018.178.003.254-.035a.33.33 0 0 0 .199.18l.845.278q.061.02.126.02a.41.41 0 0 0 .396-.316v-.002l.376-1.692 1.379-.331a.5.5 0 0 0 .372-.375v-.001l.429-1.891a.3.3 0 0 0 .008-.067c.004-.235-.07-.409-.192-.532-.117-.117-.287-.197-.524-.206a84 84 0 0 0-2.062-.061h-.001a.4.4 0 0 0-.271.089l-.009.008a.33.33 0 0 0-.241-.1l-.798.011a1 1 0 0 0 .099-.026c.138-.048.251-.152.258-.306.006-.129-.061-.221-.164-.281l-.029-.016.023-.014a.45.45 0 0 0 .121-.634l-.008-.011a.1.1 0 0 0 .011-.033l.039-.181.001-.005a.117.117 0 0 0-.095-.134l-.006-.001a1 1 0 0 0-.128-.004c-.112.007-.167.065-.204.154l-.012-.002c-.206-.031-.412.029-.532.164a.44.44 0 0 0-.098.181c-.008-.162-.082-.294-.251-.338a.47.47 0 0 0-.353.045.12.12 0 0 0-.131-.056l-.401.109a.12.12 0 0 0-.073.058v-.059a.1.1 0 0 0-.014-.054.2.2 0 0 0 .027-.085.22.22 0 0 0-.048-.168.23.23 0 0 0-.147-.079.35.35 0 0 0-.297.076.26.26 0 0 0-.094.227l-.068-.023a.11.11 0 0 0-.094.009.3.3 0 0 0-.163-.005l-.028.011a.1.1 0 0 0-.098-.018h-.001l-.367.099a.12.12 0 0 0-.085.111v.01a.53.53 0 0 0-.4-.224c-.292-.027-.508.158-.588.399a.7.7 0 0 0-.021-.173c-.06-.182-.232-.246-.41-.222a.5.5 0 0 0-.158.051v-.078q.068-.03.068-.11v-.115c0-.049-.024-.076-.047-.093s-.057-.03-.103-.014l-.47.162q-.08.027-.079.113l.002.104v.006l-.024-.003h-.049a1 1 0 0 1 .009-.091c.005-.036-.005-.063-.02-.084s-.038-.04-.074-.046l-.101-.019h-.001q-.043-.006-.073.011a.1.1 0 0 0-.051.055c-.056.119-.144.178-.268.221a.11.11 0 0 0-.076.092.38.38 0 0 0-.186-.137.67.67 0 0 0-.345-.016.1.1 0 0 0-.035-.018l-.103-.034a.117.117 0 0 0-.147.072l-.116.316a.1.1 0 0 0 .003.087l.013.022a.4.4 0 0 0-.097.141l-.001-.107v-.023l.002-.014a.115.115 0 0 0 .04-.145v-.001l-.042-.088q-.025-.046-.064-.057c-.039-.011-.053-.011-.085.003h-.001c-.018.008-.034.017-.055.017h-.079l.222-.142c.032-.021.045-.047.051-.074s.003-.056-.017-.087v-.001l-.075-.111-.001-.001a.117.117 0 0 0-.156-.032l-.007.005a.66.66 0 0 0-.391-.102.86.86 0 0 0-.567.257.81.81 0 0 0-.223.686.656.656 0 0 0 .522.593.84.84 0 0 0 .602-.092l.019.029a.11.11 0 0 0 .099.053h.093c.036 0 .061-.014.08-.032s.033-.043.034-.079v-.001l.001-.086a.37.37 0 0 0 .182.186c.137.064.28.05.403-.015l.003.003a.1.1 0 0 0 .072.025h.37a.114.114 0 0 0 .114-.114v-.02a.3.3 0 0 0 .062.084.34.34 0 0 0 .206.079.57.57 0 0 0 .334-.094.112.112 0 0 0 .103.066h.479a.1.1 0 0 0 .056-.014.1.1 0 0 0 .056.014h.472c.037 0 .062-.015.081-.033s.033-.044.033-.081v-.096c.201.303.644.307.909.074l.006-.005v.028c0 .037.015.062.032.08s.044.034.082.034l.491.001c.037 0 .063-.015.082-.033s.033-.044.033-.082v-.103a.11.11 0 0 0-.033-.081.1.1 0 0 0-.06-.031l.002-.301a.04.04 0 0 1 .027-.002.4.4 0 0 1 .089.029c.035.016.066.011.091 0s.049-.03.062-.067l.019-.055v.402a.11.11 0 0 0-.07.104v.107c0 .062.051.113.113.113h.469a.1.1 0 0 0 .076-.03.1.1 0 0 0 .078.03h.472a.1.1 0 0 0 .058-.015q.026.016.058.016h.472a.115.115 0 0 0 .109-.081l.042.041a.13.13 0 0 0 .05.03.25.25 0 0 0 .047.23.38.38 0 0 0 .243.124zm-3.646-.807c.077.201.322.2.458.064q.004-.005.008 0l.064.07q.003.003 0 .007a1 1 0 0 1-.095.103c-.236.207-.644.195-.783-.122-.145-.332.071-.752.456-.716.23.021.358.179.419.39q.002.005-.003.007l-.521.192q-.003.002-.002.005zm.177-.24c-.023-.081-.08-.239-.196-.206-.113.032-.064.221-.041.296q.001.004.005.002l.229-.086q.005-.002.003-.006m-.156-.053v-.033l.014.022.003.005zm.557.318-.032-.035h-.001c-.026-.028-.055-.036-.081-.037s-.057.007-.084.034a.2.2 0 0 1-.192.057l.373-.137h.001l.015-.007zm1.556-.408-.037.011q-.005.002-.005-.004v-.102q0-.005.005-.006l.401-.109h.002q.005 0 .006.006v.136q0 .007.006.003c.122-.102.25-.177.415-.133.124.032.169.137.169.259v.559q0 .005.005.005h.054q.004 0 .004.004l.001.105q0 .003-.003.003h-.471q-.005 0-.005-.005v-.104q0-.005.005-.005h.061q.005 0 .005-.005v-.528a.07.07 0 0 0-.042-.061c-.075-.036-.15.009-.203.061l-.003.007-.001.521q0 .006.006.006h.06q.006 0 .007.007l-.001.102q0 .004-.004.004h-.472q-.005 0-.005-.005v-.102q0-.005.005-.005l.052-.002q.006 0 .006-.006v-.615q0-.005-.005-.005h-.001l-.015.004v.001h-.001zm-.878-.192.034.014q.004.002.007-.002l.015-.028q.003-.005.008-.003l.095.032q.005.002.003.006l-.11.31q-.002.006-.007.003c-.095-.041-.2-.072-.267.028l-.001.005-.003.444q0 .006.006.006l.083.001q.005 0 .005.005v.103q0 .006-.005.005l-.491-.001q-.005 0-.005-.005v-.104q0-.005.005-.005h.056q.004 0 .004-.004l-.001-.63q0-.005-.005-.005h-.002l-.046.02q-.007.003-.007-.004v-.106q0-.004.004-.005l.367-.099q.006-.002.006.005v.208l.002.002.002-.001.046-.127c.03-.076.079-.094.136-.085l.008-.021.001-.001.016.027.038.012-.038-.062.002-.002.038.064zm-5.17.313h-.211q-.007 0-.007-.007v-.135q0-.005.005-.005l.49-.002a.2.2 0 0 0 .099-.027q.005-.001.006.002l.042.087q.001.005-.002.007c-.048.03-.052.079-.051.13q.005.28 0 .56 0 .004-.004.004h-.093q-.005 0-.007-.004l-.075-.113q-.002-.003-.006-.003l-.005.001a.74.74 0 0 1-.604.132.55.55 0 0 1-.436-.498.7.7 0 0 1 .192-.598.75.75 0 0 1 .495-.224.57.57 0 0 1 .378.121.01.01 0 0 0 .009 0l.063-.04q.005-.003.008.002l.075.111q.003.005-.002.008l-.4.256q-.004.003-.007-.002l-.064-.098q-.003-.004 0-.008a.105.105 0 0 0-.075-.171c-.18-.013-.25.128-.267.28-.038.332.074.628.453.637q.004 0 .004-.004v-.396q0-.004-.004-.004zm2.751-.181a.54.54 0 0 1 .278-.148c.124-.017.248.021.291.148q.015.045.016.158l.002.357c0 .038-.005.108 0 .164q0 .006.006.006h.054q.005 0 .005.005v.104q0 .005-.005.005h-.472q-.005 0-.005-.005v-.104q0-.004.004-.005l.062-.001q.006 0 .005-.006-.002-.248-.001-.495c0-.051-.028-.094-.08-.103a.155.155 0 0 0-.161.069q-.002.003-.003.008l-.003.522q0 .005.005.005h.061q.007 0 .007.007v.101q0 .005-.005.005h-.479q-.004 0-.004-.005l.003-.103q0-.005.005-.005l.059-.001q.005 0 .005-.005v-.925q0-.005-.005-.005h-.002l-.054.018q-.006.002-.006-.005l-.001-.104q0-.006.005-.007l.471-.162q.004-.002.004.003v.115q0 .009-.009.012l-.054.017q-.005.001-.005.006l-.001.356q0 .008.006.003zm3.298.062.014.103-.015-.103zm1.477.503c-.149-.025-.286-.12-.309-.276-.048-.323.235-.475.514-.432l.099.015q.005 0 .006-.004c.023-.086.042-.156.134-.162a1 1 0 0 1 .108.003q.005.002.005.007l-.039.181q-.003.012-.01.002a.07.07 0 0 0-.068-.033q-.005 0-.008.004-.032.03 0 .059c.034.03.074.062.099.098a.34.34 0 0 1-.09.48 1.1 1.1 0 0 1-.326.121q-.034.008.001.011c.148.011.454.056.445.267-.004.107-.088.174-.184.207-.128.044-.403.069-.502-.055-.052-.066-.04-.151.024-.205a.24.24 0 0 1 .116-.052q.009-.001 0-.003a1 1 0 0 0-.237-.007q-.005 0-.009-.003l-.118-.114q-.004-.005.002-.005.178-.032.347-.097.009-.003 0-.005zm.113.417c.012.102.156.103.142-.013-.008-.066-.054-.099-.108-.13q-.005-.003-.008.002a.25.25 0 0 0-.026.141m.014-.531c.05.04.136.031.153-.039.026-.109-.05-.504-.233-.437-.09.033-.043.229-.022.296a.35.35 0 0 0 .103.18zm-.024-.356a.565.565 0 0 1 .073.251c-.024-.029-.035-.066-.048-.107a.6.6 0 0 1-.025-.134zM14.302 17.93l.409.008q.063.145-.004.247a.11.11 0 0 1-.086.049c-.51.043-1.207.166-1.44-.148l-.169-2.691.971.148q.059.01.063.068.084 1.137.115 2.267.002.088.14.052zm-6.361-2.098.162 1.104q.01.071.079.048l.382-.125a.08.08 0 0 0 .055-.09l-.205-1.319.042-.095q.044-.018.067-.014.02.004.023.046c.032.403.516.844.923.571q.056-.038.065.03l.364 2.684-.888.154q-.086.015-.098-.071l-.213-1.468q-.01-.07-.077-.044l-.383.155q-.058.023-.048.086l.149.902.056.524-.895.195q-.06.013-.071-.046l-.67-3.701 1.017-.014q.06-.001.072.057l.092.433zm17.591-1.303h.053q.003 0 .003.003l.001.107q0 .003-.003.003h-.469q-.003 0-.003-.003v-.107q0-.003.003-.003h.064q.003 0 .003-.003v-.617q0-.003-.003-.003h-.001l-.06.011h-.001q-.003 0-.003-.003l-.001-.101.002-.003.407-.115h.001q.003 0 .003.003v.829q0 .003.003.003zm-1.345-.681a.1.1 0 0 1 .047-.039l.001-.001.003.013a.1.1 0 0 0-.023.075l-.027-.048zm-2.765.021h-.084q-.005 0-.005-.005v-.095q0-.005.004-.006a.52.52 0 0 0 .331-.28q.001-.004.006-.003l.102.019q.005.001.005.007-.015.105-.009.21 0 .006.006.006h.151q.005 0 .006.006v.001l-.026.135q-.002.005-.006.005h-.129q-.005 0-.005.005v.525c0 .102.095.1.16.056q.004-.003.007.002l.043.073q.004.007-.002.01c-.097.074-.221.141-.346.131-.16-.013-.204-.103-.205-.248l-.003-.549q0-.005-.005-.005zm1.189.163.001.396-.013.006-.014-.007.003-.387a.04.04 0 0 1 .024-.008zm-.589.352a.115.115 0 0 0-.14-.026v-.378h.024q.046-.002.073-.026c.027-.024.034-.037.04-.067v-.001l.003-.014v.513zm4.827-.185a.4.4 0 0 0 .117.191l-.076.015a.1.1 0 0 0-.042.015v-.222zm-8.086 4.11-.921-.063.106-2.917.06-.034a.17.17 0 0 1 .093-.024 35 35 0 0 0 1.867.031c.259-.003.69-.011.63.384q-.072.468-.106.971a1.1 1.1 0 0 1-.429.15.085.085 0 0 0-.069.11l.426 1.534-1-.088a.09.09 0 0 1-.082-.066l-.36-1.135a.044.044 0 0 0-.042-.033.043.043 0 0 0-.043.043v.001l-.056 1.069v.001a.07.07 0 0 1-.074.065h-.001zm.231-2.31-.061.642q-.01.065.055.061c.366-.018.616.105.578-.472.02-.294-.118-.409-.514-.301q-.054.015-.057.069zm9.38-.594a62 62 0 0 0-.948 4.331v.002a.063.063 0 0 1-.075.049h-.002l-.843-.21q-.063-.015-.049-.079.4-1.977.791-3.95.022-.11.101-.128zm-25.939 3.53.207.863q.014.063.064.021l.346-.29c.032-.045.054-.097.041-.155a137 137 0 0 1-.294-1.318q-.032-.147-.16-.067l-.982.608a.235.235 0 0 1-.352-.142L.66 15.936q.095-.43.275-.447c.684-.058 1.954-.2 2.341.153a.1.1 0 0 1 .027.047l.208.937q.012.055-.038.08l-.796.41q-.004.002-.008.003a.074.074 0 0 1-.095-.045l-.002-.008-.137-.579q-.02-.086-.109-.074l-.37.05q-.067.009-.053.076l.079.357.19.759q.014.057.066.03l.415-.218a2.1 2.1 0 0 1 .81-.377.1.1 0 0 1 .097.041c.244.363.368 1.427.565 2.242a2.2 2.2 0 0 1-.532.622c-.435.357-1.131.53-1.689.711l-.004.001a.08.08 0 0 1-.096-.055l-.001-.004-.27-1.262q-.033-.112.015-.157c.154-.143.753-.595.753-.595a.05.05 0 0 1 .071.035zm14.92-1.425.067.64q-.321.153-.783.067-.05-.01-.057-.059l-.07-.463a.07.07 0 0 0-.085-.056l-.714.183a.1.1 0 0 0-.067.054l-.143.306q-.025.053-.082.053l-.394.002a.102.102 0 0 1-.098-.125l.699-2.8q.012-.047.061-.046l1.261.03q.058.002.067.059zm-1.047-1.41a.033.033 0 0 0-.033-.028.03.03 0 0 0-.031.022l-.42 1.289-.002.011c0 .018.015.033.033.033l.007-.001.585-.137a.034.034 0 0 0 .025-.036l-.165-1.153zm4.535-1.541c-.111.101-.261.148-.402.081-.235-.111-.197-.498.047-.58.087-.029.241-.018.348-.019q.004 0 .004-.004c.003-.064 0-.131-.071-.153-.118-.035-.192.043-.253.132q-.003.005-.008.003l-.11-.041q-.005-.001-.003-.006l.116-.317q.002-.006.009-.004l.103.034q.005.001.003.006l-.012.038q-.002.006.004.004c.185-.067.486-.069.553.161a.7.7 0 0 1 .014.17v.459q0 .006.006.006h.049q.006 0 .006.006l-.001.103q0 .004-.004.004h-.37q-.005 0-.005-.004l-.018-.077q0-.003-.004-.003c-.004 0-.002 0-.003.001zm-.19-.135c.03.061.131.063.168.008.035-.05.02-.204.021-.268q0-.004-.004-.004c-.069-.006-.139.004-.179.061s-.038.141-.007.204zm.094-.059.005.01zm2.845 1.911-.982.247q-.07.018-.064-.055l.034-.335v-.007a.134.134 0 0 0-.128-.14h-.354q-.072 0-.079.071l-.075.707q-.008.078.07.066l1.476-.229-.268 1.901c-.462.093-.858.191-1.335.135a36 36 0 0 1-1.151-.153l.099-.896.931-.193q.074-.015.069.059s-.065.585-.065.722q0 .071.069.058l.413-.079q.058-.011.065-.07l.116-.948q.01-.07-.061-.063l-1.464.177.155-1.622q.025-.27.295-.293c.507-.042 1.83-.139 2.254.114q.051.031.045.089zm-16.977.62-.878.415q-.058.027-.07-.036l-.183-1.002q-.015-.075-.091-.068l-.399.037q-.063.005-.052.068l.55 2.774 1.38-.27a.08.08 0 0 1 .09.037.45.45 0 0 1 .066.318.11.11 0 0 1-.089.074q-1.161.245-2.274.578-.008.002-.015.002a.055.055 0 0 1-.053-.043l-.792-3.688q-.096-.479.212-.737c.345.753.909.143 1.422.046q.65-.132.878.143c.155.187.246 1.001.298 1.352m4.276-1.559.471.331a.1.1 0 0 0 .092.012c.418-.161.524-.351 1.094-.332l.211 2.657q-.659.393-.929.425-.733.084-1.496.188l-.39-2.988-.002-.018a.27.27 0 0 1 .249-.282h.019l.68.009zm.147.692.189 2.011.001.006a.06.06 0 0 0 .068.048l.006-.001.415-.119q.058-.017.049-.077l-.194-1.916q-.006-.062-.067-.056l-.414.04q-.06.006-.053.064m12.149-1.594-.012-.006.001-.024zm2.452-.002v-.465a.1.1 0 0 0 .032.036q.008.006.018.011v.416a.1.1 0 0 0-.026.018.1.1 0 0 0-.024-.017zm-6.1-.663h-.022c-.037 0-.063.015-.082.033s-.033.044-.033.082v.135c0 .038.015.064.034.083s.045.034.083.034h.105v.171a.3.3 0 0 1-.148-.083c-.091-.098-.109-.253-.09-.418.01-.091.039-.187.143-.184a.11.11 0 0 0-.001.129zm1.781.679-.023-.016v-.369q0-.052-.003-.093l.023.007.002.447zm10.021 1.424-.429 1.891a.17.17 0 0 1-.128.129l-1.468.352a.18.18 0 0 0-.135.137l-.396 1.782a.077.077 0 0 1-.099.056l-.844-.278.95-4.459q.016-.075.094-.075 1 .017 2.054.06.407.017.401.404zm-1.96 1.869c.054.004.464-.094.464-.094a.09.09 0 0 0 .075-.069l.217-.914q.145-.29-.46-.232-.046.004-.056.049l-.279 1.206q-.012.05.038.054zM25.24 13.68c-.098-.043-.077-.151-.01-.209a.25.25 0 0 1 .209-.052c.069.011.111.056.103.127-.013.12-.216.171-.303.133zm1.015.748v-.38l.016-.01.013-.006v.395l-.015.007-.015-.007zm-.616-.553a.11.11 0 0 1 .071-.064h.002l.025.183a.1.1 0 0 1-.047-.087v.107a.1.1 0 0 1-.05-.056zm.148.543-.019.003-.03.012v-.013zm-.608 1.102-.258 1.51q-.011.064.053.072c.065.009.395-.057.465-.095a.14.14 0 0 0 .067-.093l.271-1.497q.009-.049.058-.049l.624-.005q.194-.024.302.106.037.047.025.104l-.73 3.784q-.013.068-.082.06a2.7 2.7 0 0 1-.892-.249s.308-1.575.292-1.673q-.01-.062-.071-.05l-.393.075q-.074.015-.086.088l-.249 1.428q-.01.055-.064.044l-.905-.181.559-3.496q.012-.072.084-.072h.882q.06 0 .056.06l-.009.132zM5.945 10.178a.3.3 0 0 0 .048-.004zm7.243 2.829-.127-.328a22 22 0 0 0-.687-1.509l-.201-.371-.001-.001a3 3 0 0 1-.278-.809l-.001-.003-.019-.15v-.003a1.4 1.4 0 0 1 .042-.498l-.126-.067-.095.032-.004.001q-.105.027-.216.039a3 3 0 0 1-.293.021h-.001a4 4 0 0 1-.939-.099l-.079.123q.216.106.424.229l.002.001c.125.079.22.165.269.309l.002.006a.3.3 0 0 1-.015.198 3.2 3.2 0 0 1-.374.59q-.075.09-.104.114a.3.3 0 0 0-.053.051q-.012.014-.013.029 0 .026.034.06l.197.215a.2.2 0 0 0 .036.034q.012.01.028.003c.036-.02.073-.043.108-.057a.34.34 0 0 1 .22-.015.38.38 0 0 1 .229.209l.163.331c.241.489.479.981.68 1.488.059.148.14.357.148.532v.001c.004.186-.083.34-.203.476l-.001.001-.112.121-.002.002a8 8 0 0 1-.348.316l.094.1q.19-.119.404-.184c.298-.09.606-.126.917-.126q.715 0 1.401.205l.031-.073c-.126-.112-.271-.2-.41-.293a1.7 1.7 0 0 1-.413-.358c-.102-.132-.138-.273-.177-.432v-.002a3 3 0 0 0-.136-.459zm-4.069 2.017.171.096a3 3 0 0 1 .633-.665c.128-.101.27-.19.427-.243a6 6 0 0 0-.241-.757v-.001l-.053-.143c-.063-.163-.128-.326-.166-.496-.081-.359-.03-.73.163-1.044l.002-.003c.022-.031.05-.062.071-.094.012-.018.022-.035.02-.055q-.002-.018-.02-.037a9 9 0 0 0-.225-.251c-.037-.038-.072-.012-.111.017a2 2 0 0 0-.312.296.1.1 0 0 1-.066.038.1.1 0 0 1-.074-.025 1 1 0 0 1-.129-.144c-.138-.179-.251-.369-.366-.562l-.001-.002a11 11 0 0 0-.388-.655c-.139-.217-.293-.421-.421-.645a1 1 0 0 1-.093-.228h-.035c-.421-.012-1.667-.034-1.649-.052a2 2 0 0 0-.098.153c.034.007.22.053.241.059.181.052.354.131.355.356v.004a1.2 1.2 0 0 1-.045.247l-.03.111-.001.003-.126.372a5 5 0 0 1-.136.349c-.003.006-.007.011-.004.016q.003.004.01.007.08.045.322.154c.019.008.045.023.071.03l.016.003q.004.002.007 0 .016-.016.02-.024.056-.144.135-.286l.116-.137a.22.22 0 0 1 .225-.055l.006.002a.7.7 0 0 1 .234.159c.411.412.7.942.927 1.473q.22.524.371 1.073c.097.338.177.682.227 1.03v.001c.024.189.038.363.014.547l.004.007zm12.83-2.09a.26.26 0 0 0 .363-.076.4.4 0 0 1 .115-.113c.329-.221.871-.339 1.246-.174a.27.27 0 0 0 .168.021.25.25 0 0 0 .137-.081c.032-.036.091-.096.124-.143a.3.3 0 0 0 .061-.164v-.002a.23.23 0 0 0-.047-.144.4.4 0 0 0-.062-.067c-.199-.167-.402-.359-.453-.625a1 1 0 0 1-.008-.272c.015-.178.028-.331.029-.503a8 8 0 0 1 .021-.521c.012-.157.037-.377.153-.498.047-.05.104-.07.166-.095a.255.255 0 0 0 .148-.313 5 5 0 0 0-.067-.196c-.061-.166-.205-.191-.336-.162a4 4 0 0 1-.402.068 7 7 0 0 1-.954.045 3 3 0 0 1-.324-.024.24.24 0 0 0-.252.121q-.053.09-.11.218a.23.23 0 0 0-.004.18.28.28 0 0 0 .175.166c.344.12.416.468.41.796-.007.381-.006.756-.077 1.132-.055.295-.145.613-.35.821a.26.26 0 0 0-.074.127c-.01.044-.014.093.017.164s.062.142.095.211a.24.24 0 0 0 .089.101l.001.001c.007.005.003.002.001.001zm.386-.325c-.103.072-.222.297-.299.186a.55.55 0 0 1-.129-.3.1.1 0 0 1 .03-.049c.228-.23.334-.579.396-.906.072-.386.073-.769.079-1.159.007-.399-.103-.809-.521-.954a.12.12 0 0 1-.077-.072.07.07 0 0 1 .001-.052q.054-.119.102-.203.026-.047.089-.041.17.022.342.025.49.01.976-.046.212-.024.419-.07c.055-.012.121-.012.146.057q.035.095.065.189a.09.09 0 0 1-.052.11.6.6 0 0 0-.224.134c-.141.147-.184.409-.199.6a7 7 0 0 0-.022.533c-.001.167-.014.316-.028.489-.009.102-.009.219.01.318.059.303.281.529.509.72a.2.2 0 0 1 .036.04.07.07 0 0 1 .014.042.14.14 0 0 1-.031.074l-.021.027.051.063-.056-.058c-.029.034-.064.071-.086.096a.1.1 0 0 1-.049.03.1.1 0 0 1-.067-.011c-.421-.185-1.037-.066-1.404.188m-.272-3.325c.502.244.566.789.544 1.293-.007.169-.007.359-.016.487a4.5 4.5 0 0 1-.09.637c-.062.284-.166.577-.351.806.218-.184.51-.288.79-.337.269-.05.566-.05.817.047l.002-.003a2 2 0 0 1-.361-.403c-.145-.224-.185-.462-.165-.726.012-.162.03-.325.03-.488a6 6 0 0 1 .013-.459c.012-.194.038-.384.108-.568v-.001a1 1 0 0 1 .096-.178l.001-.001a.64.64 0 0 1 .221-.194l-.003-.017a6.7 6.7 0 0 1-1.402.099 3 3 0 0 1-.232-.015l-.001.021zm-9.998 5.439c.135-.027.295-.04.504-.033a.7.7 0 0 1 .273.069.7.7 0 0 1 .27-.015l.97.148a.7.7 0 0 1 .299.113.27.27 0 0 0 .218-.176l.085-.208a.24.24 0 0 0-.047-.264c-.136-.156-.313-.267-.488-.379-.134-.085-.267-.169-.36-.299a.6.6 0 0 1-.094-.232 4.4 4.4 0 0 0-.2-.655l-.061-.155.042.011a.9.9 0 0 0 .261.005q.125-.015.344-.028c.155-.01.297-.006.447.017.159.025.252-.08.293-.183q.089-.225.119-.294c.028-.065.066-.156.117-.229.016-.023.03-.046.051-.056a.6.6 0 0 0 .171-.101c.133-.125.142-.26.112-.443a.9.9 0 0 0-.117-.324c-.088-.146-.225-.2-.397-.193a1 1 0 0 0-.099.008q.021-.061.039-.133a.45.45 0 0 0 .001-.252.46.46 0 0 0-.223-.256 2 2 0 0 0-.219-.115.5.5 0 0 0-.229-.037c-.205.021-.305.131-.372.318a2.8 2.8 0 0 1-.381.728 1.5 1.5 0 0 0-.252.447 1 1 0 0 0-.058.289q-.18-.398-.377-.789c-.071-.14-.167-.305-.224-.419-.176-.349-.339-.83-.203-1.214a.28.28 0 0 0 .006-.185.26.26 0 0 0-.129-.151 4 4 0 0 0-.245-.13.25.25 0 0 0-.208-.01 1.3 1.3 0 0 1-.406.078 3.6 3.6 0 0 1-.828-.053 2 2 0 0 1-.195-.049.25.25 0 0 0-.288.103l-.181.28a.26.26 0 0 0-.028.246c.022.055.066.11.144.147q.239.116.468.248a.4.4 0 0 1 .113.091 3 3 0 0 1-.239.388 1.5 1.5 0 0 1-.174.202c-.106.103-.167.221-.15.357-.143-.032-.27.026-.402.133q-.06.048-.116.1a4 4 0 0 1-.232-.373q-.163-.288-.335-.571c-.125-.206-.266-.406-.401-.606-.07-.105-.151-.214-.165-.342a.26.26 0 0 0-.255-.233l-1.68-.047-.124-.003a.26.26 0 0 0-.204.095 9 9 0 0 0-.246.319.25.25 0 0 0-.03.274.27.27 0 0 0 .198.148c.148.029.315.052.447.112-.004.048-.022.098-.033.14q-.105.371-.253.727a1 1 0 0 0-.045.12v.002a.34.34 0 0 0 .047.285.372.372 0 0 0-.255.232c-.097.239-.201.477-.287.72-.202.57-.382 1.16-.675 1.689-.146.263-.379.459-.632.626a.25.25 0 0 0-.119.207l.021.004a.7.7 0 0 1 .161.059l-.003-.005c-.024-.048-.014-.099.03-.128.276-.181.527-.397.686-.684.297-.537.482-1.135.686-1.714.085-.241.189-.477.285-.714a.22.22 0 0 1 .11-.124c.062-.027.138-.016.217.02l.306.139c.089.04.164.105.164.209a.4.4 0 0 1-.033.159q-.168.369-.291.702c-.076.207-.162.409-.236.617-.076.214-.154.477-.086.701.045.148.192.256.33.314a.07.07 0 0 1 .045.064q.006.101.002.207a.1.1 0 0 1-.025.071.1.1 0 0 1-.057.029q-.03.003-.063-.003a2.8 2.8 0 0 0-1.284.124 1.7 1.7 0 0 0-.512.266l-.002.002c.236-.097.484-.223.719-.268.455-.092.813-.056 1.082.055a.65.65 0 0 1 .359-.112c-.038.001-.054-.076-.051-.157q.005-.114-.003-.222a.24.24 0 0 0-.146-.206c-.096-.04-.205-.107-.236-.21-.058-.191.019-.415.084-.598.074-.207.16-.409.235-.615q.12-.327.286-.69a.54.54 0 0 0 .048-.227.35.35 0 0 0-.052-.188A.4.4 0 0 0 7 11.56a.4.4 0 0 0 .199-.218q.043-.102.093-.201l.007-.013c.03.027.057.056.074.074.231.247.418.537.574.836.342.655.571 1.367.728 2.088.043.197.078.4.09.603a.7.7 0 0 1 .168.084 4 4 0 0 0-.097-.722c-.161-.735-.394-1.461-.743-2.129a4 4 0 0 0-.6-.872 1 1 0 0 0-.154-.137.2.2 0 0 0-.051-.025q-.014-.005-.027-.002c-.014.005-.029.021-.045.038a.6.6 0 0 0-.072.104q-.053.104-.098.212a.24.24 0 0 1-.117.132c-.068.032-.151.023-.239-.018l-.304-.144a.34.34 0 0 1-.132-.099l-.03.003.021-.016a.19.19 0 0 1-.021-.148q.003-.01.037-.095.151-.365.259-.745c.016-.057.038-.128.04-.193.002-.049-.008-.095-.055-.12-.15-.08-.349-.111-.526-.145a.11.11 0 0 1-.081-.057c-.014-.029-.014-.066.015-.105q.12-.162.242-.313a.09.09 0 0 1 .073-.034l.122.003 1.68.047q.041.002.065.024c.024.022.028.035.031.063.017.154.108.289.192.415.133.199.272.396.397.6q.171.28.332.567c.117.207.223.375.358.539a3 3 0 0 1 .237-.219c.11-.089.212-.141.34-.069a.5.5 0 0 1 .11.099l.112.125q.061.065.102.124a.24.24 0 0 1 .043.152.3.3 0 0 1-.066.148c-.268.346-.285.796-.133 1.197.156.413.316.824.413 1.256.014.061-.007.118-.073.132-.153.033-.29.116-.412.209a3 3 0 0 0-.158.129 1 1 0 0 1 .235-.045l.067-.002h.023a.8.8 0 0 1 .281-.131.25.25 0 0 0 .155-.098.28.28 0 0 0 .044-.232c-.099-.439-.261-.858-.42-1.278-.132-.348-.124-.738.109-1.038a.45.45 0 0 0 .1-.233.4.4 0 0 0-.001-.079.4.4 0 0 0 .119.004c.061-.007.134-.047.194-.074q.02.038.039.077.314.626.603 1.262c.112.247.226.505.299.767.04.142-.006.232-.1.339a4.5 4.5 0 0 1-.47.44c-.1.084-.124.164-.12.237a.3.3 0 0 0 .016.077q.097.03.181.09l.213.15.016-.008-.01-.009a8 8 0 0 1-.211-.227c-.03-.034-.04-.06-.042-.082-.002-.033.016-.064.061-.102.169-.142.341-.29.488-.457.136-.154.193-.287.135-.492a5.6 5.6 0 0 0-.308-.79 38 38 0 0 0-.606-1.268q-.024-.054-.056-.105a.16.16 0 0 0-.067-.063.12.12 0 0 0-.096 0c-.052.021-.122.069-.18.076-.086.011-.153-.029-.212-.092l-.175-.189a.5.5 0 0 1-.1-.136c-.048-.116-.003-.21.081-.291q.107-.103.193-.226.167-.236.271-.447c.018-.037.005-.075-.017-.109a.56.56 0 0 0-.18-.16 8 8 0 0 0-.478-.254.13.13 0 0 1-.063-.061c-.011-.026-.011-.059.013-.096l.18-.279a.09.09 0 0 1 .101-.036q.105.034.215.054.43.078.866.055c.156-.008.314-.031.46-.09.017-.007.044-.009.077.006q.075.035.233.125.045.027.054.06a.11.11 0 0 1-.005.078c-.15.424.017.958.211 1.343.057.114.154.279.224.419q.432.858.783 1.754.12.307.192.631a.7.7 0 0 0 .121.292c.105.147.254.245.405.342.162.103.327.204.453.348q.038.045.018.095l-.083.204q-.022.051-.054.066-.032.02-.089.003a4.7 4.7 0 0 0-1.505-.217c-.24.005-.496.033-.735.105zm2.419-3.643a1 1 0 0 1 .398-.098c.107-.004.195.023.25.114q.072.119.096.265c.02.121.026.214-.062.297-.033.031-.083.051-.127.071a.3.3 0 0 0-.118.111c-.058.083-.101.185-.133.258q-.03.07-.121.299c-.016.042-.05.091-.115.081a2.2 2.2 0 0 0-.482-.018q-.225.014-.353.029a.7.7 0 0 1-.211-.003.16.16 0 0 1-.106-.082.97.97 0 0 1-.103-.827c.052-.152.124-.261.229-.402a3 3 0 0 0 .404-.771c.043-.121.102-.196.234-.21q.072-.006.153.027c.069.027.139.07.194.102.079.047.129.098.15.164a.3.3 0 0 1-.003.161 1.6 1.6 0 0 1-.103.289l-.07.14zm-.919 1.216c.007.001.023.004.034.004a1 1 0 0 0 .082-.003c.294-.032.546-.054.824-.023.064-.168.131-.335.221-.494a.6.6 0 0 1 .273-.251q.032-.013.041-.029a.1.1 0 0 0 .003-.029q-.002-.03-.009-.069a.6.6 0 0 0-.06-.182c-.013-.024-.027-.042-.055-.042-.233.003-.397.094-.583.225-.041.029-.078.026-.106.011-.039-.02-.064-.073-.046-.131.074-.233.223-.428.28-.666.01-.04.019-.073-.016-.096a1.3 1.3 0 0 0-.219-.118q-.04-.019-.067-.006-.028.017-.043.062c-.117.318-.261.61-.467.875l-.05.071c-.191.279-.217.601-.038.892zm-7.63 1.45c0-.005.008-.115.016-.161l.022-.123.001-.004c.078-.304.204-.581.311-.874a9 9 0 0 1 .29-.701.4.4 0 0 0 .031-.097c.003-.016-.008-.024-.02-.031s-.025-.012-.039-.017l-.003-.001-.274-.126q-.028-.014-.053-.024l-.018-.004-.003.004-.009.018c-.066.172-.178.416-.264.655q-.111.31-.218.623v.001c-.144.41-.308.846-.535 1.229-.153.258-.389.467-.637.639l.026.049q.164-.11.35-.182.441-.175.915-.204.257-.016.513.012v-.014a.8.8 0 0 1-.313-.276c-.068-.112-.083-.186-.09-.389zm22.536 7.289c-8.253-2.732-16.468-2.743-24.903 0l.51 2.216s5.896-1.865 11.877-1.876c6.524-.012 11.961 1.876 11.961 1.876zm-6.884-.077.792.11q.019.002.038-.001.005 0 .008-.003a.13.13 0 0 0 .032-.049q.002-.004.006-.004l.028.003q.005 0 .004.006l-.063.453q-.003.01-.013.01h-.002l-.015-.005q-.005-.001-.006-.007c-.01-.039-.013-.063-.06-.069l-1.248-.173q-.005 0-.005-.005c-.004-.044.03-.031.051-.043.026-.014.031-.06.034-.086q.085-.654.127-.931c.014-.092.037-.188.024-.242l-.006-.008-.043-.026q-.002-.002-.002-.004l.003-.026q0-.006.006-.005l1.227.169a.3.3 0 0 0 .063.002l.006-.004.034-.05q.002-.003.005-.002l.024.003q.004 0 .004.005l-.063.459q-.001.007-.007.005l-.027-.008a.01.01 0 0 1-.005-.007c.002-.053-.028-.064-.075-.071l-.777-.108q-.005 0-.005.004l-.028.198q0 .005.004.005c.168.023.335.052.503.068.025.002.041-.033.05-.05q.003-.004.007-.004h.025q.008 0 .007.008l-.055.403q-.001.007-.008.005l-.029-.007q-.005-.001-.006-.007c-.006-.038-.011-.063-.052-.068l-.483-.067q-.005 0-.005.004l-.03.216q0 .005.004.005zm-14.483.781c.112-.018.374-.077.322-.246-.027-.087-.127-.092-.201-.086a11 11 0 0 0-.31.031c-.155.018-.341.017-.48-.06-.156-.086-.196-.292-.114-.441.162-.297.659-.363.96-.327l.197.022q.064.006.099-.044a.01.01 0 0 1 .006-.002l.02.005q.007.002.006.01l-.103.384q-.002.007-.009.004l-.024-.009a.01.01 0 0 1-.004-.008c.014-.07-.083-.092-.133-.1a1.2 1.2 0 0 0-.528.038c-.064.02-.151.067-.17.131-.035.122.141.114.203.108.212-.023.432-.06.641-.028.144.022.251.093.298.239.117.361-.257.574-.546.638q-.396.087-.799.007a.02.02 0 0 0-.019.007l-.028.041q-.003.004-.008.003l-.021-.007q-.007-.003-.005-.01l.114-.441q.001-.006.007-.005l.023.001q.004 0 .005.004v.001c-.007.103.172.135.246.144q.177.023.354-.006zm3.502-1.247q.178-.026.358-.051a2 2 0 0 0 .138-.024c.033-.007.036-.034.041-.062q.001-.006.007-.008l.017-.006.002-.001a.013.013 0 0 1 .015.011l.058.394q.002.008-.007.008l-.024.002-.008-.003c-.024-.033-.025-.059-.076-.052l-.478.071q-.004 0-.004.005l.028.212q.001.009.01.007l.792-.117q.057-.009.054-.069 0-.005.005-.007l.027-.007q.006 0 .008.005l.066.454q0 .004-.004.007c-.032.015-.045-.023-.059-.043l-.007-.005a.1.1 0 0 0-.047-.003l-1.244.184q-.005 0-.005-.004l-.002-.029q0-.006.006-.008c.049-.012.051-.043.044-.088l-.17-1.154c-.007-.046-.033-.043-.068-.054q-.005-.002-.005-.006l-.006-.023q0-.006.005-.008l1.237-.182c.051-.007.065-.026.07-.076q0-.005.005-.006l.026-.004q.006-.001.006.005l.066.446c.002.011-.006.02-.016.022a.02.02 0 0 1-.02-.01c-.017-.03-.029-.056-.069-.05q-.402.056-.803.118-.005.001-.005.007l.029.196q.001.004.005.004zm3.968-.017a.01.01 0 0 0-.007.007l.01.378a.3.3 0 0 0 .008.06q.001.004.005.006l.054.022q.004.002.004.005l.001.026q0 .005-.004.005l-.518.012q-.006 0-.006-.006l.002-.027q0-.004.005-.006c.025-.007.059-.02.058-.052l-.029-1.202c-.002-.061-.051-.037-.066-.066a.03.03 0 0 1 0-.025q.002-.004.007-.005l.955-.023c.232-.006.484.06.549.319s-.074.47-.325.541q-.009.003-.004.01.11.168.22.328c.048.071.075.108.152.141q.004.002.005.006l.002.012v.001a.016.016 0 0 1-.014.017h-.001l-.537.013a.01.01 0 0 1-.007-.005c-.023-.05.082-.033.018-.125l-.251-.37-.007-.003-.277.005zm-.021-.591.008.306q0 .003.004.004l.42-.012c.124-.003.224-.068.222-.143l-.001-.04c-.002-.075-.106-.135-.229-.131l-.42.012a.004.004 0 0 0-.004.004m3.59-.285q0-.005.005-.005l.516.021q.005 0 .006.005l.002.022q0 .006-.006.008c-.04.011-.066.024-.068.07q-.026.597-.049 1.194c-.001.026.033.044.061.054q.005.002.005.006l.002.016q.002.015-.014.015l-.505-.021q-.012 0-.012-.013l.002-.015q0-.006.006-.007c.022-.008.062-.02.063-.049l.049-1.229q0-.006-.004-.009a.2.2 0 0 0-.054-.032q-.006-.003-.006-.008zm6.951 1.317c.094-.279.446-.285.677-.232q.243.055.452.19l.172.109q.053.033.105.007l.008-.001q.03.01.008.035l-.226.258-.028.03q-.004.005-.008 0l-.019-.019a.01.01 0 0 1 0-.008c.047-.055-.04-.126-.081-.154a1.1 1.1 0 0 0-.503-.198c-.049-.006-.156.003-.193.051-.071.093.064.155.133.181l.275.102c.163.06.413.17.468.354a.394.394 0 0 1-.186.439c-.16.095-.386.091-.564.047a1.9 1.9 0 0 1-.715-.34c-.025-.019-.043-.019-.065.002l-.001.001q-.028.015-.04-.013a.01.01 0 0 1 .001-.009l.298-.345q.003-.003.007-.001l.019.01q.005.003.003.008c-.037.085.058.167.118.211q.18.132.395.19c.093.025.257.062.334-.021.053-.057.037-.142-.027-.186a.7.7 0 0 0-.148-.074c-.246-.086-.795-.244-.667-.624zM17.24 12.63c.1.037.22.01.288-.068q.057-.065.12-.164a.26.26 0 0 0 .047-.167.3.3 0 0 0-.053-.145 6.3 6.3 0 0 1-.773-1.644 11 11 0 0 1-.252-.986c-.021-.096-.057-.133-.131-.191l-.288-.232a.25.25 0 0 0-.254-.047q-.192.067-.366.082a4 4 0 0 1-.536.008 6.4 6.4 0 0 1-1.172-.162.26.26 0 0 0-.258.083q-.098.114-.192.231a.4.4 0 0 0-.06.099c-.024.062-.024.125-.004.181s.06.12.159.156c.467.171.935.347 1.39.548.029.013.097.04.152.07l.009.005q.06.13.118.282.184.482.304.965.038.152.058.306c.007.06.019.123-.021.17a.24.24 0 0 0-.059.128.26.26 0 0 0 .058.205q.09.113.186.219a.26.26 0 0 0 .196.095.25.25 0 0 0 .176-.068c.137-.123.356-.122.535-.106q.32.028.62.147h.001l.004.001zm.108-.148a.1.1 0 0 1-.051-.006 2.3 2.3 0 0 0-.667-.159c-.221-.019-.488-.005-.659.147a.1.1 0 0 1-.064.026q-.038 0-.075-.04a5 5 0 0 1-.181-.213.1.1 0 0 1-.022-.081.07.07 0 0 1 .017-.037c.074-.083.076-.194.063-.302a3 3 0 0 0-.061-.325 9 9 0 0 0-.31-.983 4 4 0 0 0-.141-.33l-.014-.013-.047-.029c-.059-.032-.133-.062-.164-.076-.458-.202-.93-.379-1.4-.552-.037-.014-.053-.035-.061-.057s-.006-.043.003-.066a.2.2 0 0 1 .034-.055q.093-.116.189-.227a.09.09 0 0 1 .094-.03c.391.095.801.145 1.203.166q.279.015.558-.008.193-.017.407-.09c.03-.011.063-.007.097.02l.288.232c.038.031.062.047.073.097.072.339.154.675.256 1 .19.605.444 1.169.794 1.686a.12.12 0 0 1 .025.063.12.12 0 0 1-.022.07 1 1 0 0 1-.161.171zm-3.578-3.11c.465.171.933.348 1.383.556.031.014.101.046.147.078q.043.03.057.058.08.154.153.345.183.478.306.943.054.206.085.416a.68.68 0 0 1-.048.403l.07.083a1 1 0 0 1 .525-.137q.442-.005.853.149l.015-.02a6.3 6.3 0 0 1-.686-1.375 10 10 0 0 1-.361-1.317l-.258-.206c-.306.098-.649.106-.964.089l-.062-.003h-.001a8 8 0 0 1-.969-.118l-.167-.036-.076.092zm-6.762 5.322.73-.01h.028a.7.7 0 0 1 .376.093l.057-.028a.8.8 0 0 1 .231-.063 3.5 3.5 0 0 0-.079-.493c-.151-.692-.37-1.377-.699-2.006a4 4 0 0 0-.298-.49l-.016.017-.024.023-.018.015v.021a.9.9 0 0 1-.078.363 9 9 0 0 0-.276.667c-.075.205-.161.406-.234.612-.04.112-.107.244-.085.364.015.009.04.024.055.03a.57.57 0 0 1 .347.489v.001q.008.124.003.253a.7.7 0 0 1-.02.142m19.815-4.202c.039.031.084.048.131.062s.13.04.188.047a.3.3 0 0 0 .187-.033l.002-.001a.23.23 0 0 0 .091-.104l.001-.003c.016-.038.025-.085.034-.115q.086-.28.24-.549a1 1 0 0 1 .093-.131.3.3 0 0 0 .075-.141.3.3 0 0 0-.012-.162 12 12 0 0 0-.113-.415.263.263 0 0 0-.42-.139c-.24.178-.524.19-.805.125-.124-.029-.259-.066-.374-.084a2.4 2.4 0 0 0-.499-.03 1.7 1.7 0 0 0-1.566 1.249c-.199.718.056 1.625.6 2.136q.569.534 1.376.48.243-.016.483-.06a8.7 8.7 0 0 0 1.574-.438c.088-.034.162-.072.209-.152l.217-.361a.29.29 0 0 0 .028-.268.26.26 0 0 0-.117-.123.34.34 0 0 0-.202-.019l-.27.08a5.3 5.3 0 0 1-1.224.19c-.285.016-.642.016-.876-.171s-.244-.517-.211-.8q.019-.16.095-.319a1 1 0 0 1 .28-.359.3.3 0 0 1 .198-.07c.118.008.255.014.346.097.111.101.136.289.154.43v.002c.003.025.001.005 0 .001a.23.23 0 0 0 .082.146l.105.038-.104-.037.001.001.001.001zm.34-.055a1.5 1.5 0 0 1-.237-.074.07.07 0 0 1-.024-.042c-.023-.175-.068-.405-.207-.531-.118-.107-.292-.128-.445-.139a.46.46 0 0 0-.307.101 1.2 1.2 0 0 0-.331.42 1.2 1.2 0 0 0-.111.371c-.039.336-.008.723.272.947.265.212.666.226.988.207a5.5 5.5 0 0 0 1.262-.196l.27-.081a.13.13 0 0 1 .076.005q.036.021.046.047c.015.033.006.074-.019.114l-.218.362c-.028.047-.075.063-.127.083q-.752.288-1.544.43a4 4 0 0 1-.465.057 1.6 1.6 0 0 1-1.252-.436c-.503-.472-.738-1.309-.554-1.972a1.54 1.54 0 0 1 1.415-1.128q.225-.011.464.028c.111.018.243.055.363.082.329.076.66.055.94-.153.036-.026.07-.03.097-.022a.1.1 0 0 1 .067.075q.06.204.112.41a.2.2 0 0 1 .01.087.14.14 0 0 1-.036.065 1 1 0 0 0-.113.159q-.164.285-.255.583c-.008.025-.014.066-.028.098v.001a.1.1 0 0 1-.027.031l-.043.012a.2.2 0 0 1-.038-.001zm-.078-.222.031.008q.084-.269.231-.539.075-.138.156-.24l-.074-.272a1.27 1.27 0 0 1-.858.139h-.001a1.5 1.5 0 0 1-.211-.043c-.105-.026-.216-.056-.319-.07-.366-.051-.71-.012-1.03.186-.532.331-.713.923-.61 1.523.059.35.212.698.456.959.325.349.735.493 1.209.454q.288-.024.572-.085h.001q.672-.135 1.338-.384c.027-.01.041-.015.057-.041l.079-.13a4.5 4.5 0 0 1-.71.154 9 9 0 0 1-.358.038h-.001l-.4.027h-.004l-.126-.001h-.001c-.427-.01-.87-.127-1.088-.531-.124-.231-.141-.509-.126-.766.02-.329.159-.635.383-.877a.9.9 0 0 1 .359-.244.7.7 0 0 1 .343-.014q.121.012.238.052h.001c.309.111.417.402.464.695zm-11.831 3.038a.1.1 0 0 0-.076-.029h-.136a.112.112 0 0 0-.114.107l-.026.373c-.003.039.012.067.03.087s.045.036.084.036h.125a.12.12 0 0 0 .092-.044v.6h-.005a.115.115 0 0 0-.113.114l-.001.142a.114.114 0 0 0 .111.114h.635c.037 0 .063-.015.081-.033s.033-.044.033-.081v-.14c0-.038-.015-.064-.034-.082s-.044-.033-.08-.033v-.599l.016.016a.1.1 0 0 0 .075.027h.126a.1.1 0 0 0 .068-.022v.622a.1.1 0 0 0-.036.024.1.1 0 0 0-.033.081v.102a.12.12 0 0 0 .119.118l.472-.003a.1.1 0 0 0 .054-.013q.023.015.06.016h.001l.473-.003h.001c.037-.001.062-.016.08-.034s.033-.044.033-.081v-.094a.53.53 0 0 0 .208.182c.251.124.602.051.808-.227q.027-.04.023-.077c-.004-.037-.01-.049-.031-.073l-.063-.068c-.027-.029-.057-.038-.084-.038s-.057.007-.084.036l-.001.001a.18.18 0 0 1-.186.054l.37-.136h.001a.117.117 0 0 0 .066-.154l-.006-.016c-.094-.268-.264-.448-.568-.44a.565.565 0 0 0-.523.387v-.033a.34.34 0 0 0-.133-.283.4.4 0 0 0-.288-.069.5.5 0 0 0-.17.053v-.078a.11.11 0 0 0 .068-.105v-.115c0-.05-.024-.079-.049-.096s-.058-.031-.106-.014l-.454.157-.004-.058v-.001a.114.114 0 0 0-.114-.105h-.136a.1.1 0 0 0-.076.029h-.587zm.572.109h.081q.005 0 .005-.005v-.019q0-.005.005-.005h.136q.005 0 .005.005l.026.375q0 .004-.004.004h-.126q-.006 0-.007-.006c-.018-.105-.072-.182-.189-.174q-.006 0-.005.006v.947q0 .004.004.004l.103-.002q.006 0 .006.006v.14q0 .005-.005.005h-.633q-.003 0-.003-.003l.001-.143q0-.005.005-.005l.107-.001q.005 0 .005-.005v-.946q0-.005-.005-.005c-.123 0-.167.065-.189.176q-.001.005-.007.005h-.125q-.005 0-.005-.005l.026-.374q0-.005.005-.005h.136q.004 0 .004.005v.021q0 .004.004.004h.641l-.022-.022v-.001l.023.023zm1.49 1.073-.012-.007V14.4zm-.578-.401.003.393-.014.007-.015-.007v-.383l.003-.002a.1.1 0 0 1 .023-.008m-.131.494.065.002q.003 0 .003.004l-.001.103q0 .005-.005.005l-.472.003a.01.01 0 0 1-.009-.009v-.102q0-.005.005-.005h.058a.01.01 0 0 0 .006-.006v-.924q0-.005-.005-.005h-.002l-.053.018q-.004.001-.004-.003V13.5q0-.003.003-.004l.465-.16q.009-.003.009.006v.115l-.003.005-.059.02q-.005.001-.005.007v.355q0 .004.004.004c.004 0 .002 0 .003-.001a.54.54 0 0 1 .286-.151c.165-.018.296.062.299.245q.003.126 0 .583 0 .005.006.005h.057q.006 0 .006.006v.101q0 .005-.005.005l-.473.003q-.006 0-.006-.006v-.104q0-.006.006-.006h.058a.01.01 0 0 0 .009-.009l-.003-.492c-.001-.149-.176-.123-.239-.034-.009.013-.006.032-.006.047v.481q0 .005.005.006zm1.692-.096c-.286.385-.903.311-.92-.239a.47.47 0 0 1 .45-.498c.249-.007.384.146.461.366l.008.022.001.003a.01.01 0 0 1-.005.007l-.522.192q-.003.002-.002.005c.082.195.323.207.457.064q.004-.004.008 0l.063.068q.004.005.001.011zm-.456-.572a.1.1 0 0 0-.13.007c-.06.063-.024.2-.001.272q.002.005.005.003l.228-.086q.005-.001.003-.007a.37.37 0 0 0-.106-.189zm-.052.136-.001-.006-.001-.03q.01.013.02.029zm2.544-3.562a.24.24 0 0 0 .171.184l.189.052a.262.262 0 0 0 .335-.195c.049-.202.139-.402.242-.582a1 1 0 0 1 .106-.149c.072-.083.089-.146.063-.25a10 10 0 0 0-.124-.453.26.26 0 0 0-.105-.144.27.27 0 0 0-.163-.045.23.23 0 0 0-.13.046l-.002.001a.8.8 0 0 1-.426.166 1.6 1.6 0 0 1-.432-.037c-.424-.079-.854-.183-1.289-.141-.644.062-1.147.45-1.339 1.073a2.2 2.2 0 0 0-.097.792c.047.846.751 1.769 1.622 1.894.259.038.504-.031.777-.103q.186-.048.402-.069a.37.37 0 0 1 .351.19.3.3 0 0 0 .044.065.23.23 0 0 0 .111.07q.12.035.243.066a.28.28 0 0 0 .238-.04.25.25 0 0 0 .103-.206 1.4 1.4 0 0 0-.011-.176 1.7 1.7 0 0 1 .003-.486c.036-.191.138-.35.386-.401.033-.007.088-.014.128-.031a.262.262 0 0 0 .124-.384 10 10 0 0 0-.142-.24.26.26 0 0 0-.098-.092.5.5 0 0 0-.154-.048 3 3 0 0 0-.389-.02 7 7 0 0 0-1.036.079 1 1 0 0 0-.183.049.3.3 0 0 0-.158.151l-.069.185a.26.26 0 0 0 .045.271c.049.056.13.1.242.086a.4.4 0 0 1 .131.005c-.171.06-.363.088-.542.06-.382-.06-.486-.414-.519-.752a1.4 1.4 0 0 1 .001-.314c.036-.292.231-.595.535-.663.139-.031.305.013.45.051q.281.073.34.359zc.005.024.001.004 0 .001zm.405.077-.189-.052a.08.08 0 0 1-.054-.058l-.026-.129a.59.59 0 0 0-.459-.484c-.17-.044-.364-.089-.528-.052-.371.082-.618.447-.662.803a1.6 1.6 0 0 0-.001.35c.04.412.192.825.658.899.215.034.448-.002.651-.077a.4.4 0 0 0 .133-.076c.028-.025.05-.056.036-.093-.02-.05-.066-.084-.119-.107a.6.6 0 0 0-.285-.038c-.045.005-.078-.009-.098-.032s-.031-.059-.014-.107l.067-.181c.008-.02.031-.043.068-.059a1 1 0 0 1 .144-.038 7 7 0 0 1 1.012-.077c.051 0 .24-.001.362.018a.3.3 0 0 1 .101.03q.027.016.037.034.072.117.14.236c.023.04.022.071.014.093q-.014.038-.058.057c-.044.019-.072.016-.097.021-.549.112-.566.624-.52 1.066q.01.106.01.155c-.001.04-.017.063-.037.078-.024.018-.061.022-.1.012q-.12-.03-.239-.065a.1.1 0 0 1-.036-.023.1.1 0 0 1-.016-.024.55.55 0 0 0-.515-.283 2.6 2.6 0 0 0-.428.074c-.251.066-.474.134-.712.099-.799-.115-1.439-.965-1.481-1.741a2.1 2.1 0 0 1 .09-.735c.171-.557.622-.902 1.197-.958.42-.041.834.063 1.244.138.16.03.32.053.476.039a.97.97 0 0 0 .512-.199h.001a.1.1 0 0 1 .039-.014.1.1 0 0 1 .065.017q.028.018.039.055.066.222.122.446c.011.043.003.069-.027.103a1 1 0 0 0-.125.176 2.4 2.4 0 0 0-.26.625.1.1 0 0 1-.049.069.1.1 0 0 1-.083.007zm.052 1.953.065.018c-.029-.3-.037-.639.118-.905a.8.8 0 0 1 .505-.364l-.055-.093a3 3 0 0 0-.29-.019 5.6 5.6 0 0 0-1.116.092h-.001l-.001.004a.7.7 0 0 1 .304.089c.083.049.147.12.172.213a.26.26 0 0 1-.037.211c-.097.15-.313.215-.479.25-.365.077-.758.05-1.032-.233-.265-.273-.339-.719-.325-1.084a1.2 1.2 0 0 1 .298-.778.92.92 0 0 1 .683-.339q.07-.002.18.015c.13.019.258.044.383.089.31.11.457.351.514.658l.028.007q.1-.32.272-.61.048-.08.106-.152l-.072-.263c-.328.188-.68.177-1.047.104-.327-.064-.551-.114-.832-.135-.48-.036-.944.104-1.216.523-.15.242-.213.526-.222.807-.016.503.215.99.575 1.334.244.233.593.421.938.387q.06-.006.17-.033c.252-.062.492-.125.752-.146.262-.021.527.135.664.352z"/></svg>