<svg xmlns="http://www.w3.org/2000/svg" width="19" height="32"><path fill="currentColor" d="M0 22.678V9.173l9.6-3.691 9.6 3.691v10.871c-3.007 0-6.031-.103-9.327.23a6 6 0 0 0 1.146-.551q1.344-.833 2.046-2.318c.702-1.485.701-2.175.701-3.555q0-1.485-.454-2.533-.446-1.047-1.361-1.592-.908-.553-2.235-.553-1.32 0-2.285.462c-.965.462-1.138.751-1.485 1.328q-.511.858-.511 1.955 0 .998.338 1.749.339.743 1.015 1.163.685.412 1.658.412.858 0 1.468-.198.618-.198 1.254-.635l.082.033a9 9 0 0 1-.231 1.237 5 5 0 0 1-.412 1.097q-.264.495-.66.883a3 3 0 0 1-.751.544q-.42.214-.899.313-.405.09-.94.099v.594l.31.352a36.5 36.5 0 0 0-7.666 2.117zm19.2-2.634v6.475l-4.342-.027c-2.072-.001-3.481-.138-4.439-.869-.07-.057-.155-.123-.231-.195-.063-.063-.14-.137-.208-.216-.057-.071-.117-.142-.177-.226-.068-.099-.137-.194-.203-.311-.057.092-.127.208-.2.307-.052.068-.114.154-.18.228a3 3 0 0 1-.439.412c-.958.731-2.367.868-4.439.869L0 26.518c6.245-3.934 11.717-5.754 19.2-6.475zm-9.798-4.932q-1.527 0-1.526-2.4 0-.578.091-1.056.09-.486.297-.833.214-.347.544-.536.338-.19.825-.19.833 0 1.262.866.437.858.437 2.475 0 .355-.049.561-.042.206-.107.313c-.065.107-.135.165-.272.28q-.198.165-.437.289-.231.116-.495.173a2.2 2.2 0 0 1-.569.058z"/></svg>