<svg xmlns="http://www.w3.org/2000/svg" width="100%" height="100%" viewBox="0 0 24 24"><path fill="currentColor" d="M4.63 20.418c-.523-3.87.834-7.884 3.579-10.629q2.51-2.51 5.908-3.358c-.901-2.302.147-5.243 2.769-5.898.232-.058.805-.15 1.103-.078a.9.9 0 0 1 .548.368c.011.019.333.605-.175.992-.071.054-.426.323-.472.353l-.002.002c-.429.285-.696.662-.729 1.067-.031.391.169.78.571 1.104.988.797 1.982.979 3.109 1.342q2.47.798 4.237 2.117c1.418 1.057 2.286 2.024 3.129 3.413.763 1.258 1.426 2.763 1.685 4.121.596 3.112.384 6.681-.935 9.602-.246.545-.566 1.425-.584 2.208-.008.353.024.691.264.896.563.48 1.453.317 1.998-.102l.004-.003a.824.824 0 0 1 1.238.298v.001c.16.331.168.679-.002 1.044-.584 1.252-1.455 2.223-2.906 2.405-.858.108-2.055-.354-2.67-.796h-.001c-.382-.275-.784-.675-1.213-.796-.534-.148-.969.026-1.408.228-.414.191-.828.415-1.281.579-2.439.881-5.121 1.104-7.695.902-3.58-.282-6.595-2.334-8.499-5.339-.19-.3-.342-.62-.514-.918-.165-.287-.34-.562-.692-.69h-.001c-.555-.202-1.286-.275-1.765.098a3.2 3.2 0 0 0-1.184 1.864l-.001.004c-.08.343-.271.49-.37.551l-.004.003q-.016.01-.032.018a.85.85 0 0 1-1.151-.337l-.015-.029v-.001c-.589-1.185-.621-2.475-.136-3.708.663-1.687 2.42-2.947 4.293-2.895zm4.094-10.115c-2.783 2.783-4.052 6.949-3.229 10.843q.013.059-.047.058a6 6 0 0 1-.563-.04c-1.671-.186-3.281.919-3.869 2.415-.408 1.036-.385 2.122.11 3.118l.002.004a.12.12 0 0 0 .163.048l.004-.003q.024-.015.043-.096a3.9 3.9 0 0 1 1.446-2.277c.67-.521 1.687-.49 2.462-.207.884.322 1.11 1.174 1.571 1.903 1.781 2.811 4.594 4.74 7.942 5.003 2.472.195 5.048-.015 7.391-.861 1.083-.392 1.93-1.159 3.132-.824.504.141.994.583 1.443.906.498.358 1.46.752 2.154.665 1.181-.148 1.862-.972 2.337-1.99a.46.46 0 0 0 .006-.42.1.1 0 0 0-.086-.054.1.1 0 0 0-.058.019c-.794.61-2.093.779-2.914.079-1-.852-.332-2.935.129-3.957 1.259-2.788 1.452-6.196.883-9.166-.245-1.28-.874-2.696-1.593-3.881-.792-1.305-1.609-2.213-2.942-3.207q-1.679-1.25-4.026-2.008c-1.215-.391-2.277-.609-3.342-1.468-1.243-1.002-1.068-2.493.211-3.343.047-.031.447-.336.447-.336-.106-.159-.67-.038-.87.012-2.457.613-3.216 3.651-1.91 5.616a.07.07 0 0 1 .012.038.07.07 0 0 1-.057.069q-3.723.681-6.383 3.342zm16.7 17c-.07.021-.115.078-.1.127s.084.072.154.051.115-.078.1-.127-.084-.072-.154-.051m-3.289-2.49a.38.38 0 0 1 .011.263l-.001.008c0 .015.013.028.028.028h.001l.101-.004q.027-.001.031-.028.042-.321.246-.569.016-.02.005-.043l-.068-.138a.056.056 0 0 0-.087-.017c-.211.182-.395.171-.655.073-.579-.218-1.437-.109-1.601.606q-.234 1.019.677 1.493a.52.52 0 0 0 .393.053c.386-.116.826-.294 1.099.128a.03.03 0 0 0 .026.014l.117-.002q.034-.001.023-.033c-.136-.423-.046-.658.324-.888a.03.03 0 0 0 .016-.028q.006-.137-.121-.128-.54.039-.834.024c-.069-.003-.116.025-.112.097q0 .016.017.021l.25.064a.04.04 0 0 1 .022.017c.252.455-.481.445-.699.404a.66.66 0 0 1-.548-.496q-.178-.618.265-1.057.099-.098.171-.105c.209-.022.805.009.904.243zm-5.024 2.602a11 11 0 0 0-.939-2.282c-.111-.202-.108-.513-.109-.735l-.001-.011a.083.083 0 0 0-.093-.071l-.011.002a.7.7 0 0 1-.296.032 10 10 0 0 0-.767-.075.1.1 0 0 0-.105.086c-.014.103.162.171.258.239.162.114.287.294.165.484a3 3 0 0 1-.321.413.07.07 0 0 0-.014.071c.042.114.221.291.343.16a.04.04 0 0 1 .033-.013q.146.002.215.105c.213.318.976 1.692.601 2.045-.076.072-.324.207-.288.323a.08.08 0 0 0 .075.056.1.1 0 0 0 .046-.015c.446-.32 1.213-.245 1.694-.07.079.029.159.035.178-.064a.04.04 0 0 0-.011-.038c-.198-.203-.575-.369-.652-.641zm.5-1.484c-.037-.206.308-.457.256-.713a.06.06 0 0 0-.021-.034.2.2 0 0 0-.175-.04c-.135.028-.146.243-.189.33-.081.166-.721 1.049-.145 1.055.135.001.403.027.52-.032.093-.047.17-.236.226-.327.038-.062.097-.094.154-.138a.05.05 0 0 0 .019-.033c.083-.676-.426-.2-.582-.048a.037.037 0 0 1-.062-.019zm1.118-4.504a1 1 0 0 0 .201.043.38.38 0 0 0 .345-.213.4.4 0 0 0 .044-.389l-.003-.008c-.148-.387-.447-.507-.819-.499a.4.4 0 0 0-.085.01.5.5 0 0 0-.161-.056 1.2 1.2 0 0 0-.39-.01c-.34.049-.658.127-.963.234l-.145-.471q-.01-.035.025-.04c.417-.061 2.527-.289 2.887-.282.021 0 .038.016.041.037q.071.582.453.99c.236.253.574.364.905.419.16.026.286-.013.462-.065q.774-.23.96-1.064c.177-.794.093-2.099-.811-2.455-.728-.286-1.522.017-2.051.575-.012.012-2.526-.252-2.522-.28 0 0 .876-5.582.897-5.582l6.96.018c.019 0 .007 2.212-.001 2.212l-4.619.034c-.031 0-.273 1.569-.268 1.567a5.8 5.8 0 0 1 1.449-.372c.111-.014.219-.005.328-.027.485-.101 1.341.169 1.799.386 1.424.674 2.088 2.127 1.762 3.691-.152.729-.438 1.385-.928 1.914l-.024-.006a.57.57 0 0 0-.449.094c-.108.072-.218.2-.296.298a.5.5 0 0 0-.177-.046l-.227-.013h-.001a.46.46 0 0 0-.279.077.43.43 0 0 0-.226.003 1 1 0 0 0-.169.063.59.59 0 0 0-.497-.188c-.171.01-.39.088-.536.15a.46.46 0 0 0-.183-.132.53.53 0 0 0-.467.017.5.5 0 0 0-.167-.016h-.003l-.362.023q0 .011-.002.022c-.012.055-.081.087-.153.071a.14.14 0 0 1-.102-.077l-.075.005h-.002a.5.5 0 0 0-.109.021.4.4 0 0 0-.173-.048.7.7 0 0 0-.355.103l-.001.001-.172.098a.47.47 0 0 0-.306-.245.8.8 0 0 0-.581.051.45.45 0 0 0-.43-.038l-.014.006a6 6 0 0 1-.436-.426.03.03 0 0 1-.009-.022c0-.018.014-.032.031-.032l.006.001c.151.031.231-.074.237-.192q.149-.074.391-.174a2 2 0 0 0 .115-.021l.018.011.4.232.003.002.026.012.004.001zm-.004-.001.003.002-.004-.001zm4.77 6.142q-.021.015-.021-.011v-.164a.04.04 0 0 1 .019-.034q.045-.027.028-.079a.03.03 0 0 0-.026-.019l-.008.001-.289.093a.04.04 0 0 0-.028.039q0 .019.014.031l.033.028q.015.014.015.033l-.005.516a.05.05 0 0 1-.021.043q-.04.031-.024.088a.034.034 0 0 0 .033.025h.27q.088 0 .037-.072l-.043-.059a.02.02 0 0 1-.004-.014v-.296q.002-.026.026-.035l.057-.016.015-.002c.03 0 .054.024.054.054v.289q0 .025-.018.042a.09.09 0 0 0-.026.086.03.03 0 0 0 .027.022h.276q.027 0 .034-.026.016-.054-.024-.086a.04.04 0 0 1-.017-.036c.011-.244.017-.723-.384-.441m-5.171-2.462a.04.04 0 0 0-.022-.02l-.244-.073-.005-.001a.018.018 0 0 0-.015.028.42.42 0 0 1 .057.341l-.001.005c0 .012.01.021.021.021a.36.36 0 0 1 .271.107.05.05 0 0 0 .034.014.05.05 0 0 0 .049-.049l-.003-.018-.142-.356zm1.185 2.465q-.021.015-.021-.012l.007-.178a.04.04 0 0 1 .015-.03q.036-.028.021-.076-.007-.023-.031-.015l-.272.09a.05.05 0 0 0-.03.034q-.008.037.022.057a.05.05 0 0 1 .022.037q.035.332-.031.655-.006.027.022.026l.277-.007q.021 0 .024-.021a.1.1 0 0 0-.028-.088.04.04 0 0 1-.012-.03v-.295q0-.017.013-.028a.11.11 0 0 1 .119-.018q.019.009.02.03v.303a.06.06 0 0 1-.015.039.09.09 0 0 0-.022.091q.007.024.033.024l.268-.005c.016 0 .03-.013.031-.03a.11.11 0 0 0-.035-.09.05.05 0 0 1-.015-.035c.004-.224.045-.71-.381-.428zm3.644-3.244a.1.1 0 0 0-.011.037.07.07 0 0 0 .043.064c.152.062.303.186.322.363.057.527.221 1.423-.316 1.775a.03.03 0 0 0-.016.03.13.13 0 0 0 .057.114.06.06 0 0 0 .073-.003 1.14 1.14 0 0 1 1.033-.261.04.04 0 0 0 .036-.012c.052-.059.015-.116-.045-.154-.366-.234-.213-1.21-.195-1.604q.008-.174.192-.295a.03.03 0 0 0 .013-.032c-.023-.094-.086-.11-.176-.086a1.8 1.8 0 0 1-.884.014q-.081-.018-.126.05m-11.025 1.252a.03.03 0 0 0 .003.036c.063.077.232.175.333.124.079-.04.166-.239.197-.318a.07.07 0 0 1 .084-.04c.772.249 1.222 2.079 1.353 2.778.013.068.016.196.057.286l.005.01a.07.07 0 0 0 .105.014l.671-.602a.19.19 0 0 0 .046-.216 23 23 0 0 0-.248-.541c-.148-.312-.049-.543.063-.902q.099-.32-.21-.459a.1.1 0 0 0-.021-.004.05.05 0 0 0-.048.035c-.027.085-.172.4-.295.19-.362-.617-.616-1.149-.976-1.521a.14.14 0 0 0-.113-.042q-.465.042-.96-.011c-.112-.012-.183.044-.222.14l-.002.008q.001.018.019.022c.642.1.36.672.159 1.016zm9.444 2.383q-.002.02-.021.02c-.38.011-.271-.783-.046-.564q.012.013.005.03a.07.07 0 0 0 .004.079.06.06 0 0 0 .084.016l.2-.134a.04.04 0 0 0 .018-.022.05.05 0 0 0-.03-.068.1.1 0 0 0-.029-.004.13.13 0 0 1-.066-.015c-.321-.153-.655.088-.665.421-.011.398.319.568.664.353l.009-.003q.013 0 .017.013.017.072.087.066a.03.03 0 0 0 .025-.027l.017-.476v-.001a.043.043 0 0 0-.041-.043h-.001l-.345.001q-.022 0-.022.022v.065q0 .026.026.026h.092q.027 0 .026.028l-.011.214zm-9.658-.126a.04.04 0 0 1-.02-.02c-.203-.498.232-1.284.463-1.699a.03.03 0 0 0-.005-.038.5.5 0 0 0-.289-.148.056.056 0 0 0-.062.038q-.219.657-.48 1.31c-.142.356-.392.721-.742.898a.04.04 0 0 0-.021.023q-.036.092.041.151c.012.01.03.01.043.002a1.62 1.62 0 0 1 1.206-.252.05.05 0 0 0 .047-.019q.06-.08.008-.167a.01.01 0 0 0-.009-.008zm6.671-.443.005-.002a.023.023 0 0 1 .028.017l.001.005v.579a.04.04 0 0 1-.022.038l-.026.013q-.022.012-.019.036l.007.053q.003.024.026.024h.339a.06.06 0 0 0 .039-.014.058.058 0 0 0-.028-.102q-.005 0-.014-.006a.03.03 0 0 1-.019-.03l.001-.59v-.002c.001-.01.011-.017.021-.016h.002q.075.017.08.095.002.023.024.023l.07.001a.024.024 0 0 0 .024-.024v-.002l-.012-.206a.06.06 0 0 0-.06-.057.1.1 0 0 0-.034.01l-.042.028a.04.04 0 0 1-.02.006c-.134 0-.366.028-.482-.043l-.009-.004a.043.043 0 0 0-.055.037l-.02.22v.001a.03.03 0 0 0 .029.032h.056a.03.03 0 0 0 .027-.021.14.14 0 0 1 .079-.102zm-.036-2.374q.286.604.277 1.27c-.001.096.025.216.146.186.337-.081.521-.031.825.035.105.023.12-.07.071-.138a3.9 3.9 0 0 1-.531-1.041c-.065-.196-.09-.425-.127-.638-.033-.198-.082-.319-.306-.292a3.7 3.7 0 0 1-1.435-.107.04.04 0 0 0-.035.006c-.098.065-.08.15.019.204q.432.235.911.34c.085.018.152.106.184.176zm-6.985-14.826a2 2 0 0 1-.185.107.7.7 0 0 1-.328.109q-.032 0-.126-.025c-.094-.025-.113-.025-.151-.025q-.256 0-.429.18c-.173.18-.173.265-.173.436q0 .242.167.438.17.207.409.21.726.014 1.036-.167l-.264-.005q-.21-.005-.121-.005-.018 0-.043-.023c-.025-.023-.025-.029-.025-.041q0-.057.149-.089a1 1 0 0 1 .185-.021q.466 0 .623-.374a.4.4 0 0 0 .039-.139.75.75 0 0 1-.246.182q-.06.028-.256.082.054-.082.199-.232c.145-.15.164-.182.199-.247a.6.6 0 0 0 .082-.318q0-.333-.292-.705l.068.173q.057.148.057.245 0 .076-.039.108-.228-.822-1.075-.822a2 2 0 0 0-.224.018q-.19.021-.203.039l.171.014q.474.042.474.164 0 .046-.345.103.195.064.221.064.082 0 .182-.053c.1-.053.116-.053.149-.053q.106 0 .175.11.06.093.061.207 0 .089-.043.089-.032 0-.093-.089l-.064-.1a.2.2 0 0 0-.007.05q0 .15.137.278c.137.128.187.131.287.135a.6.6 0 0 1-.05.199q-.05.136-.114.16-.043-.043-.043-.121 0-.036.023-.11c.023-.074.023-.085.023-.107q-.035.014-.08.077c-.045.063-.047.076-.052.105a1 1 0 0 0-.014.256q.01.093-.078.207c-.088.114-.12.114-.182.114a.24.24 0 0 1-.11-.025q-.064-.032-.064-.085 0-.086.153-.174.213-.128.249-.501zm0 0zm13.43 17.556q0-.031.033-.03l.132.009a.03.03 0 0 0 .027-.018l.055-.168q.008-.025-.017-.033-.174-.06-.261.067-.012.018-.031.004l-.107-.083a.027.027 0 0 0-.038.004l-.099.119q-.025.031-.021.058.008.038.057.041a.024.024 0 0 1 .022.023v.256a.06.06 0 0 1-.014.037.11.11 0 0 0-.026.104q.004.018.023.019l.296.003a.053.053 0 0 0 .051-.052.05.05 0 0 0-.041-.051.05.05 0 0 1-.024-.011q-.022-.02-.022-.03zm.333.246-.002.011-.05.105-.003.013c0 .016.013.03.029.03l.274.007q.025 0 .033-.024.017-.059-.025-.095a.04.04 0 0 1-.013-.027v-.501q0-.026-.025-.019l-.241.07-.012.006c-.018.012-.022.038-.01.056l.009.009.02.015q.015.01.014.028v.317zm.714-.418q-.021.018-.022-.01v-.051a.024.024 0 0 0-.024-.024l-.007.001-.233.064c-.018.005-.031.022-.031.041s.009.037.026.051a.04.04 0 0 1 .014.031v.305a.1.1 0 0 1-.008.039l-.035.086q-.017.04.027.042l.273.008q.021 0 .03-.018.027-.057-.02-.098a.04.04 0 0 1-.013-.03v-.303q0-.021.021-.026l.097-.023.004-.001a.03.03 0 0 1 .032.025v.317l-.001.007-.044.105q-.016.039.025.039l.278.004a.03.03 0 0 0 .03-.021q.021-.06-.027-.097a.04.04 0 0 1-.016-.034c0-.116.03-.374-.044-.459-.088-.1-.235-.054-.331.029zm.512-7.785-.612.313v.292h-.225v.445h.225v.561q0 .267.052.386c.052.119.088.139.16.178q.108.058.336.058.196 0 .423-.049l-.045-.421a.7.7 0 0 1-.189.039q-.075 0-.105-.051a.3.3 0 0 1-.019-.135v-.565h.336v-.445h-.336zm.627 0v2.198h.61v-.765q0-.217.069-.301c.069-.084.106-.084.18-.084q.1 0 .156.062c.056.062.055.112.055.212v.875h.613v-1.012q0-.313-.143-.465c-.143-.152-.226-.151-.392-.151q-.168 0-.291.055c-.123.055-.164.098-.247.184v-.81h-.61zm-12.976 2.536.2.188a.034.034 0 0 0 .039.007c.157-.07.286-.205.386-.276q.43-.31.867-.61c.712-.489 1.411-.791 2.254-.909a.8.8 0 0 1 .267.008q.042.007.001.019c-.049.014-.107.011-.15.028q-.512.206-.681.325a8.8 8.8 0 0 0-1.582 1.419q-.486.561-.765.87c-.103.114-.265.396-.376.458-.105.058-.156-.053-.136-.14.03-.138.072-.266.04-.407-.029-.126-.058-.292-.168-.376a.033.033 0 0 0-.042 0q-.198.145-.685.543-.455.37-1.213.755c-.061.031-.745.329-1.396.247a2.2 2.2 0 0 1-.508-.104c-.291-.11-.327-.33-.281-.606a.04.04 0 0 0-.015-.04c-.205-.162-.367-.356-.383-.627-.008-.132.041-.495.181-.703.186-.276.362-.431.565-.556a2.8 2.8 0 0 1 .636-.299c.263-.09.6-.08.855-.212a4 4 0 0 1 1.459-.453c.212-.022.821.043.936.287.17.36.006.881-.303 1.125q-.023.018-.001.038zm-4.129.674c0 .018-.01.121-.009.125.019.189.018.365.211.442q.016.006.016-.011c-.002-.246.156-.666.293-.872.244-.367.534-.637.875-.945a1 1 0 0 1 .137-.098q.166-.1-.024-.062c-.585.117-1.433.765-1.499 1.418zm.34.896c.211.672 1.311.485 1.744.276q.406-.195.992-.603c.346-.241.735-.574 1.112-.852q.021-.015.006-.038l-.114-.162a.1.1 0 0 0-.154-.014c-.616.605-1.186 1.011-2.018 1.248-.522.149-1.004.226-1.523.096l-.009-.001a.04.04 0 0 0-.039.039l.002.012zm4.304-.549.033-.017a.1.1 0 0 0 .028-.025c.39-.505.832-.998 1.33-1.397.281-.225.547-.485.863-.666q.26-.149.532-.292a.03.03 0 0 0 .016-.027.03.03 0 0 0-.031-.031l-.008.001c-.46.124-.867.3-1.281.57-.582.378-1.174.816-1.651 1.323a.05.05 0 0 0-.014.055l.131.484a.035.035 0 0 0 .034.027.03.03 0 0 0 .017-.005zm1.084-1.384q.034-.04-.014-.018a2.3 2.3 0 0 0-.447.285q-.021.017.005.025c.203.06.332-.142.456-.293zm-5.296 1.679c.13.058.24.12.385.13 1.217.09 2.179-.697 3.031-1.461q.013-.012 0-.025c-.217-.197-.418-.381-.691-.504-.385-.173-.658-.293-1.05-.282-.302.008-.947.653-1.143.888-.203.246-.594.881-.557 1.219a.04.04 0 0 0 .025.034zm1.83-2.232c.681.091 1.147.302 1.759.753.012.009.03.008.041-.002.258-.228.476-.567.222-.898-.309-.404-1.71-.224-2.032.119l-.003.004c-.004.008 0 .018.008.022zm6.208-.603.411.232.01.003a.02.02 0 0 0 .02-.02l-.001-.007c-.076-.195-.243-.233-.435-.229a.01.01 0 0 0-.011.011q0 .007.006.01m5.688 2.937.002.005a.05.05 0 0 0 .069.019l.005-.003c.418-.307.853-.632 1.204-1.016a.07.07 0 0 1 .037-.022c.077-.019.511-.218.523-.214a.035.035 0 0 1 .025.034q0 .016-.011.025-.5.488-.985.947a.6.6 0 0 0-.089.138q-.011.02.003.039c.049.063.111.044.165-.004a14 14 0 0 1 1.361-1.058c.073-.049.158-.073.238-.107q.042-.017.008.013c-.245.213-.462.467-.76.644-.167.099-.275.212-.406.342-.053.052-.128.065-.171.119q-.215.269-.582.184a.05.05 0 0 1-.034-.026q-.042-.076.02-.151a.04.04 0 0 0 .008-.017c.003-.019-.011-.036-.03-.039a.04.04 0 0 0-.019.002l-.575.254a.12.12 0 0 1-.167-.109v-.154q0-.033-.033-.033a.45.45 0 0 0-.268.09c-.258.186-.687.348-.99.156-.377-.239.441-.582.578-.64.092-.04.149-.117.25-.156a.1.1 0 0 0 .034-.025q.149-.193.341-.337a1 1 0 0 0 .181-.172c.08-.1.254-.351.399-.318a.033.033 0 0 1 .026.033.04.04 0 0 1-.01.024c-.169.171-.416.391-.487.618-.077.243-.146.437-.294.647a.04.04 0 0 0-.008.023.043.043 0 0 0 .041.044.1.1 0 0 0 .024-.006c.233-.139.441-.352.638-.504q.16-.125.309-.264c.117-.111.7-.434.839-.297q.013.013.013.032a.045.045 0 0 1-.041.044c-.107.009-.184.001-.276.061a5 5 0 0 0-.827.656c-.059.059-.281.327-.285.43a.1.1 0 0 0 .007.051zm-1.292.001c.24.054.377-.018.54-.207.162-.187.342-.371.415-.614l.001-.008a.03.03 0 0 0-.021-.027l-.096-.024q-.021-.005-.035.013c-.092.124-.173.252-.298.344-.168.123-.428.236-.553.394a.082.082 0 0 0 .046.129zm-5.028-.947h-.008q-.012-.004-.01-.016l.004-.007.305-.28a.05.05 0 0 0 .015-.034.045.045 0 0 0-.045-.045.04.04 0 0 0-.019.004 1.4 1.4 0 0 0-.409.251q-.403.354-.814.702c-.158.134-.353.231-.53.352q-.02.013 0 .026.037.026.074.008.259-.124.52-.258.06-.03.024.026l-.109.175a.04.04 0 0 0-.007.025.047.047 0 0 0 .068.042.3.3 0 0 0 .057-.042c.351-.333.739-.7 1.15-.929q.284-.158.595-.28a.02.02 0 0 1 .014-.001.026.026 0 0 1 .022.031l-.006.013a2 2 0 0 1-.378.352c-.25.178-.687.462-.566.823a.07.07 0 0 0 .054.044c.324.04.474-.169.736-.298q.005-.002.009-.002c.011 0 .021.009.021.021v.004l-.042.225a.027.027 0 0 0 .02.032c.276.071.637-.151.86-.3l.009-.003q.015.001.016.016l-.001.006a.4.4 0 0 0-.021.232c.006.03.03.054.061.058a.7.7 0 0 0 .427-.075 4.4 4.4 0 0 0 1.406-1.167.063.063 0 0 0-.03-.089c-.095-.037-.172.017-.228.099-.194.286-1.243 1.158-1.488 1.156q-.036 0-.021-.032c.106-.232.504-.627.793-.788q.267-.15.487-.372.036-.036-.015-.033l-.712.043a.056.056 0 0 0-.052.056c0 .026.017.048.042.054.116.029.266-.086.356-.031q.016.01.016.029a.03.03 0 0 1-.02.031 5 5 0 0 0-.909.542c-.226.164-.427.302-.682.331h-.001a.034.034 0 0 1-.037-.03v-.001c-.011-.169.225-.308.343-.392.218-.155.38-.311.529-.483q.189-.219-.066-.082l-.184.102c-.142.08-.263.201-.388.307-.175.147-.383.267-.567.417-.191.155-.302.225-.525.254h-.006a.05.05 0 0 1-.049-.049q0-.01.004-.02c.103-.229.364-.422.632-.612.185-.13.296-.236.33-.447a.053.053 0 0 0-.04-.06.45.45 0 0 0-.375.056q-.3.195-.639.313m-1.821.129q-.057.032-.005-.008l.523-.4a.03.03 0 0 0 .01-.02.026.026 0 0 0-.026-.026h-.005c-.483.1-.823.575-1.172.922q-.072.072-.123.324-.004.022.017.028.087.03.149-.04c.236-.268.417-.467.725-.659q.443-.276.878-.54a.043.043 0 0 1 .065.037.1.1 0 0 1-.005.02.73.73 0 0 1-.232.26 4.4 4.4 0 0 0-.591.493c-.13.13-.193.25-.136.427.01.03.039.051.071.051a.076.076 0 0 0 .075-.075v-.002c-.012-.268.452-.589.695-.755a.69.69 0 0 0 .296-.505q.003-.019-.017-.023c-.507-.081-.789.266-1.192.491m6.276-.346a.02.02 0 0 1 .013.021.03.03 0 0 1-.008.018 1.6 1.6 0 0 1-.463.291.04.04 0 0 0-.018.016.035.035 0 0 0 .014.049.04.04 0 0 0 .023.004.69.69 0 0 0 .553-.428.04.04 0 0 0-.003-.041c-.107-.169-.598.054-.697.104-.18.091-1.163.854-.817 1.154.215.186.525-.031.713-.13q.028-.015.031-.039v-.004a.04.04 0 0 0-.037-.037q-.009 0-.018.004-.173.092-.341.178a.13.13 0 0 1-.067.018.1.1 0 0 1-.068-.023.15.15 0 0 1-.023-.191c.139-.204.929-1.106 1.212-.963zm.259.432q-.058.029-.009-.014a8 8 0 0 1 .398-.331.2.2 0 0 0 .063-.088q.01-.024-.016-.018c-.392.098-1.179.806-1.205 1.232v.002a.04.04 0 0 0 .039.039.04.04 0 0 0 .028-.012q.644-.674 1.424-1.16.099-.061.295-.021l.041-.013q.075-.026.035-.103a.03.03 0 0 0-.028-.018l-.238-.014a.05.05 0 0 0-.031.009 2.3 2.3 0 0 1-.349.218c-.155.08-.285.208-.448.29zm4.69-.361a.084.084 0 0 0-.059-.144l-.017.002a.9.9 0 0 0-.273.111c-.338.2-1.335.759-1.435 1.135l-.002.016c0 .035.029.064.064.064a.06.06 0 0 0 .049-.023c.372-.454.895-.772 1.376-1.123a.2.2 0 0 1 .08-.035c.065-.009.176.037.216-.002zm-14.536-2.053q.372-.11.747-.148c.192-.02.637.015.938.147.207.091.356.23.428.383q.04.086.064.179c.21-.086.426-.162.645-.239.017-.006.121-.093.121-.112.001-.247-.003-5.982.035-8.652 0-.014-2.384-.013-2.387-.006-.384.799-1.083 1.477-1.886 1.923-.117.065-.388.344-.824.527-.031.013-.064 2.263-.064 2.347 0 .021.925-.455 1.405-.744.216-.131.437-.317.714-.436l.01-.002c.014 0 .025.011.025.025v.001l.028 4.806zM10.578 9.366q-.122 0-.249.146a.52.52 0 0 0-.143.26l.103-.075q.075-.054.107-.057l.032.149q.096-.17.146-.196l.093-.014q.07-.018.071-.082 0-.132-.16-.132zm.307.335a.06.06 0 0 0-.043.018.4.4 0 0 1 .167.153q.067.096.153.096.064 0 .13-.041c.066-.041.066-.061.066-.101q0-.125-.117-.125-.05 0-.091.05c-.041.05-.047.05-.059.05q-.021 0-.098-.05c-.077-.05-.087-.05-.109-.05zm-1.572 2.48q.03.001.116.117.066.088.106.157.117.208.158.45 0 .084.004.121v.029q0 .242-.176.33-.051.025-.322.07-.176.03-.176.135v.297q0 .018.011.114l.011.117q0 .055-.026.179l-.161.033a.7.7 0 0 1-.029-.15q0-.018.009-.055c.009-.037.009-.043.009-.055a.6.6 0 0 0-.046-.143h-.057q-.011.018-.008.048.014.063.011.106l-.172.117q-.025-.007-.018-.007v-.26q-.007-.018-.037-.015h-.044l-.044.344a1 1 0 0 1-.125 0 7 7 0 0 0-.092-.359h-.029l-.044.139q0 .015.009.057c.009.042.009.047.009.057l-.007.055-.011.088a.02.02 0 0 1-.018.007q-.11 0-.146-.055c-.036-.055-.034-.088-.029-.154l.029-.439q0-.01.007-.029c.007-.019.007-.021.007-.026q0-.03-.062-.117l-.114-.026a8 8 0 0 0-.245-.051q-.253-.048-.253-.406 0-.534.439-.89.018.099.062.264l.143.033.223.081a2.4 2.4 0 0 1-.267-.201q-.062-.074-.062-.245 0-.04.139-.095a.8.8 0 0 1 .187-.059q.198-.026.304-.026.458 0 .74.234a1.1 1.1 0 0 1-.315.227.7.7 0 0 0 .256-.07q.165-.072.144-.073zm-.88.974q-.125.128-.125.414 0 .158.029.194a.4.4 0 0 0 .066-.026q.015-.007.084-.007c.069 0 .102.015.168.044q.037 0 .037-.198v-.114l-.051-.099a2 2 0 0 0-.081-.205l-.04.428q0 .051-.022.051-.015 0-.022-.007a4 4 0 0 0-.026-.337v-.128q-.008-.01-.018-.011zm.725-.469q-.154 0-.288.141c-.134.141-.134.192-.134.295q0 .128.125.128h.421q.238-.004.238-.184 0-.147-.11-.264c-.11-.117-.158-.116-.253-.116zm-1.296-.004q-.14 0-.245.118c-.105.118-.106.166-.106.262q0 .126.121.162a1 1 0 0 0 .216.026h.201q.245.004.245-.128 0-.157-.137-.299c-.137-.142-.19-.141-.295-.141m-.893 5.538q-.148.2-.148.292 0 .048.058.103a.3.3 0 0 1 .082.093q.035.08-.007.216.093.066.141.065.099 0 .099-.103 0-.01-.009-.065c-.009-.055-.007-.057-.005-.062q.014-.048.189-.048a3.4 3.4 0 0 1 .456.062l-.226.062q-.138.04-.137.093 0 .024.017.082a.3.3 0 0 1 .017.086q0 .048-.062.089l-.117.082q.041.075.055.089a.12.12 0 0 0 .093.041q.041 0 .075-.072c.034-.072.059-.072.11-.072q.093 0 .209.172.065.096.202.292-.268-.151-.343-.151-.055 0-.086.084c-.031.084-.062.084-.124.084a1 1 0 0 1-.154-.027.4.4 0 0 0-.065.127q0 .038.056.089c.056.051.069.051.095.051q.024 0 .067-.01c.043-.01.047-.01.056-.01q.042 0 .042.154 0 .147-.069.453-.09-.35-.189-.35-.014 0-.057.021c-.043.021-.05.02-.063.02q-.1 0-.178-.182-.158.024-.158.161 0 .069.064.11c.064.041.063.047.063.058q0 .093-.271.285l-.199.144a1 1 0 0 0 .096-.161.44.44 0 0 0 .055-.175q0-.034-.079-.096c-.079-.062-.079-.085-.079-.13q0-.058.041-.144a.14.14 0 0 0-.106-.052q-.137 0-.137.089v.093q.003.114-.172.113-.134 0-.449-.062.357-.089.357-.206a.4.4 0 0 1-.014-.082q-.014-.107.151-.192-.03-.158-.165-.158-.02 0-.076.072c-.056.072-.071.072-.103.072q-.083 0-.213-.178l-.189-.264.158.082a.4.4 0 0 0 .165.048q.048 0 .094-.084c.046-.084.072-.084.122-.084q.01 0 .137.041.065-.1.065-.148 0-.041-.05-.094c-.05-.053-.063-.053-.091-.053q-.017 0-.053.01c-.036.01-.042.01-.053.01q-.062 0-.062-.154 0-.04.079-.47a.6.6 0 0 0 .045.192q.059.172.137.172.013 0 .055-.021c.042-.021.049-.02.065-.02q.08 0 .13.089l.051.093q.072 0 .12-.051c.048-.051.048-.076.048-.124q0-.075-.063-.115c-.063-.04-.064-.046-.064-.06q0-.072.226-.244.181-.137.237-.161zm-.209.755q-.224 0-.384.16c-.16.16-.162.234-.165.383q-.003.22.163.379c.166.159.24.16.386.16q.233 0 .389-.153c.156-.153.155-.23.153-.386q0-.219-.161-.381c-.161-.162-.234-.161-.381-.161zm0 .058q-.2 0-.345.142c-.145.142-.146.209-.146.341q0 .202.144.343c.144.141.212.141.346.141q.21 0 .35-.137c.14-.137.141-.207.141-.346q0-.195-.146-.34c-.146-.145-.212-.144-.345-.144zm7.493-11.554q.175 0 .308.14.039.042.045.051l.046-.01a1 1 0 0 1 .123-.016q.137 0 .242.102a.5.5 0 0 1 .126.231.4.4 0 0 1 .077.021q.077.039.077.133a.2.2 0 0 1-.028.066q.224.126.224.35 0 .063-.049.175a.17.17 0 0 1 .091.154q0 .07-.054.126c-.054.056-.078.056-.124.056a.17.17 0 0 1-.165-.105l-.164-.007a1 1 0 0 0-.207.046q-.165.046-.189.073-.039.042-.063.196a1 1 0 0 0-.021.186q0 .095.03.138c.03.043.061.054.122.073q.093.03.114.033l.046-.004h.042q.045 0 .094.014.07.021.06.056a.5.5 0 0 0-.172.021l.098.049q0 .042-.119.042-.032 0-.086-.014c-.054-.014-.06-.014-.072-.014h-.046a1 1 0 0 1-.021.105q-.06-.004-.14-.07c-.08-.066-.088-.066-.101-.066q-.021 0-.06.066c-.039.066-.039.075-.039.091a.2.2 0 0 1-.077-.091l-.031-.091q-.035.003-.13.147h-.018a2 2 0 0 1-.053-.147.7.7 0 0 0-.203-.035 1 1 0 0 0-.14.021l-.098-.007a1 1 0 0 1 .123-.081.4.4 0 0 1 .182-.07q.01 0 .028.004c.018.004.021.004.028.004q.024 0 .079-.026c.055-.026.057-.033.063-.047a.4.4 0 0 0 .009-.109q0-.2-.105-.298-.091-.087-.301-.126-.055.2-.315.2-.084 0-.168-.102c-.084-.102-.084-.13-.084-.186a.26.26 0 0 1 .108-.214q-.087-.091-.087-.185 0-.087.054-.154c.054-.067.083-.07.142-.077q-.007-.112.074-.154-.039-.039-.039-.136a.265.265 0 0 1 .27-.27q.126 0 .207.088.102-.347.438-.347zm-.399 1.291a.4.4 0 0 0-.182.045q.186-.01.42.214v-.046q0-.081-.079-.147c-.079-.066-.106-.066-.159-.066m.287-.451q.018 0 .102.014v.154l-.102-.116v-.053zm.672.388-.142.1a.7.7 0 0 0-.124.114q.157-.084.343-.119zm-.273-.388.158.07q.007.136-.158.231zm-.602.154q-.147.039-.147.087.042-.003.123.016c.081.019.092.019.116.019a1 1 0 0 1-.091-.123zM7.223 14.77a2 2 0 0 0-.054.354q0 .241.152.47.186.272.284.404a.8.8 0 0 1 .152.447q0 .323-.218.544c-.218.221-.324.222-.536.222a.71.71 0 0 1-.568-.245.9.9 0 0 1-.198-.595q0-.389.338-.886.276-.409.649-.715zm.175 1.217a.2.2 0 0 1 .012.066.9.9 0 0 1-.047.233l-.05.156q0 .136.136.136.144 0 .144-.191 0-.097-.058-.227c-.058-.13-.084-.144-.136-.173zm15.625 12.028a.026.026 0 0 1-.026-.026v-.329q0-.018.018-.019.091-.002.084-.104-.001-.021-.022-.021h-.059q-.017-.002-.02-.02l-.004-.103a.05.05 0 0 0-.048-.046.05.05 0 0 0-.04.022c-.052.084-.201.153-.221.218q-.008.023.015.034l.035.017a.03.03 0 0 1 .018.029q-.001.18.001.359c.002.215.274.148.363.05a.04.04 0 0 0 .01-.025.04.04 0 0 0-.037-.037h-.066zm3.893.029q.15-.003.224.124.012.02.006.043c-.059.231-.538.24-.482.008a.06.06 0 0 1 .02-.032l.035-.03a.02.02 0 0 0 .006-.015.02.02 0 0 0-.02-.02l-.007.001q-.096.038-.152-.045-.017-.024.012-.033l.156-.046q.033-.01.001-.023c-.371-.158-.103-.547.231-.478q.021.005.027-.016.033-.108.153-.095.017.003.02.02.007.08-.059.117-.009.005-.009.016 0 .006.004.011c.203.237.031.37-.173.464a.02.02 0 0 0-.009.013q.001.014.015.015h.001zm-.013-.142c.038-.011.049-.091.024-.176s-.077-.147-.115-.136-.049.091-.024.176c.025.086.077.147.115.136m-.038.29q-.04.06.009.101a.027.027 0 0 0 .044-.021l-.001-.006-.016-.067a.02.02 0 0 0-.019-.015.02.02 0 0 0-.017.009zm-4.561-.492q-.005-.048-.054-.062a.05.05 0 0 0-.034.005l-.11.069a.054.054 0 0 1-.083-.046q0-.01.004-.02l.063-.157a.03.03 0 0 1 .038-.016l.066.027q.016.006.031.002a.275.275 0 0 1 .31.095q.012.014.012.032l.001.375a.04.04 0 0 0 .013.031.14.14 0 0 1 .039.091q-.001.018-.017.023a.4.4 0 0 1-.262-.019.05.05 0 0 0-.046.002c-.375.195-.526-.433.009-.41h.001c.011 0 .02-.01.02-.021V27.7zm-.009.295.013-.15v-.002c0-.01-.008-.019-.018-.019l-.009-.001a.09.09 0 0 0-.096.082l-.001.01a.09.09 0 0 0 .081.097l.009.001h.002q.017-.001.019-.018m1.994-.075q.114.146.251.031a.05.05 0 0 1 .03-.012.05.05 0 0 1 .04.079c-.197.259-.62.182-.612-.184.008-.377.47-.477.611-.121q.02.05-.031.07l-.281.107q-.025.01-.009.031zm-.037-.142.099-.032a.023.023 0 0 0 .015-.029l-.002-.006c-.021-.064-.069-.107-.107-.095l-.006.002c-.038.012-.052.075-.031.14l.002.005q.006.016.022.016zm-3.945.148q.116.138.254.021a.04.04 0 0 1 .054.001q.039.036.006.086a.3.3 0 0 1-.122.092c-.261.13-.505-.037-.478-.331.033-.359.453-.408.602-.091l.001.002a.06.06 0 0 1-.03.076l-.002.001-.276.106q-.03.012-.009.037m-.05-.148.122-.035q.008-.002.006-.011l-.003-.012c-.019-.068-.067-.116-.105-.105s-.054.076-.034.144l.003.012q.002.006.009.006h.003zm4.541-2.529a.63.63 0 0 1-.383-.138.01.01 0 0 1-.004-.01q.001-.012.014-.014l.005.001q.19.077.375.091c.071-.649.648-1.139 1.464-.892.099.03.207.08.311.101q.372-.305.808-.762v-.002q0-.002-.003-.003h-.001c-.227.122-.395.244-.664.251a.096.096 0 0 1-.098-.088c-.016-.196.132-.38.278-.502.142-.119.281-.288.396-.384q.266-.223.588-.33l.007-.001q.021.002.023.023a.02.02 0 0 1-.008.017c-.392.33-.792.634-1.099 1.036a.06.06 0 0 0-.011.034c0 .025.017.047.042.053.3.073 1.221-.823 1.452-1.036.071-.065.216-.14.293-.128q.07.011.013.053a3.1 3.1 0 0 0-.6.568c-.296.365-.66.743-1.023 1.069q.113.073.134.213.003.02-.013.031a.58.58 0 0 0-.264.495q0 .045-.037.074-.066.051-.117-.001a.04.04 0 0 1-.01-.036c.035-.14.025-.34-.092-.43-.089.076-.18.146-.286.201-.251.13-.515.271-.79.356a.8.8 0 0 0-.001.214c.139 1.051 1.274.854 1.968.634a.028.028 0 0 1 .036.036.03.03 0 0 1-.011.014c-.468.31-1.053.562-1.634.451-.326-.062-.682-.186-.854-.476a1.4 1.4 0 0 1-.203-.785zm1.569-.694c-.242-.011-.476-.021-.657.18a.8.8 0 0 0-.188.318c.247-.101.483-.248.705-.398z"/></svg>