<svg xmlns="http://www.w3.org/2000/svg" width="19" height="32"><path fill="currentColor" d="M0 22.678V9.173l9.6-3.691 9.6 3.691v10.871c-2.244 0-4.498-.058-6.867.052q.596-.352.962-.864.52-.733.52-1.707c0-.974-.165-1.207-.495-1.675q-.486-.702-1.444-1.072l-.016-.107q.94-.405 1.402-1.072.47-.668.47-1.559 0-1.344-1.023-2.079c-1.023-.735-1.691-.734-3.027-.734q-1.188 0-2.153.379c-.965.379-1.141.605-1.493 1.056q-.52.668-.52 1.509 0 1.839 1.823 2.631l.016.107q-.602.272-1.031.627-.42.356-.685.891-.256.528-.256 1.229 0 .957.512 1.666.511.701 1.435 1.072.214.084.447.148a36.5 36.5 0 0 0-7.778 2.134zm19.2-2.634v6.475l-4.342-.027c-2.072-.001-3.481-.138-4.439-.869-.07-.057-.155-.123-.231-.195-.063-.063-.14-.137-.208-.216-.057-.071-.117-.142-.177-.226-.068-.099-.137-.194-.203-.311-.057.092-.127.208-.2.307-.052.068-.114.154-.18.228a3 3 0 0 1-.439.412c-.958.731-2.367.868-4.439.869L0 26.518c6.245-3.934 11.717-5.754 19.2-6.475zM7.992 12.105q0-.965.412-1.46.421-.495 1.237-.495.783 0 1.196.545.421.536.421 1.559 0 .998-.404 1.543-.396.536-1.196.536-.817 0-1.245-.569-.421-.578-.421-1.658zm-.099 5.354q0-.651.165-1.147c.165-.496.292-.591.545-.784q.38-.297.998-.297.52 0 .907.289c.387.289.456.468.594.825q.206.528.206 1.254 0 .71-.206 1.221-.198.512-.577.759-.372.248-.907.248-.857 0-1.295-.594-.429-.594-.429-1.773z"/></svg>