<svg xmlns="http://www.w3.org/2000/svg" width="100%" height="100%" viewBox="0 0 24 24"><path fill="currentColor" d="M1.052 21.289c1.025-.549 7.216-1.991 8.905-2.59.288-.102.312-.413.562-.605.182-.139.64-.213.838-.314.62-.314.057-.628.738-1.166.428-.339.837.026 1.141-.185.41-.284-.135-.982.616-1.551.517-.392 1.066.147 1.286-.106.263-.301-.484-.995.165-1.691.4-.429 1.068-.181 1.163-.527.182-.663-.382-.586-.062-1.585.07-.218.318-.243.497-.528.086-.137-.279-.255-.221-.704.047-.371.199-.76.221-1.069.022-.304-.03-.525.108-.988.18-.605.203-1.558.829-1.639 1.811-.233 7.981-.187 10.123-.018.942.074 1.833.586 2.416.641.273.026.869-.268 1.082-.312.176-.036.601-.038.533.085s-.739.324-.938.648c-.214.348-.344.947-.344 1.44 0 1.845.357 7.323.344 9.63-.008 1.41-.288 3.486-.421 4.21-.024.13-.292.032-.374.137-.107.137-.3.419-.307.595-.006.143.12.403.115.547-.014.384-.051 1.767-.283 1.788a7 7 0 0 1-.538.02c-.156.001-.07-.274-.41-.281-.293-.005-.239.163-.378.232-.123.061-.35.002-.458-.002-.179-.006-.168-.341-.487-.351-.373-.012-.36.343-.552.337l-.67-.022c-.158-.005-.042-.36-.441-.374-.392-.014-.319.357-.46.356-.312-.003-.369.025-.689.022-.205-.002-.274-.346-.601-.348-.363-.002-.403.255-.518.383-.049.054-.307.026-.392.026-.122 0-.22-.28-.464-.283-.379-.006-.394.316-.502.316-.112 0-.248.03-.307.015-.17-.043-.226-.229-.528-.237-.332-.009-.305.221-.455.236-4.426.424-11.436.705-14.749.631-.175-.004-.244-.276-.564-.289-.371-.015-.286.262-.442.255q-.377-.017-.759-.039c-.154-.009-.121-.262-.466-.283-.423-.025-.343.228-.513.214a30 30 0 0 1-.626-.058c-.153-.016-.026-.227-.384-.27-.347-.041-.283.19-.389.175a10 10 0 0 1-.502-.087c-.541-.114-1.199-.374-1.401-.889-.23-.585-.132-2.029.02-2.62.107-.416.483-.706.895-.927zM17.841 9.331a.405.405 0 1 0 0 .81.405.405 0 0 0 0-.81m-5.113 7.959a.405.405 0 1 0 0 .81.405.405 0 0 0 0-.81m4.579-6.173a.405.405 0 1 0 0 .81.405.405 0 0 0 0-.81m-2.822 4.478a.405.405 0 1 0 0 .81.405.405 0 0 0 0-.81M16 13.503a.405.405 0 1 0 0 .81.405.405 0 0 0 0-.81m13.643-5.905c-.876-.234-3.787-.712-5.048-.861-.79-.093-1.589.088-2.384.111-.862.026-2.3-.005-2.791.043-.096.01-.173.153-.152.247.027.122.286.293.311.482.028.203-.04.525-.146.735s-.455.289-.491.526c-.047.308.274.975.209 1.324-.059.321-.529.456-.598.776-.075.345.236.962.147 1.297-.085.318-.461.601-.682.714-.191.098-.502-.101-.641-.037s-.197.268-.195.424c.003.253.291.746.215 1.091s-.436.817-.669.98c-.199.14-.608-.092-.729 0s-.15.444 0 .549c.438.309 1.591 1.068 2.628 1.304.374.085.829.075 1.15.043.269-.026.799-.099.777-.233s-.51-.453-.732-.546c-.13-.054-.704.011-.818-.072-.349-.256-1.347-.956-1.453-1.488s.403-1.518 1.038-1.637c.734-.137 2.063.73 2.794.824.348.044 1.925-.147 1.594-.264-1.521-.535-3.256-1.44-3.779-2.341-.279-.481.119-1.35.641-1.541.633-.232 2.511.166 3.156.151.252-.006.652-.117.715-.245s-.146-.45-.341-.519c-.632-.222-2.952-.461-3.452-.815-.376-.266-.01-1.284.45-1.307 1.655-.08 5.022-.263 9.481.825.131.032-.075-.506-.205-.541zm-17.496 17.4c-.444.067 2.906.329 9.392-.489 3.66-.462 6.241.119 7.408-.078.323-.055-.074-1.369.12-2.007.058-.19.482-.303.529-.495.2-.819.622-3.725.668-4.418.013-.2-.338.249-.416.433-.188.447-.405 1.864-.712 2.248-.235.295-.786-.335-1.002-.026-.702 1.006-2.197 1.757-2.813 2.111-.135.078-1.083.359-1.41.422-2.177.42-9.717 1.991-11.766 2.299zm-1.304-6.324a.405.405 0 1 0 0 .81.405.405 0 0 0 0-.81m7.274-11.385a.405.405 0 1 0 0 .81.405.405 0 0 0 0-.81m-3.002 10.184c-.137-.085-.491-.179-.63-.021-.161.183-.525.778-.335 1.117.252.451 1.369 1.234 1.85 1.588.312.23.866.563 1.034.533s.098-.51-.029-.71c-.288-.455-1.152-1.396-1.498-1.789-.249-.284-.255-.633-.392-.718m-2.288 1.532c-.167-.423-.851.764-.677 1.184.479 1.152 2.823 2.219 2.681 2.041-.616-.775-1.459-1.839-2.005-3.225zm-11.561 3.42c-.251.409-.376 1.82-.24 2.172s2.51.517 3.784.606c1.462.103 4.291.067 4.985.01s-.639-.247-.927-.274c-.609-.057-1.794.085-2.728-.071-2.777-.464-4.624-2.852-4.875-2.443z"/></svg>