<svg xmlns="http://www.w3.org/2000/svg" width="29" height="32" viewBox="0 0 29 32"><path fill="currentColor" d="M14.229 2.197h.024c.041.967.024 3.006-1.145 3.411-.4.138-.921.057-1.328-.098q-.015-.006-.014-.021c.025-1.428.506-2.874 2.085-3.219q.23-.05.378-.072zm-2.62 3.831a17 17 0 0 0-1.865-1.826 3.6 3.6 0 0 0-.828-.511q-.017-.008-.013-.026c.111-.51.531-.97 1.055-1.072a.05.05 0 0 1 .031.005c.873.491 1.207 1.345 1.4 2.281q.123.591.26 1.179.003.013-.009.008c-.012-.005-.014-.009-.018-.017zm.352 1.355c.93-.972 1.948-1.923 3.235-2.393 2.242-.819 3.623.954 3.916 2.929.494 3.324-1.484 6.667-5.252 6.117a.2.2 0 0 0-.082.011 7.5 7.5 0 0 1-1.526.279c-2.986.224-5.06-1.955-5.351-4.796-.084-.828.002-1.683.376-2.418.44-.864 1.281-1.279 2.242-1.063.908.203 1.72.739 2.415 1.336q.014.011.026-.001zm10.357 7.419q-.01-.006-.008-.018c.163-.43.427-.768.92-.781a.3.3 0 0 1 .151.039c1.367.779.998 3.102.811 4.346q-.002.007-.008.007-.008 0-.008-.006-.386-1.134-.87-2.232c-.187-.423-.527-1.178-.989-1.357zm2.361 3.017-.052-.003q-.012 0-.009-.012c.503-1.667 1.472-2.823 3.281-3.031q.015-.001.015.014c-.038 1.306-.464 2.631-1.91 2.946a4.4 4.4 0 0 1-1.326.086zM5.571 15.231c.771-.074 1.385.007 1.766.763q.007.015-.006.024c-.331.24-.48 1.037-.557 1.426-.228 1.158-.381 2.336-.546 3.502q-.002.005-.007.006-.006 0-.007-.005c-.549-1.848-.803-3.749-.675-5.683q.001-.03.033-.034zm23.762 4.788v.293c-.123 1.957-1.344 3.962-2.773 5.255-1.243 1.125-2.966 1.829-4.565.914a7 7 0 0 1-.264-.159.05.05 0 0 0-.031-.007c-2.295.213-3.55-1.527-3.823-3.581a8.2 8.2 0 0 1 .306-3.551c.304-.974.902-2.099 1.872-2.553 1.615-.755 3.197 1.044 3.982 2.212q.01.013.026.008c.938-.41 1.94-.748 2.967-.809 1.343-.08 2.246.606 2.304 1.978zm-25.231.377c-.926-.798-.815-1.882-.288-2.872.005-.009.016-.013.025-.008 1.437.72 1.857 2.434 2.128 3.875q.003.015-.011.009c-.652-.238-1.325-.548-1.854-1.004m.842 9.407h-.285c-2.53-.15-4.206-2.668-4.594-4.938A7 7 0 0 1 0 24.243v-.366c.077-1.723 1.12-2.808 2.917-2.692 1.236.08 2.465.555 3.55 1.124a.03.03 0 0 0 .038-.008c.842-1.088 2.607-3.008 4.158-2.687 1.314.272 1.781 1.952 1.867 3.078.201 2.628-1.033 6.407-4.325 6.287a4 4 0 0 1-.755-.093q-.016-.004-.028.006c-.734.519-1.573.862-2.478.911"/></svg>