<svg xmlns="http://www.w3.org/2000/svg" width="100%" height="100%" viewBox="0 0 24 24"><path fill="currentColor" d="M18.412 5.815c-3.203 0-5.86.793-8.161 2.232a14.2 14.2 0 0 1 6.464-1.56q.86-.001 1.741.11c6.522.826 11.167 5.567 10.555 10.5-.549 4.426-5.262 7.561-10.937 7.561q-.974 0-1.98-.126c-3.931-.498-7.231-2.392-9.099-4.898 4.14-1.087 12.84-1.25 21.544-1.587L0 18.156c2.038.229 3.907.244 4.718 2.593.28-.356.824-.656 1.586-.911 2.031 3.671 6.743 6.314 12.25 6.348h.109c7.341 0 13.302-4.651 13.337-10.249.035-5.625-6.075-10.075-13.466-10.122zm5.667 1.761c1.3.467 2.473 1.088 3.496 1.849l.16.122-.484.483q-.134-.145-.276-.287a13 13 0 0 0-2.895-2.167zm-1.842 1.265a.56.56 0 0 1-.363.099c-.098-.006-.16-.022-.22-.037-.074-.019-.15-.039-.297-.039a.714.714 0 0 0-.718.712c-.013.448.273.924.772.946.29.013.869-.146 1.127-.256l.096-.159a2.6 2.6 0 0 1-.718.129 2 2 0 0 1-.126.005q-.341 0-.494-.162c-.125-.133-.131-.321-.122-.469.017-.274.245-.552.443-.539.233.015.353.076.398.378l.069.018c.033-.139.14-.357.208-.425-.005-.025-.03-.114-.054-.2zm-1.867.013a3.3 3.3 0 0 1-.647.061c-.103 0-.187-.005-.241-.013l-.031.06c.32.124.303.475.294.666l-.002.07c0 .396-.097.743-.248.889l.028.063c.101-.127.361-.226.601-.226.095 0 .18.016.246.046l.038-.044c-.308-.258-.293-.435-.274-.64q.008-.076.009-.159c0-.354.019-.632.248-.711zm-1.377.037a.55.55 0 0 1-.356.097c-.094-.005-.187-.024-.285-.044-.124-.025-.252-.051-.398-.052h-.01c-.155 0-.662.052-.68.719-.012.421.346.864.723.893.078.006.149-.012.234-.035s.182-.048.316-.058a.35.35 0 0 1 .304.174l.093.025-.004-.044c-.017-.18-.05-.55.334-.62l-.058-.098a1 1 0 0 0-.191-.014c-.196 0-.48.023-.567.053l-.023.062c.131-.01.252.059.259.144.004.04-.016.138-.269.182q-.303.052-.463-.117c-.156-.166-.158-.442-.151-.553.015-.242.207-.5.469-.5a.3.3 0 0 1 .062.005c.225.033.401.082.446.375l.067.018c.033-.136.137-.349.204-.416a5 5 0 0 0-.053-.195zm-5.475.008-.075.115c.059.029.252.126.3.17.068.062.088.129.058.187-.126.24-.215.323-.248.354q-.027.024-.026.049c0 .028.024.05.024.05l.002.003.106.114c.034.034.046.034.096.001a.2.2 0 0 1 .078-.021c.038 0 .091.017.13.099l.052.106c.129.262.368.749.429.978.049.181-.028.281-.339.544l.091.098c.145-.108.387-.168.684-.168.235 0 .488.039.715.111l.036-.085a.9.9 0 0 0-.187-.142c-.076-.049-.154-.099-.207-.158-.08-.084-.094-.147-.121-.261l-.012-.051c-.061-.252-.405-1.001-.528-1.215-.172-.296-.234-.615-.16-.816l-.102-.055a1 1 0 0 1-.34.05c-.182 0-.377-.029-.459-.057zm1.822.011-.082.099c.126.046.733.272.821.341l.004.004c.075.12.262.669.278.885.008.101-.019.152-.036.173l.071.084a.46.46 0 0 1 .296-.083c.131 0 .279.03.418.083l.036-.049c-.254-.375-.416-.788-.54-1.38l-.155-.123a1 1 0 0 1-.376.053c-.297 0-.636-.058-.736-.086zm-3.83.052-.1.13c.062.011.207.04.272.081.074.047.061.122.035.224a4 4 0 0 1-.129.377q-.03.052-.022.072c.008.02.022.025.051.039l.149.071a.1.1 0 0 0 .046.012c.018 0 .032-.008.047-.048l.004-.009a.6.6 0 0 1 .084-.152l.005-.005c.019-.021.041-.044.076-.044a.1.1 0 0 1 .06.019c.082.045.438.386.692 1.233.189.63.159.85.144.905l.138.077c.068-.121.342-.428.563-.48a3.5 3.5 0 0 0-.165-.51q-.037-.098-.057-.157a.66.66 0 0 1 .083-.603c.038-.044.041-.075.008-.107l-.105-.117c-.001-.001-.022-.028-.053-.028q-.027 0-.056.026a1 1 0 0 0-.163.154q-.005.005-.012.006-.009 0-.012-.005c-.102-.104-.186-.252-.276-.409q-.077-.137-.164-.274l-.091-.135c-.094-.138-.157-.232-.167-.317l-.887-.024zm4.005.515c-.025.005-.044.022-.05.039a1.5 1.5 0 0 1-.225.433c-.148.187-.165.368-.051.553 0 0 .008.005.039.005.027 0 .066-.004.109-.008.061-.006.138-.013.217-.013a1 1 0 0 1 .153.011l.011-.028c.077-.196.124-.315.236-.355q.046-.018.035-.073a.3.3 0 0 0-.042-.136q-.015-.031-.06-.031h-.01a.5.5 0 0 0-.299.121q-.01.006-.019 0c-.009-.006-.008-.011-.007-.018.014-.054.04-.104.068-.158.031-.061.064-.124.077-.192.016-.047-.007-.071-.023-.082l-.001-.001a1 1 0 0 0-.132-.067.1.1 0 0 0-.026 0m12.777.528c1.33 1.17 2.232 2.541 2.647 4.009l-1.326.199c-.325-1.279-.962-2.513-1.888-3.642l.567-.565zm-16.804.074c-.011 0-.026.003-.037.033l-.002.004c-.017.042-.045.113-.11.268-.019.045-.045.123-.076.213-.092.267-.23.67-.377.856a1.3 1.3 0 0 1-.283.25l.046.085c.129-.107.424-.215.745-.215q.1 0 .197.014v-.066a.4.4 0 0 1-.116-.078c-.175-.156-.055-.456.042-.696q.03-.071.051-.132c.05-.142.108-.269.139-.338l.008-.017c.026-.068.007-.079-.036-.097l-.15-.069a.1.1 0 0 0-.043-.014zm4.668.955-.01.15h.027c.013-.056.042-.092.118-.092h.022v.529h-.06v.03h.279v-.03h-.059v-.529h.022c.076 0 .104.036.118.092h.027l-.01-.15h-.029v.015h-.415v-.015zm2.29 0a.345.345 0 0 0-.355.341c0 .177.111.291.282.291a.36.36 0 0 0 .216-.074l.019-.014.048.073h.017v-.28c0-.027.007-.043.021-.057l-.006-.012q-.016.007-.035.008h-.234v.03h.113v.249h-.022c-.166 0-.258-.103-.258-.29 0-.191.092-.22.147-.22.043 0 .087.026.087.075a.1.1 0 0 1-.009.036l.015.022.168-.108-.015-.023-.029.019-.012-.008a.3.3 0 0 0-.156-.06zm-1.509.009-.197.068v.011l.033-.011v.528h-.035v.013h.201v-.013h-.037v-.298l.004-.006q.036-.048.085-.049.08 0 .081.088v.264h-.036v.013h.199v-.013h-.034v-.313c0-.041-.014-.109-.106-.109-.063 0-.102.028-.157.075l-.036.031v-.25l.035-.012zm2.967 0-.197.068v.011l.033-.011v.527h-.035v.013h.201v-.013h-.037v-.298l.004-.006q.036-.048.085-.049.08 0 .08.088v.264h-.036v.013h.199v-.013h-.034v-.313c0-.041-.014-.109-.106-.109-.063 0-.102.028-.157.075l-.036.031v-.25l.035-.012v-.017zm1.454.032c-.03 0-.08.028-.08.059q0 .036.042.037c.026 0 .1-.011.1-.058 0-.012 0-.037-.062-.037zm-1.859.037a.28.28 0 0 1-.16.135v.014h.046v.302c0 .074.027.103.097.103a.24.24 0 0 0 .133-.052l-.003-.005a.1.1 0 0 1-.037.008c-.03 0-.061-.021-.061-.06v-.295h.074l.006-.03h-.08v-.06q0-.027.003-.056zm3.056.032c-.045 0-.051.012-.059.034l-.017.054-.019-.003-.022-.004a.4.4 0 0 0-.079-.008c-.087 0-.189.045-.189.173 0 .091.077.136.144.146l.019.003v.034l-.014.007c-.039.014-.088.032-.143.043l.025.024a.4.4 0 0 1 .109.003l.032.003v.04l-.019.004c-.03.004-.072.026-.072.059q0 .072.146.073c.045 0 .172-.019.172-.106s-.146-.102-.217-.11l-.02-.002v-.037l.029-.009c.11-.028.223-.057.223-.184 0-.068-.038-.1-.063-.121q-.024-.016-.026-.038c0-.024.017-.043.039-.043l.02.003.009-.039zm-3.639.056-.046.124.023.009c.024-.031.054-.068.113-.068.052 0 .085.032.085.084v.046h-.152c-.078 0-.13.06-.13.15 0 .073.052.122.129.122a.2.2 0 0 0 .12-.053l.027-.023.015.063h.15v-.013h-.03v-.287q0-.136-.154-.135a.3.3 0 0 0-.106.02l-.045.02.017-.051-.015-.005zm1.601.017a.214.214 0 0 0-.211.22c0 .141.08.229.209.229a.26.26 0 0 0 .206-.1l-.007-.008a.17.17 0 0 1-.115.04q-.1 0-.14-.097l-.009-.021.27-.099q-.055-.164-.205-.164zm.549 0c-.022 0-.04.054-.048.08l-.005.016-.005.015h-.038l-.002-.022v-.083l-.146.039v.008l.03-.012v.38h-.032v.013h.207v-.013h-.047v-.258l.004-.005a.1.1 0 0 1 .081-.045.3.3 0 0 1 .063.014l.042-.118-.014-.005-.013.021-.018-.009a.1.1 0 0 0-.06-.016zm.843 0c-.057 0-.1.034-.146.07l-.036.028-.003-.043v-.048l-.164.045v.01l.033-.01v.37h-.033v.013h.199v-.013h-.037v-.302l.007-.007c.022-.02.051-.044.092-.044s.072.027.072.064v.289h-.036v.013h.197v-.013h-.032v-.309q0-.113-.115-.112zm-4.359 0a.213.213 0 0 0-.211.22c0 .141.08.229.209.229a.26.26 0 0 0 .207-.1l-.007-.008a.17.17 0 0 1-.115.04.14.14 0 0 1-.139-.097l-.009-.021.271-.099q-.056-.164-.205-.164zm3.862.007-.163.046v.011l.034-.007v.365h-.036v.013h.196v-.013h-.031zm.94.008c.092 0 .122.161.122.216 0 .021 0 .085-.071.085-.092 0-.122-.161-.122-.216 0-.021 0-.085.071-.085m-4.831.013c.066 0 .092.08.107.123l.007.02-.019.009-.146.055-.006-.025-.005-.019q-.01-.029-.011-.073c0-.057.028-.091.074-.091zm2.967 0c.066 0 .093.08.107.123l.006.02-.019.009-.146.055-.005-.025-.005-.019a.2.2 0 0 1-.012-.073c0-.057.028-.091.074-.091zm-1.448.161h.05v.113c0 .075-.04.091-.074.091-.024 0-.079-.01-.079-.1a.1.1 0 0 1 .103-.103zm3.333.256.018.012.003.002c.032.02.065.041.065.095 0 .036-.022.057-.058.057-.04 0-.061-.036-.061-.071q0-.044.021-.076l.012-.018zM7.542 12.817l-4.15 4.736H6.48l.344-.462h.352l-.069.462h12.048l.403-.867.124.48.1.387h4.328l.344-.462h.352l-.069.462h2.786l.02-.495.147-3.706.021-.536h-2.538l-1.99 2.271 1.053-2.271H21.57l-.138.3-.266.578-.207-.878h-5.81l-.138.299-.164.354c-.29-.433-.861-.652-1.698-.652h-2.261l-.138.299-.742 1.601.054-1.364.021-.536H7.545zm.084.184h2.263l-.014.344-.091 2.284L11.002 13h2.144c.784 0 1.308.198 1.557.588a.9.9 0 0 1 .13.342l.431-.93h5.547l.06.255.236 1.002.578-1.257h2.26l-1.47 3.17L25.253 13h2.263l-.014.344-.147 3.706-.013.318h-2.395l.057-.38.012-.082h-.658l-.344.462h-4.093l-.064-.249-.252-.978-.57 1.226h-7.538l-.037-.29-.012-.094-.178.384H7.317l.069-.462h-.658l-.344.462h-2.59l3.828-4.368zm.15.331-3.247 3.706h1.693l.344-.462h1.208l-.069.462h1.693l.148-3.706zm3.438 0-1.718 3.706h1.564l.55-1.19h.029l.15 1.19h1.845l-.397-1.204c-.04-.108-.112-.167-.167-.221l.014-.03a5 5 0 0 0 .347-.102 1.6 1.6 0 0 0 .671-.423q.065-.072.122-.155.029-.042.056-.087a2 2 0 0 0 .14-.281c.125-.309.122-.55.023-.732a.7.7 0 0 0-.192-.214 1 1 0 0 0-.106-.066 1.4 1.4 0 0 0-.328-.121q-.147-.035-.317-.053c-.17-.018-.232-.017-.356-.017h-1.932zm4.262 0-1.718 3.706h3.006l.472-1.012h-1.395l.165-.364h1.232l.447-.963h-1.232l.168-.354h1.349l.466-1.012zm3.538 0-1.718 3.706h1.53l.852-1.946.502 1.946h1.53l1.718-3.706h-1.529l-.865 2.054-.484-2.054h-1.535zm6.391 0-3.247 3.706h1.693l.344-.462h1.208l-.069.462h1.693l.147-3.706zM12.201 14.4h.087c.135 0 .254.013.307.045.027.016.038.03.042.058s-.002.073-.032.139c-.058.124-.145.19-.253.229s-.237.048-.366.048h-.025zm13.471.306c-.031.109-.064.217-.082.327v-.001l-.108.608h-.488zm-17.629.001c-.03.108-.064.217-.082.327l-.108.608h-.488l.678-.934zm23.056.01q.104.6.102 1.215a7.3 7.3 0 0 1-.667 2.985l-1.005-.428a8 8 0 0 0 .275-1.295 8 8 0 0 0-.045-2.277zm-16.992.782c-.161.121-.34.211-.537.283l.169.511zm-.789 2.924a85 85 0 0 0-2.29.213q-.657.072-1.245.151c-.588.079-.761.109-1.108.167q-.78.13-1.415.281-.618.147-1.103.313l-.005.002q-.426.145-.756.309a4 4 0 0 0-.243.13 3 3 0 0 0-.312.205c-.406-.893-.982-1.413-1.66-1.732zm15.971.745.919.392c-.592 1.051-1.42 2.007-2.465 2.842l-.335-.43a8.6 8.6 0 0 0 1.881-2.803zm-10.215.608c-.576 0-.969.332-.969.837 0 .488.391.82.952.82.298 0 .562-.093.737-.305.159-.194.178-.387.182-.614h-.922v.317h.379c-.019.179-.173.27-.374.27-.306 0-.472-.245-.472-.486 0-.237.159-.49.464-.49.187 0 .322.099.386.247l.441-.161c-.154-.291-.438-.435-.806-.435zm-7.858.052v1.554h1.021v-.342h-.557v-1.212zm4.935 0-.687 1.554h.493l.123-.27h.64l.116.27h.495l-.673-1.554zm4.693 0v.874c0 .2.009.398.187.548.149.128.384.173.592.173s.443-.045.592-.173c.178-.15.187-.348.187-.548v-.874h-.464v.818c0 .202-.017.422-.315.422s-.315-.221-.315-.422v-.818zm-7.366 0v1.554h1.017v-.342h-.552v-.268h.524v-.342h-.524v-.26h.552v-.342zm10.091 0v1.554h1.016v-.342h-.552v-.268h.524v-.342h-.524v-.26h.552v-.342zm-7.169.48h.005l.19.494h-.386l.192-.494zm10.48 2.156.288.369c-1.955 1.382-4.377 2.241-6.977 2.482 2.661-.355 4.986-1.373 6.69-2.852z"/></svg>