<svg xmlns="http://www.w3.org/2000/svg" width="100%" height="100%" viewBox="0 0 24 24"><path fill="currentColor" d="M18.238 29.438v-1.384q2.963-.33 2.964-1.714 0-.997-.791-1.993l-5.462-6.723-4.314 5.086c-1.079 1.248-1.622 2.281-1.622 3.088q0 1.874 2.969 2.262v1.379H1.463v-1.38q1.996-.386 3.402-1.434.97-.772 2.639-2.703l6.487-7.523-7.503-9.095C5.516 6.129 4.757 5.358 4.22 4.99q-1.085-.771-3.025-.991V2.566h12.404v1.379q-2.804.552-2.803 1.711-.002.774.753 1.71l4.962 6.014 3.993-4.909q1.078-1.324 1.079-2.318-.002-1.656-2.646-2.154V2.566h9.873v1.382c-.863.184-1.458.35-1.776.499q-1.617.774-4.954 4.586-.539.61-4.53 5.579l7.969 9.811q2.59 3.2 5.285 3.639v1.38H18.238z"/></svg>