<svg xmlns="http://www.w3.org/2000/svg" width="100%" height="100%" viewBox="0 0 24 24"><path fill="currentColor" d="M18.156 23.577q0 2.579.846 3.627c.846 1.048 1.518 1.048 2.862 1.048l.322-.041v1.532H9.774v-1.532h.403q2.015.04 2.862-1.008c.847-1.048.846-1.894.846-3.586v-5.401L5.986 6.65l-.847-1.128a5 5 0 0 0-.685-.766q-.525-.444-1.108-.625c-.583-.181-.893-.222-1.511-.302V2.257h12.05v1.531q-1.814.162-2.458.503-.645.343-.645 1.269 0 .404.161.806c.161.402.255.551.444.846l6.126 8.866 4.473-6.569q.644-.886.927-1.531c.283-.645.308-.832.363-1.209v-.323q0-1.249-.685-1.853c-.685-.604-1.25-.658-2.378-.765V2.256h9.954v1.531a5.3 5.3 0 0 0-.886.222 3.4 3.4 0 0 0-.766.383q-.645.363-1.33 1.149c-.685.786-1.007 1.256-1.652 2.197l-7.375 10.478v5.36z"/></svg>