<svg xmlns="http://www.w3.org/2000/svg" width="100%" height="100%" viewBox="0 0 24 24"><path fill="currentColor" d="M26.679 29.743H3.506v-1.169L21.884 3.909h-8.181q-2.016.041-3.104.423-1.088.384-2.015 1.471-.08.081-.141.161c-.061.08-.088.108-.141.161q-.161.243-.303.423c-.142.18-.181.249-.262.383q-.04.121-.121.242l-.161.242q-.081.242-.201.503-.122.262-.282.625l-1.451-.04V2.257h22.004v1.088L8.987 28.09h8.02q1.813.04 2.882-.081c1.069-.121 1.376-.254 1.995-.523q.12-.04.222-.081c.102-.041.127-.053.181-.081q.564-.282 1.088-.645c.524-.363.698-.524 1.048-.846q.363-.363.725-.785c.362-.422.497-.598.766-.947l1.048-1.492h1.531z"/></svg>